<svg width="100" height="100" xmlns="http://www.w3.org/2000/svg">
  <path d="m24.1234,29.88522c-0.99604,4.80505 -3.54028,9.39729 -3.7116,14.35223c0.22795,2.8689 -2.0311,4.40992 -5.12368,4.35566c-3.32617,2.93749 0.41055,7.57988 4.17403,8.76566c3.84084,2.19653 8.60567,-0.25786 12.41037,1.71252c5.05201,3.36468 7.16111,9.33033 5.41817,14.56033c-1.73295,4.31737 7.13791,2.74718 3.80128,-0.70402c-2.57701,-3.37329 4.85784,-2.25801 2.95448,0.94461c-0.35966,2.57082 2.22574,3.40293 1.07515,5.89358c2.99748,1.46436 -0.25127,2.28429 -2.07702,2.56078c-4.27548,1.81585 0.77335,-3.25281 -2.61368,-4.75202c-3.10167,0.57432 -0.99997,4.99951 -2.0646,4.48841c-2.19173,-1.46221 -2.19011,-6.92899 -5.86858,-3.36198c-1.22085,-4.39519 1.00669,-8.9726 -0.70927,-13.34228c0.70293,-3.26333 -5.34455,-4.38894 -4.57965,-0.60403c0.30492,5.77658 -1.75394,11.54166 -0.5723,17.28978c1.62745,3.54539 6.17918,5.14255 9.03597,7.87843c2.3462,2.10952 5.38785,4.36493 9.03958,3.70078c4.14183,-0.15297 8.29129,-0.47886 12.41444,0.08139c5.18607,0.13936 9.145,-3.35318 13.57078,-5.14721c5.20286,-3.51981 4.38368,-9.80692 3.86503,-14.81492c-0.63598,-3.09189 0.7596,-6.18518 0.49952,-9.24812c-3.75098,-3.91022 -6.82848,2.96278 -5.75997,5.91565c-0.00026,3.71449 0.83699,8.49938 -3.32191,10.91903c-3.43221,-0.07373 -6.69868,0.98842 -10.15736,0.43306c-2.80652,1.41994 -7.3524,1.38348 -8.27878,-1.99674c-0.36985,-3.00186 1.22664,-6.14901 -0.94254,-8.95058c1.90588,1.39852 5.23106,-1.20785 3.37791,1.92753c-2.26031,2.5522 1.91395,6.48497 3.48536,2.71788c0.52135,-2.5275 -2.25513,-5.88203 2.30882,-5.34053c0.93075,0.89152 -3.17843,7.12771 2.43856,5.55176c4.00461,-0.74736 -0.71245,-6.09941 4.71057,-6.11801c2.62454,-2.63249 1.91789,-7.56677 5.9325,-9.56386c4.47626,-2.58094 11.46523,-0.7176 14.66012,-5.0884c2.7232,-2.2367 1.44167,-8.43609 -3.25486,-6.38193c-5.86914,0.48746 -1.21116,-6.77266 -1.37492,-9.4931c1.38287,-2.36941 -1.67939,-7.35703 -0.62492,-7.88619c1.99246,2.59723 2.70608,5.63497 2.27758,8.67026c-0.03682,2.57402 -1.31807,9.54997 2.88214,5.24963c1.42188,-2.99697 1.00834,-6.39156 2.02136,-9.50956c1.95385,-6.73167 -1.54456,-13.46708 -5.44463,-19.16876c-3.32162,-3.06949 -7.53852,-5.51637 -11.4985,-7.92553c-6.66084,-2.13434 -14.01543,-2.5167 -21.05029,-1.98178c-6.22262,0.91894 -12.80301,1.88777 -17.76012,5.50248c-4.83112,2.42527 -9.45794,5.6464 -11.36788,10.30652c-1.66444,3.7542 -4.57907,7.57739 -3.25439,11.74777c1.26687,3.47647 0.59495,7.08692 0.80007,10.64023c2.15964,4.06108 4.19861,-2.07808 3.9965,-4.10871c0.11956,-3.85073 2.50411,-7.25919 4.26119,-10.67766l0,-0.00001l0,-0.00001zm39.66677,8.26123c4.44115,0.27113 10.06433,2.37822 10.18553,6.77107c0.6753,4.40834 -3.50555,8.68144 -8.86342,8.24913c-4.86666,-0.34058 -7.97917,-3.92214 -7.65601,-7.94882c-1.62934,-2.88718 0.9062,-5.97938 4.30914,-6.64309c0.6599,-0.18905 1.3382,-0.33056 2.02476,-0.42829l0,0l0,0zm-29.97033,0.37548c5.15207,-0.78064 11.01381,1.94239 11.03102,6.80117c0.48388,4.69715 -5.36942,5.61742 -9.36229,6.79413c-2.76288,1.5199 -5.63286,0.10476 -7.9286,-1.42659c-2.97861,-2.65623 -2.10312,-8.00893 1.04198,-10.43361c1.52512,-0.96165 3.41309,-1.33968 5.21789,-1.73509l0,0zm17.62962,12.3915c2.49418,2.9207 5.48846,7.37458 2.26294,10.68947c-2.86337,1.95649 -3.22437,-2.7829 -6.22975,-0.55084c-2.8194,-2.10374 -0.21904,-6.38464 1.75922,-8.52179c0.65202,-0.61542 1.39816,-1.15722 2.20759,-1.61684z"/>
</svg>
