<svg width="60" height="60" xmlns="http://www.w3.org/2000/svg">
 <g>
  <path d="m50.653371,52.025617c1.407981,-1.689101 2.605123,-3.559263 3.567601,-5.561646c1.692675,-3.517571 2.648006,-7.456822 2.648006,-11.622398c0,-3.11495 -0.556284,-6.092914 -1.531865,-8.875524c-3.668852,-10.470521 -13.612869,-17.992858 -25.336518,-17.992858c-11.743899,0 -21.70221,7.547352 -25.356768,18.045271c-0.963669,2.768315 -1.512806,5.728412 -1.512806,8.823112c0,4.141752 0.942228,8.059562 2.615844,11.561647c0.968434,2.026207 2.178678,3.915427 3.599763,5.623587" stroke-width="2" fill="powderblue" stroke="#ff0000"/>
  <path d="m56.868977,34.665279l-7.000598,0" stroke-width="2" stroke="#ff0000"/>
  <path d="m10.421077,34.665279l-7.290056,0" stroke-width="2" stroke="#ff0000"/>
  <path d="m13.029774,44.46278l-6.298989,3.63669" stroke-width="2" stroke="#ff0000"/>
  <path d="m43.356168,11.532454l-3.459203,5.991664" stroke-width="2" stroke="#ff0000"/>
  <path d="m30.000595,7.973192l0,6.972009" stroke-width="2" stroke="#ff0000"/>
  <path d="m16.645022,11.532454l3.530674,6.115547" stroke-width="2" stroke="#ff0000"/>
  <path d="m6.82727,21.285882l6.202503,3.580704" stroke-width="2" stroke="#ff0000"/>
  <path d="m47.187021,44.587855l6.165577,3.535439" stroke-width="2" stroke="#ff0000"/>
  <circle fill="#ffffff" cx="29.937501" cy="35.859345" r="3.1"/>
  <path d="m30.000595,40.179277c2.42168,0 4.384754,-1.963074 4.384754,-4.384754c0,-2.42168 -1.963074,-4.384754 -4.384754,-4.384754c-2.42168,0 -4.384754,1.963074 -4.384754,4.384754c0,2.42168 1.963074,4.384754 4.384754,4.384754z" stroke-width="2" fill="none" stroke="#0000ff"/>
  <path d="m33.587366,33.262744l13.711514,-8.424238" stroke-width="2" stroke="#0000ff"/>
 </g>
</svg>
