<svg width="60" height="60" xmlns="http://www.w3.org/2000/svg">
  <path d="m5.49103,6.21786l1.05377,-0.26261c1.55574,-2.23112 6.02818,-3.38866 9.52712,0.6316l0.68802,-0.39225c-2.95623,-3.63506 -8.39044,-4.32109 -11.26892,0.02326zm-0.73874,4.13498l-0.12407,-0.80719c-5.03982,-2.15059 -1.58237,-7.2825 1.57419,-5.21924l0.59933,-0.50674c-4.27576,-3.06438 -8.96613,3.98412 -2.04945,6.53318zm13.13458,-3.00144l-0.52187,0.34903c8.08035,7.12322 12.35592,-7.0412 20.4835,-1.28645c-8.04248,-6.64029 -12.39592,7.27945 -19.96163,0.93742zm-5.70758,1.70862l0.10903,0.69055c4.11485,-0.59338 8.92442,-7.61439 14.62913,-3.09608l0.484,-0.42277c-6.0401,-5.2124 -11.6111,2.23312 -15.22216,2.8283l0,0l0,0zm-4.1087,-4.10869l-0.51524,0.46207c1.06335,1.10494 1.08641,2.23714 1.23933,4.03379l0.76514,-0.14118c-0.09428,-1.61036 -0.26644,-3.16976 -1.48923,-4.35468l0,0zm1.29183,1.43037l0.17031,0.6669c1.44813,0.47833 1.91931,1.74495 1.54291,4.08569l0.66847,-0.03724c0.39507,-2.45722 0.06063,-4.18375 -2.38169,-4.71535zm-4.23343,1.83612c-0.3547,1.34517 -0.14536,4.37956 3.20089,4.39573l0.12299,-0.69143c-2.72194,-0.10822 -2.88205,-2.47922 -2.35018,-4.13859l-0.97369,0.43429zm-2.80922,1.12474c-3.93186,7.43973 10.96591,9.49529 3.13181,20.80599l0.2389,0.66813c8.79052,-11.64545 -6.06364,-14.56722 -2.71917,-20.94226l-0.65154,-0.53187l0,0l0,0zm8.33586,0.05016c-1.27166,0.46485 -2.90928,0.59637 -4.25631,0.55699l0.12711,0.60315c1.0144,0.13566 3.31938,-0.17069 4.19686,-0.49228l-0.06765,-0.66787zm-1.79056,1.47563c-0.01946,2.23206 0.12178,4.42248 -2.6261,6.76472l0.40888,0.56846c2.77156,-2.19321 2.92504,-4.21101 2.90533,-7.4463l-0.68811,0.11312zm1.00723,0.93077l0.04537,0.73376c4.63482,-1.27984 4.88735,1.28138 4.07998,2.15491c-0.80748,0.87365 -2.6588,0.19381 -2.40675,-2.03104l-0.64576,0.03931c-0.40961,2.677 2.19249,4.00018 3.64087,2.56637c1.44062,-1.42604 0.36922,-4.96304 -4.7137,-3.46331zm-4.78016,6.78461c-5.90737,5.78247 1.65867,13.92547 1.60723,18.50836c-0.05113,4.55481 -3.0878,6.37975 -3.17578,10.32015c-0.08819,3.94944 2.53432,7.03204 2.42433,8.26767c-0.10999,1.23563 -1.70507,1.38051 -1.67676,-0.25594c-0.35565,2.07258 1.98096,1.9327 1.93816,0.09914c-0.04276,-1.83186 -2.28789,-4.09783 -2.21873,-7.99493c0.0704,-3.96742 3.07306,-5.15444 3.24065,-10.43609c0.16759,-5.28166 -7.24951,-12.34391 -1.62053,-18.04957l-0.51857,-0.45879zm2.7958,-12.21616c-1.86622,0.00525 -3.60455,0.80563 -4.52928,1.84722l0.62985,0.50616c0.76588,-0.7488 2.07569,-1.71684 4.14857,-1.64547l-0.24914,-0.70791zm49.19588,1.63986c-1.739,-0.09764 -4.32738,-2.33858 -10.32185,-2.29021c-5.99436,0.04837 -13.04991,5.6309 -17.97181,1.63083l-0.3889,0.46871c5.28028,4.43496 12.50304,-1.53784 18.36071,-1.57765c5.85778,-0.03982 8.12353,1.9199 10.26196,2.07746c2.13853,0.15756 2.57105,-2.36049 -0.19126,-2.08333c2.38777,0.14639 1.99014,1.87182 0.25115,1.77417zm-52.64492,23.27655c0,0 -1.4326,2.39691 -1.56425,3.75871c-0.13187,1.36382 -0.21459,2.64583 0.91776,3.80817c-0.67405,-1.22053 -0.71382,-1.69825 -0.58948,-3.35311c0.12434,-1.65475 1.56034,-3.5633 1.56034,-3.5633l-0.32436,-0.65047z"/>
</svg>
