<svg width="60" height="60" xmlns="http://www.w3.org/2000/svg">
  <path d="m6.34356,6.01804l0.8523,-0.23906c1.25831,-2.03097 4.87566,-3.08466 7.70565,0.57494l0.55648,-0.35706c-2.39103,-3.30896 -6.78629,-3.93344 -9.11443,0.02118zm-0.5975,3.76403l-0.10035,-0.73478c-4.07627,-1.95766 -1.27984,-6.62919 1.27322,-4.75102l0.48475,-0.46128c-3.45828,-2.78947 -7.25191,3.62671 -1.65762,5.94708zm10.6234,-2.73218l-0.42209,0.31772c6.53548,6.48419 9.99362,-6.40954 16.5673,-1.17104c-6.50485,-6.04459 -10.02597,6.62641 -16.14521,0.85332zm-4.61636,1.55534l0.08819,0.6286c3.32814,-0.54015 7.21818,-6.93131 11.83221,-2.81833l0.39146,-0.38484c-4.88531,-4.74479 -9.39119,2.03279 -12.31186,2.57458l0,0l0,0zm-3.32317,-3.7401l-0.41673,0.42061c0.86005,1.00582 0.8787,2.03645 1.00238,3.67192l0.61886,-0.12851c-0.07625,-1.46589 -0.2155,-2.8854 -1.20451,-3.96402l0,0zm1.04485,1.30205l0.13775,0.60707c1.17126,0.43542 1.55236,1.58841 1.24792,3.71916l0.54067,-0.0339c0.31954,-2.23678 0.04904,-3.80842 -1.92634,-4.29233zm-3.42405,1.67141c-0.28689,1.22449 -0.11757,3.98667 2.58892,4.00139l0.09948,-0.6294c-2.20154,-0.09852 -2.33104,-2.25681 -1.90086,-3.76732l-0.78753,0.39533zm-2.27213,1.02384c-3.18014,6.77231 8.86936,8.64347 2.53304,18.93949l0.19323,0.60819c7.10988,-10.60074 -4.90435,-13.26039 -2.1993,-19.06353l-0.52697,-0.48415l0,0l0,0zm6.74214,0.04566c-1.02854,0.42315 -2.35306,0.54287 -3.44256,0.50703l0.1028,0.54904c0.82046,0.12349 2.68475,-0.15537 3.39447,-0.44811l-0.05472,-0.60795zm-1.44823,1.34326c-0.01574,2.03182 0.09849,4.02574 -2.12402,6.15786l0.33071,0.51746c2.24167,-1.99646 2.36581,-3.83324 2.34986,-6.77829l-0.55655,0.10297zm0.81466,0.84727l0.03669,0.66794c3.7487,-1.16503 3.95295,1.16642 3.29994,1.9616c-0.6531,0.79527 -2.15047,0.17643 -1.94661,-1.84884l-0.5223,0.03578c-0.3313,2.43684 1.77331,3.64132 2.94478,2.33614c1.16519,-1.29811 0.29863,-4.5178 -3.8125,-3.15262zm-3.86625,6.17596c-4.77795,5.26372 1.34155,12.67621 1.29995,16.84797c-0.04136,4.1462 -2.49745,5.80742 -2.56861,9.39432c-0.07133,3.59513 2.04979,6.40119 1.96083,7.52598c-0.08896,1.12479 -1.37908,1.25667 -1.35618,-0.23298c-0.28765,1.88665 1.60223,1.75932 1.56761,0.09025c-0.03459,-1.66752 -1.85047,-3.73021 -1.79453,-7.2777c0.05694,-3.6115 2.48553,-4.69203 2.62108,-9.49987c0.13555,-4.80784 -5.86349,-11.23653 -1.3107,-16.43034l-0.41943,-0.41763zm2.26128,-11.12025c-1.50942,0.00478 -2.91541,0.73336 -3.66333,1.6815l0.50943,0.46075c0.61945,-0.68162 1.67884,-1.56282 3.35541,-1.49786l-0.20151,-0.6444zm39.79022,1.49275c-1.40652,-0.08888 -3.50004,-2.12879 -8.34844,-2.08476c-4.84831,0.04403 -10.55492,5.12576 -14.53582,1.48453l-0.31455,0.42667c4.27075,4.0371 10.11261,-1.39988 14.85036,-1.43612c4.73784,-0.03624 6.57041,1.74767 8.3,1.8911c1.72967,0.14343 2.07949,-2.14873 -0.1547,-1.89643c1.93126,0.13326 1.60965,1.7039 0.20313,1.61501zm-42.57985,21.18841c0,0 -1.1587,2.18189 -1.26519,3.42151c-0.10666,1.24147 -0.17356,2.40847 0.74229,3.46654c-0.54518,-1.11104 -0.57735,-1.5459 -0.47678,-3.0523c0.10057,-1.5063 1.26202,-3.24364 1.26202,-3.24364l-0.26235,-0.59212z"/>
</svg>
