<svg width="30" height="30" xmlns="http://www.w3.org/2000/svg">
  <path d="m4.29454,9.29753c0,0 0.38247,-0.29988 0.56255,-0.49318c0.17965,-0.1927 0.35972,-0.42854 0.91079,-0.57869c0.55085,-0.14974 0.51704,-0.2784 1.46185,-0.37485c0.94438,-0.09665 1.34939,-0.20383 1.36044,-0.37505c0.01148,-0.17142 0.07867,-1.66108 0.24747,-2.42213c0.16859,-0.76104 0.96713,-2.4434 2.03525,-2.37917c0,0 0.69734,0 0.8434,0.69641c0,0 0.506,-0.45002 1.16953,-0.31062c0.66353,0.1392 0.91079,0.51446 0.7084,1.18959c-0.2024,0.67513 -0.44987,1.00581 -0.53958,1.73524c-0.08993,0.72984 -0.32613,1.81224 -0.86572,2.31596c-0.54001,0.50331 -0.62994,0.57849 -0.72009,0.59996c-0.08993,0.02148 -0.04486,0.25733 -0.16838,0.52519c-0.12395,0.26806 0.01127,0.18216 -0.03381,0.45002c-0.04507,0.26786 -0.06718,0.4715 0.05613,0.79326c0.12374,0.32115 0.06761,0.69641 0.03381,0.76064c0,0 0.34867,-0.11772 0.71987,0.06423c0.37099,0.18236 0.5955,0.26806 0.92185,0.15014c0.32635,-0.11772 0.69734,-0.1929 2.04651,-0.11772c1.34939,0.07497 1.78799,0.12867 2.35032,0.40707c0.56233,0.27881 1.93405,0.20384 3.54196,1.40416c1.60834,1.20033 2.69899,2.45414 3.35104,3.21518c0.65227,0.76064 1.06833,1.48946 1.20333,2.43246c0.135,0.9432 0.4048,2.67946 0.32592,3.0545c-0.06569,0.31467 -0.18731,0.4409 -0.1518,0.4796c0.00722,0.00729 0.01956,0.01155 0.03975,0.01338c0.12353,0.01074 0.96671,-0.07497 1.55179,-0.3323c0,0 -0.14394,0.34243 -0.43137,0.54141c-0.01339,0.00912 -0.02721,0.01804 -0.04124,0.02654c-0.31487,0.1931 0.60762,-0.2784 0.75346,-0.53573c0,0 -0.6748,1.2216 -1.03453,1.40396c0,0 0.85445,-0.52499 1.15826,-1.01797c0,0 0.06761,1.06051 -1.02304,2.04667c0,0 0.79832,-0.83581 0.94417,-1.11421c0,0 -0.14585,1.47873 -1.68657,2.20756c-1.54052,0.72862 -1.29326,0.56795 -1.9789,0.56795c0,0 -0.43307,-0.00547 -0.66949,0.06403c-0.23599,0.0699 -0.69139,0.12319 -0.96139,0.22511c-0.26958,0.10212 -1.39978,0.27861 -1.93384,0.37525c-0.53427,0.09644 -2.26039,0.32156 -3.75605,0.3323c-1.49544,0.01094 -1.69509,0.02128 -1.87941,-0.3485c-0.18411,-0.36958 0.0185,-0.96427 0.6089,-1.25362c0,0 0.21919,-0.43402 -0.23641,-0.48244c-0.45518,-0.04823 -2.24296,0.04843 -2.73215,-0.03201c-0.48941,-0.08064 -0.84382,-0.62732 -0.32082,-0.90045c0.523,-0.27314 0.69181,-0.30535 0.69181,-0.30535c-0.08036,0.02432 -0.67458,0.04823 -0.89399,-0.25712c-0.21941,-0.30555 -0.11821,-0.57889 -0.32082,-0.36978c-0.20218,0.2089 -0.43796,0.96427 -1.14678,1.46292c-0.7084,0.49825 0.253,1.15737 -0.50578,1.44671c-0.75921,0.28934 -2.42899,0.22511 -3.13738,0.04823c-0.6933,-0.17283 -1.06365,-0.45387 -0.3204,-1.00804c0.01616,-0.01216 0.03317,-0.02432 0.05039,-0.03667c0.80959,-0.57869 -0.42159,0.6267 -0.70839,0.54626c-0.28659,-0.08003 -0.1856,-0.77137 1.45038,-1.38248c0,0 0.4724,-0.22511 0.25321,-1.09294c-0.21919,-0.86803 0.33719,-1.10915 -0.28659,-1.76827c-0.62441,-0.65933 -1.33238,-1.31825 -2.0412,-2.37937c-0.70839,-1.06072 -0.6242,-1.12536 -0.5736,-1.54316c0.0506,-0.41801 0,-0.73936 -0.253,-1.15757c-0.253,-0.41801 -0.13479,-0.99487 -0.1012,-1.51013c0.03381,-0.51526 0.20261,-0.29015 0.1854,-0.61191c-0.0168,-0.32135 0.30381,-0.35358 0.05102,-0.49825c-0.253,-0.14467 -1.97359,-0.6109 -1.822,-1.68783c0,0 -0.28638,0.01601 -0.26958,-0.32135c0.01658,-0.33797 0.16859,-0.69155 0.52258,-1.06113c0.35441,-0.36978 0.55701,-0.43422 0.60741,-0.6269c0.05102,-0.1931 0.54299,-0.66115 0.82639,-0.89497l-0.00004,-0.00003zm2.22852,0.97353c-0.63381,0 -1.08938,0.23528 -1.08938,0.58824c0,0.31402 0.44296,0.59924 1.08946,0.59924c0.65268,0 1.09801,-0.28513 1.09801,-0.59924c0,-0.35578 -0.47004,-0.58824 -1.0981,-0.58824l0.00001,0zm-0.00017,1.06127l0,0c-0.19372,0 -0.29536,-0.06978 -0.34877,-0.16442c-0.02404,-0.04492 -0.03876,-0.09464 -0.04765,-0.14471c-0.00965,-0.05951 -0.01092,-0.12011 -0.01092,-0.17447c0,-0.04301 0.00152,-0.08572 0.00626,-0.12674c0.01049,-0.07485 0.03267,-0.14861 0.07532,-0.20934c0.05873,-0.07441 0.15835,-0.12223 0.32575,-0.12223c0.21158,0 0.31847,0.07719 0.37111,0.1872c0.03631,0.08204 0.04739,0.17863 0.04739,0.27175c0,0.09958 -0.00872,0.2232 -0.06457,0.32234c-0.05594,0.09265 -0.16012,0.16061 -0.35393,0.16061l0.00001,0.00001z"/>
</svg>
