<svg width="192" height="192" xmlns="http://www.w3.org/2000/svg">
<path d="m181.28772,124.28487c-8.52076,-3.89514 -18.97896,-7.08618 -30.76664,-9.47935c0.56318,-6.16153 0.85443,-12.45313 0.85443,-18.80553s-0.29125,-12.644 -0.85443,-18.806c11.78768,-2.39269 22.24588,-5.58421 30.76664,-9.47935c1.77532,-0.81155 2.5567,-2.90875 1.74515,-4.68406c-0.81202,-1.77532 -2.9078,-2.5567 -4.68406,-1.74515c-7.79546,3.56336 -17.56182,6.53808 -28.60817,8.80966c-1.49726,-11.7316 -3.99175,-22.87787 -7.36,-32.94019c4.34521,-2.08966 8.56553,-4.4767 12.62892,-7.16112c1.62875,-1.07593 2.07694,-3.26881 1.001,-4.89755s-3.26928,-2.07694 -4.89755,-1.001c-3.59776,2.37667 -7.32606,4.50686 -11.16182,6.38492c-3.08218,-7.82892 -6.72565,-14.86043 -10.87057,-20.80564c-1.11599,-1.60094 -3.31923,-1.99493 -4.92065,-0.87847c-1.60094,1.11646 -1.99446,3.31923 -0.878,4.92065c3.89655,5.58986 7.32418,12.22691 10.22491,19.63828c-10.75887,4.35087 -22.23033,6.79729 -33.97182,7.20636l0,-34.10472c0,-1.95205 -1.58209,-3.53461 -3.53461,-3.53461s-3.53461,1.58256 -3.53461,3.53461l0,34.10519c-11.7415,-0.40907 -23.21295,-2.85549 -33.97182,-7.20636c2.90073,-7.41137 6.32836,-14.04794 10.22491,-19.63828c1.11646,-1.60141 0.72295,-3.80465 -0.878,-4.92065c-1.60188,-1.11646 -3.80465,-0.72295 -4.92065,0.87847c-4.14445,5.94521 -7.78839,12.97625 -10.87057,20.80564c-3.83576,-1.87758 -7.56406,-4.00777 -11.16182,-6.38492c-1.62828,-1.07593 -3.82115,-0.62775 -4.89755,1.001c-1.07593,1.62875 -0.62775,3.82162 1.001,4.89755c4.06338,2.68442 8.28371,5.07193 12.62892,7.16112c-3.36825,10.06279 -5.86274,21.20859 -7.36,32.94019c-11.04636,-2.27157 -20.81271,-5.2463 -28.60817,-8.80966c-1.77532,-0.81155 -3.87299,-0.03016 -4.68406,1.74515s-0.02969,3.87252 1.74515,4.68406c8.52076,3.89514 18.97896,7.08618 30.76664,9.47935c-0.56412,6.16153 -0.85538,12.45313 -0.85538,18.80553s0.29125,12.644 0.85443,18.806c-11.78768,2.39269 -22.24588,5.58421 -30.76664,9.47935c-1.77532,0.81155 -2.5567,2.90875 -1.74515,4.68406c0.81202,1.77532 2.90875,2.55717 4.68406,1.74515c7.79546,-3.56336 17.56182,-6.53808 28.60817,-8.80966c1.49726,11.7316 3.99175,22.87787 7.36,32.94019c-4.34521,2.08966 -8.56506,4.4767 -12.62892,7.16112c-1.62875,1.07593 -2.07694,3.26881 -1.001,4.89755c1.07546,1.62875 3.26881,2.07694 4.89755,1.001c3.59776,-2.37667 7.32606,-4.50686 11.16182,-6.38492c3.08218,7.82939 6.72565,14.86043 10.87057,20.80564c0.68713,0.98545 1.78568,1.51328 2.90262,1.51328c0.69702,0 1.40253,-0.20595 2.01803,-0.63529c1.60094,-1.11646 1.99446,-3.31923 0.878,-4.92112c-3.89655,-5.59034 -7.32418,-12.22691 -10.22491,-19.63828c10.75887,-4.35087 22.23033,-6.79729 33.97182,-7.20636l0,34.10566c0,1.95205 1.58209,3.53461 3.53461,3.53461s3.53461,-1.58256 3.53461,-3.53461l0,-34.10519c11.7415,0.40907 23.21295,2.85549 33.97182,7.20636c-2.90073,7.41137 -6.32836,14.04794 -10.22491,19.63828c-1.11646,1.60141 -0.72295,3.80465 0.878,4.92112c0.61596,0.42934 1.32053,0.63529 2.01803,0.63529c1.11694,0 2.21549,-0.52783 2.90262,-1.51328c4.14445,-5.94521 7.78839,-12.97672 10.87057,-20.80564c3.83576,1.87758 7.56406,4.00777 11.16182,6.38492c0.59947,0.39635 1.27623,0.5858 1.94498,0.5858c1.14757,0 2.27252,-0.558 2.95258,-1.5868c1.07593,-1.62875 0.62775,-3.82162 -1.001,-4.89755c-4.06386,-2.68442 -8.28371,-5.07146 -12.62892,-7.16112c3.36825,-10.06279 5.86274,-21.20859 7.36,-32.94019c11.04636,2.27157 20.81271,5.2463 28.60817,8.80966c0.47647,0.21773 0.97555,0.32094 1.4671,0.32094c1.34079,0 2.62315,-0.76677 3.21696,-2.0661c0.81249,-1.77626 0.03063,-3.87346 -1.74421,-4.685zm-36.98142,-28.28487c0,5.91788 -0.26203,11.77213 -0.76348,17.50668c-13.46591,-2.27959 -28.39704,-3.57043 -44.00822,-3.74009l0,-27.53271c15.61118,-0.16966 30.54231,-1.46097 44.00822,-3.74009c0.50144,5.73408 0.76348,11.58833 0.76348,17.5062zm-8.40341,-55.98771c3.1557,9.5703 5.49184,20.18874 6.88824,31.38873c-13.26043,2.27252 -28.02473,3.58503 -43.25653,3.76129l0,-27.52941c12.56529,-0.4086 24.84546,-2.99499 36.36829,-7.62061zm-79.80579,0c11.52282,4.62562 23.80299,7.21154 36.36829,7.62109l0,27.52941c-15.2318,-0.17626 -29.99609,-1.48878 -43.25653,-3.76129c1.39688,-11.20046 3.73302,-21.8189 6.88824,-31.3892zm-8.40341,55.98771c0,-5.91788 0.26203,-11.77213 0.76348,-17.50668c13.46591,2.27959 28.39704,3.57043 44.00822,3.74009l0,27.53271c-15.61118,0.16966 -30.54231,1.46097 -44.00822,3.74009c-0.50144,-5.73408 -0.76348,-11.58833 -0.76348,-17.5062zm8.40388,55.98771c-3.1557,-9.5703 -5.49184,-20.18874 -6.88871,-31.38873c13.26043,-2.27252 28.02473,-3.58503 43.25653,-3.76129l0,27.52941c-12.56529,0.4086 -24.84546,2.99499 -36.36781,7.62061zm79.80484,0c-11.52235,-4.62562 -23.80299,-7.21154 -36.36781,-7.62109l0,-27.52941c15.2318,0.17626 29.99609,1.48878 43.25653,3.76129c-1.39688,11.20046 -3.73302,21.8189 -6.88871,31.3892z"/>
</svg>

