<svg width="192" height="192" xmlns="http://www.w3.org/2000/svg">
<path d="m160.654329,163.929984l1.081283,-1.081283l0.254419,-0.254419l-3.498267,3.498267c0.12721,-0.12721 0.318025,-0.318025 0.445234,-0.445234c0.954073,-1.017677 1.208492,-1.272097 1.717331,-1.717331m6.42409,-7.123744c3.943501,-5.088388 4.070711,-5.279203 6.042461,-8.268631l0.636048,-0.954073c0.254419,-0.381629 0.572444,-0.890468 0.763258,-1.272097c-0.063605,0.063605 -0.12721,0.190815 -0.190815,0.254419c-0.381629,0.508839 -0.890468,1.081283 -1.526516,1.780936c-0.190815,0.190815 -0.381629,0.381629 -0.508839,0.572444c-0.254419,0.318025 -0.508839,0.826863 -0.699654,1.208492c-1.399306,2.353379 -3.243847,5.024784 -5.533622,7.823397c0,0 0.063605,-0.063605 0.063605,-0.063605c0.572444,-0.636048 0.890468,-1.017677 0.954073,-1.081283m-2.035356,2.22617c0,0 2.798614,-3.180243 5.915251,-8.713865c-1.272097,1.272097 -2.671404,2.607799 -4.261526,4.070711c0,0 -0.063605,0.063605 -0.063605,0.063605c-0.12721,0.12721 -0.12721,0.318025 -0.254419,0.508839c-1.081283,2.289775 -2.416985,4.515945 -4.070711,6.742115c0,0 0.063605,-0.063605 0.063605,-0.063605c1.081283,-0.954073 1.97175,-1.844541 2.671404,-2.607799m9.477123,-12.720971c-3.371057,5.151993 -3.943501,6.106066 -7.441768,10.558406c-2.416985,2.925824 -2.480589,2.925824 -3.943501,4.515945c-1.653726,1.717331 -1.653726,1.717331 -2.480589,2.544194c-1.208492,1.144887 -1.208492,1.144887 -1.780936,1.717331c-0.381629,0.381629 -0.890468,0.826863 -1.272097,1.208492c0.826863,-0.763258 1.017677,-0.954073 1.780936,-1.780936c-4.388735,4.007106 -9.985962,8.39584 -14.565512,11.576083c-0.636048,0.381629 -1.526516,0.954073 -2.162565,1.335702c18.509013,-12.784576 20.544368,-17.936569 22.070885,-21.75286c-12.339341,11.00364 -31.229983,25.696361 -40.325478,30.212306c5.215598,-2.989428 16.982496,-12.021318 28.68579,-21.943675c12.593762,-10.685616 12.593762,-10.685616 13.166205,-13.611439c0.890468,-0.826863 1.780936,-1.653726 2.607799,-2.416985c-0.318025,1.017677 -0.508839,1.653726 -0.826863,2.607799c5.151993,-4.961178 5.151993,-4.961178 6.42409,-8.077817c0.636048,-0.636048 1.208492,-1.272097 1.717331,-1.844541c-0.508839,1.144887 -0.826863,1.908146 -1.399306,3.053033c2.607799,-2.925824 2.607799,-2.925824 4.32513,-6.614905c0.063605,-0.12721 0.12721,-0.254419 0.190815,-0.318025c0.12721,-0.190815 0.190815,-0.381629 0.254419,-0.508839c-1.399306,2.925824 -3.307453,6.742115 -5.024784,9.540729m10.876431,-73.209188l0,0.063605c-0.572444,-2.162565 -1.208492,-4.32513 -1.908146,-6.487695l-0.063605,-0.12721l1.97175,6.5513m-6.5513,-17.936569c0,0.063605 0.063605,0.12721 0.063605,0.190815c-1.017677,-2.09896 -2.09896,-4.134316 -3.307453,-6.106066c0,-0.063605 -0.063605,-0.190815 -0.12721,-0.318025l3.371057,6.233276m-11.957712,-18.572617l1.526516,1.908146c0.063605,0.12721 0.063605,0.12721 0.12721,0.318025c-0.508839,-0.636048 -1.017677,-1.272097 -1.462912,-1.844541c-1.017677,-1.208492 -2.035356,-2.416985 -3.116638,-3.625477c-0.063605,-0.190815 -0.063605,-0.254419 -0.190815,-0.445234l3.116638,3.689082m-12.212132,-12.339341c0.190815,0.12721 0.190815,0.254419 0.254419,0.445234c-1.780936,-1.526516 -3.625477,-2.925824 -5.470018,-4.261526c-0.063605,-0.254419 -0.12721,-0.318025 -0.318025,-0.508839l5.533622,4.32513m-15.837609,-10.876431c0.254419,0.12721 0.254419,0.254419 0.318025,0.508839c-1.97175,-1.081283 -4.007106,-2.09896 -6.106066,-3.053033c-0.063605,-0.318025 -0.190815,-0.381629 -0.445234,-0.572444l6.233276,3.116638m-21.88007,-8.52305l4.45234,1.272097c0.381629,0.12721 0.381629,0.318025 0.445234,0.508839c-2.162565,-0.636048 -4.32513,-1.272097 -6.487695,-1.780936c-0.063605,-0.190815 -0.12721,-0.445234 -0.572444,-0.508839l2.162565,0.508839m-103.421494,40.897922c2.162565,-3.371057 4.579549,-6.614905 7.250953,-9.731543l0,-0.063605c0.063605,-0.12721 0.12721,-0.190815 0.254419,-0.381629c-1.335702,1.526516 -3.816291,4.45234 -7.378163,9.985962l-0.063605,0.12721c0,0 -0.063605,0 -0.063605,0.063605m11.703293,-14.565512c2.607799,-2.607799 5.342808,-5.088388 8.332236,-7.378163l-0.063605,0c-3.053033,2.353379 -5.279203,4.32513 -8.014211,7.060138c0,0 0,0 0,0c0,0 0,0 0,0c0,0 0,0 0,0c0,0 0,0 0,0c0,0 0,0 0,0c0,0 0,0 0,0c0,0 0,0 0,0c0,0 0,0 0,0c-0.12721,0.12721 -0.190815,0.12721 -0.254419,0.318025c0,-0.063605 0,-0.063605 0,0m-12.720971,16.155634c3.371057,-5.151993 3.943501,-6.106066 7.441768,-10.558406l0.763258,-0.890468c0.381629,-0.445234 0.890468,-1.081283 0.890468,-1.081283l0.254419,-0.318025c1.208492,-1.272097 2.798614,-2.989428 4.007106,-4.261526c-0.063605,0.063605 -0.12721,0.12721 -0.190815,0.190815c1.144887,-1.081283 3.816291,-3.689082 7.823397,-6.742115l0,0c-8.586656,6.869324 -15.58319,14.883536 -20.989602,23.661006m72.954769,-42.615253c-0.445234,0 -1.017677,0.063605 -1.462912,0.063605c-0.826863,1.208492 -2.09896,2.607799 -4.007106,4.643155c4.388735,0.063605 7.250953,0.254419 11.703293,0.826863c0.12721,-0.12721 0.254419,-0.254419 0.381629,-0.381629c1.908146,-2.162565 2.989428,-3.625477 3.943501,-5.024784c-2.035356,-0.12721 -5.724437,-0.381629 -10.558406,-0.12721m-6.869324,6.869324c-0.190815,0 -0.508839,0 -0.699654,-0.063605c-1.526516,1.462912 -3.689082,3.625477 -7.378163,6.932929c3.689082,0.699654 6.742115,1.462912 10.494801,2.671404c0.063605,-0.063605 0.12721,-0.12721 0.12721,-0.12721c4.070711,-3.943501 6.360486,-6.29688 8.077817,-8.141421c-1.653726,-0.254419 -5.533622,-0.954073 -10.62201,-1.272097m-11.321664,-4.261526c-0.445234,0.12721 -1.081283,0.063605 -1.462912,0.381629c0,0 -0.063605,0.063605 -0.063605,0.063605c-0.572444,0.763258 -1.526516,1.844541 -2.798614,3.243847c3.689082,-0.699654 7.060138,-1.144887 9.922358,-1.335702c0.508839,-0.063605 1.399306,0 1.717331,-0.381629c1.462912,-1.653726 2.353379,-2.798614 2.989428,-3.879897c-1.97175,0.190815 -5.597228,0.699654 -10.303987,1.908146m-4.32513,4.833969c-0.381629,0.063605 -1.017677,-0.063605 -1.335702,0.190815c-1.908146,1.462912 -3.434662,3.307453 -5.215598,4.897574c3.434662,-0.063605 6.233276,0.063605 9.858752,0.508839c0.063605,-0.063605 0.063605,-0.063605 0.12721,-0.12721c3.116638,-2.989428 4.961178,-4.897574 6.233276,-6.29688c-1.908146,0.12721 -5.342808,0.190815 -9.667938,0.826863m-13.675043,1.717331c-0.254419,0.12721 -0.636048,0.190815 -0.826863,0.381629c-0.572444,0.508839 -1.017677,1.208492 -1.526516,1.717331c1.272097,-0.572444 5.215598,-2.289775 10.113172,-3.625477c0.254419,-0.063605 0.572444,-0.190815 0.699654,-0.381629c0.954073,-1.081283 1.462912,-1.780936 1.908146,-2.480589c-1.462912,0.572444 -5.470018,1.97175 -10.367591,4.388735m-2.289775,2.480589c-0.572444,0.254419 -0.572444,0.254419 -3.498267,2.862218c1.081283,-0.318025 4.261526,-1.208492 8.39584,-1.653726c0.190815,0 0.445234,0 0.572444,-0.12721c1.017677,-1.017677 2.544194,-2.544194 4.007106,-4.070711c-1.272097,0.318025 -4.961178,1.208492 -9.477123,2.989428m-13.420624,7.378163c0,0 0,0 0,0l0.445234,-0.318025c2.544194,-1.780936 4.961178,-3.371057 7.250953,-4.579549c0.254419,-0.12721 0.572444,-0.254419 0.699654,-0.445234c0.318025,-0.381629 0.508839,-0.636048 0.636048,-0.890468c-2.289775,1.399306 -5.279203,3.307453 -9.03189,6.233276m0.381629,-0.254419c-0.12721,0.063605 -0.318025,0.190815 -0.381629,0.318025l0,0l0.254419,-0.12721c1.97175,-1.208492 3.879897,-2.22617 5.788042,-2.989428c0.190815,-0.063605 0.445234,-0.12721 0.572444,-0.254419c0.572444,-0.572444 1.017677,-1.017677 1.526516,-1.526516c-1.399306,0.636048 -4.19792,2.035356 -7.759792,4.579549m14.883536,-9.922358c4.19792,-0.445234 7.378163,-3.180243 11.13085,-4.579549c0,-0.12721 0.063605,-0.318025 0.063605,-0.508839c2.162565,-0.826863 4.32513,-1.526516 6.487695,-2.162565c-0.063605,0.190815 -0.12721,0.381629 -0.12721,0.508839c10.558406,-2.289775 10.558406,-2.289775 11.830503,-2.480589c0.063605,-0.254419 0.12721,-0.508839 0.12721,-0.763258c2.22617,-0.381629 4.45234,-0.636048 6.678509,-0.826863c-0.063605,0.190815 -0.063605,0.445234 -0.12721,0.636048c3.943501,0.445234 7.950607,-0.063605 11.894108,0.063605c0.063605,-0.318025 0.190815,-0.699654 0.190815,-1.017677c2.22617,0.063605 4.45234,0.254419 6.678509,0.445234c-0.063605,0.318025 0,0.826863 0.12721,1.081283c1.017677,0.12721 1.717331,0.190815 3.116638,0.445234c-0.12721,0.318025 -0.318025,0.636048 -0.572444,1.017677c-0.12721,0.190815 -0.254419,0.381629 -0.381629,0.572444c-1.590121,-0.254419 -1.97175,-0.318025 -3.561872,-0.572444c-1.272097,1.717331 -2.480589,3.116638 -4.897574,5.724437c1.590121,0.318025 1.97175,0.381629 3.561872,0.763258c-0.890468,0.954073 -1.844541,1.97175 -2.862218,3.053033c-1.590121,-0.445234 -1.908146,-0.508839 -3.498267,-0.954073c-2.862218,2.862218 -5.024784,4.897574 -8.77747,8.332236c0.445234,0.572444 0.445234,0.572444 2.989428,1.653726c-1.399306,1.335702 -2.862218,2.671404 -4.388735,4.007106c-1.399306,-0.699654 -1.780936,-0.890468 -3.243847,-1.526516c-25.187522,22.388909 -61.951128,50.56586 -76.580246,56.926346c37.145235,-27.540902 47.131198,-34.919065 72.509534,-58.643677c-3.879897,-1.590121 -6.169671,-2.353379 -9.858752,-3.434662c-19.6539,17.42773 -48.276085,39.371406 -59.470539,44.205374c48.975739,-38.862566 48.975739,-38.862566 55.654248,-45.159447c-3.625477,-0.763258 -5.851647,-1.081283 -9.1591,-1.272097c-11.448874,10.176777 -31.738822,26.141596 -39.943849,29.639862c11.957712,-10.113172 24.996708,-18.954246 36.445582,-29.703467c-0.763258,0 -7.378163,0.254419 -8.77747,1.462912c-3.434662,3.053033 -14.120278,11.766898 -18.063779,13.166205c9.413519,-7.187349 10.367591,-7.950607 15.201561,-12.466552c-1.590121,0.063605 -5.024784,2.09896 -5.660832,2.480589l0,0c3.180243,-2.480589 5.788042,-4.32513 9.222704,-6.487695c0,-0.063605 0,-0.12721 0,-0.190815c1.97175,-1.144887 3.943501,-2.289775 6.042461,-3.434662l0.000002,-0.000001zm134.715083,110.545238c0.12721,-0.190815 1.590121,-5.342808 2.416985,-11.576083c-1.017677,1.462912 -2.289775,2.925824 -4.388735,5.215598c0,0.063605 0,0.063605 0,0.12721c0,0.063605 0,0.063605 0,0.12721c0,0.063605 0,0.063605 0,0.12721c0,0.063605 0,0.063605 0,0.12721c0,0.063605 0,0.063605 0,0.12721c0,0.063605 0,0.063605 0,0.12721c0,0.063605 0,0.063605 0,0.12721c0,0.063605 0,0.063605 0,0.12721c-0.445234,3.879897 -0.826863,6.29688 -1.653726,10.049567c0.063605,-0.063605 0.12721,-0.12721 0.12721,-0.190815c0.445234,-0.699654 2.289775,-2.798614 3.498267,-4.515945m-6.487695,7.568978c1.081283,-1.081283 1.590121,-10.940035 1.590121,-11.00364c-3.116638,3.116638 -6.29688,6.042461 -8.332236,7.950607c0.318025,4.643155 0,8.459446 -0.063605,9.858752c0.063605,-0.063605 0.063605,-0.063605 0.12721,-0.12721c0.826863,-0.826863 3.879897,-3.752687 6.678509,-6.678509m9.349914,-25.251128c0.12721,-0.254419 0.508839,-5.151993 0.063605,-11.957712c-1.208492,1.717331 -2.735008,3.498267 -5.215598,6.169671c0.445234,4.19792 0.636048,7.505373 0.572444,11.512479c0.063605,-0.063605 0.12721,-0.12721 0.190815,-0.190815c0.699654,-0.826863 2.989428,-3.371057 4.388735,-5.533622m-8.077817,9.477123c0.826863,-0.890468 0.190815,-6.869324 -0.508839,-11.703293c-3.943501,3.943501 -6.996534,6.742115 -9.922358,9.413519c0.954073,3.816291 1.526516,6.996534 2.035356,10.62201c0.063605,-0.063605 0.12721,-0.12721 0.12721,-0.12721c1.844541,-1.780936 4.961178,-4.770364 8.268631,-8.205026m7.441768,-27.540902c0.254419,-0.381629 -0.890468,-6.742115 -2.289775,-11.894108c-1.335702,1.908146 -3.053033,3.943501 -5.915251,6.932929c1.272097,4.070711 2.09896,7.441768 2.862218,11.576083c0.063605,-0.063605 0.12721,-0.190815 0.190815,-0.254419c0.890468,-0.954073 3.498267,-3.879897 5.151993,-6.360486m-9.413519,11.00364c0.12721,-0.12721 0.318025,-0.381629 0.508839,-0.508839c-0.890468,-4.070711 -1.780936,-7.378163 -3.180243,-11.448874c-4.579549,4.515945 -8.90468,8.586656 -11.13085,10.558406c1.717331,4.007106 2.862218,7.187349 4.070711,11.13085c0.063605,-0.063605 0.12721,-0.12721 0.190815,-0.190815c1.590121,-1.526516 5.660832,-5.533622 9.540729,-9.540729m5.088388,-28.876604c0.063605,-0.063605 0.063605,-0.12721 0.12721,-0.190815c-1.462912,-4.134316 -2.862218,-7.378163 -4.770364,-11.321664c-1.462912,2.09896 -3.307453,4.19792 -6.29688,7.378163c2.09896,3.943501 3.561872,7.250953 5.151993,11.385269c0.063605,-0.063605 0.190815,-0.190815 0.254419,-0.254419c0.890468,-1.144887 3.752687,-4.32513 5.533622,-6.996534m-10.367591,12.084922c0.190815,-0.190815 0.381629,-0.381629 0.572444,-0.572444c-1.653726,-4.070711 -3.243847,-7.378163 -5.406413,-11.321664c-5.151993,5.088388 -9.985962,9.604333 -11.894108,11.25806c2.353379,3.943501 4.134316,7.250953 6.106066,11.25806c0.063605,-0.063605 0.12721,-0.12721 0.190815,-0.190815c1.97175,-1.844541 6.169671,-5.915251 10.431196,-10.431196m-4.19792,-39.43501c-0.12721,-0.190815 -0.318025,-0.445234 -0.508839,-0.636048c-1.462912,2.035356 -3.434662,4.388735 -6.5513,7.632582c2.925824,3.689082 5.088388,6.805719 7.505373,10.749221c0.12721,-0.190815 0.381629,-0.381629 0.508839,-0.572444c2.671404,-3.053033 4.32513,-5.151993 5.724437,-7.187349c-0.890468,-1.653726 -3.116638,-5.342808 -6.678509,-9.985962m-10.876431,12.148527c-0.12721,-0.190815 -0.381629,-0.445234 -0.508839,-0.636048c-4.770364,4.770364 -8.39584,8.077817 -12.275737,11.639689c3.053033,3.816291 5.406413,7.060138 8.141421,11.067245c0.063605,-0.063605 0.12721,-0.12721 0.190815,-0.190815c4.070711,-3.943501 8.014211,-7.823397 11.576083,-11.576083c-0.954073,-1.590121 -3.371057,-5.533622 -7.123744,-10.303987m-2.671404,-26.523225c-0.190815,-0.12721 -0.445234,-0.381629 -0.572444,-0.508839c-1.462912,2.035356 -3.434662,4.32513 -6.487695,7.568978c3.498267,3.116638 6.169671,5.788042 9.349914,9.286309c0.12721,-0.190815 0.381629,-0.381629 0.508839,-0.572444c2.735008,-3.116638 4.388735,-5.215598 5.788042,-7.314559c-1.272097,-1.399306 -4.19792,-4.643155 -8.586656,-8.459446m-10.685616,11.957712c-0.190815,-0.190815 -0.445234,-0.381629 -0.636048,-0.572444c-4.961178,4.897574 -9.731543,9.349914 -12.148527,11.512479c3.498267,3.371057 6.29688,6.29688 9.540729,9.985962c0.063605,-0.063605 0.12721,-0.12721 0.190815,-0.190815c2.925824,-2.798614 7.314559,-7.123744 11.766898,-11.830503c-1.272097,-1.399306 -4.261526,-4.833969 -8.713865,-8.90468m-5.088388,-23.152168c-0.12721,-0.063605 -0.318025,-0.190815 -0.508839,-0.254419c-1.335702,1.908146 -3.307453,4.19792 -6.169671,7.187349c3.752687,2.289775 6.805719,4.388735 10.431196,7.250953c0.12721,-0.190815 0.318025,-0.381629 0.508839,-0.572444c2.671404,-3.053033 4.32513,-5.088388 5.597228,-7.123744c-1.399306,-1.081283 -4.897574,-3.625477 -9.858752,-6.487695m-10.113172,11.25806c-0.12721,-0.12721 -0.318025,-0.254419 -0.508839,-0.318025c-4.579549,4.579549 -9.222704,8.77747 -11.512479,10.940035c3.689082,2.735008 6.5513,5.088388 10.303987,8.39584c0.063605,-0.063605 0.12721,-0.12721 0.190815,-0.190815c3.879897,-3.752687 7.314559,-7.123744 11.448874,-11.512479c-1.526516,-1.208492 -5.024784,-4.070711 -9.922358,-7.314559m-6.169671,-18.699827c-0.381629,-0.12721 -0.954073,-0.318025 -1.335702,-0.445234c-1.208492,1.717331 -2.989428,3.816291 -5.660832,6.614905c3.943501,1.590121 6.42409,2.671404 10.303987,4.643155c0.063605,0 0.063605,0.063605 0.12721,0.063605c0.063605,0 0.063605,0.063605 0.12721,0.063605c0.063605,0 0.063605,0.063605 0.12721,0.063605c0.063605,0 0.063605,0.063605 0.12721,0.063605c0.063605,0 0.063605,0.063605 0.12721,0.063605c0.063605,0 0.063605,0.063605 0.12721,0.063605c0.063605,0 0.063605,0.063605 0.12721,0.063605c0.063605,0 0.063605,0.063605 0.12721,0.063605l0.445234,-0.508839c2.480589,-2.862218 4.007106,-4.770364 5.215598,-6.614905c-1.780936,-0.954073 -5.406413,-2.607799 -9.985962,-4.19792m-9.1591,10.176777c-0.381629,-0.190815 -0.890468,-0.381629 -1.272097,-0.572444c-4.070711,4.007106 -7.950607,7.632582 -10.558406,9.985962c3.689082,2.035356 5.978857,3.434662 9.604333,5.788042c0.063605,0.063605 0.063605,0.063605 0.12721,0.12721c0.063605,0.063605 0.063605,0.063605 0.12721,0.12721c0.063605,0.063605 0.063605,0.063605 0.12721,0.12721c0.063605,0.063605 0.063605,0.063605 0.12721,0.12721c0.063605,0.063605 0.063605,0.063605 0.12721,0.12721c0.063605,0.063605 0.063605,0.063605 0.12721,0.12721c0.063605,0.063605 0.063605,0.063605 0.12721,0.12721c0.063605,0.063605 0.063605,0.063605 0.12721,0.12721l0.190815,-0.190815c3.307453,-3.243847 6.614905,-6.42409 10.685616,-10.749221c-1.526516,-1.144887 -4.961178,-3.116638 -9.667938,-5.279203m9.286309,-13.675043c-0.063605,0.318025 -0.190815,0.699654 -0.254419,1.017677c0.063605,0.063605 10.431196,4.19792 11.385269,4.134316c0,-0.254419 0.063605,-0.636048 0.063605,-0.890468c2.035356,0.954073 4.070711,1.97175 6.106066,3.053033c-0.063605,0.318025 -0.190815,0.763258 -0.254419,1.081283c3.180243,2.671404 6.932929,4.388735 10.303987,6.805719c0.12721,-0.445234 0.254419,-0.954073 0.254419,-1.399306c1.844541,1.335702 3.689082,2.798614 5.470018,4.261526c-0.063605,0.254419 -0.12721,0.636048 -0.190815,0.954073c2.480589,3.498267 6.042461,6.042461 8.90468,9.222704c0.12721,-0.445234 0.254419,-1.017677 0.254419,-1.462912c1.081283,1.144887 2.09896,2.353379 3.116638,3.625477c0.508839,0.636048 1.017677,1.208492 1.462912,1.844541c-0.063605,0.381629 -0.063605,0.381629 6.805719,11.830503c0.12721,-0.445234 0.254419,-1.017677 0.254419,-1.399306c1.144887,2.035356 2.289775,4.070711 3.307453,6.106066c0,0 0,0 4.388735,12.657366c0.12721,-0.381629 0.254419,-0.954073 0.254419,-1.335702c0.699654,2.162565 1.335702,4.32513 1.908146,6.487695c-0.890468,4.579549 1.399306,8.65026 1.97175,13.038995c0.063605,-0.381629 0.254419,-0.826863 0.254419,-1.208492l0.445234,4.579549l0.12721,2.162565c-1.081283,4.261526 -0.063605,8.586656 -0.381629,12.911785c0.063605,-0.254419 0.190815,-0.572444 0.254419,-0.826863l-0.063605,0.445234l-0.699654,6.233276c-1.017677,4.070711 -1.526516,8.205026 -2.607799,12.212132c0.063605,-0.12721 0.063605,-0.254419 0.12721,-0.381629l-2.035356,6.42409c-0.763258,2.09896 -1.208492,3.243847 -2.22617,5.597228l-1.081283,2.480589c-0.063605,0.12721 -0.190815,0.318025 -0.254419,0.508839c-0.063605,0.12721 -0.12721,0.190815 -0.190815,0.318025c1.272097,-2.862218 2.035356,-4.706759 3.053033,-7.632582c-3.116638,4.261526 -3.116638,4.261526 -6.042461,11.194454c-0.508839,0.572444 -1.081283,1.208492 -1.717331,1.844541c1.144887,-2.989428 1.399306,-3.752687 2.289775,-6.869324c-6.106066,6.042461 -6.106066,6.042461 -7.823397,12.275737c-0.826863,0.763258 -1.717331,1.590121 -2.607799,2.416985c0.445234,-2.416985 0.572444,-3.053033 0.763258,-5.597228c-15.392375,13.738649 -45.032238,37.46326 -59.724959,44.650609c13.166205,-8.077817 40.007454,-29.639862 59.852168,-48.085271c0,0 0,0 0,-0.063605c0,-3.243847 -0.190815,-5.533622 -0.699654,-9.095494c-25.759967,18.636223 -47.322012,42.996882 -76.51664,56.98995c21.75286,-14.056672 54.636571,-41.343156 75.816987,-60.997056c-0.954073,-4.579549 -1.717331,-7.123744 -2.671404,-10.240381c-28.622185,25.505547 -71.428253,58.580071 -90.700524,67.611961c20.544368,-12.848181 59.724959,-44.396189 89.237612,-71.809882c-1.526516,-4.070711 -2.607799,-6.614905 -4.643155,-10.812825c-31.802428,28.240556 -79.378859,65.004161 -100.75009,75.180938c21.816466,-15.519584 54.76378,-38.862566 98.52392,-79.569674c-2.289775,-4.19792 -3.816291,-6.932929 -6.487695,-11.13085c-34.155807,30.403121 -85.484925,69.838131 -107.4286,80.014908c84.212828,-65.64021 84.212828,-65.64021 104.502777,-84.467248c-2.925824,-4.261526 -4.961178,-6.996534 -8.268631,-11.194454c-34.855461,30.848354 -86.757022,70.855808 -109.78198,81.477819c89.555636,-70.537784 89.555636,-70.537784 106.220108,-86.057369c-3.498267,-4.070711 -5.788042,-6.5513 -9.540729,-10.303987c-34.410226,30.530331 -85.294111,69.774526 -107.492205,80.014908c88.029119,-69.329292 88.029119,-69.329292 103.548704,-83.831199c-4.45234,-4.19792 -7.505373,-6.678509 -10.049567,-8.841075c-32.502081,28.813 -80.269327,65.703815 -100.75009,75.053729c79.124439,-61.823919 79.124439,-61.823919 96.679379,-78.233972c-3.243847,-2.480589 -5.724437,-4.261526 -10.240381,-7.187349c0,0 -0.063605,0 -0.063605,0c-29.639862,26.268805 -72.763954,59.534144 -90.827733,67.484752c17.364125,-10.876431 56.353902,-41.597575 86.757022,-69.965341c-2.671404,-1.526516 -4.32513,-2.480589 -6.996534,-3.816291c1.526516,-1.399306 2.989428,-2.735008 4.388735,-4.007106c2.798614,1.144887 4.579549,1.97175 7.378163,3.371057c3.689082,-3.561872 6.233276,-6.042461 9.795148,-9.795148c-2.989428,-1.144887 -4.833969,-1.717331 -7.887002,-2.607799c1.017677,-1.081283 1.97175,-2.09896 2.862218,-3.053033c3.053033,0.763258 5.024784,1.272097 8.077817,2.289775c3.116638,-3.561872 3.879897,-4.643155 5.088388,-6.42409c-3.116638,-0.826863 -5.151993,-1.272097 -8.268631,-1.780936c0.12721,-0.190815 0.254419,-0.381629 0.381629,-0.572444c0.254419,-0.381629 0.381629,-0.699654 0.572444,-1.017677c3.180243,0.508839 5.215598,0.890468 8.332236,1.653726c0.063605,-0.381629 0.254419,-0.826863 0.190815,-1.208492c2.162565,0.381629 4.32513,0.954073 6.487695,1.653726m-54.700175,-0.954073l-1.717331,0.508839l0,0c0.063605,-0.063605 1.144887,-0.381629 1.717331,-0.508839m-16.728077,6.742115c-2.353379,1.272097 -3.689082,2.035356 -6.742115,3.879897l0,0c2.035356,-1.462912 2.989428,-2.09896 6.742115,-3.879897m-2.798614,1.335702c-0.190815,0.12721 -0.508839,0.254419 -0.699654,0.381629c0.381629,-0.190815 0.699654,-0.381629 0.890468,-0.508839c2.09896,-0.954073 4.070711,-2.09896 6.169671,-3.053033c2.353379,-1.081283 4.19792,-1.844541 5.088388,-2.162565c0,0 -0.063605,0 -0.063605,0c-0.063605,0 -0.190815,0.063605 -0.381629,0.12721c-2.353379,0.954073 -2.925824,1.208492 -5.915251,2.671404l-0.12721,0.063605c-0.954073,0.445234 -2.735008,1.272097 -4.961178,2.480589m-14.120278,9.985962c0,0 0.063605,0 0,0l0,0l0.063605,-0.063605c0.381629,-0.508839 0.763258,-1.081283 1.526516,-1.653726c-0.063605,0.063605 -0.190815,0.12721 -0.254419,0.190815c-0.381629,0.254419 -0.699654,0.572444 -1.081283,0.826863c-0.190815,0.190815 -0.508839,0.445234 -0.699654,0.572444l0,0c0.12721,0 0.190815,0 0.445234,0.12721m0.12721,-0.12721c0,0.063605 -0.063605,0.063605 -0.063605,0.12721c0.063605,-0.063605 0.12721,-0.12721 0.12721,-0.190815c1.653726,-1.653726 2.989428,-2.798614 4.833969,-4.134316c-0.063605,0 -0.063605,0.063605 -0.12721,0.063605c-0.763258,0.572444 -1.526516,1.144887 -2.22617,1.653726l-0.12721,0.063605c-0.445234,0.445234 -1.399306,1.144887 -2.416985,2.416985m0.063605,-0.063605c-0.063605,0.063605 -0.12721,0.12721 -0.190815,0.190815c0.12721,-0.063605 0.190815,-0.12721 0.190815,-0.190815c2.480589,-2.22617 4.45234,-3.816291 7.123744,-5.660832c0,0 -0.063605,0.063605 -0.063605,0.063605c-1.717331,1.081283 -4.32513,2.925824 -7.060138,5.597228m-0.254419,0.254419c0.063605,0 0.063605,-0.063605 0.12721,-0.063605c-0.063605,0 -0.063605,0 -0.12721,0.063605c-0.508839,0 -0.508839,0 -1.653726,0.954073c-0.381629,0.318025 -0.699654,0.636048 -1.081283,0.890468l-0.12721,0.063605l0.063605,-0.063605c0.763258,-0.508839 1.526516,-1.144887 2.798614,-1.844541m0,0.063605c0.063605,0 0.12721,-0.063605 0.12721,-0.12721c-0.063605,0.063605 -0.12721,0.063605 -0.12721,0.12721c-1.908146,1.144887 -2.862218,1.97175 -3.816291,2.862218c-0.826863,0.763258 -0.954073,0.826863 -1.399306,1.272097l-0.445234,0.445234l-0.063605,0.063605c-0.063605,0.063605 -0.063605,0.063605 -0.12721,0.12721c0.12721,-0.12721 0.318025,-0.254419 0.381629,-0.381629c0.826863,-0.826863 2.607799,-2.480589 5.470018,-4.388735m0.318025,-0.318025c-0.063605,0.063605 -0.12721,0.12721 -0.190815,0.190815c0,0 0.12721,-0.063605 0.190815,-0.190815c2.925824,-2.416985 5.342808,-4.261526 8.586656,-6.42409c0,0 0,0 0,0c-1.590121,0.636048 -6.360486,4.45234 -8.586656,6.42409m68.756848,-21.180416l0.508839,0.063605c0.381629,0.063605 0.508839,0.190815 0.572444,0.508839c-2.22617,-0.254419 -4.45234,-0.381629 -6.678509,-0.445234c-0.12721,-0.254419 -0.254419,-0.445234 -0.763258,-0.445234l6.360486,0.318025m-80.650956,32.184057c0.636048,-0.699654 1.399306,-1.590121 2.035356,-2.289775c1.653726,-1.717331 1.653726,-1.717331 2.480589,-2.544194c1.144887,-1.144887 1.208492,-1.144887 1.780936,-1.717331c0.890468,-0.826863 0.954073,-0.890468 1.399306,-1.272097c0.381629,-0.381629 0.763258,-0.699654 1.208492,-1.081283c0.381629,-0.318025 0.699654,-0.636048 1.081283,-0.890468c0.318025,-0.254419 0.699654,-0.572444 1.017677,-0.826863c0.318025,-0.254419 0.699654,-0.572444 1.017677,-0.826863c0.381629,-0.318025 0.699654,-0.572444 1.081283,-0.826863c6.678509,-5.088388 16.664472,-10.876431 23.724611,-13.611439c7.759792,-2.798614 8.586656,-3.053033 14.501907,-4.45234c9.095494,-1.653726 9.413519,-1.717331 14.692722,-2.035356l4.833969,-0.190815c-4.007106,0.063605 -6.106066,0.254419 -8.268631,0.445234c0.12721,0 0.254419,0.063605 0.381629,0.12721c0.063605,0.063605 0.12721,0.190815 0.12721,0.318025c-2.22617,0.190815 -4.45234,0.508839 -6.678509,0.826863c-0.954073,-0.954073 -12.021318,2.353379 -12.148527,2.416985c0.12721,0.063605 0.254419,0.12721 0.381629,0.190815c0,0.063605 0,0.063605 0,0.12721c-2.162565,0.636048 -4.32513,1.399306 -6.487695,2.162565c-0.12721,-0.063605 -0.254419,-0.12721 -0.381629,-0.190815c-0.190815,0.063605 -4.45234,1.526516 -11.00364,5.088388c0.063605,0.063605 0.12721,0.12721 0.190815,0.190815c-2.035356,1.081283 -4.070711,2.289775 -6.042461,3.561872c-2.735008,1.272097 -9.1591,6.5513 -9.222704,6.614905c-4.134316,2.925824 -6.5513,5.342808 -7.632582,6.5513l-4.070711,4.134316l-0.000001,-0.000001z"/>
</svg>
