<svg width="30" height="30" xmlns="http://www.w3.org/2000/svg">

<path fill="white" d="m14.99613,7.41969zm1.55595,15.96433a2.94082,2.94082 0 0 1 -3.11196,0a2.57514,2.57514 0 0 0 -2.67628,0.07779a2.90967,2.90967 0 0 1 -3.02637,-0.07779a2.54403,2.54403 0 0 0 -2.5907,0a2.78523,2.78523 0 0 1 -1.43928,0.44345l0,-2.33397a2.98742,2.98742 0 0 0 1.36925,-0.34231c1.8983,-1.12031 2.78521,0.22561 3.83549,0.21783l0,-5.44592l-1.60266,-3.92884a1.04251,1.04251 0 0 1 0.4977,-1.3878q0.04209,-0.01987 0.08583,-0.03593l0.98027,-0.42011l0,-3.42314l1.84382,0l0,-1.78938l2.64516,0l0,-2.3962l3.26755,0l0,2.3962l2.64516,0l0,1.78938l1.87495,0l0,3.39981l0.98027,0.42011a1.0425,1.0425 0 0 1 0.61942,1.33789q-0.01604,0.04369 -0.03593,0.08583l-1.61043,3.92884l0,5.44593c1.0425,0 1.89051,-1.36148 3.83548,-0.24118a2.96411,2.96411 0 0 0 1.36926,0.35009l0,2.33397a2.94082,2.94082 0 0 1 -1.43928,-0.44346a2.58292,2.58292 0 0 0 -2.5907,0a2.90967,2.90967 0 0 1 -3.02638,0.0778a2.58294,2.58294 0 0 0 -2.69964,-0.03889zm0,3.5943a3.21308,3.21308 0 0 1 -3.18976,0a2.37291,2.37291 0 0 0 -2.63738,0.08558a2.90968,2.90968 0 0 1 -3.02638,-0.0778a2.42733,2.42733 0 0 0 -2.57515,0.07004a2.54403,2.54403 0 0 1 -1.43149,0.38121l0,-2.4429a2.33399,2.33399 0 0 0 1.36926,-0.34232c0.98804,-0.64573 1.88273,-0.52125 3.11195,0.16338a3.00302,3.00302 0 0 0 2.65294,-0.14782c1.09697,-0.60683 1.69602,-0.45901 2.84744,0.08559a2.80075,2.80075 0 0 0 2.58292,0c1.15143,-0.5446 1.78159,-0.69242 2.87856,-0.08559a2.96416,2.96416 0 0 0 2.63739,0.14782c1.24477,-0.68462 2.14724,-0.77799 3.11195,-0.16338a2.20951,2.20951 0 0 0 1.36925,0.34232l0,2.44287a2.49729,2.49729 0 0 1 -1.49373,-0.37343a2.38843,2.38843 0 0 0 -2.54402,-0.07004a2.90968,2.90968 0 0 1 -3.02638,0.0778a2.41955,2.41955 0 0 0 -2.63737,-0.09333z"/>
<path d="m12.109786,6.361621l0,1.766033l-1.87495,0l0,1.369261l4.761291,-2.077229l4.761291,2.077229l0,-1.369261l-1.88273,0l0,-1.766033l-5.764901,0zm4.442293,17.022395a2.940823,2.940823 0 0 1 -3.111954,0a2.575138,2.575138 0 0 0 -2.676281,0.077796a2.909668,2.909668 0 0 1 -3.026371,-0.077796a2.544031,2.544031 0 0 0 -2.590705,0a2.785225,2.785225 0 0 1 -1.439277,0.443453l0,-2.333971a2.987421,2.987421 0 0 0 1.369254,-0.34231c1.898298,-1.120307 2.785204,0.225613 3.835489,0.217833l0,-5.445918l-1.602662,-3.928846a1.042505,1.042505 0 0 1 0.4977,-1.387797q0.042091,-0.019867 0.085825,-0.035926l0.98027,-0.420113l0,-3.423143l1.843822,0l0,-1.789374l2.64516,0l0,-2.396206l3.267552,0l0,2.396206l2.64516,0l0,1.789374l1.87495,0l0,3.399809l0.98027,0.420113a1.042498,1.042498 0 0 1 0.619417,1.337891q-0.016039,0.043686 -0.035926,0.085825l-1.610435,3.928846l0,5.445925c1.042505,0 1.89051,-1.361481 3.835483,-0.241181a2.964108,2.964108 0 0 0 1.369261,0.350097l0,2.333964a2.940823,2.940823 0 0 1 -1.439284,-0.443453a2.582918,2.582918 0 0 0 -2.590698,0a2.909668,2.909668 0 0 1 -3.026378,0.077796a2.582939,2.582939 0 0 0 -2.699642,-0.038894zm0,3.594302a3.213076,3.213076 0 0 1 -3.189763,0a2.372907,2.372907 0 0 0 -2.63738,0.085583a2.909681,2.909681 0 0 1 -3.026378,-0.077796a2.427327,2.427327 0 0 0 -2.575145,0.070036a2.544031,2.544031 0 0 1 -1.431496,0.381211l0,-2.442901a2.333985,2.333985 0 0 0 1.369261,-0.342317c0.988043,-0.645733 1.88273,-0.521249 3.111954,0.163378a3.003017,3.003017 0 0 0 2.65294,-0.147818c1.096967,-0.606832 1.696018,-0.459014 2.847439,0.085583a2.800751,2.800751 0 0 0 2.582918,0c1.151428,-0.544597 1.781594,-0.692414 2.87856,-0.085583a2.964157,2.964157 0 0 0 2.637387,0.147818c1.244777,-0.684627 2.147245,-0.77799 3.111954,-0.163378a2.209514,2.209514 0 0 0 1.369254,0.342317l0,2.442866a2.497287,2.497287 0 0 1 -1.493732,-0.373431a2.388426,2.388426 0 0 0 -2.544024,-0.070036a2.909681,2.909681 0 0 1 -3.026378,0.077802a2.419553,2.419553 0 0 0 -2.637373,-0.093335z"/>
</svg>
