<svg width="30" height="30" xmlns="http://www.w3.org/2000/svg">
  <path fill="white" d="m24.16124,19.52016l0,-12.91279a3.29001,3.14253 0 0 0 -3.29393,-3.12443l-11.73462,0a3.2704,3.12379 0 0 0 -3.27107,3.12443l0,12.89094a4.30041,4.10762 0 0 0 3.49981,4.04208l-3.52268,5.06899l2.3332,0l2.88218,-4.02023l7.91459,0l2.88218,4.02023l2.28745,0l-3.52267,-5.06899a4.29446,4.10194 0 0 0 3.54554,-4.02023l0.00002,0zm-11.66155,-17.11557l0,0c0,-0.56 0.51982,-1.01396 1.16107,-1.01396l0,0c0.30794,0 0.60325,0.10683 0.821,0.29698c0.21775,0.19015 0.34007,0.44805 0.34007,0.71698l0,0c0,0.56 -0.51982,1.01396 -1.16107,1.01396l0,0c-0.64123,0 -1.16107,-0.45396 -1.16107,-1.01396zm1.74159,0c0,-0.27999 -0.25991,-0.50697 -0.58053,-0.50697l0.58053,0.50697zm0.96206,0l0,0c0,-0.56 0.51982,-1.01396 1.16107,-1.01396l0,0c0.30794,0 0.60325,0.10683 0.821,0.29698c0.21775,0.19015 0.34007,0.44805 0.34007,0.71698l0,0c0,0.56 -0.51982,1.01396 -1.16107,1.01396l0,0c-0.64123,0 -1.16107,-0.45396 -1.16107,-1.01396zm1.74159,0c0,-0.28 -0.25991,-0.50697 -0.58053,-0.50697l0.58053,0.50697z"/>

<path d="m24.16124,19.52016l0,-12.91279a3.29001,3.14253 0 0 0 -3.29393,-3.12443l-11.73462,0a3.2704,3.12379 0 0 0 -3.27107,3.12443l0,12.89094a4.30041,4.10762 0 0 0 3.49981,4.04208l-3.52268,5.06899l2.3332,0l2.88218,-4.02023l7.91459,0l2.88218,4.02023l2.28745,0l-3.52267,-5.06899a4.29446,4.10194 0 0 0 3.54554,-4.02023zm-11.46013,-15.14141l4.5749,0l0,1.83533l-4.5749,0l0,-1.83533zm-1.32673,18.13473a1.76134,1.68238 0 1 1 1.76134,-1.68238a1.76195,1.68297 0 0 1 -1.76134,1.68238zm7.20548,0a1.76134,1.68238 0 1 1 0,-3.36476a1.76134,1.68238 0 1 1 0,3.36476zm3.29393,-10.29091a1.19586,1.14225 0 0 1 -1.18948,1.13615l-11.34576,0a1.18126,1.12831 0 0 1 -1.18948,-1.13615l0,-4.28241a1.18138,1.12842 0 0 1 1.18948,-1.13615l11.34576,0a1.19597,1.14236 0 0 1 1.18948,1.13615l0,4.28241zm-9.3741,-9.81798l0,0c0,-0.56 0.51982,-1.01396 1.16107,-1.01396l0,0c0.30794,0 0.60325,0.10683 0.821,0.29698c0.21775,0.19015 0.34007,0.44805 0.34007,0.71698l0,0c0,0.56 -0.51982,1.01396 -1.16107,1.01396l0,0c-0.64123,0 -1.16107,-0.45396 -1.16107,-1.01396zm0.58053,0l0,0c0,0.28 0.25991,0.50697 0.58053,0.50697c0.32062,0 0.58053,-0.22698 0.58053,-0.50697c0,-0.28 -0.25991,-0.50697 -0.58053,-0.50697l0,0c-0.32062,0 -0.58053,0.22698 -0.58053,0.50697zm2.12312,0l0,0c0,-0.56 0.51982,-1.01396 1.16107,-1.01396l0,0c0.30794,0 0.60325,0.10683 0.821,0.29698c0.21775,0.19015 0.34007,0.44805 0.34007,0.71698l0,0c0,0.56 -0.51982,1.01396 -1.16107,1.01396l0,0c-0.64123,0 -1.16107,-0.45396 -1.16107,-1.01396zm0.58053,0l0,0c0,0.28 0.25991,0.50697 0.58053,0.50697c0.32062,0 0.58053,-0.22698 0.58053,-0.50697c0,-0.28 -0.25991,-0.50697 -0.58053,-0.50697l0,0c-0.32062,0 -0.58053,0.22698 -0.58053,0.50697z"/>
</svg>
