<svg width="30" height="30" xmlns="http://www.w3.org/2000/svg">
<path d="m19.687813,22.413707l2.274677,-1.681283a2.907136,2.907136 0 0 0 1.02855,-1.661503l0,-9.533864a1.758246,1.758246 0 0 0 -0.593394,-1.305467a1.568954,1.568954 0 0 1 -0.613174,-1.186788l-0.01978,-2.353796a1.621528,1.621528 0 0 0 -1.285687,-1.562604a41.375505,41.375505 0 0 0 -4.94495,-1.02855a2.1073,2.1073 0 0 0 -0.929651,0c-1.384586,0.296697 -3.065869,0.593394 -4.430675,0.94943c-0.830752,0.237358 -1.681283,0.692293 -1.681283,1.681283l0,2.334016a1.588081,1.588081 0 0 1 -0.652733,1.206568a1.683261,1.683261 0 0 0 -0.613174,1.305467l0,9.494304a2.788378,2.788378 0 0 0 0.94943,1.661503l2.175778,1.602164l-3.441685,5.617463l2.235117,0l0.474715,-0.771412l10.938229,0l0.257137,0.435156l0.03956,0.059339l0.158238,0.276917l2.076879,0l-3.402126,-5.538344zm1.879081,-4.549354a1.443925,1.443925 0 1 1 -1.443925,-1.443925a1.439317,1.439317 0 0 1 1.443925,1.443925zm-2.848291,6.230637l-7.219627,0l0.810972,-1.345026l5.617463,0l0.059339,0.118679l0.692293,1.147228l0.03956,0.079119zm-2.254897,-19.087507a0.484031,0.484031 0 0 1 0.593394,-0.474715l2.393356,0.494495a0.501438,0.501438 0 0 1 0.395596,0.474715l0,1.443925a0.493605,0.493605 0 0 1 -0.593394,0.474715l-2.393356,-0.474715a0.469928,0.469928 0 0 1 -0.395596,-0.474715l0,-1.463705zm-1.424146,4.470235a1.621944,1.621944 0 1 1 -1.621944,1.621944a1.629282,1.629282 0 0 1 1.621944,-1.621944zm-4.588914,-3.97574a0.501576,0.501576 0 0 1 0.395596,-0.474715l2.393356,-0.494495a0.491884,0.491884 0 0 1 0.593394,0.474715l0,1.463705a0.488225,0.488225 0 0 1 -0.395596,0.474715l-2.413136,0.474715a0.485673,0.485673 0 0 1 -0.573614,-0.474715l0,-1.443925zm-0.395596,13.806301a1.443925,1.443925 0 1 1 1.443925,-1.443925a1.439317,1.439317 0 0 1 -1.443925,1.443925zm0,7.140508l0.98899,-1.621944l8.109718,0l0.96921,1.621944l-10.067918,0z"/>
</svg>
