<svg width="30" height="30" xmlns="http://www.w3.org/2000/svg">
  <path d="m25.517539,13.803165l-1.022677,-7.677747c-0.267432,-1.384514 -1.179988,-1.935117 -2.533003,-2.501504a23.160472,23.160472 0 0 0 -6.96974,-1.211465a23.144827,23.144827 0 0 0 -6.953978,1.211465c-1.33737,0.566387 -2.265548,1.116989 -2.548741,2.501504l-1.006939,7.677747l0,10.604064l1.880103,0l0,1.809328a1.319769,1.319769 0 0 0 0.692269,1.132751c0.094382,0.047238 0.188788,0.094382 0.267432,0.125882a1.60408,1.60408 0 0 0 0.220287,0.062859a1.340094,1.340094 0 0 0 0.361931,0.047238l0.534771,0a1.479688,1.479688 0 0 0 1.557518,-1.368776l0,-1.809328l10.157622,0l0,1.809328a1.319723,1.319723 0 0 0 0.692269,1.132751c0.094382,0.047238 0.188788,0.094382 0.267432,0.125882a1.60408,1.60408 0 0 0 0.220287,0.062859a1.340094,1.340094 0 0 0 0.361931,0.047238l0.534864,0a1.479665,1.479665 0 0 0 1.557518,-1.368776l0,-1.809328l1.728681,0l0.000163,-10.603971zm-15.465567,-9.17173l9.896057,0c0.471981,0 0.865295,0.537402 0.865295,1.18227s-0.393314,1.182247 -0.865295,1.182247l-9.896057,0c-0.471958,0 -0.865295,-0.537402 -0.865295,-1.182247s0.39336,-1.18227 0.865295,-1.18227zm-2.420298,10.603179l0.699835,-5.433571a0.731312,0.731312 0 0 1 0.750309,-0.62189l11.930864,0a0.74109,0.74109 0 0 1 0.750262,0.62189l0.800713,5.433571l0,0.242614a0.757969,0.757969 0 0 1 -0.750356,0.758481l-13.45914,0a0.77224,0.77224 0 0 1 -0.722488,-0.78877a0.543269,0.543269 0 0 1 0,-0.212325zm1.505135,6.41043a1.928947,1.928947 0 1 1 -0.08635,-3.851468a1.934837,1.934837 0 1 1 0.08635,3.851468zm11.676516,0a1.928947,1.928947 0 1 1 -0.08635,-3.851468a1.934837,1.934837 0 1 1 0.08635,3.851468z"/>
</svg>
