<svg width="30" height="30" xmlns="http://www.w3.org/2000/svg">
<path d="m23.629992,18.426141l0,-12.734896a3.099234,3.099234 0 0 0 -3.102919,-3.081371l-11.054148,0a3.080746,3.080746 0 0 0 -3.081371,3.081371l0,12.713348a4.051033,4.051033 0 0 0 3.296851,3.986389l-3.318399,4.999147l2.197901,0l2.715054,-3.964841l7.455624,0l2.715054,3.964841l2.154805,0l-3.318399,-4.999147a4.04543,4.04543 0 0 0 3.339947,-3.964841zm-10.795572,-14.932797l4.309609,0l0,1.810036l-4.309609,0l0,-1.810036zm-1.249787,17.884879a1.6592,1.6592 0 1 1 1.6592,-1.6592a1.659781,1.659781 0 0 1 -1.6592,1.6592zm6.787635,0a1.6592,1.6592 0 1 1 0,-3.318399a1.6592,1.6592 0 1 1 0,3.318399zm3.102919,-10.14913a1.12651,1.12651 0 0 1 -1.120498,1.120498l-10.687831,0a1.112763,1.112763 0 0 1 -1.120498,-1.120498l0,-4.223417a1.11287,1.11287 0 0 1 1.120498,-1.120498l10.687831,0a1.126618,1.126618 0 0 1 1.120498,1.120498l0,4.223417z"/>
</svg>
