<svg xmlns="http://www.w3.org/2000/svg" viewBox="0 0 30 30">
<path d="m12.109786,6.361621l0,1.766033l-1.87495,0l0,1.369261l4.761291,-2.077229l4.761291,2.077229l0,-1.369261l-1.88273,0l0,-1.766033l-5.764901,0zm4.442293,17.022395a2.940823,2.940823 0 0 1 -3.111954,0a2.575138,2.575138 0 0 0 -2.676281,0.077796a2.909668,2.909668 0 0 1 -3.026371,-0.077796a2.544031,2.544031 0 0 0 -2.590705,0a2.785225,2.785225 0 0 1 -1.439277,0.443453l0,-2.333971a2.987421,2.987421 0 0 0 1.369254,-0.34231c1.898298,-1.120307 2.785204,0.225613 3.835489,0.217833l0,-5.445918l-1.602662,-3.928846a1.042505,1.042505 0 0 1 0.4977,-1.387797q0.042091,-0.019867 0.085825,-0.035926l0.98027,-0.420113l0,-3.423143l1.843822,0l0,-1.789374l2.64516,0l0,-2.396206l3.267552,0l0,2.396206l2.64516,0l0,1.789374l1.87495,0l0,3.399809l0.98027,0.420113a1.042498,1.042498 0 0 1 0.619417,1.337891q-0.016039,0.043686 -0.035926,0.085825l-1.610435,3.928846l0,5.445925c1.042505,0 1.89051,-1.361481 3.835483,-0.241181a2.964108,2.964108 0 0 0 1.369261,0.350097l0,2.333964a2.940823,2.940823 0 0 1 -1.439284,-0.443453a2.582918,2.582918 0 0 0 -2.590698,0a2.909668,2.909668 0 0 1 -3.026378,0.077796a2.582939,2.582939 0 0 0 -2.699642,-0.038894zm0,3.594302a3.213076,3.213076 0 0 1 -3.189763,0a2.372907,2.372907 0 0 0 -2.63738,0.085583a2.909681,2.909681 0 0 1 -3.026378,-0.077796a2.427327,2.427327 0 0 0 -2.575145,0.070036a2.544031,2.544031 0 0 1 -1.431496,0.381211l0,-2.442901a2.333985,2.333985 0 0 0 1.369261,-0.342317c0.988043,-0.645733 1.88273,-0.521249 3.111954,0.163378a3.003017,3.003017 0 0 0 2.65294,-0.147818c1.096967,-0.606832 1.696018,-0.459014 2.847439,0.085583a2.800751,2.800751 0 0 0 2.582918,0c1.151428,-0.544597 1.781594,-0.692414 2.87856,-0.085583a2.964157,2.964157 0 0 0 2.637387,0.147818c1.244777,-0.684627 2.147245,-0.77799 3.111954,-0.163378a2.209514,2.209514 0 0 0 1.369254,0.342317l0,2.442866a2.497287,2.497287 0 0 1 -1.493732,-0.373431a2.388426,2.388426 0 0 0 -2.544024,-0.070036a2.909681,2.909681 0 0 1 -3.026378,0.077802a2.419553,2.419553 0 0 0 -2.637373,-0.093335z"/>
</svg>
