<svg xmlns="http://www.w3.org/2000/svg" xmlns:xlink="http://www.w3.org/1999/xlink" viewBox="0 0 30 30">
<path d="m26.242555,11.539272l-1.344571,0l-0.413091,-2.000657a1.619965,1.619965 0 0 0 -0.072898,-0.267294l-0.92338,-2.381348a1.239273,1.239273 0 0 0 0.202496,-0.680385l0,-2.429947a2.259851,2.259851 0 0 0 -2.259851,-2.267951l-12.854421,0a2.259851,2.259851 0 0 0 -2.259851,2.259851l0,2.429947a1.304072,1.304072 0 0 0 0.194396,0.680385l-0.91528,2.381348c0,0.089098 -0.056699,0.178196 -0.080998,0.267294l-0.413091,2.000657l-1.344571,0a0.745184,0.745184 0 0 0 -0.745184,0.745184l0,2.567644a0.745184,0.745184 0 0 0 0.745184,0.737084l0.518389,0l0,9.379596l1.765762,0l0,1.82246a1.547066,1.547066 0 1 0 3.077933,0l0,-1.82246l11.736645,0l0,1.82246a1.547066,1.547066 0 1 0 3.077933,0l0,-1.82246l1.790061,0l0,-9.379596l0.518389,0a0.745184,0.745184 0 0 0 0.745184,-0.737084l0,-2.591944a0.745184,0.745184 0 0 0 -0.745184,-0.712785zm-18.629596,9.719789a1.482268,1.482268 0 1 1 1.474168,-1.482268a1.482268,1.482268 0 0 1 -1.474168,1.457968l0,0.024299zm-1.433669,-5.99387l0.809982,-4.487303c0.072898,-1.028678 0.421191,-1.239273 0.809982,-1.247373l14.360988,0c0.404991,0 0.753284,0.218695 0.809982,1.247373l0.809982,4.487303l-17.600918,0zm16.199648,5.99387a1.482268,1.482268 0 1 1 1.482268,-1.506567a1.482268,1.482268 0 0 1 -1.466068,1.482268l-0.0162,0.024299z"/>
</svg>
