<svg width="60" height="60" xmlns="http://www.w3.org/2000/svg">

 <g>
 <g>
   <rect height="15" width="30" y="22.499996" x="14.333325" fill="darkorange"/>
   <path fill="darkslategray" d="m7.081495,14.224636l45.83701,0l0,30.70038l-45.83701,0l0,-30.70038l0,0zm4.03432,-1.99748l6.51433,0l0,-5.81414l-1.81146,0l0,-3.36591l-2.95452,0l0,3.36591l-1.74426,0l-0.00409,5.81414l0,0l0,0zm31.61807,0l6.51024,0l0,-5.81414l-1.81146,0l0,-3.36591l-2.95452,0l0,3.36591l-1.74426,0l0,5.81414l0,0zm-10.33492,0l6.51024,0l0,-5.81414l-1.81555,0l0,-3.36591l-2.95058,0l0,3.36591l-1.74819,0l0.00409,5.81414l0,0l-0.00001,0zm-10.33507,0l6.51024,0l0,-5.81414l-1.81555,0l0,-3.36591l-2.95452,0l0,3.36591l-1.74426,0l0.00409,5.81414l0,0zm27.18038,35.54568l-6.51039,0l0,5.81808l1.81555,0l0,3.36198l2.95452,0l0,-3.36198l1.74032,0l0,-5.81808l0,0l0,0zm-31.61413,0l-6.51433,0l0,5.81808l1.81146,0l0,3.36198l2.95452,0l0,-3.36198l1.74819,0l0,-5.81808l0.00015,0l0,0l0.00001,0zm10.33886,0l-6.51024,0l0,5.81808l1.81146,0l0,3.36198l2.95452,0l0,-3.36198l1.74426,0l0,-5.81808l0,0zm10.33492,0l-6.51024,0l0,5.81808l1.81933,0l0,3.36198l2.94665,0l0,-3.36198l1.74426,0l0,-5.81808l0,0zm-20.04095,-24.0518l0,11.9923l3.12071,0l0,-5.4147c0.42713,0 0.68823,0.0831 0.78706,0.22946c0.10277,0.15423 0.1503,0.54973 0.1503,1.19452l0,3.98679l2.89519,0l0,-3.16809c0,-0.969 -0.0277,-1.55839 -0.0831,-1.77589c-0.05146,-0.21357 -0.18193,-0.4509 -0.3955,-0.70397c-0.2175,-0.25716 -0.62481,-0.4627 -1.24583,-0.61709c0.68429,-0.06327 1.14306,-0.25307 1.37237,-0.5735c0.23339,-0.32028 0.35191,-0.94932 0.35191,-1.87882c0,-1.02046 -0.1621,-1.76409 -0.4904,-2.23072c-0.3283,-0.46664 -0.75543,-0.75937 -1.27353,-0.87016c-0.52204,-0.11473 -1.51888,-0.17013 -2.99024,-0.17013l-2.19894,0l0,0zm3.12071,2.04894l0,2.66573c0.34812,0 0.58924,-0.04737 0.73167,-0.14243c0.13849,-0.09884 0.20963,-0.41139 0.20963,-0.93737l0,-0.66053c0,-0.37961 -0.07129,-0.6289 -0.20176,-0.7515c-0.13456,-0.11866 -0.38763,-0.17391 -0.73954,-0.17391l0,0l0,0l0,0.00001zm10.41802,-2.04894l-4.51291,0l-1.57807,11.9923l3.22349,0l0.17013,-2.15171l1.1193,0l0.17013,2.15171l3.18398,0l-1.77604,-11.9923l0,0l-0.00001,0zm-1.64951,7.71672c-0.14636,-1.36056 -0.30847,-3.04155 -0.47057,-5.05084c-0.30847,2.30201 -0.5063,3.98679 -0.58924,5.05084l1.05981,0l0,0zm13.58232,-7.71672l-4.05808,0l-0.7079,5.60057l-0.44303,-3.04549c-0.13047,-0.97293 -0.25307,-1.82735 -0.37174,-2.55115l-4.03038,0l0,11.9923l2.72506,0l0.00802,-7.91439l1.14306,7.91439l1.91045,0l1.08373,-8.09633l0.00802,8.09633l2.72915,0l0.00363,-11.99623l0,0l0,0l0.00001,0z" id="svg_3"/>
  </g>
  <path fill="#ffff00" d="m10.935774,12.227156l6.51433,0l0,-5.81414l-1.81146,0l0,-3.36591l-2.95452,0l0,3.36591l-1.74426,0l-0.0041,5.81414l0,0l0.00001,0zm31.61807,0l6.51024,0l0,-5.81414l-1.81146,0l0,-3.36591l-2.95452,0l0,3.36591l-1.74426,0l0,5.81414zm-10.33492,0l6.51024,0l0,-5.81414l-1.81555,0l0,-3.36591l-2.95058,0l0,3.36591l-1.74819,0l0.0041,5.81414l0,0l-0.00002,0zm-10.33507,0l6.51024,0l0,-5.81414l-1.81555,0l0,-3.36591l-2.95452,0l0,3.36591l-1.74426,0l0.0041,5.81414l-0.00001,0zm27.18038,35.54568l-6.51039,0l0,5.81808l1.81555,0l0,3.36198l2.95452,0l0,-3.36198l1.74032,0l0,-5.81808zm-31.61413,0l-6.51433,0l0,5.81808l1.81146,0l0,3.36198l2.95452,0l0,-3.36198l1.74819,0l0,-5.81808l0.00015,0l0,0l0.00001,0zm10.33886,0l-6.51024,0l0,5.81808l1.81146,0l0,3.36198l2.95452,0l0,-3.36198l1.74426,0l0,-5.81808zm10.33492,0l-6.51024,0l0,5.81808l1.81933,0l0,3.36198l2.94665,0l0,-3.36198l1.74426,0l0,-5.81808z"/>
 </g>
</svg>
