<svg width="50" height="50" xmlns="http://www.w3.org/2000/svg">
<path d="m30.59375,4.59375l-5,5l-1.4375,1.40625l1.4375,1.40625l5,5l2.8125,-2.8125l-1.59375,-1.59375l7.1875,0c0.57633,0 1,0.42367 1,1l0,22c0,0.57633 -0.42367,1 -1,1l-12,0l0,4l12,0c2.73767,0 5,-2.26233 5,-5l0,-22c0,-2.73767 -2.26233,-5 -5,-5l-7.1875,0l1.59375,-1.59375l-2.8125,-2.8125zm-19.59375,4.40625c-2.73767,0 -5,2.26233 -5,5l0,22c0,2.73767 2.26233,5 5,5l7.1875,0l-1.59375,1.59375l2.8125,2.8125l5,-5l1.4375,-1.40625l-1.4375,-1.40625l-5,-5l-2.8125,2.8125l1.59375,1.59375l-7.1875,0c-0.57633,0 -1,-0.42367 -1,-1l0,-22c0,-0.57633 0.42367,-1 1,-1l12,0l0,-4l-12,0z"/>
</svg>
