<svg width="50" height="50" xmlns="http://www.w3.org/2000/svg">
<path d="m30.58594,4.58594l-6.41406,6.41406l6.41406,6.41406l2.82812,-2.82812l-1.58593,-1.58594l7.17187,0c0.57633,0 1,0.42367 1,1l0,22c0,0.57633 -0.42367,1 -1,1l-11,0l0,4l11,0c2.73767,0 5,-2.26233 5,-5l0,-22c0,-2.73767 -2.26233,-5 -5,-5l-7.17187,0l1.58593,-1.58594l-2.82812,-2.82812zm-19.58594,4.41406c-2.73767,0 -5,2.26233 -5,5l0,22c0,2.73767 2.26233,5 5,5l7.17188,0l-1.58594,1.58594l2.82812,2.82812l6.41407,-6.41406l-6.41407,-6.41406l-2.82812,2.82812l1.58594,1.58594l-7.17188,0c-0.57633,0 -1,-0.42367 -1,-1l0,-22c0,-0.57633 0.42367,-1 1,-1l11,0l0,-4l-11,0zm14.37305,9c-0.074,0.396 -0.23166,0.72995 -0.47266,1.00195c-0.241,0.272 -0.53109,0.49302 -0.87109,0.66602c-0.34,0.173 -0.72063,0.29709 -1.14063,0.37109c-0.421,0.074 -0.85187,0.11133 -1.29687,0.11133l0.0332,1.84961l3.125,0l0,9l2.25,0l0,-13l-1.62695,0z"/>
</svg>
