<svg width="50" height="50" xmlns="http://www.w3.org/2000/svg">
<path d="m37.40625,4.59375l-2.8125,2.8125l1.59375,1.59375l-2.625,0c-2.325,0 -4.4575,1.35875 -5.4375,3.46875l-3.3125,7.0625l2.21875,4.75l4.71875,-10.125c0.327,-0.703 1.0365,-1.15625 1.8125,-1.15625l2.625,0l-1.59375,1.59375l2.8125,2.8125l5,-5l1.4375,-1.40625l-1.4375,-1.40625l-5,-5zm-29.40625,4.40625l0,4l6.4375,0c0.78372,0 1.48225,0.44541 1.8125,1.15625l10.875,23.375c0.98151,2.11414 3.10722,3.46875 5.4375,3.46875l3.625,0l-1.59375,1.59375l2.8125,2.8125l5,-5l1.4375,-1.40625l-1.4375,-1.40625l-5,-5l-2.8125,2.8125l1.59375,1.59375l-3.625,0c-0.78372,0 -1.48201,-0.44439 -1.8125,-1.15625l-10.875,-23.375c-0.98175,-2.11316 -3.10722,-3.46875 -5.4375,-3.46875l-6.4375,0zm12.96875,18.84375l-3.71875,8c-0.326,0.704 -1.0375,1.15625 -1.8125,1.15625l-7.4375,0l0,4l7.4375,0c2.326,0 4.4575,-1.35675 5.4375,-3.46875l2.3125,-4.9375l-2.21875,-4.75zm10.125,-2.8625l0,0c0,-3.6934 2.9941,-6.6875 6.6875,-6.6875l0,0c1.77363,0 3.47463,0.70457 4.72878,1.95872c1.25415,1.25415 1.95872,2.95514 1.95872,4.72878l0,0c0,3.6934 -2.9941,6.6875 -6.6875,6.6875l0,0c-3.6934,0 -6.6875,-2.9941 -6.6875,-6.6875zm6.6875,-6.6875l0,13.375m-6.6875,-6.6875l13.375,0l-13.375,0z"/>
</svg>
