<?xml version="1.0" encoding="UTF-8" standalone="no"?>
<!-- Generator: Adobe Illustrator 22.0.1, SVG Export Plug-In . SVG Version: 6.00 Build 0)  -->

<svg
   xmlns:dc="http://purl.org/dc/elements/1.1/"
   xmlns:cc="http://creativecommons.org/ns#"
   xmlns:rdf="http://www.w3.org/1999/02/22-rdf-syntax-ns#"
   xmlns:svg="http://www.w3.org/2000/svg"
   xmlns="http://www.w3.org/2000/svg"
   xmlns:sodipodi="http://sodipodi.sourceforge.net/DTD/sodipodi-0.dtd"
   xmlns:inkscape="http://www.inkscape.org/namespaces/inkscape"
   version="1.1"
   id="Layer_1"
   x="0px"
   y="0px"
   viewBox="0 0 30 30"
   style="enable-background:new 0 0 30 30;"
   xml:space="preserve"
   sodipodi:docname="temp.svg"
   inkscape:version="0.92.3 (2405546, 2018-03-11)"><metadata
   id="metadata9"><rdf:RDF><cc:Work
       rdf:about=""><dc:format>image/svg+xml</dc:format><dc:type
         rdf:resource="http://purl.org/dc/dcmitype/StillImage" /><dc:title></dc:title></cc:Work></rdf:RDF></metadata><defs
   id="defs7" /><sodipodi:namedview
   pagecolor="#ffffff"
   bordercolor="#666666"
   borderopacity="1"
   objecttolerance="10"
   gridtolerance="10"
   guidetolerance="10"
   inkscape:pageopacity="0"
   inkscape:pageshadow="2"
   inkscape:window-width="3840"
   inkscape:window-height="2104"
   id="namedview5"
   showgrid="false"
   showguides="true"
   inkscape:guide-bbox="true"
   inkscape:zoom="57.962661"
   inkscape:cx="14.542524"
   inkscape:cy="15.52"
   inkscape:window-x="0"
   inkscape:window-y="0"
   inkscape:window-maximized="1"
   inkscape:current-layer="Layer_1"><sodipodi:guide
     position="27.550199,26.808635"
     orientation="0,1"
     id="guide11"
     inkscape:locked="false" /><sodipodi:guide
     position="14.966095,21.977238"
     orientation="1,0"
     id="guide13"
     inkscape:locked="false" /><sodipodi:guide
     position="3.6404014,21.617693"
     orientation="1,0"
     id="guide15"
     inkscape:locked="false" /></sodipodi:namedview>

<path
   inkscape:connector-curvature="0"
   d="M 24.286327,6.0911689 C 24.015246,4.7354416 23.147505,4.1931507 21.845954,3.6507953 20.562829,3.1161704 17.488044,2.4764759 15.2189,2.4585669 12.949884,2.4765402 9.8751636,3.1161704 8.5919737,3.6507953 7.2904238,4.1930862 6.4227453,4.7353772 6.1515998,6.0911689 L 5.175502,13.607225 v 10.35661 h 1.6811147 v 1.624104 c 0,1.980217 2.8978876,1.980217 2.8978876,0 v -1.624104 h 5.3499847 0.01694 5.562122 v 1.624104 c 0,1.980217 2.897822,1.980217 2.897822,0 v -1.624104 h 1.681115 V 13.607225 Z M 11.086653,4.3558121 h 4.034714 4.229973 c 0.813501,0 0.813501,1.2201868 0,1.2201868 h -4.23983 -4.024857 c -0.813501,0 -0.813501,-1.2201868 0,-1.2201868 z M 8.3067199,20.717176 c -0.7677623,0 -1.3901922,-0.622429 -1.3901922,-1.390191 0,-0.767764 0.6224299,-1.390128 1.3901922,-1.390128 0.7677625,0 1.3901925,0.622364 1.3901925,1.390128 0,0.767762 -0.62243,1.390191 -1.3901925,1.390191 z M 15.121367,14.399339 H 7.747873 c -0.721895,0 -0.8730254,-0.518649 -0.8021629,-1.041162 L 7.7054199,7.9068579 C 7.8097809,7.2445518 8.034286,6.8079102 8.89359,6.8079102 h 6.21792 6.432827 c 0.859369,0 1.083809,0.4366416 1.188106,1.0989477 l 0.759839,5.4513191 c 0.07086,0.522513 -0.08026,1.041162 -0.802163,1.041162 z m 7.00984,6.317837 c -0.767762,0 -1.390126,-0.622429 -1.390126,-1.390191 0,-0.767764 0.622364,-1.390128 1.390126,-1.390128 0.767764,0 1.390128,0.622364 1.390128,1.390128 0,0.767762 -0.622364,1.390191 -1.390128,1.390191 z"
   id="MBZTA-Bus"
   style="stroke-width:0.0644204" /></svg>