<svg width="60" height="60" xmlns="http://www.w3.org/2000/svg">
<path d="m2.4425,20.34429l0,19.67841l11.20244,0l16.77001,13.7719l0.00997,-47.2222l-16.7725,13.7719l-11.20991,0zm34.41229,-2.26292c-0.97943,-0.96947 -2.55201,-0.96947 -3.52646,0.00498c-0.97196,0.97445 -0.97196,2.55201 0.00498,3.52895l0,-0.00498c2.15077,2.15326 3.47662,5.10652 3.47662,8.38874c0,3.27973 -1.32336,6.22302 -3.47163,8.37628c-0.98193,0.96947 -0.98193,2.54703 -0.00498,3.52646c0.48598,0.48598 1.12398,0.73021 1.76199,0.73021c0.6405,0 1.2785,-0.24424 1.76448,-0.73021c3.04547,-3.04048 4.93456,-7.26476 4.93206,-11.90275c0.00249,-4.64795 -1.89407,-8.87722 -4.93705,-11.9177zm5.7196,-5.71711c-0.97943,-0.97445 -2.55201,-0.97445 -3.52148,0c-0.97694,0.97445 -0.97694,2.5545 0,3.52397c3.61369,3.61618 5.84172,8.59061 5.84172,14.10834c0,5.51275 -2.22803,10.48468 -5.83673,14.10336c-0.97694,0.97196 -0.97694,2.54952 0,3.52397c0.48598,0.48598 1.12398,0.73021 1.76448,0.73021c0.638,0 1.27601,-0.24424 1.76199,-0.73021c4.5059,-4.50839 7.29965,-10.75384 7.29467,-17.62733c0.00249,-6.87847 -2.79126,-13.12891 -7.30464,-17.63231zm5.4305,-5.4305c-0.97943,-0.97445 -2.5545,-0.96947 -3.52397,0.00498c-0.97445,0.96947 -0.97445,2.54952 0.00498,3.52148l-0.00498,0c5.00683,5.00683 8.09466,11.89527 8.09466,19.53635c0,7.63361 -3.08784,14.52454 -8.08968,19.53386c-0.97445,0.97196 -0.97445,2.54952 0.00498,3.52646c0.48349,0.48349 1.12149,0.72523 1.75949,0.72523s1.2785,-0.24424 1.76448,-0.73021c5.88907,-5.89654 9.54762,-14.06348 9.54263,-23.05534c0.00498,-8.99933 -3.65356,-17.16876 -9.5526,-23.06282z"/>
</svg>
