<svg width="60" height="60" xmlns="http://www.w3.org/2000/svg">
<path d="m34.18619,55.59387c-0.69507,-0.13622 -0.87971,-0.25148 -2.10695,-1.34127c-0.98832,-0.88021 -4.91985,-4.50058 -10.32843,-9.51461l-2.05266,-1.90187l-2.21013,0c-3.36678,0 -4.00756,-0.06811 -5.08819,-0.52393c-1.42274,-0.60252 -2.57939,-1.65039 -3.27447,-2.96546c-0.34754,-0.65492 -0.54846,-1.226 -0.61905,-1.73945c-0.03258,-0.24625 -0.06516,-3.30601 -0.08688,-7.73848l-0.02715,-7.33506l0.22264,-0.67064c0.1249,-0.36675 0.33668,-0.88021 0.47243,-1.13693c0.73852,-1.41985 2.10152,-2.60918 3.67088,-3.19599c0.65164,-0.24625 0.86342,-0.26197 4.52344,-0.31436l3.47539,-0.04715l0.32582,-0.33008c0.18463,-0.18338 2.49251,-2.50964 5.13164,-5.17646c5.19137,-5.23409 6.44033,-6.47056 6.88562,-6.80064c0.76024,-0.57108 2.3296,-0.70207 3.24188,-0.27244c0.68965,0.32484 1.37387,1.02691 1.78657,1.81805l0.19549,0.38247l0,23.21544l0,23.21544l-0.24437,0.45058c-0.39098,0.73875 -1.00461,1.36746 -1.66167,1.70802c-0.52131,0.27768 -1.44989,0.36152 -2.23185,0.21481l0,0l0,0l0.00002,0zm10.19267,-13.9628c-0.65707,-0.13622 -1.18381,-0.4401 -1.69968,-0.96927c-0.65707,-0.68111 -0.87971,-1.23124 -0.87971,-2.20052c0,-0.9064 0.14119,-1.2522 0.92315,-2.2791c1.11321,-1.46177 1.69968,-2.6511 1.99835,-4.06048c0.36926,-1.70802 0.27151,-3.59418 -0.26066,-5.21313c-0.2498,-0.74398 -0.85256,-1.87044 -1.41188,-2.61966c-1.09149,-1.47225 -1.2544,-1.82329 -1.25983,-2.69825c-0.01086,-0.95356 0.29323,-1.6661 0.98289,-2.3315c0.7168,-0.68635 1.59108,-0.99547 2.57939,-0.91688c0.90686,0.07335 1.44446,0.34056 2.21013,1.11074c1.63995,1.65039 3.155,4.58441 3.70889,7.1936c0.62448,2.95498 0.37469,6.28195 -0.67878,8.99592c-0.50502,1.30459 -1.26526,2.67205 -2.11782,3.82995c-1.03719,1.38842 -1.58022,1.83901 -2.51966,2.08001c-0.39098,0.09955 -1.27069,0.1467 -1.57479,0.07859l0,0l0,0l0.00001,-0.00002z"/>
</svg>
