<svg width="60" height="60" xmlns="http://www.w3.org/2000/svg">
<path d="m2.4425,20.34429l0,19.67841l11.20244,0l16.77001,13.7719l0.00997,-47.2222l-16.7725,13.7719l-11.20991,0zm34.41229,-2.26292c-0.97943,-0.96947 -2.55201,-0.96947 -3.52646,0.00498c-0.97196,0.97445 -0.97196,2.55201 0.00498,3.52895l0,-0.00498c2.15077,2.15326 3.47662,5.10652 3.47662,8.38874c0,3.27973 -1.32336,6.22302 -3.47163,8.37628c-0.98193,0.96947 -0.98193,2.54703 -0.00498,3.52646c0.48598,0.48598 1.12398,0.73021 1.76199,0.73021c0.6405,0 1.2785,-0.24424 1.76448,-0.73021c3.04547,-3.04048 4.93456,-7.26476 4.93206,-11.90275c0.00249,-4.64795 -1.89407,-8.87722 -4.93705,-11.9177z"/>
</svg>
