<svg width="60" height="60" xmlns="http://www.w3.org/2000/svg">
<path d="m7.88213,24.70799l0,11.63523c0,3.57004 2.38395,6.46357 5.32374,6.46357l5.56706,0l15.33058,12.22373c1.55251,1.04134 3.6666,-0.97691 4.70115,-3.52969l-27.15937,-32.97313c-2.17852,0.81002 -3.76316,3.26932 -3.76316,6.18028zm31.54512,-13.30974c0,-3.57021 -2.66214,-8.51088 -5.32374,-6.46357l-14.05367,12.2229l19.37741,23.52635l0,-29.28568zm-26.66015,6.8724l26.41711,32.07293l2.58227,3.13415c0.4731,0.57605 1.09487,0.86416 1.71609,0.86416c0.62108,0 1.24285,-0.28811 1.71677,-0.86416c0.94838,-1.1506 0.94838,-3.01724 0,-4.16868l-5.7714,-7.00708l-20.15401,-24.46905l-8.78984,-10.66945c-0.47337,-0.57605 -1.09487,-0.86416 -1.71636,-0.86416c-0.6215,0 -1.24258,0.28811 -1.71677,0.86416c-0.94879,1.15044 -0.94879,3.01724 0,4.16818l5.71614,6.93899z"/>
</svg>
