<?xml version="1.0" encoding="utf-8"?>
<svg width="449" height="264" xmlns="http://www.w3.org/2000/svg">
  <defs>
    <filter id="blur" filterUnits="objectBoundingBox" x="-50%" y="-50%" width="200%" height="200%">
      <feGaussianBlur in="SourceGraphic" stdDeviation="8"/>
    </filter>
  </defs>
  <rect x="1" y="1" width="447" height="263" style="stroke-width:4;filter:url(#blur);stroke:navy;fill:#7dd3f0;"/>
  <g>
    <path d="m34.683176,122.225456l18.886663,0z" style="fill:none;fill-rule:evenodd;stroke-width:3;stroke-miterlimit:4;stroke:black"/>
    <path d="m395.819023,119.65l18.886663,0z" style="fill:none;fill-rule:evenodd;stroke-width:3;stroke-miterlimit:4;stroke:black"/>
    <path d="m405.262355,110.206668l0,18.886663z" style="fill:none;fill-rule:evenodd;stroke-width:3;stroke-miterlimit:4;stroke:black"/>
    <path d="m274.382277,116.074644c35.687565,3.698986 72.207712,10.544722 123.384266,31.669129" style="fill:none;stroke-width:6;stroke:black"/>
    <path d="m53.032146,149.644157c67.321881,-25.071967 131.318469,-40.893083 221.45554,-33.95048" style="fill:none;stroke-width:6;stroke:black"/>
    <path d="m88.34358,113.596814l14.327995,19.915915z" style="fill:none;stroke-width:3;stroke:black"/>
    <path d="m119.578611,104.570179l11.462394,21.778552z" style="fill:none;stroke-width:3;stroke:black"/>
    <path d="m152.962839,97.836023l7.737116,22.065111z" style="fill:none;stroke-width:3;stroke:black"/>
    <path d="m188.782827,92.677944l3.725278,22.494952z" style="fill:none;stroke-width:3;stroke:black"/>
    <path d="m227.325133,91.101862l-0.286559,22.494952z" style="fill:none;stroke-width:3;stroke:black"/>
    <path d="m259.27656,92.248103l-3.581997,22.208393z" style="fill:none;stroke-width:3;stroke:black"/>
    <path d="m279.479034,95.113704l-6.017761,23.497911z" style="fill:none;stroke-width:3;stroke:black"/>
    <path d="m324.755497,102.13442l-10.172876,20.345751z" style="fill:none;stroke-width:3;stroke:black"/>
    <path d="m360.862044,133.369447l14.327995,-18.196551z" style="fill:none;stroke-width:3;stroke:black"/>
  </g>
  <g style="stroke-width:1px;fill:black;">
    <path d="m379.007808,91.810767l8.070565,0l0,1.730169l-6.187989,0l0,3.724966q0.4478,-0.152661 0.895599,-0.223904q0.4478,-0.081423 0.895599,-0.081423q2.544354,0 4.03028,1.394298t1.485884,3.775824q0,2.452768 -1.526612,3.816552q-1.526612,1.353612 -4.304996,1.353612q-0.95667,0 -1.954069,-0.162837q-0.987227,-0.162841 -2.045655,-0.488528l0,-2.065998q0.915984,0.498699 1.892998,0.742942q0.977055,0.24426 2.06604,0.24426q1.760684,0 2.788597,-0.926156t1.027913,-2.513839q0,-1.587683 -1.027913,-2.513839q-1.027913,-0.926156 -2.788597,-0.926156q-0.824356,0 -1.648755,0.183193q-0.814185,0.183193 -1.669098,0.569942l0.000208,-7.633078l0.000001,0z"/>
    <path d="m332.256061,83.585961q1.475713,0.315502 2.300111,1.312884q0.83457,0.997398 0.83457,2.46294q0,2.249211 -1.546955,3.480681q-1.546955,1.23147 -4.396707,1.23147q-0.95667,0 -1.974412,-0.193373q-1.00757,-0.183193 -2.086383,-0.55977l0,-1.984583q0.854913,0.498699 1.872654,0.753114q1.017742,0.254435 2.127069,0.254435q1.933726,0 2.941296,-0.763327q1.017742,-0.763285 1.017742,-2.218697q0,-1.343441 -0.946499,-2.096554q-0.936327,-0.763285 -2.615597,-0.763285l-1.770855,0l0,-1.689441l1.852311,0q1.516441,0 2.320454,-0.600457q0.804013,-0.610628 0.804013,-1.750512q0,-1.170399 -0.83457,-1.79124q-0.824356,-0.631013 -2.371354,-0.631013q-0.844741,0 -1.811583,0.183193t-2.127069,0.569942l0,-1.831926q1.170399,-0.325678 2.18814,-0.488528q1.027913,-0.162837 1.933726,-0.162837q2.340797,0 3.704581,1.068641q1.363784,1.05847 1.363784,2.870053q0,1.261985 -0.722599,2.137282q-0.722599,0.865084 -2.055826,1.200955l-0.000042,-0.000046l0,-0.000001z"/>
    <path d="m283.565879,71.267512q-1.587683,0 -2.391697,1.56734q-0.793842,1.557169 -0.793842,4.691849q0,3.124467 0.793842,4.691849q0.804013,1.557169 2.391697,1.557169q1.597855,0 2.391697,-1.557169q0.804013,-1.56734 0.804013,-4.691849q0,-3.134639 -0.804013,-4.691849q-0.793842,-1.56734 -2.391697,-1.56734zm0,-1.62837q2.554525,0 3.897966,2.025311q1.353612,2.01514 1.353612,5.861998q0,3.836895 -1.353612,5.861998q-1.343441,2.01514 -3.897966,2.01514t-3.908138,-2.01514q-1.343399,-2.025311 -1.343399,-5.861998q0,-3.847066 1.343399,-5.861998q1.353612,-2.025311 3.908138,-2.025311z"/>
  </g>
  <g style="stroke-width:1px;fill:black;">
    <path d="m194.738936,140.375889l7.78328,0l7.964517,23.076028l7.944437,-23.076028l7.78328,0l-11.122209,31.263362l-9.231609,0l-11.121696,-31.263362z"/>
    <path d="m230.177398,140.375889l7.743123,0l0,18.741397q0,3.873933 1.206749,5.549355q1.22683,1.654245 3.982207,1.654245q2.775457,0 3.982207,-1.654245q1.22683,-1.675205 1.22683,-5.549355l0,-18.741397l7.743123,0l0,18.741397q0,6.638102 -3.197803,9.883982q-3.197803,3.245718 -9.754203,3.245718q-6.536269,0 -9.734122,-3.245718q-3.197803,-3.245718 -3.197803,-9.883982l-0.000308,-18.741397z"/>
    <path d="m258.58298,80.680391l3.358539,0l0,-11.592265l-3.653681,0.732771l0,-1.872654l3.633338,-0.732771l2.055826,0l0,13.464836l3.358539,0l0,1.730169l-8.752561,0l0,-1.730086z"/>
    <path d="m230.123401,73.581129q1.475713,0.315502 2.300111,1.312884q0.83457,0.997398 0.83457,2.46294q0,2.249211 -1.546955,3.480681q-1.546955,1.23147 -4.396707,1.23147q-0.95667,0 -1.974412,-0.193373q-1.00757,-0.183193 -2.086383,-0.55977l0,-1.984583q0.854913,0.498699 1.872654,0.753114q1.017742,0.254435 2.127069,0.254435q1.933726,0 2.941296,-0.763327q1.017742,-0.763285 1.017742,-2.218697q0,-1.343441 -0.946499,-2.096554q-0.936327,-0.763285 -2.615597,-0.763285l-1.770855,0l0,-1.689441l1.852311,0q1.516441,0 2.320454,-0.600457q0.804013,-0.610628 0.804013,-1.750512q0,-1.170399 -0.83457,-1.79124q-0.824356,-0.631013 -2.371354,-0.631013q-0.844741,0 -1.811583,0.183193t-2.127069,0.569942l0,-1.831926q1.170399,-0.325678 2.18814,-0.488528q1.027913,-0.162837 1.933726,-0.162837q2.340797,0 3.704581,1.068641q1.363784,1.05847 1.363784,2.870053q0,1.261985 -0.722599,2.137282q-0.722599,0.865084 -2.055826,1.200955l-0.000042,-0.000046l0,-0.000001z"/>
    <path d="m185.997923,69.716763l8.070565,0l0,1.730169l-6.187989,0l0,3.724966q0.4478,-0.152661 0.895599,-0.223904q0.4478,-0.081423 0.895599,-0.081423q2.544354,0 4.03028,1.394298t1.485884,3.775824q0,2.452768 -1.526612,3.816552q-1.526612,1.353612 -4.304996,1.353612q-0.95667,0 -1.954069,-0.162837q-0.987227,-0.162841 -2.045655,-0.488528l0,-2.065998q0.915984,0.498699 1.892998,0.742942q0.977055,0.24426 2.06604,0.24426q1.760684,0 2.788597,-0.926156t1.027913,-2.513839q0,-1.587683 -1.027913,-2.513839q-1.027913,-0.926156 -2.788597,-0.926156q-0.824356,0 -1.648755,0.183193q-0.814185,0.183193 -1.669098,0.569942l0.000208,-7.633078l0.000001,0z"/>
    <path d="m147.60438,73.051707l9.770552,0l0,0.875256l-5.515997,14.319833l-2.147454,0l5.190423,-13.464836l-7.297274,0l-0.00025,-1.730252l0,-0.000001z"/>
    <path d="m108.093631,91.302188l3.358539,0l0,-11.592265l-3.653681,0.732771l0,-1.872654l3.633338,-0.732771l2.055826,0l0,13.464836l3.358539,0l0,1.730169l-8.752561,0l0,-1.730086z"/>
    <path d="m125.401991,79.188004q-1.587683,0 -2.391697,1.56734q-0.793842,1.557169 -0.793842,4.691849q0,3.124467 0.793842,4.691849q0.804013,1.557169 2.391697,1.557169q1.597855,0 2.391697,-1.557169q0.804013,-1.56734 0.804013,-4.691849q0,-3.134639 -0.804013,-4.691849q-0.793842,-1.56734 -2.391697,-1.56734zm0,-1.62837q2.554525,0 3.897966,2.025311q1.353612,2.01514 1.353612,5.861998q0,3.836895 -1.353612,5.861998q-1.343441,2.01514 -3.897966,2.01514t-3.908138,-2.01514q-1.343399,-2.025311 -1.343399,-5.861998q0,-3.847066 1.343399,-5.861998q1.353612,-2.025311 3.908138,-2.025311z"/>
    <path d="m71.375898,100.473284l7.175132,0l0,1.730169l-9.64841,0l0,-1.730169q1.170399,-1.211127 3.185539,-3.24661q2.025311,-2.045655 2.544354,-2.63594q0.987227,-1.109327 1.373955,-1.872654q0.396921,-0.773499 0.396921,-1.516441q0,-1.211127 -0.854913,-1.974412q-0.844741,-0.763285 -2.208483,-0.763285q-0.966842,0 -2.045655,0.335854q-1.068641,0.335854 -2.289939,1.017742l0,-2.076211q1.241641,-0.498699 2.320454,-0.753114t1.974412,-0.254435q2.361182,0 3.765652,1.18057q1.404512,1.18057 1.404512,3.155024q0,0.936327 -0.356214,1.781069q-0.34603,0.83457 -1.272198,1.974412q-0.25444,0.295143 -1.618198,1.709826q-1.363784,1.40447 -3.847066,3.938652l0.000146,-0.000046l-0.000001,-0.000001z"/>
    <path d="m87.275243,88.3591q-1.587683,0 -2.391697,1.56734q-0.793842,1.557169 -0.793842,4.691849q0,3.124467 0.793842,4.691849q0.804013,1.557169 2.391697,1.557169q1.597855,0 2.391697,-1.557169q0.804013,-1.56734 0.804013,-4.691849q0,-3.134639 -0.804013,-4.691849q-0.793842,-1.56734 -2.391697,-1.56734zm0,-1.62837q2.554525,0 3.897966,2.025311q1.353612,2.01514 1.353612,5.861998q0,3.836895 -1.353612,5.861998q-1.343441,2.01514 -3.897966,2.01514t-3.908138,-2.01514q-1.343441,-2.025311 -1.343441,-5.861998q0,-3.847066 1.343441,-5.861998q1.353612,-2.025311 3.908138,-2.025311z"/>
  </g>
</svg>
