<svg width="1080" height="600" xmlns="http://www.w3.org/2000/svg">
 <defs>
  <filter color-interpolation-filters="sRGB" id="blur">
   <feGaussianBlur stdDeviation="8"/>
  </filter>
 </defs>
  <g>
   <rect fill="#ffeea9" stroke="#ff0000" stroke-width="3" stroke-miterlimit="4" stroke-dashoffset="0" filter="url(#blur)" y="0.5" x="0.5" height="633" width="1077"/>
   <path fill="#000000" stroke="#000000" stroke-width="1.50948" stroke-miterlimit="4" stroke-dashoffset="0" 
d="m537.68074,590.73438a150.76556,150.76556 0 0 0 -107.3086,45.05078l214.73829,0a150.76556,150.76556 0 0 0 -107.42969,-45.05078z"/>
   <ellipse fill="#ffffff" stroke="#0000ff" stroke-width="0.61062" stroke-miterlimit="4" stroke-dashoffset="0" ry="3.54162" rx="3.78586" cy="730.98907" cx="538.16882"/>
   <g>
    <g>
     <path fill="none" fill-rule="evenodd" stroke="#000000" stroke-width="5" stroke-miterlimit="4" d="m82.5,292.5l45.3061,0"/>
     <path fill="none" fill-rule="evenodd" stroke="#ff0000" stroke-width="5" stroke-miterlimit="4" d="m948.80743,286.32189l45.3061,0"/>
     <path fill="none" fill-rule="evenodd" stroke="#ff0000" stroke-width="5" stroke-miterlimit="4" d="m971.46048,263.66884l0,45.3061"/>
    </g>
    <path fill="none" fill-rule="evenodd" stroke="#ff0000" stroke-width="15" stroke-miterlimit="4" d="m657.5,277.74518c85.60879,8.87328 173.21481,25.29511 295.97922,75.9692"/>
    <path fill="none" fill-rule="evenodd" stroke="#000000" stroke-width="15" stroke-miterlimit="4" d="m126.51626,358.2731c161.49448,-60.14366 315.01211,-98.096 531.2366,-81.4418"/>
    <path fill="none" fill-rule="evenodd" stroke="#000000" stroke-width="8" stroke-miterlimit="4" d="m211.22277,271.80126l34.37058,47.77511"/>
    <path fill="none" fill-rule="evenodd" stroke="#000000" stroke-width="8" stroke-miterlimit="4" d="m286.15064,250.1478l27.49646,52.24328"/>
    <path fill="none" fill-rule="evenodd" stroke="#000000" stroke-width="8" stroke-miterlimit="4" d="m366.23409,233.99363l18.56011,52.93069"/>
    <path fill="none" fill-rule="evenodd" stroke="#000000" stroke-width="8" stroke-miterlimit="4" d="m452.16054,221.62022l8.93635,53.96181"/>
    <path fill="none" fill-rule="evenodd" stroke="#000000" stroke-width="8" stroke-miterlimit="4" d="m544.6174,217.83945l-0.68741,53.96181"/>
    <path fill="none" fill-rule="evenodd" stroke="#000000" stroke-width="8" stroke-miterlimit="4" d="m621.26379,220.5891l-8.59264,53.2744"/>
    <path fill="none" fill-rule="evenodd" stroke="#ff0000" stroke-width="8" stroke-miterlimit="4" d="m669.72631,227.46322l-14.43565,56.36775"/>
    <path fill="none" fill-rule="evenodd" stroke="#ff0000" stroke-width="8" stroke-miterlimit="4" d="m778.33734,244.3048l-24.40311,48.80622"/>
    <path fill="none" fill-rule="evenodd" stroke="#ff0000" stroke-width="8" stroke-miterlimit="4" d="m864.9512,319.23266l34.37058,-43.65063"/>
  <g id="VU" stroke-width="1px">
   <path d="m466.4483,336.04l18.67085,0l19.10561,55.35572l19.05744,-55.35572l18.67085,0l-26.68041,74.99583l-22.14516,0l-26.67918,-74.99583z"/>
   <path d="m551.45953,336.04l18.57452,0l0,44.95763q0,9.29295 2.8948,13.31202q2.94297,3.96827 9.55268,3.96827q6.65788,0 9.55268,-3.96827q2.94297,-4.01855 2.94297,-13.31202l0,-44.95763l18.57452,0l0,44.95763q0,15.92375 -7.67102,23.7101q-7.67102,7.78596 -23.39878,7.78596q-15.67947,0 -23.35061,-7.78596q-7.67102,-7.78596 -7.67102,-23.7101l-0.00074,-44.95763z"/>
  </g>
  <g stroke-width="1px" fill="#ff0000">
    <path id="5X" d="m908.48,219.54l19.36,0l0,4.1504l-14.844,0l0,8.9356q1.0742,-0.36621 2.1484,-0.53711q1.0742,-0.19532 2.1484,-0.19532q6.1035,0 9.668,3.3447t3.5644,9.0576q0,5.8838 -3.6621,9.1553q-3.6621,3.2471 -10.327,3.2471q-2.2949,0 -4.6875,-0.39062q-2.3682,-0.39063 -4.9072,-1.1719l0,-4.956q2.1973,1.1963 4.541,1.7822q2.3438,0.58594 4.9561,0.58594q4.2236,0 6.6894,-2.2217t2.4658,-6.0303q0,-3.8086 -2.4658,-6.0303q-2.4658,-2.2217 -6.6894,-2.2217q-1.9775,0 -3.9551,0.43945q-1.9531,0.43945 -4.0039,1.3672l0.0005,-18.31054z"/>
    <path id="3X" d="m796.33,199.81q3.54,0.75684 5.5176,3.1494q2.002,2.3926 2.002,5.9082q0,5.3955 -3.7109,8.3496q-3.7109,2.9541 -10.547,2.9541q-2.2949,0 -4.7363,-0.46387q-2.417,-0.43945 -5.0049,-1.3428l0,-4.7607q2.0508,1.1963 4.4922,1.8066q2.4414,0.61035 5.1025,0.61035q4.6387,0 7.0557,-1.8311q2.4414,-1.831 2.4414,-5.3223q0,-3.2227 -2.2705,-5.0293q-2.2461,-1.831 -6.2744,-1.831l-4.248,0l0,-4.0527l4.4434,0q3.6377,0 5.5664,-1.4404q1.9287,-1.4648 1.9287,-4.1992q0,-2.8076 -2.002,-4.2969q-1.9775,-1.5137 -5.6885,-1.5137q-2.0264,0 -4.3457,0.43945t-5.1025,1.3672l0,-4.3945q2.8076,-0.78125 5.249,-1.1719q2.4658,-0.39062 4.6387,-0.39062q5.6152,0 8.8867,2.5635q3.2715,2.5391 3.2715,6.8848q0,3.0273 -1.7334,5.127q-1.7334,2.0752 -4.9316,2.8809l-0.0001,-0.00011z"/>
    <path id="0X" d="m679.53,170.26q-3.8086,0 -5.7373,3.7598q-1.9043,3.7354 -1.9043,11.255q0,7.4951 1.9043,11.255q1.9287,3.7354 5.7373,3.7354q3.833,0 5.7373,-3.7354q1.9287,-3.7598 1.9287,-11.255q0,-7.5195 -1.9287,-11.255q-1.9043,-3.7598 -5.7373,-3.7598zm0,-3.9062q6.1279,0 9.3506,4.8584q3.2471,4.834 3.2471,14.062q0,9.2041 -3.2471,14.062q-3.2227,4.834 -9.3506,4.834t-9.375,-4.834q-3.2226,-4.8584 -3.2226,-14.062q0,-9.2285 3.2226,-14.062q3.2471,-4.8584 9.375,-4.8584z"/>
  </g>
  <g stroke-width="1px">
    <path id="1N" d="m619.6,192.84l8.0566,0l0,-27.808l-8.7646,1.7578l0,-4.4922l8.7158,-1.7578l4.9316,0l0,32.3l8.0566,0l0,4.1504l-20.996,0l0,-4.1502z"/>
    <path id="3N" d="m551.33,175.81q3.54,0.75684 5.5176,3.1494q2.002,2.3926 2.002,5.9082q0,5.3955 -3.7109,8.3496q-3.7109,2.9541 -10.547,2.9541q-2.2949,0 -4.7363,-0.46387q-2.417,-0.43945 -5.0049,-1.3428l0,-4.7607q2.0508,1.1963 4.4922,1.8066q2.4414,0.61035 5.1025,0.61035q4.6387,0 7.0557,-1.8311q2.4414,-1.831 2.4414,-5.3223q0,-3.2227 -2.2705,-5.0293q-2.2461,-1.831 -6.2744,-1.831l-4.248,0l0,-4.0527l4.4434,0q3.6377,0 5.5664,-1.4404q1.9287,-1.4648 1.9287,-4.1992q0,-2.8076 -2.002,-4.2969q-1.9775,-1.5137 -5.6885,-1.5137q-2.0264,0 -4.3457,0.43945t-5.1025,1.3672l0,-4.3945q2.8076,-0.78125 5.249,-1.1719q2.4658,-0.39062 4.6387,-0.39062q5.6152,0 8.8867,2.5635q3.2715,2.5391 3.2715,6.8848q0,3.0273 -1.7334,5.127q-1.7334,2.0752 -4.9316,2.8809l-0.0001,-0.00011z"/>
    <path id="5N" d="m445.48,166.54l19.36,0l0,4.1504l-14.844,0l0,8.9356q1.0742,-0.36621 2.1484,-0.53711q1.0742,-0.19532 2.1484,-0.19532q6.1035,0 9.668,3.3447t3.5644,9.0576q0,5.8838 -3.6621,9.1553q-3.6621,3.2471 -10.327,3.2471q-2.2949,0 -4.6875,-0.39062q-2.3682,-0.39063 -4.9072,-1.1719l0,-4.956q2.1973,1.1963 4.541,1.7822q2.3438,0.58594 4.9561,0.58594q4.2236,0 6.6894,-2.2217t2.4658,-6.0303q0,-3.8086 -2.4658,-6.0303q-2.4658,-2.2217 -6.6894,-2.2217q-1.9775,0 -3.9551,0.43945q-1.9531,0.43945 -4.0039,1.3672l0.0005,-18.31054z"/>
    <path id="7N" d="m353.38,174.54l23.438,0l0,2.0996l-13.232,34.351l-5.1514,0l12.451,-32.3l-17.505,0l-0.0006,-4.1506z"/>
    <g id="10N">
    <path d="m258.6,218.32l8.0566,0l0,-27.808l-8.7646,1.7578l0,-4.4922l8.7158,-1.7578l4.9316,0l0,32.3l8.0566,0l0,4.1504l-20.996,0l0,-4.1502z"/>
    <path d="m300.12,189.26q-3.8086,0 -5.7373,3.7598q-1.9043,3.7354 -1.9043,11.255q0,7.4951 1.9043,11.255q1.9287,3.7354 5.7373,3.7354q3.833,0 5.7373,-3.7354q1.9287,-3.7598 1.9287,-11.255q0,-7.5195 -1.9287,-11.255q-1.9043,-3.7598 -5.7373,-3.7598zm0,-3.9062q6.1279,0 9.3506,4.8584q3.2471,4.834 3.2471,14.062q0,9.2041 -3.2471,14.062q-3.2227,4.834 -9.3506,4.834t-9.375,-4.834q-3.2226,-4.8584 -3.2226,-14.062q0,-9.2285 3.2226,-14.062q3.2471,-4.8584 9.375,-4.8584z"/>
   </g>
   <g id="20N">
    <path d="m170.52,240.32l17.212,0l0,4.1504l-23.145,0l0,-4.1504q2.8076,-2.9053 7.6416,-7.7881q4.8584,-4.9072 6.1035,-6.3232q2.3682,-2.6611 3.2959,-4.4922q0.95215,-1.8555 0.95215,-3.6377q0,-2.9053 -2.0508,-4.7363q-2.0264,-1.831 -5.2978,-1.831q-2.3193,0 -4.9072,0.80566q-2.5635,0.80566 -5.4932,2.4414l0,-4.9805q2.9785,-1.1963 5.5664,-1.8066t4.7363,-0.61035q5.6641,0 9.0332,2.832q3.3692,2.832 3.3692,7.5684q0,2.2461 -0.8545,4.2725q-0.83007,2.002 -3.0518,4.7363q-0.61036,0.708 -3.8818,4.1016q-3.2715,3.3691 -9.2285,9.4482l0.00035,-0.00011z"/>
    <path d="m208.66,211.26q-3.8086,0 -5.7373,3.7598q-1.9043,3.7354 -1.9043,11.255q0,7.4951 1.9043,11.255q1.9287,3.7354 5.7373,3.7354q3.833,0 5.7373,-3.7354q1.9287,-3.7598 1.9287,-11.255q0,-7.5195 -1.9287,-11.255q-1.9043,-3.7598 -5.7373,-3.7598zm0,-3.9062q6.1279,0 9.3506,4.8584q3.2471,4.834 3.2471,14.062q0,9.2041 -3.2471,14.062q-3.2227,4.834 -9.3506,4.834t-9.375,-4.834q-3.2227,-4.8584 -3.2227,-14.062q0,-9.2285 3.2227,-14.062q3.2471,-4.8584 9.375,-4.8584z"/>
   </g>
  </g>

    <path transform="rotate(0 538.16882 730.98907 )" id="needle" fill-rule="evenodd" stroke="darkslategrey" stroke-width="6.7" stroke-miterlimit="4" 
d="m184.54706,292.20923l353.52706,438.77177"/>
   </g>
 </g>
</svg>
