<?xml version="1.0" encoding="utf-8"?>
<svg width="162" height="40" xmlns="http://www.w3.org/2000/svg">

  <defs>
    <g id="led">
        <rect x="0" y="0" width="8" height="5.5" />
        <rect x=".5" y=".5" width="6.5" height="4.5" fill="black" fill-opacity=".15" stroke-width=".2" stroke-opacity=".5" stroke-position="inside" stroke="darkgray"/>
    </g>
    <path id="over" fill-opacity="0.4" d="m136.51396,17.79571c0.720987,0 1.231205,0.184043 1.530655,0.552737c0.29945,0.368694 0.362619,0.90503 0.188295,1.609617c-0.177969,0.704587 -0.508396,1.240924 -0.990067,1.609617c-0.485922,0.368694 -1.089073,0.552737 -1.81006,0.552737c-0.720987,0 -1.231205,-0.184043 -1.530655,-0.552737c-0.29945,-0.364442 -0.36019,-0.900778 -0.182221,-1.609617c0.174325,-0.708839 0.502322,-1.245176 0.983993,-1.609617c0.485922,-0.368694 1.089073,-0.552737 1.81006,-0.552737zm-0.255109,1.002215c-0.287302,0 -0.526618,0.086859 -0.716735,0.261183c-0.194369,0.174325 -0.327998,0.408782 -0.400886,0.704587l-0.097184,0.388738c-0.072888,0.295805 -0.056488,0.530263 0.048592,0.704587c0.105081,0.174325 0.301879,0.261183 0.589181,0.261183c0.287302,0 0.52844,-0.086859 0.722809,-0.261183c0.198621,-0.174325 0.334072,-0.408782 0.40696,-0.704587l0.097184,-0.388738c0.072888,-0.295805 0.054666,-0.530263 -0.054666,-0.704587c-0.109333,-0.174325 -0.307953,-0.261183 -0.595255,-0.261183zm4.604113,3.249605l-1.554951,0l-0.43733,-4.178931l1.433471,0l0.139703,2.794053l0.024296,0l1.542803,-2.794053l1.37273,0l-2.520722,4.178931zm2.034192,0l1.044733,-4.178931l3.614047,0l-0.255109,1.002215l-2.271686,0l-0.139703,0.577033l1.943689,0l-0.242961,0.959696l-1.943689,0l-0.157925,0.637773l2.314205,0l-0.249035,1.002215l-3.656565,0l-0.000001,-0.000001zm9.074598,-2.897311c-0.064992,0.255109 -0.190117,0.485922 -0.37659,0.692439c-0.190117,0.206517 -0.429434,0.358368 -0.716735,0.455552l0.491996,1.74932l-1.506359,0l-0.358368,-1.524581l-0.49807,0l-0.382664,1.524581l-1.34236,0l1.044733,-4.178931l2.557166,0c0.29945,0 0.540588,0.058918 0.722809,0.176147c0.182221,0.113584 0.303701,0.267257 0.364442,0.461626c0.056488,0.198621 0.056488,0.413034 0,0.643847zm-1.378804,0.054666c0.024296,-0.109333 0.010326,-0.200443 -0.042518,-0.273331c-0.056488,-0.072888 -0.13788,-0.109333 -0.242961,-0.109333l-0.880734,0l-0.188295,0.771402l0.880734,0c0.105081,0 0.202265,-0.036444 0.291553,-0.109333c0.092933,-0.07714 0.153673,-0.170073 0.182221,-0.279405z"/>
</defs>

  <g>
    <rect fill="skyblue" fill-opacity="0.3" x="3.643005" y="4.071469" ry="7" rx="4" height="31.857062" width="154.713997"/>
    <g fill="midnightblue">
      <path d="m15.917779,14.835426l0,-6.018378l1.930836,0l0,4.480999l3.089336,0l0,1.537385l-5.020172,0l0,-0.000006z"/>
      <path d="m11.850609,21.130352l-1.858653,0l0.291553,-1.154065l1.858653,0l-0.291553,1.154065zm4.345967,1.427397l-1.178361,0l0.012148,-0.546663c-0.388738,0.42093 -0.850364,0.631699 -1.384878,0.631699c-0.518115,0 -0.876482,-0.170073 -1.075103,-0.510218c-0.198013,-0.340146 -0.214413,-0.842468 -0.048592,-1.506359c0.166428,-0.660247 0.433686,-1.160139 0.801772,-1.500285c0.364442,-0.335894 0.806024,-0.504144 1.324138,-0.504144c0.445834,0 0.769579,0.147599 0.971844,0.443404l0.443404,-1.791838l1.451693,0l-1.318064,5.284404l-0.000001,0zm-1.360582,-2.866941c-0.416678,0 -0.688187,0.250857 -0.81392,0.753179l-0.097184,0.388738c-0.125125,0.493818 0.022474,0.741031 0.443404,0.741031c0.210769,0 0.388738,-0.074711 0.534514,-0.224739c0.145777,-0.150028 0.249035,-0.34622 0.309775,-0.589181l0.06074,-0.242961c0.06074,-0.242961 0.057096,-0.441582 -0.012148,-0.595255c-0.068637,-0.153673 -0.210161,-0.230813 -0.425182,-0.230813l0.000001,0.000001zm6.932288,-2.150206c0.255109,0 0.473774,0.052844 0.655995,0.157925c0.185865,0.105081 0.317672,0.253287 0.394812,0.443404c0.076533,0.190117 0.086859,0.400886 0.03037,0.631699c-0.15428,0.619551 -0.53087,1.008289 -1.129769,1.166213l-0.006074,0.03037c0.598899,0.145777 0.81149,0.563062 0.637773,1.25125c-0.064992,0.263005 -0.186473,0.496248 -0.364442,0.698513c-0.178576,0.202265 -0.39299,0.358368 -0.643847,0.4677c-0.251465,0.113584 -0.510218,0.170073 -0.777476,0.170073l-3.383234,0l1.25125,-5.017147l3.334641,0l0.000001,0zm-1.998355,1.105473l-0.212591,0.850364l1.105473,0c0.105081,0 0.202265,-0.038266 0.291553,-0.115407c0.092933,-0.072888 0.151851,-0.165821 0.176147,-0.279405l0.018222,-0.072888c0.027941,-0.105081 0.015792,-0.196191 -0.036444,-0.273331c-0.057096,-0.072888 -0.136058,-0.109333 -0.236887,-0.109333l-1.105473,0zm-0.473774,1.882949l-0.212591,0.862512l1.22088,0c0.109333,0 0.208339,-0.038266 0.297627,-0.115407c0.088681,-0.072888 0.147599,-0.165821 0.176147,-0.279405l0.018222,-0.072888c0.027941,-0.109333 0.015792,-0.202265 -0.036444,-0.279405c-0.052844,-0.07714 -0.131806,-0.115407 -0.236887,-0.115407l-1.226954,0z"/>
      <path d="m21.35147,27.370893c0,0.364442 -0.097184,0.694869 -0.291553,0.991281c-0.199228,0.301272 -0.488352,0.519937 -0.867371,0.655995l1.333857,2.521936l-2.164784,0l-1.071459,-2.193939l-0.714306,0l0,2.193939l-1.931541,0l0,-6.020577l3.680861,0c0.432471,0 0.801772,0.085036 1.107903,0.255109c0.306131,0.165214 0.536944,0.388738 0.692439,0.670573c0.150636,0.281835 0.225954,0.590396 0.225954,0.925682l0,0.000001zm-1.967985,0.072888c0,-0.155495 -0.051022,-0.286694 -0.153066,-0.393597c-0.106903,-0.102044 -0.235672,-0.153066 -0.386308,-0.153066l-1.268257,0l0,1.107903l1.268257,0c0.150636,0 0.279405,-0.053451 0.386308,-0.160354c0.102044,-0.106903 0.153066,-0.240532 0.153066,-0.400886z"/>
      <path d="m28.013598,19.216728c0.413034,-0.617121 0.764113,-1.034407 1.054451,-1.251857c0.290339,-0.222309 0.598899,-0.333464 0.925682,-0.333464c0.575818,0 1.052022,0.215021 1.428004,0.646277c0.37659,0.431256 0.564885,0.995533 0.565492,1.693439c-0.000607,0.712483 -0.186473,1.277368 -0.558811,1.694046c-0.371123,0.413034 -0.845505,0.619551 -1.421323,0.619551c-0.345005,0 -0.664499,-0.111762 -0.959089,-0.333464c-0.29459,-0.222309 -0.639595,-0.634736 -1.034407,-1.237887c-0.616514,0.870408 -1.285264,1.305916 -2.006859,1.305916c-0.480456,0 -0.87466,-0.188295 -1.183221,-0.564885c-0.308561,-0.37659 -0.462841,-0.870408 -0.462841,-1.483278c0,-0.607403 0.15428,-1.087858 0.462841,-1.441974c0.312205,-0.35776 0.707017,-0.536944 1.183221,-0.536944c0.762291,0 1.431041,0.407567 2.006859,1.224524m0.517507,0.754394c0.385093,0.553951 0.675432,0.920823 0.871016,1.102436c0.198621,0.176754 0.400886,0.266042 0.604973,0.266042c0.317672,0 0.566707,-0.123303 0.747713,-0.368086c0.186473,-0.249035 0.279405,-0.586751 0.279405,-1.013755c0,-0.4349 -0.090503,-0.770794 -0.272116,-1.006466c-0.181006,-0.240532 -0.433078,-0.36019 -0.755002,-0.36019c-0.181613,0 -0.383271,0.099614 -0.604973,0.298842c-0.218058,0.195584 -0.508396,0.555774 -0.871016,1.081177m-1.04777,0c-0.494426,-0.73435 -0.963948,-1.101829 -1.408567,-1.101829c-0.226561,0 -0.421538,0.102651 -0.584929,0.306738c-0.158532,0.199228 -0.238102,0.464056 -0.238102,0.79509c0,0.317672 0.074711,0.578855 0.224739,0.782942c0.153673,0.204087 0.353508,0.306131 0.598292,0.306131c0.422145,0 0.891667,-0.362619 1.408567,-1.089073"/>
      <path d="m37.48483,18.901182l-1.986207,0l-0.048592,0.631699c0,-0.007896 0.040696,-0.036444 0.121481,-0.085036c0.080785,-0.04434 0.188295,-0.086859 0.321923,-0.127555c0.133629,-0.040696 0.283657,-0.06074 0.449478,-0.06074c0.445226,0 0.799949,0.125732 1.062955,0.37659c0.259361,0.255109 0.388738,0.603151 0.388738,1.044733c0,0.267257 -0.071066,0.510218 -0.212591,0.728883c-0.141525,0.218665 -0.341968,0.39056 -0.601329,0.516292c-0.259361,0.129377 -0.558811,0.194369 -0.898956,0.194369c-0.595255,0 -1.050807,-0.127555 -1.366656,-0.382664c-0.320101,-0.255109 -0.479848,-0.601329 -0.479848,-1.038659l1.069029,0c0,0.165821 0.056488,0.303701 0.170073,0.413034c0.113584,0.113584 0.273331,0.170073 0.479848,0.170073c0.206517,0 0.364442,-0.056488 0.473774,-0.170073c0.113584,-0.117229 0.170073,-0.267257 0.170073,-0.449478c0,-0.186473 -0.056488,-0.335894 -0.170073,-0.449478c-0.109333,-0.117229 -0.265435,-0.176147 -0.4677,-0.176147c-0.153673,0 -0.269079,0.024296 -0.34622,0.072888c-0.080785,0.052844 -0.13788,0.101436 -0.170073,0.145777c-0.036444,0.04434 -0.058918,0.072888 -0.066814,0.085036l-0.959696,-0.133629l0.176147,-2.338501l2.891237,0l0,1.032585l-0.000001,0.000001zm2.59361,-1.105473c0.651743,0 1.111547,0.186473 1.378804,0.558811c0.263005,0.368694 0.394812,0.903208 0.394812,1.603543c0,0.700335 -0.131806,1.23485 -0.394812,1.603543c-0.267257,0.372338 -0.727061,0.558811 -1.378804,0.558811c-0.655995,0 -1.117621,-0.186473 -1.384878,-0.558811c-0.263613,-0.368694 -0.394812,-0.903208 -0.394812,-1.603543c0,-0.700335 0.131199,-1.23485 0.394812,-1.603543c0.267257,-0.372338 0.728883,-0.558811 1.384878,-0.558811zm0,0.819994c-0.210769,0 -0.360797,0.080785 -0.449478,0.242961c-0.089288,0.162177 -0.133629,0.427004 -0.133629,0.795698l0,0.601329c0,0.372338 0.04434,0.639595 0.133629,0.801772c0.088681,0.162177 0.238709,0.242961 0.449478,0.242961c0.210161,0 0.358368,-0.080785 0.443404,-0.242961c0.085036,-0.162177 0.127555,-0.429434 0.127555,-0.801772l0,-0.601329c0,-0.372338 -0.042518,-0.637773 -0.127555,-0.795698c-0.085036,-0.162177 -0.233243,-0.242961 -0.443404,-0.242961z"/>
      <path d="m46.413651,17.79571c-0.028548,0.210769 -0.125732,0.471952 -0.291553,0.78355c-0.165821,0.315849 -0.362619,0.629877 -0.589181,0.941474c-0.230813,0.315849 -0.445226,0.57521 -0.643847,0.777476l1.202658,0l0,-0.868586c0.125732,-0.177969 0.253287,-0.388738 0.382664,-0.631699c0.129377,-0.242961 0.214413,-0.443404 0.255109,-0.601329l0.516292,0l0,2.101614l0.583107,0l0,0.892882l-0.583107,0l0,0.856438l-1.154065,0l0,-0.856438l-2.034799,0l0,-0.90503c0.218665,-0.315849 0.435508,-0.698513 0.649921,-1.147991c0.214413,-0.449478 0.386916,-0.897134 0.516292,-1.34236l1.190509,0l0,-0.000001zm3.583677,0c0.651743,0 1.111547,0.186473 1.378804,0.558811c0.263005,0.368694 0.394812,0.903208 0.394812,1.603543c0,0.700335 -0.131806,1.23485 -0.394812,1.603543c-0.267257,0.372338 -0.727061,0.558811 -1.378804,0.558811c-0.655995,0 -1.117621,-0.186473 -1.384878,-0.558811c-0.263613,-0.368694 -0.394812,-0.903208 -0.394812,-1.603543c0,-0.700335 0.131199,-1.23485 0.394812,-1.603543c0.267257,-0.372338 0.728883,-0.558811 1.384878,-0.558811zm0,0.819994c-0.210769,0 -0.360797,0.080785 -0.449478,0.242961c-0.089288,0.162177 -0.133629,0.427004 -0.133629,0.795698l0,0.601329c0,0.372338 0.04434,0.639595 0.133629,0.801772c0.088681,0.162177 0.238709,0.242961 0.449478,0.242961c0.210161,0 0.358368,-0.080785 0.443404,-0.242961c0.085036,-0.162177 0.127555,-0.429434 0.127555,-0.801772l0,-0.601329c0,-0.372338 -0.042518,-0.637773 -0.127555,-0.795698c-0.085036,-0.162177 -0.233243,-0.242961 -0.443404,-0.242961z"/>
      <path d="m55.788306,17.795709c0.332249,0 0.621373,0.050414 0.868586,0.151851c0.242961,0.101436 0.429434,0.236887 0.558811,0.40696c0.125732,0.174325 0.188295,0.366264 0.188295,0.577033c0,0.210769 -0.056488,0.399064 -0.170073,0.564885c-0.113584,0.170073 -0.259361,0.289731 -0.43733,0.358368l0,0.024296c0.230813,0.072888 0.411212,0.200443 0.540588,0.382664c0.125732,0.177969 0.188295,0.394812 0.188295,0.649921c-0.0164,0.356545 -0.170073,0.648099 -0.461626,0.87466c-0.295805,0.222917 -0.728883,0.334072 -1.299842,0.334072c-0.39299,0 -0.722809,-0.052844 -0.990067,-0.157925c-0.267257,-0.105081 -0.465878,-0.249035 -0.595255,-0.431256c-0.129377,-0.182221 -0.194369,-0.386916 -0.194369,-0.613477l0,-0.127555l1.069029,0c0,0.332249 0.210769,0.49807 0.631699,0.49807c0.42093,0 0.631699,-0.186473 0.631699,-0.558811c0,-0.141525 -0.038266,-0.250857 -0.115407,-0.327998c-0.080785,-0.072888 -0.184043,-0.109333 -0.309775,-0.109333l-0.443404,0l0,-0.747105l0.34622,0c0.125732,0 0.228991,-0.036444 0.309775,-0.109333c0.07714,-0.07714 0.115407,-0.186473 0.115407,-0.327998c0,-0.133629 -0.04677,-0.247213 -0.139703,-0.340146c-0.097184,-0.092933 -0.228991,-0.139703 -0.394812,-0.139703c-0.174325,0 -0.309775,0.04434 -0.40696,0.133629c-0.097184,0.089288 -0.145777,0.198621 -0.145777,0.327998l-1.014363,0l0,-0.151851c0,-0.210769 0.064992,-0.402708 0.194369,-0.577033c0.133629,-0.174325 0.327998,-0.311598 0.583107,-0.413034c0.250857,-0.101436 0.548485,-0.151851 0.892882,-0.151851l0.000001,0.000002zm4.021007,0c0.651743,0 1.111547,0.186473 1.378804,0.558811c0.263005,0.368694 0.394812,0.903208 0.394812,1.603543c0,0.700335 -0.131806,1.23485 -0.394812,1.603543c-0.267257,0.372338 -0.727061,0.558811 -1.378804,0.558811c-0.655995,0 -1.117621,-0.186473 -1.384878,-0.558811c-0.263613,-0.368694 -0.394812,-0.903208 -0.394812,-1.603543c0,-0.700335 0.131199,-1.23485 0.394812,-1.603543c0.267257,-0.372338 0.728883,-0.558811 1.384878,-0.558811zm0,0.819994c-0.210769,0 -0.360797,0.080785 -0.449478,0.242961c-0.089288,0.162177 -0.133629,0.427004 -0.133629,0.795698l0,0.601329c0,0.372338 0.04434,0.639595 0.133629,0.801772c0.088681,0.162177 0.238709,0.242961 0.449478,0.242961c0.210161,0 0.358368,-0.080785 0.443404,-0.242961c0.085036,-0.162177 0.127555,-0.429434 0.127555,-0.801772l0,-0.601329c0,-0.372338 -0.042518,-0.637773 -0.127555,-0.795698c-0.085036,-0.162177 -0.233243,-0.242961 -0.443404,-0.242961z"/>
      <path d="m65.625194,17.832153c0.327998,0 0.613477,0.050414 0.856438,0.151851c0.238709,0.105081 0.425182,0.253287 0.558811,0.443404c0.129377,0.190117 0.194369,0.411212 0.194369,0.662069c0,0.235065 -0.058918,0.447656 -0.176147,0.637773c-0.117229,0.190117 -0.265435,0.358368 -0.443404,0.504144c-0.177969,0.145777 -0.42336,0.323746 -0.734957,0.534514c-0.174325,0.113584 -0.315849,0.210769 -0.425182,0.291553l1.828282,0l0,1.026511l-3.462196,0l0,-0.291553c0,-0.214413 0.048592,-0.40696 0.145777,-0.577033c0.101436,-0.165821 0.247213,-0.334072 0.43733,-0.504144c0.194369,-0.170073 0.473774,-0.400886 0.838216,-0.692439c0.291553,-0.230813 0.496248,-0.40696 0.613477,-0.52844c0.117229,-0.121481 0.176147,-0.241139 0.176147,-0.358368c0,-0.125732 -0.042518,-0.230813 -0.127555,-0.315849c-0.089288,-0.085036 -0.220487,-0.127555 -0.394812,-0.127555c-0.182221,0 -0.326175,0.052844 -0.431256,0.157925c-0.105081,0.105081 -0.157925,0.242961 -0.157925,0.413034l0,0.121481l-1.081177,0c-0.004252,-0.032192 -0.006074,-0.07714 -0.006074,-0.133629c0,-0.43733 0.153673,-0.78355 0.461626,-1.038659c0.303701,-0.250857 0.747105,-0.37659 1.330212,-0.37659zm4.446189,0c-0.028548,0.210769 -0.125732,0.471952 -0.291553,0.78355c-0.166428,0.315849 -0.362619,0.629877 -0.589181,0.941474c-0.230813,0.315849 -0.445834,0.57521 -0.643847,0.777476l1.202658,0l0,-0.868586c0.125125,-0.177969 0.25268,-0.388738 0.382664,-0.631699c0.129377,-0.242961 0.214413,-0.443404 0.255109,-0.601329l0.516292,0l0,2.101614l0.583107,0l0,0.892882l-0.583107,0l0,0.856438l-1.154065,0l0,-0.856438l-2.034799,0l0,-0.90503c0.218665,-0.315849 0.4349,-0.698513 0.649921,-1.147991c0.214413,-0.449478 0.386308,-0.897134 0.516292,-1.34236l1.190509,0l0,-0.000001z"/>
      <path d="m76.114433,21.11213l0.953622,0l0,0.9354l-3.152421,0l0,-0.9354l0.990067,0l0,-1.889023l-0.990067,0l0,-0.704587c0.271509,-0.0164 0.57521,-0.089288 0.911104,-0.218665c0.335894,-0.125732 0.629877,-0.271509 0.880734,-0.43733l0.40696,0l0,3.249605l0.000001,0zm3.231383,-3.316419c0.303701,0 0.578855,0.048592 0.826068,0.145777c0.246606,0.097184 0.443404,0.236887 0.589181,0.419108c0.141525,0.186473 0.212591,0.408782 0.212591,0.668143c0,0.214413 -0.042518,0.384486 -0.127555,0.510218c-0.085036,0.125732 -0.212591,0.249035 -0.382664,0.370516l0,0.024296c0.222309,0.125732 0.39056,0.261183 0.504144,0.40696c0.109333,0.141525 0.163999,0.327998 0.163999,0.558811c0,0.39299 -0.160354,0.694261 -0.479848,0.90503c-0.320101,0.210769 -0.755609,0.315849 -1.305916,0.315849c-0.550914,0 -0.98217,-0.105081 -1.293768,-0.315849c-0.315849,-0.210769 -0.473774,-0.512041 -0.473774,-0.90503c0,-0.230813 0.054666,-0.417286 0.163999,-0.558811c0.109333,-0.145777 0.275153,-0.281227 0.49807,-0.40696l0,-0.024296c-0.170073,-0.121481 -0.297627,-0.244783 -0.382664,-0.370516c-0.085036,-0.125732 -0.127555,-0.295805 -0.127555,-0.510218c0,-0.259361 0.070459,-0.48167 0.212591,-0.668143c0.141525,-0.182221 0.335894,-0.321923 0.583107,-0.419108c0.242961,-0.097184 0.516292,-0.145777 0.819994,-0.145777zm0,0.819994c-0.174325,0 -0.309775,0.038266 -0.40696,0.115407c-0.101436,0.072888 -0.151851,0.188295 -0.151851,0.34622c0,0.153673 0.052237,0.267257 0.157925,0.340146c0.100829,0.07714 0.234457,0.115407 0.400886,0.115407c0.165821,0 0.303701,-0.038266 0.413034,-0.115407c0.109333,-0.072888 0.163999,-0.186473 0.163999,-0.340146c0,-0.157925 -0.052844,-0.273331 -0.157925,-0.34622c-0.105688,-0.07714 -0.245391,-0.115407 -0.419108,-0.115407zm0,1.68858c-0.157925,0 -0.289731,0.042518 -0.394812,0.127555c-0.109333,0.089288 -0.163999,0.212591 -0.163999,0.370516c0,0.157925 0.050414,0.279405 0.151851,0.364442c0.100829,0.089288 0.236887,0.133629 0.40696,0.133629c0.170073,0 0.307346,-0.04434 0.413034,-0.133629c0.109333,-0.085036 0.163999,-0.206517 0.163999,-0.364442c0,-0.157925 -0.054666,-0.281227 -0.163999,-0.370516c-0.113584,-0.085036 -0.251465,-0.127555 -0.413034,-0.127555z"/>
      <rect x="82.85" y="17" height="6" width="9.2"/>
      <path fill="white" d="m86.00538,21.148573l0.953622,0l0,0.9354l-3.152421,0l0,-0.9354l0.990067,0l0,-1.889023l-0.990067,0l0,-0.704587c0.271509,-0.0164 0.57521,-0.089288 0.911104,-0.218665c0.335894,-0.125732 0.629877,-0.271509 0.880734,-0.43733l0.40696,0l0,3.249605l0.000001,0zm3.316419,-3.316419c0.327998,0 0.613477,0.050414 0.856438,0.151851c0.238709,0.105081 0.425182,0.253287 0.558811,0.443404c0.129377,0.190117 0.194369,0.411212 0.194369,0.662069c0,0.235065 -0.058918,0.447656 -0.176147,0.637773c-0.117836,0.190117 -0.265435,0.358368 -0.443404,0.504144c-0.178576,0.145777 -0.42336,0.323746 -0.734957,0.534514c-0.174325,0.113584 -0.315849,0.210769 -0.425182,0.291553l1.828282,0l0,1.026511l-3.462196,0l0,-0.291553c0,-0.214413 0.048592,-0.40696 0.145777,-0.577033c0.100829,-0.165821 0.246606,-0.334072 0.43733,-0.504144c0.194369,-0.170073 0.473774,-0.400886 0.838216,-0.692439c0.291553,-0.230813 0.495641,-0.40696 0.613477,-0.52844c0.117229,-0.121481 0.176147,-0.241139 0.176147,-0.358368c0,-0.125732 -0.042518,-0.230813 -0.127555,-0.315849c-0.089288,-0.085036 -0.221095,-0.127555 -0.394812,-0.127555c-0.182221,0 -0.326175,0.052844 -0.431256,0.157925c-0.105688,0.105081 -0.157925,0.242961 -0.157925,0.413034l0,0.121481l-1.081177,0c-0.004252,-0.032192 -0.006074,-0.07714 -0.006074,-0.133629c0,-0.43733 0.153673,-0.78355 0.461626,-1.038659c0.303701,-0.250857 0.747105,-0.37659 1.330212,-0.37659z"/>
      <path d="m97.245369,17.79571c0.611655,0 1.067207,0.168251 1.366656,0.504144c0.295805,0.332249 0.443404,0.850364 0.443404,1.554951c0,0.79752 -0.145777,1.374553 -0.43733,1.731098c-0.295805,0.356545 -0.753179,0.534514 -1.37273,0.534514c-0.505967,0 -0.911104,-0.121481 -1.214806,-0.364442c-0.303701,-0.247213 -0.455552,-0.595255 -0.455552,-1.044733l1.081177,0l0,0.042518c0,0.157925 0.048592,0.287302 0.145777,0.388738c0.097184,0.105081 0.238709,0.157925 0.425182,0.157925c0.190117,0 0.338323,-0.064992 0.443404,-0.194369c0.109333,-0.133629 0.163999,-0.311598 0.163999,-0.534514l0,-0.352294c-0.117229,0.105081 -0.256931,0.184043 -0.419108,0.236887c-0.162177,0.052844 -0.315849,0.078962 -0.461626,0.078962c-0.279405,0 -0.532692,-0.048592 -0.759254,-0.145777c-0.222917,-0.101436 -0.399064,-0.249035 -0.52844,-0.443404c-0.129377,-0.190117 -0.194369,-0.42093 -0.194369,-0.692439c0,-0.461626 0.159747,-0.819994 0.479848,-1.075103c0.315849,-0.255109 0.747105,-0.382664 1.293768,-0.382664l0,0.000002zm-0.006074,0.819994c-0.190117,0 -0.338323,0.050414 -0.443404,0.151851c-0.101436,0.105081 -0.151851,0.253287 -0.151851,0.443404c0,0.190117 0.050414,0.335894 0.151851,0.43733c0.101436,0.105081 0.247213,0.157925 0.43733,0.157925c0.194369,0 0.344397,-0.050414 0.449478,-0.151851c0.101436,-0.097184 0.151851,-0.241139 0.151851,-0.431256c0,-0.190117 -0.050414,-0.338323 -0.151851,-0.443404c-0.105081,-0.109333 -0.253287,-0.163999 -0.443404,-0.163999z"/>
      <path d="m107.151502,17.79571c0.505967,0 0.911104,0.121481 1.214806,0.364442c0.303701,0.247213 0.455552,0.595255 0.455552,1.044733l-1.081177,0l0,-0.042518c0,-0.157925 -0.048592,-0.289731 -0.145777,-0.394812c-0.097184,-0.101436 -0.238709,-0.151851 -0.425182,-0.151851c-0.190117,0 -0.338323,0.064992 -0.443404,0.194369c-0.109333,0.133629 -0.163999,0.311598 -0.163999,0.534514l0,0.352294c0.117229,-0.105081 0.256931,-0.184043 0.419108,-0.236887c0.162177,-0.052844 0.315849,-0.078962 0.461626,-0.078962c0.279405,0 0.532692,0.048592 0.759254,0.145777c0.222917,0.101436 0.399064,0.247213 0.52844,0.43733c0.129377,0.194369 0.194369,0.427004 0.194369,0.698513c0,0.461626 -0.157925,0.819994 -0.473774,1.075103c-0.320101,0.255109 -0.753179,0.382664 -1.299842,0.382664c-0.611655,0 -1.064777,-0.165821 -1.360582,-0.49807c-0.29945,-0.335894 -0.449478,-0.856438 -0.449478,-1.561025c0,-0.79752 0.147599,-1.374553 0.443404,-1.731098c0.291553,-0.356545 0.747105,-0.534514 1.366656,-0.534514l0,-0.000002zm0.006074,2.314205c-0.190117,0 -0.335894,0.050414 -0.43733,0.151851c-0.105081,0.105081 -0.157925,0.253287 -0.157925,0.443404c0,0.190117 0.050414,0.335894 0.151851,0.43733c0.101436,0.105081 0.247213,0.157925 0.43733,0.157925c0.194369,0 0.344397,-0.050414 0.449478,-0.151851c0.101436,-0.097184 0.151851,-0.241139 0.151851,-0.431256c0,-0.190117 -0.050414,-0.340146 -0.151851,-0.449478c-0.105081,-0.105081 -0.253287,-0.157925 -0.443404,-0.157925z"/>
      <path d="m117.036982,17.795709c0.332249,0 0.621373,0.050414 0.868586,0.151851c0.242961,0.101436 0.429434,0.236887 0.558811,0.40696c0.125732,0.174325 0.188295,0.366264 0.188295,0.577033c0,0.210769 -0.056488,0.399064 -0.170073,0.564885c-0.113584,0.170073 -0.259361,0.289731 -0.43733,0.358368l0,0.024296c0.230813,0.072888 0.411212,0.200443 0.540588,0.382664c0.125732,0.177969 0.188295,0.394812 0.188295,0.649921c-0.0164,0.356545 -0.170073,0.648099 -0.461626,0.87466c-0.295805,0.222917 -0.728883,0.334072 -1.299842,0.334072c-0.39299,0 -0.722809,-0.052844 -0.990067,-0.157925c-0.267257,-0.105081 -0.465878,-0.249035 -0.595255,-0.431256c-0.129377,-0.182221 -0.194369,-0.386916 -0.194369,-0.613477l0,-0.127555l1.069029,0c0,0.332249 0.210769,0.49807 0.631699,0.49807c0.42093,0 0.631699,-0.186473 0.631699,-0.558811c0,-0.141525 -0.038266,-0.250857 -0.115407,-0.327998c-0.080785,-0.072888 -0.184043,-0.109333 -0.309775,-0.109333l-0.443404,0l0,-0.747105l0.34622,0c0.125732,0 0.228991,-0.036444 0.309775,-0.109333c0.07714,-0.07714 0.115407,-0.186473 0.115407,-0.327998c0,-0.133629 -0.04677,-0.247213 -0.139703,-0.340146c-0.097184,-0.092933 -0.228991,-0.139703 -0.394812,-0.139703c-0.174325,0 -0.309775,0.04434 -0.40696,0.133629c-0.097184,0.089288 -0.145777,0.198621 -0.145777,0.327998l-1.014363,0l0,-0.151851c0,-0.210769 0.064992,-0.402708 0.194369,-0.577033c0.133629,-0.174325 0.327998,-0.311598 0.583107,-0.413034c0.250857,-0.101436 0.548485,-0.151851 0.892882,-0.151851l0.000001,0.000002z"/>
      <path d="m126.8763,17.79571c0.651743,0 1.111547,0.186473 1.378804,0.558811c0.263005,0.368694 0.394812,0.903208 0.394812,1.603543c0,0.700335 -0.131806,1.23485 -0.394812,1.603543c-0.267257,0.372338 -0.727061,0.558811 -1.378804,0.558811c-0.655995,0 -1.117621,-0.186473 -1.384878,-0.558811c-0.263005,-0.368694 -0.394812,-0.903208 -0.394812,-1.603543c0,-0.700335 0.131806,-1.23485 0.394812,-1.603543c0.267257,-0.372338 0.728883,-0.558811 1.384878,-0.558811zm0,0.819994c-0.210769,0 -0.36019,0.080785 -0.449478,0.242961c-0.089288,0.162177 -0.133629,0.427004 -0.133629,0.795698l0,0.601329c0,0.372338 0.04434,0.639595 0.133629,0.801772c0.089288,0.162177 0.238709,0.242961 0.449478,0.242961c0.210769,0 0.358368,-0.080785 0.443404,-0.242961c0.085036,-0.162177 0.127555,-0.429434 0.127555,-0.801772l0,-0.601329c0,-0.372338 -0.042518,-0.637773 -0.127555,-0.795698c-0.085036,-0.162177 -0.232635,-0.242961 -0.443404,-0.242961z"/>
    </g>
  </g>

  <use xlink:href="#led" x="24"  y="9.28" fill="green" stroke-width="0.1" stroke="darkslategrey"/>
  <use xlink:href="#led" x="24"  y="25.21" fill="green" stroke-width="0.1" stroke="darkslategrey"/>
  <use xlink:href="#over" style="fill:lightgrey;fill-opacity:0.5"/>

</svg>
