<svg width="60" height="60" xmlns="http://www.w3.org/2000/svg">

  <defs>
    <filter id="drop_shadow" filterUnits="objectBoundingBox" x="-50%" y="-50%" width="200%" height="200%">
      <feDropShadow dx="0.5" dy="0.5" stdDeviation="2" flood-color="black" flood-opacity="0.8" />
    </filter>
    <filter id="blur_shadow" filterUnits="objectBoundingBox" x="-50%" y="-50%" width="200%" height="200%">
      <feGaussianBlur in="SourceGraphic" stdDeviation="3" />
    </filter>
  </defs>

<g fill="black" style="filter:url(#blur_shadow)">
<path d="m3.05265,41.02974c0,-0.59173 0.18935,-1.08878 0.59173,-1.49116c0.40238,-0.37871 0.87576,-0.56806 1.42015,-0.56806l12.82869,0c1.75152,0 3.24268,0.6154 4.47347,1.86986c1.2308,1.25447 1.8462,2.74562 1.8462,4.49714c0,1.75152 -0.6154,3.26635 -1.8462,4.49714c-1.2308,1.2308 -2.72195,1.8462 -4.47347,1.8462s-3.26635,-0.6154 -4.49714,-1.86986c-0.37871,-0.37871 -0.54439,-0.85209 -0.54439,-1.42015c0,-0.56806 0.18935,-1.06511 0.54439,-1.42015c0.35504,-0.37871 0.82842,-0.56806 1.42015,-0.56806c0.54439,0 1.01777,0.18935 1.44382,0.56806c0.47338,0.44971 1.01777,0.68641 1.63317,0.68641s1.15979,-0.23669 1.6095,-0.68641c0.44971,-0.44971 0.68641,-0.99411 0.68641,-1.65684c0,-0.6154 -0.23669,-1.15979 -0.68641,-1.6095s-0.99411,-0.68641 -1.6095,-0.68641l-12.82869,0c-0.54439,0 -1.01777,-0.18935 -1.42015,-0.59173s-0.59173,-0.82842 -0.59173,-1.39648zm0,-7.19543c0,-0.56806 0.18935,-1.06511 0.59173,-1.46749c0.40238,-0.37871 0.87576,-0.56806 1.42015,-0.56806l24.97098,0c0.6154,0 1.15979,-0.23669 1.6095,-0.68641c0.44971,-0.44971 0.68641,-1.01777 0.68641,-1.63317s-0.23669,-1.18346 -0.68641,-1.63317c-0.44971,-0.44971 -0.99411,-0.68641 -1.6095,-0.68641c-0.66274,0 -1.18346,0.21302 -1.6095,0.66274c-0.42605,0.35504 -0.9231,0.54439 -1.51483,0.54439c-0.56806,0 -1.04144,-0.18935 -1.42015,-0.54439c-0.35504,-0.35504 -0.54439,-0.82842 -0.54439,-1.42015c0,-0.59173 0.16568,-1.06511 0.54439,-1.44382c1.20713,-1.20713 2.72195,-1.79886 4.54448,-1.79886c1.75152,0 3.26635,0.6154 4.49714,1.8462c1.2308,1.2308 1.8462,2.72195 1.8462,4.4498s-0.6154,3.24268 -1.8462,4.47347c-1.2308,1.2308 -2.72195,1.8462 -4.49714,1.8462l-24.97098,0c-0.56806,0 -1.04144,-0.18935 -1.42015,-0.56806c-0.40238,-0.35504 -0.59173,-0.82842 -0.59173,-1.37281zm5.08887,-5.58592c0,0.18935 0.11835,0.28403 0.37871,0.28403l3.40836,0c0.18935,0 0.35504,-0.11835 0.52072,-0.35504c0.52072,-1.27814 1.37281,-2.34325 2.48526,-3.19534c1.13612,-0.85209 2.39059,-1.32547 3.7634,-1.42015l1.25447,-0.18935c0.3077,0 0.47338,-0.14202 0.47338,-0.40238l0.16568,-1.2308c0.26036,-2.55627 1.32547,-4.71017 3.24268,-6.43802s4.16577,-2.60361 6.76938,-2.60361c2.62728,0 4.89952,0.85209 6.81672,2.57994c1.9172,1.72785 3.00599,3.88174 3.29002,6.46168l0.16568,1.39648c0,0.26036 0.14202,0.40238 0.40238,0.40238l3.83441,0c2.15389,0 3.97642,0.75741 5.51492,2.27224c1.5385,1.51483 2.29591,3.31368 2.29591,5.44391c0,2.10656 -0.75741,3.92908 -2.29591,5.44391c-1.5385,1.51483 -3.36102,2.27224 -5.51492,2.27224l-16.3554,0c-0.28403,0 -0.44971,0.14202 -0.44971,0.40238l0,3.29002c0,0.26036 0.14202,0.40238 0.44971,0.40238l16.3554,0c2.15389,0 4.11844,-0.52072 5.94096,-1.58583c1.82253,-1.04144 3.24268,-2.48526 4.30779,-4.28412c1.06511,-1.82253 1.58583,-3.78707 1.58583,-5.91729c0,-2.15389 -0.52072,-4.11844 -1.58583,-5.91729c-1.06511,-1.79886 -2.48526,-3.24268 -4.30779,-4.28412c-1.82253,-1.04144 -3.78707,-1.58583 -5.94096,-1.58583l-0.73374,0c-0.73374,-3.148 -2.39059,-5.72794 -4.97053,-7.73982c-2.55627,-2.01188 -5.51492,-3.00599 -8.8286,-3.00599c-3.33735,0 -6.296,1.04144 -8.87594,3.12433s-4.21311,4.73383 -4.89952,7.97651c-2.03555,0.47338 -3.83441,1.44382 -5.39657,2.91131s-2.65095,3.21901 -3.26635,5.23089l0,0.09468c0,0.04734 0,0.09468 0,0.16568z"/>
</g>

  <path style="filter:url(#blur_shadow)" fill="paleturquoise" fill-opacity="0.2" d="m11.94117,31.07129c0,2.07583 0.77717,3.87853 2.27603,5.35347s3.35853,2.23972 5.52353,2.23972l25.75796,0c2.13725,0 3.99692,-0.73746 5.52353,-2.23972c1.52661,-1.50226 2.30378,-3.27763 2.30378,-5.35347c0,-2.07583 -0.74942,-3.87853 -2.30378,-5.35347c-1.52661,-1.47494 -3.35853,-2.23973 -5.52353,-2.23973l-3.85814,0c-0.27756,0 -0.41635,-0.13657 -0.41635,-0.4097l-0.1943,-1.33836c-0.27756,-2.56748 -1.38782,-4.72526 -3.30302,-6.41871s-4.19122,-2.54016 -6.80032,-2.54016c-2.60911,0 -4.88513,0.84672 -6.82808,2.56748c-1.94296,1.69345 -3.02545,3.85122 -3.27526,6.39139l-0.1943,1.14718c0,0.27313 -0.13878,0.40969 -0.44411,0.40969l-1.24904,0.1912c-1.99845,0.16388 -3.66384,0.98329 -5.0239,2.43092c-1.2768,1.44762 -1.9707,3.16839 -1.9707,5.16227l-0.00001,-0.00001z"/>

<g  style="filter:url(#drop_shadow)" stroke-width="2.5" stroke="midnightblue" stroke-opacity="0.4">
  <path fill="linen" d="m3.64438,39.53858zm4.49714,-11.29019c0,0.18935 0.11835,0.28403 0.37871,0.28403l3.40836,0c0.18935,0 0.35504,-0.11835 0.52072,-0.35504c0.52072,-1.27814 1.37281,-2.34325 2.48526,-3.19534c1.13612,-0.85209 2.39059,-1.32547 3.7634,-1.42015l1.25447,-0.18935c0.3077,0 0.47338,-0.14202 0.47338,-0.40238l0.16568,-1.2308c0.26036,-2.55627 1.32547,-4.71017 3.24268,-6.43802s4.16577,-2.60361 6.76938,-2.60361c2.62728,0 4.89952,0.85209 6.81672,2.57994c1.9172,1.72785 3.00599,3.88174 3.29002,6.46168l0.16568,1.39648c0,0.26036 0.14202,0.40238 0.40238,0.40238l3.83441,0c2.15389,0 3.97642,0.75741 5.51492,2.27224c1.5385,1.51483 2.29591,3.31368 2.29591,5.44391c0,2.10656 -0.75741,3.92908 -2.29591,5.44391c-1.5385,1.51483 -3.36102,2.27224 -5.51492,2.27224l-16.3554,0c-0.28403,0 -0.44971,0.14202 -0.44971,0.40238l0,3.29002c0,0.26036 0.14202,0.40238 0.44971,0.40238l16.3554,0c2.15389,0 4.11844,-0.52072 5.94096,-1.58583c1.82253,-1.04144 3.24268,-2.48526 4.30779,-4.28412c1.06511,-1.82253 1.58583,-3.78707 1.58583,-5.91729c0,-2.15389 -0.52072,-4.11844 -1.58583,-5.91729c-1.06511,-1.79886 -2.48526,-3.24268 -4.30779,-4.28412c-1.82253,-1.04144 -3.78707,-1.58583 -5.94096,-1.58583l-0.73374,0c-0.73374,-3.148 -2.39059,-5.72794 -4.97053,-7.73982c-2.55627,-2.01188 -5.51492,-3.00599 -8.8286,-3.00599c-3.33735,0 -6.296,1.04144 -8.87594,3.12433s-4.21311,4.73383 -4.89952,7.97651c-2.03555,0.47338 -3.83441,1.44382 -5.39657,2.91131s-2.65095,3.21901 -3.26635,5.23089l0,0.09468c0,0.04734 0,0.09468 0,0.16568l0,-0.00001z"/>
  <path stroke-width="1" fill="grey" d="m3.05265,41.02974c0,-0.59173 0.18935,-1.08878 0.59173,-1.49116c0.40238,-0.37871 0.87576,-0.56806 1.42015,-0.56806l12.82869,0c1.75152,0 3.24268,0.6154 4.47347,1.86986c1.2308,1.25447 1.8462,2.74562 1.8462,4.49714c0,1.75152 -0.6154,3.26635 -1.8462,4.49714c-1.2308,1.2308 -2.72195,1.8462 -4.47347,1.8462s-3.26635,-0.6154 -4.49714,-1.86986c-0.37871,-0.37871 -0.54439,-0.85209 -0.54439,-1.42015c0,-0.56806 0.18935,-1.06511 0.54439,-1.42015c0.35504,-0.37871 0.82842,-0.56806 1.42015,-0.56806c0.54439,0 1.01777,0.18935 1.44382,0.56806c0.47338,0.44971 1.01777,0.68641 1.63317,0.68641s1.15979,-0.23669 1.6095,-0.68641c0.44971,-0.44971 0.68641,-0.99411 0.68641,-1.65684c0,-0.6154 -0.23669,-1.15979 -0.68641,-1.6095s-0.99411,-0.68641 -1.6095,-0.68641l-12.82869,0c-0.54439,0 -1.01777,-0.18935 -1.42015,-0.59173s-0.59173,-0.82842 -0.59173,-1.39648zm0,-7.19543c0,-0.56806 0.18935,-1.06511 0.59173,-1.46749c0.40238,-0.37871 0.87576,-0.56806 1.42015,-0.56806l24.97098,0c0.6154,0 1.15979,-0.23669 1.6095,-0.68641c0.44971,-0.44971 0.68641,-1.01777 0.68641,-1.63317s-0.23669,-1.18346 -0.68641,-1.63317c-0.44971,-0.44971 -0.99411,-0.68641 -1.6095,-0.68641c-0.66274,0 -1.18346,0.21302 -1.6095,0.66274c-0.42605,0.35504 -0.9231,0.54439 -1.51483,0.54439c-0.56806,0 -1.04144,-0.18935 -1.42015,-0.54439c-0.35504,-0.35504 -0.54439,-0.82842 -0.54439,-1.42015c0,-0.59173 0.16568,-1.06511 0.54439,-1.44382c1.20713,-1.20713 2.72195,-1.79886 4.54448,-1.79886c1.75152,0 3.26635,0.6154 4.49714,1.8462c1.2308,1.2308 1.8462,2.72195 1.8462,4.4498s-0.6154,3.24268 -1.8462,4.47347c-1.2308,1.2308 -2.72195,1.8462 -4.49714,1.8462l-24.97098,0c-0.56806,0 -1.04144,-0.18935 -1.42015,-0.56806c-0.40238,-0.35504 -0.59173,-0.82842 -0.59173,-1.37281z"/>
</g>

</svg>
