<svg width="60" height="60" xmlns="http://www.w3.org/2000/svg">

  <defs>
    <filter id="drop_shadow" filterUnits="objectBoundingBox" x="-50%" y="-50%" width="200%" height="200%">
      <feDropShadow dx="0.5" dy="0.5" stdDeviation="2" flood-color="black" flood-opacity="0.8" />
    </filter>
    <filter id="blur_shadow" filterUnits="objectBoundingBox" x="-50%" y="-50%" width="200%" height="200%">
      <feGaussianBlur in="SourceGraphic" stdDeviation="3" />
    </filter>
    <filter id="shadow">
      <feDropShadow dx="0.3" dy="0.6" stdDeviation="0.6" flood-color="black"/>
    </filter>
  </defs>

<g fill="black" style="filter:url(#blur_shadow)">
  <path d="m1.35516,41.54044c0,-0.57795 0.19265,-1.08366 0.60204,-1.46897s0.91509,-0.57795 1.51713,-0.57795l21.60103,0c0.57795,0 1.0355,0.19265 1.4208,0.57795c0.3853,0.3853 0.55387,0.86693 0.55387,1.46897c0,0.57795 -0.19265,1.05958 -0.57795,1.44488c-0.3853,0.3853 -0.84285,0.57795 -1.4208,0.57795l-21.57695,0c-0.60204,0 -1.10775,-0.19265 -1.51713,-0.57795s-0.60204,-0.89101 -0.60204,-1.44488zm6.33341,-7.36891c0,-0.57795 0.21673,-1.05958 0.6502,-1.44488c0.33714,-0.36122 0.81877,-0.55387 1.4208,-0.55387l21.67327,0c0.55387,0 1.01142,0.19265 1.39672,0.55387s0.55387,0.84285 0.55387,1.4208c0,0.57795 -0.19265,1.05958 -0.55387,1.46897c-0.36122,0.40938 -0.84285,0.60204 -1.39672,0.60204l-21.67327,0c-0.55387,0 -1.0355,-0.21673 -1.44488,-0.62612s-0.62612,-0.86693 -0.62612,-1.4208zm1.49305,-5.61097c0,0.21673 0.14449,0.33714 0.40938,0.33714l3.44364,0c0.21673,0 0.40938,-0.12041 0.55387,-0.33714c0.55387,-1.3004 1.37264,-2.38406 2.50447,-3.25099s2.38406,-1.34856 3.80486,-1.44488l1.3004,-0.16857c0.2649,0 0.40938,-0.14449 0.40938,-0.43347l0.16857,-1.25223c0.2649,-2.62487 1.39672,-4.7922 3.34732,-6.55014c1.97468,-1.75794 4.26241,-2.62487 6.91137,-2.62487c2.62487,0 4.88853,0.86693 6.81504,2.57671c1.92651,1.73386 3.05834,3.90119 3.39548,6.50198l0.16857,1.4208c0,0.2649 0.14449,0.3853 0.43347,0.3853l3.85303,0c2.19141,0 4.04568,0.77061 5.58689,2.31182c1.54121,1.54121 2.31182,3.39548 2.31182,5.58689c0,2.11916 -0.79469,3.94935 -2.3359,5.49056c-1.56529,1.56529 -3.41956,2.3359 -5.56281,2.3359l-16.5921,0c-0.28898,0 -0.43347,0.14449 -0.43347,0.40938l0,3.22691c0,0.28898 0.14449,0.43347 0.43347,0.43347l16.5921,0c1.63754,0 3.17875,-0.31306 4.67179,-0.93918s2.74528,-1.46897 3.80486,-2.52855s1.90243,-2.3359 2.52855,-3.80486s0.93918,-3.01018 0.93918,-4.62363c0,-2.16733 -0.52979,-4.16608 -1.58937,-5.99627c-1.05958,-1.83019 -2.50447,-3.27507 -4.33465,-4.33465c-1.83019,-1.05958 -3.85303,-1.58937 -6.02035,-1.58937l-0.74652,0c-0.79469,-3.22691 -2.48039,-5.87587 -5.0571,-7.94687c-2.60079,-2.04692 -5.53873,-3.08242 -8.86196,-3.08242c-3.41956,0 -6.42974,1.05958 -9.05461,3.20283c-2.62487,2.11916 -4.28649,4.84036 -5.00893,8.1636c-2.071,0.45755 -3.90119,1.44488 -5.46648,2.91385s-2.64896,3.25099 -3.27507,5.34607l0,0.04816c-0.02408,0.09633 -0.04816,0.14449 -0.04816,0.21673zm2.76936,20.42104c0,-0.57795 0.21673,-1.05958 0.62612,-1.44488c0.36122,-0.3853 0.84285,-0.55387 1.4208,-0.55387l21.64919,0c0.57795,0 1.08366,0.19265 1.46897,0.57795c0.40938,0.3853 0.60204,0.86693 0.60204,1.44488c0,0.57795 -0.19265,1.05958 -0.60204,1.46897c-0.40938,0.40938 -0.89101,0.60204 -1.46897,0.60204l-21.64919,0c-0.55387,0 -1.0355,-0.19265 -1.44488,-0.60204c-0.40938,-0.43347 -0.60204,-0.91509 -0.60204,-1.49305z"/>
</g>

<path style="filter:url(#blur_shadow)" fill-opacity="0.2" fill="paleturquoise" d="m12.81616,31.83823c0,2.13955 0.78825,3.99758 2.30846,5.51779s3.4064,2.30846 5.60225,2.30846l26.12505,0c2.16771,0 4.05389,-0.7601 5.60225,-2.30846c1.54837,-1.54837 2.33662,-3.37823 2.33662,-5.51779c0,-2.13955 -0.7601,-3.99758 -2.33662,-5.51779c-1.54837,-1.52021 -3.4064,-2.30847 -5.60225,-2.30847l-3.91313,0c-0.28152,0 -0.42228,-0.14076 -0.42228,-0.42228l-0.19707,-1.37944c-0.28152,-2.64629 -1.4076,-4.8703 -3.35009,-6.61572s-4.25095,-2.61813 -6.89723,-2.61813c-2.64629,0 -4.95475,0.87271 -6.92539,2.64629c-1.97065,1.74542 -3.06857,3.96942 -3.32193,6.58757l-0.19707,1.1824c0,0.28151 -0.14076,0.42227 -0.45044,0.42227l-1.26684,0.19707c-2.02693,0.16891 -3.71606,1.01347 -5.0955,2.50553c-1.295,1.49205 -1.99879,3.26564 -1.99879,5.32072l-0.00001,-0.00001z"
/>

<g style="filter:url(#drop_shadow)" stroke-width="2.5" stroke="midnightblue" stroke-opacity="0.4">
<path fill="linen" d="m1.9572,40.07147zm7.22442,-11.51091c0,0.21673 0.14449,0.33714 0.40938,0.33714l3.44364,0c0.21673,0 0.40938,-0.12041 0.55387,-0.33714c0.55387,-1.3004 1.37264,-2.38406 2.50447,-3.25099s2.38406,-1.34856 3.80486,-1.44488l1.3004,-0.16857c0.2649,0 0.40938,-0.14449 0.40938,-0.43347l0.16857,-1.25223c0.2649,-2.62487 1.39672,-4.7922 3.34732,-6.55014c1.97468,-1.75794 4.26241,-2.62487 6.91137,-2.62487c2.62487,0 4.88853,0.86693 6.81504,2.57671c1.92651,1.73386 3.05834,3.90119 3.39548,6.50198l0.16857,1.4208c0,0.2649 0.14449,0.3853 0.43347,0.3853l3.85303,0c2.19141,0 4.04568,0.77061 5.58689,2.31182c1.54121,1.54121 2.31182,3.39548 2.31182,5.58689c0,2.11916 -0.79469,3.94935 -2.3359,5.49056c-1.56529,1.56529 -3.41956,2.3359 -5.56281,2.3359l-16.5921,0c-0.28898,0 -0.43347,0.14449 -0.43347,0.40938l0,3.22691c0,0.28898 0.14449,0.43347 0.43347,0.43347l16.5921,0c1.63754,0 3.17875,-0.31306 4.67179,-0.93918s2.74528,-1.46897 3.80486,-2.52855s1.90243,-2.3359 2.52855,-3.80486s0.93918,-3.01018 0.93918,-4.62363c0,-2.16733 -0.52979,-4.16608 -1.58937,-5.99627c-1.05958,-1.83019 -2.50447,-3.27507 -4.33465,-4.33465c-1.83019,-1.05958 -3.85303,-1.58937 -6.02035,-1.58937l-0.74652,0c-0.79469,-3.22691 -2.48039,-5.87587 -5.0571,-7.94687c-2.60079,-2.04692 -5.53873,-3.08242 -8.86196,-3.08242c-3.41956,0 -6.42974,1.05958 -9.05461,3.20283c-2.62487,2.11916 -4.28649,4.84036 -5.00893,8.1636c-2.071,0.45755 -3.90119,1.44488 -5.46648,2.91385s-2.64896,3.25099 -3.27507,5.34607l0,0.04816c-0.02408,0.09633 -0.04816,0.14449 -0.04816,0.21673l-0.00003,-0.00001z"/>
<path fill="lightgrey" stroke-width="1" d="m1.35516,41.54044c0,-0.57795 0.19265,-1.08366 0.60204,-1.46897s0.91509,-0.57795 1.51713,-0.57795l21.60103,0c0.57795,0 1.0355,0.19265 1.4208,0.57795c0.3853,0.3853 0.55387,0.86693 0.55387,1.46897c0,0.57795 -0.19265,1.05958 -0.57795,1.44488c-0.3853,0.3853 -0.84285,0.57795 -1.4208,0.57795l-21.57695,0c-0.60204,0 -1.10775,-0.19265 -1.51713,-0.57795s-0.60204,-0.89101 -0.60204,-1.44488zm6.33341,-7.36891c0,-0.57795 0.21673,-1.05958 0.6502,-1.44488c0.33714,-0.36122 0.81877,-0.55387 1.4208,-0.55387l21.67327,0c0.55387,0 1.01142,0.19265 1.39672,0.55387s0.55387,0.84285 0.55387,1.4208c0,0.57795 -0.19265,1.05958 -0.55387,1.46897c-0.36122,0.40938 -0.84285,0.60204 -1.39672,0.60204l-21.67327,0c-0.55387,0 -1.0355,-0.21673 -1.44488,-0.62612s-0.62612,-0.86693 -0.62612,-1.4208l0,-0.00001zm4.26241,14.81007c0,-0.57795 0.21673,-1.05958 0.62612,-1.44488c0.36122,-0.3853 0.84285,-0.55387 1.4208,-0.55387l21.64919,0c0.57795,0 1.08366,0.19265 1.46897,0.57795c0.40938,0.3853 0.60204,0.86693 0.60204,1.44488c0,0.57795 -0.19265,1.05958 -0.60204,1.46897c-0.40938,0.40938 -0.89101,0.60204 -1.46897,0.60204l-21.64919,0c-0.55387,0 -1.0355,-0.19265 -1.44488,-0.60204c-0.40938,-0.43347 -0.60204,-0.91509 -0.60204,-1.49305z"/>
</g>

</svg>

