<svg width="60" height="60" xmlns="http://www.w3.org/2000/svg">

  <defs>
    <filter id="drop_shadow" filterUnits="objectBoundingBox" x="-50%" y="-50%" width="200%" height="200%">
      <feDropShadow dx="0.5" dy="0.5" stdDeviation="2" flood-color="black" flood-opacity="0.8" />
    </filter>
    <filter id="blur_shadow" filterUnits="objectBoundingBox" x="-50%" y="-50%" width="200%" height="200%">
      <feGaussianBlur in="SourceGraphic" stdDeviation="3" />
    </filter>
    <filter id="shadow">
      <feDropShadow dx="0.3" dy="0.6" stdDeviation="0.6" flood-color="black"/>
    </filter>
  </defs>

<g fill="black" style="filter:url(#blur_shadow)">
  <path d="m8.19492,33.82183c0,2.66788 0.92273,4.97469 2.78824,6.88032s4.13221,2.94871 6.82014,3.06907c0.22065,0 0.34101,-0.12036 0.34101,-0.34101l0,-2.74812c0,-0.24071 -0.12036,-0.36107 -0.34101,-0.36107c-1.74515,-0.14041 -3.20948,-0.82243 -4.39298,-2.08616c-1.1835,-1.24367 -1.78527,-2.72806 -1.78527,-4.43309c0,-1.66492 0.56166,-3.08912 1.68498,-4.3328s2.52747,-1.94575 4.21244,-2.14634l1.06314,-0.14041c0.26077,0 0.40118,-0.12036 0.40118,-0.34101l0.14041,-1.04308c0.22065,-2.1664 1.12332,-3.99179 2.74812,-5.43606c1.6248,-1.46433 3.53043,-2.18646 5.71689,-2.18646c2.18646,0 4.09209,0.72213 5.71689,2.18646c1.6248,1.44427 2.56758,3.26966 2.78824,5.45612l0.16047,1.16344c0,0.24071 0.12036,0.36107 0.36107,0.36107l3.22954,0c1.80533,0 3.34989,0.6419 4.65375,1.90563c1.28379,1.26373 1.94575,2.78824 1.94575,4.57351c0,1.70504 -0.60178,3.18942 -1.78527,4.43309c-1.1835,1.24367 -2.66788,1.94575 -4.39298,2.08616c-0.26077,0 -0.40118,0.12036 -0.40118,0.36107l0,2.74812c0,0.22065 0.14041,0.34101 0.40118,0.34101c2.66788,-0.08024 4.93458,-1.10326 6.78003,-3.02895c1.84545,-1.92569 2.76818,-4.2325 2.76818,-6.92044c0,-1.74515 -0.4413,-3.36995 -1.30385,-4.8744c1.6248,-1.46433 2.68794,-3.20948 3.16936,-5.25552l0,-0.26077l0.38113,-1.58468l-1.5245,-0.42124c-1.6248,-0.48142 -2.88853,-1.40415 -3.7912,-2.708c-0.90267,-1.32391 -1.34397,-2.68794 -1.34397,-4.07203c0,-0.52154 0.06018,-1.04308 0.16047,-1.56462l0.40118,-1.60474l-1.70504,-0.50148l-0.30089,-0.08024c-0.94278,-0.18053 -1.76521,-0.28083 -2.50741,-0.28083c-0.76225,0 -1.5245,0.08024 -2.28675,0.26077c-0.78231,0.18053 -1.58468,0.4413 -2.40711,0.82243c-0.84249,0.38113 -1.64486,0.90267 -2.40711,1.60474c-0.76225,0.70207 -1.44427,1.5245 -2.00592,2.46729c-1.48438,-0.66196 -3.06907,-0.9829 -4.73398,-0.9829c-2.82835,0 -5.33576,0.88261 -7.52222,2.62776s-3.55049,3.99179 -4.15226,6.73991c-2.24664,0.52154 -4.11215,1.66492 -5.55641,3.45019c-1.46433,1.82539 -2.18646,3.89149 -2.18646,6.19831zm10.83199,13.58011c0,0.30089 0.1003,0.60178 0.30089,0.90267c0.20059,0.30089 0.50148,0.52154 0.90267,0.66196c0.4413,0.14041 0.86255,0.12036 1.28379,-0.1003s0.68201,-0.56166 0.82243,-1.02302l0.56166,-2.12628c0.14041,-0.42124 0.1003,-0.82243 -0.14041,-1.24367c-0.24071,-0.42124 -0.58172,-0.68201 -1.02302,-0.82243c-0.46136,-0.12036 -0.90267,-0.06018 -1.30385,0.16047s-0.68201,0.60178 -0.84249,1.06314l-0.46136,1.98587c-0.06018,0.32095 -0.1003,0.50148 -0.1003,0.5416zm2.6077,-9.48802c0,0.22065 0.06018,0.46136 0.20059,0.72213c0.14041,0.34101 0.50148,0.60178 1.06314,0.76225c0.48142,0.12036 0.92273,0.08024 1.32391,-0.12036c0.38113,-0.20059 0.66196,-0.56166 0.80237,-1.04308l0.56166,-2.0661c0.14041,-0.46136 0.1003,-0.90267 -0.14041,-1.28379c-0.24071,-0.40118 -0.58172,-0.66196 -1.02302,-0.78231c-0.48142,-0.12036 -0.94278,-0.08024 -1.34397,0.14041c-0.40118,0.22065 -0.66196,0.56166 -0.80237,1.04308l-0.5416,2.02598c-0.06018,0.26077 -0.1003,0.46136 -0.1003,0.60178zm2.50741,15.74651c0,0.34101 0.1003,0.66196 0.30089,0.9829c0.20059,0.32095 0.50148,0.5416 0.90267,0.66196c0.22065,0.06018 0.36107,0.1003 0.46136,0.1003c0.18053,0 0.42124,-0.06018 0.76225,-0.20059c0.40118,-0.16047 0.68201,-0.5416 0.86255,-1.10326l0.60178,-2.10622c0.14041,-0.42124 0.1003,-0.84249 -0.14041,-1.26373c-0.24071,-0.42124 -0.58172,-0.68201 -1.02302,-0.82243c-0.48142,-0.12036 -0.94278,-0.08024 -1.34397,0.16047c-0.40118,0.24071 -0.68201,0.58172 -0.82243,1.06314l-0.50148,2.02598c-0.04012,0.16047 -0.06018,0.34101 -0.06018,0.50148zm2.66788,-9.56826c0,0.30089 0.1003,0.60178 0.30089,0.90267s0.50148,0.52154 0.92273,0.66196c0.4413,0.14041 0.88261,0.1003 1.28379,-0.12036c0.40118,-0.22065 0.66196,-0.56166 0.80237,-1.04308l0.5416,-2.08616c0.14041,-0.42124 0.1003,-0.84249 -0.12036,-1.24367c-0.22065,-0.40118 -0.5416,-0.68201 -0.9829,-0.82243c-0.48142,-0.12036 -0.94278,-0.06018 -1.36403,0.16047s-0.70207,0.60178 -0.84249,1.06314l-0.48142,2.00592l-0.06018,0.52154zm5.63665,3.53043c0,0.76225 0.42124,1.24367 1.28379,1.50444c0.18053,0.04012 0.34101,0.06018 0.48142,0.06018c0.30089,0 0.5416,-0.04012 0.74219,-0.14041c0.42124,-0.16047 0.72213,-0.5416 0.88261,-1.14338l0.5416,-2.04604c0.12036,-0.50148 0.08024,-0.94278 -0.16047,-1.34397s-0.58172,-0.6419 -1.06314,-0.74219c-0.46136,-0.14041 -0.90267,-0.1003 -1.28379,0.14041s-0.66196,0.58172 -0.80237,1.02302l-0.5416,2.08616c0,0.04012 -0.02006,0.14041 -0.04012,0.30089c-0.04012,0.14041 -0.04012,0.24071 -0.04012,0.30089zm2.78824,-9.6485c0,0.32095 0.1003,0.62184 0.30089,0.92273c0.20059,0.30089 0.52154,0.52154 0.92273,0.6419c0.28083,0.06018 0.4413,0.1003 0.46136,0.1003c0.18053,0 0.42124,-0.06018 0.76225,-0.20059c0.42124,-0.16047 0.70207,-0.5416 0.88261,-1.10326l0.56166,-2.08616c0.12036,-0.4413 0.06018,-0.86255 -0.16047,-1.26373s-0.60178,-0.66196 -1.06314,-0.80237c-0.4413,-0.14041 -0.86255,-0.1003 -1.26373,0.14041s-0.66196,0.58172 -0.80237,1.04308l-0.52154,2.12628c-0.06018,0.18053 -0.08024,0.36107 -0.08024,0.48142zm0.06018,-20.40026c0.6419,-1.12332 1.5245,-2.00592 2.66788,-2.62776c1.14338,-0.62184 2.34693,-0.94278 3.63072,-0.94278l0.42124,0c-0.02006,0.18053 -0.02006,0.42124 -0.02006,0.76225c0,1.90563 0.52154,3.71096 1.56462,5.43606c1.04308,1.7251 2.50741,3.02895 4.35286,3.93161c-0.4413,0.86255 -0.96284,1.60474 -1.56462,2.20652c-1.86551,-1.6248 -4.05197,-2.42717 -6.51926,-2.42717l-0.6419,0c-0.50148,-2.38705 -1.78527,-4.49327 -3.89149,-6.33872z"/>
</g>

<g stroke-width="2.5" stroke-opacity="0.4" stroke="midnightblue">

  <path id="moonfillback" stroke-width="0.1" fill="paleturquoise"  fill-opacity="0.2" style="filter:url(#blur_shadow)" d="m39.9567,27.27653zm-4.53863,-9.71987c0.62256,-1.1447 1.50618,-2.02832 2.61072,-2.6308c1.10453,-0.60247 2.2894,-0.90371 3.53451,-0.88363c0.22091,0 0.40165,0.02008 0.50206,0.04016l0,0.62256c0,1.96808 0.52214,3.79558 1.56643,5.52267c1.04429,1.72709 2.5103,3.03245 4.35789,3.91607c-0.38157,0.88363 -0.88363,1.58651 -1.50618,2.14882c-1.76725,-1.58651 -3.93616,-2.36973 -6.52679,-2.36973l-0.64264,0c-0.52214,-2.5103 -1.80742,-4.63904 -3.89599,-6.36613l-0.00001,0.00001z"/>

  <path stroke-width="0" filter="url(#blur_shadow)" fill="paleturquoise" fill-opacity="0.3" d="m11.43267,33.85888c0,1.81002 0.66685,3.38188 1.95292,4.66796s2.88175,1.95292 4.73941,1.95292l22.10135,0c1.83385,0 3.42952,-0.64303 4.73941,-1.95292c1.30989,-1.30989 1.97674,-2.85793 1.97674,-4.66796c0,-1.81002 -0.64303,-3.38188 -1.97674,-4.66796c-1.30989,-1.28607 -2.88175,-1.95292 -4.73941,-1.95292l-3.31044,0c-0.23816,0 -0.35724,-0.11908 -0.35724,-0.35724l-0.16671,-1.16699c-0.23816,-2.23872 -1.19081,-4.1202 -2.83411,-5.59679s-3.59624,-2.2149 -5.83495,-2.2149c-2.23872,0 -4.19163,0.7383 -5.85877,2.23872c-1.66713,1.4766 -2.59596,3.35807 -2.8103,5.57298l-0.16671,1.00028c0,0.23816 -0.11908,0.35724 -0.38106,0.35724l-1.07172,0.16671c-1.71476,0.14289 -3.14373,0.85738 -4.31071,2.11963c-1.09554,1.26226 -1.69095,2.76268 -1.69095,4.50125l-0.00001,-0.00001l-0.00001,0z"/>
  <path id="cloudmoon" fill="linen" d="m8.26664,33.78325c0,2.67096 0.92379,4.98044 2.79146,6.88827s4.13698,2.95212 6.82802,3.07261c0.24099,0 0.36148,-0.12049 0.36148,-0.3414l0,-2.69105c0,-0.22091 -0.12049,-0.3414 -0.36148,-0.3414c-1.72709,-0.08033 -3.17302,-0.76313 -4.37797,-2.04841s-1.80742,-2.79146 -1.80742,-4.53863c0,-1.66684 0.56231,-3.11278 1.68692,-4.35789c1.12462,-1.22503 2.53039,-1.948 4.21731,-2.14882l1.06437,-0.06025c0.26107,0 0.40165,-0.12049 0.40165,-0.36148l0.14058,-1.08445c0.22091,-2.1689 1.12462,-3.9964 2.75129,-5.46242c1.62668,-1.46602 3.53451,-2.20907 5.72349,-2.20907c2.1689,0 4.07673,0.74305 5.72349,2.20907c1.64676,1.46602 2.57055,3.29352 2.81154,5.46242l0.16066,1.16478c0,0.22091 0.12049,0.3414 0.3414,0.3414l3.23327,0c1.78734,0 3.33368,0.64264 4.63904,1.92791c1.30536,1.28528 1.96808,2.81154 1.96808,4.55871c0,1.74717 -0.60247,3.25335 -1.80742,4.53863c-1.20495,1.28528 -2.67096,1.96808 -4.37797,2.04841c-0.26107,0 -0.40165,0.12049 -0.40165,0.3414l0,2.69105c0,0.22091 0.14058,0.3414 0.40165,0.3414c2.67096,-0.08033 4.94028,-1.10453 6.78786,-3.03245c1.86767,-1.92791 2.79146,-4.23739 2.79146,-6.92844c0,-1.72709 -0.44181,-3.33368 -1.30536,-4.83986c1.58651,-1.4861 2.61072,-3.25335 3.11278,-5.2616l0.26107,-1.3656c0.04016,-0.02008 0.06025,-0.06025 0.06025,-0.14058c0,-0.14058 -0.10041,-0.26107 -0.32132,-0.32132l-1.12462,-0.3414c-1.1447,-0.3414 -2.10865,-0.90371 -2.93203,-1.70701c-0.8033,-0.8033 -1.38569,-1.62668 -1.72709,-2.5103c-0.3414,-0.86354 -0.50206,-1.74717 -0.50206,-2.65088c-0.02008,-0.48198 0.04016,-1.0242 0.16066,-1.58651l0.28115,-1.16478c0.06025,-0.18074 -0.04016,-0.32132 -0.28115,-0.44181l-1.60659,-0.50206c-0.84346,-0.24099 -1.72709,-0.38157 -2.6308,-0.38157c-0.70288,0 -1.42585,0.08033 -2.1689,0.26107s-1.52626,0.44181 -2.34964,0.8033c-0.82338,0.36148 -1.60659,0.90371 -2.38981,1.60659c-0.76313,0.70288 -1.44593,1.50618 -2.00824,2.45006c-1.50618,-0.64264 -3.09269,-0.98404 -4.75953,-0.98404c-2.83162,0 -5.36201,0.88363 -7.55099,2.6308s-3.59475,3.9964 -4.21731,6.7477c-2.22915,0.52214 -4.05665,1.66684 -5.50258,3.47426s-2.18898,3.93616 -2.18898,6.24563l-0.00002,0.00001zm27.15143,-16.22659c0.62256,-1.1447 1.50618,-2.02832 2.61072,-2.6308c1.10453,-0.60247 2.2894,-0.90371 3.53451,-0.88363c0.22091,0 0.40165,0.02008 0.50206,0.04016l0,0.62256c0,1.96808 0.52214,3.79558 1.56643,5.52267c1.04429,1.72709 2.5103,3.03245 4.35789,3.91607c-0.38157,0.88363 -0.88363,1.58651 -1.50618,2.14882c-1.76725,-1.58651 -3.93616,-2.36973 -6.52679,-2.36973l-0.64264,0c-0.52214,-2.5103 -1.80742,-4.63904 -3.89599,-6.36613l-0.00001,0.00001z"/>

<path stroke-width="1" id="shower" fill="cornflowerblue" d="m19.01871,47.9884c0,0.34012 0.10003,0.68023 0.32011,1.02035c0.22008,0.34012 0.54019,0.56019 0.94032,0.70024c0.46016,0.14005 0.8803,0.12004 1.28044,-0.08003s0.64022,-0.56019 0.78027,-1.12038l0.2801,-1.22042c0.10003,-0.46016 0.04001,-0.8803 -0.18006,-1.26043c-0.22008,-0.40014 -0.56019,-0.66023 -1.04036,-0.80027c-0.46016,-0.14005 -0.8803,-0.08003 -1.28044,0.16005s-0.68023,0.60021 -0.80027,1.06036l-0.26009,1.1604c-0.04001,0.08003 -0.04001,0.20007 -0.04001,0.38013l-0.00001,0zm2.74094,-10.34355c-0.02001,0.32011 0.06002,0.62021 0.2801,0.90031c0.20007,0.3001 0.52018,0.50017 0.96033,0.64022c0.42014,0.12004 0.82028,0.08003 1.24043,-0.14005c0.42014,-0.22008 0.68023,-0.56019 0.82028,-1.02035l0.56019,-1.80062c0.14005,-0.48016 0.10003,-0.92032 -0.14005,-1.30045c-0.24008,-0.38013 -0.60021,-0.64022 -1.08037,-0.78027c-0.44015,-0.14005 -0.86029,-0.10003 -1.26043,0.14005c-0.40014,0.22008 -0.68023,0.56019 -0.82028,1.00034l-0.48016,1.84063c0,0.04001 -0.02001,0.12004 -0.04001,0.24008c-0.04001,0.10003 -0.04001,0.20007 -0.04001,0.2801l-0.00002,0.00001zm2.3208,16.58569c0,0.36012 0.10003,0.68023 0.3001,1.00034c0.20007,0.32011 0.52018,0.54019 0.96033,0.66023c0.16005,0.04001 0.34012,0.06002 0.50017,0.06002c0.86029,0 1.38047,-0.40014 1.58054,-1.22042l0.2801,-1.1804c0.12004,-0.52018 0.06002,-0.96033 -0.16005,-1.36047s-0.5802,-0.64022 -1.04036,-0.74025c-0.42014,-0.14005 -0.84029,-0.10003 -1.26043,0.14005c-0.42014,0.24008 -0.68023,0.5802 -0.82028,1.02035l-0.2801,1.1804c-0.04001,0.18006 -0.06002,0.32011 -0.06002,0.44015zm2.82096,-10.34355c-0.02001,0.3001 0.06002,0.62021 0.26009,0.94032s0.50017,0.52018 0.90031,0.60021c0.46016,0.12004 0.8803,0.08003 1.28044,-0.12004c0.38013,-0.20007 0.66023,-0.5802 0.82028,-1.12038l0.54019,-1.80062c0.14005,-0.44015 0.10003,-0.86029 -0.14005,-1.26043c-0.24008,-0.40014 -0.5802,-0.66023 -1.06036,-0.80027c-0.44015,-0.14005 -0.86029,-0.08003 -1.28044,0.16005s-0.68023,0.60021 -0.82028,1.06036l-0.44015,1.80062c-0.04001,0.16005 -0.06002,0.34012 -0.06002,0.54019l-0.00001,-0.00001zm5.50189,4.30147c0,0.32011 0.10003,0.64022 0.3001,0.96033s0.52018,0.54019 0.92032,0.66023c0.06002,0 0.16005,0.02001 0.2801,0.04001c0.12004,0.02001 0.20007,0.04001 0.2801,0.04001c0.82028,0 1.32045,-0.44015 1.52052,-1.32045l0.2801,-1.20041c0.14005,-0.42014 0.10003,-0.84029 -0.14005,-1.26043c-0.22008,-0.42014 -0.56019,-0.68023 -1.02035,-0.82028c-0.50017,-0.12004 -0.96033,-0.08003 -1.36047,0.16005s-0.68023,0.5802 -0.82028,1.06036l-0.18006,1.1804c0,0.04001 -0.02001,0.14005 -0.04001,0.24008c0,0.10003 -0.02001,0.18006 -0.02001,0.26009l-0.00001,0.00001zm2.70093,-10.54361c0,0.34012 0.10003,0.66023 0.32011,0.96033s0.54019,0.52018 0.98034,0.64022c0.04001,0 0.12004,0.02001 0.24008,0.04001c0.12004,0.02001 0.22008,0.04001 0.2801,0.04001c0.20007,0 0.44015,-0.06002 0.72025,-0.18006c0.42014,-0.22008 0.70024,-0.5802 0.82028,-1.04036l0.48016,-1.80062c0.12004,-0.46016 0.08003,-0.8803 -0.16005,-1.26043c-0.22008,-0.40014 -0.56019,-0.66023 -1.02035,-0.80027c-0.46016,-0.14005 -0.8803,-0.10003 -1.28044,0.12004s-0.64022,0.54019 -0.78027,1.02035l-0.56019,1.82062c0,0.04001 -0.02001,0.12004 -0.04001,0.24008c0.02001,0.06002 0,0.14005 0,0.20007l-0.00001,0.00001z"/>

</g>

  <path id="moonfill" stroke-width="0" fill="paleturquoise"  fill-opacity="0.5" d="m39.9567,27.27653zm-4.53863,-9.71987c0.62256,-1.1447 1.50618,-2.02832 2.61072,-2.6308c1.10453,-0.60247 2.2894,-0.90371 3.53451,-0.88363c0.22091,0 0.40165,0.02008 0.50206,0.04016l0,0.62256c0,1.96808 0.52214,3.79558 1.56643,5.52267c1.04429,1.72709 2.5103,3.03245 4.35789,3.91607c-0.38157,0.88363 -0.88363,1.58651 -1.50618,2.14882c-1.76725,-1.58651 -3.93616,-2.36973 -6.52679,-2.36973l-0.64264,0c-0.52214,-2.5103 -1.80742,-4.63904 -3.89599,-6.36613l-0.00001,0.00001z"/>


</svg>


