<svg width="60" height="60" xmlns="http://www.w3.org/2000/svg">
  <defs>
    <filter id="drop_shadow" filterUnits="objectBoundingBox" x="-50%" y="-50%" width="200%" height="200%">
      <feDropShadow dx="0.5" dy="0.5" stdDeviation="2" flood-color="black" flood-opacity="0.8" />
    </filter>
    <filter id="blur_shadow" filterUnits="objectBoundingBox" x="-50%" y="-50%" width="200%" height="200%">
      <feGaussianBlur in="SourceGraphic" stdDeviation="3" />
    </filter>
  </defs>

<g fill="black" style="filter:url(#blur_shadow)">
    <path d="m5.840635,31.524841c0,2.553389 0.759116,4.830735 2.277347,6.83204c1.518231,2.001305 3.496532,3.381515 5.934904,4.117627l-1.495228,3.910596c-0.092014,0.322049 0,0.483074 0.322049,0.483074l4.876743,0l-2.967452,9.615464l0.644098,0l9.730481,-12.927968c0.092014,-0.092014 0.092014,-0.207031 0.046007,-0.322049c-0.069011,-0.115017 -0.161025,-0.161025 -0.322049,-0.161025l-5.014763,0l5.681865,-10.673625c0.161025,-0.322049 0.069011,-0.506077 -0.299045,-0.506077l-6.809037,0c-0.207031,0 -0.368056,0.115017 -0.506077,0.345053l-2.461375,6.625009c-1.633249,-0.414063 -2.990455,-1.3112 -4.094624,-2.69141s-1.633249,-2.921444 -1.633249,-4.623704c0,-1.909291 0.644098,-3.565543 1.955297,-4.99176c1.3112,-1.403214 2.921444,-2.231339 4.830735,-2.461375l1.219186,-0.161025c0.299045,0 0.46007,-0.138021 0.46007,-0.414063l0.161025,-1.173178c0.253039,-2.484378 1.288196,-4.577697 3.15148,-6.256952c1.863283,-1.679255 4.048616,-2.530385 6.555998,-2.530385c2.507382,0 4.692715,0.85113 6.579001,2.530385c1.886288,1.679255 2.944449,3.772574 3.22049,6.233949l0.161025,1.3112c0,0.276042 0.138021,0.437067 0.391059,0.437067l3.726568,0c2.093319,0 3.864588,0.736112 5.359816,2.185333s2.231339,3.22049 2.231339,5.244798c0,1.955297 -0.690105,3.657557 -2.070316,5.083774c-1.38021,1.426217 -3.059466,2.231339 -5.060771,2.369361c-0.276042,0 -0.437067,0.138021 -0.437067,0.437067l0,3.128476c0,0.276042 0.138021,0.414063 0.437067,0.414063c3.059466,-0.092014 5.658862,-1.265192 7.798187,-3.473529c2.139325,-2.231339 3.197486,-4.876743 3.197486,-7.936208c0,-2.001305 -0.506077,-3.864588 -1.518231,-5.635858c1.748266,-1.702259 2.921444,-3.703563 3.473529,-6.026918l0.437067,-1.564238c0.023003,-0.023003 0.023003,-0.069011 0.023003,-0.161025c0,-0.184028 -0.115017,-0.299045 -0.345053,-0.368056l-1.426217,-0.391059c-1.3112,-0.391059 -2.438371,-1.035158 -3.358511,-1.932294c-0.920141,-0.897136 -1.564238,-1.84028 -1.955297,-2.806427s-0.575088,-1.932294 -0.552084,-2.898441c0,-0.644098 0.069011,-1.288196 0.230035,-1.955297l0.253039,-1.403214c0.046007,-0.230035 -0.046007,-0.414063 -0.322049,-0.52908l-1.84028,-0.552084c-1.081164,-0.207031 -2.024308,-0.322049 -2.852435,-0.322049c-0.85113,-0.023003 -1.725263,0.069011 -2.599396,0.276042c-0.874133,0.184028 -1.794273,0.506077 -2.737416,0.920141c-0.943144,0.414063 -1.84028,1.035158 -2.714413,1.817277c-0.874133,0.782119 -1.633249,1.702259 -2.277347,2.760421c-1.909291,-0.713108 -3.726568,-1.058161 -5.428826,-1.058161c-3.243494,0 -6.141935,1.012155 -8.649317,3.036463s-4.14063,4.600701 -4.853738,7.729176c-2.553389,0.598091 -4.646707,1.932294 -6.302959,4.00261c-1.633249,2.047311 -2.461375,4.416672 -2.461375,7.062075l0.000001,-0.000004l0,-0.000003zm18.126759,23.486575c0,0.391059 0.115017,0.759116 0.368056,1.127172c0.253039,0.368056 0.621094,0.621094 1.127172,0.759116c0.207031,0.046007 0.391059,0.069011 0.552084,0.069011c0.98915,0 1.610245,-0.46007 1.84028,-1.403214l0.299045,-1.357206c0.138021,-0.598091 0.069011,-1.104168 -0.184028,-1.564238c-0.276042,-0.46007 -0.667102,-0.736112 -1.219186,-0.85113c-0.483074,-0.161025 -0.966147,-0.115017 -1.449221,0.161025c-0.483074,0.276042 -0.782119,0.667102 -0.943144,1.173178l-0.299045,1.357206c-0.069011,0.276042 -0.092014,0.46007 -0.092014,0.52908l0.000001,0zm1.817277,-6.671015c0,0.52908 0.184028,0.966147 0.552084,1.334203c0.368056,0.368056 0.828126,0.552084 1.334203,0.552084c0.552084,0 0.98915,-0.184028 1.357206,-0.52908c0.368056,-0.368056 0.52908,-0.805122 0.52908,-1.357206c0,-0.52908 -0.184028,-0.966147 -0.52908,-1.334203c-0.368056,-0.368056 -0.805122,-0.52908 -1.357206,-0.52908s-0.98915,0.184028 -1.357206,0.52908c-0.345053,0.345053 -0.52908,0.805122 -0.52908,1.334203l-0.000001,-0.000001zm1.426217,-5.221795c-0.023003,0.345053 0.069011,0.713108 0.322049,1.081164c0.230035,0.368056 0.575088,0.598091 1.035158,0.690105c0.52908,0.138021 1.012155,0.092014 1.472224,-0.138021s0.759116,-0.667102 0.943144,-1.288196l0.598091,-2.070316c0.161025,-0.506077 0.115017,-0.98915 -0.161025,-1.449221c-0.276042,-0.46007 -0.667102,-0.759116 -1.219186,-0.920141c-0.506077,-0.161025 -0.98915,-0.092014 -1.472224,0.184028s-0.782119,0.690105 -0.943144,1.219186l-0.52908,2.070316c-0.023003,0.184028 -0.046007,0.391059 -0.046007,0.621094l0,0.000002zm6.348966,4.945752c0,0.391059 0.115017,0.759116 0.345053,1.104168c0.230035,0.345053 0.575088,0.598091 1.058161,0.736112c0.069011,0 0.184028,0.023003 0.322049,0.046007c0.138021,0.023003 0.253039,0.046007 0.322049,0.046007c0.943144,0 1.518231,-0.506077 1.748266,-1.518231l0.322049,-1.38021c0.161025,-0.483074 0.115017,-0.966147 -0.161025,-1.449221c-0.276042,-0.483074 -0.667102,-0.782119 -1.173178,-0.943144c-0.575088,-0.138021 -1.104168,-0.092014 -1.564238,0.184028s-0.782119,0.667102 -0.943144,1.219186l-0.207031,1.357206c0,0.023003 0,0.115017 -0.023003,0.253039c-0.023003,0.161025 -0.046007,0.253039 -0.046007,0.345053l-0.000001,0zm1.702259,-6.809037c0,0.52908 0.184028,0.966147 0.552084,1.3112c0.345053,0.368056 0.782119,0.552084 1.334203,0.552084c0.552084,0 0.98915,-0.184028 1.357206,-0.52908c0.368056,-0.368056 0.52908,-0.805122 0.52908,-1.334203c0,-0.552084 -0.184028,-0.98915 -0.52908,-1.357206c-0.368056,-0.368056 -0.805122,-0.52908 -1.357206,-0.52908c-0.552084,0 -0.98915,0.184028 -1.357206,0.52908s-0.52908,0.805122 -0.52908,1.357206l-0.000001,-0.000001zm1.633249,-28.409324c0.759116,-1.288196 1.794273,-2.277347 3.082469,-2.967452s2.645402,-1.035158 4.048616,-1.035158l0.506077,0l0,0.736112c0,1.472224 0.253039,2.898441 0.782119,4.278651c0.52908,1.38021 1.288196,2.645402 2.346357,3.818582c1.035158,1.173178 2.277347,2.093319 3.703563,2.783424c-0.391059,0.874133 -0.966147,1.656252 -1.748266,2.369361c-2.093319,-1.794273 -4.554693,-2.69141 -7.407128,-2.69141l-0.759116,0c-0.667102,-2.898441 -2.185333,-5.336812 -4.554693,-7.29211l0.000001,0l0.000001,0z"/>
    <path d="m14.052886,42.474508l-1.495228,3.910596c-0.092014,0.322049 0,0.483074 0.322049,0.483074l4.876743,0l-2.967452,9.615464l0.644098,0l9.730481,-12.927968c0.092014,-0.092014 0.092014,-0.207031 0.046007,-0.322049c-0.069011,-0.115017 -0.161025,-0.161025 -0.322049,-0.161025l-5.014763,0l5.681865,-10.673625c0.161025,-0.322049 0.069011,-0.506077 -0.299045,-0.506077l-6.809037,0c-0.207031,0 -0.368056,0.115017 -0.506077,0.345053l-2.461375,6.625009l-1.426217,3.611548z"/>
    <path d="m17.75645,46.868178zm6.210944,8.143238c0,0.391059 0.115017,0.759116 0.368056,1.127172c0.253039,0.368056 0.621094,0.621094 1.127172,0.759116c0.207031,0.046007 0.391059,0.069011 0.552084,0.069011c0.98915,0 1.610245,-0.46007 1.84028,-1.403214l0.299045,-1.357206c0.138021,-0.598091 0.069011,-1.104168 -0.184028,-1.564238c-0.276042,-0.46007 -0.667102,-0.736112 -1.219186,-0.85113c-0.483074,-0.161025 -0.966147,-0.115017 -1.449221,0.161025c-0.483074,0.276042 -0.782119,0.667102 -0.943144,1.173178l-0.299045,1.357206c-0.069011,0.276042 -0.092014,0.46007 -0.092014,0.52908l0.000001,0zm1.817277,-6.671015c0,0.52908 0.184028,0.966147 0.552084,1.334203c0.368056,0.368056 0.828126,0.552084 1.334203,0.552084c0.552084,0 0.98915,-0.184028 1.357206,-0.52908c0.368056,-0.368056 0.52908,-0.805122 0.52908,-1.357206c0,-0.52908 -0.184028,-0.966147 -0.52908,-1.334203c-0.368056,-0.368056 -0.805122,-0.52908 -1.357206,-0.52908s-0.98915,0.184028 -1.357206,0.52908c-0.345053,0.345053 -0.52908,0.805122 -0.52908,1.334203l-0.000001,-0.000001zm1.426217,-5.221795c-0.023003,0.345053 0.069011,0.713108 0.322049,1.081164c0.230035,0.368056 0.575088,0.598091 1.035158,0.690105c0.52908,0.138021 1.012155,0.092014 1.472224,-0.138021s0.759116,-0.667102 0.943144,-1.288196l0.598091,-2.070316c0.161025,-0.506077 0.115017,-0.98915 -0.161025,-1.449221c-0.276042,-0.46007 -0.667102,-0.759116 -1.219186,-0.920141c-0.506077,-0.161025 -0.98915,-0.092014 -1.472224,0.184028s-0.782119,0.690105 -0.943144,1.219186l-0.52908,2.070316c-0.023003,0.184028 -0.046007,0.391059 -0.046007,0.621094l0,0.000002zm6.348966,4.945752c0,0.391059 0.115017,0.759116 0.345053,1.104168c0.230035,0.345053 0.575088,0.598091 1.058161,0.736112c0.069011,0 0.184028,0.023003 0.322049,0.046007c0.138021,0.023003 0.253039,0.046007 0.322049,0.046007c0.943144,0 1.518231,-0.506077 1.748266,-1.518231l0.322049,-1.38021c0.161025,-0.483074 0.115017,-0.966147 -0.161025,-1.449221c-0.276042,-0.483074 -0.667102,-0.782119 -1.173178,-0.943144c-0.575088,-0.138021 -1.104168,-0.092014 -1.564238,0.184028s-0.782119,0.667102 -0.943144,1.219186l-0.207031,1.357206c0,0.023003 0,0.115017 -0.023003,0.253039c-0.023003,0.161025 -0.046007,0.253039 -0.046007,0.345053l-0.000001,0zm1.702259,-6.809037c0,0.52908 0.184028,0.966147 0.552084,1.3112c0.345053,0.368056 0.782119,0.552084 1.334203,0.552084c0.552084,0 0.98915,-0.184028 1.357206,-0.52908c0.368056,-0.368056 0.52908,-0.805122 0.52908,-1.334203c0,-0.552084 -0.184028,-0.98915 -0.52908,-1.357206c-0.368056,-0.368056 -0.805122,-0.52908 -1.357206,-0.52908c-0.552084,0 -0.98915,0.184028 -1.357206,0.52908s-0.52908,0.805122 -0.52908,1.357206l-0.000001,-0.000001z"/>
</g>


 <g>
   <circle filter="url(#blur_shadow)" r="10" cx="42.62447" cy="16.12475" fill="lightcyan" fill-opacity="0.2" id="svg_2"/>
   <path filter="url(#blur_shadow)" fill="paleturquoise" fill-opacity="0.2" d="m8.18267,31.779858c0,2.14134 0.78891,4.00093 2.3104,5.52242s3.40925,2.3104 5.60695,2.3104l26.14696,0c2.16953,0 4.05729,-0.76074 5.60695,-2.3104c1.54966,-1.54966 2.33858,-3.38107 2.33858,-5.52242c0,-2.14134 -0.76074,-4.00093 -2.33858,-5.52242c-1.54966,-1.52148 -3.40925,-2.3104 -5.60695,-2.3104l-3.91641,0c-0.28175,0 -0.42263,-0.14088 -0.42263,-0.42263l-0.19723,-1.3806c-0.28175,-2.64851 -1.40878,-4.87439 -3.35289,-6.62127s-4.25452,-2.62033 -6.90302,-2.62033c-2.64851,0 -4.9589,0.87344 -6.9312,2.64851c-1.97229,1.74689 -3.07114,3.97276 -3.32472,6.5931l-0.19723,1.18338c0,0.28175 -0.14088,0.42263 -0.45081,0.42263l-1.2679,0.19723c-2.02864,0.16905 -3.71918,1.01432 -5.09978,2.50762c-1.29608,1.49331 -2.00047,3.26838 -2.00047,5.32519l-0.00001,-0.00001l-0.00001,0z"/>
   <g stroke-opacity="0.4" stroke="midnightblue">
    <path d="m5.840635,31.524841c0,2.553389 0.759116,4.830735 2.277347,6.83204c1.518231,2.001305 3.496532,3.381515 5.934904,4.117627l-1.495228,3.910596c-0.092014,0.322049 0,0.483074 0.322049,0.483074l4.876743,0l-2.967452,9.615464l0.644098,0l9.730481,-12.927968c0.092014,-0.092014 0.092014,-0.207031 0.046007,-0.322049c-0.069011,-0.115017 -0.161025,-0.161025 -0.322049,-0.161025l-5.014763,0l5.681865,-10.673625c0.161025,-0.322049 0.069011,-0.506077 -0.299045,-0.506077l-6.809037,0c-0.207031,0 -0.368056,0.115017 -0.506077,0.345053l-2.461375,6.625009c-1.633249,-0.414063 -2.990455,-1.3112 -4.094624,-2.69141s-1.633249,-2.921444 -1.633249,-4.623704c0,-1.909291 0.644098,-3.565543 1.955297,-4.99176c1.3112,-1.403214 2.921444,-2.231339 4.830735,-2.461375l1.219186,-0.161025c0.299045,0 0.46007,-0.138021 0.46007,-0.414063l0.161025,-1.173178c0.253039,-2.484378 1.288196,-4.577697 3.15148,-6.256952c1.863283,-1.679255 4.048616,-2.530385 6.555998,-2.530385c2.507382,0 4.692715,0.85113 6.579001,2.530385c1.886288,1.679255 2.944449,3.772574 3.22049,6.233949l0.161025,1.3112c0,0.276042 0.138021,0.437067 0.391059,0.437067l3.726568,0c2.093319,0 3.864588,0.736112 5.359816,2.185333s2.231339,3.22049 2.231339,5.244798c0,1.955297 -0.690105,3.657557 -2.070316,5.083774c-1.38021,1.426217 -3.059466,2.231339 -5.060771,2.369361c-0.276042,0 -0.437067,0.138021 -0.437067,0.437067l0,3.128476c0,0.276042 0.138021,0.414063 0.437067,0.414063c3.059466,-0.092014 5.658862,-1.265192 7.798187,-3.473529c2.139325,-2.231339 3.197486,-4.876743 3.197486,-7.936208c0,-2.001305 -0.506077,-3.864588 -1.518231,-5.635858c1.748266,-1.702259 2.921444,-3.703563 3.473529,-6.026918l0.437067,-1.564238c0.023003,-0.023003 0.023003,-0.069011 0.023003,-0.161025c0,-0.184028 -0.115017,-0.299045 -0.345053,-0.368056l-1.426217,-0.391059c-1.3112,-0.391059 -2.438371,-1.035158 -3.358511,-1.932294c-0.920141,-0.897136 -1.564238,-1.84028 -1.955297,-2.806427s-0.575088,-1.932294 -0.552084,-2.898441c0,-0.644098 0.069011,-1.288196 0.230035,-1.955297l0.253039,-1.403214c0.046007,-0.230035 -0.046007,-0.414063 -0.322049,-0.52908l-1.84028,-0.552084c-1.081164,-0.207031 -2.024308,-0.322049 -2.852435,-0.322049c-0.85113,-0.023003 -1.725263,0.069011 -2.599396,0.276042c-0.874133,0.184028 -1.794273,0.506077 -2.737416,0.920141c-0.943144,0.414063 -1.84028,1.035158 -2.714413,1.817277c-0.874133,0.782119 -1.633249,1.702259 -2.277347,2.760421c-1.909291,-0.713108 -3.726568,-1.058161 -5.428826,-1.058161c-3.243494,0 -6.141935,1.012155 -8.649317,3.036463s-4.14063,4.600701 -4.853738,7.729176c-2.553389,0.598091 -4.646707,1.932294 -6.302959,4.00261c-1.633249,2.047311 -2.461375,4.416672 -2.461375,7.062075l0.000001,-0.000004l0,-0.000003zm18.126759,23.486575c0,0.391059 0.115017,0.759116 0.368056,1.127172c0.253039,0.368056 0.621094,0.621094 1.127172,0.759116c0.207031,0.046007 0.391059,0.069011 0.552084,0.069011c0.98915,0 1.610245,-0.46007 1.84028,-1.403214l0.299045,-1.357206c0.138021,-0.598091 0.069011,-1.104168 -0.184028,-1.564238c-0.276042,-0.46007 -0.667102,-0.736112 -1.219186,-0.85113c-0.483074,-0.161025 -0.966147,-0.115017 -1.449221,0.161025c-0.483074,0.276042 -0.782119,0.667102 -0.943144,1.173178l-0.299045,1.357206c-0.069011,0.276042 -0.092014,0.46007 -0.092014,0.52908l0.000001,0zm1.817277,-6.671015c0,0.52908 0.184028,0.966147 0.552084,1.334203c0.368056,0.368056 0.828126,0.552084 1.334203,0.552084c0.552084,0 0.98915,-0.184028 1.357206,-0.52908c0.368056,-0.368056 0.52908,-0.805122 0.52908,-1.357206c0,-0.52908 -0.184028,-0.966147 -0.52908,-1.334203c-0.368056,-0.368056 -0.805122,-0.52908 -1.357206,-0.52908s-0.98915,0.184028 -1.357206,0.52908c-0.345053,0.345053 -0.52908,0.805122 -0.52908,1.334203l-0.000001,-0.000001zm1.426217,-5.221795c-0.023003,0.345053 0.069011,0.713108 0.322049,1.081164c0.230035,0.368056 0.575088,0.598091 1.035158,0.690105c0.52908,0.138021 1.012155,0.092014 1.472224,-0.138021s0.759116,-0.667102 0.943144,-1.288196l0.598091,-2.070316c0.161025,-0.506077 0.115017,-0.98915 -0.161025,-1.449221c-0.276042,-0.46007 -0.667102,-0.759116 -1.219186,-0.920141c-0.506077,-0.161025 -0.98915,-0.092014 -1.472224,0.184028s-0.782119,0.690105 -0.943144,1.219186l-0.52908,2.070316c-0.023003,0.184028 -0.046007,0.391059 -0.046007,0.621094l0,0.000002zm6.348966,4.945752c0,0.391059 0.115017,0.759116 0.345053,1.104168c0.230035,0.345053 0.575088,0.598091 1.058161,0.736112c0.069011,0 0.184028,0.023003 0.322049,0.046007c0.138021,0.023003 0.253039,0.046007 0.322049,0.046007c0.943144,0 1.518231,-0.506077 1.748266,-1.518231l0.322049,-1.38021c0.161025,-0.483074 0.115017,-0.966147 -0.161025,-1.449221c-0.276042,-0.483074 -0.667102,-0.782119 -1.173178,-0.943144c-0.575088,-0.138021 -1.104168,-0.092014 -1.564238,0.184028s-0.782119,0.667102 -0.943144,1.219186l-0.207031,1.357206c0,0.023003 0,0.115017 -0.023003,0.253039c-0.023003,0.161025 -0.046007,0.253039 -0.046007,0.345053l-0.000001,0zm1.702259,-6.809037c0,0.52908 0.184028,0.966147 0.552084,1.3112c0.345053,0.368056 0.782119,0.552084 1.334203,0.552084c0.552084,0 0.98915,-0.184028 1.357206,-0.52908c0.368056,-0.368056 0.52908,-0.805122 0.52908,-1.334203c0,-0.552084 -0.184028,-0.98915 -0.52908,-1.357206c-0.368056,-0.368056 -0.805122,-0.52908 -1.357206,-0.52908c-0.552084,0 -0.98915,0.184028 -1.357206,0.52908s-0.52908,0.805122 -0.52908,1.357206l-0.000001,-0.000001zm1.633249,-28.409324c0.759116,-1.288196 1.794273,-2.277347 3.082469,-2.967452s2.645402,-1.035158 4.048616,-1.035158l0.506077,0l0,0.736112c0,1.472224 0.253039,2.898441 0.782119,4.278651c0.52908,1.38021 1.288196,2.645402 2.346357,3.818582c1.035158,1.173178 2.277347,2.093319 3.703563,2.783424c-0.391059,0.874133 -0.966147,1.656252 -1.748266,2.369361c-2.093319,-1.794273 -4.554693,-2.69141 -7.407128,-2.69141l-0.759116,0c-0.667102,-2.898441 -2.185333,-5.336812 -4.554693,-7.29211l0.000001,0l0.000001,0z" fill="linen" stroke-width="2.5" filter="url(#drop_shadow)"/>
    <path d="m14.052886,42.474508l-1.495228,3.910596c-0.092014,0.322049 0,0.483074 0.322049,0.483074l4.876743,0l-2.967452,9.615464l0.644098,0l9.730481,-12.927968c0.092014,-0.092014 0.092014,-0.207031 0.046007,-0.322049c-0.069011,-0.115017 -0.161025,-0.161025 -0.322049,-0.161025l-5.014763,0l5.681865,-10.673625c0.161025,-0.322049 0.069011,-0.506077 -0.299045,-0.506077l-6.809037,0c-0.207031,0 -0.368056,0.115017 -0.506077,0.345053l-2.461375,6.625009l-1.426217,3.611548z" fill="bisque"/>
    <path fill="darkgrey" d="m17.75645,46.868178zm6.210944,8.143238c0,0.391059 0.115017,0.759116 0.368056,1.127172c0.253039,0.368056 0.621094,0.621094 1.127172,0.759116c0.207031,0.046007 0.391059,0.069011 0.552084,0.069011c0.98915,0 1.610245,-0.46007 1.84028,-1.403214l0.299045,-1.357206c0.138021,-0.598091 0.069011,-1.104168 -0.184028,-1.564238c-0.276042,-0.46007 -0.667102,-0.736112 -1.219186,-0.85113c-0.483074,-0.161025 -0.966147,-0.115017 -1.449221,0.161025c-0.483074,0.276042 -0.782119,0.667102 -0.943144,1.173178l-0.299045,1.357206c-0.069011,0.276042 -0.092014,0.46007 -0.092014,0.52908l0.000001,0zm1.817277,-6.671015c0,0.52908 0.184028,0.966147 0.552084,1.334203c0.368056,0.368056 0.828126,0.552084 1.334203,0.552084c0.552084,0 0.98915,-0.184028 1.357206,-0.52908c0.368056,-0.368056 0.52908,-0.805122 0.52908,-1.357206c0,-0.52908 -0.184028,-0.966147 -0.52908,-1.334203c-0.368056,-0.368056 -0.805122,-0.52908 -1.357206,-0.52908s-0.98915,0.184028 -1.357206,0.52908c-0.345053,0.345053 -0.52908,0.805122 -0.52908,1.334203l-0.000001,-0.000001zm1.426217,-5.221795c-0.023003,0.345053 0.069011,0.713108 0.322049,1.081164c0.230035,0.368056 0.575088,0.598091 1.035158,0.690105c0.52908,0.138021 1.012155,0.092014 1.472224,-0.138021s0.759116,-0.667102 0.943144,-1.288196l0.598091,-2.070316c0.161025,-0.506077 0.115017,-0.98915 -0.161025,-1.449221c-0.276042,-0.46007 -0.667102,-0.759116 -1.219186,-0.920141c-0.506077,-0.161025 -0.98915,-0.092014 -1.472224,0.184028s-0.782119,0.690105 -0.943144,1.219186l-0.52908,2.070316c-0.023003,0.184028 -0.046007,0.391059 -0.046007,0.621094l0,0.000002zm6.348966,4.945752c0,0.391059 0.115017,0.759116 0.345053,1.104168c0.230035,0.345053 0.575088,0.598091 1.058161,0.736112c0.069011,0 0.184028,0.023003 0.322049,0.046007c0.138021,0.023003 0.253039,0.046007 0.322049,0.046007c0.943144,0 1.518231,-0.506077 1.748266,-1.518231l0.322049,-1.38021c0.161025,-0.483074 0.115017,-0.966147 -0.161025,-1.449221c-0.276042,-0.483074 -0.667102,-0.782119 -1.173178,-0.943144c-0.575088,-0.138021 -1.104168,-0.092014 -1.564238,0.184028s-0.782119,0.667102 -0.943144,1.219186l-0.207031,1.357206c0,0.023003 0,0.115017 -0.023003,0.253039c-0.023003,0.161025 -0.046007,0.253039 -0.046007,0.345053l-0.000001,0zm1.702259,-6.809037c0,0.52908 0.184028,0.966147 0.552084,1.3112c0.345053,0.368056 0.782119,0.552084 1.334203,0.552084c0.552084,0 0.98915,-0.184028 1.357206,-0.52908c0.368056,-0.368056 0.52908,-0.805122 0.52908,-1.334203c0,-0.552084 -0.184028,-0.98915 -0.52908,-1.357206c-0.368056,-0.368056 -0.805122,-0.52908 -1.357206,-0.52908c-0.552084,0 -0.98915,0.184028 -1.357206,0.52908s-0.52908,0.805122 -0.52908,1.357206l-0.000001,-0.000001z"/>
   </g>
  </g>
</svg>
