<svg width="60" height="60" xmlns="http://www.w3.org/2000/svg">
  <defs>
    <filter id="drop_shadow" filterUnits="objectBoundingBox" x="-50%" y="-50%" width="200%" height="200%">
      <feDropShadow dx="0.5" dy="0.5" stdDeviation="2" flood-color="black" flood-opacity="0.8" />
    </filter>
    <filter id="blur_shadow" filterUnits="objectBoundingBox" x="-50%" y="-50%" width="200%" height="200%">
      <feGaussianBlur in="SourceGraphic" stdDeviation="3" />
    </filter>
  </defs>
 <g>

   <path fill="black" filter="url(#blur_shadow)" d="m10.15099,40.389055c0,2.340856 0.844639,4.367989 2.558049,6.081399c1.71341,1.71341 3.740543,2.558049 6.081399,2.558049l16.530787,0c2.340856,0 4.343856,-0.844639 6.009001,-2.533916c1.665145,-1.689277 2.509784,-3.71641 2.509784,-6.105531c0,-1.158362 -0.168928,-2.147796 -0.506783,-2.968302c2.003,-1.279024 3.595748,-2.992434 4.754109,-5.116098c1.158362,-2.123663 1.761675,-4.416254 1.761675,-6.85364c0,-1.954735 -0.386121,-3.837073 -1.134229,-5.622881c-0.772241,-1.785808 -1.785808,-3.33029 -3.088965,-4.609314s-2.823507,-2.316723 -4.609314,-3.088965c-1.785808,-0.772241 -3.644013,-1.158362 -5.598748,-1.158362c-2.630446,0 -5.067832,0.651578 -7.288026,1.954735s-3.981868,3.064832 -5.260893,5.260893c-1.279024,2.220193 -1.90647,4.633447 -1.90647,7.263893l0,0.820506c-2.437386,1.375555 -4.030133,3.402687 -4.802375,6.009001c-1.834073,0.579181 -3.282025,1.592747 -4.367989,3.064832c-1.085964,1.472085 -1.641012,3.161362 -1.641012,5.0437zm4.778242,0c0,-1.013566 0.313723,-1.882338 0.965301,-2.606314c0.651578,-0.723976 1.472085,-1.134229 2.461519,-1.230759l1.52035,-0.19306c0.28959,0 0.458518,-0.19306 0.458518,-0.555048l0.241325,-1.351422c0.168928,-1.399687 0.748109,-2.558049 1.761675,-3.475085c1.013566,-0.941169 2.196061,-1.399687 3.571615,-1.399687c1.399687,0 2.630446,0.458518 3.644013,1.399687c1.037699,0.941169 1.641012,2.099531 1.80994,3.475085l0.19306,1.568615c0.144795,0.361988 0.361988,0.555048 0.603313,0.555048l3.161362,0c1.037699,0 1.930603,0.386121 2.702844,1.134229c0.772241,0.748109 1.134229,1.641012 1.134229,2.702844c0,1.085964 -0.386121,2.003 -1.134229,2.775242s-1.665145,1.158362 -2.702844,1.158362l-16.530787,0c-1.085964,0 -2.003,-0.386121 -2.751109,-1.158362s-1.110097,-1.71341 -1.110097,-2.799374zm10.690713,-15.42069c0.168928,-2.630446 1.182494,-4.85064 3.064832,-6.66058c1.882338,-1.785808 4.126664,-2.702844 6.75711,-2.702844c2.678711,0 4.971302,0.965301 6.85364,2.871772c1.882338,1.90647 2.823507,4.247326 2.823507,6.974303c0,1.689277 -0.410253,3.257892 -1.230759,4.705844c-0.820506,1.447952 -1.930603,2.606314 -3.33029,3.499218c-1.42382,-1.182494 -3.064832,-1.761675 -4.898905,-1.761675c-0.699844,-2.123663 -1.954735,-3.788808 -3.71641,-5.0437c-1.761675,-1.254892 -3.764676,-1.882338 -6.009001,-1.882338l-0.313723,0z"/>

  <circle fill-opacity="0.2" fill="lightcyan" cy="24.998994" cx="35.500077" r="10" filter="url(#blur_shadow)"/>
  <path d="m14.557126,40.167054c0,1.2494 0.460302,2.334408 1.348041,3.222147s1.989183,1.348041 3.271467,1.348041l15.255873,0c1.265848,0 2.367292,-0.443866 3.271467,-1.348041c0.904175,-0.904175 1.364483,-1.972741 1.364483,-3.222147c0,-1.2494 -0.443866,-2.334408 -1.364483,-3.222147c-0.904175,-0.887732 -1.989183,-1.348041 -3.271467,-1.348041l-2.285094,0c-0.164392,0 -0.24659,-0.082199 -0.24659,-0.24659l-0.115077,-0.805534c-0.164392,-1.545317 -0.821976,-2.844043 -1.956299,-3.863289s-2.48237,-1.528875 -4.02768,-1.528875c-1.545317,0 -2.893352,0.509623 -4.044122,1.545317c-1.150765,1.019252 -1.791907,2.317972 -1.939862,3.846852l-0.115077,0.690462c0,0.164392 -0.082199,0.24659 -0.263032,0.24659l-0.739777,0.115077c-1.183643,0.098635 -2.170017,0.591822 -2.97555,1.463112c-0.756219,0.871296 -1.167207,1.90699 -1.167207,3.107069l-0.000006,-0.000006l-0.000006,0z" fill-opacity="0.4" fill="paleturquoise"/>
  <g stroke="midnightblue" id="svg_3" stroke-opacity="0.4">
   <path fill="linen" stroke-width="2.5" filter="url(#drop_shadow)" d="m10.15099,40.389055c0,2.340856 0.844639,4.367989 2.558049,6.081399c1.71341,1.71341 3.740543,2.558049 6.081399,2.558049l16.530787,0c2.340856,0 4.343856,-0.844639 6.009001,-2.533916c1.665145,-1.689277 2.509784,-3.71641 2.509784,-6.105531c0,-1.158362 -0.168928,-2.147796 -0.506783,-2.968302c2.003,-1.279024 3.595748,-2.992434 4.754109,-5.116098c1.158362,-2.123663 1.761675,-4.416254 1.761675,-6.85364c0,-1.954735 -0.386121,-3.837073 -1.134229,-5.622881c-0.772241,-1.785808 -1.785808,-3.33029 -3.088965,-4.609314s-2.823507,-2.316723 -4.609314,-3.088965c-1.785808,-0.772241 -3.644013,-1.158362 -5.598748,-1.158362c-2.630446,0 -5.067832,0.651578 -7.288026,1.954735s-3.981868,3.064832 -5.260893,5.260893c-1.279024,2.220193 -1.90647,4.633447 -1.90647,7.263893l0,0.820506c-2.437386,1.375555 -4.030133,3.402687 -4.802375,6.009001c-1.834073,0.579181 -3.282025,1.592747 -4.367989,3.064832c-1.085964,1.472085 -1.641012,3.161362 -1.641012,5.0437zm4.778242,0c0,-1.013566 0.313723,-1.882338 0.965301,-2.606314c0.651578,-0.723976 1.472085,-1.134229 2.461519,-1.230759l1.52035,-0.19306c0.28959,0 0.458518,-0.19306 0.458518,-0.555048l0.241325,-1.351422c0.168928,-1.399687 0.748109,-2.558049 1.761675,-3.475085c1.013566,-0.941169 2.196061,-1.399687 3.571615,-1.399687c1.399687,0 2.630446,0.458518 3.644013,1.399687c1.037699,0.941169 1.641012,2.099531 1.80994,3.475085l0.19306,1.568615c0.144795,0.361988 0.361988,0.555048 0.603313,0.555048l3.161362,0c1.037699,0 1.930603,0.386121 2.702844,1.134229c0.772241,0.748109 1.134229,1.641012 1.134229,2.702844c0,1.085964 -0.386121,2.003 -1.134229,2.775242s-1.665145,1.158362 -2.702844,1.158362l-16.530787,0c-1.085964,0 -2.003,-0.386121 -2.751109,-1.158362s-1.110097,-1.71341 -1.110097,-2.799374zm10.690713,-15.42069c0.168928,-2.630446 1.182494,-4.85064 3.064832,-6.66058c1.882338,-1.785808 4.126664,-2.702844 6.75711,-2.702844c2.678711,0 4.971302,0.965301 6.85364,2.871772c1.882338,1.90647 2.823507,4.247326 2.823507,6.974303c0,1.689277 -0.410253,3.257892 -1.230759,4.705844c-0.820506,1.447952 -1.930603,2.606314 -3.33029,3.499218c-1.42382,-1.182494 -3.064832,-1.761675 -4.898905,-1.761675c-0.699844,-2.123663 -1.954735,-3.788808 -3.71641,-5.0437c-1.761675,-1.254892 -3.764676,-1.882338 -6.009001,-1.882338l-0.313723,0z"/>
  </g>
 </g>
</svg>
