<svg width="60" height="60" xmlns="http://www.w3.org/2000/svg">
  <g stroke-opacity="0.2" stroke="midnightblue">
  <path fill="linen" stroke="midnightblue" stroke-opacity="0.4" stroke-width="2.5" d="m9.40598,28.45866c0,0.19455 0.10808,0.28101 0.32424,0.28101l3.09111,0c0.1297,0 0.28101,-0.10808 0.43232,-0.34586c0.51879,-1.12404 1.27535,-2.03192 2.29131,-2.74525c1.01596,-0.71333 2.14,-1.12404 3.3505,-1.2105l1.18889,-0.15131c0.23778,0 0.36747,-0.1297 0.36747,-0.38909l0.15131,-1.08081c0.23778,-2.33454 1.2105,-4.28 2.96141,-5.83636c1.75091,-1.55636 3.80444,-2.33454 6.1606,-2.33454c2.33454,0 4.36646,0.77818 6.11737,2.31293c1.72929,1.53475 2.72364,3.4802 2.96141,5.79313l0.17293,1.23212c0,0.23778 0.15131,0.36747 0.43232,0.36747l3.43697,0c1.38343,0 2.65879,0.36747 3.80444,1.12404s1.98869,1.72929 2.55071,2.96141c0.15131,0.23778 0.30263,0.34586 0.45394,0.34586l3.09111,0c0.25939,0 0.36747,-0.15131 0.30263,-0.49717c-0.62687,-2.20485 -1.90222,-4.02061 -3.76121,-5.42566c-1.88061,-1.40505 -4.02061,-2.09677 -6.42,-2.09677l-0.69172,0c-0.71333,-2.87495 -2.22646,-5.23111 -4.53939,-7.06848s-4.92848,-2.74525 -7.8899,-2.74525c-3.02626,0 -5.70667,0.95111 -8.06283,2.85333s-3.84768,4.32323 -4.51778,7.26303c-1.83737,0.43232 -3.45858,1.29697 -4.84202,2.61555c-1.38343,1.31859 -2.35616,2.87495 -2.89656,4.71232l0,-0.08646c-0.02162,0 -0.02162,0.06485 -0.02162,0.15131l0.00004,0z"/>
  <path stroke="midnightblue" stroke-opacity="0.2" stroke-width="1.5" fill="lightgrey" d="m12.85519,47.31827c0,-0.51879 0.19455,-0.92949 0.56202,-1.27535c0.32424,-0.32424 0.75657,-0.49717 1.29697,-0.49717l40.37898,0c0.51879,0 0.95111,0.17293 1.29697,0.49717c0.36747,0.34586 0.5404,0.75657 0.5404,1.25374c0,0.51879 -0.17293,0.95111 -0.5404,1.31859c-0.36747,0.36747 -0.7998,0.5404 -1.29697,0.5404l-40.37898,0c-0.49717,0 -0.92949,-0.19455 -1.29697,-0.56202c-0.36747,-0.32424 -0.56202,-0.77818 -0.56202,-1.27535l0,-0.00001z"/>
  <path stroke="midnightblue" stroke-opacity="0.2" stroke-width="1.5" fill="lightsteelblue" d="m3.25,40.63045c0,-0.51879 0.17293,-0.97273 0.5404,-1.31859c0.36747,-0.34586 0.82141,-0.51879 1.36182,-0.51879l40.35736,0c0.5404,0 0.97273,0.17293 1.31859,0.51879c0.34586,0.34586 0.51879,0.77818 0.51879,1.31859c0,0.49717 -0.17293,0.92949 -0.5404,1.25374c-0.36747,0.34586 -0.7998,0.49717 -1.29697,0.49717l-40.35736,0c-0.5404,0 -0.99434,-0.17293 -1.36182,-0.49717c-0.36747,-0.34586 -0.5404,-0.75657 -0.5404,-1.25374l-0.00001,0z"/>
  <path stroke="midnightblue" stroke-opacity="0.2" stroke-width="1.5" fill="gray" d="m8.9134,33.83732c0,-0.51879 0.19455,-0.95111 0.56202,-1.29697c0.32424,-0.32424 0.75657,-0.49717 1.27535,-0.49717l40.35736,0c0.49717,0 0.90788,0.17293 1.25374,0.51879c0.34586,0.34586 0.49717,0.75657 0.49717,1.27535c0,0.51879 -0.17293,0.95111 -0.49717,1.29697c-0.34586,0.36747 -0.75657,0.5404 -1.25374,0.5404l-40.35736,0c-0.51879,0 -0.95111,-0.17293 -1.29697,-0.5404c-0.36747,-0.36747 -0.5404,-0.7998 -0.5404,-1.29697z"/>
</g>
</svg>
