<svg width="60" height="60" xmlns="http://www.w3.org/2000/svg">

  <defs>
    <filter id="drop_shadow" filterUnits="objectBoundingBox" x="-50%" y="-50%" width="200%" height="200%">
      <feDropShadow dx="4" dy="3" stdDeviation="5" flood-color="black" flood-opacity="0.8" />
    </filter>
  </defs>

<g>
  <circle fill="lightgrey" cx="30" cy="25" r="18"/>
  <path fill="black" d="m9.487503,25.911503c0,-2.772337 0.532065,-5.432661 1.624198,-7.980972c1.092133,-2.54831 2.54831,-4.704573 4.396535,-6.524794s4.032491,-3.276399 6.552798,-4.368532c2.520307,-1.092133 5.180631,-1.624198 7.952968,-1.624198c2.772337,0 5.432661,0.532065 7.980972,1.624198c2.520307,1.092133 4.704573,2.54831 6.524794,4.368532c1.820222,1.820222 3.276399,4.004487 4.368532,6.524794s1.624198,5.180631 1.624198,7.980972c0,4.536552 -1.344164,8.569043 -4.032491,12.153479c-2.688327,3.556433 -6.16075,5.99273 -10.389265,7.30889l0,9.213122l-11.873445,0l0,-9.101108c-4.312525,-1.260153 -7.868958,-3.69645 -10.613292,-7.30889s-4.116501,-7.700937 -4.116501,-12.265493l-0.000001,0zm4.508549,0c0,4.340528 1.568191,8.064982 4.732576,11.17336c3.108378,3.136382 6.860835,4.704573 11.25737,4.704573c2.884351,0 5.572678,-0.700085 8.008975,-2.128259c2.4643,-1.428174 4.396535,-3.360409 5.852712,-5.796706c1.428174,-2.436297 2.156262,-5.09662 2.156262,-7.980972c0,-2.156262 -0.420051,-4.200511 -1.260153,-6.188753s-1.988242,-3.668447 -3.416416,-5.09662c-1.428174,-1.428174 -3.136382,-2.576314 -5.124624,-3.416416c-1.988242,-0.840102 -4.032491,-1.260153 -6.188753,-1.260153c-2.156262,0 -4.200511,0.420051 -6.188753,1.260153s-3.668447,1.988242 -5.09662,3.416416c-1.428174,1.428174 -2.576314,3.136382 -3.416416,5.09662c-0.896109,2.016245 -1.31616,4.060494 -1.31616,6.216757zm1.624198,1.008123l0,-2.016245l6.07674,0l0,2.016245l-6.07674,0zm3.052372,-9.913207l1.456177,-1.456177l4.256518,4.256518l-1.456177,1.484181l-4.256518,-4.284522zm7.084862,13.805681c0,-1.176143 0.420051,-2.184266 1.23215,-3.052372c0.812099,-0.868106 1.820222,-1.31616 2.968361,-1.344164l7.644931,-12.573531l1.848225,0.980119l-5.656689,13.525647c0.504061,0.700085 0.728089,1.512184 0.728089,2.4643c0,1.23215 -0.420051,2.268276 -1.288157,3.108378c-0.868106,0.840102 -1.904232,1.260153 -3.136382,1.260153c-1.204147,0 -2.240273,-0.420051 -3.080375,-1.260153c-0.840102,-0.840102 -1.260153,-1.876228 -1.260153,-3.108378l0,0.000001zm3.668447,-13.077592l0,-6.048736l1.932235,0l0,6.07674l-1.932235,0l0,-0.028003l0,-0.000001zm8.233002,9.157115l0,-2.072252l6.07674,0l0,2.072252l-6.07674,0z"/>
  <path filter="url(#drop_shadow)" fill="blue" d="m25.757484,30.8121c0,-1.176143 0.420051,-2.184266 1.23215,-3.052372c0.812099,-0.868106 1.820222,-1.31616 2.968361,-1.344164l7.644931,-12.573531l1.848225,0.980119l-5.656689,13.525647c0.504061,0.700085 0.728089,1.512184 0.728089,2.4643c0,1.23215 -0.420051,2.268276 -1.288157,3.108378c-0.868106,0.840102 -1.904232,1.260153 -3.136382,1.260153c-1.204147,0 -2.240273,-0.420051 -3.080375,-1.260153c-0.840102,-0.840102 -1.260153,-1.876228 -1.260153,-3.108378l0,0.000001z"/>
  <path fill="navy" d="m9.487503,25.911503c0,-2.772337 0.532065,-5.432661 1.624198,-7.980972c1.092133,-2.54831 2.54831,-4.704573 4.396535,-6.524794s4.032491,-3.276399 6.552798,-4.368532c2.520307,-1.092133 5.180631,-1.624198 7.952968,-1.624198c2.772337,0 5.432661,0.532065 7.980972,1.624198c2.520307,1.092133 4.704573,2.54831 6.524794,4.368532c1.820222,1.820222 3.276399,4.004487 4.368532,6.524794s1.624198,5.180631 1.624198,7.980972c0,4.536552 -1.344164,8.569043 -4.032491,12.153479c-2.688327,3.556433 -6.16075,5.99273 -10.389265,7.30889l0,9.213122l-11.873445,0l0,-9.101108c-4.312525,-1.260153 -7.868958,-3.69645 -10.613292,-7.30889s-4.116501,-7.700937 -4.116501,-12.265493l-0.000001,0zm4.508549,0c0,4.340528 1.568191,8.064982 4.732576,11.17336c3.108378,3.136382 6.860835,4.704573 11.25737,4.704573c2.884351,0 5.572678,-0.700085 8.008975,-2.128259c2.4643,-1.428174 4.396535,-3.360409 5.852712,-5.796706c1.428174,-2.436297 2.156262,-5.09662 2.156262,-7.980972c0,-2.156262 -0.420051,-4.200511 -1.260153,-6.188753s-1.988242,-3.668447 -3.416416,-5.09662c-1.428174,-1.428174 -3.136382,-2.576314 -5.124624,-3.416416c-1.988242,-0.840102 -4.032491,-1.260153 -6.188753,-1.260153c-2.156262,0 -4.200511,0.420051 -6.188753,1.260153s-3.668447,1.988242 -5.09662,3.416416c-1.428174,1.428174 -2.576314,3.136382 -3.416416,5.09662c-0.896109,2.016245 -1.31616,4.060494 -1.31616,6.216757z"/>
</g>
</svg>
