<svg width="60" height="60" xmlns="http://www.w3.org/2000/svg">


  <defs>
    <filter id="drop_shadow" filterUnits="objectBoundingBox" x="-50%" y="-50%" width="200%" height="200%">
      <feDropShadow dx="0.5" dy="0.5" stdDeviation="2" flood-color="black" flood-opacity="0.8" />
    </filter>
    <filter id="blur_shadow" filterUnits="objectBoundingBox" x="-50%" y="-50%" width="200%" height="200%">
      <feGaussianBlur in="SourceGraphic" stdDeviation="3" />
    </filter>
  </defs>

<g>

  <circle fill-opacity="0.4" r="10.87526" cy="26.00049" cx="34.12449" fill="palegoldenrod" style="filter:url(#blur_shadow);"/>
   <g stroke="midnightblue" stroke-opacity="0.4" stroke-width="2.5" style="filter:url(#drop_shadow);">
  <path fill="yellow" d="m4.28101,34.08616zm8.00423,-8.06626c0,-0.49639 0.18614,-0.91004 0.53775,-1.28233c0.35161,-0.33092 0.78594,-0.49639 1.24096,-0.49639l4.1986,0c0.4757,0 0.86868,0.16546 1.1996,0.51707c0.33092,0.35161 0.4757,0.76526 0.4757,1.26165c0,0.49639 -0.16546,0.91004 -0.4757,1.24096c-0.33092,0.35161 -0.7239,0.51707 -1.1996,0.51707l-4.1986,0c-0.49639,0 -0.91004,-0.16546 -1.26165,-0.51707c-0.35161,-0.35161 -0.51707,-0.76526 -0.51707,-1.24096l0.00001,0zm5.91526,-14.31246c0,-0.45502 0.16546,-0.88936 0.49639,-1.26165c0.39297,-0.33092 0.82731,-0.49639 1.30301,-0.49639c0.45502,0 0.86868,0.16546 1.22028,0.49639l2.93695,3.04036c0.33092,0.31024 0.49639,0.7239 0.49639,1.22028c0,0.49639 -0.16546,0.91004 -0.49639,1.24096c-0.33092,0.33092 -0.74458,0.49639 -1.24096,0.49639c-0.49639,0 -0.91004,-0.16546 -1.22028,-0.49639l-2.999,-2.95763c-0.33092,-0.37229 -0.49639,-0.78594 -0.49639,-1.28233l0,0.00001zm5.2741,14.06426l0,-0.14478c0.04137,-1.88213 0.55843,-3.61948 1.53052,-5.23273c0.97209,-1.59257 2.29578,-2.85422 3.92972,-3.78494s3.41265,-1.38574 5.31546,-1.38574c1.44779,0 2.83354,0.28956 4.17791,0.86868c1.3237,0.57912 2.48193,1.34438 3.43334,2.31647c0.97209,0.97209 1.73735,2.10964 2.29578,3.43334c0.55843,1.3237 0.84799,2.73012 0.84799,4.17791c0,1.94418 -0.4757,3.72289 -1.42711,5.37751s-2.25442,2.95763 -3.88836,3.90904c-1.63394,0.97209 -3.43334,1.44779 -5.37751,1.46847l-0.41365,0c-0.14478,0 -0.26888,-0.04137 -0.37229,-0.14478c-0.10341,-0.10341 -0.16546,-0.22751 -0.16546,-0.37229l0,-2.52329c0,-0.26888 0.14478,-0.41365 0.45502,-0.41365l0.49639,0c1.98554,-0.02068 3.70221,-0.7239 5.10864,-2.17169c1.40643,-1.42711 2.13032,-3.14378 2.13032,-5.15c0,-1.98554 -0.7239,-3.68153 -2.15101,-5.10864c-1.42711,-1.40643 -3.14378,-2.10964 -5.17069,-2.10964c-1.94418,0 -3.64016,0.66185 -5.04659,2.02691c-1.40643,1.34438 -2.15101,2.97831 -2.23374,4.90181c0,0.1241 -0.04137,0.22751 -0.14478,0.35161s-0.26888,0.18614 -0.51707,0.18614l-2.35783,0c-0.31024,0.02068 -0.45502,-0.14478 -0.45502,-0.4757l0.00002,-0.00002zm9.03836,20.43455l0,-4.11587c0,-0.49639 0.16546,-0.91004 0.49639,-1.24096s0.74458,-0.49639 1.24096,-0.49639c0.49639,0 0.93072,0.16546 1.26165,0.49639s0.49639,0.74458 0.49639,1.24096l0,4.11587c0,0.49639 -0.16546,0.93072 -0.51707,1.28233c-0.35161,0.35161 -0.76526,0.51707 -1.24096,0.51707c-0.49639,0 -0.91004,-0.16546 -1.24096,-0.51707s-0.49639,-0.76526 -0.49639,-1.28233l-0.00001,0zm0,-36.15343l0,-4.23996c0,-0.49639 0.16546,-0.91004 0.51707,-1.24096s0.74458,-0.51707 1.24096,-0.51707c0.4757,0 0.88936,0.16546 1.24096,0.51707s0.51707,0.76526 0.51707,1.24096l0,4.21928c0,0.4757 -0.16546,0.86868 -0.51707,1.1996c-0.35161,0.31024 -0.76526,0.4757 -1.24096,0.4757c-0.49639,0 -0.91004,-0.16546 -1.24096,-0.4757c-0.35161,-0.31024 -0.51707,-0.70321 -0.51707,-1.17892zm11.39619,27.25985c0,-0.4757 0.14478,-0.86868 0.4757,-1.15823c0.31024,-0.33092 0.70321,-0.4757 1.17892,-0.4757c0.49639,0 0.91004,0.16546 1.24096,0.4757l2.999,2.93695c0.33092,0.35161 0.49639,0.78594 0.49639,1.26165c0,0.4757 -0.16546,0.88936 -0.49639,1.22028c-0.82731,0.64117 -1.65462,0.64117 -2.48193,0l-2.93695,-2.95763c-0.31024,-0.33092 -0.4757,-0.78594 -0.4757,-1.30301l0,-0.00001zm0,-22.60624c0,-0.51707 0.14478,-0.93072 0.4757,-1.22028l2.93695,-3.04036c0.37229,-0.33092 0.76526,-0.49639 1.22028,-0.49639c0.49639,0 0.91004,0.16546 1.24096,0.51707c0.35161,0.35161 0.51707,0.76526 0.51707,1.24096c0,0.51707 -0.16546,0.95141 -0.49639,1.28233l-2.999,2.95763c-0.37229,0.33092 -0.78594,0.49639 -1.24096,0.49639c-0.4757,0 -0.84799,-0.16546 -1.17892,-0.49639s-0.4757,-0.74458 -0.4757,-1.24096l0.00001,0zm4.6743,11.31346c0,-0.4757 0.16546,-0.91004 0.51707,-1.28233c0.33092,-0.33092 0.7239,-0.49639 1.15823,-0.49639l4.1986,0c0.4757,0 0.88936,0.18614 1.26165,0.53775c0.35161,0.35161 0.53775,0.76526 0.53775,1.24096c0,0.4757 -0.18614,0.88936 -0.53775,1.24096c-0.37229,0.35161 -0.78594,0.51707 -1.26165,0.51707l-4.1986,0c-0.4757,0 -0.86868,-0.16546 -1.1996,-0.51707c-0.31024,-0.33092 -0.4757,-0.74458 -0.4757,-1.24096l0,0.00001z"/>
  <path stroke-width="1" fill="lightgrey" d="m3.74326,32.8452c0,0.49639 0.18614,0.91004 0.53775,1.24096c0.33092,0.35161 0.74458,0.51707 1.24096,0.51707l19.48314,0c0.4757,0 0.88936,-0.16546 1.22028,-0.51707c0.33092,-0.35161 0.49639,-0.76526 0.49639,-1.24096c0,-0.4757 -0.16546,-0.88936 -0.4757,-1.22028c-0.33092,-0.33092 -0.7239,-0.49639 -1.22028,-0.49639l-19.50383,0c-0.49639,0 -0.91004,0.16546 -1.26165,0.49639c-0.35161,0.33092 -0.51707,0.74458 -0.51707,1.22028l0.00001,0zm0.68253,12.71989c0,0.49639 0.16546,0.91004 0.51707,1.24096c0.33092,0.35161 0.74458,0.51707 1.24096,0.51707l19.50383,0c0.49639,0 0.91004,-0.16546 1.26165,-0.51707c0.35161,-0.35161 0.51707,-0.76526 0.51707,-1.24096s-0.16546,-0.88936 -0.51707,-1.22028s-0.76526,-0.49639 -1.26165,-0.49639l-19.48314,0c-0.49639,0 -0.91004,0.16546 -1.24096,0.49639c-0.35161,0.33092 -0.53775,0.74458 -0.53775,1.22028l-0.00001,0zm2.83354,-6.41165c0,0.49639 0.16546,0.88936 0.51707,1.22028c0.35161,0.33092 0.78594,0.4757 1.30301,0.4757l19.44178,0c0.49639,0 0.88936,-0.16546 1.22028,-0.4757c0.33092,-0.33092 0.4757,-0.7239 0.4757,-1.22028c0,-0.51707 -0.16546,-0.93072 -0.4757,-1.26165c-0.33092,-0.33092 -0.7239,-0.49639 -1.22028,-0.49639l-19.44178,0c-0.51707,0 -0.95141,0.16546 -1.30301,0.49639c-0.33092,0.33092 -0.51707,0.74458 -0.51707,1.26165z"/>
</g>
</g>

</svg>
