<svg width="60" height="60" xmlns="http://www.w3.org/2000/svg">


  <defs>
    <filter id="drop_shadow" filterUnits="objectBoundingBox" x="-50%" y="-50%" width="200%" height="200%">
      <feDropShadow dx="0.5" dy="0.5" stdDeviation="2" flood-color="black" flood-opacity="0.8" />
    </filter>
    <filter id="blur_shadow" filterUnits="objectBoundingBox" x="-50%" y="-50%" width="200%" height="200%">
      <feGaussianBlur in="SourceGraphic" stdDeviation="3" />
    </filter>
  </defs>

<g>

  <circle fill-opacity="0.4" fill="palegoldenrod" cx="30.62463" cy="30.00033" r="12.62519" style="filter:url(#blur_shadow);"/>
   <g stroke="midnightblue" stroke-opacity="0.4" stroke-width="2.5" style="filter:url(#drop_shadow);">
  <path  fill-opacity="0.2" style="filter:url(#blur_shadow);" d="m12.31614,43.29595c0,1.05207 0.40863,1.96572 1.19673,2.71325s1.7659,1.13514 2.90425,1.13514l13.54341,0c1.12376,0 2.10156,-0.37376 2.90425,-1.13514c0.80268,-0.76137 1.21132,-1.66117 1.21132,-2.71325c0,-1.05207 -0.39404,-1.96572 -1.21132,-2.71325c-0.80268,-0.74753 -1.7659,-1.13514 -2.90425,-1.13514l-2.02859,0c-0.14594,0 -0.21891,-0.06921 -0.21891,-0.20764l-0.10216,-0.67831c-0.14594,-1.30126 -0.72971,-2.39486 -1.73671,-3.25313s-2.20373,-1.28741 -3.57558,-1.28741c-1.37186,0 -2.56858,0.42914 -3.59017,1.30126c-1.02159,0.85827 -1.59077,1.95188 -1.72211,3.23929l-0.10216,0.58141c0,0.13843 -0.07297,0.20764 -0.23351,0.20764l-0.65674,0.0969c-1.05078,0.08306 -1.92643,0.49835 -2.64155,1.23204c-0.67134,0.73368 -1.03619,1.6058 -1.03619,2.61635l-0.00001,-0.00001z" stroke-width="1" fill="paleturquoise"/>
  <path fill="linen" d="m4.71001,30.12133c0,0.57308 0.19103,1.04004 0.59431,1.4221s0.91269,0.55186 1.52822,0.55186l3.58708,0c0.57308,0 1.06127,-0.19103 1.46455,-0.57308s0.61553,-0.84901 0.61553,-1.40087c0,-0.61553 -0.19103,-1.12494 -0.59431,-1.507s-0.89146,-0.59431 -1.46455,-0.59431l-3.60831,0c-0.61553,0 -1.12494,0.19103 -1.52822,0.59431c-0.40328,0.36083 -0.59431,0.87024 -0.59431,1.507zm3.75688,13.11726c0,2.05886 0.74289,3.84179 2.24989,5.34878c1.507,1.507 3.2687,2.24989 5.32756,2.24989l14.56058,0c2.05886,0 3.82056,-0.74289 5.28511,-2.22866c1.46455,-1.48577 2.20743,-3.2687 2.20743,-5.37001c0,-1.01882 -0.14858,-1.88905 -0.44573,-2.61072c1.7617,-1.12494 3.16258,-2.63194 4.18139,-4.49977c1.01882,-1.86783 1.54945,-3.88424 1.54945,-6.028c0,-1.71925 -0.33961,-3.37483 -1.01882,-4.9455c-0.67921,-1.57067 -1.5919,-2.9291 -2.71684,-4.05404c-1.12494,-1.12494 -2.48336,-2.03763 -4.05404,-2.71684c-1.57067,-0.67921 -3.20503,-1.01882 -4.92428,-1.01882c-2.31356,0 -4.45732,0.57308 -6.41005,1.71925s-3.50218,2.69562 -4.62712,4.62712c-1.12494,1.95273 -1.6768,4.07526 -1.6768,6.38883l0,0.72166c-2.12253,1.20984 -3.52341,2.97155 -4.20262,5.28511c-1.61313,0.50941 -2.88665,1.40087 -3.84179,2.69562c-0.95514,1.29475 -1.44332,2.78052 -1.44332,4.4361zm3.31115,-30.05508c0,0.59431 0.19103,1.08249 0.55186,1.4221l3.41728,3.58708c0.99759,0.76411 1.99518,0.76411 2.99277,0c0.40328,-0.40328 0.59431,-0.89146 0.59431,-1.48577c0,-0.57308 -0.19103,-1.06127 -0.59431,-1.48577l-3.50218,-3.50218c-0.44573,-0.40328 -0.95514,-0.61553 -1.48577,-0.61553c-0.59431,0 -1.08249,0.19103 -1.44332,0.59431c-0.36083,0.40328 -0.53063,0.89146 -0.53063,1.48577zm0.89146,30.05508c0,-0.89146 0.27593,-1.65558 0.84901,-2.29234c0.57308,-0.63676 1.29475,-0.99759 2.16498,-1.08249l1.31597,-0.1698c0.27593,0 0.42451,-0.1698 0.42451,-0.48818l0.19103,-1.18862c0.14858,-1.23107 0.65799,-2.24989 1.54945,-3.05645c0.89146,-0.82779 1.93151,-1.23107 3.14135,-1.23107c1.23107,0 2.31356,0.40328 3.20503,1.23107c0.91269,0.82779 1.44332,1.8466 1.5919,3.05645l0.1698,1.37965c0.12735,0.31838 0.29715,0.48818 0.50941,0.48818l2.80174,0c0.91269,0 1.69803,0.33961 2.37724,0.99759c0.67921,0.65799 0.99759,1.44332 0.99759,2.37724c0,0.95514 -0.33961,1.7617 -0.99759,2.44091s-1.46455,1.01882 -2.37724,1.01882l-14.53935,0c-0.95514,0 -1.7617,-0.33961 -2.39846,-1.01882c-0.65799,-0.67921 -0.97637,-1.507 -0.97637,-2.46214zm9.3816,-13.56299c0.14858,-2.31356 1.04004,-4.26629 2.69562,-5.85819c1.63435,-1.57067 3.62953,-2.37724 5.92187,-2.37724c2.35601,0 4.37242,0.84901 6.028,2.52581c1.65558,1.6768 2.48336,3.73566 2.48336,6.13412c0,1.48577 -0.36083,2.86542 -1.08249,4.13894c-0.72166,1.27352 -1.69803,2.29234 -2.9291,3.07767c-1.25229,-1.04004 -2.69562,-1.54945 -4.30874,-1.54945c-0.61553,-1.86783 -1.71925,-3.33238 -3.2687,-4.4361c-1.54945,-1.10372 -3.31115,-1.65558 -5.26388,-1.65558l-0.27593,0zm6.55863,-18.57217c0,0.57308 0.21225,1.08249 0.61553,1.48577c0.40328,0.40328 0.89146,0.61553 1.46455,0.61553c0.59431,0 1.08249,-0.21225 1.48577,-0.61553c0.40328,-0.40328 0.61553,-0.89146 0.61553,-1.48577l0,-4.96673c0,-0.55186 -0.21225,-1.01882 -0.61553,-1.40087c-0.40328,-0.38206 -0.89146,-0.57308 -1.48577,-0.57308c-0.57308,0 -1.06127,0.19103 -1.46455,0.57308c-0.40328,0.38206 -0.61553,0.84901 -0.61553,1.40087l0,4.96673zm13.41441,32.32619c0,0.57308 0.19103,1.06127 0.57308,1.48577l3.48096,3.4385c0.89146,0.89146 1.88905,0.89146 2.99277,0c0.38206,-0.36083 0.55186,-0.82779 0.55186,-1.44332c0,-0.57308 -0.19103,-1.04004 -0.55186,-1.4221l-3.58708,-3.54463c-0.38206,-0.36083 -0.87024,-0.53063 -1.44332,-0.53063c-0.59431,0 -1.06127,0.19103 -1.44332,0.57308c-0.38206,0.38206 -0.57308,0.87024 -0.57308,1.44332zm0,-26.76515c0,0.59431 0.19103,1.10372 0.57308,1.52822c0.38206,0.38206 0.87024,0.57308 1.44332,0.57308c0.57308,0 1.06127,-0.19103 1.44332,-0.57308l3.58708,-3.58708c0.38206,-0.36083 0.55186,-0.82779 0.55186,-1.4221c0,-0.59431 -0.21225,-1.08249 -0.61553,-1.46455s-0.89146,-0.59431 -1.48577,-0.59431c-0.55186,0 -1.04004,0.21225 -1.44332,0.61553l-3.48096,3.45973c-0.38206,0.38206 -0.57308,0.87024 -0.57308,1.46455zm5.47614,13.45686c0,0.57308 0.19103,1.04004 0.59431,1.4221s0.91269,0.55186 1.52822,0.55186l3.58708,0c0.57308,0 1.06127,-0.19103 1.46455,-0.57308s0.61553,-0.84901 0.61553,-1.40087c0,-0.61553 -0.19103,-1.12494 -0.59431,-1.507s-0.89146,-0.59431 -1.46455,-0.59431l-3.58708,0c-0.61553,0 -1.12494,0.19103 -1.52822,0.59431c-0.40328,0.36083 -0.61553,0.87024 -0.61553,1.507z"/>
</g>

  <path fill-opacity="0.4" fill="goldenrod" d="m4.71001,30.12133c0,0.57308 0.19103,1.04004 0.59431,1.4221s0.91269,0.55186 1.52822,0.55186l3.58708,0c0.57308,0 1.06127,-0.19103 1.46455,-0.57308s0.61553,-0.84901 0.61553,-1.40087c0,-0.61553 -0.19103,-1.12494 -0.59431,-1.507s-0.89146,-0.59431 -1.46455,-0.59431l-3.60831,0c-0.61553,0 -1.12494,0.19103 -1.52822,0.59431c-0.40328,0.36083 -0.59431,0.87024 -0.59431,1.507l0.00001,-0.00001zm7.06803,-16.93782c0,0.59431 0.19103,1.08249 0.55186,1.4221l3.41728,3.58708c0.99759,0.76411 1.99518,0.76411 2.99277,0c0.40328,-0.40328 0.59431,-0.89146 0.59431,-1.48577c0,-0.57308 -0.19103,-1.06127 -0.59431,-1.48577l-3.50218,-3.50218c-0.44573,-0.40328 -0.95514,-0.61553 -1.48577,-0.61553c-0.59431,0 -1.08249,0.19103 -1.44332,0.59431c-0.36083,0.40328 -0.53063,0.89146 -0.53063,1.48577l-0.00001,-0.00001zm10.27306,16.49209c0.14858,-2.31356 1.04004,-4.26629 2.69562,-5.85819c1.63435,-1.57067 3.62953,-2.37724 5.92187,-2.37724c2.35601,0 4.37242,0.84901 6.028,2.52581c1.65558,1.6768 2.48336,3.73566 2.48336,6.13412c0,1.48577 -0.36083,2.86542 -1.08249,4.13894c-0.72166,1.27352 -1.69803,2.29234 -2.9291,3.07767c-1.25229,-1.04004 -2.69562,-1.54945 -4.30874,-1.54945c-0.61553,-1.86783 -1.71925,-3.33238 -3.2687,-4.4361c-1.54945,-1.10372 -3.31115,-1.65558 -5.26388,-1.65558l-0.27593,0l-0.00001,0.00002zm6.55863,-18.57217c0,0.57308 0.21225,1.08249 0.61553,1.48577c0.40328,0.40328 0.89146,0.61553 1.46455,0.61553c0.59431,0 1.08249,-0.21225 1.48577,-0.61553c0.40328,-0.40328 0.61553,-0.89146 0.61553,-1.48577l0,-4.96673c0,-0.55186 -0.21225,-1.01882 -0.61553,-1.40087c-0.40328,-0.38206 -0.89146,-0.57308 -1.48577,-0.57308c-0.57308,0 -1.06127,0.19103 -1.46455,0.57308c-0.40328,0.38206 -0.61553,0.84901 -0.61553,1.40087l0,4.96673zm13.41441,32.32619c0,0.57308 0.19103,1.06127 0.57308,1.48577l3.48096,3.4385c0.89146,0.89146 1.88905,0.89146 2.99277,0c0.38206,-0.36083 0.55186,-0.82779 0.55186,-1.44332c0,-0.57308 -0.19103,-1.04004 -0.55186,-1.4221l-3.58708,-3.54463c-0.38206,-0.36083 -0.87024,-0.53063 -1.44332,-0.53063c-0.59431,0 -1.06127,0.19103 -1.44332,0.57308c-0.38206,0.38206 -0.57308,0.87024 -0.57308,1.44332l-0.00001,0.00001zm0,-26.76515c0,0.59431 0.19103,1.10372 0.57308,1.52822c0.38206,0.38206 0.87024,0.57308 1.44332,0.57308c0.57308,0 1.06127,-0.19103 1.44332,-0.57308l3.58708,-3.58708c0.38206,-0.36083 0.55186,-0.82779 0.55186,-1.4221c0,-0.59431 -0.21225,-1.08249 -0.61553,-1.46455s-0.89146,-0.59431 -1.48577,-0.59431c-0.55186,0 -1.04004,0.21225 -1.44332,0.61553l-3.48096,3.45973c-0.38206,0.38206 -0.57308,0.87024 -0.57308,1.46455l0,0.00001zm5.47614,13.45686c0,0.57308 0.19103,1.04004 0.59431,1.4221s0.91269,0.55186 1.52822,0.55186l3.58708,0c0.57308,0 1.06127,-0.19103 1.46455,-0.57308s0.61553,-0.84901 0.61553,-1.40087c0,-0.61553 -0.19103,-1.12494 -0.59431,-1.507s-0.89146,-0.59431 -1.46455,-0.59431l-3.58708,0c-0.61553,0 -1.12494,0.19103 -1.52822,0.59431c-0.40328,0.36083 -0.61553,0.87024 -0.61553,1.507l0,-0.00001z"/>

</g>

</svg>
