<svg width="60" height="60" xmlns="http://www.w3.org/2000/svg">

  <defs>
    <filter id="drop_shadow" filterUnits="objectBoundingBox" x="-50%" y="-50%" width="200%" height="200%">
      <feDropShadow dx="0.5" dy="0.5" stdDeviation="2" flood-color="black" flood-opacity="0.8" />
    </filter>
    <filter id="blur_shadow" filterUnits="objectBoundingBox" x="-50%" y="-50%" width="200%" height="200%">
      <feGaussianBlur in="SourceGraphic" stdDeviation="3" />
    </filter>
    <filter id="shadow">
      <feDropShadow dx="0.3" dy="0.6" stdDeviation="0.6" flood-color="black"/>
    </filter>
  </defs>

<g fill="black" style="filter:url(#blur_shadow)">
  <path d="m8.07998,33.86107c0,2.22279 0.66083,4.20528 1.98249,5.9675s3.04382,2.9437 5.16649,3.5845l-1.32166,3.38425c-0.06008,0.28035 0.04005,0.42053 0.30038,0.42053l4.24533,0l-1.94244,7.02883l0.58073,0l7.82984,-9.89243c0.0801,-0.10013 0.0801,-0.20025 0.02003,-0.30038c-0.06008,-0.10013 -0.1602,-0.14018 -0.30038,-0.14018l-4.36548,0l4.96624,-9.27165c0.14018,-0.28035 0.06008,-0.44055 -0.26033,-0.44055l-5.92745,0c-0.18023,0 -0.3204,0.10013 -0.46058,0.28035l-2.14269,5.76724c-1.44181,-0.36045 -2.6233,-1.14143 -3.56448,-2.34294c-0.94118,-1.20151 -1.40176,-2.54319 -1.40176,-4.02506c0,-1.66209 0.5607,-3.1039 1.70214,-4.34546c1.14143,-1.24156 2.54319,-1.94244 4.20528,-2.14269l1.04131,-0.1602c0.26033,0 0.4005,-0.12015 0.4005,-0.34043l0.14018,-1.04131c0.22028,-2.16272 1.12141,-3.98501 2.74345,-5.44684s3.52443,-2.20277 5.70717,-2.20277c2.16272,0 4.06511,0.74093 5.70717,2.20277s2.58325,3.28413 2.82355,5.42682l0.14018,1.18148c0,0.22028 0.12015,0.34043 0.36045,0.34043l3.24408,0c1.82229,0 3.36423,0.6408 4.66586,1.90239s1.94244,2.80352 1.94244,4.58576c0,1.70214 -0.60075,3.184 -1.80226,4.42556c-1.20151,1.24156 -2.66335,1.94244 -4.40553,2.08262c-0.2403,0 -0.38048,0.12015 -0.38048,0.34043l0,2.76347c0,0.2403 0.12015,0.36045 0.38048,0.36045c1.76221,-0.06008 3.36423,-0.54068 4.82606,-1.44181c1.46184,-0.90113 2.6233,-2.10264 3.46435,-3.60453c0.84106,-1.50189 1.26158,-3.14395 1.26158,-4.90616c0,-1.74219 -0.44055,-3.36423 -1.32166,-4.90616c1.58199,-1.52191 2.6233,-3.2641 3.12392,-5.24659l0.28035,-1.44181c0.02003,-0.02003 0.04005,-0.0801 0.04005,-0.14018c0,-0.14018 -0.10013,-0.2403 -0.3204,-0.30038l-1.12141,-0.36045c-1.14143,-0.3204 -2.12267,-0.88111 -2.92367,-1.64206c-0.82103,-0.76096 -1.40176,-1.60201 -1.74219,-2.46309c-0.34043,-0.88111 -0.52065,-1.76221 -0.52065,-2.64332c0,-0.52065 0.06008,-1.06133 0.1602,-1.60201l0.28035,-1.22153c0.0801,-0.20025 0,-0.36045 -0.28035,-0.46058c-0.42053,-0.18023 -1.02128,-0.34043 -1.80226,-0.52065c-0.78098,-0.18023 -1.54194,-0.26033 -2.30289,-0.26033c-0.72091,0 -1.46184,0.0801 -2.24282,0.26033c-0.76096,0.18023 -1.56196,0.44055 -2.38299,0.82103c-0.82103,0.36045 -1.62204,0.90113 -2.40302,1.60201c-0.78098,0.70088 -1.44181,1.50189 -2.00252,2.44307c-1.64206,-0.60075 -3.24408,-0.90113 -4.76599,-0.90113c-2.82355,0 -5.34672,0.88111 -7.52946,2.6233s-3.60453,3.98501 -4.22531,6.72845c-2.22279,0.52065 -4.04508,1.68211 -5.48689,3.48438c-1.36171,1.76221 -2.08262,3.8248 -2.08262,6.14772zm16.22038,19.6647c0,0.3204 0.10013,0.6408 0.30038,0.92116c0.20025,0.30038 0.50063,0.50063 0.90113,0.60075c0.22028,0.04005 0.42053,0.06008 0.60075,0.06008c0.82103,0 1.32166,-0.42053 1.52191,-1.26158l4.64584,-17.60211c0.12015,-0.4806 0.0801,-0.90113 -0.14018,-1.30164c-0.22028,-0.4005 -0.5607,-0.66083 -1.00126,-0.78098c-0.46058,-0.14018 -0.90113,-0.10013 -1.30164,0.12015c-0.4005,0.22028 -0.68086,0.54068 -0.80101,0.98123l-4.64584,17.70224c-0.06008,0.20025 -0.0801,0.38048 -0.0801,0.5607zm8.35049,-6.0476c0,0.3204 0.10013,0.6408 0.30038,0.92116c0.20025,0.28035 0.50063,0.50063 0.92116,0.62078c0.06008,0 0.1602,0 0.30038,0.02003c0.14018,0.02003 0.26033,0.02003 0.3204,0.02003c0.76096,0 1.24156,-0.42053 1.44181,-1.26158l3.00377,-11.55451c0.12015,-0.4806 0.0801,-0.92116 -0.1602,-1.32166c-0.22028,-0.38048 -0.5607,-0.6408 -1.02128,-0.76096c-0.46058,-0.14018 -0.90113,-0.10013 -1.30164,0.12015c-0.4005,0.22028 -0.66083,0.54068 -0.78098,1.00126l-3.00377,11.65464c0,0.20025 -0.02003,0.38048 -0.02003,0.54068zm2.48312,-29.89756c0.66083,-1.14143 1.54194,-2.00252 2.66335,-2.60327c1.10138,-0.60075 2.28287,-0.90113 3.52443,-0.90113c0.2403,0 0.44055,0 0.54068,0.02003l0,0.6408c0,1.92241 0.52065,3.7447 1.56196,5.46687s2.50314,3.0238 4.34546,3.94496c-0.36045,0.84106 -0.88111,1.54194 -1.58199,2.14269c-1.84231,-1.58199 -3.98501,-2.36297 -6.4481,-2.36297l-0.6408,0c-0.5607,-2.52317 -1.88236,-4.62581 -3.96498,-6.34797z"/>
</g>

<g stroke-width="2.5" stroke-opacity="0.4" stroke="midnightblue">

  <path id="moonfillback" stroke-width="0.1" fill="paleturquoise"  fill-opacity="0.2" style="filter:url(#blur_shadow)" d="m39.9567,27.27653zm-4.53863,-9.71987c0.62256,-1.1447 1.50618,-2.02832 2.61072,-2.6308c1.10453,-0.60247 2.2894,-0.90371 3.53451,-0.88363c0.22091,0 0.40165,0.02008 0.50206,0.04016l0,0.62256c0,1.96808 0.52214,3.79558 1.56643,5.52267c1.04429,1.72709 2.5103,3.03245 4.35789,3.91607c-0.38157,0.88363 -0.88363,1.58651 -1.50618,2.14882c-1.76725,-1.58651 -3.93616,-2.36973 -6.52679,-2.36973l-0.64264,0c-0.52214,-2.5103 -1.80742,-4.63904 -3.89599,-6.36613l-0.00001,0.00001z"/>

  <path stroke-width="0" filter="url(#blur_shadow)" fill="paleturquoise" fill-opacity="0.3" d="m11.43267,33.85888c0,1.81002 0.66685,3.38188 1.95292,4.66796s2.88175,1.95292 4.73941,1.95292l22.10135,0c1.83385,0 3.42952,-0.64303 4.73941,-1.95292c1.30989,-1.30989 1.97674,-2.85793 1.97674,-4.66796c0,-1.81002 -0.64303,-3.38188 -1.97674,-4.66796c-1.30989,-1.28607 -2.88175,-1.95292 -4.73941,-1.95292l-3.31044,0c-0.23816,0 -0.35724,-0.11908 -0.35724,-0.35724l-0.16671,-1.16699c-0.23816,-2.23872 -1.19081,-4.1202 -2.83411,-5.59679s-3.59624,-2.2149 -5.83495,-2.2149c-2.23872,0 -4.19163,0.7383 -5.85877,2.23872c-1.66713,1.4766 -2.59596,3.35807 -2.8103,5.57298l-0.16671,1.00028c0,0.23816 -0.11908,0.35724 -0.38106,0.35724l-1.07172,0.16671c-1.71476,0.14289 -3.14373,0.85738 -4.31071,2.11963c-1.09554,1.26226 -1.69095,2.76268 -1.69095,4.50125l-0.00001,-0.00001l-0.00001,0z"/>
  <path id="cloudmoon" fill="linen" d="m8.26664,33.78325c0,2.67096 0.92379,4.98044 2.79146,6.88827s4.13698,2.95212 6.82802,3.07261c0.24099,0 0.36148,-0.12049 0.36148,-0.3414l0,-2.69105c0,-0.22091 -0.12049,-0.3414 -0.36148,-0.3414c-1.72709,-0.08033 -3.17302,-0.76313 -4.37797,-2.04841s-1.80742,-2.79146 -1.80742,-4.53863c0,-1.66684 0.56231,-3.11278 1.68692,-4.35789c1.12462,-1.22503 2.53039,-1.948 4.21731,-2.14882l1.06437,-0.06025c0.26107,0 0.40165,-0.12049 0.40165,-0.36148l0.14058,-1.08445c0.22091,-2.1689 1.12462,-3.9964 2.75129,-5.46242c1.62668,-1.46602 3.53451,-2.20907 5.72349,-2.20907c2.1689,0 4.07673,0.74305 5.72349,2.20907c1.64676,1.46602 2.57055,3.29352 2.81154,5.46242l0.16066,1.16478c0,0.22091 0.12049,0.3414 0.3414,0.3414l3.23327,0c1.78734,0 3.33368,0.64264 4.63904,1.92791c1.30536,1.28528 1.96808,2.81154 1.96808,4.55871c0,1.74717 -0.60247,3.25335 -1.80742,4.53863c-1.20495,1.28528 -2.67096,1.96808 -4.37797,2.04841c-0.26107,0 -0.40165,0.12049 -0.40165,0.3414l0,2.69105c0,0.22091 0.14058,0.3414 0.40165,0.3414c2.67096,-0.08033 4.94028,-1.10453 6.78786,-3.03245c1.86767,-1.92791 2.79146,-4.23739 2.79146,-6.92844c0,-1.72709 -0.44181,-3.33368 -1.30536,-4.83986c1.58651,-1.4861 2.61072,-3.25335 3.11278,-5.2616l0.26107,-1.3656c0.04016,-0.02008 0.06025,-0.06025 0.06025,-0.14058c0,-0.14058 -0.10041,-0.26107 -0.32132,-0.32132l-1.12462,-0.3414c-1.1447,-0.3414 -2.10865,-0.90371 -2.93203,-1.70701c-0.8033,-0.8033 -1.38569,-1.62668 -1.72709,-2.5103c-0.3414,-0.86354 -0.50206,-1.74717 -0.50206,-2.65088c-0.02008,-0.48198 0.04016,-1.0242 0.16066,-1.58651l0.28115,-1.16478c0.06025,-0.18074 -0.04016,-0.32132 -0.28115,-0.44181l-1.60659,-0.50206c-0.84346,-0.24099 -1.72709,-0.38157 -2.6308,-0.38157c-0.70288,0 -1.42585,0.08033 -2.1689,0.26107s-1.52626,0.44181 -2.34964,0.8033c-0.82338,0.36148 -1.60659,0.90371 -2.38981,1.60659c-0.76313,0.70288 -1.44593,1.50618 -2.00824,2.45006c-1.50618,-0.64264 -3.09269,-0.98404 -4.75953,-0.98404c-2.83162,0 -5.36201,0.88363 -7.55099,2.6308s-3.59475,3.9964 -4.21731,6.7477c-2.22915,0.52214 -4.05665,1.66684 -5.50258,3.47426s-2.18898,3.93616 -2.18898,6.24563l-0.00002,0.00001zm27.15143,-16.22659c0.62256,-1.1447 1.50618,-2.02832 2.61072,-2.6308c1.10453,-0.60247 2.2894,-0.90371 3.53451,-0.88363c0.22091,0 0.40165,0.02008 0.50206,0.04016l0,0.62256c0,1.96808 0.52214,3.79558 1.56643,5.52267c1.04429,1.72709 2.5103,3.03245 4.35789,3.91607c-0.38157,0.88363 -0.88363,1.58651 -1.50618,2.14882c-1.76725,-1.58651 -3.93616,-2.36973 -6.52679,-2.36973l-0.64264,0c-0.52214,-2.5103 -1.80742,-4.63904 -3.89599,-6.36613l-0.00001,0.00001z"/>

<g stroke-width="1" >

<path fill="bisque" d="m14.04562,46.69816c-0.07987,0.27955 0,0.41933 0.27955,0.41933l4.23319,0l-2.57586,8.34658l0.5591,0l8.44642,-11.22196c0.07987,-0.07987 0.07987,-0.17971 0.03994,-0.27955c-0.0599,-0.09984 -0.13978,-0.13978 -0.27955,-0.13978l-4.353,0l4.93207,-9.2651c0.13978,-0.27955 0.0599,-0.43929 -0.25958,-0.43929l-5.9105,0c-0.17971,0 -0.31949,0.09984 -0.43929,0.29952l-2.13656,5.75075l-2.53593,6.5295z"/>
  <path id="halfrain" fill="cornflowerblue" d="m24.30036,53.52577c0,0.3204 0.10013,0.6408 0.30038,0.92116c0.20025,0.30038 0.50063,0.50063 0.90113,0.60075c0.22028,0.04005 0.42053,0.06008 0.60075,0.06008c0.82103,0 1.32166,-0.42053 1.52191,-1.26158l4.64584,-17.60211c0.12015,-0.4806 0.0801,-0.90113 -0.14018,-1.30164c-0.22028,-0.4005 -0.5607,-0.66083 -1.00126,-0.78098c-0.46058,-0.14018 -0.90113,-0.10013 -1.30164,0.12015c-0.4005,0.22028 -0.68086,0.54068 -0.80101,0.98123l-4.64584,17.70224c-0.06008,0.20025 -0.0801,0.38048 -0.0801,0.5607l0.00002,0zm8.35049,-6.0476c0,0.3204 0.10013,0.6408 0.30038,0.92116c0.20025,0.28035 0.50063,0.50063 0.92116,0.62078c0.06008,0 0.1602,0 0.30038,0.02003c0.14018,0.02003 0.26033,0.02003 0.3204,0.02003c0.76096,0 1.24156,-0.42053 1.44181,-1.26158l3.00377,-11.55451c0.12015,-0.4806 0.0801,-0.92116 -0.1602,-1.32166c-0.22028,-0.38048 -0.5607,-0.6408 -1.02128,-0.76096c-0.46058,-0.14018 -0.90113,-0.10013 -1.30164,0.12015c-0.4005,0.22028 -0.66083,0.54068 -0.78098,1.00126l-3.00377,11.65464c0,0.20025 -0.02003,0.38048 -0.02003,0.54068l0,-0.00002z"/>

</g>
</g>

  <path id="moonfill" stroke-width="0" fill="paleturquoise"  fill-opacity="0.5" d="m39.9567,27.27653zm-4.53863,-9.71987c0.62256,-1.1447 1.50618,-2.02832 2.61072,-2.6308c1.10453,-0.60247 2.2894,-0.90371 3.53451,-0.88363c0.22091,0 0.40165,0.02008 0.50206,0.04016l0,0.62256c0,1.96808 0.52214,3.79558 1.56643,5.52267c1.04429,1.72709 2.5103,3.03245 4.35789,3.91607c-0.38157,0.88363 -0.88363,1.58651 -1.50618,2.14882c-1.76725,-1.58651 -3.93616,-2.36973 -6.52679,-2.36973l-0.64264,0c-0.52214,-2.5103 -1.80742,-4.63904 -3.89599,-6.36613l-0.00001,0.00001z"/>


</svg>



