<svg width="60" height="60" xmlns="http://www.w3.org/2000/svg">

  <defs>
    <filter id="drop_shadow" filterUnits="objectBoundingBox" x="-50%" y="-50%" width="200%" height="200%">
      <feDropShadow dx="0.5" dy="0.5" stdDeviation="2" flood-color="black" flood-opacity="0.8" />
    </filter>
    <filter id="blur_shadow" filterUnits="objectBoundingBox" x="-50%" y="-50%" width="200%" height="200%">
      <feGaussianBlur in="SourceGraphic" stdDeviation="3" />
    </filter>
    <filter id="shadow">
      <feDropShadow dx="0.3" dy="0.6" stdDeviation="0.6" flood-color="black"/>
    </filter>
  </defs>

<g fill="black" style="filter:url(#blur_shadow)">
<path d="m9.183037,35.198838c1.405091,-0.06485 2.594014,-0.60527 3.566769,-1.621259c0.972755,-1.015989 1.469941,-2.226529 1.469941,-3.63162c0,1.405091 0.475569,2.615631 1.448324,3.63162c0.972755,1.015989 2.161678,1.556408 3.566769,1.621259c-1.405091,0.06485 -2.594014,0.60527 -3.566769,1.621259c-0.972755,1.015989 -1.448324,2.226529 -1.448324,3.63162c0,-1.405091 -0.475569,-2.615631 -1.469941,-3.63162c-0.972755,-1.015989 -2.161678,-1.556408 -3.566769,-1.621259zm5.03671,-15.564084c2.723715,-0.129701 5.03671,-1.188923 6.938987,-3.177667c1.902277,-1.988744 2.853415,-4.344973 2.853415,-7.090305c0,2.745331 0.951138,5.101561 2.853415,7.090305s4.215273,3.02635 6.960604,3.177667c-1.794193,0.086467 -3.437069,0.583653 -4.950243,1.534792c-1.491558,0.929522 -2.680481,2.183295 -3.566769,3.739703c-0.864671,1.556408 -1.297007,3.220901 -1.297007,5.03671c0,-2.745331 -0.951138,-5.123178 -2.853415,-7.111922c-1.902277,-2.010361 -4.215273,-3.069583 -6.938987,-3.199284l0,0.000001zm7.176772,23.281276c2.053594,-0.086467 3.804554,-0.886288 5.231262,-2.377846c1.426708,-1.491558 2.140062,-3.264134 2.140062,-5.339345c0,2.075211 0.713354,3.847787 2.140062,5.339345c1.426708,1.491558 3.15605,2.291379 5.209645,2.377846c-2.053594,0.086467 -3.782937,0.886288 -5.209645,2.377846c-1.426708,1.491558 -2.140062,3.264134 -2.140062,5.339345c0,-2.075211 -0.713354,-3.847787 -2.140062,-5.339345c-1.448324,-1.491558 -3.177667,-2.269762 -5.231262,-2.377846zm14.721029,-10.246355c2.053594,-0.086467 3.782937,-0.886288 5.209645,-2.377846c1.426708,-1.491558 2.118445,-3.264134 2.118445,-5.360962c0,2.075211 0.713354,3.847787 2.140062,5.339345s3.177667,2.291379 5.231262,2.377846c-2.053594,0.086467 -3.804554,0.886288 -5.231262,2.377846c-1.426708,1.491558 -2.140062,3.264134 -2.140062,5.339345c0,-2.075211 -0.713354,-3.847787 -2.118445,-5.339345c-1.426708,-1.469941 -3.15605,-2.269762 -5.209645,-2.356229z"/>
</g>

  <g>
   <path d="m9.183037,35.198838c1.405091,-0.06485 2.594014,-0.60527 3.566769,-1.621259c0.972755,-1.015989 1.469941,-2.226529 1.469941,-3.63162c0,1.405091 0.475569,2.615631 1.448324,3.63162c0.972755,1.015989 2.161678,1.556408 3.566769,1.621259c-1.405091,0.06485 -2.594014,0.60527 -3.566769,1.621259c-0.972755,1.015989 -1.448324,2.226529 -1.448324,3.63162c0,-1.405091 -0.475569,-2.615631 -1.469941,-3.63162c-0.972755,-1.015989 -2.161678,-1.556408 -3.566769,-1.621259zm5.03671,-15.564084c2.723715,-0.129701 5.03671,-1.188923 6.938987,-3.177667c1.902277,-1.988744 2.853415,-4.344973 2.853415,-7.090305c0,2.745331 0.951138,5.101561 2.853415,7.090305s4.215273,3.02635 6.960604,3.177667c-1.794193,0.086467 -3.437069,0.583653 -4.950243,1.534792c-1.491558,0.929522 -2.680481,2.183295 -3.566769,3.739703c-0.864671,1.556408 -1.297007,3.220901 -1.297007,5.03671c0,-2.745331 -0.951138,-5.123178 -2.853415,-7.111922c-1.902277,-2.010361 -4.215273,-3.069583 -6.938987,-3.199284l0,0.000001zm7.176772,23.281276c2.053594,-0.086467 3.804554,-0.886288 5.231262,-2.377846c1.426708,-1.491558 2.140062,-3.264134 2.140062,-5.339345c0,2.075211 0.713354,3.847787 2.140062,5.339345c1.426708,1.491558 3.15605,2.291379 5.209645,2.377846c-2.053594,0.086467 -3.782937,0.886288 -5.209645,2.377846c-1.426708,1.491558 -2.140062,3.264134 -2.140062,5.339345c0,-2.075211 -0.713354,-3.847787 -2.140062,-5.339345c-1.448324,-1.491558 -3.177667,-2.269762 -5.231262,-2.377846zm14.721029,-10.246355c2.053594,-0.086467 3.782937,-0.886288 5.209645,-2.377846c1.426708,-1.491558 2.118445,-3.264134 2.118445,-5.360962c0,2.075211 0.713354,3.847787 2.140062,5.339345s3.177667,2.291379 5.231262,2.377846c-2.053594,0.086467 -3.804554,0.886288 -5.231262,2.377846c-1.426708,1.491558 -2.140062,3.264134 -2.140062,5.339345c0,-2.075211 -0.713354,-3.847787 -2.118445,-5.339345c-1.426708,-1.469941 -3.15605,-2.269762 -5.209645,-2.356229z" fill="lightblue" stroke-width="2" stroke-opacity="0.4" stroke="midnightblue" fill-opacity="0.9"/>
   <path d="m13.242914,35.742172c0.422854,-0.018426 0.780654,-0.171978 1.073399,-0.460654c0.292745,-0.288677 0.44237,-0.632632 0.44237,-1.031865c0,0.399234 0.14312,0.743189 0.435865,1.031865c0.292745,0.288677 0.650545,0.442228 1.073399,0.460654c-0.422854,0.018426 -0.780654,0.171978 -1.073399,0.460654c-0.292745,0.288677 -0.435865,0.632632 -0.435865,1.031865c0,-0.399234 -0.14312,-0.743189 -0.44237,-1.031865c-0.292745,-0.288677 -0.650545,-0.442228 -1.073399,-0.460654z" fill="white" fill-opacity="0.4"/>
   <path d="m27.829405,43.863194c0.461222,-0.021398 0.852894,-0.196147 1.175017,-0.524247c0.322123,-0.3281 0.483185,-0.716828 0.483185,-1.169749c0,0.452921 0.161062,0.841649 0.483185,1.169749s0.713795,0.499283 1.178678,0.524247c-0.30382,0.014265 -0.582018,0.09629 -0.838253,0.253208c-0.252574,0.153351 -0.453901,0.360197 -0.603981,0.616971c-0.14642,0.256774 -0.219629,0.53138 -0.219629,0.83095c0,-0.452921 -0.161062,-0.845215 -0.483185,-1.173316c-0.322123,-0.331667 -0.713795,-0.506416 -1.175017,-0.527814l0,0.000001z" fill="white" fill-opacity="0.4"/>
   <path d="m26.429795,19.961969c0.373725,-0.016191 0.688441,-0.165957 0.948081,-0.445251c0.259641,-0.279294 0.385527,-0.611209 0.385527,-1.00384c0,0.388583 0.12982,0.720498 0.389461,0.999792s0.57829,0.42906 0.952015,0.445251c-0.373725,0.016191 -0.692375,0.165957 -0.952015,0.445251c-0.259641,0.279294 -0.389461,0.611209 -0.389461,0.999792c0,-0.388583 -0.12982,-0.720498 -0.385527,-0.999792c-0.259641,-0.275246 -0.574356,-0.425013 -0.948081,-0.441204l0,0.000001z" fill="white" fill-opacity="0.4"/>
   <path d="m44.070047,33.577931c0.374571,-0.018292 0.693943,-0.187491 0.954171,-0.503023c0.260229,-0.315533 0.390343,-0.690514 0.390343,-1.129516c0,0.439002 0.130114,0.813983 0.390343,1.129516c0.260229,0.315533 0.575657,0.484732 0.950228,0.503023c-0.374571,0.018292 -0.69,0.187491 -0.950228,0.503023c-0.260229,0.315533 -0.390343,0.690514 -0.390343,1.129516c0,-0.439002 -0.130114,-0.813983 -0.390343,-1.129516c-0.264171,-0.315533 -0.5796,-0.480159 -0.954171,-0.503023z" fill="white" fill-opacity="0.4"/>
  </g>

</svg>
