<svg width="60" height="60" xmlns="http://www.w3.org/2000/svg">


  <defs>
    <filter id="drop_shadow" filterUnits="objectBoundingBox" x="-50%" y="-50%" width="200%" height="200%">
      <feDropShadow dx="0.5" dy="0.5" stdDeviation="2" flood-color="black" flood-opacity="0.8" />
    </filter>
    <filter id="blur_shadow" filterUnits="objectBoundingBox" x="-50%" y="-50%" width="200%" height="200%">
      <feGaussianBlur in="SourceGraphic" stdDeviation="3" />
    </filter>
  </defs>


<path d="m6.36751,31.94403c0,1.49875 0.78196,2.78029 2.34587,3.84462c2.86718,2.02006 7.18966,3.01922 12.98918,3.01922c2.60652,0 5.01756,-0.21721 7.25483,-0.67335c2.34587,-0.49958 4.27904,-1.30326 5.75608,-2.38931s2.23727,-2.34587 2.23727,-3.8229c0,-0.45614 -0.08688,-0.89056 -0.26065,-1.3467c3.01922,-0.73852 5.38682,-1.73768 7.10278,-2.9975s2.5848,-2.71513 2.5848,-4.34421c0,-0.4127 -0.06516,-0.84712 -0.19549,-1.30326c4.97412,-1.7594 7.45032,-4.127 7.45032,-7.1245c0,-1.91145 -1.08605,-3.60569 -3.23643,-5.08272c-4.2356,-2.82374 -10.44782,-4.2356 -18.63665,-4.2356c-3.86634,0 -7.36343,0.34754 -10.49126,1.02089c-3.4102,0.69507 -6.14705,1.78113 -8.23227,3.25816s-3.12783,3.17127 -3.12783,5.061c0,1.12949 0.34754,2.15038 1.04261,3.08439c-2.56308,1.45531 -3.84462,3.23643 -3.84462,5.34338c0,1.62908 0.80368,3.06267 2.38931,4.30077c-2.08522,1.21638 -3.12783,2.67169 -3.12783,4.38765l-0.00002,-0.00003zm1.30326,9.77447c0,1.58564 0.97745,2.84546 2.93234,3.73602s4.43109,1.3467 7.40687,1.3467c3.01922,0 5.49542,-0.45614 7.47204,-1.3467s2.95406,-2.15038 2.95406,-3.73602c0,-0.58647 -0.19549,-1.08605 -0.56475,-1.49875s-0.86884,-0.60819 -1.45531,-0.60819c-0.47786,0 -0.91228,0.17377 -1.30326,0.49958s-0.62991,0.76024 -0.73852,1.2381c-0.43442,0.34754 -1.21638,0.65163 -2.38931,0.934s-2.49792,0.43442 -3.97495,0.43442c-2.38931,0 -4.34421,-0.34754 -5.82124,-1.02089c0.34754,-0.34754 0.5213,-0.78196 0.56475,-1.30326s-0.08688,-0.97745 -0.32582,-1.3467c-0.34754,-0.45614 -0.78196,-0.76024 -1.32498,-0.86884s-1.04261,0 -1.52047,0.28237c-1.28154,0.89056 -1.91145,1.95489 -1.91145,3.25816zm2.78029,-9.77447c0,-0.02172 0.13033,-0.15205 0.4127,-0.39098c0.19549,-0.19549 0.60819,-0.43442 1.21638,-0.73852s1.32498,-0.54303 2.08522,-0.76024l0.26065,-0.13033c3.51881,1.17294 7.62408,1.7594 12.31583,1.7594c2.0635,0 3.93151,-0.10861 5.60403,-0.34754l0.56475,0.49958c-0.19549,0.34754 -0.65163,0.69507 -1.36843,1.08605c-0.86884,0.45614 -2.21555,0.89056 -4.04011,1.2381s-3.75774,0.54303 -5.79952,0.54303s-3.97495,-0.17377 -5.79952,-0.54303s-3.19299,-0.78196 -4.08356,-1.2381c-0.73852,-0.30409 -1.19466,-0.62991 -1.36843,-0.97745l0.00001,0.00003zm0.23893,18.28911c0,1.36843 0.78196,2.43276 2.34587,3.17127s3.49709,1.10777 5.79952,1.10777c2.34587,0 4.32249,-0.36926 5.90812,-1.10777s2.38931,-1.80285 2.38931,-3.17127c0,-0.54303 -0.19549,-1.04261 -0.60819,-1.45531s-0.89056,-0.62991 -1.43359,-0.62991c-1.02089,0 -1.69424,0.5213 -1.99834,1.56391c-0.84712,0.5213 -2.25899,0.80368 -4.25732,0.80368c-1.73768,0 -3.12783,-0.26065 -4.17044,-0.80368c-0.32582,-1.04261 -0.97745,-1.56391 -1.99834,-1.56391c-0.54303,0 -1.02089,0.19549 -1.39015,0.60819s-0.58647,0.89056 -0.58647,1.47703l0.00002,0zm0.45614,-26.97753c0,-0.17377 0.10861,-0.36926 0.32582,-0.60819c0.5213,-0.65163 1.56391,-1.30326 3.08439,-1.91145c4.17044,2.23727 9.90479,3.34504 17.18134,3.34504c3.7143,0 7.21138,-0.34754 10.46954,-1.02089l0,0.19549c0,0.32582 -0.19549,0.65163 -0.60819,0.97745c-0.89056,0.78196 -2.54136,1.52047 -4.97412,2.23727c-2.62825,0.78196 -5.92984,1.17294 -9.90479,1.17294c-3.99667,0 -7.29827,-0.39098 -9.92651,-1.17294c-2.51964,-0.69507 -4.19216,-1.43359 -5.03928,-2.21555c-0.4127,-0.32582 -0.60819,-0.65163 -0.60819,-0.99917l-0.00001,0zm2.82374,-8.42776c0,-0.39098 0.26065,-0.80368 0.76024,-1.28154c0.97745,-0.91228 2.93234,-1.78113 5.82124,-2.62825c3.10611,-0.91228 6.82041,-1.36843 11.16461,-1.36843c4.36593,0 8.12367,0.45614 11.27322,1.36843c2.93234,0.84712 4.86551,1.73768 5.82124,2.64997c0.47786,0.47786 0.73852,0.91228 0.73852,1.28154s-0.23893,0.76024 -0.73852,1.21638c-0.95573,0.91228 -2.8889,1.80285 -5.82124,2.67169c-3.14955,0.91228 -6.88557,1.36843 -11.27322,1.36843c-4.34421,0 -8.08023,-0.45614 -11.16461,-1.36843c-2.91062,-0.86884 -4.86551,-1.7594 -5.82124,-2.69341c-0.49958,-0.45614 -0.76024,-0.84712 -0.76024,-1.21638z" fill="black" filter="url(#blur_shadow)" />


<path d="m6.36751,31.94403c0,1.49875 0.78196,2.78029 2.34587,3.84462c2.86718,2.02006 7.18966,3.01922 12.98918,3.01922c2.60652,0 5.01756,-0.21721 7.25483,-0.67335c2.34587,-0.49958 4.27904,-1.30326 5.75608,-2.38931s2.23727,-2.34587 2.23727,-3.8229c0,-0.45614 -0.08688,-0.89056 -0.26065,-1.3467c3.01922,-0.73852 5.38682,-1.73768 7.10278,-2.9975s2.5848,-2.71513 2.5848,-4.34421c0,-0.4127 -0.06516,-0.84712 -0.19549,-1.30326c4.97412,-1.7594 7.45032,-4.127 7.45032,-7.1245c0,-1.91145 -1.08605,-3.60569 -3.23643,-5.08272c-4.2356,-2.82374 -10.44782,-4.2356 -18.63665,-4.2356c-3.86634,0 -7.36343,0.34754 -10.49126,1.02089c-3.4102,0.69507 -6.14705,1.78113 -8.23227,3.25816s-3.12783,3.17127 -3.12783,5.061c0,1.12949 0.34754,2.15038 1.04261,3.08439c-2.56308,1.45531 -3.84462,3.23643 -3.84462,5.34338c0,1.62908 0.80368,3.06267 2.38931,4.30077c-2.08522,1.21638 -3.12783,2.67169 -3.12783,4.38765l-0.00002,-0.00003zm1.30326,9.77447c0,1.58564 0.97745,2.84546 2.93234,3.73602s4.43109,1.3467 7.40687,1.3467c3.01922,0 5.49542,-0.45614 7.47204,-1.3467s2.95406,-2.15038 2.95406,-3.73602c0,-0.58647 -0.19549,-1.08605 -0.56475,-1.49875s-0.86884,-0.60819 -1.45531,-0.60819c-0.47786,0 -0.91228,0.17377 -1.30326,0.49958s-0.62991,0.76024 -0.73852,1.2381c-0.43442,0.34754 -1.21638,0.65163 -2.38931,0.934s-2.49792,0.43442 -3.97495,0.43442c-2.38931,0 -4.34421,-0.34754 -5.82124,-1.02089c0.34754,-0.34754 0.5213,-0.78196 0.56475,-1.30326s-0.08688,-0.97745 -0.32582,-1.3467c-0.34754,-0.45614 -0.78196,-0.76024 -1.32498,-0.86884s-1.04261,0 -1.52047,0.28237c-1.28154,0.89056 -1.91145,1.95489 -1.91145,3.25816zm2.78029,-9.77447c0,-0.02172 0.13033,-0.15205 0.4127,-0.39098c0.19549,-0.19549 0.60819,-0.43442 1.21638,-0.73852s1.32498,-0.54303 2.08522,-0.76024l0.26065,-0.13033c3.51881,1.17294 7.62408,1.7594 12.31583,1.7594c2.0635,0 3.93151,-0.10861 5.60403,-0.34754l0.56475,0.49958c-0.19549,0.34754 -0.65163,0.69507 -1.36843,1.08605c-0.86884,0.45614 -2.21555,0.89056 -4.04011,1.2381s-3.75774,0.54303 -5.79952,0.54303s-3.97495,-0.17377 -5.79952,-0.54303s-3.19299,-0.78196 -4.08356,-1.2381c-0.73852,-0.30409 -1.19466,-0.62991 -1.36843,-0.97745l0.00001,0.00003zm0.23893,18.28911c0,1.36843 0.78196,2.43276 2.34587,3.17127s3.49709,1.10777 5.79952,1.10777c2.34587,0 4.32249,-0.36926 5.90812,-1.10777s2.38931,-1.80285 2.38931,-3.17127c0,-0.54303 -0.19549,-1.04261 -0.60819,-1.45531s-0.89056,-0.62991 -1.43359,-0.62991c-1.02089,0 -1.69424,0.5213 -1.99834,1.56391c-0.84712,0.5213 -2.25899,0.80368 -4.25732,0.80368c-1.73768,0 -3.12783,-0.26065 -4.17044,-0.80368c-0.32582,-1.04261 -0.97745,-1.56391 -1.99834,-1.56391c-0.54303,0 -1.02089,0.19549 -1.39015,0.60819s-0.58647,0.89056 -0.58647,1.47703l0.00002,0zm0.45614,-26.97753c0,-0.17377 0.10861,-0.36926 0.32582,-0.60819c0.5213,-0.65163 1.56391,-1.30326 3.08439,-1.91145c4.17044,2.23727 9.90479,3.34504 17.18134,3.34504c3.7143,0 7.21138,-0.34754 10.46954,-1.02089l0,0.19549c0,0.32582 -0.19549,0.65163 -0.60819,0.97745c-0.89056,0.78196 -2.54136,1.52047 -4.97412,2.23727c-2.62825,0.78196 -5.92984,1.17294 -9.90479,1.17294c-3.99667,0 -7.29827,-0.39098 -9.92651,-1.17294c-2.51964,-0.69507 -4.19216,-1.43359 -5.03928,-2.21555c-0.4127,-0.32582 -0.60819,-0.65163 -0.60819,-0.99917l-0.00001,0zm2.82374,-8.42776c0,-0.39098 0.26065,-0.80368 0.76024,-1.28154c0.97745,-0.91228 2.93234,-1.78113 5.82124,-2.62825c3.10611,-0.91228 6.82041,-1.36843 11.16461,-1.36843c4.36593,0 8.12367,0.45614 11.27322,1.36843c2.93234,0.84712 4.86551,1.73768 5.82124,2.64997c0.47786,0.47786 0.73852,0.91228 0.73852,1.28154s-0.23893,0.76024 -0.73852,1.21638c-0.95573,0.91228 -2.8889,1.80285 -5.82124,2.67169c-3.14955,0.91228 -6.88557,1.36843 -11.27322,1.36843c-4.34421,0 -8.08023,-0.45614 -11.16461,-1.36843c-2.91062,-0.86884 -4.86551,-1.7594 -5.82124,-2.69341c-0.49958,-0.45614 -0.76024,-0.84712 -0.76024,-1.21638z" fill="crimson" stroke-width="2.5" stroke-opacity="0.4" stroke="midnightblue"/>
</svg>
