<svg width="60" height="60" xmlns="http://www.w3.org/2000/svg">

  <defs>
    <filter id="drop_shadow" filterUnits="objectBoundingBox" x="-50%" y="-50%" width="200%" height="200%">
      <feDropShadow dx="0.5" dy="0.5" stdDeviation="2" flood-color="black" flood-opacity="0.8" />
    </filter>
    <filter id="blur_shadow" filterUnits="objectBoundingBox" x="-50%" y="-50%" width="200%" height="200%">
      <feGaussianBlur in="SourceGraphic" stdDeviation="3" />
    </filter>
  </defs>

<g fill="black" style="filter:url(#blur_shadow);">
  <path d="m6.70002,34.31087c0,-0.69824 0.24287,-1.24469 0.69824,-1.70006c0.48573,-0.45537 1.12326,-0.66788 1.94293,-0.66788l17.33457,0c0.81967,0 1.4572,0.21251 1.94293,0.66788c0.48573,0.45537 0.69824,1.00182 0.69824,1.70006c0,0.81967 -0.24287,1.48756 -0.69824,1.94293s-1.12326,0.69824 -1.94293,0.69824l-17.33457,0c-0.81967,0 -1.4572,-0.24287 -1.94293,-0.69824s-0.69824,-1.0929 -0.69824,-1.94293zm0,-17.94174c0,-0.66788 0.24287,-1.24469 0.69824,-1.66971c0.48573,-0.45537 1.12326,-0.66788 1.94293,-0.66788l8.98605,0c0.81967,0 1.4572,0.21251 1.94293,0.66788c0.48573,0.42502 0.7286,1.00182 0.7286,1.66971c0,0.81967 -0.24287,1.4572 -0.7286,1.94293c-0.48573,0.48573 -1.12326,0.7286 -1.94293,0.7286l-8.98605,0c-0.81967,0 -1.4572,-0.24287 -1.94293,-0.69824s-0.69824,-1.15361 -0.69824,-1.97329zm3.00547,26.92779c0,-0.66788 0.27322,-1.27505 0.85003,-1.8215c0.54645,-0.54645 1.18397,-0.85003 1.8215,-0.85003c0.78932,0 1.39648,0.27322 1.88221,0.81967s0.7286,1.15361 0.7286,1.85185c0,0.81967 -0.24287,1.48756 -0.69824,1.97329c-0.45537,0.48573 -1.0929,0.69824 -1.91257,0.69824c-0.69824,0 -1.33576,-0.24287 -1.85185,-0.7286c-0.57681,-0.51609 -0.81967,-1.15361 -0.81967,-1.94293zm4.31087,-18.00246c0,-0.69824 0.21251,-1.33576 0.66788,-1.85185c0.45537,-0.54645 1.00182,-0.81967 1.63935,-0.81967c0.78932,0 1.4572,0.27322 1.94293,0.81967c0.48573,0.54645 0.7286,1.15361 0.7286,1.85185c0,0.81967 -0.24287,1.48756 -0.69824,1.97329c-0.48573,0.48573 -1.12326,0.69824 -1.97329,0.69824c-0.69824,0 -1.24469,-0.24287 -1.66971,-0.7286s-0.63752,-1.12326 -0.63752,-1.94293zm3.00547,18.00246c0,-0.69824 0.24287,-1.33576 0.7286,-1.85185s1.15361,-0.81967 1.94293,-0.81967l11.62722,0l2.67153,2.67153c0,0.78932 -0.27322,1.42684 -0.81967,1.94293s-1.15361,0.7286 -1.85185,0.7286l-11.62722,0c-0.81967,0 -1.48756,-0.24287 -1.97329,-0.7286s-0.69824,-1.12326 -0.69824,-1.94293zm4.00729,-18.00246c0,-0.66788 0.27322,-1.27505 0.85003,-1.8215c0.54645,-0.54645 1.18397,-0.85003 1.8215,-0.85003l11.62722,0c0.78932,0 1.42684,0.27322 1.91257,0.81967c0.48573,0.54645 0.7286,1.15361 0.7286,1.85185c0,0.81967 -0.24287,1.48756 -0.69824,1.97329c-0.48573,0.48573 -1.12326,0.69824 -1.94293,0.69824l-11.62722,0c-0.69824,0 -1.33576,-0.24287 -1.85185,-0.7286c-0.54645,-0.48573 -0.81967,-1.12326 -0.81967,-1.94293zm2.30723,-8.92533c0,-0.66788 0.24287,-1.24469 0.7286,-1.66971c0.48573,-0.42502 1.12326,-0.66788 1.94293,-0.66788l17.33457,0c0.69824,0 1.30541,0.24287 1.85185,0.69824c0.54645,0.45537 0.81967,1.00182 0.81967,1.63935c0,0.78932 -0.27322,1.4572 -0.81967,1.94293c-0.54645,0.48573 -1.15361,0.7286 -1.85185,0.7286l-17.33457,0c-0.81967,0 -1.48756,-0.24287 -1.97329,-0.7286c-0.48573,-0.48573 -0.69824,-1.12326 -0.69824,-1.94293zm7.98423,17.94174c0,-0.63752 0.27322,-1.21433 0.81967,-1.66971c0.54645,-0.45537 1.15361,-0.69824 1.85185,-0.69824s1.30541,0.24287 1.85185,0.69824c0.54645,0.45537 0.81967,1.03218 0.81967,1.66971c0,0.78932 -0.27322,1.42684 -0.81967,1.91257c-0.54645,0.48573 -1.15361,0.7286 -1.85185,0.7286c-0.69824,0 -1.33576,-0.24287 -1.85185,-0.7286c-0.54645,-0.45537 -0.81967,-1.0929 -0.81967,-1.91257zm4.67517,8.98605c0,-0.69824 0.24287,-1.33576 0.7286,-1.85185c0.48573,-0.54645 1.12326,-0.81967 1.91257,-0.81967l5.677,0c0.78932,0 1.42684,0.27322 1.91257,0.78932c0.48573,0.51609 0.7286,1.15361 0.7286,1.88221c0,0.81967 -0.24287,1.48756 -0.69824,1.97329c-0.45537,0.48573 -1.12326,0.69824 -1.94293,0.69824l-5.677,0c-0.81967,0 -1.4572,-0.24287 -1.94293,-0.69824c-0.45537,-0.48573 -0.69824,-1.15361 -0.69824,-1.97329zm2.64117,-8.98605c0,-0.63752 0.27322,-1.21433 0.81967,-1.66971c0.54645,-0.45537 1.15361,-0.69824 1.85185,-0.69824l9.31999,0c0.66788,0 1.21433,0.24287 1.63935,0.69824c0.42502,0.45537 0.66788,1.00182 0.66788,1.66971c0,0.81967 -0.21251,1.4572 -0.63752,1.94293c-0.42502,0.48573 -0.97146,0.69824 -1.66971,0.69824l-9.31999,0c-0.69824,0 -1.33576,-0.24287 -1.85185,-0.7286c-0.54645,-0.45537 -0.81967,-1.0929 -0.81967,-1.91257zm1.33576,-9.01641c0,-0.66788 0.27322,-1.27505 0.85003,-1.8215c0.54645,-0.54645 1.18397,-0.85003 1.8215,-0.85003l5.95022,0c0.63752,0 1.18397,0.27322 1.63935,0.81967c0.45537,0.54645 0.69824,1.15361 0.69824,1.85185c0,0.81967 -0.21251,1.4572 -0.66788,1.94293c-0.42502,0.48573 -1.00182,0.7286 -1.66971,0.7286l-5.95022,0c-0.69824,0 -1.33576,-0.24287 -1.85185,-0.7286c-0.54645,-0.48573 -0.81967,-1.12326 -0.81967,-1.94293zm8.31817,-8.92533c0,-0.66788 0.21251,-1.21433 0.66788,-1.66971c0.45537,-0.45537 1.00182,-0.66788 1.66971,-0.66788c0.81967,0 1.4572,0.21251 1.94293,0.66788c0.48573,0.42502 0.7286,1.00182 0.7286,1.66971c0,0.81967 -0.24287,1.4572 -0.7286,1.94293c-0.48573,0.48573 -1.12326,0.7286 -1.94293,0.7286c-0.69824,0 -1.24469,-0.24287 -1.66971,-0.7286c-0.45537,-0.48573 -0.66788,-1.12326 -0.66788,-1.94293z"/>
</g>
  <path stroke="midnightblue" fill="linen" stroke-opacity="0.4" stroke-width="2.5" d="m6.70002,34.31087c0,-0.69824 0.24287,-1.24469 0.69824,-1.70006c0.48573,-0.45537 1.12326,-0.66788 1.94293,-0.66788l17.33457,0c0.81967,0 1.4572,0.21251 1.94293,0.66788c0.48573,0.45537 0.69824,1.00182 0.69824,1.70006c0,0.81967 -0.24287,1.48756 -0.69824,1.94293s-1.12326,0.69824 -1.94293,0.69824l-17.33457,0c-0.81967,0 -1.4572,-0.24287 -1.94293,-0.69824s-0.69824,-1.0929 -0.69824,-1.94293zm0,-17.94174c0,-0.66788 0.24287,-1.24469 0.69824,-1.66971c0.48573,-0.45537 1.12326,-0.66788 1.94293,-0.66788l8.98605,0c0.81967,0 1.4572,0.21251 1.94293,0.66788c0.48573,0.42502 0.7286,1.00182 0.7286,1.66971c0,0.81967 -0.24287,1.4572 -0.7286,1.94293c-0.48573,0.48573 -1.12326,0.7286 -1.94293,0.7286l-8.98605,0c-0.81967,0 -1.4572,-0.24287 -1.94293,-0.69824s-0.69824,-1.15361 -0.69824,-1.97329zm3.00547,26.92779c0,-0.66788 0.27322,-1.27505 0.85003,-1.8215c0.54645,-0.54645 1.18397,-0.85003 1.8215,-0.85003c0.78932,0 1.39648,0.27322 1.88221,0.81967s0.7286,1.15361 0.7286,1.85185c0,0.81967 -0.24287,1.48756 -0.69824,1.97329c-0.45537,0.48573 -1.0929,0.69824 -1.91257,0.69824c-0.69824,0 -1.33576,-0.24287 -1.85185,-0.7286c-0.57681,-0.51609 -0.81967,-1.15361 -0.81967,-1.94293zm4.31087,-18.00246c0,-0.69824 0.21251,-1.33576 0.66788,-1.85185c0.45537,-0.54645 1.00182,-0.81967 1.63935,-0.81967c0.78932,0 1.4572,0.27322 1.94293,0.81967c0.48573,0.54645 0.7286,1.15361 0.7286,1.85185c0,0.81967 -0.24287,1.48756 -0.69824,1.97329c-0.48573,0.48573 -1.12326,0.69824 -1.97329,0.69824c-0.69824,0 -1.24469,-0.24287 -1.66971,-0.7286s-0.63752,-1.12326 -0.63752,-1.94293zm3.00547,18.00246c0,-0.69824 0.24287,-1.33576 0.7286,-1.85185s1.15361,-0.81967 1.94293,-0.81967l11.62722,0l2.67153,2.67153c0,0.78932 -0.27322,1.42684 -0.81967,1.94293s-1.15361,0.7286 -1.85185,0.7286l-11.62722,0c-0.81967,0 -1.48756,-0.24287 -1.97329,-0.7286s-0.69824,-1.12326 -0.69824,-1.94293zm4.00729,-18.00246c0,-0.66788 0.27322,-1.27505 0.85003,-1.8215c0.54645,-0.54645 1.18397,-0.85003 1.8215,-0.85003l11.62722,0c0.78932,0 1.42684,0.27322 1.91257,0.81967c0.48573,0.54645 0.7286,1.15361 0.7286,1.85185c0,0.81967 -0.24287,1.48756 -0.69824,1.97329c-0.48573,0.48573 -1.12326,0.69824 -1.94293,0.69824l-11.62722,0c-0.69824,0 -1.33576,-0.24287 -1.85185,-0.7286c-0.54645,-0.48573 -0.81967,-1.12326 -0.81967,-1.94293zm2.30723,-8.92533c0,-0.66788 0.24287,-1.24469 0.7286,-1.66971c0.48573,-0.42502 1.12326,-0.66788 1.94293,-0.66788l17.33457,0c0.69824,0 1.30541,0.24287 1.85185,0.69824c0.54645,0.45537 0.81967,1.00182 0.81967,1.63935c0,0.78932 -0.27322,1.4572 -0.81967,1.94293c-0.54645,0.48573 -1.15361,0.7286 -1.85185,0.7286l-17.33457,0c-0.81967,0 -1.48756,-0.24287 -1.97329,-0.7286c-0.48573,-0.48573 -0.69824,-1.12326 -0.69824,-1.94293zm7.98423,17.94174c0,-0.63752 0.27322,-1.21433 0.81967,-1.66971c0.54645,-0.45537 1.15361,-0.69824 1.85185,-0.69824s1.30541,0.24287 1.85185,0.69824c0.54645,0.45537 0.81967,1.03218 0.81967,1.66971c0,0.78932 -0.27322,1.42684 -0.81967,1.91257c-0.54645,0.48573 -1.15361,0.7286 -1.85185,0.7286c-0.69824,0 -1.33576,-0.24287 -1.85185,-0.7286c-0.54645,-0.45537 -0.81967,-1.0929 -0.81967,-1.91257zm4.67517,8.98605c0,-0.69824 0.24287,-1.33576 0.7286,-1.85185c0.48573,-0.54645 1.12326,-0.81967 1.91257,-0.81967l5.677,0c0.78932,0 1.42684,0.27322 1.91257,0.78932c0.48573,0.51609 0.7286,1.15361 0.7286,1.88221c0,0.81967 -0.24287,1.48756 -0.69824,1.97329c-0.45537,0.48573 -1.12326,0.69824 -1.94293,0.69824l-5.677,0c-0.81967,0 -1.4572,-0.24287 -1.94293,-0.69824c-0.45537,-0.48573 -0.69824,-1.15361 -0.69824,-1.97329zm2.64117,-8.98605c0,-0.63752 0.27322,-1.21433 0.81967,-1.66971c0.54645,-0.45537 1.15361,-0.69824 1.85185,-0.69824l9.31999,0c0.66788,0 1.21433,0.24287 1.63935,0.69824c0.42502,0.45537 0.66788,1.00182 0.66788,1.66971c0,0.81967 -0.21251,1.4572 -0.63752,1.94293c-0.42502,0.48573 -0.97146,0.69824 -1.66971,0.69824l-9.31999,0c-0.69824,0 -1.33576,-0.24287 -1.85185,-0.7286c-0.54645,-0.45537 -0.81967,-1.0929 -0.81967,-1.91257zm1.33576,-9.01641c0,-0.66788 0.27322,-1.27505 0.85003,-1.8215c0.54645,-0.54645 1.18397,-0.85003 1.8215,-0.85003l5.95022,0c0.63752,0 1.18397,0.27322 1.63935,0.81967c0.45537,0.54645 0.69824,1.15361 0.69824,1.85185c0,0.81967 -0.21251,1.4572 -0.66788,1.94293c-0.42502,0.48573 -1.00182,0.7286 -1.66971,0.7286l-5.95022,0c-0.69824,0 -1.33576,-0.24287 -1.85185,-0.7286c-0.54645,-0.48573 -0.81967,-1.12326 -0.81967,-1.94293zm8.31817,-8.92533c0,-0.66788 0.21251,-1.21433 0.66788,-1.66971c0.45537,-0.45537 1.00182,-0.66788 1.66971,-0.66788c0.81967,0 1.4572,0.21251 1.94293,0.66788c0.48573,0.42502 0.7286,1.00182 0.7286,1.66971c0,0.81967 -0.24287,1.4572 -0.7286,1.94293c-0.48573,0.48573 -1.12326,0.7286 -1.94293,0.7286c-0.69824,0 -1.24469,-0.24287 -1.66971,-0.7286c-0.45537,-0.48573 -0.66788,-1.12326 -0.66788,-1.94293z"/>
</svg>
