<svg width="60" height="60" xmlns="http://www.w3.org/2000/svg">

  <defs>
    <filter id="drop_shadow" filterUnits="objectBoundingBox" x="-50%" y="-50%" width="200%" height="200%">
      <feDropShadow dx="0.5" dy="0.5" stdDeviation="2" flood-color="black" flood-opacity="0.8" />
    </filter>
    <filter id="blur_shadow" filterUnits="objectBoundingBox" x="-50%" y="-50%" width="200%" height="200%">
      <feGaussianBlur in="SourceGraphic" stdDeviation="3" />
    </filter>
    <filter id="shadow">
      <feDropShadow dx="0.3" dy="0.6" stdDeviation="0.6" flood-color="black"/>
    </filter>
  </defs>

<g fill="black" style="filter:url(#blur_shadow)">
<path d="m8.13494,33.82072c0,1.33886 0.24343,2.59658 0.77086,3.81372s1.19686,2.25172 2.06915,3.14429c0.87229,0.87229 1.90686,1.60257 3.10372,2.13s2.45458,0.852 3.79344,0.91286c0.22314,0 0.34486,-0.12171 0.34486,-0.34486l0,-2.71829c0,-0.22314 -0.12171,-0.34486 -0.34486,-0.34486c-1.76486,-0.12171 -3.24572,-0.83172 -4.44258,-2.08943c-1.19686,-1.25772 -1.80543,-2.77915 -1.80543,-4.50344c0,-1.704 0.568,-3.18486 1.72429,-4.44258c1.15629,-1.25772 2.55601,-1.96772 4.26001,-2.10972l1.07515,-0.12171c0.26371,0 0.40572,-0.12171 0.40572,-0.38543l0.12171,-1.03457c0.22314,-2.21115 1.136,-4.03687 2.77915,-5.49744s3.57029,-2.19086 5.80173,-2.19086c2.21115,0 4.15858,0.73029 5.78144,2.17058c1.64315,1.46057 2.57629,3.26601 2.79943,5.45687l0.142,1.17657c0,0.24343 0.12171,0.36514 0.38543,0.36514l3.24572,0c1.82572,0 3.38772,0.64914 4.7063,1.94743s1.96772,2.84001 1.96772,4.64544c0,1.74458 -0.60857,3.24572 -1.80543,4.50344c-1.19686,1.25772 -2.69801,1.96772 -4.44258,2.08943c-0.26371,0 -0.40572,0.12171 -0.40572,0.34486l0,2.71829c0,0.22314 0.142,0.34486 0.40572,0.34486c2.71829,-0.12171 5.01058,-1.15629 6.87687,-3.06315c1.86629,-1.92715 2.79943,-4.23972 2.79943,-6.93773c0,-1.46057 -0.284,-2.79943 -0.852,-4.03687c1.58229,-1.90686 2.37343,-4.17887 2.37343,-6.81601c0,-1.90686 -0.46657,-3.67172 -1.42,-5.31487c-0.95343,-1.64315 -2.25172,-2.94143 -3.87458,-3.89487s-3.40801,-1.44029 -5.31487,-1.44029c-3.16458,0 -5.78144,1.17657 -7.87087,3.50944c-1.78515,-0.87229 -3.61086,-1.31857 -5.47715,-1.31857c-2.86029,0 -5.39601,0.89257 -7.60716,2.67772s-3.63115,4.05715 -4.26001,6.85659c-2.23143,0.52743 -4.07744,1.68372 -5.53801,3.50944c-1.54172,1.88658 -2.272,3.95572 -2.272,6.28858zm11.13688,13.55088c0,0.81143 0.44629,1.33886 1.31857,1.58229c0.426,0.142 0.852,0.10143 1.278,-0.12171c0.426,-0.22314 0.71,-0.568 0.83172,-1.01429l3.04286,-11.62374c0.12171,-0.44629 0.06086,-0.87229 -0.18257,-1.278c-0.24343,-0.40572 -0.60857,-0.66943 -1.09543,-0.81143c-0.44629,-0.142 -0.87229,-0.10143 -1.278,0.142s-0.66943,0.58829 -0.79114,1.05486l-3.04286,11.56288c-0.06086,0.22314 -0.08114,0.38543 -0.08114,0.50714zm5.25401,6.18716c0,0.24343 0.06086,0.48686 0.16229,0.75057c0.20286,0.426 0.54772,0.71 1.03457,0.87229c0.04057,0 0.12171,0 0.20286,0.02029s0.16229,0.02029 0.22314,0.02029s0.12171,0 0.18257,0c0.87229,0 1.37943,-0.44629 1.54172,-1.33886l4.66572,-17.72975c0.142,-0.44629 0.10143,-0.87229 -0.12171,-1.278c-0.22314,-0.40572 -0.568,-0.66943 -1.01429,-0.81143c-0.48686,-0.142 -0.95343,-0.10143 -1.37943,0.142s-0.66943,0.58829 -0.77086,1.05486l-4.68601,17.75004c-0.02029,0.20286 -0.04057,0.38543 -0.04057,0.54772zm8.43887,-6.20744c0,0.32457 0.10143,0.62886 0.32457,0.95343c0.22314,0.32457 0.52743,0.52743 0.91286,0.64914c0.12171,0.04057 0.284,0.06086 0.46657,0.06086c0.34486,0 0.66943,-0.10143 0.994,-0.284c0.32457,-0.18257 0.52743,-0.48686 0.64914,-0.91286l3.04286,-11.62374c0.16229,-0.426 0.10143,-0.83172 -0.142,-1.25772c-0.24343,-0.426 -0.58829,-0.68972 -1.05486,-0.83172c-0.48686,-0.142 -0.93314,-0.10143 -1.33886,0.142c-0.40572,0.24343 -0.64914,0.58829 -0.73029,1.05486l-3.04286,11.56288c-0.06086,0.22314 -0.08114,0.38543 -0.08114,0.48686zm3.10372,-29.45492c1.35915,-1.35915 3.02258,-2.02858 5.03087,-2.02858c1.988,0 3.67172,0.68972 5.05115,2.06915c1.39972,1.37943 2.08943,3.06315 2.08943,5.03087c0,1.278 -0.34486,2.51543 -1.05486,3.75286c-1.92715,-1.92715 -4.28029,-2.90086 -7.07973,-2.90086l-0.62886,0c-0.568,-2.37343 -1.704,-4.34115 -3.40801,-5.92344z"/>
</g>

<circle style="filter:url(#blur_shadow);" fill-opacity="0.2" fill="lightcyan" cy="22.12474" cx="41.62453" r="6.87506"/>
<g stroke-width="2.5" stroke-opacity="0.4" stroke="midnightblue">
  <path id="backmoonfill" stroke-width="0" fill="paleturquoise" filter="url(#blur_shadow)"  fill-opacity="0.3"  d="m25.48778,9.91023zm10.5548,7.86436c1.428,-1.38661 3.12505,-2.06957 5.07044,-2.06957c2.04887,0 3.78731,0.70365 5.21531,2.13166c1.428,1.428 2.15235,3.14574 2.15235,5.19462c0,1.28313 -0.35183,2.56626 -1.05548,3.80801c-2.00748,-1.98679 -4.40818,-2.98018 -7.22279,-2.98018l-0.66226,0c-0.51739,-2.25583 -1.67635,-4.28401 -3.49757,-6.08453l0,-0.00001z"/>

  <path stroke-width="0" filter="url(#blur_shadow)" fill="paleturquoise" fill-opacity="0.3" d="m11.43267,33.85888c0,1.81002 0.66685,3.38188 1.95292,4.66796s2.88175,1.95292 4.73941,1.95292l22.10135,0c1.83385,0 3.42952,-0.64303 4.73941,-1.95292c1.30989,-1.30989 1.97674,-2.85793 1.97674,-4.66796c0,-1.81002 -0.64303,-3.38188 -1.97674,-4.66796c-1.30989,-1.28607 -2.88175,-1.95292 -4.73941,-1.95292l-3.31044,0c-0.23816,0 -0.35724,-0.11908 -0.35724,-0.35724l-0.16671,-1.16699c-0.23816,-2.23872 -1.19081,-4.1202 -2.83411,-5.59679s-3.59624,-2.2149 -5.83495,-2.2149c-2.23872,0 -4.19163,0.7383 -5.85877,2.23872c-1.66713,1.4766 -2.59596,3.35807 -2.8103,5.57298l-0.16671,1.00028c0,0.23816 -0.11908,0.35724 -0.38106,0.35724l-1.07172,0.16671c-1.71476,0.14289 -3.14373,0.85738 -4.31071,2.11963c-1.09554,1.26226 -1.69095,2.76268 -1.69095,4.50125l-0.00001,-0.00001l-0.00001,0z"/>
  <path  fill="linen" d="m8.0375,33.75392c0,2.71091 0.95799,5.05494 2.8536,7.01169s4.21924,2.99628 6.93016,3.11858c0.24459,0 0.36689,-0.1223 0.36689,-0.34651l0,-2.7313c0,-0.22421 -0.1223,-0.3465 -0.36689,-0.3465c-1.75292,-0.10192 -3.24087,-0.79493 -4.46384,-2.09943c-1.22297,-1.3045 -1.83445,-2.83322 -1.83445,-4.60652c0,-1.69178 0.57072,-3.15934 1.73254,-4.42307c1.16182,-1.24336 2.58862,-1.97714 4.2804,-2.18096l1.08029,-0.08153c0.26498,0 0.40765,-0.1223 0.40765,-0.3669l0.14268,-1.10067c0.22421,-2.20135 1.14144,-4.05618 2.79245,-5.54413c1.65101,-1.48794 3.58738,-2.24211 5.80911,-2.24211c2.22173,0 4.1581,0.75416 5.82949,2.24211c1.67139,1.48795 2.60901,3.34278 2.8536,5.54413l0.16306,1.16182c0,0.24459 0.1223,0.38728 0.34651,0.38728l3.30202,0c1.85483,0 3.42431,0.65225 4.7492,1.93636c1.3045,1.28412 1.97714,2.8536 1.97714,4.64729c0,1.75292 -0.61149,3.28164 -1.85484,4.58614c-1.24335,1.30449 -2.7313,2.01789 -4.46384,2.11981c-0.24459,0 -0.38728,0.1223 -0.38728,0.34651l0,2.73129c0,0.22421 0.1223,0.34651 0.38728,0.34651c2.7313,-0.08153 5.03456,-1.12105 6.93016,-3.0778c1.89561,-1.97714 2.83322,-4.32116 2.83322,-7.03208c0,-1.44719 -0.28537,-2.81283 -0.87646,-4.09695c1.61024,-1.95676 2.40517,-4.21925 2.40517,-6.76711c0,-1.93636 -0.48919,-3.73005 -1.44718,-5.38106s-2.26249,-2.95551 -3.91351,-3.9135s-3.42431,-1.4268 -5.3403,-1.4268c-3.15934,0 -5.80911,1.1822 -7.92893,3.52622c-1.651,-0.87646 -3.48546,-1.32488 -5.52375,-1.32488c-2.87398,0 -5.44221,0.89685 -7.66394,2.69054s-3.66892,4.07656 -4.30078,6.84863c-2.26249,0.52995 -4.11733,1.71216 -5.58489,3.54661c-1.48794,1.85484 -2.22173,3.95427 -2.22173,6.2983l0,0zm28.12831,-16.04129c1.38603,-1.38603 3.05743,-2.05867 5.05494,-2.05867c1.99752,0 3.68929,0.7134 5.09571,2.11982s2.09943,3.11857 2.09943,5.13647c0,1.20258 -0.34651,2.44594 -1.03952,3.75044c-1.95676,-1.95675 -4.34155,-2.93513 -7.134,-2.93513l-0.63187,0c-0.57072,-2.38479 -1.73254,-4.38231 -3.44469,-6.01293l0,0z"/>
  <path stroke-width="1" fill="cornflowerblue" d="m19.27182,47.3716c0,0.81143 0.44629,1.33886 1.31857,1.58229c0.426,0.142 0.852,0.10143 1.278,-0.12171c0.426,-0.22314 0.71,-0.568 0.83172,-1.01429l3.04286,-11.62374c0.12171,-0.44629 0.06086,-0.87229 -0.18257,-1.278c-0.24343,-0.40572 -0.60857,-0.66943 -1.09543,-0.81143c-0.44629,-0.142 -0.87229,-0.10143 -1.278,0.142s-0.66943,0.58829 -0.79114,1.05486l-3.04286,11.56288c-0.06086,0.22314 -0.08114,0.38543 -0.08114,0.50714l-0.00001,0zm5.25401,6.18716c0,0.24343 0.06086,0.48686 0.16229,0.75057c0.20286,0.426 0.54772,0.71 1.03457,0.87229c0.04057,0 0.12171,0 0.20286,0.02029s0.16229,0.02029 0.22314,0.02029s0.12171,0 0.18257,0c0.87229,0 1.37943,-0.44629 1.54172,-1.33886l4.66572,-17.72975c0.142,-0.44629 0.10143,-0.87229 -0.12171,-1.278c-0.22314,-0.40572 -0.568,-0.66943 -1.01429,-0.81143c-0.48686,-0.142 -0.95343,-0.10143 -1.37943,0.142s-0.66943,0.58829 -0.77086,1.05486l-4.68601,17.75004c-0.02029,0.20286 -0.04057,0.38543 -0.04057,0.54772l0,-0.00002zm8.43887,-6.20744c0,0.32457 0.10143,0.62886 0.32457,0.95343c0.22314,0.32457 0.52743,0.52743 0.91286,0.64914c0.12171,0.04057 0.284,0.06086 0.46657,0.06086c0.34486,0 0.66943,-0.10143 0.994,-0.284c0.32457,-0.18257 0.52743,-0.48686 0.64914,-0.91286l3.04286,-11.62374c0.16229,-0.426 0.10143,-0.83172 -0.142,-1.25772c-0.24343,-0.426 -0.58829,-0.68972 -1.05486,-0.83172c-0.48686,-0.142 -0.93314,-0.10143 -1.33886,0.142c-0.40572,0.24343 -0.64914,0.58829 -0.73029,1.05486l-3.04286,11.56288c-0.06086,0.22314 -0.08114,0.38543 -0.08114,0.48686l0.00001,0.00001z"/>
</g>

  <path id="moonfill" stroke-width="0" fill="paleturquoise"  fill-opacity="0.4"  d="m25.48778,9.91023zm10.5548,7.86436c1.428,-1.38661 3.12505,-2.06957 5.07044,-2.06957c2.04887,0 3.78731,0.70365 5.21531,2.13166c1.428,1.428 2.15235,3.14574 2.15235,5.19462c0,1.28313 -0.35183,2.56626 -1.05548,3.80801c-2.00748,-1.98679 -4.40818,-2.98018 -7.22279,-2.98018l-0.66226,0c-0.51739,-2.25583 -1.67635,-4.28401 -3.49757,-6.08453l0,-0.00001z"/>

</svg>
