<svg width="60" height="60" xmlns="http://www.w3.org/2000/svg">

  <defs>
    <filter id="drop_shadow" filterUnits="objectBoundingBox" x="-50%" y="-50%" width="200%" height="200%">
      <feDropShadow dx="0.5" dy="0.5" stdDeviation="2" flood-color="black" flood-opacity="0.8" />
    </filter>
    <filter id="blur_shadow" filterUnits="objectBoundingBox" x="-50%" y="-50%" width="200%" height="200%">
      <feGaussianBlur in="SourceGraphic" stdDeviation="3" />
    </filter>
    <filter id="shadow">
      <feDropShadow dx="0.3" dy="0.6" stdDeviation="0.6" flood-color="black"/>
    </filter>
  </defs>

<g fill="black" style="filter:url(#blur_shadow)">
<path d="m8.24807,33.73875c0,2.69673 0.9327,5.02849 2.81839,6.95473c1.88568,1.94651 4.17689,2.9806 6.8939,3.12253c0.24331,0 0.36497,-0.12166 0.36497,-0.36497l0,-2.69673c0,-0.24331 -0.12166,-0.36497 -0.36497,-0.36497c-1.74375,-0.0811 -3.20364,-0.77049 -4.42021,-2.06817c-1.21657,-1.29768 -1.82486,-2.81839 -1.82486,-4.58242c0,-1.68292 0.56773,-3.14281 1.7032,-4.39993c1.13547,-1.23685 2.5548,-1.96679 4.258,-2.16955l1.05436,-0.14193c0.26359,0 0.40552,-0.12166 0.40552,-0.36497l0.16221,-1.03408c0.22304,-2.18983 1.13547,-4.03496 2.77784,-5.49484c1.64237,-1.48016 3.56861,-2.2101 5.77871,-2.2101c2.2101,0 4.13634,0.75022 5.79899,2.23038s2.59535,3.30502 2.83866,5.49484l0.14193,1.17602c0,0.24331 0.12166,0.36497 0.36497,0.36497l3.28474,0c1.84513,0 3.4064,0.64884 4.70407,1.92624c1.29768,1.2774 1.94651,2.81839 1.94651,4.64324c0,1.76403 -0.60829,3.28474 -1.82486,4.58242c-1.21657,1.29768 -2.69673,1.98707 -4.42021,2.06817c-0.26359,0 -0.38525,0.12166 -0.38525,0.36497l0,2.69673c0,0.24331 0.12166,0.36497 0.38525,0.36497c1.7843,-0.06083 3.4064,-0.54746 4.88656,-1.45988c1.48016,-0.91243 2.65618,-2.129 3.50778,-3.64971s1.2774,-3.18336 1.2774,-4.94739c0,-1.50044 -0.28387,-2.85894 -0.87188,-4.07551c1.60182,-1.94651 2.39259,-4.17689 2.39259,-6.73169c0,-1.90596 -0.48663,-3.69026 -1.43961,-5.31236c-0.95298,-1.64237 -2.25066,-2.94005 -3.89303,-3.89303c-1.64237,-0.95298 -3.4064,-1.43961 -5.31236,-1.43961c-3.16308,0 -5.77871,1.17602 -7.86716,3.50778c-1.66265,-0.89215 -3.4875,-1.33823 -5.49484,-1.33823c-2.85894,0 -5.41374,0.89215 -7.62384,2.67646s-3.64971,4.05524 -4.27827,6.8128c-2.23038,0.52718 -4.07551,1.7032 -5.5354,3.52805c-1.45988,1.80458 -2.18983,3.89303 -2.18983,6.22479zm10.88831,14.15277c0.18249,0.44608 0.48663,0.75022 0.9327,0.9327c0.40552,0.20276 0.83132,0.22304 1.25712,0.04055c0.44608,-0.16221 0.72994,-0.46635 0.91243,-0.91243c0.18249,-0.44608 0.18249,-0.89215 0.02028,-1.31795c-0.16221,-0.44608 -0.46635,-0.75022 -0.89215,-0.95298c-0.40552,-0.16221 -0.81105,-0.16221 -1.23685,0.02028c-0.4258,0.18249 -0.72994,0.46635 -0.9327,0.87188c-0.22304,0.34469 -0.24331,0.79077 -0.06083,1.31795zm1.2774,-5.73816c0,0.32442 0.10138,0.62856 0.30414,0.9327c0.20276,0.30414 0.52718,0.5069 0.9327,0.62856c0.44608,0.14193 0.89215,0.10138 1.31795,-0.12166s0.70967,-0.58801 0.87188,-1.11519l1.98707,-6.30589c0.14193,-0.48663 0.10138,-0.95298 -0.16221,-1.3585c-0.24331,-0.40552 -0.62856,-0.66911 -1.11519,-0.77049c-0.44608,-0.14193 -0.87188,-0.10138 -1.25712,0.12166c-0.40552,0.22304 -0.66911,0.56773 -0.81105,1.01381l-2.02762,6.44782l-0.04055,0.52718zm3.77137,11.35466c0,0.14193 0.04055,0.34469 0.12166,0.58801c0.18249,0.44608 0.5069,0.77049 0.9327,0.91243c0.16221,0.10138 0.38525,0.16221 0.66911,0.16221c0.12166,0 0.32442,-0.04055 0.60829,-0.12166c0.44608,-0.16221 0.77049,-0.46635 0.95298,-0.91243c0.20276,-0.44608 0.20276,-0.89215 0,-1.33823c-0.20276,-0.44608 -0.5069,-0.75022 -0.91243,-0.9327s-0.83132,-0.18249 -1.25712,-0.02028c-0.38525,0.16221 -0.66911,0.40552 -0.8516,0.72994c-0.18249,0.32442 -0.26359,0.62856 -0.26359,0.9327zm1.50044,-5.41374c0,0.36497 0.10138,0.66911 0.30414,0.97326c0.20276,0.28387 0.52718,0.48663 0.97326,0.56773c0.04055,0 0.12166,0.02028 0.22304,0.04055s0.20276,0.04055 0.26359,0.04055c0.87188,-0.06083 1.41933,-0.48663 1.64237,-1.25712l3.56861,-12.30764c0.14193,-0.48663 0.10138,-0.9327 -0.12166,-1.31795c-0.22304,-0.38525 -0.56773,-0.64884 -1.01381,-0.79077c-0.46635,-0.14193 -0.91243,-0.10138 -1.31795,0.12166c-0.40552,0.22304 -0.66911,0.56773 -0.81105,1.01381l-3.64971,12.30764c0,0.04055 0,0.12166 -0.02028,0.20276c-0.02028,0.0811 -0.02028,0.16221 -0.02028,0.22304c-0.02028,0.0811 -0.02028,0.14193 -0.02028,0.18249zm6.975,-0.81105c0,0.20276 0.04055,0.4258 0.10138,0.64884c0.16221,0.4258 0.46635,0.72994 0.9327,0.89215c0.18249,0.0811 0.4258,0.14193 0.72994,0.14193c0.24331,0 0.44608,-0.04055 0.58801,-0.12166c0.46635,-0.18249 0.77049,-0.46635 0.9327,-0.87188c0.16221,-0.44608 0.16221,-0.87188 0,-1.31795c-0.16221,-0.4258 -0.44608,-0.75022 -0.8516,-0.97326c-0.44608,-0.16221 -0.89215,-0.16221 -1.31795,0.02028c-0.44608,0.18249 -0.75022,0.46635 -0.95298,0.87188c-0.10138,0.22304 -0.16221,0.44608 -0.16221,0.70967zm1.45988,-5.15015c0,0.72994 0.4258,1.23685 1.25712,1.52071c0.28387,0.0811 0.48663,0.12166 0.60829,0.12166c0.24331,0 0.46635,-0.06083 0.68939,-0.16221c0.34469,-0.18249 0.62856,-0.54746 0.81105,-1.11519l1.98707,-6.30589c0.16221,-0.46635 0.10138,-0.91243 -0.12166,-1.29768c-0.24331,-0.40552 -0.58801,-0.66911 -1.03408,-0.81105c-0.46635,-0.14193 -0.89215,-0.10138 -1.29768,0.12166c-0.38525,0.22304 -0.66911,0.56773 -0.81105,1.01381l-1.98707,6.34644c-0.0811,0.32442 -0.10138,0.52718 -0.10138,0.56773zm2.08845,-24.35169c1.39906,-1.33823 3.0617,-2.00734 5.02849,-2.00734c1.96679,0 3.66999,0.70967 5.06904,2.10872c1.39906,1.39906 2.10872,3.10225 2.10872,5.06904c0,1.25712 -0.34469,2.49397 -1.05436,3.73082c-1.98707,-1.98707 -4.3391,-2.9806 -7.07639,-2.9806l-0.66911,0c-0.62856,-2.35204 -1.76403,-4.31883 -3.4064,-5.92064z"/>
</g>

<circle style="filter:url(#blur_shadow);" fill-opacity="0.2" fill="lightcyan" cy="22.12474" cx="41.62453" r="6.87506"/>
<g stroke-width="2.5" stroke-opacity="0.4" stroke="midnightblue">
  <path stroke-width="0" filter="url(#blur_shadow)" fill="paleturquoise" fill-opacity="0.3" d="m11.43267,33.85888c0,1.81002 0.66685,3.38188 1.95292,4.66796s2.88175,1.95292 4.73941,1.95292l22.10135,0c1.83385,0 3.42952,-0.64303 4.73941,-1.95292c1.30989,-1.30989 1.97674,-2.85793 1.97674,-4.66796c0,-1.81002 -0.64303,-3.38188 -1.97674,-4.66796c-1.30989,-1.28607 -2.88175,-1.95292 -4.73941,-1.95292l-3.31044,0c-0.23816,0 -0.35724,-0.11908 -0.35724,-0.35724l-0.16671,-1.16699c-0.23816,-2.23872 -1.19081,-4.1202 -2.83411,-5.59679s-3.59624,-2.2149 -5.83495,-2.2149c-2.23872,0 -4.19163,0.7383 -5.85877,2.23872c-1.66713,1.4766 -2.59596,3.35807 -2.8103,5.57298l-0.16671,1.00028c0,0.23816 -0.11908,0.35724 -0.38106,0.35724l-1.07172,0.16671c-1.71476,0.14289 -3.14373,0.85738 -4.31071,2.11963c-1.09554,1.26226 -1.69095,2.76268 -1.69095,4.50125l-0.00001,-0.00001l-0.00001,0z"/>
  <path  fill="linen" d="m8.0375,33.75392c0,2.71091 0.95799,5.05494 2.8536,7.01169s4.21924,2.99628 6.93016,3.11858c0.24459,0 0.36689,-0.1223 0.36689,-0.34651l0,-2.7313c0,-0.22421 -0.1223,-0.3465 -0.36689,-0.3465c-1.75292,-0.10192 -3.24087,-0.79493 -4.46384,-2.09943c-1.22297,-1.3045 -1.83445,-2.83322 -1.83445,-4.60652c0,-1.69178 0.57072,-3.15934 1.73254,-4.42307c1.16182,-1.24336 2.58862,-1.97714 4.2804,-2.18096l1.08029,-0.08153c0.26498,0 0.40765,-0.1223 0.40765,-0.3669l0.14268,-1.10067c0.22421,-2.20135 1.14144,-4.05618 2.79245,-5.54413c1.65101,-1.48794 3.58738,-2.24211 5.80911,-2.24211c2.22173,0 4.1581,0.75416 5.82949,2.24211c1.67139,1.48795 2.60901,3.34278 2.8536,5.54413l0.16306,1.16182c0,0.24459 0.1223,0.38728 0.34651,0.38728l3.30202,0c1.85483,0 3.42431,0.65225 4.7492,1.93636c1.3045,1.28412 1.97714,2.8536 1.97714,4.64729c0,1.75292 -0.61149,3.28164 -1.85484,4.58614c-1.24335,1.30449 -2.7313,2.01789 -4.46384,2.11981c-0.24459,0 -0.38728,0.1223 -0.38728,0.34651l0,2.73129c0,0.22421 0.1223,0.34651 0.38728,0.34651c2.7313,-0.08153 5.03456,-1.12105 6.93016,-3.0778c1.89561,-1.97714 2.83322,-4.32116 2.83322,-7.03208c0,-1.44719 -0.28537,-2.81283 -0.87646,-4.09695c1.61024,-1.95676 2.40517,-4.21925 2.40517,-6.76711c0,-1.93636 -0.48919,-3.73005 -1.44718,-5.38106s-2.26249,-2.95551 -3.91351,-3.9135s-3.42431,-1.4268 -5.3403,-1.4268c-3.15934,0 -5.80911,1.1822 -7.92893,3.52622c-1.651,-0.87646 -3.48546,-1.32488 -5.52375,-1.32488c-2.87398,0 -5.44221,0.89685 -7.66394,2.69054s-3.66892,4.07656 -4.30078,6.84863c-2.26249,0.52995 -4.11733,1.71216 -5.58489,3.54661c-1.48794,1.85484 -2.22173,3.95427 -2.22173,6.2983l0,0zm28.12831,-16.04129c1.38603,-1.38603 3.05743,-2.05867 5.05494,-2.05867c1.99752,0 3.68929,0.7134 5.09571,2.11982s2.09943,3.11857 2.09943,5.13647c0,1.20258 -0.34651,2.44594 -1.03952,3.75044c-1.95676,-1.95675 -4.34155,-2.93513 -7.134,-2.93513l-0.63187,0c-0.57072,-2.38479 -1.73254,-4.38231 -3.44469,-6.01293l0,0z"/>
  <path  stroke-width="1" fill="cornflowerblue" d="m19.13638,47.89152c0.18249,0.44608 0.48663,0.75022 0.9327,0.9327c0.40552,0.20276 0.83132,0.22304 1.25712,0.04055c0.44608,-0.16221 0.72994,-0.46635 0.91243,-0.91243c0.18249,-0.44608 0.18249,-0.89215 0.02028,-1.31795c-0.16221,-0.44608 -0.46635,-0.75022 -0.89215,-0.95298c-0.40552,-0.16221 -0.81105,-0.16221 -1.23685,0.02028c-0.4258,0.18249 -0.72994,0.46635 -0.9327,0.87188c-0.22304,0.34469 -0.24331,0.79077 -0.06083,1.31795zm1.2774,-5.73816c0,0.32442 0.10138,0.62856 0.30414,0.9327c0.20276,0.30414 0.52718,0.5069 0.9327,0.62856c0.44608,0.14193 0.89215,0.10138 1.31795,-0.12166s0.70967,-0.58801 0.87188,-1.11519l1.98707,-6.30589c0.14193,-0.48663 0.10138,-0.95298 -0.16221,-1.3585c-0.24331,-0.40552 -0.62856,-0.66911 -1.11519,-0.77049c-0.44608,-0.14193 -0.87188,-0.10138 -1.25712,0.12166c-0.40552,0.22304 -0.66911,0.56773 -0.81105,1.01381l-2.02762,6.44782l-0.04055,0.52718zm3.77137,11.35466c0,0.14193 0.04055,0.34469 0.12166,0.58801c0.18249,0.44608 0.5069,0.77049 0.9327,0.91243c0.16221,0.10138 0.38525,0.16221 0.66911,0.16221c0.12166,0 0.32442,-0.04055 0.60829,-0.12166c0.44608,-0.16221 0.77049,-0.46635 0.95298,-0.91243c0.20276,-0.44608 0.20276,-0.89215 0,-1.33823c-0.20276,-0.44608 -0.5069,-0.75022 -0.91243,-0.9327s-0.83132,-0.18249 -1.25712,-0.02028c-0.38525,0.16221 -0.66911,0.40552 -0.8516,0.72994c-0.18249,0.32442 -0.26359,0.62856 -0.26359,0.9327l0,0.00001zm1.50044,-5.41374c0,0.36497 0.10138,0.66911 0.30414,0.97326c0.20276,0.28387 0.52718,0.48663 0.97326,0.56773c0.04055,0 0.12166,0.02028 0.22304,0.04055s0.20276,0.04055 0.26359,0.04055c0.87188,-0.06083 1.41933,-0.48663 1.64237,-1.25712l3.56861,-12.30764c0.14193,-0.48663 0.10138,-0.9327 -0.12166,-1.31795c-0.22304,-0.38525 -0.56773,-0.64884 -1.01381,-0.79077c-0.46635,-0.14193 -0.91243,-0.10138 -1.31795,0.12166c-0.40552,0.22304 -0.66911,0.56773 -0.81105,1.01381l-3.64971,12.30764c0,0.04055 0,0.12166 -0.02028,0.20276c-0.02028,0.0811 -0.02028,0.16221 -0.02028,0.22304c-0.02028,0.0811 -0.02028,0.14193 -0.02028,0.18249l0.00001,-0.00001zm6.975,-0.81105c0,0.20276 0.04055,0.4258 0.10138,0.64884c0.16221,0.4258 0.46635,0.72994 0.9327,0.89215c0.18249,0.0811 0.4258,0.14193 0.72994,0.14193c0.24331,0 0.44608,-0.04055 0.58801,-0.12166c0.46635,-0.18249 0.77049,-0.46635 0.9327,-0.87188c0.16221,-0.44608 0.16221,-0.87188 0,-1.31795c-0.16221,-0.4258 -0.44608,-0.75022 -0.8516,-0.97326c-0.44608,-0.16221 -0.89215,-0.16221 -1.31795,0.02028c-0.44608,0.18249 -0.75022,0.46635 -0.95298,0.87188c-0.10138,0.22304 -0.16221,0.44608 -0.16221,0.70967l0.00001,0zm1.45988,-5.15015c0,0.72994 0.4258,1.23685 1.25712,1.52071c0.28387,0.0811 0.48663,0.12166 0.60829,0.12166c0.24331,0 0.46635,-0.06083 0.68939,-0.16221c0.34469,-0.18249 0.62856,-0.54746 0.81105,-1.11519l1.98707,-6.30589c0.16221,-0.46635 0.10138,-0.91243 -0.12166,-1.29768c-0.24331,-0.40552 -0.58801,-0.66911 -1.03408,-0.81105c-0.46635,-0.14193 -0.89215,-0.10138 -1.29768,0.12166c-0.38525,0.22304 -0.66911,0.56773 -0.81105,1.01381l-1.98707,6.34644c-0.0811,0.32442 -0.10138,0.52718 -0.10138,0.56773l0,0.00001z"/>
</g>
</svg>
