<svg width="60" height="60" xmlns="http://www.w3.org/2000/svg">

  <defs>
    <filter id="drop_shadow" filterUnits="objectBoundingBox" x="-50%" y="-50%" width="200%" height="200%">
      <feDropShadow dx="0.5" dy="0.5" stdDeviation="2" flood-color="black" flood-opacity="0.8" />
    </filter>
    <filter id="blur_shadow" filterUnits="objectBoundingBox" x="-50%" y="-50%" width="200%" height="200%">
      <feGaussianBlur in="SourceGraphic" stdDeviation="3" />
    </filter>
  </defs>

<g fill="black" filter="url(#blur_shadow)">
    <path d="m2.91331,33.90454c0,1.7371 0.42418,3.3732 1.29273,4.86791c0.84835,1.49471 2.01988,2.70664 3.51459,3.61559c1.47452,0.90894 3.11062,1.39372 4.84772,1.43411c0.22219,0 0.34338,-0.12119 0.34338,-0.34338l0,-2.68644c0,-0.24239 -0.12119,-0.38377 -0.34338,-0.38377c-1.7169,-0.0808 -3.19141,-0.76756 -4.40334,-2.06028s-1.8179,-2.76723 -1.8179,-4.46393c0,-1.6563 0.56556,-3.11061 1.71689,-4.36294c1.15133,-1.23213 2.54505,-1.95928 4.24175,-2.16127l1.07054,-0.12118c0.24239,0 0.36357,-0.12119 0.36357,-0.38378l0.1616,-1.03014c0.22219,-2.20167 1.13113,-4.03977 2.74703,-5.51427c1.6159,-1.47452 3.53479,-2.20167 5.75666,-2.20167c2.20167,0 4.12056,0.72715 5.75666,2.20167c1.65631,1.47451 2.58545,3.2924 2.78743,5.45368l0.1414,1.17153c0,0.22219 0.12119,0.34338 0.34338,0.34338l3.25201,0c1.8179,0 3.3732,0.64636 4.66592,1.93908c1.29273,1.29273 1.93909,2.82784 1.93909,4.62553c0,1.6967 -0.60597,3.17121 -1.8179,4.46393c-1.21193,1.27252 -2.68643,1.95928 -4.38314,2.06027c-0.24239,0 -0.38378,0.12119 -0.38378,0.38378l0,2.68643c0,0.22219 0.12119,0.34339 0.38378,0.34339c2.68644,-0.0808 4.94871,-1.09074 6.82719,-3.02982c1.87849,-1.93909 2.80764,-4.22156 2.80764,-6.8878c0,-1.5351 -0.28278,-2.88843 -0.86855,-4.10035c1.51491,-1.87849 2.32286,-4.10035 2.32286,-6.62521c0,-1.89868 -0.46457,-3.65598 -1.41392,-5.27189c-0.94934,-1.6159 -2.24206,-2.90863 -3.85797,-3.85798s-3.3934,-1.41391 -5.29209,-1.41391c-3.11062,0 -5.71627,1.17152 -7.81694,3.49439c-1.6361,-0.88874 -3.45399,-1.33312 -5.43347,-1.33312c-2.84803,0 -5.35268,0.88875 -7.55435,2.64605s-3.59539,4.01956 -4.22155,6.7464c-2.26227,0.56556 -4.10036,1.7371 -5.53447,3.53479c-1.43411,1.81789 -2.14107,3.87817 -2.14107,6.22123l0,0zm16.94679,-24.74353c0,0.48477 0.16159,0.88875 0.48477,1.19172l1.33312,1.33312c0.32318,0.32319 0.68676,0.50498 1.07053,0.50498c0.42418,0.0606 0.82815,-0.0808 1.23213,-0.44438c0.40398,-0.36357 0.60597,-0.78775 0.60597,-1.27252c0,-0.48477 -0.16159,-0.92914 -0.48477,-1.29272l-1.29273,-1.23213c-0.30297,-0.34338 -0.68676,-0.50498 -1.17152,-0.50498c-0.50498,0 -0.92914,0.1616 -1.27252,0.50498c-0.34339,0.32318 -0.50498,0.72715 -0.50498,1.21193l0,0zm10.76597,8.84707c1.39372,-1.33312 3.05001,-1.99968 4.9891,-1.99968c1.95928,0 3.63578,0.70696 5.0093,2.10068c1.39372,1.39372 2.08048,3.09041 2.08048,5.0295c0,1.25232 -0.34338,2.50465 -1.03015,3.71658c-1.91889,-1.93909 -4.26194,-2.90863 -7.00898,-2.90863l-0.64636,0c-0.60596,-2.36326 -1.7371,-4.34274 -3.39339,-5.93845l0,0zm3.23181,-10.54377c0,0.46457 0.16159,0.86855 0.50497,1.17153s0.74735,0.46457 1.23213,0.46457s0.86855,-0.16159 1.19173,-0.46457c0.32318,-0.32319 0.46457,-0.70696 0.46457,-1.17153l0,-4.12056c0,-0.48477 -0.1616,-0.88875 -0.48477,-1.23213s-0.68676,-0.50497 -1.15133,-0.50497s-0.86855,0.18179 -1.21193,0.52517c-0.34338,0.34338 -0.52517,0.74735 -0.52517,1.21193l0,4.12056l-0.0202,0l0,0zm11.14974,4.58513c0,0.46457 0.16159,0.86855 0.50497,1.19173c0.30298,0.32318 0.68677,0.48477 1.13114,0.52517s0.86855,-0.1414 1.25232,-0.52517l2.88844,-2.88844c0.36357,-0.36357 0.52516,-0.76756 0.52516,-1.23213c0,-0.48477 -0.18178,-0.88874 -0.52516,-1.23212c-0.34339,-0.34338 -0.74736,-0.50498 -1.21194,-0.50498c-0.44437,0 -0.82814,0.1616 -1.17152,0.50498l-2.88844,2.94902c-0.34338,0.32318 -0.50497,0.72715 -0.50497,1.21193l0,0zm1.6159,23.83459c0,0.50497 0.16159,0.92914 0.48477,1.25232l1.29273,1.27252c0.48477,0.32318 0.92914,0.48477 1.29272,0.48477c0.42418,0 0.78776,-0.18179 1.13114,-0.52517c0.34338,-0.34338 0.50497,-0.76756 0.50497,-1.23213c0,-0.46457 -0.18179,-0.84835 -0.52517,-1.17153l-1.25232,-1.31292c-0.36358,-0.32319 -0.76756,-0.48477 -1.23213,-0.48477s-0.86855,0.16159 -1.19173,0.50497c-0.34338,0.32319 -0.50497,0.72716 -0.50497,1.21193l0,0.00001zm2.92883,-12.74545c0,0.48477 0.18179,0.86855 0.52517,1.19173c0.34338,0.36357 0.76756,0.54536 1.25232,0.54536l4.08016,0c0.46457,0 0.86855,-0.16159 1.21193,-0.50497s0.50497,-0.74735 0.50497,-1.23213c0,-0.48477 -0.16159,-0.88875 -0.50497,-1.21193s-0.74735,-0.50497 -1.21193,-0.50497l-4.08016,0c-0.48477,0 -0.88875,0.16159 -1.25232,0.50497s-0.52517,0.74735 -0.52517,1.21193z" id="svg_3"/>
    <path d="m28.16182,20.31075zm-12.44247,21.77431c0,0.48477 0.1616,0.88875 0.48477,1.23213c0.32318,0.34338 0.70696,0.50497 1.19173,0.50497c0.46457,0 0.86855,-0.16159 1.19172,-0.50497c0.32318,-0.34338 0.48477,-0.74736 0.48477,-1.23213c0,-0.46457 -0.16159,-0.84836 -0.48477,-1.17153s-0.70696,-0.48477 -1.19172,-0.48477c-0.46457,0 -0.86855,0.16159 -1.19173,0.48477s-0.48477,0.72715 -0.48477,1.17153zm0,7.33216c0,0.42418 0.1616,0.80796 0.48477,1.15134c0.36358,0.32318 0.74735,0.48477 1.17153,0.48477c0.48477,0 0.86855,-0.16159 1.19172,-0.46457c0.32319,-0.32318 0.46457,-0.70695 0.46457,-1.17152c0,-0.48477 -0.16159,-0.86855 -0.48477,-1.19173c-0.32319,-0.32318 -0.70696,-0.46457 -1.19173,-0.46457c-0.46457,0 -0.86855,0.16159 -1.19172,0.46457c-0.28278,0.30298 -0.44438,0.70696 -0.44438,1.19173l0,-0.00001zm6.42323,-3.45399c0,0.44437 0.16159,0.84835 0.48477,1.21193c0.32319,0.32318 0.72716,0.48477 1.17153,0.48477c0.48477,0 0.88875,-0.16159 1.21193,-0.48477s0.50498,-0.72715 0.50498,-1.21193c0,-0.46457 -0.1616,-0.86855 -0.50498,-1.21193s-0.74735,-0.50497 -1.21193,-0.50497c-0.46457,0 -0.84835,0.16159 -1.17153,0.50497s-0.48477,0.74735 -0.48477,1.21193zm0,-7.27157c0,0.46457 0.16159,0.84836 0.48477,1.17153s0.72716,0.48477 1.17153,0.48477c0.48477,0 0.88875,-0.1616 1.21193,-0.48477c0.34338,-0.32318 0.50498,-0.70696 0.50498,-1.19173c0,-0.46457 -0.1616,-0.86855 -0.50498,-1.19172s-0.74735,-0.48477 -1.21193,-0.48477c-0.46457,0 -0.84835,0.16159 -1.17153,0.48477s-0.48477,0.74735 -0.48477,1.21193l0,0zm0,14.66434c0,0.44437 0.16159,0.82814 0.48477,1.15133c0.34339,0.34338 0.72716,0.50497 1.17153,0.50497c0.48477,0 0.88875,-0.16159 1.21193,-0.46457c0.34338,-0.32318 0.50498,-0.70696 0.50498,-1.19172s-0.1616,-0.88875 -0.50498,-1.21194c-0.34338,-0.34338 -0.74735,-0.50497 -1.21193,-0.50497c-0.44437,0 -0.82814,0.16159 -1.17153,0.50497c-0.32318,0.34339 -0.48477,0.74736 -0.48477,1.21194zm6.50401,-11.27093c0,0.48477 0.16159,0.88874 0.48477,1.23212c0.32319,0.34339 0.72716,0.50498 1.19173,0.50498s0.86855,-0.16159 1.19172,-0.50498c0.32319,-0.34338 0.48477,-0.74735 0.48477,-1.23212c0,-0.46457 -0.16159,-0.84836 -0.48477,-1.17153s-0.70695,-0.48477 -1.19172,-0.48477s-0.86855,0.16159 -1.19173,0.48477s-0.48477,0.72715 -0.48477,1.17153zm0,7.33216c0,0.42418 0.16159,0.80795 0.46457,1.15134c0.36358,0.32318 0.76756,0.48477 1.21193,0.48477c0.48477,0 0.86855,-0.16159 1.19172,-0.46457c0.32319,-0.32318 0.46457,-0.70695 0.46457,-1.17153c0,-0.48477 -0.16159,-0.86855 -0.48477,-1.19172c-0.32319,-0.32318 -0.70696,-0.46457 -1.19173,-0.46457c-0.48477,0 -0.88874,0.16159 -1.21193,0.48477c-0.28278,0.30297 -0.44437,0.70695 -0.44437,1.17153l0,-0.00001z" id="svg_4"/>
   </g>
   <circle filter="url(#blur_shadow)" fill-opacity="0.2" r="9.47565" cx="34.67533" cy="24.64174" fill="palegoldenrod" id="svg_5"/>
   <g stroke="midnightblue" stroke-opacity="0.4" filter="url(#drop_shadow)" id="svg_6">
    <path filter="url(#blur_shadow)" d="m6.09827,33.9716c0,1.78153 0.65635,3.32864 1.92217,4.59447s2.83639,1.92217 4.6648,1.92217l21.7534,0c1.80497,0 3.37552,-0.63291 4.66479,-1.92217c1.28927,-1.28927 1.94562,-2.81293 1.94562,-4.59447c0,-1.78153 -0.63291,-3.32864 -1.94562,-4.59447c-1.28927,-1.26582 -2.83639,-1.92217 -4.66479,-1.92217l-3.25833,0c-0.23441,0 -0.35161,-0.1172 -0.35161,-0.35161l-0.16409,-1.14862c-0.23441,-2.20347 -1.17205,-4.05532 -2.7895,-5.50867s-3.53961,-2.18003 -5.74308,-2.18003c-2.20347,0 -4.12564,0.72668 -5.76652,2.20348c-1.64088,1.45335 -2.55508,3.3052 -2.76606,5.48523l-0.16409,0.98454c0,0.23441 -0.1172,0.35161 -0.37507,0.35161l-1.05485,0.16409c-1.68776,0.14065 -3.09423,0.84388 -4.24284,2.08626c-1.0783,1.24238 -1.66432,2.71918 -1.66432,4.43038l-0.00001,-0.00001l0,0z" fill-opacity="0.2" fill="paleturquoise" id="svg_7"/>
    <path fill="linen" stroke-width="2.5" d="m2.91331,33.90454c0,1.7371 0.42418,3.3732 1.29273,4.86791c0.84835,1.49471 2.01988,2.70664 3.51459,3.61559c1.47452,0.90894 3.11062,1.39372 4.84772,1.43411c0.22219,0 0.34338,-0.12119 0.34338,-0.34338l0,-2.68644c0,-0.24239 -0.12119,-0.38377 -0.34338,-0.38377c-1.7169,-0.0808 -3.19141,-0.76756 -4.40334,-2.06028s-1.8179,-2.76723 -1.8179,-4.46393c0,-1.6563 0.56556,-3.11061 1.71689,-4.36294c1.15133,-1.23213 2.54505,-1.95928 4.24175,-2.16127l1.07054,-0.12118c0.24239,0 0.36357,-0.12119 0.36357,-0.38378l0.1616,-1.03014c0.22219,-2.20167 1.13113,-4.03977 2.74703,-5.51427c1.6159,-1.47452 3.53479,-2.20167 5.75666,-2.20167c2.20167,0 4.12056,0.72715 5.75666,2.20167c1.65631,1.47451 2.58545,3.2924 2.78743,5.45368l0.1414,1.17153c0,0.22219 0.12119,0.34338 0.34338,0.34338l3.25201,0c1.8179,0 3.3732,0.64636 4.66592,1.93908c1.29273,1.29273 1.93909,2.82784 1.93909,4.62553c0,1.6967 -0.60597,3.17121 -1.8179,4.46393c-1.21193,1.27252 -2.68643,1.95928 -4.38314,2.06027c-0.24239,0 -0.38378,0.12119 -0.38378,0.38378l0,2.68643c0,0.22219 0.12119,0.34339 0.38378,0.34339c2.68644,-0.0808 4.94871,-1.09074 6.82719,-3.02982c1.87849,-1.93909 2.80764,-4.22156 2.80764,-6.8878c0,-1.5351 -0.28278,-2.88843 -0.86855,-4.10035c1.51491,-1.87849 2.32286,-4.10035 2.32286,-6.62521c0,-1.89868 -0.46457,-3.65598 -1.41392,-5.27189c-0.94934,-1.6159 -2.24206,-2.90863 -3.85797,-3.85798s-3.3934,-1.41391 -5.29209,-1.41391c-3.11062,0 -5.71627,1.17152 -7.81694,3.49439c-1.6361,-0.88874 -3.45399,-1.33312 -5.43347,-1.33312c-2.84803,0 -5.35268,0.88875 -7.55435,2.64605s-3.59539,4.01956 -4.22155,6.7464c-2.26227,0.56556 -4.10036,1.7371 -5.53447,3.53479c-1.43411,1.81789 -2.14107,3.87817 -2.14107,6.22123l0,0zm16.94679,-24.74353c0,0.48477 0.16159,0.88875 0.48477,1.19172l1.33312,1.33312c0.32318,0.32319 0.68676,0.50498 1.07053,0.50498c0.42418,0.0606 0.82815,-0.0808 1.23213,-0.44438c0.40398,-0.36357 0.60597,-0.78775 0.60597,-1.27252c0,-0.48477 -0.16159,-0.92914 -0.48477,-1.29272l-1.29273,-1.23213c-0.30297,-0.34338 -0.68676,-0.50498 -1.17152,-0.50498c-0.50498,0 -0.92914,0.1616 -1.27252,0.50498c-0.34339,0.32318 -0.50498,0.72715 -0.50498,1.21193l0,0zm10.76597,8.84707c1.39372,-1.33312 3.05001,-1.99968 4.9891,-1.99968c1.95928,0 3.63578,0.70696 5.0093,2.10068c1.39372,1.39372 2.08048,3.09041 2.08048,5.0295c0,1.25232 -0.34338,2.50465 -1.03015,3.71658c-1.91889,-1.93909 -4.26194,-2.90863 -7.00898,-2.90863l-0.64636,0c-0.60596,-2.36326 -1.7371,-4.34274 -3.39339,-5.93845l0,0zm3.23181,-10.54377c0,0.46457 0.16159,0.86855 0.50497,1.17153s0.74735,0.46457 1.23213,0.46457s0.86855,-0.16159 1.19173,-0.46457c0.32318,-0.32319 0.46457,-0.70696 0.46457,-1.17153l0,-4.12056c0,-0.48477 -0.1616,-0.88875 -0.48477,-1.23213s-0.68676,-0.50497 -1.15133,-0.50497s-0.86855,0.18179 -1.21193,0.52517c-0.34338,0.34338 -0.52517,0.74735 -0.52517,1.21193l0,4.12056l-0.0202,0l0,0zm11.14974,4.58513c0,0.46457 0.16159,0.86855 0.50497,1.19173c0.30298,0.32318 0.68677,0.48477 1.13114,0.52517s0.86855,-0.1414 1.25232,-0.52517l2.88844,-2.88844c0.36357,-0.36357 0.52516,-0.76756 0.52516,-1.23213c0,-0.48477 -0.18178,-0.88874 -0.52516,-1.23212c-0.34339,-0.34338 -0.74736,-0.50498 -1.21194,-0.50498c-0.44437,0 -0.82814,0.1616 -1.17152,0.50498l-2.88844,2.94902c-0.34338,0.32318 -0.50497,0.72715 -0.50497,1.21193l0,0zm1.6159,23.83459c0,0.50497 0.16159,0.92914 0.48477,1.25232l1.29273,1.27252c0.48477,0.32318 0.92914,0.48477 1.29272,0.48477c0.42418,0 0.78776,-0.18179 1.13114,-0.52517c0.34338,-0.34338 0.50497,-0.76756 0.50497,-1.23213c0,-0.46457 -0.18179,-0.84835 -0.52517,-1.17153l-1.25232,-1.31292c-0.36358,-0.32319 -0.76756,-0.48477 -1.23213,-0.48477s-0.86855,0.16159 -1.19173,0.50497c-0.34338,0.32319 -0.50497,0.72716 -0.50497,1.21193l0,0.00001zm2.92883,-12.74545c0,0.48477 0.18179,0.86855 0.52517,1.19173c0.34338,0.36357 0.76756,0.54536 1.25232,0.54536l4.08016,0c0.46457,0 0.86855,-0.16159 1.21193,-0.50497s0.50497,-0.74735 0.50497,-1.23213c0,-0.48477 -0.16159,-0.88875 -0.50497,-1.21193s-0.74735,-0.50497 -1.21193,-0.50497l-4.08016,0c-0.48477,0 -0.88875,0.16159 -1.25232,0.50497s-0.52517,0.74735 -0.52517,1.21193z" id="svg_8"/>
    <path fill="white" d="m28.16182,20.31075zm-12.44247,21.77431c0,0.48477 0.1616,0.88875 0.48477,1.23213c0.32318,0.34338 0.70696,0.50497 1.19173,0.50497c0.46457,0 0.86855,-0.16159 1.19172,-0.50497c0.32318,-0.34338 0.48477,-0.74736 0.48477,-1.23213c0,-0.46457 -0.16159,-0.84836 -0.48477,-1.17153s-0.70696,-0.48477 -1.19172,-0.48477c-0.46457,0 -0.86855,0.16159 -1.19173,0.48477s-0.48477,0.72715 -0.48477,1.17153zm0,7.33216c0,0.42418 0.1616,0.80796 0.48477,1.15134c0.36358,0.32318 0.74735,0.48477 1.17153,0.48477c0.48477,0 0.86855,-0.16159 1.19172,-0.46457c0.32319,-0.32318 0.46457,-0.70695 0.46457,-1.17152c0,-0.48477 -0.16159,-0.86855 -0.48477,-1.19173c-0.32319,-0.32318 -0.70696,-0.46457 -1.19173,-0.46457c-0.46457,0 -0.86855,0.16159 -1.19172,0.46457c-0.28278,0.30298 -0.44438,0.70696 -0.44438,1.19173l0,-0.00001zm6.42323,-3.45399c0,0.44437 0.16159,0.84835 0.48477,1.21193c0.32319,0.32318 0.72716,0.48477 1.17153,0.48477c0.48477,0 0.88875,-0.16159 1.21193,-0.48477s0.50498,-0.72715 0.50498,-1.21193c0,-0.46457 -0.1616,-0.86855 -0.50498,-1.21193s-0.74735,-0.50497 -1.21193,-0.50497c-0.46457,0 -0.84835,0.16159 -1.17153,0.50497s-0.48477,0.74735 -0.48477,1.21193zm0,-7.27157c0,0.46457 0.16159,0.84836 0.48477,1.17153s0.72716,0.48477 1.17153,0.48477c0.48477,0 0.88875,-0.1616 1.21193,-0.48477c0.34338,-0.32318 0.50498,-0.70696 0.50498,-1.19173c0,-0.46457 -0.1616,-0.86855 -0.50498,-1.19172s-0.74735,-0.48477 -1.21193,-0.48477c-0.46457,0 -0.84835,0.16159 -1.17153,0.48477s-0.48477,0.74735 -0.48477,1.21193l0,0zm0,14.66434c0,0.44437 0.16159,0.82814 0.48477,1.15133c0.34339,0.34338 0.72716,0.50497 1.17153,0.50497c0.48477,0 0.88875,-0.16159 1.21193,-0.46457c0.34338,-0.32318 0.50498,-0.70696 0.50498,-1.19172s-0.1616,-0.88875 -0.50498,-1.21194c-0.34338,-0.34338 -0.74735,-0.50497 -1.21193,-0.50497c-0.44437,0 -0.82814,0.16159 -1.17153,0.50497c-0.32318,0.34339 -0.48477,0.74736 -0.48477,1.21194zm6.50401,-11.27093c0,0.48477 0.16159,0.88874 0.48477,1.23212c0.32319,0.34339 0.72716,0.50498 1.19173,0.50498s0.86855,-0.16159 1.19172,-0.50498c0.32319,-0.34338 0.48477,-0.74735 0.48477,-1.23212c0,-0.46457 -0.16159,-0.84836 -0.48477,-1.17153s-0.70695,-0.48477 -1.19172,-0.48477s-0.86855,0.16159 -1.19173,0.48477s-0.48477,0.72715 -0.48477,1.17153zm0,7.33216c0,0.42418 0.16159,0.80795 0.46457,1.15134c0.36358,0.32318 0.76756,0.48477 1.21193,0.48477c0.48477,0 0.86855,-0.16159 1.19172,-0.46457c0.32319,-0.32318 0.46457,-0.70695 0.46457,-1.17153c0,-0.48477 -0.16159,-0.86855 -0.48477,-1.19172c-0.32319,-0.32318 -0.70696,-0.46457 -1.19173,-0.46457c-0.48477,0 -0.88874,0.16159 -1.21193,0.48477c-0.28278,0.30297 -0.44437,0.70695 -0.44437,1.17153l0,-0.00001z" id="svg_9"/>
   </g>
   <path fill-opacity="0.4" fill="goldenrod" d="m20.12214,9.25172c0,0.48756 0.15945,0.91417 0.47835,1.27983l1.31546,1.30015c0.49828,0.38598 0.91684,0.5485 1.27559,0.50787c0.41855,0 0.77731,-0.18283 1.09621,-0.52818s0.47835,-0.77196 0.47835,-1.25951c0,-0.48756 -0.17938,-0.89386 -0.51821,-1.19858l-1.17594,-1.34079c-0.35876,-0.32503 -0.75739,-0.48756 -1.21581,-0.48756c-0.47835,0 -0.8969,0.16253 -1.23573,0.50787c-0.33883,0.32504 -0.49828,0.73133 -0.49828,1.21889l0,0.00002l0.00001,0zm10.64324,8.99946c1.37525,-1.36109 3.00961,-2.03149 4.88314,-2.03149c1.97318,0 3.6474,0.6907 5.02265,2.09243c1.37525,1.40171 2.07285,3.08784 2.07285,5.09901c0,1.25951 -0.33884,2.51903 -1.01649,3.73793c-1.93333,-1.95022 -4.24534,-2.92533 -6.95597,-2.92533l-0.6378,0c-0.49828,-2.21431 -1.61442,-4.20516 -3.36836,-5.97254l0,-0.00001l-0.00001,0zm3.24879,-10.72622c0,0.52819 0.15946,0.93448 0.45841,1.25951s0.6976,0.46724 1.17595,0.46724c0.51821,0 0.91684,-0.16253 1.23573,-0.46724c0.31889,-0.32503 0.45841,-0.73132 0.45841,-1.25951l0,-4.16453c0,-0.48756 -0.15945,-0.87353 -0.47835,-1.19858s-0.71752,-0.46724 -1.2158,-0.46724c-0.47835,0 -0.85704,0.16253 -1.17594,0.46724s-0.45842,0.71102 -0.45842,1.19858l0,4.16453l0.00001,0zm11.002,4.65209c0,0.52818 0.13952,0.93448 0.4385,1.25951c0.41855,0.32503 0.83711,0.48756 1.23573,0.48756c0.35876,0 0.75739,-0.16253 1.17594,-0.48756l2.85015,-2.90502c0.31889,-0.36566 0.47835,-0.79227 0.47835,-1.30014c0,-0.48756 -0.15946,-0.89386 -0.47835,-1.21889c-0.31889,-0.32503 -0.71752,-0.48756 -1.17594,-0.48756c-0.47836,0 -0.85704,0.16253 -1.15601,0.48756l-2.92988,2.90502c-0.29898,0.38598 -0.4385,0.79227 -0.4385,1.25951l0.00001,0zm1.57456,24.05271c0,0.48756 0.15946,0.91416 0.49828,1.27983l1.29553,1.27984c0.29898,0.32503 0.67765,0.48755 1.15601,0.48755s0.87696,-0.16252 1.19587,-0.50787c0.31889,-0.34535 0.47835,-0.75165 0.47835,-1.25951c0,-0.44693 0.32204,-0.48514 -0.47835,-1.17826l-1.29553,-1.32046c-0.31889,-0.32503 -0.69759,-0.48756 -1.13606,-0.48756c-0.47836,0 -0.87697,0.16253 -1.19588,0.48756c-0.33883,0.32503 -0.51821,0.73133 -0.51821,1.21889l0,-0.00001zm2.92989,-12.81864c0,0.46724 0.17937,0.85323 0.51821,1.17826c0.31889,0.32503 0.73745,0.48756 1.2158,0.48756l4.06596,0c0.45841,0 0.83711,-0.16253 1.15601,-0.46724s0.45841,-0.71102 0.45841,-1.19858c0,-0.48756 -0.15946,-0.89385 -0.45841,-1.21889s-0.6976,-0.50787 -1.15601,-0.50787l-4.06596,0c-0.47835,0 -0.87697,0.16253 -1.2158,0.50787c-0.35876,0.34536 -0.51821,0.75165 -0.51821,1.21889l0,0z" id="svg_10"/>

</svg>
