<svg width="60" height="60" xmlns="http://www.w3.org/2000/svg">
  <defs>
    <filter id="drop_shadow" filterUnits="objectBoundingBox" x="-50%" y="-50%" width="200%" height="200%">
      <feDropShadow dx="0.5" dy="0.5" stdDeviation="2" flood-color="black" flood-opacity="0.8" />
    </filter>
    <filter id="blur_shadow" filterUnits="objectBoundingBox" x="-50%" y="-50%" width="200%" height="200%">
      <feGaussianBlur in="SourceGraphic" stdDeviation="3" />
    </filter>
    <filter id="shadow">
      <feDropShadow dx="0.3" dy="0.6" stdDeviation="0.6" flood-color="black"/>
    </filter>
  </defs>

<g fill="black" style="filter:url(#blur_shadow)">
    <path d="m9.159,33.83889c0,-2.3032 0.721,-4.34604 2.163,-6.14854c1.44201,-1.8025 3.26453,-2.94409 5.46759,-3.46481c0.62086,-2.72378 2.02281,-4.9669 4.20584,-6.70932s4.70654,-2.62365 7.53046,-2.62365c2.76384,0 5.20724,0.8612 7.37024,2.54353c2.14298,1.70236 3.56495,3.88539 4.22587,6.56913l0.62086,0c1.78248,0 3.44479,0.44061 4.9669,1.3018s2.74381,2.06287 3.62504,3.56495c0.88123,1.50208 1.34186,3.1644 1.34186,4.94687c0,2.68372 -0.92128,4.98693 -2.76384,6.9096s-4.1057,2.94409 -6.76941,3.0242c-0.26036,0 -0.40056,-0.12016 -0.40056,-0.34047l0,-2.6637c0,-0.24034 0.14019,-0.3605 0.40056,-0.3605c1.72239,-0.08012 3.1644,-0.76106 4.36607,-2.04284s1.8025,-2.78387 1.8025,-4.52629s-0.64089,-3.24451 -1.96273,-4.52629c-1.3018,-1.28178 -2.84395,-1.92267 -4.62643,-1.92267l-3.20445,0c-0.24034,0 -0.38053,-0.12016 -0.38053,-0.34047l-0.14019,-1.16161c-0.22031,-2.14298 -1.14158,-3.96551 -2.76384,-5.42754c-1.64228,-1.46203 -3.54492,-2.20306 -5.70793,-2.20306c-2.18303,0 -4.1057,0.721 -5.72796,2.18303c-1.62226,1.46203 -2.54353,3.26453 -2.76384,5.42754l-0.12016,1.0815c0,0.24034 -0.14019,0.3605 -0.40056,0.3605l-1.06148,0.06009c-1.64228,0.08012 -3.0242,0.74103 -4.18582,2.00278s-1.72239,2.74381 -1.72239,4.44618c0,1.74242 0.60083,3.24451 1.8025,4.52629s2.6637,1.96273 4.36607,2.04284c0.22031,0 0.34047,0.12016 0.34047,0.3605l0,2.6637c0,0.22031 -0.12016,0.34047 -0.34047,0.34047c-2.68372,-0.12016 -4.94687,-1.14158 -6.80946,-3.06426s-2.74381,-4.16579 -2.74381,-6.82948l0.00003,0.00001z"/>
    <path d="m22.24718,37.53359c0,-0.48067 0.24034,-1.14158 0.74103,-1.98275c0.48067,-0.84117 0.94131,-1.50208 1.36189,-2.02281c0.42059,-0.48067 0.68095,-0.76106 0.76106,-0.84117l0.721,0.80111c0.52072,0.56078 1.00139,1.2217 1.44201,2.04284c0.44061,0.80111 0.66092,1.48206 0.66092,2.00278c0,0.78108 -0.26036,1.44201 -0.80111,1.96273c-0.54075,0.52072 -1.20167,0.78108 -2.00278,0.78108c-0.78108,0 -1.46203,-0.26036 -2.02281,-0.80111c-0.58081,-0.52072 -0.8612,-1.18164 -0.8612,-1.9427l-0.00002,0zm5.96829,7.9911c0,-0.56078 0.16022,-1.18164 0.48067,-1.92267s0.70097,-1.40195 1.18164,-2.04284c0.3605,-0.52072 0.80111,-1.0815 1.34186,-1.68234c0.52072,-0.60083 0.92128,-1.04145 1.20167,-1.3018c0.14019,-0.12016 0.30042,-0.28039 0.48067,-0.46064l0.48067,0.46064c0.76106,0.66092 1.60223,1.64228 2.54353,2.92406c0.48067,0.66092 0.8612,1.36189 1.18164,2.08289s0.46064,1.36189 0.46064,1.9427c0,1.28178 -0.46064,2.38331 -1.36189,3.30459s-2.02281,1.36189 -3.32462,1.36189c-1.28178,0 -2.38331,-0.46064 -3.30459,-1.34186c-0.92128,-0.92128 -1.36189,-2.02281 -1.36189,-3.32462l0.00002,-0.00001zm2.94409,-13.33853c0,-0.84117 0.64089,-1.90264 1.9427,-3.20445l0.48067,0.50069c0.3605,0.42059 0.66092,0.90125 0.96133,1.42198c0.28039,0.52072 0.44061,0.94131 0.44061,1.28178c0,0.52072 -0.18025,0.96133 -0.56078,1.32183c-0.3605,0.3605 -0.80111,0.56078 -1.32183,0.56078c-0.54075,0 -1.00139,-0.18025 -1.38192,-0.56078c-0.38053,-0.3605 -0.56078,-0.80111 -0.56078,-1.32183l0.00001,-0.00001z"/>
</g>

<g>
     <path filter="url(#blur_shadow)" fill="paleturquoise" fill-opacity="0.2" d="m13.44031,34.34493c0,1.69106 0.62302,3.1596 1.82456,4.36115s2.69235,1.82456 4.42791,1.82456l20.64871,0c1.71332,0 3.20411,-0.60076 4.42791,-1.82456c1.2238,-1.2238 1.84681,-2.67009 1.84681,-4.36115c0,-1.69106 -0.60076,-3.1596 -1.84681,-4.36115c-1.2238,-1.20155 -2.69235,-1.82457 -4.42791,-1.82457l-3.09286,0c-0.22251,0 -0.33376,-0.11125 -0.33376,-0.33376l-0.15576,-1.09028c-0.22251,-2.09157 -1.11254,-3.84939 -2.64784,-5.22893s-3.35987,-2.06931 -5.45143,-2.06931c-2.09157,0 -3.91614,0.68977 -5.47369,2.09157c-1.55756,1.37955 -2.42533,3.13735 -2.62559,5.20668l-0.15576,0.93454c0,0.2225 -0.11125,0.33375 -0.35602,0.33375l-1.00128,0.15576c-1.60205,0.13351 -2.9371,0.80103 -4.02738,1.98032c-1.02354,1.17928 -1.5798,2.58109 -1.5798,4.20539l-0.00001,-0.00001z"/>
     <g stroke="midnightblue" filter="url(#drop_shadow)" stroke-opacity="0.4">
      <path d="m9.159,33.83889c0,-2.3032 0.721,-4.34604 2.163,-6.14854c1.44201,-1.8025 3.26453,-2.94409 5.46759,-3.46481c0.62086,-2.72378 2.02281,-4.9669 4.20584,-6.70932s4.70654,-2.62365 7.53046,-2.62365c2.76384,0 5.20724,0.8612 7.37024,2.54353c2.14298,1.70236 3.56495,3.88539 4.22587,6.56913l0.62086,0c1.78248,0 3.44479,0.44061 4.9669,1.3018s2.74381,2.06287 3.62504,3.56495c0.88123,1.50208 1.34186,3.1644 1.34186,4.94687c0,2.68372 -0.92128,4.98693 -2.76384,6.9096s-4.1057,2.94409 -6.76941,3.0242c-0.26036,0 -0.40056,-0.12016 -0.40056,-0.34047l0,-2.6637c0,-0.24034 0.14019,-0.3605 0.40056,-0.3605c1.72239,-0.08012 3.1644,-0.76106 4.36607,-2.04284s1.8025,-2.78387 1.8025,-4.52629s-0.64089,-3.24451 -1.96273,-4.52629c-1.3018,-1.28178 -2.84395,-1.92267 -4.62643,-1.92267l-3.20445,0c-0.24034,0 -0.38053,-0.12016 -0.38053,-0.34047l-0.14019,-1.16161c-0.22031,-2.14298 -1.14158,-3.96551 -2.76384,-5.42754c-1.64228,-1.46203 -3.54492,-2.20306 -5.70793,-2.20306c-2.18303,0 -4.1057,0.721 -5.72796,2.18303c-1.62226,1.46203 -2.54353,3.26453 -2.76384,5.42754l-0.12016,1.0815c0,0.24034 -0.14019,0.3605 -0.40056,0.3605l-1.06148,0.06009c-1.64228,0.08012 -3.0242,0.74103 -4.18582,2.00278s-1.72239,2.74381 -1.72239,4.44618c0,1.74242 0.60083,3.24451 1.8025,4.52629s2.6637,1.96273 4.36607,2.04284c0.22031,0 0.34047,0.12016 0.34047,0.3605l0,2.6637c0,0.22031 -0.12016,0.34047 -0.34047,0.34047c-2.68372,-0.12016 -4.94687,-1.14158 -6.80946,-3.06426s-2.74381,-4.16579 -2.74381,-6.82948l0.00003,0.00001z" stroke-width="2.5" fill="beige"/>
      <path d="m22.24718,37.53359c0,-0.48067 0.24034,-1.14158 0.74103,-1.98275c0.48067,-0.84117 0.94131,-1.50208 1.36189,-2.02281c0.42059,-0.48067 0.68095,-0.76106 0.76106,-0.84117l0.721,0.80111c0.52072,0.56078 1.00139,1.2217 1.44201,2.04284c0.44061,0.80111 0.66092,1.48206 0.66092,2.00278c0,0.78108 -0.26036,1.44201 -0.80111,1.96273c-0.54075,0.52072 -1.20167,0.78108 -2.00278,0.78108c-0.78108,0 -1.46203,-0.26036 -2.02281,-0.80111c-0.58081,-0.52072 -0.8612,-1.18164 -0.8612,-1.9427l-0.00002,0zm5.96829,7.9911c0,-0.56078 0.16022,-1.18164 0.48067,-1.92267s0.70097,-1.40195 1.18164,-2.04284c0.3605,-0.52072 0.80111,-1.0815 1.34186,-1.68234c0.52072,-0.60083 0.92128,-1.04145 1.20167,-1.3018c0.14019,-0.12016 0.30042,-0.28039 0.48067,-0.46064l0.48067,0.46064c0.76106,0.66092 1.60223,1.64228 2.54353,2.92406c0.48067,0.66092 0.8612,1.36189 1.18164,2.08289s0.46064,1.36189 0.46064,1.9427c0,1.28178 -0.46064,2.38331 -1.36189,3.30459s-2.02281,1.36189 -3.32462,1.36189c-1.28178,0 -2.38331,-0.46064 -3.30459,-1.34186c-0.92128,-0.92128 -1.36189,-2.02281 -1.36189,-3.32462l0.00002,-0.00001zm2.94409,-13.33853c0,-0.84117 0.64089,-1.90264 1.9427,-3.20445l0.48067,0.50069c0.3605,0.42059 0.66092,0.90125 0.96133,1.42198c0.28039,0.52072 0.44061,0.94131 0.44061,1.28178c0,0.52072 -0.18025,0.96133 -0.56078,1.32183c-0.3605,0.3605 -0.80111,0.56078 -1.32183,0.56078c-0.54075,0 -1.00139,-0.18025 -1.38192,-0.56078c-0.38053,-0.3605 -0.56078,-0.80111 -0.56078,-1.32183l0.00001,-0.00001z" fill="cornflowerblue"/>
     </g>
     <circle fill="#ffffff" fill-opacity="0.4" r="1.03326" cy="37.63814" cx="25.84607"/>
     <circle fill="#ffffff" fill-opacity="0.3" r="1.85987" cy="45.70285" cx="34.40991"/>
     <circle fill="#ffffff" fill-opacity="0.2" r="0.66129" cy="32.33172" cx="33.62182"/>
    </g>

</svg>
