<svg width="60" height="60" xmlns="http://www.w3.org/2000/svg">

  <defs>
    <filter id="drop_shadow" filterUnits="objectBoundingBox" x="-50%" y="-50%" width="200%" height="200%">
      <feDropShadow dx="0.5" dy="0.5" stdDeviation="2" flood-color="black" flood-opacity="0.8" />
    </filter>
    <filter id="blur_shadow" filterUnits="objectBoundingBox" x="-50%" y="-50%" width="200%" height="200%">
      <feGaussianBlur in="SourceGraphic" stdDeviation="3" />
    </filter>
  </defs>
 <g>
   <circle filter="url(#blur_shadow)" r="10" cx="42.62447" cy="16.12475" fill="lightcyan" fill-opacity="0.2"/>
   <path filter="url(#blur_shadow)" fill="paleturquoise" fill-opacity="0.2" d="m8.18267,31.779858c0,2.14134 0.78891,4.00093 2.3104,5.52242s3.40925,2.3104 5.60695,2.3104l26.14696,0c2.16953,0 4.05729,-0.76074 5.60695,-2.3104c1.54966,-1.54966 2.33858,-3.38107 2.33858,-5.52242c0,-2.14134 -0.76074,-4.00093 -2.33858,-5.52242c-1.54966,-1.52148 -3.40925,-2.3104 -5.60695,-2.3104l-3.91641,0c-0.28175,0 -0.42263,-0.14088 -0.42263,-0.42263l-0.19723,-1.3806c-0.28175,-2.64851 -1.40878,-4.87439 -3.35289,-6.62127s-4.25452,-2.62033 -6.90302,-2.62033c-2.64851,0 -4.9589,0.87344 -6.9312,2.64851c-1.97229,1.74689 -3.07114,3.97276 -3.32472,6.5931l-0.19723,1.18338c0,0.28175 -0.14088,0.42263 -0.45081,0.42263l-1.2679,0.19723c-2.02864,0.16905 -3.71918,1.01432 -5.09978,2.50762c-1.29608,1.49331 -2.00047,3.26838 -2.00047,5.32519l-0.00001,-0.00001l-0.00001,0z"/>
   <g  stroke-width="2.5" stroke-opacity="0.4" stroke="midnightblue">
  <path  fill="linen" d="m5.0401,31.516655c0,2.651656 0.78833,5.040535 2.36499,7.11886s3.631096,3.487763 6.11553,4.180538l-1.528883,4.013317c-0.119444,0.334443 0,0.525553 0.334443,0.525553l5.064424,0l-2.484434,10.009403l0.668886,0l9.48385,-13.4255c0.095555,-0.095555 0.095555,-0.214999 0.023889,-0.334443c-0.071666,-0.119444 -0.19111,-0.167222 -0.358332,-0.167222l-5.183868,0l5.900531,-11.012732c0.167222,-0.334443 0.047778,-0.525553 -0.334443,-0.525553l-7.023304,0c-0.214999,0 -0.382221,0.119444 -0.549442,0.334443l-2.556101,6.856083c-1.696104,-0.406109 -3.105543,-1.337772 -4.228316,-2.723322s-1.672215,-3.009988 -1.672215,-4.825536c0,-1.98277 0.668886,-3.702763 2.006658,-5.159979s3.009988,-2.293324 5.016646,-2.532212l1.266106,-0.095555c0.286665,0 0.429998,-0.143333 0.429998,-0.429998l0.167222,-1.266106c0.167222,-1.696104 0.716664,-3.224987 1.648327,-4.634425c0.931663,-1.38555 2.149991,-2.484434 3.631096,-3.272764s3.081654,-1.19444 4.801647,-1.19444c2.579989,0 4.849424,0.883885 6.784417,2.627767c1.934992,1.743882 3.033876,3.893873 3.320542,6.473862l0.19111,1.337772c0,0.286665 0.143333,0.453887 0.406109,0.453887l3.869984,0c2.126102,0 3.94165,0.764441 5.494422,2.293324s2.317213,3.320542 2.317213,5.422755c0,2.054436 -0.716664,3.846095 -2.149991,5.374978s-3.177209,2.317213 -5.207756,2.436657c-0.310554,0 -0.477776,0.143333 -0.477776,0.429998l0,3.201098c0,0.262777 0.167222,0.406109 0.477776,0.406109c2.078325,-0.047778 3.989428,-0.621109 5.73331,-1.719993c1.743882,-1.074996 3.129432,-2.508323 4.108872,-4.299982s1.504994,-3.726651 1.504994,-5.804976c0,-1.743882 -0.334443,-3.344431 -1.003329,-4.801647c1.863326,-2.221658 2.794989,-4.849424 2.794989,-7.90719c0,-1.696104 -0.334443,-3.296653 -1.003329,-4.825536c-0.668886,-1.528883 -1.552771,-2.866655 -2.675545,-3.989428c-1.122773,-1.122773 -2.436657,-2.006658 -3.989428,-2.675545c-1.528883,-0.668886 -3.15332,-1.003329 -4.825536,-1.003329c-3.678874,0 -6.760528,1.38555 -9.221073,4.132761c-1.934992,-1.027218 -4.084983,-1.552771 -6.449973,-1.552771c-3.368319,0 -6.354418,1.051107 -8.958296,3.129432s-4.276094,4.753869 -5.016646,8.002745c-2.627767,0.621109 -4.801647,1.98277 -6.52164,4.132761s-2.508323,4.53887 -2.508323,7.286081l-0.000002,0zm18.943811,23.602125c0,0.382221 0.119444,0.764441 0.358332,1.098884s0.59722,0.59722 1.074996,0.740553l0.59722,0.071666c1.003329,0 1.624438,-0.477776 1.911103,-1.433327l5.804976,-21.237135c0.143333,-0.549442 0.095555,-1.074996 -0.167222,-1.528883c-0.262777,-0.477776 -0.644997,-0.78833 -1.170551,-0.955552c-0.549442,-0.167222 -1.074996,-0.119444 -1.552771,0.143333c-0.477776,0.262777 -0.812219,0.668886 -0.955552,1.19444l-5.852754,21.261024c-0.023889,0.406109 -0.047778,0.621109 -0.047778,0.644997l0.000001,0zm9.889959,-7.238304c0,0.955552 0.501665,1.600549 1.481105,1.911103c0.406109,0.047778 0.621109,0.071666 0.621109,0.071666c0.262777,0 0.549442,-0.047778 0.836108,-0.19111c0.477776,-0.214999 0.812219,-0.644997 1.003329,-1.313883l3.917762,-13.974943c0.143333,-0.549442 0.095555,-1.074996 -0.19111,-1.528883c-0.262777,-0.477776 -0.668886,-0.78833 -1.218328,-0.955552c-0.549442,-0.167222 -1.074996,-0.119444 -1.552771,0.143333c-0.477776,0.262777 -0.78833,0.668886 -0.931663,1.19444l-3.869984,14.070498c-0.047778,0.334443 -0.095555,0.525553 -0.095555,0.573331l-0.000002,0zm3.989428,-35.116522c1.624438,-1.528883 3.583319,-2.293324 5.92442,-2.293324c2.317213,0 4.299982,0.812219 5.92442,2.436657c1.648327,1.624438 2.460545,3.607207 2.460545,5.92442c0,1.504994 -0.406109,2.986099 -1.218328,4.419426c-2.293324,-2.293324 -5.064424,-3.439986 -8.313299,-3.439986l-0.764441,0c-0.668886,-2.747211 -2.006658,-5.088312 -4.013317,-7.047193z"/>
  <path stroke-width="1" fill="beige" d="m11.991737,46.82937c-0.119444,0.334443 0,0.525553 0.334443,0.525553l5.064424,0l-2.484434,10.009403l0.668886,0l9.48385,-13.4255c0.095555,-0.095555 0.095555,-0.214999 0.023889,-0.334443c-0.071666,-0.119444 -0.19111,-0.167222 -0.358332,-0.167222l-5.183868,0l5.900531,-11.012732c0.167222,-0.334443 0.047778,-0.525553 -0.334443,-0.525553l-7.023304,0c-0.214999,0 -0.382221,0.119444 -0.549442,0.334443l-2.556101,6.856083l-2.986099,7.739968z"/>

  <path stroke-width="1" d="m42.593279,43.007163zm-18.609368,12.111617c0,0.382221 0.119444,0.764441 0.358332,1.098884s0.59722,0.59722 1.074996,0.740553l0.59722,0.071666c1.003329,0 1.624438,-0.477776 1.911103,-1.433327l5.804976,-21.237135c0.143333,-0.549442 0.095555,-1.074996 -0.167222,-1.528883c-0.262777,-0.477776 -0.644997,-0.78833 -1.170551,-0.955552c-0.549442,-0.167222 -1.074996,-0.119444 -1.552771,0.143333c-0.477776,0.262777 -0.812219,0.668886 -0.955552,1.19444l-5.852754,21.261024c-0.023889,0.406109 -0.047778,0.621109 -0.047778,0.644997l0.000001,0zm9.889959,-7.238304c0,0.955552 0.501665,1.600549 1.481105,1.911103c0.406109,0.047778 0.621109,0.071666 0.621109,0.071666c0.262777,0 0.549442,-0.047778 0.836108,-0.19111c0.477776,-0.214999 0.812219,-0.644997 1.003329,-1.313883l3.917762,-13.974943c0.143333,-0.549442 0.095555,-1.074996 -0.19111,-1.528883c-0.262777,-0.477776 -0.668886,-0.78833 -1.218328,-0.955552c-0.549442,-0.167222 -1.074996,-0.119444 -1.552771,0.143333c-0.477776,0.262777 -0.78833,0.668886 -0.931663,1.19444l-3.869984,14.070498c-0.047778,0.334443 -0.095555,0.525553 -0.095555,0.573331l-0.000002,0z" fill="cornflowerblue"/>
</g>
</g>
</svg>
