<svg width="60" height="60" xmlns="http://www.w3.org/2000/svg">
  <defs>
    <filter id="drop_shadow" filterUnits="objectBoundingBox" x="-50%" y="-50%" width="200%" height="200%">
      <feDropShadow dx="0.5" dy="0.5" stdDeviation="2" flood-color="black" flood-opacity="0.8" />
    </filter>
    <filter id="blur_shadow" filterUnits="objectBoundingBox" x="-50%" y="-50%" width="200%" height="200%">
      <feGaussianBlur in="SourceGraphic" stdDeviation="3" />
    </filter>
    <filter id="shadow">
      <feDropShadow dx="0.3" dy="0.6" stdDeviation="0.6" flood-color="black"/>
    </filter>
  </defs>

<g style="filter:url(#blur_shadow)" fill="black">
    <path d="m9.3868,33.82607c0,-2.30091 0.72029,-4.34172 2.16085,-6.14242c1.44057,-1.80071 3.26129,-2.94116 5.46216,-3.46137c0.62024,-2.72107 2.0208,-4.96196 4.20166,-6.70265s4.70186,-2.62104 7.52297,-2.62104c2.76109,0 5.20206,0.86034 7.36291,2.541c2.14085,1.70067 3.5614,3.88153 4.22166,6.56259l0.62024,0c1.78071,0 3.44136,0.44017 4.96196,1.30051s2.74108,2.06081 3.62143,3.5614c0.88035,1.50059 1.34053,3.16125 1.34053,4.94195c0,2.68106 -0.92037,4.98197 -2.76109,6.90273s-4.10162,2.94116 -6.76267,3.02119c-0.2601,0 -0.40016,-0.12004 -0.40016,-0.34013l0,-2.66105c0,-0.2401 0.14005,-0.36014 0.40016,-0.36014c1.72068,-0.08004 3.16125,-0.7603 4.36173,-2.04081s1.80071,-2.7811 1.80071,-4.52179s-0.64025,-3.24128 -1.96078,-4.52179c-1.30051,-1.28051 -2.84112,-1.92076 -4.62183,-1.92076l-3.20126,0c-0.2401,0 -0.38015,-0.12004 -0.38015,-0.34013l-0.14005,-1.16046c-0.22009,-2.14085 -1.14045,-3.96157 -2.76109,-5.42214c-1.64064,-1.46057 -3.5414,-2.20087 -5.70225,-2.20087c-2.18086,0 -4.10162,0.72029 -5.72226,2.18086c-1.62064,1.46057 -2.541,3.26129 -2.76109,5.42214l-0.12004,1.08043c0,0.2401 -0.14005,0.36014 -0.40016,0.36014l-1.06042,0.06003c-1.64064,0.08004 -3.02119,0.7403 -4.18165,2.00079s-1.72068,2.74108 -1.72068,4.44175c0,1.74069 0.60023,3.24128 1.80071,4.52179s2.66105,1.96078 4.36173,2.04081c0.22009,0 0.34013,0.12004 0.34013,0.36014l0,2.66105c0,0.22009 -0.12004,0.34013 -0.34013,0.34013c-2.68106,-0.12004 -4.94195,-1.14045 -6.80268,-3.06121s-2.74108,-4.16165 -2.74108,-6.82269l0.00003,0.00001z"/>
    <path d="m20.37375,48.21474c0,-0.46849 0.16295,-0.87588 0.50923,-1.22216c0.32591,-0.30554 0.71293,-0.46849 1.16105,-0.46849c0.46849,0 0.87588,0.16295 1.2018,0.46849s0.48887,0.71293 0.48887,1.2018c0,0.48887 -0.16295,0.87588 -0.48887,1.2018c-0.32591,0.32591 -0.71293,0.46849 -1.2018,0.46849c-0.46849,0 -0.87588,-0.16295 -1.2018,-0.46849c-0.30554,-0.30554 -0.46849,-0.71293 -0.46849,-1.18142l0.00001,-0.00001zm1.75176,-7.39408c0,-0.44812 0.16295,-0.85551 0.48887,-1.18142c0.32591,-0.32591 0.71293,-0.48887 1.2018,-0.48887c0.46849,0 0.87588,0.16295 1.2018,0.48887c0.32591,0.32591 0.48887,0.7333 0.48887,1.18142c0,0.48887 -0.16295,0.89625 -0.48887,1.22216c-0.32591,0.34628 -0.71293,0.50923 -1.2018,0.50923c-0.46849,0 -0.87588,-0.16295 -1.2018,-0.50923c-0.32591,-0.32591 -0.48887,-0.7333 -0.48887,-1.22216zm3.87018,11.38647c0,-0.46849 0.16295,-0.87588 0.50923,-1.24253c0.32591,-0.32591 0.71293,-0.48887 1.16105,-0.48887c0.48887,0 0.89625,0.16295 1.24253,0.50923c0.34628,0.34628 0.50923,0.75366 0.50923,1.22216s-0.16295,0.87588 -0.50923,1.2018c-0.34628,0.32591 -0.75366,0.48887 -1.24253,0.48887c-0.46849,0 -0.85551,-0.16295 -1.18142,-0.48887c-0.30554,-0.34628 -0.48887,-0.7333 -0.48887,-1.2018l0.00001,0.00001zm1.77213,-7.45519c0,-0.48887 0.16295,-0.89625 0.48887,-1.2629c0.32591,-0.32591 0.7333,-0.48887 1.18142,-0.48887c0.46849,0 0.87588,0.16295 1.22216,0.50923c0.34628,0.34628 0.50923,0.75366 0.50923,1.24253c0,0.46849 -0.16295,0.87588 -0.50923,1.22216s-0.75366,0.50923 -1.22216,0.50923c-0.46849,0 -0.85551,-0.16295 -1.18142,-0.50923c-0.32591,-0.34628 -0.48887,-0.75366 -0.48887,-1.22216l0,0.00001zm0.85551,-7.37371c0,-0.46849 0.16295,-0.87588 0.50923,-1.22216c0.36665,-0.32591 0.75366,-0.48887 1.16105,-0.48887c0.48887,0 0.89625,0.16295 1.24253,0.50923c0.34628,0.34628 0.50923,0.7333 0.50923,1.22216c0,0.46849 -0.16295,0.87588 -0.50923,1.2018c-0.34628,0.32591 -0.75366,0.48887 -1.24253,0.48887c-0.46849,0 -0.85551,-0.16295 -1.18142,-0.48887c-0.32591,-0.34628 -0.48887,-0.75366 -0.48887,-1.22216l0.00001,0zm4.82754,10.8365c0,-0.46849 0.16295,-0.87588 0.48887,-1.22216c0.32591,-0.30554 0.7333,-0.46849 1.22216,-0.46849c0.48887,0 0.87588,0.16295 1.2018,0.46849c0.32591,0.32591 0.46849,0.71293 0.46849,1.2018c0,0.48887 -0.16295,0.87588 -0.46849,1.2018c-0.32591,0.32591 -0.71293,0.46849 -1.2018,0.46849c-0.48887,0 -0.89625,-0.16295 -1.22216,-0.48887c-0.32591,-0.30554 -0.48887,-0.69256 -0.48887,-1.16105l0,-0.00001zm1.7314,-7.39408c0,-0.44812 0.16295,-0.83515 0.50923,-1.18142c0.34628,-0.34628 0.75366,-0.50923 1.22216,-0.50923c0.46849,0 0.87588,0.16295 1.2018,0.48887c0.32591,0.32591 0.48887,0.7333 0.48887,1.18142c0,0.48887 -0.16295,0.89625 -0.48887,1.22216c-0.32591,0.34628 -0.71293,0.50923 -1.2018,0.50923c-0.48887,0 -0.89625,-0.16295 -1.22216,-0.50923c-0.32591,-0.32591 -0.50923,-0.7333 -0.50923,-1.2018z"/>
   </g>
   <path filter="url(#blur_shadow)" fill="paleturquoise" fill-opacity="0.2" d="m13.66386,34.33161c0,1.68937 0.6224,3.15646 1.82275,4.35681s2.68967,1.82275 4.4235,1.82275l20.62817,0c1.71161,0 3.20092,-0.60017 4.4235,-1.82275c1.22258,-1.22258 1.84498,-2.66743 1.84498,-4.35681c0,-1.68937 -0.60017,-3.15646 -1.84498,-4.35681c-1.22258,-1.20035 -2.68967,-1.82276 -4.4235,-1.82276l-3.08978,0c-0.22229,0 -0.33343,-0.11114 -0.33343,-0.33343l-0.1556,-1.0892c-0.22229,-2.08949 -1.11143,-3.84556 -2.64521,-5.22373s-3.35653,-2.06726 -5.44601,-2.06726c-2.08949,0 -3.91224,0.68909 -5.46824,2.08949c-1.55601,1.37818 -2.42292,3.13423 -2.62298,5.2015l-0.1556,0.93361c0,0.22228 -0.11114,0.33342 -0.35567,0.33342l-1.00029,0.1556c-1.60045,0.13337 -2.93418,0.80023 -4.02338,1.97835c-1.02252,1.17811 -1.57823,2.57853 -1.57823,4.20121l-0.00001,-0.00001z"/>
   <g stroke="midnightblue" filter="url(#drop_shadow)" stroke-opacity="0.4">
    <path stroke="midnightblue" d="m9.3868,33.82607c0,-2.30091 0.72029,-4.34172 2.16085,-6.14242c1.44057,-1.80071 3.26129,-2.94116 5.46216,-3.46137c0.62024,-2.72107 2.0208,-4.96196 4.20166,-6.70265s4.70186,-2.62104 7.52297,-2.62104c2.76109,0 5.20206,0.86034 7.36291,2.541c2.14085,1.70067 3.5614,3.88153 4.22166,6.56259l0.62024,0c1.78071,0 3.44136,0.44017 4.96196,1.30051s2.74108,2.06081 3.62143,3.5614c0.88035,1.50059 1.34053,3.16125 1.34053,4.94195c0,2.68106 -0.92037,4.98197 -2.76109,6.90273s-4.10162,2.94116 -6.76267,3.02119c-0.2601,0 -0.40016,-0.12004 -0.40016,-0.34013l0,-2.66105c0,-0.2401 0.14005,-0.36014 0.40016,-0.36014c1.72068,-0.08004 3.16125,-0.7603 4.36173,-2.04081s1.80071,-2.7811 1.80071,-4.52179s-0.64025,-3.24128 -1.96078,-4.52179c-1.30051,-1.28051 -2.84112,-1.92076 -4.62183,-1.92076l-3.20126,0c-0.2401,0 -0.38015,-0.12004 -0.38015,-0.34013l-0.14005,-1.16046c-0.22009,-2.14085 -1.14045,-3.96157 -2.76109,-5.42214c-1.64064,-1.46057 -3.5414,-2.20087 -5.70225,-2.20087c-2.18086,0 -4.10162,0.72029 -5.72226,2.18086c-1.62064,1.46057 -2.541,3.26129 -2.76109,5.42214l-0.12004,1.08043c0,0.2401 -0.14005,0.36014 -0.40016,0.36014l-1.06042,0.06003c-1.64064,0.08004 -3.02119,0.7403 -4.18165,2.00079s-1.72068,2.74108 -1.72068,4.44175c0,1.74069 0.60023,3.24128 1.80071,4.52179s2.66105,1.96078 4.36173,2.04081c0.22009,0 0.34013,0.12004 0.34013,0.36014l0,2.66105c0,0.22009 -0.12004,0.34013 -0.34013,0.34013c-2.68106,-0.12004 -4.94195,-1.14045 -6.80268,-3.06121s-2.74108,-4.16165 -2.74108,-6.82269l0.00003,0.00001z" fill="linen" stroke-opacity="0.4" stroke-width="2.5"/>
    <path d="m20.37375,48.21474c0,-0.46849 0.16295,-0.87588 0.50923,-1.22216c0.32591,-0.30554 0.71293,-0.46849 1.16105,-0.46849c0.46849,0 0.87588,0.16295 1.2018,0.46849s0.48887,0.71293 0.48887,1.2018c0,0.48887 -0.16295,0.87588 -0.48887,1.2018c-0.32591,0.32591 -0.71293,0.46849 -1.2018,0.46849c-0.46849,0 -0.87588,-0.16295 -1.2018,-0.46849c-0.30554,-0.30554 -0.46849,-0.71293 -0.46849,-1.18142l0.00001,-0.00001zm1.75176,-7.39408c0,-0.44812 0.16295,-0.85551 0.48887,-1.18142c0.32591,-0.32591 0.71293,-0.48887 1.2018,-0.48887c0.46849,0 0.87588,0.16295 1.2018,0.48887c0.32591,0.32591 0.48887,0.7333 0.48887,1.18142c0,0.48887 -0.16295,0.89625 -0.48887,1.22216c-0.32591,0.34628 -0.71293,0.50923 -1.2018,0.50923c-0.46849,0 -0.87588,-0.16295 -1.2018,-0.50923c-0.32591,-0.32591 -0.48887,-0.7333 -0.48887,-1.22216zm3.87018,11.38647c0,-0.46849 0.16295,-0.87588 0.50923,-1.24253c0.32591,-0.32591 0.71293,-0.48887 1.16105,-0.48887c0.48887,0 0.89625,0.16295 1.24253,0.50923c0.34628,0.34628 0.50923,0.75366 0.50923,1.22216s-0.16295,0.87588 -0.50923,1.2018c-0.34628,0.32591 -0.75366,0.48887 -1.24253,0.48887c-0.46849,0 -0.85551,-0.16295 -1.18142,-0.48887c-0.30554,-0.34628 -0.48887,-0.7333 -0.48887,-1.2018l0.00001,0.00001zm1.77213,-7.45519c0,-0.48887 0.16295,-0.89625 0.48887,-1.2629c0.32591,-0.32591 0.7333,-0.48887 1.18142,-0.48887c0.46849,0 0.87588,0.16295 1.22216,0.50923c0.34628,0.34628 0.50923,0.75366 0.50923,1.24253c0,0.46849 -0.16295,0.87588 -0.50923,1.22216s-0.75366,0.50923 -1.22216,0.50923c-0.46849,0 -0.85551,-0.16295 -1.18142,-0.50923c-0.32591,-0.34628 -0.48887,-0.75366 -0.48887,-1.22216l0,0.00001zm0.85551,-7.37371c0,-0.46849 0.16295,-0.87588 0.50923,-1.22216c0.36665,-0.32591 0.75366,-0.48887 1.16105,-0.48887c0.48887,0 0.89625,0.16295 1.24253,0.50923c0.34628,0.34628 0.50923,0.7333 0.50923,1.22216c0,0.46849 -0.16295,0.87588 -0.50923,1.2018c-0.34628,0.32591 -0.75366,0.48887 -1.24253,0.48887c-0.46849,0 -0.85551,-0.16295 -1.18142,-0.48887c-0.32591,-0.34628 -0.48887,-0.75366 -0.48887,-1.22216l0.00001,0zm4.82754,10.8365c0,-0.46849 0.16295,-0.87588 0.48887,-1.22216c0.32591,-0.30554 0.7333,-0.46849 1.22216,-0.46849c0.48887,0 0.87588,0.16295 1.2018,0.46849c0.32591,0.32591 0.46849,0.71293 0.46849,1.2018c0,0.48887 -0.16295,0.87588 -0.46849,1.2018c-0.32591,0.32591 -0.71293,0.46849 -1.2018,0.46849c-0.48887,0 -0.89625,-0.16295 -1.22216,-0.48887c-0.32591,-0.30554 -0.48887,-0.69256 -0.48887,-1.16105l0,-0.00001zm1.7314,-7.39408c0,-0.44812 0.16295,-0.83515 0.50923,-1.18142c0.34628,-0.34628 0.75366,-0.50923 1.22216,-0.50923c0.46849,0 0.87588,0.16295 1.2018,0.48887c0.32591,0.32591 0.48887,0.7333 0.48887,1.18142c0,0.48887 -0.16295,0.89625 -0.48887,1.22216c-0.32591,0.34628 -0.71293,0.50923 -1.2018,0.50923c-0.48887,0 -0.89625,-0.16295 -1.22216,-0.50923c-0.32591,-0.32591 -0.50923,-0.7333 -0.50923,-1.2018z" fill="white"/>
</g>

</svg>
