<svg width="60" height="60" xmlns="http://www.w3.org/2000/svg">


  <defs>
    <filter id="drop_shadow" filterUnits="objectBoundingBox" x="-50%" y="-50%" width="200%" height="200%">
      <feDropShadow dx="0.5" dy="0.5" stdDeviation="2" flood-color="black" flood-opacity="0.8" />
    </filter>
    <filter id="blur_shadow" filterUnits="objectBoundingBox" x="-50%" y="-50%" width="200%" height="200%">
      <feGaussianBlur in="SourceGraphic" stdDeviation="3" />
    </filter>
  </defs>

<g stroke="midnightblue" stroke-opacity="0.4" stroke-width="2.5" style="filter:url(#drop_shadow);">
  <path fill="blue" stroke-width="1" d="m6.941014,30.581799zm1.410667,12.370468c0,-0.499159 0.195323,-0.933211 0.564267,-1.323857c0.347241,-0.347241 0.802995,-0.499159 1.323857,-0.499159l39.52039,0c0.520862,0 0.976616,0.173621 1.34556,0.520862c0.368944,0.347241 0.542564,0.781293 0.542564,1.302155c0,0.520862 -0.195323,0.954913 -0.564267,1.323857s-0.824698,0.564267 -1.323857,0.564267l-39.498688,0c-0.520862,0 -0.954913,-0.195323 -1.323857,-0.564267s-0.58597,-0.802995 -0.58597,-1.323857l0.000001,-0.000001z"/>
  <path fill="yellow" d="m6.355044,31.927359c0,-0.564267 0.195323,-1.020021 0.58597,-1.34556c0.303836,-0.325539 0.75959,-0.499159 1.34556,-0.499159l4.514136,0c0.520862,0 0.976616,0.173621 1.302155,0.520862c0.347241,0.347241 0.520862,0.781293 0.520862,1.302155c0,0.520862 -0.173621,0.954913 -0.520862,1.323857c-0.347241,0.368944 -0.781293,0.542564 -1.302155,0.542564l-4.514136,0c-0.520862,0 -0.976616,-0.173621 -1.367262,-0.542564c-0.390646,-0.347241 -0.564267,-0.781293 -0.564267,-1.302155l-0.000001,0zm6.445665,-15.387127c0,-0.564267 0.173621,-0.976616 0.499159,-1.280452c0.368944,-0.390646 0.824698,-0.58597 1.34556,-0.58597c0.520862,0 0.954913,0.195323 1.323857,0.58597l3.125171,3.168576c0.390646,0.347241 0.564267,0.781293 0.564267,1.302155c0,0.542564 -0.173621,0.976616 -0.520862,1.323857s-0.781293,0.520862 -1.302155,0.520862c-0.477457,0 -0.911508,-0.173621 -1.302155,-0.520862l-3.233684,-3.190279c-0.325539,-0.303836 -0.499159,-0.737888 -0.499159,-1.323857l0.000001,0zm5.64267,15.387126c0,1.888124 0.390646,3.580925 1.150237,5.0567c0.065108,0.195323 0.238728,0.303836 0.520862,0.303836l3.62433,0c0.151918,0 0.260431,-0.043405 0.303836,-0.130215c0.043405,-0.08681 -0.021703,-0.217026 -0.151918,-0.347241c-1.150237,-1.410667 -1.736206,-3.038361 -1.736206,-4.88308c0,-2.148555 0.781293,-3.993274 2.322176,-5.512454c1.540883,-1.51918 3.385602,-2.27877 5.534157,-2.27877c2.148555,0 3.993274,0.75959 5.534157,2.27877s2.27877,3.363899 2.27877,5.512454c0,1.866422 -0.58597,3.494115 -1.736206,4.88308c-0.08681,0.130215 -0.130215,0.217026 -0.130215,0.260431c-0.021703,0.065108 0,0.130215 0.065108,0.151918c0.043405,0.043405 0.130215,0.065108 0.217026,0.065108l3.689438,0c0.195323,0 0.347241,-0.108513 0.455754,-0.303836c0.824698,-1.540883 1.215344,-3.211981 1.215344,-5.0567c0,-2.083447 -0.520862,-4.014977 -1.562585,-5.794588c-1.041724,-1.779611 -2.452391,-3.190279 -4.232002,-4.232002s-3.71114,-1.562585 -5.794588,-1.562585s-4.014977,0.520862 -5.794588,1.562585c-1.779611,1.041724 -3.190279,2.452391 -4.232002,4.232002c-1.041724,1.779611 -1.540883,3.71114 -1.540883,5.794588l-0.000002,-0.000001zm9.701051,-17.210143l0,-4.535838c0,-0.520862 0.173621,-0.954913 0.542564,-1.34556c0.368944,-0.390646 0.802995,-0.564267 1.323857,-0.564267c0.520862,0 0.954913,0.195323 1.34556,0.564267c0.368944,0.368944 0.564267,0.824698 0.564267,1.34556l0,4.535838c0,0.520862 -0.195323,0.954913 -0.564267,1.34556c-0.390646,0.390646 -0.824698,0.564267 -1.34556,0.564267c-0.520862,0 -0.954913,-0.195323 -1.323857,-0.564267c-0.368944,-0.390646 -0.542564,-0.824698 -0.542564,-1.34556zm12.196848,5.013295c0,-0.520862 0.173621,-0.954913 0.520862,-1.302155l3.125171,-3.168576c0.368944,-0.390646 0.824698,-0.58597 1.34556,-0.58597c0.542564,0 0.998318,0.173621 1.34556,0.542564c0.368944,0.368944 0.542564,0.802995 0.542564,1.323857c0,0.564267 -0.173621,0.998318 -0.499159,1.323857l-3.277089,3.190279c-0.347241,0.325539 -0.781293,0.477457 -1.280452,0.477457c-0.542564,0.021703 -0.976616,-0.151918 -1.323857,-0.477457c-0.325539,-0.325539 -0.499159,-0.781293 -0.499159,-1.323857l-0.000001,0.000001zm5.0567,12.196848c0,-0.58597 0.173621,-1.020021 0.520862,-1.34556c0.303836,-0.325539 0.737888,-0.499159 1.280452,-0.499159l4.535838,0c0.520862,0 0.976616,0.173621 1.34556,0.520862c0.368944,0.347241 0.564267,0.781293 0.564267,1.302155c0,0.520862 -0.195323,0.954913 -0.564267,1.323857c-0.390646,0.368944 -0.824698,0.542564 -1.34556,0.542564l-4.535838,0c-0.499159,0 -0.933211,-0.173621 -1.280452,-0.542564c-0.347241,-0.347241 -0.520862,-0.781293 -0.520862,-1.302155z"/>
</g>
</svg>
