<svg width="60" height="60" xmlns="http://www.w3.org/2000/svg">


  <defs>
    <filter id="drop_shadow" filterUnits="objectBoundingBox" x="-50%" y="-50%" width="200%" height="200%">
      <feDropShadow dx="0.5" dy="0.5" stdDeviation="2" flood-color="black" flood-opacity="0.8" />
    </filter>
    <filter id="blur_shadow" filterUnits="objectBoundingBox" x="-50%" y="-50%" width="200%" height="200%">
      <feGaussianBlur in="SourceGraphic" stdDeviation="3" />
    </filter>
  </defs>

<g>

  <circle fill-opacity="0.4" r="10.87526" cy="26.00049" cx="34.12449" fill="palegoldenrod" style="filter:url(#blur_shadow);"/>
   <g stroke="midnightblue" stroke-opacity="0.4" stroke-width="2.5" style="filter:url(#drop_shadow);">
  <path d="m3.25686,46.47613zm11.1413,-20.48625c0,-0.4844 0.18165,-0.88807 0.52477,-1.25138c0.3633,-0.32294 0.76697,-0.4844 1.21101,-0.4844l4.09725,0c0.46422,0 0.84771,0.16147 1.17064,0.50459c0.32294,0.34312 0.46422,0.74679 0.46422,1.23119c0,0.4844 -0.16147,0.88807 -0.46422,1.21101c-0.32294,0.34312 -0.70642,0.50459 -1.17064,0.50459l-4.09725,0c-0.4844,0 -0.88807,-0.16147 -1.23119,-0.50459c-0.34312,-0.34312 -0.50459,-0.74679 -0.50459,-1.21101zm5.7523,-13.96698c0,-0.46422 0.16147,-0.86789 0.46422,-1.23119c0.38349,-0.32294 0.82752,-0.4844 1.29174,-0.4844c0.44404,0 0.84771,0.16147 1.19083,0.4844l2.88624,2.96697c0.32294,0.30275 0.4844,0.70642 0.4844,1.19083c0,0.4844 -0.16147,0.88807 -0.4844,1.21101s-0.72661,0.4844 -1.19083,0.4844c-0.4844,0 -0.88807,-0.16147 -1.19083,-0.4844l-2.96697,-2.88624c-0.32294,-0.34312 -0.4844,-0.74679 -0.4844,-1.25138zm5.16698,13.72478c0.64991,-6.17685 3.73395,-8.03303 5.32844,-8.94129c1.5945,-0.90826 3.33028,-1.35229 5.18716,-1.35229c1.41284,0 2.76514,0.28257 4.07707,0.84771c1.29174,0.56514 2.42202,1.31193 3.35046,2.26055c0.94862,0.94862 1.69541,2.05872 2.24037,3.35046s0.82752,2.66422 0.82752,4.07707c0,1.89725 -0.46422,3.63303 -1.39266,5.24771s-2.2,2.88624 -3.7945,3.81468c-1.5945,0.94862 -3.35046,1.41284 -5.24771,1.43303l-0.42385,0c-0.14128,0 -0.26239,-0.04037 -0.34312,-0.14128c-0.10092,-0.10092 -0.14128,-0.22202 -0.14128,-0.3633l0,-2.46239c0,-0.26239 0.14128,-0.40367 0.44404,-0.40367l0.4844,0c1.93762,-0.02018 3.61285,-0.70642 4.98532,-2.11927c1.37248,-1.39266 2.0789,-3.06789 2.0789,-5.02569c0,-1.93762 -0.70642,-3.59266 -2.09908,-4.98532c-1.39266,-1.37248 -3.06789,-2.05872 -5.04587,-2.05872c-1.89725,0 -3.5523,0.64587 -4.92477,1.97798c-1.37248,1.31193 -2.09908,2.90642 -2.17982,4.78349c0,0.1211 -0.06055,0.22202 -0.16147,0.34312s-0.28257,0.18165 -0.52477,0.18165l-2.28074,0c-0.30275,0.02018 -0.44404,-0.14128 -0.44404,-0.46422l0,-0.00001zm8.77982,19.9413l0,-4.01652c0,-0.4844 0.16147,-0.88807 0.50459,-1.21101s0.74679,-0.4844 1.21101,-0.4844c0.50459,0 0.90826,0.16147 1.23119,0.4844c0.32294,0.32294 0.4844,0.72661 0.4844,1.21101l0,4.01652c0,0.4844 -0.16147,0.90826 -0.50459,1.25138c-0.34312,0.34312 -0.74679,0.50459 -1.21101,0.50459c-0.4844,0 -0.88807,-0.16147 -1.21101,-0.50459c-0.32294,-0.34312 -0.50459,-0.76697 -0.50459,-1.25138l0.00001,0zm0,-35.28076l0,-4.13762c0,-0.46422 0.16147,-0.86789 0.50459,-1.21101s0.74679,-0.50459 1.21101,-0.50459c0.4844,0 0.88807,0.16147 1.21101,0.50459s0.50459,0.74679 0.50459,1.21101l0,4.11743c0,0.46422 -0.16147,0.84771 -0.50459,1.17064c-0.34312,0.30275 -0.74679,0.46422 -1.21101,0.46422c-0.4844,0 -0.88807,-0.16147 -1.21101,-0.46422c-0.32294,-0.30275 -0.50459,-0.68624 -0.50459,-1.15046l0,0.00001zm11.16147,26.60185c0,-0.46422 0.16147,-0.84771 0.46422,-1.13028c0.30275,-0.32294 0.68624,-0.46422 1.15046,-0.46422c0.4844,0 0.88807,0.16147 1.21101,0.46422l2.92661,2.86606c0.32294,0.34312 0.4844,0.76697 0.4844,1.23119c0,0.46422 -0.16147,0.86789 -0.4844,1.19083c-0.80734,0.62569 -1.61468,0.62569 -2.42202,0l-2.86606,-2.88624c-0.32294,-0.32294 -0.46422,-0.76697 -0.46422,-1.27156zm0,-22.06056c0,-0.50459 0.16147,-0.90826 0.46422,-1.19083l2.86606,-2.96697c0.3633,-0.32294 0.74679,-0.4844 1.19083,-0.4844c0.46422,0 0.86789,0.16147 1.21101,0.50459c0.34312,0.34312 0.50459,0.74679 0.50459,1.21101c0,0.50459 -0.16147,0.92844 -0.4844,1.25138l-2.92661,2.88624c-0.3633,0.32294 -0.76697,0.4844 -1.21101,0.4844c-0.46422,0 -0.82752,-0.16147 -1.15046,-0.4844c-0.32294,-0.32294 -0.46422,-0.72661 -0.46422,-1.21101l-0.00001,-0.00001zm4.56147,11.04037c0,-0.4844 0.16147,-0.88807 0.4844,-1.25138c0.32294,-0.32294 0.70642,-0.4844 1.15046,-0.4844l4.07707,0c0.46422,0 0.86789,0.18165 1.23119,0.52477s0.52477,0.74679 0.52477,1.21101c0,0.46422 -0.18165,0.86789 -0.52477,1.21101c-0.3633,0.34312 -0.76697,0.50459 -1.23119,0.50459l-4.07707,0c-0.46422,0 -0.84771,-0.16147 -1.17064,-0.50459c-0.32294,-0.32294 -0.46422,-0.72661 -0.46422,-1.21101z" fill="yellow"/>

  <path stroke-width="1" fill="grey" d="m2.71191,45.26512c0,0.4844 0.18165,0.88807 0.54495,1.21101c0.34312,0.34312 0.74679,0.50459 1.23119,0.50459l11.8679,0c0.52477,0 0.96881,0.18165 1.37248,0.56514c0.40367,0.38349 0.6055,0.84771 0.6055,1.37248s-0.20183,1.00917 -0.6055,1.39266c-0.40367,0.38349 -0.84771,0.58532 -1.37248,0.58532c-0.52477,0 -0.96881,-0.20183 -1.37248,-0.6055c-0.3633,-0.32294 -0.76697,-0.4844 -1.23119,-0.4844c-0.4844,0 -0.88807,0.16147 -1.21101,0.4844c-0.32294,0.32294 -0.4844,0.72661 -0.4844,1.21101c0,0.4844 0.16147,0.88807 0.4844,1.21101c1.06973,1.06973 2.34129,1.61468 3.81468,1.61468c1.49358,0 2.76514,-0.52477 3.7945,-1.57431s1.57431,-2.3211 1.57431,-3.81468s-0.52477,-2.76514 -1.57431,-3.81468c-1.04954,-1.04954 -2.3211,-1.57431 -3.7945,-1.57431l-11.8679,0c-0.4844,0 -0.88807,0.16147 -1.25138,0.50459c-0.34312,0.34312 -0.52477,0.74679 -0.52477,1.21101l0.00001,-0.00002zm0,-6.07523c0,0.46422 0.18165,0.84771 0.54495,1.17064c0.32294,0.32294 0.74679,0.4844 1.23119,0.4844l22.1413,0c1.49358,0 2.76514,-0.52477 3.81468,-1.57431c1.04954,-1.04954 1.57431,-2.3211 1.57431,-3.81468c0,-1.49358 -0.52477,-2.74496 -1.57431,-3.7945c-1.04954,-1.02936 -2.3211,-1.55413 -3.81468,-1.55413c-1.53395,0 -2.78532,0.50459 -3.7945,1.53395c-0.32294,0.32294 -0.46422,0.74679 -0.46422,1.23119c0,0.4844 0.16147,0.88807 0.46422,1.21101c0.30275,0.30275 0.70642,0.46422 1.21101,0.46422c0.4844,0 0.88807,-0.16147 1.25138,-0.46422c0.38349,-0.38349 0.82752,-0.56514 1.37248,-0.56514s0.98899,0.18165 1.37248,0.56514s0.58532,0.84771 0.58532,1.37248c0,0.54495 -0.20183,1.00917 -0.58532,1.39266c-0.38349,0.38349 -0.84771,0.58532 -1.37248,0.58532l-22.18167,0c-0.4844,0 -0.88807,0.18165 -1.25138,0.52477c-0.34312,0.3633 -0.52477,0.76697 -0.52477,1.23119l0.00001,0.00001z"/>

</g>
</g>

</svg>
