<svg width="60" height="60" xmlns="http://www.w3.org/2000/svg">
<g stroke="midnightblue" stroke-opacity="0.4" stroke-width="2.5">
  <path d="m5.17767,35.40187c0,3.20288 1.1234,5.92772 3.34629,8.22232c2.22289,2.2946 4.94773,3.51361 8.12671,3.65702c0.26292,0 0.40634,-0.14341 0.40634,-0.40634l0,-3.20288c0,-0.28683 -0.14341,-0.43024 -0.40634,-0.43024c-2.05558,-0.09561 -3.80043,-0.90828 -5.23456,-2.43801c-1.43413,-1.52973 -2.15119,-3.32239 -2.15119,-5.40187c0,-1.98387 0.66926,-3.70482 2.03168,-5.18675c1.36242,-1.48193 3.03557,-2.3185 5.01944,-2.55752l1.26681,-0.09561c0.31073,0 0.47804,-0.14341 0.47804,-0.40634l0.19122,-1.31462c0.23902,-2.58143 1.31462,-4.75652 3.25069,-6.47747c1.93607,-1.74485 4.20677,-2.60533 6.836,-2.60533c2.60533,0 4.87603,0.86048 6.836,2.60533c1.95997,1.74485 3.05947,3.89604 3.34629,6.47747l0.16731,1.38632c0,0.26292 0.14341,0.40634 0.40634,0.40634l3.87214,0c2.12729,0 3.96775,0.76487 5.52138,2.3185c1.55364,1.52973 2.34241,3.34629 2.34241,5.44968c0,2.07948 -0.71706,3.87214 -2.17509,5.40187c-1.45803,1.52973 -3.20288,2.34241 -5.23456,2.43801c-0.31073,0 -0.45414,0.14341 -0.45414,0.43024l0,3.20288c0,0.26292 0.14341,0.40634 0.45414,0.40634c2.10338,-0.0478 4.01555,-0.62145 5.76041,-1.72095c1.74485,-1.07559 3.13117,-2.50972 4.13506,-4.30238s1.50583,-3.75263 1.50583,-5.85601c0,-2.15119 -0.52585,-4.13506 -1.60144,-5.92772c-1.05169,-1.81656 -2.50972,-3.22678 -4.32628,-4.27848s-3.80043,-1.55364 -5.95162,-1.55364l-0.78877,0c-0.78877,-3.20288 -2.46192,-5.80821 -5.01944,-7.86379s-5.52138,-3.05947 -8.81987,-3.05947c-3.3702,0 -6.38186,1.05169 -8.98719,3.13117s-4.30238,4.78042 -5.04334,8.05501c-2.62923,0.62145 -4.80432,2.00778 -6.52527,4.15896s-2.58143,4.5892 -2.58143,7.33794l0,0.00002z" fill="linen"/>
  <path fill="green" d="m28.27159,16.32083zm-6.76551,20.81505c0,0.61729 0.19753,1.13582 0.5926,1.58027c0.37037,0.37037 0.8642,0.56791 1.50619,0.56791c0.59259,0 1.11112,-0.19754 1.53088,-0.56791l2.74077,-2.81485l0,9.82727c0,0.5926 0.19753,1.08644 0.56791,1.50619c0.39506,0.41976 0.8642,0.6173 1.4568,0.6173c0.56791,0 1.06174,-0.19754 1.4815,-0.6173c0.41976,-0.41975 0.61729,-0.91359 0.61729,-1.50619l0,-9.7285l2.76547,2.74077c0.98766,0.76544 2.00002,0.76544 3.01238,0c0.39506,-0.37037 0.5926,-0.8889 0.5926,-1.53088c0,-0.5926 -0.19754,-1.08643 -0.5926,-1.53088l-6.39514,-6.34575c-0.39506,-0.39507 -0.8889,-0.5926 -1.4815,-0.5926c-0.5926,0 -1.08643,0.19753 -1.4568,0.5926l-6.37045,6.34575c-0.37037,0.39506 -0.5679,0.8642 -0.5679,1.4568z"/>
 </g>
</svg>
