<svg width="60" height="60" xmlns="http://www.w3.org/2000/svg">

  <defs>
    <filter id="drop_shadow" filterUnits="objectBoundingBox" x="-50%" y="-50%" width="200%" height="200%">
      <feDropShadow dx="0.5" dy="0.5" stdDeviation="2" flood-color="black" flood-opacity="0.8" />
    </filter>
    <filter id="blur_shadow" filterUnits="objectBoundingBox" x="-50%" y="-50%" width="200%" height="200%">
      <feGaussianBlur in="SourceGraphic" stdDeviation="3" />
    </filter>
    <filter id="shadow">
      <feDropShadow dx="0.3" dy="0.6" stdDeviation="0.6" flood-color="black"/>
    </filter>
  </defs>

<g fill="black" style="filter:url(#blur_shadow)">
  <path d="m4.725,41.97545c0,0.47934 0.15978,0.85881 0.49931,1.17837c0.33953,0.31956 0.75895,0.45936 1.25826,0.45936l18.77401,0c0.47934,0 0.85881,-0.15978 1.17837,-0.45936c0.31956,-0.31956 0.45936,-0.69903 0.45936,-1.17837c0,-0.49931 -0.15978,-0.89876 -0.45936,-1.21831c-0.31956,-0.31956 -0.69903,-0.47934 -1.17837,-0.47934l-18.77401,0c-0.49931,0 -0.91873,0.15978 -1.25826,0.47934s-0.49931,0.719 -0.49931,1.21831zm5.25273,-6.09157c0,0.47934 0.17975,0.87878 0.51928,1.19834c0.31956,0.33953 0.719,0.49931 1.19834,0.49931l18.81396,0c0.45936,0 0.85881,-0.15978 1.17837,-0.49931c0.31956,-0.33953 0.47934,-0.73898 0.47934,-1.19834c0,-0.45936 -0.15978,-0.85881 -0.45936,-1.17837s-0.69903,-0.47934 -1.17837,-0.47934l-18.81396,0c-0.47934,0 -0.87878,0.15978 -1.21831,0.47934c-0.33953,0.31956 -0.51928,0.719 -0.51928,1.17837zm2.07712,-4.67353c0,0.17975 0.11983,0.27961 0.3595,0.27961l2.85605,0c0.17975,0 0.31956,-0.09986 0.43939,-0.27961c0.45936,-1.07851 1.13842,-1.97726 2.07712,-2.69627c0.9387,-0.719 1.97726,-1.11845 3.15563,-1.19834l1.09848,-0.13981c0.23967,0 0.3595,-0.11983 0.3595,-0.33953l0.13981,-1.03856c0.2197,-2.17699 1.13842,-3.99447 2.75618,-5.43248c1.63773,-1.45798 3.53511,-2.17699 5.73207,-2.17699c2.17699,0 4.07436,0.719 5.67215,2.15701c1.59779,1.43801 2.53649,3.23552 2.8161,5.41251l0.15978,1.1584c0,0.2197 0.11983,0.33953 0.3595,0.33953l3.21555,0c1.81748,0 3.35536,0.63912 4.63359,1.91735c1.27823,1.27823 1.91735,2.8161 1.91735,4.61361c0,1.75757 -0.63912,3.29544 -1.93732,4.57367c-1.2982,1.2982 -2.8161,1.93732 -4.59364,1.93732l-13.8009,0c-0.2197,0 -0.33953,0.11983 -0.33953,0.33953l0,2.6763c0,0.2197 0.11983,0.33953 0.33953,0.33953l13.8009,0c1.79751,0 3.45522,-0.43939 4.97312,-1.31818c1.5179,-0.87878 2.73621,-2.07712 3.615,-3.59502c0.87878,-1.5179 1.33815,-3.1756 1.33815,-4.97312s-0.43939,-3.43524 -1.2982,-4.93317c1.43801,-1.27823 2.43663,-2.99585 3.01583,-5.15287l0.3595,-1.35812c0.01997,-0.01997 0.01997,-0.05992 0.01997,-0.13981c0,-0.15978 -0.09986,-0.25964 -0.29959,-0.31956l-1.23829,-0.43939c-0.87878,-0.25964 -1.65771,-0.63912 -2.31679,-1.13842c-0.67906,-0.49931 -1.19834,-1.05853 -1.59779,-1.67768c-0.39945,-0.61914 -0.67906,-1.23829 -0.87878,-1.8774c-0.19972,-0.63912 -0.29959,-1.25826 -0.29959,-1.89737c0,-0.47934 0.07989,-1.05853 0.2197,-1.73759l0.25964,-1.21831c0.07989,-0.17975 0,-0.33953 -0.25964,-0.45936l-1.67768,-0.49931c-0.87878,-0.2197 -1.69765,-0.31956 -2.49654,-0.31956c-0.75895,0 -1.49793,0.07989 -2.25688,0.25964s-1.53787,0.43939 -2.35674,0.81887c-0.81887,0.3595 -1.59779,0.89876 -2.35674,1.59779c-0.75895,0.69903 -1.41804,1.49793 -1.97726,2.43663c-1.53787,-0.63912 -3.13566,-0.95867 -4.73345,-0.95867c-2.8161,0 -5.31265,0.87878 -7.48963,2.63635s-3.55508,3.99447 -4.15425,6.75066c-1.73759,0.39945 -3.25549,1.21831 -4.5537,2.43663c-1.2982,1.23829 -2.21693,2.69627 -2.71624,4.41389l0,0.05992c-0.03994,0.01997 -0.05992,0.07989 -0.05992,0.15978zm1.45798,16.95653c0,0.47934 0.15978,0.87878 0.49931,1.19834c0.31956,0.33953 0.719,0.49931 1.19834,0.49931l18.83393,0c0.47934,0 0.87878,-0.15978 1.21831,-0.49931c0.33953,-0.33953 0.49931,-0.73898 0.49931,-1.19834c0,-0.45936 -0.15978,-0.85881 -0.49931,-1.17837c-0.33953,-0.31956 -0.73898,-0.47934 -1.21831,-0.47934l-18.83393,0c-0.47934,0 -0.87878,0.15978 -1.19834,0.47934c-0.33953,0.31956 -0.49931,0.719 -0.49931,1.17837zm25.12522,-30.69751c0.67906,-1.09848 1.57782,-1.95729 2.69627,-2.55646c1.09848,-0.59917 2.2369,-0.89876 3.3953,-0.87878c0.2197,0 0.39945,0 0.49931,0.01997l0,0.47934c0,1.93732 0.51928,3.79475 1.57782,5.57229c1.05853,1.75757 2.49654,3.09571 4.334,3.95453c-0.33953,0.79889 -0.85881,1.5179 -1.5179,2.13704c-1.75757,-1.57782 -3.89461,-2.35674 -6.39115,-2.35674l-0.63912,0c-0.49931,-2.39668 -1.81748,-4.51375 -3.95453,-6.37118z"/>
</g>

<g stroke-width="2.5" stroke-opacity="0.4" stroke="midnightblue">

  <path id="moonfillback" stroke-width="0.1" fill="paleturquoise"  fill-opacity="0.2" style="filter:url(#blur_shadow)" d="m43.20668,27.27653zm-4.53863,-9.71987c0.62256,-1.1447 1.50618,-2.02832 2.61072,-2.6308c1.10453,-0.60247 2.2894,-0.90371 3.53451,-0.88363c0.22091,0 0.40165,0.02008 0.50206,0.04016l0,0.62256c0,1.96808 0.52214,3.79558 1.56643,5.52267c1.04429,1.72709 2.5103,3.03245 4.35789,3.91607c-0.38157,0.88363 -0.88363,1.58651 -1.50618,2.14882c-1.76725,-1.58651 -3.93616,-2.36973 -6.52679,-2.36973l-0.64264,0c-0.52214,-2.5103 -1.80742,-4.63904 -3.89599,-6.36613l-0.00001,0.00001z"/>

  <path id="cloudfillback" stroke-width="0" filter="url(#blur_shadow)" fill="paleturquoise" fill-opacity="0.3" d="m13.80767,33.85888c0,1.81002 0.66685,3.38188 1.95292,4.66796s2.88175,1.95292 4.73941,1.95292l22.10135,0c1.83385,0 3.42952,-0.64303 4.73941,-1.95292c1.30989,-1.30989 1.97674,-2.85793 1.97674,-4.66796c0,-1.81002 -0.64303,-3.38188 -1.97674,-4.66796c-1.30989,-1.28607 -2.88175,-1.95292 -4.73941,-1.95292l-3.31044,0c-0.23816,0 -0.35724,-0.11908 -0.35724,-0.35724l-0.16671,-1.16699c-0.23816,-2.23872 -1.19081,-4.1202 -2.83411,-5.59679s-3.59624,-2.2149 -5.83495,-2.2149c-2.23872,0 -4.19163,0.7383 -5.85877,2.23872c-1.66713,1.4766 -2.59596,3.35807 -2.8103,5.57298l-0.16671,1.00028c0,0.23816 -0.11908,0.35724 -0.38106,0.35724l-1.07172,0.16671c-1.71476,0.14289 -3.14373,0.85738 -4.31071,2.11963c-1.09554,1.26226 -1.69095,2.76268 -1.69095,4.50125l-0.00001,-0.00001l-0.00001,0l0.00001,0z"/>
  <path id="cloudmoon" fill="linen" d="m5.22431,43.15382zm6.83054,-11.94347c0,0.17975 0.11983,0.27961 0.3595,0.27961l2.85605,0c0.17975,0 0.31956,-0.09986 0.43939,-0.27961c0.45936,-1.07851 1.13842,-1.97726 2.07712,-2.69627c0.9387,-0.719 1.97726,-1.11845 3.15563,-1.19834l1.09848,-0.13981c0.23967,0 0.3595,-0.11983 0.3595,-0.33953l0.13981,-1.03856c0.2197,-2.17699 1.13842,-3.99447 2.75618,-5.43248c1.63773,-1.45798 3.53511,-2.17699 5.73207,-2.17699c2.17699,0 4.07436,0.719 5.67215,2.15701c1.59779,1.43801 2.53649,3.23552 2.8161,5.41251l0.15978,1.1584c0,0.2197 0.11983,0.33953 0.3595,0.33953l3.21555,0c1.81748,0 3.35536,0.63912 4.63359,1.91735c1.27823,1.27823 1.91735,2.8161 1.91735,4.61361c0,1.75757 -0.63912,3.29544 -1.93732,4.57367c-1.2982,1.2982 -2.8161,1.93732 -4.59364,1.93732l-13.8009,0c-0.2197,0 -0.33953,0.11983 -0.33953,0.33953l0,2.6763c0,0.2197 0.11983,0.33953 0.33953,0.33953l13.8009,0c1.79751,0 3.45522,-0.43939 4.97312,-1.31818c1.5179,-0.87878 2.73621,-2.07712 3.615,-3.59502c0.87878,-1.5179 1.33815,-3.1756 1.33815,-4.97312s-0.43939,-3.43524 -1.2982,-4.93317c1.43801,-1.27823 2.43663,-2.99585 3.01583,-5.15287l0.3595,-1.35812c0.01997,-0.01997 0.01997,-0.05992 0.01997,-0.13981c0,-0.15978 -0.09986,-0.25964 -0.29959,-0.31956l-1.23829,-0.43939c-0.87878,-0.25964 -1.65771,-0.63912 -2.31679,-1.13842c-0.67906,-0.49931 -1.19834,-1.05853 -1.59779,-1.67768c-0.39945,-0.61914 -0.67906,-1.23829 -0.87878,-1.8774c-0.19972,-0.63912 -0.29959,-1.25826 -0.29959,-1.89737c0,-0.47934 0.07989,-1.05853 0.2197,-1.73759l0.25964,-1.21831c0.07989,-0.17975 0,-0.33953 -0.25964,-0.45936l-1.67768,-0.49931c-0.87878,-0.2197 -1.69765,-0.31956 -2.49654,-0.31956c-0.75895,0 -1.49793,0.07989 -2.25688,0.25964s-1.53787,0.43939 -2.35674,0.81887c-0.81887,0.3595 -1.59779,0.89876 -2.35674,1.59779c-0.75895,0.69903 -1.41804,1.49793 -1.97726,2.43663c-1.53787,-0.63912 -3.13566,-0.95867 -4.73345,-0.95867c-2.8161,0 -5.31265,0.87878 -7.48963,2.63635s-3.55508,3.99447 -4.15425,6.75066c-1.73759,0.39945 -3.25549,1.21831 -4.5537,2.43663c-1.2982,1.23829 -2.21693,2.69627 -2.71624,4.41389l0,0.05992c-0.03994,0.01997 -0.05992,0.07989 -0.05992,0.15978l0,-0.00003zm26.5832,-13.74098c0.67906,-1.09848 1.57782,-1.95729 2.69627,-2.55646c1.09848,-0.59917 2.2369,-0.89876 3.3953,-0.87878c0.2197,0 0.39945,0 0.49931,0.01997l0,0.47934c0,1.93732 0.51928,3.79475 1.57782,5.57229c1.05853,1.75757 2.49654,3.09571 4.334,3.95453c-0.33953,0.79889 -0.85881,1.5179 -1.5179,2.13704c-1.75757,-1.57782 -3.89461,-2.35674 -6.39115,-2.35674l-0.63912,0c-0.49931,-2.39668 -1.81748,-4.51375 -3.95453,-6.37118l0,-0.00001z"/>

  <path id="wind" fill="gray" d="m4.725,41.97545c0,0.47934 0.15978,0.85881 0.49931,1.17837c0.33953,0.31956 0.75895,0.45936 1.25826,0.45936l18.77401,0c0.47934,0 0.85881,-0.15978 1.17837,-0.45936c0.31956,-0.31956 0.45936,-0.69903 0.45936,-1.17837c0,-0.49931 -0.15978,-0.89876 -0.45936,-1.21831c-0.31956,-0.31956 -0.69903,-0.47934 -1.17837,-0.47934l-18.77401,0c-0.49931,0 -0.91873,0.15978 -1.25826,0.47934s-0.49931,0.719 -0.49931,1.21831zm5.25273,-6.09157c0,0.47934 0.17975,0.87878 0.51928,1.19834c0.31956,0.33953 0.719,0.49931 1.19834,0.49931l18.81396,0c0.45936,0 0.85881,-0.15978 1.17837,-0.49931c0.31956,-0.33953 0.47934,-0.73898 0.47934,-1.19834c0,-0.45936 -0.15978,-0.85881 -0.45936,-1.17837s-0.69903,-0.47934 -1.17837,-0.47934l-18.81396,0c-0.47934,0 -0.87878,0.15978 -1.21831,0.47934c-0.33953,0.31956 -0.51928,0.719 -0.51928,1.17837l-0.00001,0zm3.5351,12.283c0,0.47934 0.15978,0.87878 0.49931,1.19834c0.31956,0.33953 0.719,0.49931 1.19834,0.49931l18.83393,0c0.47934,0 0.87878,-0.15978 1.21831,-0.49931c0.33953,-0.33953 0.49931,-0.73898 0.49931,-1.19834c0,-0.45936 -0.15978,-0.85881 -0.49931,-1.17837c-0.33953,-0.31956 -0.73898,-0.47934 -1.21831,-0.47934l-18.83393,0c-0.47934,0 -0.87878,0.15978 -1.19834,0.47934c-0.33953,0.31956 -0.49931,0.719 -0.49931,1.17837z"/>
</g>

  <path id="moonfill" stroke-width="0" fill="paleturquoise"  fill-opacity="0.5" d="m43.20668,27.27653zm-4.53863,-9.71987c0.62256,-1.1447 1.50618,-2.02832 2.61072,-2.6308c1.10453,-0.60247 2.2894,-0.90371 3.53451,-0.88363c0.22091,0 0.40165,0.02008 0.50206,0.04016l0,0.62256c0,1.96808 0.52214,3.79558 1.56643,5.52267c1.04429,1.72709 2.5103,3.03245 4.35789,3.91607c-0.38157,0.88363 -0.88363,1.58651 -1.50618,2.14882c-1.76725,-1.58651 -3.93616,-2.36973 -6.52679,-2.36973l-0.64264,0c-0.52214,-2.5103 -1.80742,-4.63904 -3.89599,-6.36613l-0.00001,0.00001z"/>


</svg>


