<svg width="60" height="60" xmlns="http://www.w3.org/2000/svg">
 <g>
  <circle fill="#FFFF99" fill-opacity="0.4" cx="30" cy="30" r="13"/>
  <path d="m5.69271,29.97711c0,-0.54932 0.18311,-1.02997 0.57221,-1.41907c0.3891,-0.36621 0.86975,-0.54932 1.37329,-0.54932l4.6692,0c0.52643,0 0.96131,0.18311 1.32752,0.57221c0.34332,0.3891 0.52643,0.84686 0.52643,1.39618s-0.16022,1.00708 -0.50354,1.39618c-0.34332,0.3891 -0.80109,0.57221 -1.32752,0.57221l-4.6692,0c-0.52643,0 -0.98419,-0.18311 -1.37329,-0.57221c-0.3891,-0.3891 -0.59509,-0.84686 -0.59509,-1.39618l-0.00001,0zm6.54603,15.86154c0,-0.52643 0.18311,-0.98419 0.52643,-1.39618l3.36457,-3.27302c0.34332,-0.36621 0.80109,-0.52643 1.3504,-0.52643c0.54932,0 1.00708,0.18311 1.37329,0.52643s0.54932,0.7782 0.54932,1.30463c0,0.54932 -0.18311,1.05286 -0.54932,1.46485l-3.25013,3.25013c-0.93842,0.73242 -1.87683,0.73242 -2.81525,0c-0.36621,-0.36621 -0.54932,-0.82398 -0.54932,-1.3504l0.00001,-0.00001zm0,-31.6773c0,-0.52643 0.18311,-0.98419 0.52643,-1.39618c0.45776,-0.3891 0.93842,-0.57221 1.46485,-0.57221c0.50354,0 0.96131,0.18311 1.3504,0.54932l3.27302,3.36457c0.36621,0.34332 0.54932,0.80109 0.54932,1.3504c0,0.54932 -0.18311,1.00708 -0.54932,1.37329s-0.82398,0.54932 -1.37329,0.54932c-0.54932,0 -1.00708,-0.18311 -1.3504,-0.54932l-3.34168,-3.27302c-0.36621,-0.36621 -0.54932,-0.84686 -0.54932,-1.39618l-0.00001,0.00001zm5.8365,15.81576c0,-2.1286 0.52643,-4.11988 1.60218,-5.95094s2.5177,-3.2959 4.37165,-4.37165s3.82233,-1.60218 5.95094,-1.60218c1.60218,0 3.13569,0.32044 4.62342,0.96131c1.46485,0.64087 2.74659,1.48773 3.79944,2.56348c1.07575,1.07575 1.92261,2.3346 2.54059,3.79944c0.61798,1.46485 0.93842,3.02124 0.93842,4.62342c0,2.15149 -0.52643,4.14277 -1.60218,5.97383c-1.07575,1.83106 -2.5177,3.27302 -4.34876,4.34876c-1.83106,1.07575 -3.82233,1.60218 -5.97383,1.60218s-4.14277,-0.52643 -5.97383,-1.60218c-1.83106,-1.07575 -3.27302,-2.5177 -4.34876,-4.34876c-1.02997,-1.85395 -1.57929,-3.84522 -1.57929,-5.99671l0.00001,0zm3.891,0c0,2.24305 0.7782,4.14277 2.35749,5.72205c1.5564,1.57929 3.45612,2.38037 5.69917,2.38037s4.14277,-0.80109 5.72205,-2.38037s2.38037,-3.47901 2.38037,-5.72205c0,-2.19727 -0.80109,-4.0741 -2.38037,-5.65339c-1.57929,-1.5564 -3.47901,-2.3346 -5.72205,-2.3346c-2.22016,0 -4.11988,0.7782 -5.67628,2.3346c-1.60218,1.57929 -2.38037,3.45612 -2.38037,5.65339l-0.00001,0zm6.08827,17.80703c0,-0.54932 0.18311,-1.00708 0.57221,-1.37329s0.84686,-0.54932 1.37329,-0.54932c0.54932,0 1.02997,0.18311 1.39618,0.54932s0.54932,0.82398 0.54932,1.37329l0,4.55476c0,0.54932 -0.18311,1.02997 -0.57221,1.41907c-0.3891,0.3891 -0.84686,0.57221 -1.37329,0.57221s-1.00708,-0.18311 -1.37329,-0.57221c-0.3891,-0.3891 -0.57221,-0.86975 -0.57221,-1.41907l0,-4.55476zm0,-35.47674l0,-4.6692c0,-0.52643 0.18311,-0.98419 0.57221,-1.37329c0.3891,-0.3891 0.84686,-0.59509 1.39618,-0.59509s0.98419,0.18311 1.37329,0.57221c0.3891,0.3891 0.57221,0.84686 0.57221,1.37329l0,4.69208c0,0.52643 -0.18311,0.96131 -0.57221,1.32752s-0.84686,0.52643 -1.37329,0.52643s-1.00708,-0.18311 -1.37329,-0.52643s-0.59509,-0.80109 -0.59509,-1.32752l-0.00001,0zm12.6343,30.16667c0,-0.52643 0.18311,-0.96131 0.52643,-1.28174c0.34332,-0.36621 0.7782,-0.52643 1.28174,-0.52643c0.54932,0 1.00708,0.18311 1.37329,0.52643l3.34168,3.27302c0.36621,0.3891 0.54932,0.86975 0.54932,1.39618c0,0.52643 -0.18311,0.98419 -0.54932,1.3504c-0.91553,0.70953 -1.83106,0.70953 -2.74659,0l-3.25013,-3.25013c-0.34332,-0.41199 -0.52643,-0.89264 -0.52643,-1.48773l0.00001,0zm0,-24.99394c0,-0.57221 0.18311,-1.02997 0.52643,-1.3504l3.25013,-3.36457c0.3891,-0.36621 0.84686,-0.54932 1.3504,-0.54932c0.54932,0 1.00708,0.18311 1.37329,0.57221c0.3891,0.3891 0.57221,0.84686 0.57221,1.37329c0,0.57221 -0.18311,1.05286 -0.54932,1.41907l-3.34168,3.27302c-0.41199,0.36621 -0.86975,0.54932 -1.37329,0.54932c-0.52643,0 -0.93842,-0.18311 -1.28174,-0.54932s-0.52643,-0.82398 -0.52643,-1.37329l0,-0.00001zm5.17274,12.49697c0,-0.54932 0.18311,-1.00708 0.54932,-1.41907c0.36621,-0.36621 0.80109,-0.54932 1.30463,-0.54932l4.62342,0c0.52643,0 0.98419,0.20599 1.37329,0.59509c0.3891,0.3891 0.59509,0.84686 0.59509,1.37329s-0.20599,0.98419 -0.59509,1.37329c-0.3891,0.3891 -0.84686,0.57221 -1.37329,0.57221l-4.62342,0c-0.52643,0 -0.98419,-0.18311 -1.32752,-0.57221s-0.52643,-0.82398 -0.52643,-1.37329l0,0.00001z" fill="yellow" stroke-width="2" stroke-opacity="0.4" stroke="midnightblue"/>
 </g>
</svg>
