<svg width="60" height="60" xmlns="http://www.w3.org/2000/svg">
  <defs>
    <filter id="drop_shadow" filterUnits="objectBoundingBox" x="-50%" y="-50%" width="200%" height="200%">
      <feDropShadow dx="0.5" dy="0.5" stdDeviation="2" flood-color="black" flood-opacity="0.8" />
    </filter>
    <filter id="blur_shadow" filterUnits="objectBoundingBox" x="-50%" y="-50%" width="200%" height="200%">
      <feGaussianBlur in="SourceGraphic" stdDeviation="3" />
    </filter>
    <filter id="shadow">
      <feDropShadow dx="0.3" dy="0.6" stdDeviation="0.6" flood-color="black"/>
    </filter>
  </defs>


<g fill="black" style="filter:url(#blur_shadow)">
    <path d="m9.13653,34.07592c0,-2.30094 0.7203,-4.34178 2.16088,-6.14251c1.44059,-1.80073 3.26133,-2.9412 5.46223,-3.46141c0.62025,-2.72111 2.02082,-4.96203 4.20171,-6.70274s4.70192,-2.62107 7.52307,-2.62107c2.76113,0 5.20213,0.86035 7.36301,2.54104c2.14088,1.70069 3.56145,3.88158 4.22172,6.56268l0.62025,0c1.78073,0 3.44141,0.44018 4.96203,1.30053s2.74112,2.06084 3.62148,3.56145c0.88036,1.50061 1.34055,3.16129 1.34055,4.94202c0,2.68109 -0.92038,4.98203 -2.76113,6.90282s-4.10167,2.9412 -6.76276,3.02123c-0.2601,0 -0.40017,-0.12005 -0.40017,-0.34014l0,-2.66108c0,-0.2401 0.14006,-0.36015 0.40017,-0.36015c1.7207,-0.08004 3.16129,-0.76031 4.36178,-2.04083s1.80073,-2.78114 1.80073,-4.52185s-0.64026,-3.24132 -1.9608,-4.52185c-1.30053,-1.28053 -2.84116,-1.92079 -4.62189,-1.92079l-3.2013,0c-0.2401,0 -0.38016,-0.12005 -0.38016,-0.34014l-0.14006,-1.16047c-0.22009,-2.14088 -1.14046,-3.96162 -2.76113,-5.42221c-1.64067,-1.46059 -3.54144,-2.2009 -5.70233,-2.2009c-2.18089,0 -4.10167,0.7203 -5.72234,2.18089c-1.62067,1.46059 -2.54104,3.26133 -2.76113,5.42221l-0.12005,1.08044c0,0.2401 -0.14006,0.36015 -0.40017,0.36015l-1.06043,0.06003c-1.64067,0.08004 -3.02123,0.7403 -4.18171,2.00081s-1.7207,2.74112 -1.7207,4.44181c0,1.74071 0.60024,3.24132 1.80073,4.52185s2.66108,1.9608 4.36178,2.04083c0.22009,0 0.34014,0.12005 0.34014,0.36015l0,2.66108c0,0.22009 -0.12005,0.34014 -0.34014,0.34014c-2.68109,-0.12005 -4.94202,-1.14046 -6.80277,-3.06125s-2.74112,-4.1617 -2.74112,-6.82278l0.00003,0.00001z"/>
    <path d="m21.09769,39.93686c0,-0.44265 0.16096,-0.84507 0.48289,-1.167c0.32193,-0.32193 0.70423,-0.48289 1.18712,-0.48289c0.46278,0 0.86519,0.16096 1.18712,0.48289c0.32193,0.32193 0.48289,0.72434 0.48289,1.167c0,0.48289 -0.16096,0.88531 -0.48289,1.20724c-0.32193,0.34205 -0.70423,0.50302 -1.18712,0.50302c-0.46278,0 -0.86519,-0.16096 -1.18712,-0.50302c-0.32193,-0.32193 -0.48289,-0.72434 -0.48289,-1.20724zm0,7.3038c0,-0.48289 0.16096,-0.88531 0.48289,-1.20724c0.32193,-0.30181 0.70423,-0.46278 1.167,-0.46278c0.46278,0 0.86519,0.16096 1.18712,0.46278c0.32193,0.32193 0.48289,0.70423 0.48289,1.18712c0,0.48289 -0.16096,0.86519 -0.48289,1.18712c-0.32193,0.32193 -0.70423,0.46278 -1.18712,0.46278c-0.46278,0 -0.86519,-0.16096 -1.18712,-0.46278c-0.30181,-0.30181 -0.46278,-0.70423 -0.46278,-1.167l0.00001,-0.00001zm6.41849,-3.42051c0,-0.46278 0.16096,-0.88531 0.50302,-1.24748c0.32193,-0.32193 0.70423,-0.48289 1.14688,-0.48289c0.46278,0 0.86519,0.18109 1.20724,0.52314c0.34205,0.34205 0.52314,0.74447 0.52314,1.20724c0,0.46278 -0.16096,0.86519 -0.50302,1.20724c-0.34205,0.34205 -0.74447,0.50302 -1.22736,0.50302c-0.46278,0 -0.84507,-0.16096 -1.167,-0.50302s-0.48289,-0.74447 -0.48289,-1.20724zm0,-7.28367c0,-0.46278 0.16096,-0.86519 0.50302,-1.20724c0.36217,-0.32193 0.74447,-0.48289 1.14688,-0.48289c0.48289,0 0.88531,0.16096 1.22736,0.50302c0.34205,0.34205 0.50302,0.72434 0.50302,1.20724c0,0.46278 -0.16096,0.86519 -0.50302,1.18712c-0.34205,0.32193 -0.74447,0.48289 -1.22736,0.48289c-0.46278,0 -0.84507,-0.16096 -1.167,-0.48289c-0.32193,-0.34205 -0.48289,-0.74447 -0.48289,-1.20724l-0.00001,-0.00001zm0,14.64783c0,-0.46278 0.16096,-0.86519 0.50302,-1.22736c0.32193,-0.32193 0.70423,-0.48289 1.14688,-0.48289c0.48289,0 0.88531,0.16096 1.22736,0.50302c0.34205,0.34205 0.50302,0.74447 0.50302,1.20724s-0.16096,0.86519 -0.50302,1.18712c-0.34205,0.32193 -0.74447,0.48289 -1.22736,0.48289c-0.46278,0 -0.84507,-0.16096 -1.167,-0.48289c-0.32193,-0.34205 -0.48289,-0.72434 -0.48289,-1.18712l-0.00001,0zm6.47885,-11.24744c0,-0.44265 0.16096,-0.82495 0.50302,-1.167c0.34205,-0.34205 0.74447,-0.50302 1.20724,-0.50302c0.46278,0 0.86519,0.16096 1.18712,0.48289c0.32193,0.32193 0.48289,0.72434 0.48289,1.167c0,0.48289 -0.16096,0.88531 -0.48289,1.20724c-0.32193,0.34205 -0.70423,0.50302 -1.18712,0.50302c-0.48289,0 -0.88531,-0.16096 -1.20724,-0.50302c-0.32193,-0.32193 -0.50302,-0.72434 -0.50302,-1.18712l0,0.00001zm0,7.3038c0,-0.44265 0.16096,-0.84507 0.50302,-1.20724c0.32193,-0.30181 0.72434,-0.46278 1.20724,-0.46278c0.48289,0 0.86519,0.16096 1.18712,0.46278s0.46278,0.70423 0.46278,1.18712c0,0.48289 -0.16096,0.86519 -0.46278,1.18712c-0.32193,0.32193 -0.70423,0.46278 -1.18712,0.46278c-0.48289,0 -0.88531,-0.16096 -1.20724,-0.48289c-0.32193,-0.30181 -0.50302,-0.6841 -0.50302,-1.14688l0,-0.00001z"/>
   </g>
   <path filter="url(#blur_shadow)" fill="paleturquoise" fill-opacity="0.2" d="m13.41365,34.58145c0,1.6894 0.62241,3.1565 1.82277,4.35687s2.6897,1.82277 4.42356,1.82277l20.62845,0c1.71164,0 3.20097,-0.60017 4.42356,-1.82277c1.2226,-1.2226 1.845,-2.66747 1.845,-4.35687c0,-1.6894 -0.60017,-3.1565 -1.845,-4.35687c-1.2226,-1.20037 -2.6897,-1.82278 -4.42356,-1.82278l-3.08982,0c-0.22229,0 -0.33343,-0.11114 -0.33343,-0.33343l-0.15561,-1.08921c-0.22229,-2.08952 -1.11144,-3.84561 -2.64524,-5.2238s-3.35657,-2.06728 -5.44608,-2.06728c-2.08952,0 -3.91229,0.6891 -5.46832,2.08952c-1.55603,1.37819 -2.42295,3.13427 -2.62301,5.20157l-0.15561,0.93362c0,0.22228 -0.11114,0.33342 -0.35567,0.33342l-1.0003,0.15561c-1.60047,0.13337 -2.93422,0.80024 -4.02343,1.97838c-1.02254,1.17813 -1.57825,2.57856 -1.57825,4.20127l-0.00001,-0.00001z"/>
   <g stroke="midnightblue" filter="url(#drop_shadow)" stroke-opacity="0.4">
    <path stroke="midnightblue" stroke-width="2.5" stroke-opacity="0.4" fill="linen" d="m9.13653,34.07592c0,-2.30094 0.7203,-4.34178 2.16088,-6.14251c1.44059,-1.80073 3.26133,-2.9412 5.46223,-3.46141c0.62025,-2.72111 2.02082,-4.96203 4.20171,-6.70274s4.70192,-2.62107 7.52307,-2.62107c2.76113,0 5.20213,0.86035 7.36301,2.54104c2.14088,1.70069 3.56145,3.88158 4.22172,6.56268l0.62025,0c1.78073,0 3.44141,0.44018 4.96203,1.30053s2.74112,2.06084 3.62148,3.56145c0.88036,1.50061 1.34055,3.16129 1.34055,4.94202c0,2.68109 -0.92038,4.98203 -2.76113,6.90282s-4.10167,2.9412 -6.76276,3.02123c-0.2601,0 -0.40017,-0.12005 -0.40017,-0.34014l0,-2.66108c0,-0.2401 0.14006,-0.36015 0.40017,-0.36015c1.7207,-0.08004 3.16129,-0.76031 4.36178,-2.04083s1.80073,-2.78114 1.80073,-4.52185s-0.64026,-3.24132 -1.9608,-4.52185c-1.30053,-1.28053 -2.84116,-1.92079 -4.62189,-1.92079l-3.2013,0c-0.2401,0 -0.38016,-0.12005 -0.38016,-0.34014l-0.14006,-1.16047c-0.22009,-2.14088 -1.14046,-3.96162 -2.76113,-5.42221c-1.64067,-1.46059 -3.54144,-2.2009 -5.70233,-2.2009c-2.18089,0 -4.10167,0.7203 -5.72234,2.18089c-1.62067,1.46059 -2.54104,3.26133 -2.76113,5.42221l-0.12005,1.08044c0,0.2401 -0.14006,0.36015 -0.40017,0.36015l-1.06043,0.06003c-1.64067,0.08004 -3.02123,0.7403 -4.18171,2.00081s-1.7207,2.74112 -1.7207,4.44181c0,1.74071 0.60024,3.24132 1.80073,4.52185s2.66108,1.9608 4.36178,2.04083c0.22009,0 0.34014,0.12005 0.34014,0.36015l0,2.66108c0,0.22009 -0.12005,0.34014 -0.34014,0.34014c-2.68109,-0.12005 -4.94202,-1.14046 -6.80277,-3.06125s-2.74112,-4.1617 -2.74112,-6.82278l0.00003,0.00001z"/>
    <path fill="white" d="m21.09769,39.93686c0,-0.44265 0.16096,-0.84507 0.48289,-1.167c0.32193,-0.32193 0.70423,-0.48289 1.18712,-0.48289c0.46278,0 0.86519,0.16096 1.18712,0.48289c0.32193,0.32193 0.48289,0.72434 0.48289,1.167c0,0.48289 -0.16096,0.88531 -0.48289,1.20724c-0.32193,0.34205 -0.70423,0.50302 -1.18712,0.50302c-0.46278,0 -0.86519,-0.16096 -1.18712,-0.50302c-0.32193,-0.32193 -0.48289,-0.72434 -0.48289,-1.20724zm0,7.3038c0,-0.48289 0.16096,-0.88531 0.48289,-1.20724c0.32193,-0.30181 0.70423,-0.46278 1.167,-0.46278c0.46278,0 0.86519,0.16096 1.18712,0.46278c0.32193,0.32193 0.48289,0.70423 0.48289,1.18712c0,0.48289 -0.16096,0.86519 -0.48289,1.18712c-0.32193,0.32193 -0.70423,0.46278 -1.18712,0.46278c-0.46278,0 -0.86519,-0.16096 -1.18712,-0.46278c-0.30181,-0.30181 -0.46278,-0.70423 -0.46278,-1.167l0.00001,-0.00001zm6.41849,-3.42051c0,-0.46278 0.16096,-0.88531 0.50302,-1.24748c0.32193,-0.32193 0.70423,-0.48289 1.14688,-0.48289c0.46278,0 0.86519,0.18109 1.20724,0.52314c0.34205,0.34205 0.52314,0.74447 0.52314,1.20724c0,0.46278 -0.16096,0.86519 -0.50302,1.20724c-0.34205,0.34205 -0.74447,0.50302 -1.22736,0.50302c-0.46278,0 -0.84507,-0.16096 -1.167,-0.50302s-0.48289,-0.74447 -0.48289,-1.20724zm0,-7.28367c0,-0.46278 0.16096,-0.86519 0.50302,-1.20724c0.36217,-0.32193 0.74447,-0.48289 1.14688,-0.48289c0.48289,0 0.88531,0.16096 1.22736,0.50302c0.34205,0.34205 0.50302,0.72434 0.50302,1.20724c0,0.46278 -0.16096,0.86519 -0.50302,1.18712c-0.34205,0.32193 -0.74447,0.48289 -1.22736,0.48289c-0.46278,0 -0.84507,-0.16096 -1.167,-0.48289c-0.32193,-0.34205 -0.48289,-0.74447 -0.48289,-1.20724l-0.00001,-0.00001zm0,14.64783c0,-0.46278 0.16096,-0.86519 0.50302,-1.22736c0.32193,-0.32193 0.70423,-0.48289 1.14688,-0.48289c0.48289,0 0.88531,0.16096 1.22736,0.50302c0.34205,0.34205 0.50302,0.74447 0.50302,1.20724s-0.16096,0.86519 -0.50302,1.18712c-0.34205,0.32193 -0.74447,0.48289 -1.22736,0.48289c-0.46278,0 -0.84507,-0.16096 -1.167,-0.48289c-0.32193,-0.34205 -0.48289,-0.72434 -0.48289,-1.18712l-0.00001,0zm6.47885,-11.24744c0,-0.44265 0.16096,-0.82495 0.50302,-1.167c0.34205,-0.34205 0.74447,-0.50302 1.20724,-0.50302c0.46278,0 0.86519,0.16096 1.18712,0.48289c0.32193,0.32193 0.48289,0.72434 0.48289,1.167c0,0.48289 -0.16096,0.88531 -0.48289,1.20724c-0.32193,0.34205 -0.70423,0.50302 -1.18712,0.50302c-0.48289,0 -0.88531,-0.16096 -1.20724,-0.50302c-0.32193,-0.32193 -0.50302,-0.72434 -0.50302,-1.18712l0,0.00001zm0,7.3038c0,-0.44265 0.16096,-0.84507 0.50302,-1.20724c0.32193,-0.30181 0.72434,-0.46278 1.20724,-0.46278c0.48289,0 0.86519,0.16096 1.18712,0.46278s0.46278,0.70423 0.46278,1.18712c0,0.48289 -0.16096,0.86519 -0.46278,1.18712c-0.32193,0.32193 -0.70423,0.46278 -1.18712,0.46278c-0.48289,0 -0.88531,-0.16096 -1.20724,-0.48289c-0.32193,-0.30181 -0.50302,-0.6841 -0.50302,-1.14688l0,-0.00001z"/>

</g>
</svg>
