<svg width="60" height="60" xmlns="http://www.w3.org/2000/svg">
  <defs>
    <filter id="drop_shadow" filterUnits="objectBoundingBox" x="-50%" y="-50%" width="200%" height="200%">
      <feDropShadow dx="0.5" dy="0.5" stdDeviation="2" flood-color="black" flood-opacity="0.8" />
    </filter>
    <filter id="blur_shadow" filterUnits="objectBoundingBox" x="-50%" y="-50%" width="200%" height="200%">
      <feGaussianBlur in="SourceGraphic" stdDeviation="3" />
    </filter>
    <filter id="shadow">
      <feDropShadow dx="0.3" dy="0.6" stdDeviation="0.6" flood-color="black"/>
    </filter>
  <linearGradient id="linearGradient3199">
   <stop id="stop3201" offset="0" stop-color="#ffffff"/>
   <stop id="stop3203" offset="1" stop-opacity="0" stop-color="#ffffff"/>
  </linearGradient>
  <linearGradient xlink:href="#linearGradient3199" id="linearGradient3206" x1="0.35792" y1="0.0564" x2="0.4991" y2="0.96319"/>
  </defs>
 <g>
  <circle cx="30" cy="30" r="20.24999" fill-opacity="0.4" fill="blue"/>
  <path style="filter:url(#blur_shadow)" fill="black" d="m4.1781,30.04586c0,-4.67821 1.16955,-9.01244 3.48573,-12.97975s5.45792,-7.10905 9.42522,-9.42522s8.2786,-3.4628 12.93388,-3.4628c3.48573,0 6.83386,0.68797 10.02147,2.04099s5.91656,3.21054 8.23274,5.50378s4.15077,5.04513 5.50378,8.25567s2.04099,6.53574 2.04099,10.06733c0,3.48573 -0.68797,6.83386 -2.04099,10.02147s-3.21054,5.9395 -5.50378,8.23274s-5.04513,4.12784 -8.23274,5.48085s-6.51281,2.04099 -10.02147,2.04099c-3.50866,0 -6.87973,-0.68797 -10.06733,-2.04099s-5.9395,-3.21054 -8.25567,-5.50378s-4.12784,-5.04513 -5.50378,-8.20981s-2.01805,-6.51281 -2.01805,-10.02147zm5.68724,0c0,5.43498 1.97219,10.15906 5.9395,14.17224c3.96731,3.96731 8.69139,5.9395 14.2181,5.9395c3.62332,0 6.99439,-0.89436 10.06733,-2.70603s5.54965,-4.2425 7.36131,-7.33837s2.72896,-6.44401 2.72896,-10.06733s-0.9173,-6.99439 -2.72896,-10.09026s-4.26543,-5.54965 -7.36131,-7.36131s-6.44401,-2.70603 -10.06733,-2.70603s-6.99439,0.89436 -10.06733,2.70603s-5.54965,4.26543 -7.38424,7.36131s-2.70603,6.46694 -2.70603,10.09026zm18.16248,0l0,-15.27299c0,-0.52745 0.18346,-0.98609 0.55038,-1.35301s0.82557,-0.55038 1.35301,-0.55038s0.98609,0.18346 1.35301,0.55038s0.55038,0.82557 0.55038,1.35301l0,14.72261l4.93047,8.80605c0.27519,0.48158 0.32105,0.98609 0.18346,1.49061s-0.43572,0.89436 -0.89436,1.16955c-0.25226,0.13759 -0.55038,0.20639 -0.94023,0.20639c-0.75677,0 -1.33008,-0.32105 -1.67407,-0.94023l-5.04513,-8.94364c-0.22932,-0.36692 -0.36692,-0.75677 -0.36692,-1.23835z"/>

<g stroke="midnightblue" stroke-opacity="0.4" stroke-width="0.5" style="filter:url(#drop_shadow);">
  <path fill="blue" d="m28.02782,30.04586l0,-15.27299c0,-0.52745 0.18346,-0.98609 0.55038,-1.35301s0.82557,-0.55038 1.35301,-0.55038s0.98609,0.18346 1.35301,0.55038s0.55038,0.82557 0.55038,1.35301l0,14.72261l4.93047,8.80605c0.27519,0.48158 0.32105,0.98609 0.18346,1.49061s-0.43572,0.89436 -0.89436,1.16955c-0.25226,0.13759 -0.55038,0.20639 -0.94023,0.20639c-0.75677,0 -1.33008,-0.32105 -1.67407,-0.94023l-5.04513,-8.94364c-0.22932,-0.36692 -0.36692,-0.75677 -0.36692,-1.23835z"/>
  <path fill="red" d="m30.02266,55.50972zm-1.97101,-25.46441c0,0.49841 0.18124,0.95152 0.54372,1.33666c0.36248,0.38514 0.81559,0.56638 1.33666,0.56638c0.49841,0 0.95152,-0.18124 1.33666,-0.56638c0.38514,-0.38514 0.56638,-0.81559 0.56638,-1.33666l0,-15.08835c0,-0.52107 -0.18124,-0.97417 -0.56638,-1.33666s-0.81559,-0.54372 -1.33666,-0.54372c-0.52107,0 -0.97417,0.18124 -1.33666,0.54372s-0.54372,0.81559 -0.54372,1.33666l0,15.08835z"/>

</g>
  <path d="m46.31259,25.7251c-1.22051,7.14799 -8.77858,9.72413 -16.42312,10.89422c-7.65822,1.17219 -16.54284,0.20237 -18.26605,-8.02008c-1.71947,-8.20461 7.01441,-18.57121 18.47796,-18.57121c11.46355,0 17.42792,8.57133 16.21121,15.69706l0,0l0,0z" stroke-dashoffset="0" stroke-miterlimit="4" stroke-linejoin="round" stroke-linecap="round" stroke-width="0.2" fill="url(#linearGradient3206)" fill-opacity="0.7"/>
  <path stroke="midnightblue" stroke-opacity="0.4" stroke-width="2.5"  fill="mediumaquamarine" d="m4.49027,30.04531c0,-4.62166 1.15541,-8.90348 3.44359,-12.82283s5.39193,-7.0231 9.31128,-9.31128s8.17852,-3.42093 12.77752,-3.42093c3.44359,0 6.75124,0.67966 9.90031,2.01631s5.84504,3.17172 8.13321,5.43724s4.10059,4.98414 5.43724,8.15586s2.01631,6.45672 2.01631,9.94562c0,3.44359 -0.67966,6.75124 -2.01631,9.90031s-3.17172,5.86769 -5.43724,8.13321s-4.98414,4.07793 -8.13321,5.41459s-6.43407,2.01631 -9.90031,2.01631c-3.46624,0 -6.79655,-0.67966 -9.94562,-2.01631s-5.86769,-3.17172 -8.15586,-5.43724s-4.07793,-4.98414 -5.43724,-8.11055s-1.99366,-6.43407 -1.99366,-9.90031l-0.00001,0zm5.61848,0c0,5.36928 1.94835,10.03624 5.86769,14.0009c3.91935,3.91935 8.58631,5.86769 14.04621,5.86769c3.57952,0 6.90983,-0.88355 9.94562,-2.67331s5.48255,-4.19121 7.27231,-7.24966s2.69597,-6.3661 2.69597,-9.94562s-0.90621,-6.90983 -2.69597,-9.96828s-4.21386,-5.48255 -7.27231,-7.27231s-6.3661,-2.67331 -9.94562,-2.67331s-6.90983,0.88355 -9.94562,2.67331s-5.48255,4.21386 -7.29497,7.27231s-2.67331,6.38876 -2.67331,9.96828z"/>
</g>
</svg>


