<svg width="60" height="60" xmlns="http://www.w3.org/2000/svg">

<g stroke="midnightblue" stroke-opacity="0.4">

  <path stroke-width="1"  fill="red" d="m30.06098,37.53677zm-6.85384,-18.9273c0,-0.39025 0.14635,-0.73173 0.41464,-1.02442l5.39038,-5.41477l0.07317,-0.04878c0.02439,0 0.02439,0 0.02439,-0.02439c0.02439,0 0.02439,0 0.02439,-0.02439c0.02439,0 0.02439,0 0.02439,-0.02439l0.02439,0c0.02439,0 0.02439,0 0.02439,-0.02439s0,-0.02439 0.02439,-0.04878l0.04878,0l0.02439,-0.02439l0.02439,0l0.02439,-0.02439l0.02439,0l0.02439,-0.02439l0.02439,0c0.02439,-0.02439 0.02439,-0.02439 0.04878,-0.02439l0.02439,0c0,-0.02439 0.02439,-0.02439 0.04878,-0.02439c0.02439,-0.02439 0.02439,-0.02439 0.04878,-0.02439l0.09756,-0.04878l0.02439,0c0.02439,0 0.02439,0 0.02439,-0.02439l0.17074,0l0.02439,-0.02439l0.29269,0c0.02439,0 0.02439,0 0.04878,0.02439l0.14635,0c0,0.02439 0,0.02439 0.02439,0.02439l0.04878,0c0.02439,0.02439 0.04878,0.04878 0.07317,0.04878l0.04878,0.02439l0.04878,0l0.02439,0.02439l0.02439,0l0.02439,0.02439c0.02439,0 0.02439,0 0.02439,0.02439l0.04878,0c0.02439,0 0.02439,0 0.02439,0c0,0 0,0 0.02439,0c0.02439,0.02439 0.02439,0.02439 0.04878,0.02439c0,0.02439 0,0.04878 0.02439,0.04878l0.02439,0.02439l0.04878,0l0.02439,0.02439l-0.07317,0.04878l0.02439,0.02439l0.04878,0.04878l5.41477,5.41477c0.29269,0.29269 0.43904,0.63416 0.43904,1.02442c0,0.39025 -0.14635,0.73173 -0.43904,1.00003c-0.2683,0.29269 -0.60977,0.43904 -1.00003,0.43904c-0.39025,0 -0.73173,-0.14635 -1.00003,-0.43904l-3.00008,-2.97568l0,16.82969c0,0.39025 -0.14635,0.70733 -0.41464,0.97563c-0.2683,0.2683 -0.60977,0.41464 -1.00003,0.41464c-0.39025,0 -0.73173,-0.14635 -1.02442,-0.41464c-0.29269,-0.2683 -0.41464,-0.60977 -0.41464,-0.97563l0,-16.82969l-2.97568,2.97568c-0.29269,0.29269 -0.63416,0.43904 -1.02442,0.43904c-0.39025,0 -0.73173,-0.14635 -1.00003,-0.43904c-0.24391,-0.2683 -0.39025,-0.60977 -0.39025,-1.00003l0.00006,0z"/>
  <path stroke-width="2.5" fill="blue" d="m9.76778,45.65893c0,-0.12195 0.02439,-0.29269 0.04878,-0.51221l0,-11.61005c0.68294,1.19515 1.6098,2.17079 2.80495,2.90251c1.19515,0.73173 2.51226,1.09759 3.92693,1.09759c1.43906,0 2.75617,-0.36586 3.95132,-1.09759c1.19515,-0.73173 2.122,-1.68297 2.80495,-2.90251c0.65855,1.19515 1.6098,2.17079 2.80495,2.90251c1.19515,0.73173 2.51226,1.09759 3.95132,1.09759c1.41467,0 2.73178,-0.36586 3.92693,-1.09759c1.19515,-0.73173 2.122,-1.68297 2.80495,-2.90251c0.68294,1.19515 1.63419,2.17079 2.80495,2.90251c1.19515,0.73173 2.48787,1.09759 3.90254,1.09759c1.41467,0 2.73178,-0.36586 3.92693,-1.09759c1.19515,-0.73173 2.1464,-1.68297 2.80495,-2.90251l0,11.732c0,0.04878 0,0.12195 0,0.19513c0,0.07317 0,0.14635 0,0.19513c0,0.02439 0,0.09756 0,0.17074s0,0.14635 0,0.19513c-0.07317,0.56099 -0.31708,1.04881 -0.73173,1.46345c-0.41464,0.41464 -0.90246,0.65855 -1.46345,0.73173c-0.04878,0 -0.12195,0 -0.19513,0.02439c-0.07317,0.02439 -0.14635,0.02439 -0.19513,0.02439c-0.02439,0 -0.09756,0 -0.17074,-0.02439c-0.07317,-0.02439 -0.14635,-0.02439 -0.19513,-0.02439l-34.53746,0c-0.04878,0 -0.09756,0 -0.19513,0.02439c-0.07317,0.02439 -0.14635,0.02439 -0.17074,0.02439c-0.04878,0 -0.12195,0 -0.19513,-0.02439c-0.07317,-0.02439 -0.14635,-0.02439 -0.17074,-0.02439c-0.5366,-0.07317 -1.02442,-0.29269 -1.41467,-0.68294c-0.39025,-0.39025 -0.65855,-0.82929 -0.78051,-1.36589c-0.02439,-0.21952 -0.04878,-0.39025 -0.04878,-0.51221l0.00002,-0.00001z"/>

</g>


</svg>
