<svg width="60" height="60" xmlns="http://www.w3.org/2000/svg">
  <defs>
    <filter id="drop_shadow" filterUnits="objectBoundingBox" x="-50%" y="-50%" width="200%" height="200%">
      <feDropShadow dx="0.5" dy="0.5" stdDeviation="2" flood-color="black" flood-opacity="0.8" />
    </filter>
    <filter id="blur_shadow" filterUnits="objectBoundingBox" x="-50%" y="-50%" width="200%" height="200%">
      <feGaussianBlur in="SourceGraphic" stdDeviation="3" />
    </filter>
  </defs>
 
<g>
   <path fill="black" filter="url(#blur_shadow)" d="m14.15097,39.15562c0,1.89861 0.68507,3.54277 2.07477,4.93247c1.3897,1.3897 3.03386,2.07477 4.93247,2.07477l13.4077,0c1.89861,0 3.52319,-0.68507 4.87376,-2.05519c1.35055,-1.37013 2.03562,-3.01429 2.03562,-4.95204c0,-0.93952 -0.13701,-1.74203 -0.41104,-2.40752c1.62458,-1.03738 2.91641,-2.42708 3.85594,-4.14953c0.93952,-1.72245 1.42885,-3.58192 1.42885,-5.55881c0,-1.58544 -0.31317,-3.11216 -0.91995,-4.56058c-0.62634,-1.44842 -1.44843,-2.70111 -2.50538,-3.73849s-2.29008,-1.87903 -3.7385,-2.50538c-1.44843,-0.62635 -2.95556,-0.93952 -4.541,-0.93952c-2.13348,0 -4.11039,0.52848 -5.91113,1.58544s-3.22959,2.48581 -4.26697,4.26697c-1.03739,1.80074 -1.54629,3.75807 -1.54629,5.89156l0,0.66549c-1.97691,1.11568 -3.26874,2.75984 -3.89509,4.87375c-1.48757,0.46976 -2.66196,1.29184 -3.54277,2.48581c-0.88079,1.19397 -1.33098,2.56411 -1.33098,4.09082zm3.87551,0c0,-0.82207 0.25445,-1.52671 0.78293,-2.11391c0.52848,-0.58719 1.19397,-0.91995 1.99648,-0.99824l1.23312,-0.15659c0.23488,0 0.37189,-0.15659 0.37189,-0.45019l0.19574,-1.0961c0.13701,-1.13524 0.60676,-2.07477 1.42885,-2.81855c0.82208,-0.76336 1.78117,-1.13525 2.89685,-1.13525c1.13524,0 2.13348,0.37189 2.95556,1.13525c0.84165,0.76336 1.33098,1.70288 1.468,2.81855l0.15659,1.27227c0.11744,0.29359 0.2936,0.45019 0.48933,0.45019l2.5641,0c0.84165,0 1.56587,0.31317 2.19221,0.91994c0.62634,0.60677 0.91995,1.33099 0.91995,2.19221c0,0.88079 -0.31318,1.62458 -0.91995,2.25093s-1.35056,0.93952 -2.19221,0.93952l-13.4077,0c-0.8808,0 -1.62458,-0.31317 -2.23136,-0.93952s-0.90037,-1.3897 -0.90037,-2.2705l0,-0.00001zm8.67097,-12.50733c0.13701,-2.13348 0.95909,-3.93422 2.48581,-5.40223c1.52672,-1.44842 3.34703,-2.1922 5.48052,-2.1922c2.17263,0 4.03209,0.78293 5.55881,2.32922c1.52671,1.54629 2.29007,3.4449 2.29007,5.65669c0,1.37012 -0.33274,2.64239 -0.99823,3.81679c-0.66549,1.1744 -1.56587,2.11391 -2.70111,2.83813c-1.15482,-0.9591 -2.48581,-1.42885 -3.97338,-1.42885c-0.56762,-1.72245 -1.58543,-3.07301 -3.01429,-4.09082c-1.42885,-1.01781 -3.05344,-1.52672 -4.87375,-1.52672l-0.25445,0z"/>
    <circle filter="url(#blur_shadow)" r="8.11075" cx="34.71097" cy="26.67314" fill="lightcyan" fill-opacity="0.2"/>
    <path fill="paleturquoise" fill-opacity="0.4" d="m17.72468,38.97556c0,1.01336 0.37334,1.89338 1.09336,2.6134s1.61337,1.09336 2.6534,1.09336l12.37366,0c1.02669,0 1.92005,-0.36 2.6534,-1.09336c0.73336,-0.73335 1.1067,-1.60004 1.1067,-2.6134c0,-1.01336 -0.36001,-1.89337 -1.1067,-2.6134c-0.73335,-0.72002 -1.61337,-1.09336 -2.6534,-1.09336l-1.85339,0c-0.13333,0 -0.2,-0.06667 -0.2,-0.2l-0.09333,-0.65335c-0.13334,-1.25336 -0.66669,-2.30673 -1.58671,-3.13342s-2.01339,-1.24003 -3.26675,-1.24003c-1.25337,0 -2.34673,0.41334 -3.28009,1.25336c-0.93335,0.8267 -1.45336,1.88005 -1.57337,3.12009l-0.09333,0.56001c0,0.13333 -0.06667,0.2 -0.21335,0.2l-0.60001,0.09334c-0.96003,0.08 -1.76005,0.48001 -2.41339,1.18669c-0.61335,0.70668 -0.94669,1.54671 -0.94669,2.52007l-0.00001,-0.00001l0,0z"/>
    <g stroke="midnightblue" stroke-opacity="0.4">
     <path d="m14.15097,39.15562c0,1.89861 0.68507,3.54277 2.07477,4.93247c1.3897,1.3897 3.03386,2.07477 4.93247,2.07477l13.4077,0c1.89861,0 3.52319,-0.68507 4.87376,-2.05519c1.35055,-1.37013 2.03562,-3.01429 2.03562,-4.95204c0,-0.93952 -0.13701,-1.74203 -0.41104,-2.40752c1.62458,-1.03738 2.91641,-2.42708 3.85594,-4.14953c0.93952,-1.72245 1.42885,-3.58192 1.42885,-5.55881c0,-1.58544 -0.31317,-3.11216 -0.91995,-4.56058c-0.62634,-1.44842 -1.44843,-2.70111 -2.50538,-3.73849s-2.29008,-1.87903 -3.7385,-2.50538c-1.44843,-0.62635 -2.95556,-0.93952 -4.541,-0.93952c-2.13348,0 -4.11039,0.52848 -5.91113,1.58544s-3.22959,2.48581 -4.26697,4.26697c-1.03739,1.80074 -1.54629,3.75807 -1.54629,5.89156l0,0.66549c-1.97691,1.11568 -3.26874,2.75984 -3.89509,4.87375c-1.48757,0.46976 -2.66196,1.29184 -3.54277,2.48581c-0.88079,1.19397 -1.33098,2.56411 -1.33098,4.09082zm3.87551,0c0,-0.82207 0.25445,-1.52671 0.78293,-2.11391c0.52848,-0.58719 1.19397,-0.91995 1.99648,-0.99824l1.23312,-0.15659c0.23488,0 0.37189,-0.15659 0.37189,-0.45019l0.19574,-1.0961c0.13701,-1.13524 0.60676,-2.07477 1.42885,-2.81855c0.82208,-0.76336 1.78117,-1.13525 2.89685,-1.13525c1.13524,0 2.13348,0.37189 2.95556,1.13525c0.84165,0.76336 1.33098,1.70288 1.468,2.81855l0.15659,1.27227c0.11744,0.29359 0.2936,0.45019 0.48933,0.45019l2.5641,0c0.84165,0 1.56587,0.31317 2.19221,0.91994c0.62634,0.60677 0.91995,1.33099 0.91995,2.19221c0,0.88079 -0.31318,1.62458 -0.91995,2.25093s-1.35056,0.93952 -2.19221,0.93952l-13.4077,0c-0.8808,0 -1.62458,-0.31317 -2.23136,-0.93952s-0.90037,-1.3897 -0.90037,-2.2705l0,-0.00001zm8.67097,-12.50733c0.13701,-2.13348 0.95909,-3.93422 2.48581,-5.40223c1.52672,-1.44842 3.34703,-2.1922 5.48052,-2.1922c2.17263,0 4.03209,0.78293 5.55881,2.32922c1.52671,1.54629 2.29007,3.4449 2.29007,5.65669c0,1.37012 -0.33274,2.64239 -0.99823,3.81679c-0.66549,1.1744 -1.56587,2.11391 -2.70111,2.83813c-1.15482,-0.9591 -2.48581,-1.42885 -3.97338,-1.42885c-0.56762,-1.72245 -1.58543,-3.07301 -3.01429,-4.09082c-1.42885,-1.01781 -3.05344,-1.52672 -4.87375,-1.52672l-0.25445,0z" filter="url(#drop_shadow)" stroke-width="2.5" fill="linen"/>
  </g>
 </g>

</svg>
