<svg width="60" height="60" xmlns="http://www.w3.org/2000/svg">
<path stroke="midnightblue" stroke-width="2" d="m4.52018,25.06158c0,-0.54134 0.19685,-1.00886 0.56594,-1.37795c0.3937,-0.36909 0.86122,-0.54134 1.40256,-0.54134l29.7244,0c0.54134,0 0.98425,0.17224 1.32874,0.54134c0.34449,0.36909 0.54134,0.83661 0.54134,1.40256c0,0.54134 -0.17224,0.98425 -0.54134,1.32874c-0.34449,0.34449 -0.7874,0.54134 -1.32874,0.54134l-29.7244,0c-0.54134,0 -1.03346,-0.17224 -1.40256,-0.54134c-0.3937,-0.36909 -0.56594,-0.81201 -0.56594,-1.35335zm5.93012,-7.13582c0,-0.54134 0.19685,-0.98425 0.56594,-1.35335c0.36909,-0.36909 0.83661,-0.56594 1.37795,-0.56594l29.74901,0c0.51673,0 0.95965,0.19685 1.32874,0.56594c0.36909,0.36909 0.54134,0.81201 0.54134,1.35335c0,0.54134 -0.17224,0.98425 -0.54134,1.37795c-0.36909,0.36909 -0.81201,0.56594 -1.32874,0.56594l-29.7244,0c-0.54134,0 -1.00886,-0.19685 -1.37795,-0.56594s-0.59055,-0.83661 -0.59055,-1.37795zm3.98622,14.12401c0,-0.51673 0.19685,-0.95965 0.59055,-1.32874c0.34449,-0.34449 0.7874,-0.54134 1.32874,-0.54134l29.77361,0c0.54134,0 1.00886,0.17224 1.37795,0.54134c0.36909,0.34449 0.54134,0.7874 0.54134,1.32874s-0.19685,1.00886 -0.56594,1.37795s-0.83661,0.56594 -1.37795,0.56594l-29.74901,0c-0.54134,0 -0.98425,-0.19685 -1.37795,-0.56594s-0.54134,-0.83661 -0.54134,-1.37795zm26.03346,-6.98819c0,-0.56594 0.17224,-1.03346 0.54134,-1.40256c0.36909,-0.36909 0.83661,-0.54134 1.40256,-0.54134l11.12204,0c0.56594,0 1.03346,0.17224 1.40256,0.54134c0.36909,0.36909 0.54134,0.83661 0.54134,1.37795c0,0.54134 -0.17224,0.98425 -0.54134,1.32874c-0.36909,0.34449 -0.83661,0.54134 -1.37795,0.54134l-11.12204,0c-0.56594,0 -1.03346,-0.17224 -1.40256,-0.54134c-0.3937,-0.31988 -0.56594,-0.7628 -0.56594,-1.30413z" fill="linen" stroke-opacity="0.4"/>
</svg>
