<svg width="60" height="60" xmlns="http://www.w3.org/2000/svg">
  <defs>
    <filter id="drop_shadow" filterUnits="objectBoundingBox" x="-50%" y="-50%" width="200%" height="200%">
      <feDropShadow dx="0.5" dy="0.5" stdDeviation="2" flood-color="black" flood-opacity="0.8" />
    </filter>
    <filter id="blur_shadow" filterUnits="objectBoundingBox" x="-50%" y="-50%" width="200%" height="200%">
      <feGaussianBlur in="SourceGraphic" stdDeviation="3" />
    </filter>
    <filter id="shadow">
      <feDropShadow dx="0.3" dy="0.6" stdDeviation="0.6" flood-color="black"/>
    </filter>
  <linearGradient id="linearGradient3199">
   <stop id="stop3201" offset="0" stop-color="#ffffff"/>
   <stop id="stop3203" offset="1" stop-opacity="0" stop-color="#ffffff"/>
  </linearGradient>
  <linearGradient xlink:href="#linearGradient3199" id="linearGradient3206" x1="0.35792" y1="0.0564" x2="0.4991" y2="0.96319"/>
  </defs>
 <g>
  <circle cx="30" cy="30" r="20.24999" fill-opacity="0.4" fill="blue"/>
  <path style="filter:url(#blur_shadow)" fill="black" d="m4.115,30.04598c0,-4.68964 1.17241,-9.03446 3.49424,-13.01146s5.47125,-7.12642 9.44825,-9.44825s8.29883,-3.47126 12.96549,-3.47126c3.49424,0 6.85056,0.68965 10.04595,2.04597s5.93102,3.21838 8.25285,5.51723s4.16091,5.05746 5.51723,8.27584s2.04597,6.55171 2.04597,10.09193c0,3.49424 -0.68965,6.85056 -2.04597,10.04595s-3.21838,5.95401 -5.51723,8.25285s-5.05746,4.13792 -8.25285,5.49424s-6.52872,2.04597 -10.04595,2.04597c-3.51723,0 -6.89654,-0.68965 -10.09193,-2.04597s-5.95401,-3.21838 -8.27584,-5.51723s-4.13792,-5.05746 -5.51723,-8.22987s-2.02298,-6.52872 -2.02298,-10.04595zm5.70114,0c0,5.44826 1.97701,10.18388 5.95401,14.20686c3.977,3.977 8.71262,5.95401 14.25284,5.95401c3.63218,0 7.01148,-0.89655 10.09193,-2.71264s5.56321,-4.25286 7.37929,-7.3563s2.73563,-6.45976 2.73563,-10.09193s-0.91954,-7.01148 -2.73563,-10.11492s-4.27585,-5.56321 -7.37929,-7.37929s-6.45976,-2.71264 -10.09193,-2.71264s-7.01148,0.89655 -10.09193,2.71264s-5.56321,4.27585 -7.40228,7.37929s-2.71264,6.48274 -2.71264,10.11492zm18.20685,0l0,-15.31031c0,-0.52873 0.18391,-0.9885 0.55172,-1.35632s0.82758,-0.55172 1.35632,-0.55172s0.9885,0.18391 1.35632,0.55172s0.55172,0.82758 0.55172,1.35632l0,13.37928l8.68964,0c0.52873,0 0.9885,0.18391 1.35632,0.55172s0.55172,0.82758 0.55172,1.35632c0,0.50575 -0.18391,0.96552 -0.55172,1.35632c-0.36782,0.3908 -0.82758,0.57471 -1.35632,0.57471l-10.20687,0c-0.06897,0.02299 -0.2069,0.02299 -0.41379,0.02299c-0.52873,0 -0.9885,-0.18391 -1.35632,-0.55172s-0.52873,-0.82758 -0.52873,-1.37931z"/>

<g stroke="midnightblue" stroke-opacity="0.4" stroke-width="0.5" style="filter:url(#drop_shadow);">
  <path fill="blue" d="m53.83901,19.95405zm-25.81602,10.09193l0,-15.31031c0,-0.52873 0.18391,-0.9885 0.55172,-1.35632s0.82758,-0.55172 1.35632,-0.55172s0.9885,0.18391 1.35632,0.55172s0.55172,0.82758 0.55172,1.35632l0,13.37928l8.68964,0c0.52873,0 0.9885,0.18391 1.35632,0.55172s0.55172,0.82758 0.55172,1.35632c0,0.50575 -0.18391,0.96552 -0.55172,1.35632c-0.36782,0.3908 -0.82758,0.57471 -1.35632,0.57471l-10.20687,0c-0.06897,0.02299 -0.2069,0.02299 -0.41379,0.02299c-0.52873,0 -0.9885,-0.18391 -1.35632,-0.55172s-0.52873,-0.82758 -0.52873,-1.37931l-0.00001,0z"/>
  <path fill="red" d="m30.02266,55.50972zm-1.97101,-25.46441c0,0.49841 0.18124,0.95152 0.54372,1.33666c0.36248,0.38514 0.81559,0.56638 1.33666,0.56638c0.49841,0 0.95152,-0.18124 1.33666,-0.56638c0.38514,-0.38514 0.56638,-0.81559 0.56638,-1.33666l0,-15.08835c0,-0.52107 -0.18124,-0.97417 -0.56638,-1.33666s-0.81559,-0.54372 -1.33666,-0.54372c-0.52107,0 -0.97417,0.18124 -1.33666,0.54372s-0.54372,0.81559 -0.54372,1.33666l0,15.08835z"/>

</g>
  <path d="m46.31259,25.7251c-1.22051,7.14799 -8.77858,9.72413 -16.42312,10.89422c-7.65822,1.17219 -16.54284,0.20237 -18.26605,-8.02008c-1.71947,-8.20461 7.01441,-18.57121 18.47796,-18.57121c11.46355,0 17.42792,8.57133 16.21121,15.69706l0,0l0,0z" stroke-dashoffset="0" stroke-miterlimit="4" stroke-linejoin="round" stroke-linecap="round" stroke-width="0.2" fill="url(#linearGradient3206)" fill-opacity="0.7"/>
  <path stroke="midnightblue" stroke-opacity="0.4" stroke-width="2.5"  fill="mediumaquamarine" d="m4.49027,30.04531c0,-4.62166 1.15541,-8.90348 3.44359,-12.82283s5.39193,-7.0231 9.31128,-9.31128s8.17852,-3.42093 12.77752,-3.42093c3.44359,0 6.75124,0.67966 9.90031,2.01631s5.84504,3.17172 8.13321,5.43724s4.10059,4.98414 5.43724,8.15586s2.01631,6.45672 2.01631,9.94562c0,3.44359 -0.67966,6.75124 -2.01631,9.90031s-3.17172,5.86769 -5.43724,8.13321s-4.98414,4.07793 -8.13321,5.41459s-6.43407,2.01631 -9.90031,2.01631c-3.46624,0 -6.79655,-0.67966 -9.94562,-2.01631s-5.86769,-3.17172 -8.15586,-5.43724s-4.07793,-4.98414 -5.43724,-8.11055s-1.99366,-6.43407 -1.99366,-9.90031l-0.00001,0zm5.61848,0c0,5.36928 1.94835,10.03624 5.86769,14.0009c3.91935,3.91935 8.58631,5.86769 14.04621,5.86769c3.57952,0 6.90983,-0.88355 9.94562,-2.67331s5.48255,-4.19121 7.27231,-7.24966s2.69597,-6.3661 2.69597,-9.94562s-0.90621,-6.90983 -2.69597,-9.96828s-4.21386,-5.48255 -7.27231,-7.27231s-6.3661,-2.67331 -9.94562,-2.67331s-6.90983,0.88355 -9.94562,2.67331s-5.48255,4.21386 -7.29497,7.27231s-2.67331,6.38876 -2.67331,9.96828z"/>
</g>
</svg>


