<svg width="60" height="60" xmlns="http://www.w3.org/2000/svg">

  <defs>
    <filter id="drop_shadow" filterUnits="objectBoundingBox" x="-50%" y="-50%" width="200%" height="200%">
      <feDropShadow dx="0.5" dy="0.5" stdDeviation="2" flood-color="black" flood-opacity="0.8" />
    </filter>
    <filter id="blur_shadow" filterUnits="objectBoundingBox" x="-50%" y="-50%" width="200%" height="200%">
      <feGaussianBlur in="SourceGraphic" stdDeviation="3" />
    </filter>
  </defs>

<g>
  <path stroke="midnightblue" stroke-opacity="0.4" stroke-width="2.5" style="filter:url(#drop_shadow)" fill="linen" d="m11.37504,30.37249c0,-2.51752 0.48809,-4.93228 1.48996,-7.24429c0.97618,-2.31201 2.31201,-4.29006 3.98179,-5.95984c1.66978,-1.66978 3.67352,-3.00561 5.95984,-4.00748s4.72677,-1.48996 7.26998,-1.48996l3.00561,0c0.41102,0.10276 0.61654,0.35965 0.61654,0.71929l0.10276,2.31201c0.10276,3.33957 1.31014,6.19104 3.62214,8.55443s5.13779,3.62214 8.42598,3.75059l2.18356,0.17982c0.41102,0 0.59085,0.20551 0.59085,0.59085l0,2.59459c0.02569,2.64596 -0.48809,5.13779 -1.48996,7.50118l-5.26624,0c1.31014,-1.90098 2.13218,-4.08455 2.49183,-6.49931c-4.29006,-0.89911 -7.75807,-2.74872 -10.35265,-5.54882s-4.08455,-6.08829 -4.49557,-9.83888c-2.49183,0.12844 -4.75246,0.89911 -6.83327,2.31201c-2.05512,1.41289 -3.67352,3.18543 -4.80384,5.34331c-1.13031,2.15787 -1.69547,4.4185 -1.69547,6.7562c0,2.74872 0.71929,5.24055 2.13218,7.50118l-5.39468,0c-1.02756,-2.41476 -1.54134,-4.90659 -1.54134,-7.52687l0,-0.00001z"/>

  <path style="filter:url(#blur_shadow)" fill-opacity="0.3" d="m41.86785,37.87368c1.31014,-1.90098 2.13218,-4.08455 2.49183,-6.49931c-4.29006,-0.89911 -7.75807,-2.74872 -10.35265,-5.54882s-4.08455,-6.08829 -4.49557,-9.83888c-2.49183,0.12844 -4.75246,0.89911 -6.83327,2.31201c-2.05512,1.41289 -3.67352,3.18543 -4.80384,5.34331c-1.13031,2.15787 -1.69547,4.4185 -1.69547,6.7562c0,2.74872 0.71929,5.24055 2.13218,7.50118l23.55679,-0.02569z" fill="lightcyan"/>

  <path d="m12.05439,22.13671zm-0.88718,23.79242c0,-0.69899 0.26884,-1.31732 0.80652,-1.855c0.48391,-0.48391 1.10225,-0.72587 1.82812,-0.72587l8.65668,0c0.29573,0 0.53768,0.05377 0.75275,0.21507l6.31776,5.96827l6.4253,-5.99515c0.18819,-0.13442 0.45703,-0.21507 0.77964,-0.21507l8.87175,0c0.72587,0 1.3442,0.24196 1.855,0.75275c0.5108,0.5108 0.77964,1.12913 0.77964,1.82812c0,0.72587 -0.26884,1.3442 -0.77964,1.855c-0.5108,0.5108 -1.12913,0.77964 -1.855,0.77964l-7.20494,0l-8.41472,7.63508c-0.32261,0.24196 -0.64522,0.24196 -0.91406,0l-8.2803,-7.63508l-6.98986,0c-0.72587,0 -1.3442,-0.26884 -1.855,-0.77964c-0.5108,-0.48391 -0.77964,-1.10225 -0.77964,-1.82812z" stroke="midnightblue" stroke-opacity="0.4" stroke-width="1"  fill="seagreen"/>

 </g>
</svg>


