<svg xmlns="http://www.w3.org/2000/svg" viewBox="0 0 60 60" width="60" height="60">
  <defs>
    <filter id="drop_shadow" filterUnits="objectBoundingBox" x="-50%" y="-50%" width="200%" height="200%">
      <feDropShadow dx="0.5" dy="0.5" stdDeviation="2" flood-color="black" flood-opacity="0.8" />
    </filter>
    <filter id="blur_shadow" filterUnits="objectBoundingBox" x="-50%" y="-50%" width="200%" height="200%">
      <feGaussianBlur in="SourceGraphic" stdDeviation="3" />
    </filter>
  </defs>

<path fill="black" style="filter:url(#blur_shadow)" d="m8.17509,33.74971c0,1.81535 0.44874,3.5083 1.34621,5.05849s2.1009,2.77401 3.65108,3.67148s3.22274,1.36661 5.05849,1.36661l22.04928,0c1.81535,0 3.5083,-0.44874 5.05849,-1.36661s2.77401,-2.1417 3.67148,-3.67148c0.89747,-1.55018 1.36661,-3.24314 1.36661,-5.05849c0,-1.30542 -0.28556,-2.65163 -0.85668,-4.07942c1.55018,-1.89693 2.30487,-4.14061 2.30487,-6.73105c0,-1.93773 -0.46913,-3.73267 -1.4074,-5.36444c-0.93827,-1.63176 -2.24369,-2.93718 -3.87545,-3.89585c-1.63176,-0.95867 -3.42671,-1.42779 -5.36444,-1.42779c-3.03917,0 -5.6704,1.18304 -7.89369,3.5491c-1.55018,-0.87708 -3.38592,-1.32581 -5.48683,-1.32581c-2.87599,0 -5.40523,0.87708 -7.60812,2.65163s-3.61029,4.03863 -4.2426,6.83303c-2.28447,0.50993 -4.14061,1.67256 -5.58881,3.5083c-1.44819,1.83574 -2.18249,3.93664 -2.18249,6.28231l0,-0.00001zm3.48791,0c0,-1.69296 0.57112,-3.16155 1.69296,-4.40578c1.14224,-1.24422 2.57003,-1.95812 4.28339,-2.16209l1.38701,-0.06119l0.14278,-1.46859c0.28556,-2.20289 1.24422,-4.05902 2.87599,-5.52761c1.63176,-1.48899 3.5491,-2.22329 5.73159,-2.22329c2.22329,0 4.18141,0.7547 5.83357,2.24369s2.59043,3.32473 2.8148,5.52761l0.20397,1.52978l3.63068,0c1.79495,0 3.34513,0.65271 4.65055,1.93773s1.95812,2.8352 1.95812,4.60975c0,1.83574 -0.65271,3.40632 -1.93773,4.73213s-2.8556,1.97852 -4.65055,1.97852l-22.04928,0c-1.77455,0 -3.30433,-0.65271 -4.60975,-1.97852c-1.30542,-1.34621 -1.95812,-2.91679 -1.95812,-4.73213zm24.53773,-15.97094c1.4074,-1.34621 3.05957,-2.01932 4.97689,-2.01932c2.01932,0 3.73267,0.6935 5.14007,2.1009c1.4074,1.38701 2.1213,3.10036 2.1213,5.11967c0,1.26462 -0.34675,2.50884 -1.06065,3.75307c-1.95812,-1.97852 -4.32419,-2.95758 -7.11859,-2.95758l-0.63231,0c-0.55072,-2.26408 -1.69296,-4.26299 -3.42671,-5.99675z"/>

<circle style="filter:url(#blur_shadow);" fill-opacity="0.2" fill="lightcyan" cy="22.12474" cx="41.62453" r="6.87506"/>
<g stroke-opacity="0.4" stroke-width="2.5" stroke="midnightblue">
  <path stroke-width="0" filter="url(#blur_shadow)" fill="paleturquoise" fill-opacity="0.3" d="m11.43267,33.85888c0,1.81002 0.66685,3.38188 1.95292,4.66796s2.88175,1.95292 4.73941,1.95292l22.10135,0c1.83385,0 3.42952,-0.64303 4.73941,-1.95292c1.30989,-1.30989 1.97674,-2.85793 1.97674,-4.66796c0,-1.81002 -0.64303,-3.38188 -1.97674,-4.66796c-1.30989,-1.28607 -2.88175,-1.95292 -4.73941,-1.95292l-3.31044,0c-0.23816,0 -0.35724,-0.11908 -0.35724,-0.35724l-0.16671,-1.16699c-0.23816,-2.23872 -1.19081,-4.1202 -2.83411,-5.59679s-3.59624,-2.2149 -5.83495,-2.2149c-2.23872,0 -4.19163,0.7383 -5.85877,2.23872c-1.66713,1.4766 -2.59596,3.35807 -2.8103,5.57298l-0.16671,1.00028c0,0.23816 -0.11908,0.35724 -0.38106,0.35724l-1.07172,0.16671c-1.71476,0.14289 -3.14373,0.85738 -4.31071,2.11963c-1.09554,1.26226 -1.69095,2.76268 -1.69095,4.50125l-0.00001,-0.00001l-0.00001,0z"/>
   <path fill="linen" style="filter:url(#drop_shadow)" d="m8.17509,33.74971c0,1.81535 0.44874,3.5083 1.34621,5.05849s2.1009,2.77401 3.65108,3.67148s3.22274,1.36661 5.05849,1.36661l22.04928,0c1.81535,0 3.5083,-0.44874 5.05849,-1.36661s2.77401,-2.1417 3.67148,-3.67148c0.89747,-1.55018 1.36661,-3.24314 1.36661,-5.05849c0,-1.30542 -0.28556,-2.65163 -0.85668,-4.07942c1.55018,-1.89693 2.30487,-4.14061 2.30487,-6.73105c0,-1.93773 -0.46913,-3.73267 -1.4074,-5.36444c-0.93827,-1.63176 -2.24369,-2.93718 -3.87545,-3.89585c-1.63176,-0.95867 -3.42671,-1.42779 -5.36444,-1.42779c-3.03917,0 -5.6704,1.18304 -7.89369,3.5491c-1.55018,-0.87708 -3.38592,-1.32581 -5.48683,-1.32581c-2.87599,0 -5.40523,0.87708 -7.60812,2.65163s-3.61029,4.03863 -4.2426,6.83303c-2.28447,0.50993 -4.14061,1.67256 -5.58881,3.5083c-1.44819,1.83574 -2.18249,3.93664 -2.18249,6.28231l0,-0.00001zm3.48791,0c0,-1.69296 0.57112,-3.16155 1.69296,-4.40578c1.14224,-1.24422 2.57003,-1.95812 4.28339,-2.16209l1.38701,-0.06119l0.14278,-1.46859c0.28556,-2.20289 1.24422,-4.05902 2.87599,-5.52761c1.63176,-1.48899 3.5491,-2.22329 5.73159,-2.22329c2.22329,0 4.18141,0.7547 5.83357,2.24369s2.59043,3.32473 2.8148,5.52761l0.20397,1.52978l3.63068,0c1.79495,0 3.34513,0.65271 4.65055,1.93773s1.95812,2.8352 1.95812,4.60975c0,1.83574 -0.65271,3.40632 -1.93773,4.73213s-2.8556,1.97852 -4.65055,1.97852l-22.04928,0c-1.77455,0 -3.30433,-0.65271 -4.60975,-1.97852c-1.30542,-1.34621 -1.95812,-2.91679 -1.95812,-4.73213zm24.53773,-15.97094c1.4074,-1.34621 3.05957,-2.01932 4.97689,-2.01932c2.01932,0 3.73267,0.6935 5.14007,2.1009c1.4074,1.38701 2.1213,3.10036 2.1213,5.11967c0,1.26462 -0.34675,2.50884 -1.06065,3.75307c-1.95812,-1.97852 -4.32419,-2.95758 -7.11859,-2.95758l-0.63231,0c-0.55072,-2.26408 -1.69296,-4.26299 -3.42671,-5.99675z"/>
</g>
</svg>
