<svg width="60" height="60" xmlns="http://www.w3.org/2000/svg">
<g>
  <path d="m14.134984,53.493323l0,-46.986646l3.095913,0l0,46.986646l-3.095913,0z" fill="white" stroke-width="0.2" stroke="black"/>
<g>
  <path d="m14.134984,6.506677zm5.315107,18.082325l0,-18.082324l23.424829,0l0,18.082324l-23.424829,0z" fill="black"/>
  <path d="m14.134984,6.506677zm5.315107,18.082325l0,-18.082324l23.424829,0l0,18.082324l-23.424829,0zm6.465801,-5.479492l10.438433,0l0,-6.849365l-10.438433,0l0,6.849365z" fill="red" stroke-width="0.2" stroke="black"/>
</g>
  <g>
   <path d="m14.134984,27.006646zm5.315107,18.082325l0,-18.082324l23.424829,0l0,18.082324l-23.424829,0z" fill="black" id="svg_4"/>
   <path d="m14.134984,27.006646zm5.315107,18.082325l0,-18.082324l23.424829,0l0,18.082324l-23.424829,0zm6.465801,-5.479492l10.438433,0l0,-6.849365l-10.438433,0l0,6.849365z" fill="red" stroke-width="0.2" stroke="black"/>
  </g>
</g>
</svg>
