<svg width="60" height="60" xmlns="http://www.w3.org/2000/svg">
  <defs>
    <filter id="drop_shadow" filterUnits="objectBoundingBox" x="-50%" y="-50%" width="200%" height="200%">
      <feDropShadow dx="0.5" dy="0.5" stdDeviation="2" flood-color="black" flood-opacity="0.8" />
    </filter>
    <filter id="blur_shadow" filterUnits="objectBoundingBox" x="-50%" y="-50%" width="200%" height="200%">
      <feGaussianBlur in="SourceGraphic" stdDeviation="3" />
    </filter>
    <filter id="shadow">
      <feDropShadow dx="0.3" dy="0.6" stdDeviation="0.6" flood-color="black"/>
    </filter>
  </defs>

<g fill="black" style="filter:url(#blur_shadow)">
    <path d="m9.3868,33.69016c0,-2.31478 0.72463,-4.36789 2.17387,-6.17945c1.44926,-1.81156 3.28095,-2.95889 5.49508,-3.48223c0.62398,-2.73747 2.03298,-4.99187 4.22698,-6.74305s4.7302,-2.63684 7.56831,-2.63684c2.77773,0 5.23341,0.86553 7.40729,2.55632c2.15375,1.71092 3.58287,3.90493 4.24711,6.60215l0.62398,0c1.79144,0 3.4621,0.44282 4.99187,1.30835s2.7576,2.07324 3.64326,3.58287c0.88566,1.50964 1.34861,3.18031 1.34861,4.97174c0,2.69722 -0.92591,5.012 -2.77773,6.94433s-4.12634,2.95889 -6.80344,3.0394c-0.26167,0 -0.40257,-0.12077 -0.40257,-0.34218l0,-2.67709c0,-0.24155 0.1409,-0.36231 0.40257,-0.36231c1.73105,-0.08052 3.18031,-0.76489 4.38802,-2.05311s1.81156,-2.79786 1.81156,-4.54904s-0.64411,-3.26082 -1.9726,-4.54904c-1.30835,-1.28823 -2.85824,-1.93234 -4.64968,-1.93234l-3.22056,0c-0.24155,0 -0.38244,-0.12077 -0.38244,-0.34218l-0.1409,-1.16745c-0.22142,-2.15375 -1.14732,-3.98544 -2.77773,-5.45482c-1.65053,-1.46938 -3.56274,-2.21413 -5.73662,-2.21413c-2.194,0 -4.12634,0.72463 -5.75675,2.194c-1.63041,1.46938 -2.55632,3.28095 -2.77773,5.45482l-0.12077,1.08694c0,0.24155 -0.1409,0.36231 -0.40257,0.36231l-1.06681,0.06039c-1.65053,0.08052 -3.0394,0.74476 -4.20686,2.01285s-1.73105,2.7576 -1.73105,4.46853c0,1.75118 0.60385,3.26082 1.81156,4.54904s2.67709,1.9726 4.38802,2.05311c0.22142,0 0.34218,0.12077 0.34218,0.36231l0,2.67709c0,0.22142 -0.12077,0.34218 -0.34218,0.34218c-2.69722,-0.12077 -4.97174,-1.14732 -6.84369,-3.07966s-2.7576,-4.18673 -2.7576,-6.86382l0.00003,0.00001z"/>
    <path d="m20.28234,48.26185c0.18253,0.42588 0.50701,0.75036 0.93288,0.93288c0.40561,0.2028 0.83148,0.22308 1.25736,0.04056c0.44616,-0.18252 0.73009,-0.48672 0.91261,-0.9126c0.2028,-0.44616 0.22308,-0.87205 0.04056,-1.29792c-0.16224,-0.42588 -0.48672,-0.70981 -0.91261,-0.89233c-0.4056,-0.22308 -0.8112,-0.24336 -1.23708,-0.06084c-0.42588,0.18252 -0.73009,0.48672 -0.93288,0.95316c-0.22309,0.34476 -0.22309,0.75036 -0.06085,1.23708zm1.27764,-5.71897c0,0.32448 0.1014,0.62868 0.3042,0.9126c0.20281,0.3042 0.52729,0.507 0.93288,0.64896c0.38532,0.22309 0.8112,0.24336 1.25736,0.02028c0.44616,-0.2028 0.75036,-0.6084 0.89232,-1.2168l1.82521,-6.85466c0.12167,-0.507 0.08112,-0.95315 -0.16224,-1.35876c-0.24336,-0.40561 -0.58812,-0.64896 -1.07485,-0.73009c-0.16224,-0.04056 -0.32448,-0.06084 -0.48672,-0.06084c-0.32448,0 -0.64896,0.1014 -0.95316,0.3042c-0.3042,0.2028 -0.52728,0.507 -0.64896,0.89232l-1.78464,6.87494c-0.08112,0.32448 -0.1014,0.507 -0.1014,0.56785zm3.77209,11.33655c0,0.24336 0.04056,0.44616 0.12168,0.58812c0.18252,0.44615 0.48672,0.75036 0.9126,0.9126c0.18252,0.1014 0.40561,0.16224 0.66924,0.16224c0.12168,0 0.32448,-0.04056 0.6084,-0.12167c0.44616,-0.16224 0.77064,-0.46644 0.95316,-0.91261c0.2028,-0.44616 0.2028,-0.89233 0,-1.33848c-0.2028,-0.44616 -0.507,-0.75036 -0.91261,-0.93288c-0.4056,-0.18252 -0.8112,-0.18252 -1.25736,0c-0.38533,0.16224 -0.64896,0.4056 -0.83149,0.73008c-0.18252,0.32448 -0.26364,0.62868 -0.26364,0.91261zm1.48044,-5.29309c0,0.75036 0.42588,1.23709 1.27764,1.48044c0.22308,0.06085 0.38532,0.08112 0.48672,0.08112c0.3042,0 0.56784,-0.06085 0.77064,-0.16224c0.42588,-0.16224 0.7098,-0.54757 0.85176,-1.15596l3.38677,-12.75616c0.12168,-0.48672 0.08112,-0.9126 -0.12168,-1.3182c-0.2028,-0.38532 -0.54756,-0.64896 -0.99372,-0.77064c-0.16224,-0.04056 -0.34476,-0.06084 -0.54756,-0.06084c-0.32448,0 -0.64896,0.1014 -0.97344,0.3042c-0.32448,0.2028 -0.52729,0.507 -0.6084,0.89233l-3.46789,12.85755c-0.04056,0.28392 -0.06084,0.48672 -0.06084,0.6084zm6.95606,-0.93288c0,0.24336 0.04056,0.46644 0.16224,0.64896c0.16224,0.38533 0.46644,0.68953 0.89233,0.89233c0.22308,0.08112 0.46644,0.14196 0.7098,0.14196c0.12168,0 0.32448,-0.04056 0.6084,-0.12168c0.42588,-0.16224 0.75036,-0.46644 0.93288,-0.89232c0.14196,-0.44616 0.14196,-0.87205 -0.02028,-1.27764c-0.16224,-0.40561 -0.44616,-0.70981 -0.85177,-0.91261c-0.46644,-0.22308 -0.89232,-0.24336 -1.3182,-0.06084c-0.42588,0.18252 -0.73008,0.48672 -0.93288,0.95316c-0.12167,0.2028 -0.18252,0.4056 -0.18252,0.62867zm1.48044,-5.21197c0,0.28392 0.1014,0.58812 0.32448,0.91261c0.22309,0.32448 0.52729,0.54756 0.91261,0.66924c0.32448,0.06084 0.507,0.1014 0.54756,0.1014c0.18253,0 0.44616,-0.06084 0.75036,-0.2028c0.40561,-0.18252 0.66924,-0.54756 0.8112,-1.05456l1.8252,-6.77354c0.04057,-0.34477 0.06085,-0.52729 0.06085,-0.52729c0,-0.32448 -0.1014,-0.62868 -0.3042,-0.93288c-0.2028,-0.3042 -0.507,-0.50701 -0.91261,-0.62868c-0.18252,-0.04057 -0.36504,-0.06085 -0.52728,-0.06085c-0.32448,0 -0.64896,0.1014 -0.95316,0.3042s-0.507,0.507 -0.62868,0.91261l-1.8252,6.81409l-0.08112,0.46644z"/>
   </g>
   <path filter="url(#blur_shadow)" fill="paleturquoise" fill-opacity="0.2" d="m13.68964,34.19874c0,1.69956 0.62615,3.17549 1.83373,4.38307s2.70588,1.83373 4.45017,1.83373l20.75251,0c1.72193,0 3.22022,-0.60378 4.45017,-1.83373c1.22995,-1.22995 1.8561,-2.68351 1.8561,-4.38307c0,-1.69956 -0.60378,-3.17549 -1.8561,-4.38307c-1.22995,-1.20759 -2.70588,-1.83374 -4.45017,-1.83374l-3.1084,0c-0.22363,0 -0.33544,-0.11181 -0.33544,-0.33544l-0.15654,-1.09576c-0.22363,-2.10209 -1.11813,-3.86874 -2.66115,-5.25522s-3.37676,-2.07972 -5.47884,-2.07972c-2.10209,0 -3.93582,0.69324 -5.5012,2.10209c-1.56539,1.38648 -2.43753,3.15312 -2.63879,5.23286l-0.15654,0.93924c0,0.22362 -0.11181,0.33543 -0.35781,0.33543l-1.00632,0.15654c-1.6101,0.13418 -2.95186,0.80505 -4.04763,1.99028c-1.02869,1.18521 -1.58774,2.59407 -1.58774,4.22653l-0.00001,-0.00001z"/>
   <g stroke="midnightblue" filter="url(#drop_shadow)" stroke-opacity="0.4">
    <path stroke="midnightblue" d="m9.3868,33.69016c0,-2.31478 0.72463,-4.36789 2.17387,-6.17945c1.44926,-1.81156 3.28095,-2.95889 5.49508,-3.48223c0.62398,-2.73747 2.03298,-4.99187 4.22698,-6.74305s4.7302,-2.63684 7.56831,-2.63684c2.77773,0 5.23341,0.86553 7.40729,2.55632c2.15375,1.71092 3.58287,3.90493 4.24711,6.60215l0.62398,0c1.79144,0 3.4621,0.44282 4.99187,1.30835s2.7576,2.07324 3.64326,3.58287c0.88566,1.50964 1.34861,3.18031 1.34861,4.97174c0,2.69722 -0.92591,5.012 -2.77773,6.94433s-4.12634,2.95889 -6.80344,3.0394c-0.26167,0 -0.40257,-0.12077 -0.40257,-0.34218l0,-2.67709c0,-0.24155 0.1409,-0.36231 0.40257,-0.36231c1.73105,-0.08052 3.18031,-0.76489 4.38802,-2.05311s1.81156,-2.79786 1.81156,-4.54904s-0.64411,-3.26082 -1.9726,-4.54904c-1.30835,-1.28823 -2.85824,-1.93234 -4.64968,-1.93234l-3.22056,0c-0.24155,0 -0.38244,-0.12077 -0.38244,-0.34218l-0.1409,-1.16745c-0.22142,-2.15375 -1.14732,-3.98544 -2.77773,-5.45482c-1.65053,-1.46938 -3.56274,-2.21413 -5.73662,-2.21413c-2.194,0 -4.12634,0.72463 -5.75675,2.194c-1.63041,1.46938 -2.55632,3.28095 -2.77773,5.45482l-0.12077,1.08694c0,0.24155 -0.1409,0.36231 -0.40257,0.36231l-1.06681,0.06039c-1.65053,0.08052 -3.0394,0.74476 -4.20686,2.01285s-1.73105,2.7576 -1.73105,4.46853c0,1.75118 0.60385,3.26082 1.81156,4.54904s2.67709,1.9726 4.38802,2.05311c0.22142,0 0.34218,0.12077 0.34218,0.36231l0,2.67709c0,0.22142 -0.12077,0.34218 -0.34218,0.34218c-2.69722,-0.12077 -4.97174,-1.14732 -6.84369,-3.07966s-2.7576,-4.18673 -2.7576,-6.86382l0.00003,0.00001z" fill="linen" stroke-opacity="0.4" stroke-width="2.5"/>
    <path d="m20.28234,48.26185c0.18253,0.42588 0.50701,0.75036 0.93288,0.93288c0.40561,0.2028 0.83148,0.22308 1.25736,0.04056c0.44616,-0.18252 0.73009,-0.48672 0.91261,-0.9126c0.2028,-0.44616 0.22308,-0.87205 0.04056,-1.29792c-0.16224,-0.42588 -0.48672,-0.70981 -0.91261,-0.89233c-0.4056,-0.22308 -0.8112,-0.24336 -1.23708,-0.06084c-0.42588,0.18252 -0.73009,0.48672 -0.93288,0.95316c-0.22309,0.34476 -0.22309,0.75036 -0.06085,1.23708zm1.27764,-5.71897c0,0.32448 0.1014,0.62868 0.3042,0.9126c0.20281,0.3042 0.52729,0.507 0.93288,0.64896c0.38532,0.22309 0.8112,0.24336 1.25736,0.02028c0.44616,-0.2028 0.75036,-0.6084 0.89232,-1.2168l1.82521,-6.85466c0.12167,-0.507 0.08112,-0.95315 -0.16224,-1.35876c-0.24336,-0.40561 -0.58812,-0.64896 -1.07485,-0.73009c-0.16224,-0.04056 -0.32448,-0.06084 -0.48672,-0.06084c-0.32448,0 -0.64896,0.1014 -0.95316,0.3042c-0.3042,0.2028 -0.52728,0.507 -0.64896,0.89232l-1.78464,6.87494c-0.08112,0.32448 -0.1014,0.507 -0.1014,0.56785zm3.77209,11.33655c0,0.24336 0.04056,0.44616 0.12168,0.58812c0.18252,0.44615 0.48672,0.75036 0.9126,0.9126c0.18252,0.1014 0.40561,0.16224 0.66924,0.16224c0.12168,0 0.32448,-0.04056 0.6084,-0.12167c0.44616,-0.16224 0.77064,-0.46644 0.95316,-0.91261c0.2028,-0.44616 0.2028,-0.89233 0,-1.33848c-0.2028,-0.44616 -0.507,-0.75036 -0.91261,-0.93288c-0.4056,-0.18252 -0.8112,-0.18252 -1.25736,0c-0.38533,0.16224 -0.64896,0.4056 -0.83149,0.73008c-0.18252,0.32448 -0.26364,0.62868 -0.26364,0.91261zm1.48044,-5.29309c0,0.75036 0.42588,1.23709 1.27764,1.48044c0.22308,0.06085 0.38532,0.08112 0.48672,0.08112c0.3042,0 0.56784,-0.06085 0.77064,-0.16224c0.42588,-0.16224 0.7098,-0.54757 0.85176,-1.15596l3.38677,-12.75616c0.12168,-0.48672 0.08112,-0.9126 -0.12168,-1.3182c-0.2028,-0.38532 -0.54756,-0.64896 -0.99372,-0.77064c-0.16224,-0.04056 -0.34476,-0.06084 -0.54756,-0.06084c-0.32448,0 -0.64896,0.1014 -0.97344,0.3042c-0.32448,0.2028 -0.52729,0.507 -0.6084,0.89233l-3.46789,12.85755c-0.04056,0.28392 -0.06084,0.48672 -0.06084,0.6084zm6.95606,-0.93288c0,0.24336 0.04056,0.46644 0.16224,0.64896c0.16224,0.38533 0.46644,0.68953 0.89233,0.89233c0.22308,0.08112 0.46644,0.14196 0.7098,0.14196c0.12168,0 0.32448,-0.04056 0.6084,-0.12168c0.42588,-0.16224 0.75036,-0.46644 0.93288,-0.89232c0.14196,-0.44616 0.14196,-0.87205 -0.02028,-1.27764c-0.16224,-0.40561 -0.44616,-0.70981 -0.85177,-0.91261c-0.46644,-0.22308 -0.89232,-0.24336 -1.3182,-0.06084c-0.42588,0.18252 -0.73008,0.48672 -0.93288,0.95316c-0.12167,0.2028 -0.18252,0.4056 -0.18252,0.62867zm1.48044,-5.21197c0,0.28392 0.1014,0.58812 0.32448,0.91261c0.22309,0.32448 0.52729,0.54756 0.91261,0.66924c0.32448,0.06084 0.507,0.1014 0.54756,0.1014c0.18253,0 0.44616,-0.06084 0.75036,-0.2028c0.40561,-0.18252 0.66924,-0.54756 0.8112,-1.05456l1.8252,-6.77354c0.04057,-0.34477 0.06085,-0.52729 0.06085,-0.52729c0,-0.32448 -0.1014,-0.62868 -0.3042,-0.93288c-0.2028,-0.3042 -0.507,-0.50701 -0.91261,-0.62868c-0.18252,-0.04057 -0.36504,-0.06085 -0.52728,-0.06085c-0.32448,0 -0.64896,0.1014 -0.95316,0.3042s-0.507,0.507 -0.62868,0.91261l-1.8252,6.81409l-0.08112,0.46644z" fill="lightgrey"/>
  </g>

</svg>

