<svg width="60" height="60" xmlns="http://www.w3.org/2000/svg">


  <defs>
    <filter id="drop_shadow" filterUnits="objectBoundingBox" x="-50%" y="-50%" width="200%" height="200%">
      <feDropShadow dx="0.5" dy="0.5" stdDeviation="2" flood-color="black" flood-opacity="0.8" />
    </filter>
    <filter id="blur_shadow" filterUnits="objectBoundingBox" x="-50%" y="-50%" width="200%" height="200%">
      <feGaussianBlur in="SourceGraphic" stdDeviation="3" />
    </filter>
  </defs>
<g>
<path filter="url(#blur_shadow)" fill="gray" d="m7.297501,25.920748c0,-2.506207 0.799853,-4.745796 2.372898,-6.718767s3.572678,-3.226075 5.998899,-3.75931c0.666544,-2.986119 2.186265,-5.465663 4.585825,-7.385311s5.11906,-2.879471 8.211826,-2.879471c2.986119,0 5.678958,0.933162 8.051855,2.799486c2.372898,1.866324 3.892619,4.265884 4.612487,7.172017l0.719868,0c2.986119,0 5.545649,1.039809 7.678591,3.146089c2.10628,2.079618 3.172751,4.639148 3.172751,7.598605c0,1.599706 -0.319941,3.119427 -0.986486,4.532501c-0.666544,1.413074 -1.573045,2.639516 -2.746163,3.652663l0,0.079985c0,1.573045 -0.506574,2.986119 -1.493059,4.239222c-0.986486,1.253103 -2.239589,2.026295 -3.732648,2.372898c-0.373265,1.65303 -1.19978,3.066104 -2.426221,4.21256c-1.226442,1.146456 -2.692839,1.866324 -4.345869,2.132942c0.773191,0.9065 1.146456,1.919648 1.146456,3.01278c0,1.279765 -0.45325,2.372898 -1.35975,3.30606c-0.9065,0.9065 -1.999633,1.386412 -3.279398,1.386412c-1.279765,0 -2.372898,-0.45325 -3.279398,-1.386412c-0.9065,-0.9065 -1.35975,-2.026295 -1.35975,-3.30606c0,-0.506574 0.079985,-1.013147 0.266618,-1.519721l-0.266618,0c-1.546383,0 -2.879471,-0.559897 -3.999266,-1.679692c-1.119794,-1.119794 -1.679692,-2.452883 -1.679692,-3.999266c0,-1.066471 0.266618,-2.026295 0.799853,-2.85281c-1.386412,-0.773191 -2.372898,-1.866324 -2.986119,-3.332722l-3.412707,0l0,-0.026662c-2.85281,-0.186632 -5.279031,-1.306427 -7.278664,-3.386045s-2.986119,-4.532501 -2.986119,-7.411973l0,0.000002z"/>
  <path fill="darkgray" d="m7.297501,25.920748c0,-2.506207 0.799853,-4.745796 2.372898,-6.718767s3.572678,-3.226075 5.998899,-3.75931c0.666544,-2.986119 2.186265,-5.465663 4.585825,-7.385311s5.11906,-2.879471 8.211826,-2.879471c2.986119,0 5.678958,0.933162 8.051855,2.799486c2.372898,1.866324 3.892619,4.265884 4.612487,7.172017l0.719868,0c2.986119,0 5.545649,1.039809 7.678591,3.146089c2.10628,2.079618 3.172751,4.639148 3.172751,7.598605c0,1.599706 -0.319941,3.119427 -0.986486,4.532501c-0.666544,1.413074 -1.573045,2.639516 -2.746163,3.652663l0,0.079985c0,1.573045 -0.506574,2.986119 -1.493059,4.239222c-0.986486,1.253103 -2.239589,2.026295 -3.732648,2.372898c-0.373265,1.65303 -1.19978,3.066104 -2.426221,4.21256c-1.226442,1.146456 -2.692839,1.866324 -4.345869,2.132942c0.773191,0.9065 1.146456,1.919648 1.146456,3.01278c0,1.279765 -0.45325,2.372898 -1.35975,3.30606c-0.9065,0.9065 -1.999633,1.386412 -3.279398,1.386412c-1.279765,0 -2.372898,-0.45325 -3.279398,-1.386412c-0.9065,-0.9065 -1.35975,-2.026295 -1.35975,-3.30606c0,-0.506574 0.079985,-1.013147 0.266618,-1.519721l-0.266618,0c-1.546383,0 -2.879471,-0.559897 -3.999266,-1.679692c-1.119794,-1.119794 -1.679692,-2.452883 -1.679692,-3.999266c0,-1.066471 0.266618,-2.026295 0.799853,-2.85281c-1.386412,-0.773191 -2.372898,-1.866324 -2.986119,-3.332722l-3.412707,0l0,-0.026662c-2.85281,-0.186632 -5.279031,-1.306427 -7.278664,-3.386045s-2.986119,-4.532501 -2.986119,-7.411973l0,0.000002z" stroke="midnightblue" stroke-opacity="0.4" stroke-width="2.5"/>
</g>

</svg>
