<svg width="60" height="60" xmlns="http://www.w3.org/2000/svg">



  <defs>
    <filter id="drop_shadow" filterUnits="objectBoundingBox" x="-50%" y="-50%" width="200%" height="200%">
      <feDropShadow dx="0.5" dy="0.5" stdDeviation="2" flood-color="black" flood-opacity="0.8" />
    </filter>
    <filter id="blur_shadow" filterUnits="objectBoundingBox" x="-50%" y="-50%" width="200%" height="200%">
      <feGaussianBlur in="SourceGraphic" stdDeviation="3" />
    </filter>
    <filter id="shadow">
      <feDropShadow dx="0.3" dy="0.6" stdDeviation="0.6" flood-color="black"/>
    </filter>
  </defs>

<g fill="black" style="filter:url(#blur_shadow)">
  <path d="m8.26664,33.78325c0,2.67096 0.92379,4.98044 2.79146,6.88827s4.13698,2.95212 6.82802,3.07261c0.24099,0 0.36148,-0.12049 0.36148,-0.3414l0,-2.69105c0,-0.22091 -0.12049,-0.3414 -0.36148,-0.3414c-1.72709,-0.08033 -3.17302,-0.76313 -4.37797,-2.04841s-1.80742,-2.79146 -1.80742,-4.53863c0,-1.66684 0.56231,-3.11278 1.68692,-4.35789c1.12462,-1.22503 2.53039,-1.948 4.21731,-2.14882l1.06437,-0.06025c0.26107,0 0.40165,-0.12049 0.40165,-0.36148l0.14058,-1.08445c0.22091,-2.1689 1.12462,-3.9964 2.75129,-5.46242c1.62668,-1.46602 3.53451,-2.20907 5.72349,-2.20907c2.1689,0 4.07673,0.74305 5.72349,2.20907c1.64676,1.46602 2.57055,3.29352 2.81154,5.46242l0.16066,1.16478c0,0.22091 0.12049,0.3414 0.3414,0.3414l3.23327,0c1.78734,0 3.33368,0.64264 4.63904,1.92791c1.30536,1.28528 1.96808,2.81154 1.96808,4.55871c0,1.74717 -0.60247,3.25335 -1.80742,4.53863c-1.20495,1.28528 -2.67096,1.96808 -4.37797,2.04841c-0.26107,0 -0.40165,0.12049 -0.40165,0.3414l0,2.69105c0,0.22091 0.14058,0.3414 0.40165,0.3414c2.67096,-0.08033 4.94028,-1.10453 6.78786,-3.03245c1.86767,-1.92791 2.79146,-4.23739 2.79146,-6.92844c0,-1.72709 -0.44181,-3.33368 -1.30536,-4.83986c1.58651,-1.4861 2.61072,-3.25335 3.11278,-5.2616l0.26107,-1.3656c0.04016,-0.02008 0.06025,-0.06025 0.06025,-0.14058c0,-0.14058 -0.10041,-0.26107 -0.32132,-0.32132l-1.12462,-0.3414c-1.1447,-0.3414 -2.10865,-0.90371 -2.93203,-1.70701c-0.8033,-0.8033 -1.38569,-1.62668 -1.72709,-2.5103c-0.3414,-0.86354 -0.50206,-1.74717 -0.50206,-2.65088c-0.02008,-0.48198 0.04016,-1.0242 0.16066,-1.58651l0.28115,-1.16478c0.06025,-0.18074 -0.04016,-0.32132 -0.28115,-0.44181l-1.60659,-0.50206c-0.84346,-0.24099 -1.72709,-0.38157 -2.6308,-0.38157c-0.70288,0 -1.42585,0.08033 -2.1689,0.26107s-1.52626,0.44181 -2.34964,0.8033c-0.82338,0.36148 -1.60659,0.90371 -2.38981,1.60659c-0.76313,0.70288 -1.44593,1.50618 -2.00824,2.45006c-1.50618,-0.64264 -3.09269,-0.98404 -4.75953,-0.98404c-2.83162,0 -5.36201,0.88363 -7.55099,2.6308s-3.59475,3.9964 -4.21731,6.7477c-2.22915,0.52214 -4.05665,1.66684 -5.50258,3.47426s-2.18898,3.93616 -2.18898,6.24563zm11.00517,14.11795c0.18074,0.42173 0.48198,0.72297 0.92379,0.90371c0.38157,0.20082 0.8033,0.22091 1.24511,0.04016c0.44181,-0.16066 0.74305,-0.4619 0.90371,-0.90371c0.20082,-0.44181 0.22091,-0.86354 0.04016,-1.30536c-0.16066,-0.42173 -0.4619,-0.72297 -0.90371,-0.88363c-0.40165,-0.20082 -0.82338,-0.22091 -1.24511,-0.04016c-0.42173,0.18074 -0.74305,0.48198 -0.94387,0.92379c-0.18074,0.3414 -0.20082,0.76313 -0.02008,1.26519zm1.24511,-5.68333c0,0.30124 0.10041,0.60247 0.32132,0.90371s0.52214,0.52214 0.92379,0.64264c0.52214,0.20082 0.96396,0.20082 1.34552,0c0.38157,-0.20082 0.64264,-0.58239 0.8033,-1.1447l1.76725,-6.44646c0.14058,-0.50206 0.08033,-0.94387 -0.16066,-1.34552c-0.24099,-0.40165 -0.60247,-0.64264 -1.08445,-0.74305c-0.44181,-0.14058 -0.86354,-0.10041 -1.26519,0.14058c-0.40165,0.22091 -0.66272,0.56231 -0.8033,1.0242l-1.76725,6.46654c0,0.04016 -0.02008,0.12049 -0.04016,0.24099c-0.02008,0.10041 -0.04016,0.20082 -0.04016,0.26107zm3.75541,11.24616c0,0.24099 0.04016,0.44181 0.12049,0.58239c0.18074,0.44181 0.48198,0.74305 0.90371,0.90371c0.18074,0.10041 0.40165,0.14058 0.66272,0.14058c0.12049,0 0.32132,-0.04016 0.60247,-0.12049c0.4619,-0.16066 0.78321,-0.4619 0.96396,-0.90371c0.20082,-0.44181 0.20082,-0.88363 0,-1.32544c-0.20082,-0.44181 -0.50206,-0.74305 -0.90371,-0.92379c-0.40165,-0.18074 -0.8033,-0.18074 -1.22503,0c-0.38157,0.16066 -0.66272,0.40165 -0.84346,0.72297c-0.20082,0.3414 -0.28115,0.64264 -0.28115,0.92379zm1.4861,-5.32184c0,0.76313 0.42173,1.28528 1.28528,1.56643c0.18074,0.06025 0.3414,0.10041 0.4619,0.10041c0.22091,0 0.4619,-0.06025 0.70288,-0.16066c0.4619,-0.16066 0.78321,-0.54223 0.94387,-1.1447l3.3136,-12.29044c0.12049,-0.48198 0.08033,-0.90371 -0.14058,-1.30536c-0.22091,-0.38157 -0.56231,-0.64264 -1.00412,-0.78321c-0.4619,-0.14058 -0.90371,-0.10041 -1.30536,0.14058c-0.40165,0.22091 -0.6828,0.56231 -0.8033,1.0242l-3.37385,12.39086c-0.06025,0.18074 -0.08033,0.3414 -0.08033,0.4619zm6.90835,-0.84346c0,0.26107 0.04016,0.4619 0.14058,0.62256c0.16066,0.40165 0.4619,0.70288 0.88363,0.88363c0.24099,0.10041 0.4619,0.16066 0.70288,0.16066c0.12049,0 0.32132,-0.04016 0.60247,-0.12049c0.44181,-0.18074 0.74305,-0.4619 0.90371,-0.88363c0.16066,-0.44181 0.16066,-0.86354 0,-1.26519c-0.16066,-0.40165 -0.44181,-0.70288 -0.84346,-0.90371c-0.44181,-0.20082 -0.88363,-0.22091 -1.30536,-0.04016c-0.44181,0.16066 -0.74305,0.48198 -0.94387,0.92379c-0.10041,0.16066 -0.14058,0.36148 -0.14058,0.62256zm1.44593,-5.1411c0,0.32132 0.10041,0.64264 0.30124,0.92379c0.20082,0.28115 0.50206,0.50206 0.90371,0.62256c0.3414,0.04016 0.52214,0.06025 0.54223,0.06025c0.82338,0 1.32544,-0.40165 1.54635,-1.22503l1.74717,-6.36613c0.12049,-0.48198 0.08033,-0.90371 -0.14058,-1.30536c-0.22091,-0.38157 -0.56231,-0.64264 -1.00412,-0.78321c-0.4619,-0.14058 -0.90371,-0.10041 -1.28528,0.14058c-0.40165,0.22091 -0.66272,0.56231 -0.8033,1.0242l-1.74717,6.36613c-0.04016,0.18074 -0.06025,0.36148 -0.06025,0.54223zm1.30536,-24.60097c0.62256,-1.1447 1.50618,-2.02832 2.61072,-2.6308c1.10453,-0.60247 2.2894,-0.90371 3.53451,-0.88363c0.22091,0 0.40165,0.02008 0.50206,0.04016l0,0.62256c0,1.96808 0.52214,3.79558 1.56643,5.52267c1.04429,1.72709 2.5103,3.03245 4.35789,3.91607c-0.38157,0.88363 -0.88363,1.58651 -1.50618,2.14882c-1.76725,-1.58651 -3.93616,-2.36973 -6.52679,-2.36973l-0.64264,0c-0.52214,-2.5103 -1.80742,-4.63904 -3.89599,-6.36613z"/>
</g>


<g stroke-width="2.5" stroke-opacity="0.4" stroke="midnightblue">

  <path id="moonfillback" stroke-width="0.1" fill="paleturquoise"  fill-opacity="0.2" style="filter:url(#blur_shadow)" d="m39.9567,27.27653zm-4.53863,-9.71987c0.62256,-1.1447 1.50618,-2.02832 2.61072,-2.6308c1.10453,-0.60247 2.2894,-0.90371 3.53451,-0.88363c0.22091,0 0.40165,0.02008 0.50206,0.04016l0,0.62256c0,1.96808 0.52214,3.79558 1.56643,5.52267c1.04429,1.72709 2.5103,3.03245 4.35789,3.91607c-0.38157,0.88363 -0.88363,1.58651 -1.50618,2.14882c-1.76725,-1.58651 -3.93616,-2.36973 -6.52679,-2.36973l-0.64264,0c-0.52214,-2.5103 -1.80742,-4.63904 -3.89599,-6.36613l-0.00001,0.00001z"/>

  <path stroke-width="0" filter="url(#blur_shadow)" fill="paleturquoise" fill-opacity="0.3" d="m11.43267,33.85888c0,1.81002 0.66685,3.38188 1.95292,4.66796s2.88175,1.95292 4.73941,1.95292l22.10135,0c1.83385,0 3.42952,-0.64303 4.73941,-1.95292c1.30989,-1.30989 1.97674,-2.85793 1.97674,-4.66796c0,-1.81002 -0.64303,-3.38188 -1.97674,-4.66796c-1.30989,-1.28607 -2.88175,-1.95292 -4.73941,-1.95292l-3.31044,0c-0.23816,0 -0.35724,-0.11908 -0.35724,-0.35724l-0.16671,-1.16699c-0.23816,-2.23872 -1.19081,-4.1202 -2.83411,-5.59679s-3.59624,-2.2149 -5.83495,-2.2149c-2.23872,0 -4.19163,0.7383 -5.85877,2.23872c-1.66713,1.4766 -2.59596,3.35807 -2.8103,5.57298l-0.16671,1.00028c0,0.23816 -0.11908,0.35724 -0.38106,0.35724l-1.07172,0.16671c-1.71476,0.14289 -3.14373,0.85738 -4.31071,2.11963c-1.09554,1.26226 -1.69095,2.76268 -1.69095,4.50125l-0.00001,-0.00001l-0.00001,0z"/>
  <path id="cloudmoon" fill="linen" d="m8.26664,33.78325c0,2.67096 0.92379,4.98044 2.79146,6.88827s4.13698,2.95212 6.82802,3.07261c0.24099,0 0.36148,-0.12049 0.36148,-0.3414l0,-2.69105c0,-0.22091 -0.12049,-0.3414 -0.36148,-0.3414c-1.72709,-0.08033 -3.17302,-0.76313 -4.37797,-2.04841s-1.80742,-2.79146 -1.80742,-4.53863c0,-1.66684 0.56231,-3.11278 1.68692,-4.35789c1.12462,-1.22503 2.53039,-1.948 4.21731,-2.14882l1.06437,-0.06025c0.26107,0 0.40165,-0.12049 0.40165,-0.36148l0.14058,-1.08445c0.22091,-2.1689 1.12462,-3.9964 2.75129,-5.46242c1.62668,-1.46602 3.53451,-2.20907 5.72349,-2.20907c2.1689,0 4.07673,0.74305 5.72349,2.20907c1.64676,1.46602 2.57055,3.29352 2.81154,5.46242l0.16066,1.16478c0,0.22091 0.12049,0.3414 0.3414,0.3414l3.23327,0c1.78734,0 3.33368,0.64264 4.63904,1.92791c1.30536,1.28528 1.96808,2.81154 1.96808,4.55871c0,1.74717 -0.60247,3.25335 -1.80742,4.53863c-1.20495,1.28528 -2.67096,1.96808 -4.37797,2.04841c-0.26107,0 -0.40165,0.12049 -0.40165,0.3414l0,2.69105c0,0.22091 0.14058,0.3414 0.40165,0.3414c2.67096,-0.08033 4.94028,-1.10453 6.78786,-3.03245c1.86767,-1.92791 2.79146,-4.23739 2.79146,-6.92844c0,-1.72709 -0.44181,-3.33368 -1.30536,-4.83986c1.58651,-1.4861 2.61072,-3.25335 3.11278,-5.2616l0.26107,-1.3656c0.04016,-0.02008 0.06025,-0.06025 0.06025,-0.14058c0,-0.14058 -0.10041,-0.26107 -0.32132,-0.32132l-1.12462,-0.3414c-1.1447,-0.3414 -2.10865,-0.90371 -2.93203,-1.70701c-0.8033,-0.8033 -1.38569,-1.62668 -1.72709,-2.5103c-0.3414,-0.86354 -0.50206,-1.74717 -0.50206,-2.65088c-0.02008,-0.48198 0.04016,-1.0242 0.16066,-1.58651l0.28115,-1.16478c0.06025,-0.18074 -0.04016,-0.32132 -0.28115,-0.44181l-1.60659,-0.50206c-0.84346,-0.24099 -1.72709,-0.38157 -2.6308,-0.38157c-0.70288,0 -1.42585,0.08033 -2.1689,0.26107s-1.52626,0.44181 -2.34964,0.8033c-0.82338,0.36148 -1.60659,0.90371 -2.38981,1.60659c-0.76313,0.70288 -1.44593,1.50618 -2.00824,2.45006c-1.50618,-0.64264 -3.09269,-0.98404 -4.75953,-0.98404c-2.83162,0 -5.36201,0.88363 -7.55099,2.6308s-3.59475,3.9964 -4.21731,6.7477c-2.22915,0.52214 -4.05665,1.66684 -5.50258,3.47426s-2.18898,3.93616 -2.18898,6.24563l-0.00002,0.00001zm27.15143,-16.22659c0.62256,-1.1447 1.50618,-2.02832 2.61072,-2.6308c1.10453,-0.60247 2.2894,-0.90371 3.53451,-0.88363c0.22091,0 0.40165,0.02008 0.50206,0.04016l0,0.62256c0,1.96808 0.52214,3.79558 1.56643,5.52267c1.04429,1.72709 2.5103,3.03245 4.35789,3.91607c-0.38157,0.88363 -0.88363,1.58651 -1.50618,2.14882c-1.76725,-1.58651 -3.93616,-2.36973 -6.52679,-2.36973l-0.64264,0c-0.52214,-2.5103 -1.80742,-4.63904 -3.89599,-6.36613l-0.00001,0.00001z"/>
  <path id="rain" stroke-width="1" fill="cornflowerblue" d="m19.27181,47.9012c0.18074,0.42173 0.48198,0.72297 0.92379,0.90371c0.38157,0.20082 0.8033,0.22091 1.24511,0.04016c0.44181,-0.16066 0.74305,-0.4619 0.90371,-0.90371c0.20082,-0.44181 0.22091,-0.86354 0.04016,-1.30536c-0.16066,-0.42173 -0.4619,-0.72297 -0.90371,-0.88363c-0.40165,-0.20082 -0.82338,-0.22091 -1.24511,-0.04016c-0.42173,0.18074 -0.74305,0.48198 -0.94387,0.92379c-0.18074,0.3414 -0.20082,0.76313 -0.02008,1.26519l0,0.00001zm1.24511,-5.68333c0,0.30124 0.10041,0.60247 0.32132,0.90371s0.52214,0.52214 0.92379,0.64264c0.52214,0.20082 0.96396,0.20082 1.34552,0c0.38157,-0.20082 0.64264,-0.58239 0.8033,-1.1447l1.76725,-6.44646c0.14058,-0.50206 0.08033,-0.94387 -0.16066,-1.34552c-0.24099,-0.40165 -0.60247,-0.64264 -1.08445,-0.74305c-0.44181,-0.14058 -0.86354,-0.10041 -1.26519,0.14058c-0.40165,0.22091 -0.66272,0.56231 -0.8033,1.0242l-1.76725,6.46654c0,0.04016 -0.02008,0.12049 -0.04016,0.24099c-0.02008,0.10041 -0.04016,0.20082 -0.04016,0.26107l-0.00001,0zm3.75541,11.24616c0,0.24099 0.04016,0.44181 0.12049,0.58239c0.18074,0.44181 0.48198,0.74305 0.90371,0.90371c0.18074,0.10041 0.40165,0.14058 0.66272,0.14058c0.12049,0 0.32132,-0.04016 0.60247,-0.12049c0.4619,-0.16066 0.78321,-0.4619 0.96396,-0.90371c0.20082,-0.44181 0.20082,-0.88363 0,-1.32544c-0.20082,-0.44181 -0.50206,-0.74305 -0.90371,-0.92379c-0.40165,-0.18074 -0.8033,-0.18074 -1.22503,0c-0.38157,0.16066 -0.66272,0.40165 -0.84346,0.72297c-0.20082,0.3414 -0.28115,0.64264 -0.28115,0.92379l0,-0.00001zm1.4861,-5.32184c0,0.76313 0.42173,1.28528 1.28528,1.56643c0.18074,0.06025 0.3414,0.10041 0.4619,0.10041c0.22091,0 0.4619,-0.06025 0.70288,-0.16066c0.4619,-0.16066 0.78321,-0.54223 0.94387,-1.1447l3.3136,-12.29044c0.12049,-0.48198 0.08033,-0.90371 -0.14058,-1.30536c-0.22091,-0.38157 -0.56231,-0.64264 -1.00412,-0.78321c-0.4619,-0.14058 -0.90371,-0.10041 -1.30536,0.14058c-0.40165,0.22091 -0.6828,0.56231 -0.8033,1.0242l-3.37385,12.39086c-0.06025,0.18074 -0.08033,0.3414 -0.08033,0.4619l0.00001,-0.00001zm6.90835,-0.84346c0,0.26107 0.04016,0.4619 0.14058,0.62256c0.16066,0.40165 0.4619,0.70288 0.88363,0.88363c0.24099,0.10041 0.4619,0.16066 0.70288,0.16066c0.12049,0 0.32132,-0.04016 0.60247,-0.12049c0.44181,-0.18074 0.74305,-0.4619 0.90371,-0.88363c0.16066,-0.44181 0.16066,-0.86354 0,-1.26519c-0.16066,-0.40165 -0.44181,-0.70288 -0.84346,-0.90371c-0.44181,-0.20082 -0.88363,-0.22091 -1.30536,-0.04016c-0.44181,0.16066 -0.74305,0.48198 -0.94387,0.92379c-0.10041,0.16066 -0.14058,0.36148 -0.14058,0.62256l0,-0.00002zm1.44593,-5.1411c0,0.32132 0.10041,0.64264 0.30124,0.92379c0.20082,0.28115 0.50206,0.50206 0.90371,0.62256c0.3414,0.04016 0.52214,0.06025 0.54223,0.06025c0.82338,0 1.32544,-0.40165 1.54635,-1.22503l1.74717,-6.36613c0.12049,-0.48198 0.08033,-0.90371 -0.14058,-1.30536c-0.22091,-0.38157 -0.56231,-0.64264 -1.00412,-0.78321c-0.4619,-0.14058 -0.90371,-0.10041 -1.28528,0.14058c-0.40165,0.22091 -0.66272,0.56231 -0.8033,1.0242l-1.74717,6.36613c-0.04016,0.18074 -0.06025,0.36148 -0.06025,0.54223l0,-0.00001z"/>
</g>

  <path id="moonfill" stroke-width="0" fill="paleturquoise"  fill-opacity="0.5" d="m39.9567,27.27653zm-4.53863,-9.71987c0.62256,-1.1447 1.50618,-2.02832 2.61072,-2.6308c1.10453,-0.60247 2.2894,-0.90371 3.53451,-0.88363c0.22091,0 0.40165,0.02008 0.50206,0.04016l0,0.62256c0,1.96808 0.52214,3.79558 1.56643,5.52267c1.04429,1.72709 2.5103,3.03245 4.35789,3.91607c-0.38157,0.88363 -0.88363,1.58651 -1.50618,2.14882c-1.76725,-1.58651 -3.93616,-2.36973 -6.52679,-2.36973l-0.64264,0c-0.52214,-2.5103 -1.80742,-4.63904 -3.89599,-6.36613l-0.00001,0.00001z"/>


</svg>
