<svg width="60" height="60" xmlns="http://www.w3.org/2000/svg">



  <defs>
    <filter id="drop_shadow" filterUnits="objectBoundingBox" x="-50%" y="-50%" width="200%" height="200%">
      <feDropShadow dx="0.5" dy="0.5" stdDeviation="2" flood-color="black" flood-opacity="0.8" />
    </filter>
    <filter id="blur_shadow" filterUnits="objectBoundingBox" x="-50%" y="-50%" width="200%" height="200%">
      <feGaussianBlur in="SourceGraphic" stdDeviation="3" />
    </filter>
  </defs>

<g fill="black" style="filter:url(#blur_shadow)">
<path d="m7.28757,33.13966c0,0.45807 0.17177,0.85887 0.53441,1.18334c0.30538,0.36264 0.70618,0.53441 1.20242,0.53441l28.03744,0c0.5535,0 1.01156,0.19086 1.39328,0.57258c0.38172,0.38172 0.57258,0.85887 0.57258,1.41237c0,0.5535 -0.19086,1.01156 -0.57258,1.3742c-0.38172,0.36264 -0.83979,0.5535 -1.41237,0.5535c-0.5535,0 -1.03065,-0.19086 -1.39328,-0.5535c-0.30538,-0.34355 -0.6871,-0.49624 -1.14516,-0.49624c-0.47715,0 -0.87796,0.17177 -1.22151,0.49624s-0.51532,0.72527 -0.51532,1.16425c0,0.47715 0.17177,0.87796 0.53441,1.20242c1.06882,1.04973 2.3285,1.58414 3.74087,1.58414c1.48871,0 2.76748,-0.51532 3.8363,-1.54597c1.06882,-1.03065 1.58414,-2.27124 1.58414,-3.75996s-0.53441,-2.74839 -1.60323,-3.81721c-1.06882,-1.06882 -2.34759,-1.60323 -3.81721,-1.60323l-28.01835,0c-0.47715,0 -0.87796,0.17177 -1.22151,0.49624c-0.34355,0.32446 -0.51532,0.72527 -0.51532,1.20242zm0,-6.26023c0,0.43898 0.17177,0.8207 0.53441,1.16425c0.32446,0.34355 0.72527,0.49624 1.20242,0.49624l38.24849,0c1.48871,0 2.76748,-0.51532 3.8363,-1.56506c1.06882,-1.03065 1.60323,-2.29033 1.60323,-3.75996c0,-1.46963 -0.53441,-2.74839 -1.60323,-3.79813s-2.34759,-1.58414 -3.8363,-1.58414c-1.46963,0 -2.71022,0.51532 -3.72178,1.52689c-0.34355,0.30538 -0.51532,0.72527 -0.51532,1.27877c0,0.49624 0.17177,0.89705 0.49624,1.20242c0.32446,0.30538 0.72527,0.45807 1.20242,0.45807c0.45807,0 0.85887,-0.15269 1.20242,-0.45807c0.36264,-0.40081 0.80161,-0.59167 1.33602,-0.59167c0.5535,0 1.01156,0.19086 1.39328,0.57258c0.38172,0.38172 0.57258,0.83979 0.57258,1.39328c0,0.5535 -0.19086,1.01156 -0.57258,1.3742c-0.38172,0.36264 -0.83979,0.5535 -1.39328,0.5535l-38.24849,0c-0.47715,0 -0.87796,0.17177 -1.22151,0.49624c-0.34355,0.36264 -0.51532,0.76344 -0.51532,1.24059z"/>
</g>

<g stroke="midnightblue" stroke-opacity="0.4" stroke-width="1.5">
  <path style="filter:url(#drop_shadow);" fill="grey" d="m7.28757,33.13966c0,0.45807 0.17177,0.85887 0.53441,1.18334c0.30538,0.36264 0.70618,0.53441 1.20242,0.53441l28.03744,0c0.5535,0 1.01156,0.19086 1.39328,0.57258c0.38172,0.38172 0.57258,0.85887 0.57258,1.41237c0,0.5535 -0.19086,1.01156 -0.57258,1.3742c-0.38172,0.36264 -0.83979,0.5535 -1.41237,0.5535c-0.5535,0 -1.03065,-0.19086 -1.39328,-0.5535c-0.30538,-0.34355 -0.6871,-0.49624 -1.14516,-0.49624c-0.47715,0 -0.87796,0.17177 -1.22151,0.49624s-0.51532,0.72527 -0.51532,1.16425c0,0.47715 0.17177,0.87796 0.53441,1.20242c1.06882,1.04973 2.3285,1.58414 3.74087,1.58414c1.48871,0 2.76748,-0.51532 3.8363,-1.54597c1.06882,-1.03065 1.58414,-2.27124 1.58414,-3.75996s-0.53441,-2.74839 -1.60323,-3.81721c-1.06882,-1.06882 -2.34759,-1.60323 -3.81721,-1.60323l-28.01835,0c-0.47715,0 -0.87796,0.17177 -1.22151,0.49624c-0.34355,0.32446 -0.51532,0.72527 -0.51532,1.20242zm0,-6.26023c0,0.43898 0.17177,0.8207 0.53441,1.16425c0.32446,0.34355 0.72527,0.49624 1.20242,0.49624l38.24849,0c1.48871,0 2.76748,-0.51532 3.8363,-1.56506c1.06882,-1.03065 1.60323,-2.29033 1.60323,-3.75996c0,-1.46963 -0.53441,-2.74839 -1.60323,-3.79813s-2.34759,-1.58414 -3.8363,-1.58414c-1.46963,0 -2.71022,0.51532 -3.72178,1.52689c-0.34355,0.30538 -0.51532,0.72527 -0.51532,1.27877c0,0.49624 0.17177,0.89705 0.49624,1.20242c0.32446,0.30538 0.72527,0.45807 1.20242,0.45807c0.45807,0 0.85887,-0.15269 1.20242,-0.45807c0.36264,-0.40081 0.80161,-0.59167 1.33602,-0.59167c0.5535,0 1.01156,0.19086 1.39328,0.57258c0.38172,0.38172 0.57258,0.83979 0.57258,1.39328c0,0.5535 -0.19086,1.01156 -0.57258,1.3742c-0.38172,0.36264 -0.83979,0.5535 -1.39328,0.5535l-38.24849,0c-0.47715,0 -0.87796,0.17177 -1.22151,0.49624c-0.34355,0.36264 -0.51532,0.76344 -0.51532,1.24059z"/>
<g stroke="midnightblue" stroke-opacity="0.4" stroke-width="1.5">
  <path d="m7.28757,33.13966c0,0.45807 0.17177,0.85887 0.53441,1.18334c0.30538,0.36264 0.70618,0.53441 1.20242,0.53441l28.03744,0c0.5535,0 1.01156,0.19086 1.39328,0.57258c0.38172,0.38172 0.57258,0.85887 0.57258,1.41237c0,0.5535 -0.19086,1.01156 -0.57258,1.3742c-0.38172,0.36264 -0.83979,0.5535 -1.41237,0.5535c-0.5535,0 -1.03065,-0.19086 -1.39328,-0.5535c-0.30538,-0.34355 -0.6871,-0.49624 -1.14516,-0.49624c-0.47715,0 -0.87796,0.17177 -1.22151,0.49624s-0.51532,0.72527 -0.51532,1.16425c0,0.47715 0.17177,0.87796 0.53441,1.20242c1.06882,1.04973 2.3285,1.58414 3.74087,1.58414c1.48871,0 2.76748,-0.51532 3.8363,-1.54597c1.06882,-1.03065 1.58414,-2.27124 1.58414,-3.75996s-0.53441,-2.74839 -1.60323,-3.81721c-1.06882,-1.06882 -2.34759,-1.60323 -3.81721,-1.60323l-28.01835,0c-0.47715,0 -0.87796,0.17177 -1.22151,0.49624c-0.34355,0.32446 -0.51532,0.72527 -0.51532,1.20242l-0.00001,0z" fill="lightgrey"/>
  <path d="m7.82198,34.323zm-0.53441,-7.44357c0,0.43898 0.17177,0.8207 0.53441,1.16425c0.32446,0.34355 0.72527,0.49624 1.20242,0.49624l38.24849,0c1.48871,0 2.76748,-0.51532 3.8363,-1.56506c1.06882,-1.03065 1.60323,-2.29033 1.60323,-3.75996c0,-1.46963 -0.53441,-2.74839 -1.60323,-3.79813s-2.34759,-1.58414 -3.8363,-1.58414c-1.46963,0 -2.71022,0.51532 -3.72178,1.52689c-0.34355,0.30538 -0.51532,0.72527 -0.51532,1.27877c0,0.49624 0.17177,0.89705 0.49624,1.20242c0.32446,0.30538 0.72527,0.45807 1.20242,0.45807c0.45807,0 0.85887,-0.15269 1.20242,-0.45807c0.36264,-0.40081 0.80161,-0.59167 1.33602,-0.59167c0.5535,0 1.01156,0.19086 1.39328,0.57258c0.38172,0.38172 0.57258,0.83979 0.57258,1.39328c0,0.5535 -0.19086,1.01156 -0.57258,1.3742c-0.38172,0.36264 -0.83979,0.5535 -1.39328,0.5535l-38.24849,0c-0.47715,0 -0.87796,0.17177 -1.22151,0.49624c-0.34355,0.36264 -0.51532,0.76344 -0.51532,1.24059z" fill="linen"/>
</g>
</g>
</svg>
