<svg width="60" height="60" xmlns="http://www.w3.org/2000/svg">

  <defs>
    <filter id="drop_shadow" filterUnits="objectBoundingBox" x="-50%" y="-50%" width="200%" height="200%">
      <feDropShadow dx="0.5" dy="0.5" stdDeviation="2" flood-color="black" flood-opacity="0.8" />
    </filter>
    <filter id="blur_shadow" filterUnits="objectBoundingBox" x="-50%" y="-50%" width="200%" height="200%">
      <feGaussianBlur in="SourceGraphic" stdDeviation="3" />
    </filter>
    <filter id="shadow">
      <feDropShadow dx="0.3" dy="0.6" stdDeviation="0.6" flood-color="black"/>
    </filter>
  </defs>

<g fill="black" style="filter:url(#blur_shadow)">
  <path d="m8.19499,33.93442c0,2.6533 0.93763,4.92756 2.79295,6.84273s4.12958,2.9326 6.78288,3.0124c0.2394,0 0.35909,-0.1197 0.35909,-0.33914l0,-2.67325c0,-0.21945 -0.1197,-0.33914 -0.35909,-0.33914c-1.69572,-0.0798 -3.15205,-0.77804 -4.34902,-2.05481c-1.21693,-1.27678 -1.81542,-2.773 -1.81542,-4.46872c0,-1.69572 0.55859,-3.15205 1.69572,-4.38892c1.13713,-1.23688 2.53361,-1.91517 4.18943,-2.05481l1.05733,-0.13965c0.25935,0 0.39899,-0.1197 0.39899,-0.33914l0.13965,-1.03738c0.21945,-2.17451 1.11718,-4.00988 2.7331,-5.48615s3.51114,-2.21441 5.7056,-2.21441c2.17451,0 4.06973,0.73814 5.7056,2.19446c1.63587,1.45632 2.55356,3.27174 2.79295,5.42631l0.1596,1.13713c0,0.2394 0.1197,0.35909 0.33914,0.35909l3.23184,0c1.81542,0 3.35154,0.63839 4.64827,1.93512c1.29673,1.27678 1.93512,2.8129 1.93512,4.60837c0,1.69572 -0.59849,3.19194 -1.81542,4.46872c-1.21693,1.27678 -2.6533,1.95507 -4.34902,2.05481c-0.2793,0 -0.41894,0.1197 -0.41894,0.33914l0,2.67325c0,0.21945 0.13965,0.33914 0.41894,0.33914c1.75557,-0.0399 3.35154,-0.51869 4.80787,-1.41643c1.45632,-0.89773 2.6134,-2.09471 3.45129,-3.59094s1.25683,-3.11215 1.25683,-4.84777c0,-1.81542 -0.43889,-3.47124 -1.29673,-4.94751c1.47627,-1.31668 2.47376,-3.03235 3.03235,-5.14701l0.33914,-1.43638c0.01995,-0.01995 0.0399,-0.0798 0.0399,-0.1596c0,-0.13965 -0.09975,-0.25935 -0.31919,-0.31919l-1.21693,-0.33914c-0.87778,-0.25935 -1.65582,-0.63839 -2.33411,-1.13713s-1.21693,-1.05733 -1.61592,-1.67577c-0.39899,-0.61844 -0.67829,-1.23688 -0.87778,-1.89522c-0.1995,-0.63839 -0.29924,-1.27678 -0.29924,-1.89522c0,-0.53864 0.05985,-1.11718 0.1995,-1.71567l0.21945,-1.23688c0.0399,-0.17955 -0.0399,-0.33914 -0.2793,-0.43889l-1.59597,-0.47879c-0.87778,-0.21945 -1.69572,-0.31919 -2.49371,-0.31919c-0.73814,0 -1.47627,0.0798 -2.23436,0.25935c-0.75809,0.17955 -1.53612,0.43889 -2.35406,0.81794c-0.81794,0.37904 -1.59597,0.89773 -2.35406,1.59597c-0.75809,0.69824 -1.41643,1.49622 -1.97502,2.43386c-1.61592,-0.65834 -3.19194,-0.99748 -4.74802,-0.99748c-2.8129,0 -5.32656,0.87778 -7.50107,2.63335s-3.59094,3.98993 -4.20938,6.72303c-2.23436,0.55859 -4.06973,1.73562 -5.48615,3.51114c-1.41643,1.79547 -2.13461,3.85028 -2.13461,6.16444zm12.74783,8.15941c0,0.47879 0.1596,0.87778 0.47879,1.19698c0.31919,0.33914 0.69824,0.49874 1.17703,0.49874c0.47879,0 0.87778,-0.1596 1.19698,-0.49874s0.47879,-0.73814 0.47879,-1.19698c0,-0.43889 -0.1596,-0.83789 -0.47879,-1.15708s-0.71819,-0.47879 -1.19698,-0.47879c-0.45884,0 -0.85784,0.1596 -1.17703,0.47879c-0.31919,0.31919 -0.47879,0.69824 -0.47879,1.15708zm0,7.26167c0,0.45884 0.1596,0.83789 0.47879,1.15708c0.31919,0.31919 0.71819,0.47879 1.15708,0.47879c0.47879,0 0.87778,-0.1596 1.19698,-0.45884c0.31919,-0.31919 0.47879,-0.69824 0.47879,-1.17703c0,-0.47879 -0.1596,-0.85784 -0.47879,-1.17703c-0.31919,-0.31919 -0.71819,-0.45884 -1.19698,-0.45884c-0.47879,0 -0.85784,0.1596 -1.17703,0.45884c-0.29924,0.29924 -0.45884,0.69824 -0.45884,1.17703zm6.38389,-3.39144c0,0.47879 0.1596,0.87778 0.47879,1.17703c0.31919,0.31919 0.71819,0.47879 1.15708,0.47879c0.47879,0 0.87778,-0.1596 1.21693,-0.47879s0.49874,-0.71819 0.49874,-1.17703c0,-0.47879 -0.1596,-0.87778 -0.49874,-1.21693s-0.73814,-0.51869 -1.21693,-0.51869c-0.43889,0 -0.81794,0.17955 -1.15708,0.51869s-0.47879,0.73814 -0.47879,1.21693zm0,-7.26167c0,0.47879 0.1596,0.85784 0.47879,1.15708c0.31919,0.31919 0.71819,0.47879 1.15708,0.47879c0.47879,0 0.89773,-0.1596 1.21693,-0.45884s0.49874,-0.69824 0.49874,-1.17703c0,-0.45884 -0.1596,-0.85784 -0.49874,-1.19698s-0.73814,-0.49874 -1.21693,-0.49874c-0.43889,0 -0.83789,0.1596 -1.15708,0.49874s-0.47879,0.73814 -0.47879,1.19698zm0,14.5832c0,0.43889 0.1596,0.81794 0.47879,1.13713c0.33914,0.33914 0.71819,0.49874 1.15708,0.49874c0.47879,0 0.87778,-0.1596 1.21693,-0.47879c0.33914,-0.31919 0.49874,-0.69824 0.49874,-1.17703c0,-0.47879 -0.1596,-0.87778 -0.49874,-1.21693c-0.33914,-0.33914 -0.73814,-0.51869 -1.21693,-0.51869c-0.43889,0 -0.81794,0.17955 -1.15708,0.51869c-0.29924,0.35909 -0.47879,0.77804 -0.47879,1.23688zm6.46369,-11.19176c0,0.47879 0.1596,0.87778 0.49874,1.19698s0.71819,0.49874 1.19698,0.49874s0.85784,-0.1596 1.17703,-0.49874s0.47879,-0.73814 0.47879,-1.19698c0,-0.43889 -0.1596,-0.83789 -0.47879,-1.15708s-0.69824,-0.47879 -1.17703,-0.47879s-0.85784,0.1596 -1.19698,0.47879s-0.49874,0.69824 -0.49874,1.15708zm0,7.26167c0,0.45884 0.1596,0.83789 0.47879,1.15708c0.31919,0.31919 0.71819,0.47879 1.19698,0.47879s0.85784,-0.1596 1.17703,-0.47879c0.31919,-0.31919 0.45884,-0.69824 0.45884,-1.17703c0,-0.47879 -0.1596,-0.85784 -0.45884,-1.17703c-0.31919,-0.31919 -0.69824,-0.45884 -1.17703,-0.45884s-0.87778,0.1596 -1.19698,0.45884c-0.31919,0.31919 -0.47879,0.71819 -0.47879,1.19698zm1.35658,-31.7c0.61844,-1.07728 1.49622,-1.91517 2.59345,-2.51366s2.23436,-0.89773 3.41139,-0.91768c0.29924,0 0.51869,0.01995 0.65834,0.0399l0,0.61844c0,1.93512 0.51869,3.75053 1.55607,5.46621s2.49371,3.0124 4.32907,3.91013c-0.31919,0.71819 -0.81794,1.43638 -1.51617,2.13461c-1.77552,-1.57602 -3.91013,-2.35406 -6.44374,-2.35406l-0.61844,0c-0.53864,-2.45381 -1.85532,-4.56847 -3.96998,-6.38389z"/>
</g>

<g stroke-width="2.5" stroke-opacity="0.4" stroke="midnightblue">

  <path id="moonfillback" stroke-width="0.1" fill="paleturquoise"  fill-opacity="0.2" style="filter:url(#blur_shadow)" d="m39.9567,27.27653zm-4.53863,-9.71987c0.62256,-1.1447 1.50618,-2.02832 2.61072,-2.6308c1.10453,-0.60247 2.2894,-0.90371 3.53451,-0.88363c0.22091,0 0.40165,0.02008 0.50206,0.04016l0,0.62256c0,1.96808 0.52214,3.79558 1.56643,5.52267c1.04429,1.72709 2.5103,3.03245 4.35789,3.91607c-0.38157,0.88363 -0.88363,1.58651 -1.50618,2.14882c-1.76725,-1.58651 -3.93616,-2.36973 -6.52679,-2.36973l-0.64264,0c-0.52214,-2.5103 -1.80742,-4.63904 -3.89599,-6.36613l-0.00001,0.00001z"/>

  <path stroke-width="0" filter="url(#blur_shadow)" fill="paleturquoise" fill-opacity="0.3" d="m11.43267,33.85888c0,1.81002 0.66685,3.38188 1.95292,4.66796s2.88175,1.95292 4.73941,1.95292l22.10135,0c1.83385,0 3.42952,-0.64303 4.73941,-1.95292c1.30989,-1.30989 1.97674,-2.85793 1.97674,-4.66796c0,-1.81002 -0.64303,-3.38188 -1.97674,-4.66796c-1.30989,-1.28607 -2.88175,-1.95292 -4.73941,-1.95292l-3.31044,0c-0.23816,0 -0.35724,-0.11908 -0.35724,-0.35724l-0.16671,-1.16699c-0.23816,-2.23872 -1.19081,-4.1202 -2.83411,-5.59679s-3.59624,-2.2149 -5.83495,-2.2149c-2.23872,0 -4.19163,0.7383 -5.85877,2.23872c-1.66713,1.4766 -2.59596,3.35807 -2.8103,5.57298l-0.16671,1.00028c0,0.23816 -0.11908,0.35724 -0.38106,0.35724l-1.07172,0.16671c-1.71476,0.14289 -3.14373,0.85738 -4.31071,2.11963c-1.09554,1.26226 -1.69095,2.76268 -1.69095,4.50125l-0.00001,-0.00001l-0.00001,0z"/>
  <path id="cloudmoon" fill="linen" d="m8.26664,33.78325c0,2.67096 0.92379,4.98044 2.79146,6.88827s4.13698,2.95212 6.82802,3.07261c0.24099,0 0.36148,-0.12049 0.36148,-0.3414l0,-2.69105c0,-0.22091 -0.12049,-0.3414 -0.36148,-0.3414c-1.72709,-0.08033 -3.17302,-0.76313 -4.37797,-2.04841s-1.80742,-2.79146 -1.80742,-4.53863c0,-1.66684 0.56231,-3.11278 1.68692,-4.35789c1.12462,-1.22503 2.53039,-1.948 4.21731,-2.14882l1.06437,-0.06025c0.26107,0 0.40165,-0.12049 0.40165,-0.36148l0.14058,-1.08445c0.22091,-2.1689 1.12462,-3.9964 2.75129,-5.46242c1.62668,-1.46602 3.53451,-2.20907 5.72349,-2.20907c2.1689,0 4.07673,0.74305 5.72349,2.20907c1.64676,1.46602 2.57055,3.29352 2.81154,5.46242l0.16066,1.16478c0,0.22091 0.12049,0.3414 0.3414,0.3414l3.23327,0c1.78734,0 3.33368,0.64264 4.63904,1.92791c1.30536,1.28528 1.96808,2.81154 1.96808,4.55871c0,1.74717 -0.60247,3.25335 -1.80742,4.53863c-1.20495,1.28528 -2.67096,1.96808 -4.37797,2.04841c-0.26107,0 -0.40165,0.12049 -0.40165,0.3414l0,2.69105c0,0.22091 0.14058,0.3414 0.40165,0.3414c2.67096,-0.08033 4.94028,-1.10453 6.78786,-3.03245c1.86767,-1.92791 2.79146,-4.23739 2.79146,-6.92844c0,-1.72709 -0.44181,-3.33368 -1.30536,-4.83986c1.58651,-1.4861 2.61072,-3.25335 3.11278,-5.2616l0.26107,-1.3656c0.04016,-0.02008 0.06025,-0.06025 0.06025,-0.14058c0,-0.14058 -0.10041,-0.26107 -0.32132,-0.32132l-1.12462,-0.3414c-1.1447,-0.3414 -2.10865,-0.90371 -2.93203,-1.70701c-0.8033,-0.8033 -1.38569,-1.62668 -1.72709,-2.5103c-0.3414,-0.86354 -0.50206,-1.74717 -0.50206,-2.65088c-0.02008,-0.48198 0.04016,-1.0242 0.16066,-1.58651l0.28115,-1.16478c0.06025,-0.18074 -0.04016,-0.32132 -0.28115,-0.44181l-1.60659,-0.50206c-0.84346,-0.24099 -1.72709,-0.38157 -2.6308,-0.38157c-0.70288,0 -1.42585,0.08033 -2.1689,0.26107s-1.52626,0.44181 -2.34964,0.8033c-0.82338,0.36148 -1.60659,0.90371 -2.38981,1.60659c-0.76313,0.70288 -1.44593,1.50618 -2.00824,2.45006c-1.50618,-0.64264 -3.09269,-0.98404 -4.75953,-0.98404c-2.83162,0 -5.36201,0.88363 -7.55099,2.6308s-3.59475,3.9964 -4.21731,6.7477c-2.22915,0.52214 -4.05665,1.66684 -5.50258,3.47426s-2.18898,3.93616 -2.18898,6.24563l-0.00002,0.00001zm27.15143,-16.22659c0.62256,-1.1447 1.50618,-2.02832 2.61072,-2.6308c1.10453,-0.60247 2.2894,-0.90371 3.53451,-0.88363c0.22091,0 0.40165,0.02008 0.50206,0.04016l0,0.62256c0,1.96808 0.52214,3.79558 1.56643,5.52267c1.04429,1.72709 2.5103,3.03245 4.35789,3.91607c-0.38157,0.88363 -0.88363,1.58651 -1.50618,2.14882c-1.76725,-1.58651 -3.93616,-2.36973 -6.52679,-2.36973l-0.64264,0c-0.52214,-2.5103 -1.80742,-4.63904 -3.89599,-6.36613l-0.00001,0.00001z"/>

<path stroke-width="1" id="snow" fill="white" d="m40.17428,40.43804zm-19.23146,1.65579c0,0.47879 0.1596,0.87778 0.47879,1.19698c0.31919,0.33914 0.69824,0.49874 1.17703,0.49874c0.47879,0 0.87778,-0.1596 1.19698,-0.49874s0.47879,-0.73814 0.47879,-1.19698c0,-0.43889 -0.1596,-0.83789 -0.47879,-1.15708s-0.71819,-0.47879 -1.19698,-0.47879c-0.45884,0 -0.85784,0.1596 -1.17703,0.47879c-0.31919,0.31919 -0.47879,0.69824 -0.47879,1.15708zm0,7.26167c0,0.45884 0.1596,0.83789 0.47879,1.15708c0.31919,0.31919 0.71819,0.47879 1.15708,0.47879c0.47879,0 0.87778,-0.1596 1.19698,-0.45884c0.31919,-0.31919 0.47879,-0.69824 0.47879,-1.17703c0,-0.47879 -0.1596,-0.85784 -0.47879,-1.17703c-0.31919,-0.31919 -0.71819,-0.45884 -1.19698,-0.45884c-0.47879,0 -0.85784,0.1596 -1.17703,0.45884c-0.29924,0.29924 -0.45884,0.69824 -0.45884,1.17703zm6.38389,-3.39144c0,0.47879 0.1596,0.87778 0.47879,1.17703c0.31919,0.31919 0.71819,0.47879 1.15708,0.47879c0.47879,0 0.87778,-0.1596 1.21693,-0.47879s0.49874,-0.71819 0.49874,-1.17703c0,-0.47879 -0.1596,-0.87778 -0.49874,-1.21693s-0.73814,-0.51869 -1.21693,-0.51869c-0.43889,0 -0.81794,0.17955 -1.15708,0.51869s-0.47879,0.73814 -0.47879,1.21693zm0,-7.26167c0,0.47879 0.1596,0.85784 0.47879,1.15708c0.31919,0.31919 0.71819,0.47879 1.15708,0.47879c0.47879,0 0.89773,-0.1596 1.21693,-0.45884s0.49874,-0.69824 0.49874,-1.17703c0,-0.45884 -0.1596,-0.85784 -0.49874,-1.19698s-0.73814,-0.49874 -1.21693,-0.49874c-0.43889,0 -0.83789,0.1596 -1.15708,0.49874s-0.47879,0.73814 -0.47879,1.19698zm0,14.5832c0,0.43889 0.1596,0.81794 0.47879,1.13713c0.33914,0.33914 0.71819,0.49874 1.15708,0.49874c0.47879,0 0.87778,-0.1596 1.21693,-0.47879c0.33914,-0.31919 0.49874,-0.69824 0.49874,-1.17703c0,-0.47879 -0.1596,-0.87778 -0.49874,-1.21693c-0.33914,-0.33914 -0.73814,-0.51869 -1.21693,-0.51869c-0.43889,0 -0.81794,0.17955 -1.15708,0.51869c-0.29924,0.35909 -0.47879,0.77804 -0.47879,1.23688zm6.46369,-11.19176c0,0.47879 0.1596,0.87778 0.49874,1.19698s0.71819,0.49874 1.19698,0.49874s0.85784,-0.1596 1.17703,-0.49874s0.47879,-0.73814 0.47879,-1.19698c0,-0.43889 -0.1596,-0.83789 -0.47879,-1.15708s-0.69824,-0.47879 -1.17703,-0.47879s-0.85784,0.1596 -1.19698,0.47879s-0.49874,0.69824 -0.49874,1.15708zm0,7.26167c0,0.45884 0.1596,0.83789 0.47879,1.15708c0.31919,0.31919 0.71819,0.47879 1.19698,0.47879s0.85784,-0.1596 1.17703,-0.47879c0.31919,-0.31919 0.45884,-0.69824 0.45884,-1.17703c0,-0.47879 -0.1596,-0.85784 -0.45884,-1.17703c-0.31919,-0.31919 -0.69824,-0.45884 -1.17703,-0.45884s-0.87778,0.1596 -1.19698,0.45884c-0.31919,0.31919 -0.47879,0.71819 -0.47879,1.19698z"/>

</g>

  <path id="moonfill" stroke-width="0" fill="paleturquoise"  fill-opacity="0.5" d="m39.9567,27.27653zm-4.53863,-9.71987c0.62256,-1.1447 1.50618,-2.02832 2.61072,-2.6308c1.10453,-0.60247 2.2894,-0.90371 3.53451,-0.88363c0.22091,0 0.40165,0.02008 0.50206,0.04016l0,0.62256c0,1.96808 0.52214,3.79558 1.56643,5.52267c1.04429,1.72709 2.5103,3.03245 4.35789,3.91607c-0.38157,0.88363 -0.88363,1.58651 -1.50618,2.14882c-1.76725,-1.58651 -3.93616,-2.36973 -6.52679,-2.36973l-0.64264,0c-0.52214,-2.5103 -1.80742,-4.63904 -3.89599,-6.36613l-0.00001,0.00001z"/>


</svg>


