<svg width="60" height="60" xmlns="http://www.w3.org/2000/svg">
  <defs>
    <filter id="drop_shadow" filterUnits="objectBoundingBox" x="-50%" y="-50%" width="200%" height="200%">
      <feDropShadow dx="0.5" dy="0.5" stdDeviation="2" flood-color="black" flood-opacity="0.8" />
    </filter>
    <filter id="blur_shadow" filterUnits="objectBoundingBox" x="-50%" y="-50%" width="200%" height="200%">
      <feGaussianBlur in="SourceGraphic" stdDeviation="3" />
    </filter>
  </defs>

<path fill="black" filter="url(#blur_shadow)" d="m4.60999,35.52276c0,-2.81025 0.87973,-5.30282 2.63919,-7.50215c1.75946,-2.19933 3.98322,-3.61667 6.69573,-4.22759c0.75755,-3.34786 2.49257,-6.0848 5.1562,-8.23525s5.74268,-3.22568 9.1883,-3.22568c3.3723,0 6.37805,1.05079 9.01724,3.12793s4.34978,4.76521 5.13176,8.03976l0.80642,0c2.19933,0 4.22759,0.53761 6.0848,1.5884s3.34786,2.51701 4.42309,4.37421c1.07523,1.85721 1.63728,3.86104 1.63728,6.06036c0,2.15045 -0.51318,4.15428 -1.53953,5.98705s-2.4437,3.29899 -4.22759,4.39865c-1.7839,1.09966 -3.76329,1.68615 -5.88931,1.75946l-27.39383,0c-3.27455,-0.14662 -6.03593,-1.39291 -8.30856,-3.73885c-2.27264,-2.32151 -3.42117,-5.13176 -3.42117,-8.40631l-0.00002,0.00001zm4.17872,0c0,2.12602 0.73311,3.95879 2.19933,5.52275s3.25012,2.39482 5.35169,2.51701l27.34495,0c2.10158,-0.09775 3.88548,-0.95304 5.35169,-2.51701c1.49065,-1.56397 2.22376,-3.42117 2.22376,-5.52275c0,-2.15045 -0.80642,-3.98322 -2.39482,-5.54719c-1.5884,-1.56397 -3.47005,-2.34595 -5.66937,-2.34595l-3.90991,0c-0.26881,0 -0.41543,-0.14662 -0.41543,-0.43987l-0.17106,-1.39291c-0.26881,-2.63919 -1.41734,-4.86295 -3.42117,-6.64685c-2.00383,-1.7839 -4.32534,-2.68807 -6.98897,-2.68807c-2.66363,0 -5.00958,0.90417 -6.96453,2.68807c-1.97939,1.7839 -3.10349,4.00766 -3.34786,6.64685l-0.1955,1.39291c0,0.29324 -0.17106,0.43987 -0.48874,0.43987l-1.29516,0c-2.0527,0.24437 -3.76329,1.1241 -5.13176,2.61475s-2.07714,3.25012 -2.07714,5.27838l0,0.00001z"/>

<g stroke="midnightblue" stroke-opacity="0.4">
<path stroke-width="2.5" d="m4.60999,35.52276c0,-2.81025 0.87973,-5.30282 2.63919,-7.50215c1.75946,-2.19933 3.98322,-3.61667 6.69573,-4.22759c0.75755,-3.34786 2.49257,-6.0848 5.1562,-8.23525s5.74268,-3.22568 9.1883,-3.22568c3.3723,0 6.37805,1.05079 9.01724,3.12793s4.34978,4.76521 5.13176,8.03976l0.80642,0c2.19933,0 4.22759,0.53761 6.0848,1.5884s3.34786,2.51701 4.42309,4.37421c1.07523,1.85721 1.63728,3.86104 1.63728,6.06036c0,2.15045 -0.51318,4.15428 -1.53953,5.98705s-2.4437,3.29899 -4.22759,4.39865c-1.7839,1.09966 -3.76329,1.68615 -5.88931,1.75946l-27.39383,0c-3.27455,-0.14662 -6.03593,-1.39291 -8.30856,-3.73885c-2.27264,-2.32151 -3.42117,-5.13176 -3.42117,-8.40631l-0.00002,0.00001zm4.17872,0c0,2.12602 0.73311,3.95879 2.19933,5.52275s3.25012,2.39482 5.35169,2.51701l27.34495,0c2.10158,-0.09775 3.88548,-0.95304 5.35169,-2.51701c1.49065,-1.56397 2.22376,-3.42117 2.22376,-5.52275c0,-2.15045 -0.80642,-3.98322 -2.39482,-5.54719c-1.5884,-1.56397 -3.47005,-2.34595 -5.66937,-2.34595l-3.90991,0c-0.26881,0 -0.41543,-0.14662 -0.41543,-0.43987l-0.17106,-1.39291c-0.26881,-2.63919 -1.41734,-4.86295 -3.42117,-6.64685c-2.00383,-1.7839 -4.32534,-2.68807 -6.98897,-2.68807c-2.66363,0 -5.00958,0.90417 -6.96453,2.68807c-1.97939,1.7839 -3.10349,4.00766 -3.34786,6.64685l-0.1955,1.39291c0,0.29324 -0.17106,0.43987 -0.48874,0.43987l-1.29516,0c-2.0527,0.24437 -3.76329,1.1241 -5.13176,2.61475s-2.07714,3.25012 -2.07714,5.27838l0,0.00001z" fill="linen"/>
<path fill="paleturquoise" fill-opacity="0.4" d="m9.05757,35.50355c0,2.14134 0.78891,4.00093 2.3104,5.52242s3.40925,2.3104 5.60695,2.3104l26.14696,0c2.16953,0 4.05729,-0.76074 5.60695,-2.3104c1.54966,-1.54966 2.33858,-3.38107 2.33858,-5.52242c0,-2.14134 -0.76074,-4.00093 -2.33858,-5.52242c-1.54966,-1.52148 -3.40925,-2.3104 -5.60695,-2.3104l-3.91641,0c-0.28175,0 -0.42263,-0.14088 -0.42263,-0.42263l-0.19723,-1.3806c-0.28175,-2.64851 -1.40878,-4.87439 -3.35289,-6.62127s-4.25452,-2.62033 -6.90302,-2.62033c-2.64851,0 -4.9589,0.87344 -6.9312,2.64851c-1.97229,1.74689 -3.07114,3.97276 -3.32472,6.5931l-0.19723,1.18338c0,0.28175 -0.14088,0.42263 -0.45081,0.42263l-1.2679,0.19723c-2.02864,0.16905 -3.71918,1.01432 -5.09978,2.50762c-1.29608,1.49331 -2.00047,3.26838 -2.00047,5.32519l-0.00001,-0.00001l-0.00001,0z"/>
  </g>
</svg>
