<svg width="60" height="60" xmlns="http://www.w3.org/2000/svg">

  <defs>
    <filter id="drop_shadow" filterUnits="objectBoundingBox" x="-50%" y="-50%" width="200%" height="200%">
      <feDropShadow dx="0.5" dy="0.5" stdDeviation="2" flood-color="black" flood-opacity="0.8" />
    </filter>
    <filter id="blur_shadow" filterUnits="objectBoundingBox" x="-50%" y="-50%" width="200%" height="200%">
      <feGaussianBlur in="SourceGraphic" stdDeviation="3" />
    </filter>
    <filter id="shadow">
      <feDropShadow dx="0.3" dy="0.6" stdDeviation="0.6" flood-color="black"/>
    </filter>
  </defs>

<g fill="black" style="filter:url(#blur_shadow)">
  <path d="m8.2149,34.30498l0,-0.74287c0.08031,-2.2487 0.84326,-4.23638 2.26877,-5.96306c1.42551,-1.72668 3.2325,-2.85102 5.38081,-3.35297c0.62241,-2.73056 2.04792,-4.97925 4.23638,-6.74609s4.71824,-2.63017 7.54919,-2.63017c1.48575,0 3.07188,0.30116 4.77848,0.92357c0.56217,-0.92357 1.22474,-1.72668 1.98769,-2.40932c0.76295,-0.68264 1.54598,-1.20466 2.36916,-1.58613c0.82318,-0.3614 1.60621,-0.64248 2.38924,-0.80311c0.76295,-0.16062 1.5259,-0.24093 2.26877,-0.24093c0.78303,0 1.60621,0.08031 2.48963,0.26101l1.60621,0.50194c0.24093,0.12047 0.34132,0.26101 0.28109,0.46179l-0.24093,1.24481c-0.14054,0.58225 -0.20078,1.14443 -0.20078,1.68652c0,0.62241 0.10039,1.24481 0.30116,1.90738c0.20078,0.64248 0.48186,1.28497 0.88342,1.90738s0.92357,1.18458 1.60621,1.7066c0.68264,0.52202 1.44559,0.90349 2.32901,1.1645l1.24481,0.34132c0.20078,0.06023 0.30116,0.16062 0.30116,0.32124c0,0.08031 0,0.12047 -0.02008,0.14054l-0.38148,1.36528c-0.48186,2.02784 -1.50582,3.79467 -3.03172,5.26034c0.88342,1.5259 1.32512,3.17227 1.32512,4.91902c0,2.6904 -0.92357,4.99933 -2.79079,6.92678c-1.86722,1.94753 -4.13599,2.95141 -6.80632,3.03172c-0.24093,0 -0.38148,-0.12047 -0.38148,-0.38148l0,-2.73056c0,-0.24093 0.12047,-0.3614 0.38148,-0.3614c1.74675,-0.12047 3.21242,-0.82318 4.41708,-2.068c1.20466,-1.24481 1.80699,-2.73056 1.80699,-4.43716c0,-1.78691 -0.64248,-3.33289 -1.94753,-4.59778s-2.85102,-1.90738 -4.67809,-1.90738l-3.25258,0c-0.22085,0 -0.34132,-0.12047 -0.34132,-0.3614l-0.14054,-1.1645c-0.22085,-2.14831 -1.1645,-3.97537 -2.81087,-5.44104c-1.64637,-1.46567 -3.55374,-2.20854 -5.7422,-2.20854c-2.18846,0 -4.11592,0.74287 -5.72213,2.20854c-1.62629,1.46567 -2.54986,3.29273 -2.75064,5.46112l-0.14054,1.04404c0,0.22085 -0.14054,0.34132 -0.40155,0.34132l-1.06411,0.14054c-1.68652,0.20078 -3.09196,0.92357 -4.2163,2.14831c-1.14443,1.24481 -1.7066,2.6904 -1.7066,4.35685l0,0.04016l0.02008,0.02008l0.04016,0c0,1.04404 0.24093,2.04792 0.72279,2.97149c0.48186,0.92357 1.12435,1.68652 1.94753,2.28885l0.02008,0l0.02008,0.02008l0.02008,0.02008c0.44171,0.32124 0.84326,0.5421 1.24481,0.70272c0.68264,0.30116 1.38536,0.46179 2.14831,0.48186c0.22085,0 0.34132,0.12047 0.34132,0.34132l0,2.6904c0,0.24093 -0.12047,0.3614 -0.34132,0.3614c-1.86722,-0.08031 -3.57382,-0.64248 -5.1198,-1.64637l-0.02008,0c-1.32512,-0.86334 -2.38924,-1.98769 -3.19234,-3.39312c-0.80311,-1.40543 -1.22474,-2.91126 -1.28497,-4.53755zm11.0427,13.99411c0,-0.06023 0.02008,-0.14054 0.04016,-0.26101s0.04016,-0.1807 0.04016,-0.24093l0.1807,-1.18458c0.14054,-0.48186 0.40155,-0.82318 0.82318,-1.06411s0.86334,-0.28109 1.36528,-0.16062c0.46179,0.14054 0.78303,0.42163 1.02396,0.82318c0.22085,0.42163 0.26101,0.84326 0.14054,1.26489l-0.28109,1.20466c-0.20078,0.86334 -0.70272,1.30505 -1.5259,1.30505c-0.06023,0 -0.16062,0 -0.30116,-0.02008c-0.14054,-0.02008 -0.22085,-0.02008 -0.26101,-0.02008c-0.42163,-0.12047 -0.72279,-0.34132 -0.92357,-0.66256c-0.22085,-0.32124 -0.32124,-0.64248 -0.32124,-0.9838zm1.48575,-5.90283c0,-0.48186 0.16062,-0.86334 0.46179,-1.18458s0.70272,-0.46179 1.18458,-0.46179s0.86334,0.16062 1.18458,0.46179s0.46179,0.70272 0.46179,1.18458c0,0.46179 -0.16062,0.86334 -0.46179,1.1645s-0.70272,0.46179 -1.18458,0.46179c-0.46179,0 -0.84326,-0.16062 -1.14443,-0.50194c-0.32124,-0.30116 -0.50194,-0.68264 -0.50194,-1.12435zm3.29273,12.04658c0,-0.08031 0.02008,-0.22085 0.08031,-0.44171l0.26101,-1.18458c0.14054,-0.46179 0.42163,-0.80311 0.82318,-1.02396c0.42163,-0.24093 0.84326,-0.28109 1.26489,-0.14054c0.46179,0.08031 0.82318,0.34132 1.06411,0.74287c0.24093,0.40155 0.30116,0.86334 0.16062,1.36528l-0.26101,1.18458c-0.20078,0.82318 -0.74287,1.22474 -1.60621,1.22474c-0.14054,0 -0.32124,-0.02008 -0.48186,-0.06023c-0.44171,-0.12047 -0.76295,-0.34132 -0.9838,-0.66256c-0.20078,-0.34132 -0.32124,-0.66256 -0.32124,-1.00388zm1.58613,-5.84259c0,-0.46179 0.16062,-0.84326 0.46179,-1.1645c0.32124,-0.32124 0.70272,-0.46179 1.18458,-0.46179s0.86334,0.16062 1.18458,0.46179c0.32124,0.32124 0.46179,0.70272 0.46179,1.1645c0,0.48186 -0.16062,0.86334 -0.46179,1.18458c-0.32124,0.32124 -0.70272,0.46179 -1.18458,0.46179c-0.46179,0 -0.84326,-0.16062 -1.1645,-0.48186c-0.32124,-0.32124 -0.48186,-0.70272 -0.48186,-1.1645zm1.24481,-4.55762c0,-0.1807 0.02008,-0.3614 0.06023,-0.5421l0.46179,-1.80699c0.14054,-0.46179 0.42163,-0.82318 0.82318,-1.06411c0.42163,-0.24093 0.84326,-0.30116 1.28497,-0.16062c0.48186,0.14054 0.82318,0.40155 1.06411,0.80311c0.24093,0.40155 0.28109,0.82318 0.14054,1.26489l-0.52202,1.80699c-0.16062,0.56217 -0.44171,0.92357 -0.82318,1.12435c-0.38148,0.20078 -0.82318,0.24093 -1.28497,0.12047c-0.40155,-0.08031 -0.70272,-0.28109 -0.90349,-0.60233c-0.24093,-0.32124 -0.32124,-0.64248 -0.30116,-0.94365zm5.54143,4.29661c0,-0.06023 0,-0.16062 0.02008,-0.26101s0.02008,-0.1807 0.02008,-0.22085l0.1807,-1.18458c0.14054,-0.48186 0.40155,-0.82318 0.82318,-1.06411s0.86334,-0.28109 1.36528,-0.16062c0.46179,0.14054 0.80311,0.42163 1.02396,0.82318c0.24093,0.42163 0.28109,0.84326 0.14054,1.26489l-0.28109,1.20466c-0.20078,0.88342 -0.70272,1.32512 -1.5259,1.32512c-0.06023,0 -0.16062,-0.02008 -0.28109,-0.04016c-0.12047,-0.02008 -0.22085,-0.04016 -0.28109,-0.04016c-0.40155,-0.12047 -0.70272,-0.34132 -0.90349,-0.66256s-0.30116,-0.64248 -0.30116,-0.9838zm1.48575,-5.90283c0,-0.48186 0.16062,-0.86334 0.46179,-1.18458s0.70272,-0.46179 1.18458,-0.46179c0.48186,0 0.86334,0.16062 1.18458,0.46179c0.32124,0.32124 0.46179,0.70272 0.46179,1.18458c0,0.46179 -0.16062,0.84326 -0.46179,1.1645c-0.32124,0.32124 -0.70272,0.46179 -1.18458,0.46179c-0.48186,0 -0.86334,-0.16062 -1.1645,-0.48186c-0.30116,-0.30116 -0.48186,-0.68264 -0.48186,-1.14443zm1.42551,-24.81596c2.08807,1.7066 3.4132,3.81475 3.97537,6.34453l0.66256,0c2.46955,0 4.61786,0.78303 6.465,2.36916c0.68264,-0.62241 1.18458,-1.30505 1.5259,-2.08807c-1.24481,-0.60233 -2.30893,-1.40543 -3.2325,-2.42939c-0.90349,-1.02396 -1.58613,-2.12823 -2.04792,-3.33289c-0.46179,-1.20466 -0.68264,-2.44947 -0.68264,-3.73444l0,-0.60233l-0.44171,0c-1.24481,0 -2.42939,0.30116 -3.55374,0.90349c-1.12435,0.60233 -2.00776,1.46567 -2.67033,2.56994z"/>
</g>

<g stroke-width="2.5" stroke-opacity="0.4" stroke="midnightblue">

  <path id="moonfillback" stroke-width="0.1" fill="paleturquoise"  fill-opacity="0.2" style="filter:url(#blur_shadow)" d="m39.9567,27.27653zm-4.53863,-9.71987c0.62256,-1.1447 1.50618,-2.02832 2.61072,-2.6308c1.10453,-0.60247 2.2894,-0.90371 3.53451,-0.88363c0.22091,0 0.40165,0.02008 0.50206,0.04016l0,0.62256c0,1.96808 0.52214,3.79558 1.56643,5.52267c1.04429,1.72709 2.5103,3.03245 4.35789,3.91607c-0.38157,0.88363 -0.88363,1.58651 -1.50618,2.14882c-1.76725,-1.58651 -3.93616,-2.36973 -6.52679,-2.36973l-0.64264,0c-0.52214,-2.5103 -1.80742,-4.63904 -3.89599,-6.36613l-0.00001,0.00001z"/>

  <path stroke-width="0" filter="url(#blur_shadow)" fill="paleturquoise" fill-opacity="0.3" d="m11.43267,33.85888c0,1.81002 0.66685,3.38188 1.95292,4.66796s2.88175,1.95292 4.73941,1.95292l22.10135,0c1.83385,0 3.42952,-0.64303 4.73941,-1.95292c1.30989,-1.30989 1.97674,-2.85793 1.97674,-4.66796c0,-1.81002 -0.64303,-3.38188 -1.97674,-4.66796c-1.30989,-1.28607 -2.88175,-1.95292 -4.73941,-1.95292l-3.31044,0c-0.23816,0 -0.35724,-0.11908 -0.35724,-0.35724l-0.16671,-1.16699c-0.23816,-2.23872 -1.19081,-4.1202 -2.83411,-5.59679s-3.59624,-2.2149 -5.83495,-2.2149c-2.23872,0 -4.19163,0.7383 -5.85877,2.23872c-1.66713,1.4766 -2.59596,3.35807 -2.8103,5.57298l-0.16671,1.00028c0,0.23816 -0.11908,0.35724 -0.38106,0.35724l-1.07172,0.16671c-1.71476,0.14289 -3.14373,0.85738 -4.31071,2.11963c-1.09554,1.26226 -1.69095,2.76268 -1.69095,4.50125l-0.00001,-0.00001l-0.00001,0z"/>
  <path id="cloudmoon" fill="linen" d="m8.26664,33.78325c0,2.67096 0.92379,4.98044 2.79146,6.88827s4.13698,2.95212 6.82802,3.07261c0.24099,0 0.36148,-0.12049 0.36148,-0.3414l0,-2.69105c0,-0.22091 -0.12049,-0.3414 -0.36148,-0.3414c-1.72709,-0.08033 -3.17302,-0.76313 -4.37797,-2.04841s-1.80742,-2.79146 -1.80742,-4.53863c0,-1.66684 0.56231,-3.11278 1.68692,-4.35789c1.12462,-1.22503 2.53039,-1.948 4.21731,-2.14882l1.06437,-0.06025c0.26107,0 0.40165,-0.12049 0.40165,-0.36148l0.14058,-1.08445c0.22091,-2.1689 1.12462,-3.9964 2.75129,-5.46242c1.62668,-1.46602 3.53451,-2.20907 5.72349,-2.20907c2.1689,0 4.07673,0.74305 5.72349,2.20907c1.64676,1.46602 2.57055,3.29352 2.81154,5.46242l0.16066,1.16478c0,0.22091 0.12049,0.3414 0.3414,0.3414l3.23327,0c1.78734,0 3.33368,0.64264 4.63904,1.92791c1.30536,1.28528 1.96808,2.81154 1.96808,4.55871c0,1.74717 -0.60247,3.25335 -1.80742,4.53863c-1.20495,1.28528 -2.67096,1.96808 -4.37797,2.04841c-0.26107,0 -0.40165,0.12049 -0.40165,0.3414l0,2.69105c0,0.22091 0.14058,0.3414 0.40165,0.3414c2.67096,-0.08033 4.94028,-1.10453 6.78786,-3.03245c1.86767,-1.92791 2.79146,-4.23739 2.79146,-6.92844c0,-1.72709 -0.44181,-3.33368 -1.30536,-4.83986c1.58651,-1.4861 2.61072,-3.25335 3.11278,-5.2616l0.26107,-1.3656c0.04016,-0.02008 0.06025,-0.06025 0.06025,-0.14058c0,-0.14058 -0.10041,-0.26107 -0.32132,-0.32132l-1.12462,-0.3414c-1.1447,-0.3414 -2.10865,-0.90371 -2.93203,-1.70701c-0.8033,-0.8033 -1.38569,-1.62668 -1.72709,-2.5103c-0.3414,-0.86354 -0.50206,-1.74717 -0.50206,-2.65088c-0.02008,-0.48198 0.04016,-1.0242 0.16066,-1.58651l0.28115,-1.16478c0.06025,-0.18074 -0.04016,-0.32132 -0.28115,-0.44181l-1.60659,-0.50206c-0.84346,-0.24099 -1.72709,-0.38157 -2.6308,-0.38157c-0.70288,0 -1.42585,0.08033 -2.1689,0.26107s-1.52626,0.44181 -2.34964,0.8033c-0.82338,0.36148 -1.60659,0.90371 -2.38981,1.60659c-0.76313,0.70288 -1.44593,1.50618 -2.00824,2.45006c-1.50618,-0.64264 -3.09269,-0.98404 -4.75953,-0.98404c-2.83162,0 -5.36201,0.88363 -7.55099,2.6308s-3.59475,3.9964 -4.21731,6.7477c-2.22915,0.52214 -4.05665,1.66684 -5.50258,3.47426s-2.18898,3.93616 -2.18898,6.24563l-0.00002,0.00001zm27.15143,-16.22659c0.62256,-1.1447 1.50618,-2.02832 2.61072,-2.6308c1.10453,-0.60247 2.2894,-0.90371 3.53451,-0.88363c0.22091,0 0.40165,0.02008 0.50206,0.04016l0,0.62256c0,1.96808 0.52214,3.79558 1.56643,5.52267c1.04429,1.72709 2.5103,3.03245 4.35789,3.91607c-0.38157,0.88363 -0.88363,1.58651 -1.50618,2.14882c-1.76725,-1.58651 -3.93616,-2.36973 -6.52679,-2.36973l-0.64264,0c-0.52214,-2.5103 -1.80742,-4.63904 -3.89599,-6.36613l-0.00001,0.00001z"/>

<path stroke-width="1" id="sleet" fill="lightgray" d="m19.2576,48.29909c0,-0.06023 0.02008,-0.14054 0.04016,-0.26101s0.04016,-0.1807 0.04016,-0.24093l0.1807,-1.18458c0.14054,-0.48186 0.40155,-0.82318 0.82318,-1.06411s0.86334,-0.28109 1.36528,-0.16062c0.46179,0.14054 0.78303,0.42163 1.02396,0.82318c0.22085,0.42163 0.26101,0.84326 0.14054,1.26489l-0.28109,1.20466c-0.20078,0.86334 -0.70272,1.30505 -1.5259,1.30505c-0.06023,0 -0.16062,0 -0.30116,-0.02008c-0.14054,-0.02008 -0.22085,-0.02008 -0.26101,-0.02008c-0.42163,-0.12047 -0.72279,-0.34132 -0.92357,-0.66256c-0.22085,-0.32124 -0.32124,-0.64248 -0.32124,-0.9838l-0.00001,-0.00001zm1.48575,-5.90283c0,-0.48186 0.16062,-0.86334 0.46179,-1.18458s0.70272,-0.46179 1.18458,-0.46179s0.86334,0.16062 1.18458,0.46179s0.46179,0.70272 0.46179,1.18458c0,0.46179 -0.16062,0.86334 -0.46179,1.1645s-0.70272,0.46179 -1.18458,0.46179c-0.46179,0 -0.84326,-0.16062 -1.14443,-0.50194c-0.32124,-0.30116 -0.50194,-0.68264 -0.50194,-1.12435zm3.29273,12.04658c0,-0.08031 0.02008,-0.22085 0.08031,-0.44171l0.26101,-1.18458c0.14054,-0.46179 0.42163,-0.80311 0.82318,-1.02396c0.42163,-0.24093 0.84326,-0.28109 1.26489,-0.14054c0.46179,0.08031 0.82318,0.34132 1.06411,0.74287c0.24093,0.40155 0.30116,0.86334 0.16062,1.36528l-0.26101,1.18458c-0.20078,0.82318 -0.74287,1.22474 -1.60621,1.22474c-0.14054,0 -0.32124,-0.02008 -0.48186,-0.06023c-0.44171,-0.12047 -0.76295,-0.34132 -0.9838,-0.66256c-0.20078,-0.34132 -0.32124,-0.66256 -0.32124,-1.00388l0,-0.00001zm1.58613,-5.84259c0,-0.46179 0.16062,-0.84326 0.46179,-1.1645c0.32124,-0.32124 0.70272,-0.46179 1.18458,-0.46179s0.86334,0.16062 1.18458,0.46179c0.32124,0.32124 0.46179,0.70272 0.46179,1.1645c0,0.48186 -0.16062,0.86334 -0.46179,1.18458c-0.32124,0.32124 -0.70272,0.46179 -1.18458,0.46179c-0.46179,0 -0.84326,-0.16062 -1.1645,-0.48186c-0.32124,-0.32124 -0.48186,-0.70272 -0.48186,-1.1645l-0.00001,-0.00001zm1.24481,-4.55762c0,-0.1807 0.02008,-0.3614 0.06023,-0.5421l0.46179,-1.80699c0.14054,-0.46179 0.42163,-0.82318 0.82318,-1.06411c0.42163,-0.24093 0.84326,-0.30116 1.28497,-0.16062c0.48186,0.14054 0.82318,0.40155 1.06411,0.80311c0.24093,0.40155 0.28109,0.82318 0.14054,1.26489l-0.52202,1.80699c-0.16062,0.56217 -0.44171,0.92357 -0.82318,1.12435c-0.38148,0.20078 -0.82318,0.24093 -1.28497,0.12047c-0.40155,-0.08031 -0.70272,-0.28109 -0.90349,-0.60233c-0.24093,-0.32124 -0.32124,-0.64248 -0.30116,-0.94365l0,-0.00001zm5.54143,4.29661c0,-0.06023 0,-0.16062 0.02008,-0.26101s0.02008,-0.1807 0.02008,-0.22085l0.1807,-1.18458c0.14054,-0.48186 0.40155,-0.82318 0.82318,-1.06411s0.86334,-0.28109 1.36528,-0.16062c0.46179,0.14054 0.80311,0.42163 1.02396,0.82318c0.24093,0.42163 0.28109,0.84326 0.14054,1.26489l-0.28109,1.20466c-0.20078,0.88342 -0.70272,1.32512 -1.5259,1.32512c-0.06023,0 -0.16062,-0.02008 -0.28109,-0.04016c-0.12047,-0.02008 -0.22085,-0.04016 -0.28109,-0.04016c-0.40155,-0.12047 -0.70272,-0.34132 -0.90349,-0.66256s-0.30116,-0.64248 -0.30116,-0.9838zm1.48575,-5.90283c0,-0.48186 0.16062,-0.86334 0.46179,-1.18458s0.70272,-0.46179 1.18458,-0.46179c0.48186,0 0.86334,0.16062 1.18458,0.46179c0.32124,0.32124 0.46179,0.70272 0.46179,1.18458c0,0.46179 -0.16062,0.84326 -0.46179,1.1645c-0.32124,0.32124 -0.70272,0.46179 -1.18458,0.46179c-0.48186,0 -0.86334,-0.16062 -1.1645,-0.48186c-0.30116,-0.30116 -0.48186,-0.68264 -0.48186,-1.14443l-0.00001,0z"/>

</g>

  <path id="moonfill" stroke-width="0" fill="paleturquoise"  fill-opacity="0.5" d="m39.9567,27.27653zm-4.53863,-9.71987c0.62256,-1.1447 1.50618,-2.02832 2.61072,-2.6308c1.10453,-0.60247 2.2894,-0.90371 3.53451,-0.88363c0.22091,0 0.40165,0.02008 0.50206,0.04016l0,0.62256c0,1.96808 0.52214,3.79558 1.56643,5.52267c1.04429,1.72709 2.5103,3.03245 4.35789,3.91607c-0.38157,0.88363 -0.88363,1.58651 -1.50618,2.14882c-1.76725,-1.58651 -3.93616,-2.36973 -6.52679,-2.36973l-0.64264,0c-0.52214,-2.5103 -1.80742,-4.63904 -3.89599,-6.36613l-0.00001,0.00001z"/>


</svg>


