<svg width="60" height="60" xmlns="http://www.w3.org/2000/svg">


  <defs>
    <filter id="drop_shadow" filterUnits="objectBoundingBox" x="-50%" y="-50%" width="200%" height="200%">
      <feDropShadow dx="0.5" dy="0.5" stdDeviation="2" flood-color="black" flood-opacity="0.8" />
    </filter>
    <filter id="blur_shadow" filterUnits="objectBoundingBox" x="-50%" y="-50%" width="200%" height="200%">
      <feGaussianBlur in="SourceGraphic" stdDeviation="3" />
    </filter>
  </defs>

<g>

  <circle fill-opacity="0.3" r="13.68769" cy="25.06283" cx="35.18713" fill="lightcyan" style="filter:url(#blur_shadow);"/>
   <g stroke="midnightblue" stroke-opacity="0.4" stroke-width="2.5" style="filter:url(#drop_shadow);">
  <path fill="paleturquoise" fill-opacity="0.3"  stroke-width="1" style="filter:url(#blur_shadow);" d="m14.81614,39.98108c0,1.17232 0.45088,2.1904 1.32047,3.02338s1.9485,1.26489 3.20455,1.26489l14.94381,0c1.23996,0 2.31886,-0.41648 3.20455,-1.26489c0.88568,-0.8484 1.33657,-1.85104 1.33657,-3.02338c0,-1.17232 -0.43478,-2.1904 -1.33657,-3.02338c-0.88568,-0.83297 -1.9485,-1.26489 -3.20455,-1.26489l-2.23835,0c-0.16103,0 -0.24155,-0.07712 -0.24155,-0.23137l-0.11272,-0.75584c-0.16103,-1.45 -0.80516,-2.66859 -1.91629,-3.62497s-2.4316,-1.43456 -3.9453,-1.43456c-1.51371,0 -2.83417,0.47819 -3.9614,1.45c-1.12722,0.95637 -1.75526,2.17498 -1.90018,3.60954l-0.11272,0.64787c0,0.15425 -0.08052,0.23137 -0.25766,0.23137l-0.72465,0.10798c-1.15943,0.09255 -2.12562,0.55531 -2.91469,1.37286c-0.74076,0.81754 -1.14333,1.78934 -1.14333,2.9154l-0.00001,-0.00001z"/>
  <path fill="linen" d="m9.8075,40.54266c0,-1.93241 0.5626,-3.62022 1.66334,-5.11233c1.10074,-1.49212 2.59286,-2.51948 4.42743,-3.10654c0.78275,-2.66624 2.39717,-4.6965 4.86773,-6.09077l0,-0.85613c0,-3.5713 1.1252,-6.7023 3.37561,-9.41746s5.11233,-4.40297 8.56133,-5.03895c0.88059,-0.14677 1.76119,-0.22015 2.64178,-0.22015l0.07338,0c0.51368,0 1.07628,0.04892 1.71227,0.1223c0.63598,0.04892 1.22305,0.14677 1.78565,0.26907l2.22594,0.68491c0.31799,0.17123 0.4403,0.39137 0.39137,0.63598l-0.31799,1.71227c-0.17123,0.80721 -0.26907,1.58996 -0.26907,2.37271c0,0.85613 0.1223,1.73673 0.39137,2.61732c0.26907,0.90505 0.66045,1.76119 1.22305,2.64178s1.27197,1.66334 2.22594,2.37271c0.92952,0.70937 2.03026,1.24751 3.2533,1.61442l1.73673,0.51368c0.26907,0.07338 0.41584,0.19569 0.41584,0.4403c0,0.09784 0,0.14677 -0.02446,0.17123l-0.4403,1.66334c-0.14677,0.58706 -0.31799,1.19859 -0.53814,1.78565c-0.36691,1.07628 -0.92952,2.17702 -1.71227,3.35115c0,-0.02446 0,-0.02446 -0.02446,-0.02446c-1.07628,1.54104 -2.39717,2.83747 -4.01159,3.86483c0.34245,0.83167 0.51368,1.83457 0.51368,3.03316c0,2.42163 -0.85613,4.47635 -2.54394,6.18862c-1.6878,1.71227 -3.71806,2.5684 -6.09077,2.5684l-16.75574,0c-2.37271,0 -4.42743,-0.85613 -6.16415,-2.59286c-1.71227,-1.73673 -2.59286,-3.79144 -2.59286,-6.16415zm4.84326,0c0,1.10074 0.36691,2.03026 1.1252,2.81301s1.6878,1.14966 2.78855,1.14966l16.75574,0c1.05182,0 1.95687,-0.39137 2.73962,-1.17412c0.78275,-0.78275 1.14966,-1.71227 1.14966,-2.78855c0,-1.05182 -0.39137,-1.95687 -1.14966,-2.73962s-1.6878,-1.14966 -2.73962,-1.14966l-3.17992,0c-0.26907,0 -0.46476,-0.17123 -0.61152,-0.5626l-0.19569,-1.5655c-0.17123,-1.41873 -0.78275,-2.59286 -1.83457,-3.52237s-2.27487,-1.41873 -3.6936,-1.41873c-1.39427,0 -2.59286,0.46476 -3.62022,1.41873c-1.02736,0.95398 -1.61442,2.1281 -1.78565,3.52237l-0.24461,1.34535c0,0.36691 -0.14677,0.53814 -0.46476,0.53814l-1.54104,0.19569c-1.0029,0.09784 -1.83457,0.51368 -2.49502,1.24751c-0.66045,0.78275 -1.0029,1.66334 -1.0029,2.6907zm10.83619,-15.655l0.29353,0c2.27487,0 4.28066,0.63598 6.09077,1.90795c1.78565,1.27197 3.05762,2.98423 3.76698,5.1368c1.88349,0 3.54684,0.58706 4.96557,1.76119c1.6878,-1.05182 2.93531,-2.49502 3.74252,-4.28066c-2.54394,-1.27197 -4.52527,-3.10654 -5.94401,-5.50371s-2.15256,-4.91665 -2.15256,-7.60735l0,-0.85613c-0.07338,0 -0.17123,0 -0.29353,0c-0.1223,0 -0.22015,0 -0.29353,0c-1.49212,0 -2.93531,0.31799 -4.32959,0.95398c-1.39427,0.63598 -2.5684,1.5655 -3.52237,2.73962l-0.07338,-0.04892c-1.34535,1.66334 -2.07918,3.59576 -2.25041,5.79724z"/>
</g>
</g>

</svg>
