<svg width="60" height="60" xmlns="http://www.w3.org/2000/svg">

  <defs>
    <filter id="drop_shadow" filterUnits="objectBoundingBox" x="-50%" y="-50%" width="200%" height="200%">
      <feDropShadow dx="0.5" dy="0.5" stdDeviation="2" flood-color="black" flood-opacity="0.8" />
    </filter>
    <filter id="blur_shadow" filterUnits="objectBoundingBox" x="-50%" y="-50%" width="200%" height="200%">
      <feGaussianBlur in="SourceGraphic" stdDeviation="3" />
    </filter>
  </defs>

<g>
   <circle r="10" cx="37.84955" cy="26.74971" fill="palegoldenrod" fill-opacity="0.2" style="filter:url(#blur_shadow);"/>
   <g stroke="midnightblue" stroke-opacity="0.4" style="filter:url(#drop_shadow);">
  <path stroke-width="1" fill="lightgrey" d="m1.45,45.462393c0,0.476082 0.158694,0.892655 0.476082,1.210043c0.872818,0.357062 1.448084,0.535593 1.745636,0.535593l15.631373,0c0.476082,0 0.872818,-0.178531 1.190206,-0.515756c0.337225,-0.337225 0.495919,-0.753797 0.495919,-1.210043c0,-0.456246 -0.158694,-0.852981 -0.495919,-1.170369c-0.337225,-0.317388 -0.73396,-0.476082 -1.190206,-0.476082l-15.631373,0c-0.515756,0 -1.031512,0.158694 -1.507594,0.476082c-0.476082,0.317388 -0.714124,0.714124 -0.714124,1.150533l0,-0.000001zm2.757311,-5.95103c0,0.476082 0.158694,0.852981 0.495919,1.170369c0.297552,0.337225 0.67445,0.515756 1.150533,0.515756l18.646562,0c0.476082,0 0.872818,-0.158694 1.210043,-0.495919c0.337225,-0.337225 0.495919,-0.73396 0.495919,-1.190206c0,-0.476082 -0.158694,-0.872818 -0.495919,-1.210043c-0.337225,-0.337225 -0.73396,-0.495919 -1.210043,-0.495919l-18.646562,0c-0.456246,0 -0.852981,0.158694 -1.170369,0.495919c-0.317388,0.337225 -0.476082,0.73396 -0.476082,1.210043l-0.000001,0zm3.491272,12.27896c0,0.476082 0.178531,0.852981 0.515756,1.170369c0.317388,0.337225 0.714124,0.495919 1.170369,0.495919l18.686236,0c0.456246,0 0.852981,-0.158694 1.170369,-0.495919s0.476082,-0.714124 0.476082,-1.190206c0,-0.495919 -0.158694,-0.912491 -0.476082,-1.22988s-0.714124,-0.495919 -1.190206,-0.495919l-18.666399,0c-0.476082,0 -0.872818,0.158694 -1.190206,0.495919s-0.495919,0.753797 -0.495919,1.249716l0,0.000001z"/>
  <path fill-opacity="0.2" fill="paleturquoise" style="filter:url(#blur_shadow);" d="m8.31617,37.67178c0,1.80365 0.6645,3.36998 1.94605,4.65153s2.87161,1.94605 4.72273,1.94605l22.02356,0c1.82739,0 3.41745,-0.64077 4.72273,-1.94605c1.30528,-1.30528 1.96978,-2.84787 1.96978,-4.65153c0,-1.80365 -0.64077,-3.36998 -1.96978,-4.65153c-1.30528,-1.28154 -2.87161,-1.94605 -4.72273,-1.94605l-3.29879,0c-0.23732,0 -0.35598,-0.11866 -0.35598,-0.35598l-0.16613,-1.16288c-0.23732,-2.23084 -1.18661,-4.10569 -2.82414,-5.57709s-3.58358,-2.2071 -5.81441,-2.2071c-2.23084,0 -4.17688,0.7357 -5.83814,2.23084c-1.66126,1.4714 -2.58682,3.34625 -2.80041,5.55336l-0.16613,0.99676c0,0.23732 -0.11866,0.35598 -0.37972,0.35598l-1.06795,0.16613c-1.70872,0.14239 -3.13266,0.85436 -4.29554,2.11217c-1.09169,1.25781 -1.68499,2.75295 -1.68499,4.4854l-0.00001,-0.00001z"/>

  <path stroke-width="2.5" fill="linen" d="m1.57133,46.73735zm4.70516,-11.78268c0,0.15816 0.11862,0.23724 0.33608,0.23724l2.82705,0c0.13839,0 0.257,-0.09885 0.39539,-0.27677c0.43493,-1.06756 1.12687,-1.95719 2.07581,-2.66889c0.92917,-0.69194 1.97696,-1.08733 3.16313,-1.18618l1.04779,-0.13839c0.23724,0 0.37562,-0.11862 0.37562,-0.33608l0.13839,-1.02802c0.21747,-2.13512 1.1071,-3.91438 2.70843,-5.35756c1.60134,-1.44318 3.47945,-2.15489 5.63433,-2.15489c2.17466,0 4.05277,0.71171 5.6541,2.13512s2.51074,3.22244 2.7282,5.35756l0.13839,1.14664c0,0.23724 0.11862,0.35585 0.35585,0.35585l3.22244,0c1.77926,0 3.30152,0.61286 4.54701,1.85834c1.24548,1.24548 1.87811,2.74797 1.87811,4.4877c0,1.75949 -0.63263,3.28175 -1.87811,4.52724c-1.24548,1.24548 -2.76774,1.87811 -4.54701,1.87811l-13.64102,0c-0.257,0 -0.37562,0.11862 -0.37562,0.35585l0,2.70843c0,0.21747 0.11862,0.33608 0.37562,0.33608l13.64102,0c1.75949,0 3.40037,-0.43493 4.90286,-1.32456c1.50249,-0.86986 2.68866,-2.07581 3.55853,-3.5783c0.86986,-1.50249 1.30479,-3.14337 1.30479,-4.90286c0,-1.46295 -0.27677,-2.78751 -0.83032,-4.01323c1.50249,-1.95719 2.23396,-4.15161 2.23396,-6.54373c0,-1.85834 -0.47447,-3.5783 -1.40364,-5.17963s-2.19442,-2.86659 -3.79576,-3.79576c-1.60134,-0.92917 -3.32129,-1.40364 -5.17963,-1.40364c-3.04452,0 -5.59479,1.14664 -7.63106,3.42014c-1.58157,-0.81055 -3.34106,-1.20595 -5.27848,-1.20595c-2.78751,0 -5.23894,0.86986 -7.37406,2.58982s-3.49922,3.93415 -4.07254,6.60304c-1.68042,0.39539 -3.16313,1.20595 -4.44816,2.43166c-1.28502,1.22571 -2.19442,2.66889 -2.68866,4.32954l0,0.07908c-0.07908,0.13839 -0.09885,0.1977 -0.09885,0.257l0.00002,0zm16.17153,-21.80586c0,0.4547 0.17793,0.85009 0.53378,1.18618l1.20595,1.28502c0.31631,0.31631 0.73147,0.47447 1.20595,0.47447c0.49424,0 0.88963,-0.15816 1.20595,-0.4547c0.31631,-0.29654 0.47447,-0.69194 0.47447,-1.18618c0,-0.47447 -0.13839,-0.86986 -0.4547,-1.18618l-1.30479,-1.28502c-0.31631,-0.33608 -0.69194,-0.51401 -1.16641,-0.51401s-0.86986,0.15816 -1.20595,0.49424c-0.33608,0.33608 -0.49424,0.73147 -0.49424,1.18618l-0.00001,0zm10.51742,8.71839c1.42341,-1.34433 3.04452,-2.0165 4.90286,-2.0165c1.91765,0 3.55853,0.69194 4.96217,2.07581c1.38387,1.38387 2.07581,3.04452 2.07581,4.96217c0,1.28502 -0.33608,2.49097 -1.02802,3.61784c-1.89788,-1.89788 -4.17138,-2.82705 -6.84028,-2.82705l-0.67217,0c-0.4547,-2.15489 -1.60134,-4.09231 -3.40037,-5.81226l0,-0.00001zm3.20267,-10.35927c0,0.4547 0.15816,0.85009 0.49424,1.16641c0.33608,0.31631 0.73147,0.47447 1.18618,0.47447c0.47447,0 0.86986,-0.15816 1.20595,-0.47447c0.33608,-0.31631 0.49424,-0.69194 0.49424,-1.16641l0,-4.05277c0,-0.47447 -0.15816,-0.86986 -0.49424,-1.20595c-0.33608,-0.33608 -0.73147,-0.49424 -1.20595,-0.49424c-0.47447,0 -0.86986,0.15816 -1.18618,0.49424s-0.49424,0.73147 -0.49424,1.20595l0,4.05277zm10.97212,4.4877c0,0.47447 0.15816,0.86986 0.4547,1.18618c0.33608,0.33608 0.73147,0.49424 1.20595,0.51401s0.85009,-0.15816 1.12687,-0.51401l2.88636,-2.82705c0.33608,-0.33608 0.49424,-0.73147 0.49424,-1.20595c0,-0.4547 -0.15816,-0.85009 -0.49424,-1.18618c-0.33608,-0.33608 -0.73147,-0.49424 -1.20595,-0.49424s-0.86986,0.13839 -1.18618,0.4547l-2.82705,2.90613c-0.29654,0.31631 -0.4547,0.69194 -0.4547,1.16641zm1.52226,23.38743c0,0.4547 0.15816,0.85009 0.49424,1.18618l1.26525,1.28502c0.39539,0.31631 0.81055,0.47447 1.22571,0.47447c0.37562,0 0.77101,-0.15816 1.16641,-0.47447c0.33608,-0.33608 0.49424,-0.73147 0.49424,-1.18618c0,-0.43493 -0.15816,-0.83032 -0.49424,-1.20595l-1.26525,-1.28502c-0.31631,-0.31631 -0.71171,-0.47447 -1.14664,-0.47447c-0.49424,0 -0.9094,0.15816 -1.24548,0.49424c-0.33608,0.31631 -0.49424,0.71171 -0.49424,1.18618zm2.98521,-12.49438c0,0.47447 0.15816,0.85009 0.49424,1.16641c0.29654,0.35585 0.67217,0.51401 1.12687,0.51401l3.99346,0c0.47447,0 0.86986,-0.15816 1.20595,-0.49424c0.33608,-0.33608 0.49424,-0.73147 0.49424,-1.18618c0,-0.4547 -0.17793,-0.85009 -0.51401,-1.18618c-0.33608,-0.33608 -0.73147,-0.51401 -1.18618,-0.51401l-3.99346,0c-0.47447,0 -0.85009,0.15816 -1.16641,0.49424c-0.29654,0.33608 -0.4547,0.73147 -0.4547,1.20595z"/>
</g>
  <path fill-opacity="0.4" fill="goldenrod" d="m22.36611,13.27895c0,0.46751 0.15745,0.87658 0.47234,1.22721l1.29892,1.24668c0.49201,0.37011 0.9053,0.52594 1.25955,0.48698c0.41329,0 0.76754,-0.17531 1.08243,-0.50647s0.47234,-0.74022 0.47234,-1.20772c0,-0.46751 -0.17712,-0.8571 -0.5117,-1.14929l-1.16116,-1.28565c-0.35425,-0.31167 -0.74786,-0.46751 -1.20052,-0.46751c-0.47234,0 -0.88563,0.15584 -1.22019,0.48698c-0.33457,0.31167 -0.49201,0.70126 -0.49201,1.16877l0,0.00002zm10.50941,8.62941c1.35795,-1.30512 2.97176,-1.94795 4.82173,-1.94795c1.94837,0 3.60154,0.6623 4.95949,2.00639c1.35795,1.34408 2.04677,2.96088 2.04677,4.88935c0,1.20772 -0.33457,2.41545 -1.00371,3.58423c-1.90901,-1.87003 -4.19195,-2.80504 -6.8685,-2.80504l-0.62978,0c-0.49201,-2.12326 -1.59412,-4.03225 -3.32601,-5.72696l0,-0.00001zm3.20793,-10.28516c0,0.50647 0.15745,0.89605 0.45265,1.20772s0.68882,0.44803 1.16116,0.44803c0.5117,0 0.9053,-0.15584 1.22019,-0.44803c0.31489,-0.31167 0.45265,-0.70126 0.45265,-1.20772l0,-3.9933c0,-0.46751 -0.15745,-0.83761 -0.47234,-1.14929s-0.70849,-0.44803 -1.20052,-0.44803c-0.47234,0 -0.84626,0.15584 -1.16116,0.44803s-0.45265,0.68178 -0.45265,1.14929l0,3.9933l0.00001,0zm10.86365,4.4608c0,0.50647 0.13776,0.89605 0.43298,1.20772c0.41329,0.31167 0.82658,0.46751 1.22019,0.46751c0.35425,0 0.74786,-0.15584 1.16116,-0.46751l2.81431,-2.78556c0.31489,-0.35063 0.47234,-0.7597 0.47234,-1.24668c0,-0.46751 -0.15745,-0.8571 -0.47234,-1.16877c-0.31489,-0.31167 -0.70849,-0.46751 -1.16116,-0.46751c-0.47234,0 -0.84626,0.15584 -1.14147,0.46751l-2.89304,2.78556c-0.29521,0.37011 -0.43298,0.7597 -0.43298,1.20772l0.00001,0zm1.55476,23.06369c0,0.46751 0.15745,0.87658 0.49201,1.22721l1.27923,1.22721c0.29521,0.31167 0.66913,0.46751 1.14147,0.46751s0.86594,-0.15584 1.18083,-0.48698c0.31489,-0.33115 0.47234,-0.72074 0.47234,-1.20772c0,-0.42855 -0.15745,-0.81814 -0.47234,-1.12981l-1.27923,-1.26617c-0.31489,-0.31167 -0.68882,-0.46751 -1.12179,-0.46751c-0.47234,0 -0.86594,0.15584 -1.18083,0.46751c-0.33457,0.31167 -0.5117,0.70126 -0.5117,1.16877l0,-0.00001zm2.89304,-12.29155c0,0.44803 0.17712,0.81814 0.5117,1.12981c0.31489,0.31167 0.72818,0.46751 1.20052,0.46751l4.01483,0c0.45265,0 0.82658,-0.15584 1.14147,-0.44803s0.45265,-0.68178 0.45265,-1.14929c0,-0.46751 -0.15745,-0.8571 -0.45265,-1.16877s-0.68882,-0.48698 -1.14147,-0.48698l-4.01483,0c-0.47234,0 -0.86594,0.15584 -1.20052,0.48698c-0.35425,0.33115 -0.5117,0.72074 -0.5117,1.16877z"/>
</g>

</svg>
