<svg width="60" height="60" xmlns="http://www.w3.org/2000/svg">

  <defs>
    <filter id="drop_shadow" filterUnits="objectBoundingBox" x="-50%" y="-50%" width="200%" height="200%">
      <feDropShadow dx="0.5" dy="0.5" stdDeviation="2" flood-color="black" flood-opacity="0.8" />
    </filter>
    <filter id="blur_shadow" filterUnits="objectBoundingBox" x="-50%" y="-50%" width="200%" height="200%">
      <feGaussianBlur in="SourceGraphic" stdDeviation="3" />
    </filter>
  </defs>
<path filter="url(#blur_shadow)" fill="orangered" d="m10.713245,48.009747zm1.395492,-12.375119c-0.02633,-1.132192 0.10532,-2.448694 0.421281,-4.002166c0.15798,-0.789901 0.526601,-2.001083 1.158522,-3.607215c0.05266,-0.13165 0.18431,-0.368621 0.342291,-0.737241c0.02633,0.05266 0.07899,0.07899 0.10532,0.13165s0.05266,0.05266 0.05266,0.07899c0.28963,1.158522 0.710911,2.211723 1.290172,3.159605c0.552931,0.842561 1.263842,1.474482 2.159063,1.816773c0.684581,0.28963 1.658792,0.447611 2.896304,0.473941c0.05266,0 0.13165,0 0.21064,0c0.07899,0 0.15798,0 0.21064,0c-0.868891,-0.868891 -1.553472,-1.764113 -2.080073,-2.633004c-0.789901,-1.369162 -1.290172,-2.948964 -1.500812,-4.765737c-0.15798,-1.421822 -0.07899,-3.133275 0.23697,-5.160688c0.05266,-0.394951 0.31596,-1.290172 0.763571,-2.659334c0.394951,-1.237512 0.947881,-2.369704 1.685123,-3.370245c0.842561,-1.290172 2.053743,-2.606674 3.659875,-3.975836c0.974211,-0.816231 2.343374,-1.764113 4.107486,-2.817314c0.18431,-0.10532 0.473941,-0.28963 0.921551,-0.500271c0,0.05266 0,0.10532 0,0.13165s0,0.07899 0,0.10532l0,0.05266c-0.631921,1.500812 -1.079532,3.027955 -1.290172,4.555097c-0.15798,1.395492 0.05266,2.685664 0.631921,3.896846c0.447611,0.947881 1.263842,1.974753 2.422364,3.027955c0.23697,0.23697 0.763571,0.763571 1.579802,1.527142c0.789901,0.763571 1.421822,1.369162 1.843103,1.790443l0.658251,0.658251c0.684581,-1.000542 1.079532,-2.185393 1.158522,-3.554555c0.10532,-1.448152 0,-3.027955 -0.368621,-4.739407c0,-0.02633 0,-0.10532 0.02633,-0.28963c0.05266,0.05266 0.342291,0.2633 0.789901,0.631921c1.474482,1.316502 2.580344,2.501354 3.370245,3.528225c1.263842,1.632462 2.185393,3.185935 2.790984,4.581427c0.500271,1.211182 0.816231,2.422364 1.000542,3.686206c0.15798,1.105862 0.21064,2.027413 0.18431,2.764654c-0.02633,2.053743 -0.2633,3.765196 -0.658251,5.160688c-0.18431,0.552931 -0.342291,1.000542 -0.500271,1.369162c0.658251,-0.18431 1.237512,-0.421281 1.711453,-0.684581c0.658251,-0.421281 1.184852,-0.974211 1.579802,-1.737783c0.421281,-0.763571 0.763571,-1.632462 1.000542,-2.580344c0,-0.02633 0.02633,-0.07899 0.07899,-0.13165c0.02633,0.05266 0.05266,0.13165 0.13165,0.23697c0.05266,0.10532 0.10532,0.18431 0.13165,0.2633c0.342291,0.816231 0.579261,1.658792 0.710911,2.554014c0.21064,1.000542 0.2633,1.974753 0.21064,2.975294c-0.05266,0.763571 -0.18431,1.474482 -0.421281,2.132733c-0.21064,0.631921 -0.421281,1.132192 -0.579261,1.527142c-0.500271,1.000542 -1.026872,1.869433 -1.632462,2.580344c-0.15798,0.18431 -0.28963,0.342291 -0.368621,0.421281l-28.963043,0c-0.02633,-0.02633 -0.07899,-0.07899 -0.18431,-0.15798s-0.15798,-0.13165 -0.21064,-0.18431c-0.684581,-0.658251 -1.421822,-1.658792 -2.159063,-2.975294c-0.21064,-0.394951 -0.473941,-1.000542 -0.763571,-1.816773c-0.31596,-0.816231 -0.500271,-1.737783 -0.552931,-2.738324l0.000001,-0.000002z"/>
  <g  filter="url(#drop_shadow)" stroke-opacity="0.4" stroke="midnightblue" stroke-width="2.5">
  <path fill="red" d="m10.713245,48.009747zm1.395492,-12.375119c-0.02633,-1.132192 0.10532,-2.448694 0.421281,-4.002166c0.15798,-0.789901 0.526601,-2.001083 1.158522,-3.607215c0.05266,-0.13165 0.18431,-0.368621 0.342291,-0.737241c0.02633,0.05266 0.07899,0.07899 0.10532,0.13165s0.05266,0.05266 0.05266,0.07899c0.28963,1.158522 0.710911,2.211723 1.290172,3.159605c0.552931,0.842561 1.263842,1.474482 2.159063,1.816773c0.684581,0.28963 1.658792,0.447611 2.896304,0.473941c0.05266,0 0.13165,0 0.21064,0c0.07899,0 0.15798,0 0.21064,0c-0.868891,-0.868891 -1.553472,-1.764113 -2.080073,-2.633004c-0.789901,-1.369162 -1.290172,-2.948964 -1.500812,-4.765737c-0.15798,-1.421822 -0.07899,-3.133275 0.23697,-5.160688c0.05266,-0.394951 0.31596,-1.290172 0.763571,-2.659334c0.394951,-1.237512 0.947881,-2.369704 1.685123,-3.370245c0.842561,-1.290172 2.053743,-2.606674 3.659875,-3.975836c0.974211,-0.816231 2.343374,-1.764113 4.107486,-2.817314c0.18431,-0.10532 0.473941,-0.28963 0.921551,-0.500271c0,0.05266 0,0.10532 0,0.13165s0,0.07899 0,0.10532l0,0.05266c-0.631921,1.500812 -1.079532,3.027955 -1.290172,4.555097c-0.15798,1.395492 0.05266,2.685664 0.631921,3.896846c0.447611,0.947881 1.263842,1.974753 2.422364,3.027955c0.23697,0.23697 0.763571,0.763571 1.579802,1.527142c0.789901,0.763571 1.421822,1.369162 1.843103,1.790443l0.658251,0.658251c0.684581,-1.000542 1.079532,-2.185393 1.158522,-3.554555c0.10532,-1.448152 0,-3.027955 -0.368621,-4.739407c0,-0.02633 0,-0.10532 0.02633,-0.28963c0.05266,0.05266 0.342291,0.2633 0.789901,0.631921c1.474482,1.316502 2.580344,2.501354 3.370245,3.528225c1.263842,1.632462 2.185393,3.185935 2.790984,4.581427c0.500271,1.211182 0.816231,2.422364 1.000542,3.686206c0.15798,1.105862 0.21064,2.027413 0.18431,2.764654c-0.02633,2.053743 -0.2633,3.765196 -0.658251,5.160688c-0.18431,0.552931 -0.342291,1.000542 -0.500271,1.369162c0.658251,-0.18431 1.237512,-0.421281 1.711453,-0.684581c0.658251,-0.421281 1.184852,-0.974211 1.579802,-1.737783c0.421281,-0.763571 0.763571,-1.632462 1.000542,-2.580344c0,-0.02633 0.02633,-0.07899 0.07899,-0.13165c0.02633,0.05266 0.05266,0.13165 0.13165,0.23697c0.05266,0.10532 0.10532,0.18431 0.13165,0.2633c0.342291,0.816231 0.579261,1.658792 0.710911,2.554014c0.21064,1.000542 0.2633,1.974753 0.21064,2.975294c-0.05266,0.763571 -0.18431,1.474482 -0.421281,2.132733c-0.21064,0.631921 -0.421281,1.132192 -0.579261,1.527142c-0.500271,1.000542 -1.026872,1.869433 -1.632462,2.580344c-0.15798,0.18431 -0.28963,0.342291 -0.368621,0.421281l-28.963043,0c-0.02633,-0.02633 -0.07899,-0.07899 -0.18431,-0.15798s-0.15798,-0.13165 -0.21064,-0.18431c-0.684581,-0.658251 -1.421822,-1.658792 -2.159063,-2.975294c-0.21064,-0.394951 -0.473941,-1.000542 -0.763571,-1.816773c-0.31596,-0.816231 -0.500271,-1.737783 -0.552931,-2.738324l0.000001,-0.000002z"/>
  <path fill="saddlebrown" d="m9.949674,50.01083c0,-0.789901 0.2633,-1.448152 0.763571,-2.001083c0.500271,-0.552931 1.132192,-0.816231 1.843103,-0.816231l0,-0.05266l34.650332,0.10532c0.15798,-0.02633 0.2633,-0.05266 0.2633,-0.05266c0.710911,0.02633 1.342832,0.31596 1.843103,0.868891c0.500271,0.552931 0.763571,1.237512 0.737241,2.027413c0,0.789901 -0.2633,1.448152 -0.763571,2.001083c-0.500271,0.552931 -1.132192,0.816231 -1.843103,0.816231l0,0.02633l-34.308041,-0.10532c-0.2633,0.02633 -0.447611,0.05266 -0.579261,0.05266c-0.737241,-0.02633 -1.342832,-0.28963 -1.843103,-0.842561c-0.526601,-0.552931 -0.789901,-1.237512 -0.763571,-2.027413z"/>
</g>
</svg>
