<svg width="60" height="60" xmlns="http://www.w3.org/2000/svg">
 <defs>
  <filter height="200%" width="200%" y="-50%" x="-50%" filterUnits="objectBoundingBox" id="drop_shadow"/>
 </defs>
  <g stroke="midnightblue" stroke-opacity="0.4">
   <path d="m19.100175,30.121034l0,-0.055785c-0.027893,-0.223141 0,-0.557853 0,-1.032028c0.027893,-0.446282 0.111571,-1.199384 0.278926,-2.259304c0.167356,-1.05992 0.390497,-2.119841 0.697316,-3.207654s0.780994,-2.342982 1.422525,-3.765507c0.641531,-1.422525 1.394632,-2.761372 2.287197,-4.01654c0.892565,-1.255169 2.064056,-2.566123 3.514473,-3.877077c1.450417,-1.310954 3.068191,-2.482445 4.825427,-3.458688c0.446282,-0.251034 0.892565,-0.306819 1.366739,-0.167356s0.836779,0.41839 1.05992,0.864672c0.251034,0.446282 0.306819,0.892565 0.167356,1.394632c-0.139463,0.474175 -0.41839,0.864672 -0.836779,1.087813c-3.653936,2.00827 -6.471093,4.825427 -8.451471,8.507256c1.506203,-0.697316 3.012405,-1.05992 4.546501,-1.05992c2.984513,0 5.578528,1.05992 7.726262,3.207654c2.147733,2.147733 3.207654,4.713857 3.207654,7.698369c0,0.223141 0,0.446282 0,0.669423c0,0.223141 -0.055785,0.697316 -0.111571,1.450417c-0.055785,0.753101 -0.167356,1.450417 -0.306819,2.147733c-0.139463,0.697316 -0.362604,1.561988 -0.641531,2.594016c-0.306819,1.032028 -0.641531,2.036163 -1.05992,2.95662c-0.41839,0.920457 -0.94835,1.952485 -1.617773,3.068191s-1.422525,2.147733 -2.259304,3.123976c-0.836779,0.976242 -1.840914,1.952485 -3.012405,2.928727c-1.199384,0.976242 -2.482445,1.868807 -3.877077,2.649801c-0.251034,0.167356 -0.557853,0.223141 -0.864672,0.223141c-0.725209,0 -1.255169,-0.334712 -1.617773,-0.976242c-0.251034,-0.446282 -0.306819,-0.892565 -0.167356,-1.366739c0.139463,-0.474175 0.41839,-0.836779 0.864672,-1.05992c3.737614,-2.091948 6.582664,-4.96489 8.535148,-8.590934c-1.506203,0.725209 -3.096083,1.05992 -4.769642,1.05992c-1.924592,0 -3.737614,-0.474175 -5.411173,-1.450417c-1.673559,-0.94835 -2.984513,-2.259304 -3.988648,-3.932863c-0.976242,-1.617773 -1.47831,-3.402902 -1.506203,-5.355387l0.000001,0zm4.741749,-0.139463c0,1.701451 0.613638,3.151869 1.813022,4.379145c1.199384,1.199384 2.649801,1.813022 4.351252,1.813022c1.589881,0 2.95662,-0.52996 4.156004,-1.589881c1.171491,-1.05992 1.840914,-2.370875 2.036163,-3.932863l0.027893,-0.641531c0,-0.055785 0,-0.111571 0.027893,-0.139463c-0.027893,-1.673559 -0.641531,-3.096083 -1.840914,-4.239682c-1.199384,-1.171491 -2.677694,-1.729344 -4.379145,-1.729344c-1.561988,0 -2.900835,0.502068 -4.072326,1.506203s-1.840914,2.287197 -2.036163,3.793399l-0.055785,0.697316l0,0.083678l-0.027893,0l-0.000001,0.000001z" filter="url(#drop_shadow);" stroke-width="2.5" fill="crimson"/>
  </g>
</svg>
