<svg width="60" height="60" xmlns="http://www.w3.org/2000/svg">
  <defs>
    <filter id="drop_shadow" filterUnits="objectBoundingBox" x="-50%" y="-50%" width="200%" height="200%">
      <feDropShadow dx="0.5" dy="0.5" stdDeviation="2" flood-color="black" flood-opacity="0.8" />
    </filter>
    <filter id="blur_shadow" filterUnits="objectBoundingBox" x="-50%" y="-50%" width="200%" height="200%">
      <feGaussianBlur in="SourceGraphic" stdDeviation="3" />
    </filter>
  </defs>

<g fill="black" style="filter:url(#blur_shadow)">
<path d="m5.81255,28.04169c0,2.61108 0.76934,4.91909 2.28469,6.97065c1.51536,2.02825 3.49698,3.42704 5.94487,4.17306c0.20982,0.04663 0.39632,-0.02331 0.55952,-0.18651l2.70433,-3.33379c-2.07488,0 -3.84668,-0.74602 -5.31541,-2.23807c-1.46873,-1.49205 -2.21475,-3.28716 -2.21475,-5.38535c0,-1.95831 0.65277,-3.68349 1.95831,-5.12891s2.93746,-2.26138 4.89577,-2.42457l1.2356,-0.16319c0.25645,0 0.37301,-0.09325 0.37301,-0.30307l0.18651,-1.28223c0.27976,-2.56445 1.37548,-4.68595 3.24054,-6.36451s4.07981,-2.51783 6.64426,-2.51783c2.56445,0 4.80252,0.83928 6.69089,2.54114c1.91168,1.70186 2.96078,3.82337 3.19391,6.34119l0.16319,1.35217c0.04663,0.25645 0.23313,0.39632 0.51289,0.39632l3.77674,0c2.09819,0 3.89331,0.74602 5.36204,2.21475s2.21475,3.24054 2.21475,5.33872c0,1.935 -0.65277,3.63686 -1.95831,5.08228s-2.91415,2.28469 -4.82583,2.51783l0.41964,3.91661c2.89084,-0.30307 5.33872,-1.53867 7.34366,-3.75343c2.00494,-2.21475 2.98409,-4.80252 2.98409,-7.7633c0,-1.56198 -0.30307,-3.07734 -0.90922,-4.49945c-0.60614,-1.42211 -1.42211,-2.65771 -2.44789,-3.68349c-1.02578,-1.02578 -2.26138,-1.84174 -3.68349,-2.44789c-1.42211,-0.60614 -2.91415,-0.90922 -4.49945,-0.90922l-0.74602,0c-0.76934,-3.07734 -2.42457,-5.61848 -4.9424,-7.6001s-5.40866,-2.96078 -8.67251,-2.96078c-2.16813,0 -4.21969,0.46626 -6.13137,1.39879c-1.91168,0.93253 -3.52029,2.21475 -4.84915,3.86999s-2.19144,3.54361 -2.63439,5.6418c-2.61108,0.58283 -4.75589,1.91168 -6.41113,4.00987c-1.63192,2.07488 -2.44789,4.47614 -2.44789,7.18047l0,0.00005z"/>
<path d="m41.34188,36.31785zm-27.33698,10.17104c0,0.13988 0.04663,0.37301 0.13988,0.6994c0.20982,0.48958 0.5362,0.83928 1.02578,1.02578c0.51289,0.23313 1.02578,0.25645 1.56198,0.04663c0.5362,-0.20982 0.8859,-0.55952 1.07241,-1.04909c0.23313,-0.51289 0.25645,-1.00247 0.04663,-1.51536c-0.20982,-0.48958 -0.55952,-0.83928 -1.07241,-1.00247c-0.51289,-0.25645 -1.02578,-0.27976 -1.51536,-0.06994c-0.48958,0.20982 -0.83928,0.55952 -1.07241,1.09572c-0.11657,0.23313 -0.18651,0.48958 -0.18651,0.76934l0.00001,-0.00001zm4.31294,-5.68842l0,0.23313c0.04663,0.5362 0.27976,0.95584 0.6994,1.30554c0.5362,0.30307 1.00247,0.44295 1.44542,0.44295c0.51289,0 1.00247,-0.25645 1.42211,-0.76934l5.40866,-6.45776c0.32638,-0.39632 0.48958,-0.90922 0.46626,-1.53867c-0.04663,-0.48958 -0.27976,-0.90922 -0.65277,-1.2356c-0.37301,-0.32638 -0.76934,-0.51289 -1.21229,-0.51289c-0.13988,0 -0.23313,0 -0.32638,0.02331c-0.5362,0.09325 -0.97915,0.3497 -1.30554,0.76934l-5.50192,6.45776c-0.30307,0.37301 -0.44295,0.79265 -0.44295,1.28223zm1.79512,11.00383c0,0.27976 0.06994,0.5362 0.18651,0.74602c0.18651,0.48958 0.5362,0.86259 1.02578,1.09572c0.25645,0.11657 0.51289,0.16319 0.76934,0.16319c0.27976,0 0.5362,-0.04663 0.72271,-0.16319c0.5362,-0.20982 0.90922,-0.5362 1.09572,-0.95584c0.23313,-0.51289 0.25645,-1.02578 0.04663,-1.56198c-0.18651,-0.5362 -0.5362,-0.8859 -1.04909,-1.07241c-0.51289,-0.23313 -1.02578,-0.25645 -1.56198,-0.04663c-0.5362,0.20982 -0.8859,0.55952 -1.04909,1.04909c-0.13988,0.20982 -0.18651,0.46626 -0.18651,0.74602l-0.00002,0.00001zm3.89331,-5.4786l0,0.25645c0.04663,0.51289 0.30307,0.93253 0.72271,1.28223c0.41964,0.3497 0.86259,0.51289 1.28223,0.51289c0.5362,0 1.00247,-0.25645 1.46873,-0.76934l10.14124,-12.21612c0.25645,-0.27976 0.39632,-0.6994 0.39632,-1.21229l0,-0.27976c-0.04663,-0.5362 -0.27976,-0.93253 -0.62946,-1.2356s-0.76934,-0.46626 -1.21229,-0.46626l-0.30307,0c-0.5362,0.02331 -0.97915,0.27976 -1.28223,0.72271l-10.14124,12.12287c-0.32638,0.41964 -0.44295,0.83928 -0.44295,1.28223l0.00001,-0.00001z"/>
<path d="m30.4,50.41c0,0.14421 0.04748,0.38457 0.14242,0.72107c0.21363,0.50475 0.54594,0.86528 1.04442,1.05756c0.52221,0.24035 1.04442,0.2644 1.59036,0.04807c0.54594,-0.21632 0.902,-0.57686 1.0919,-1.0816c0.23737,-0.52878 0.26111,-1.03353 0.04748,-1.56231c-0.21363,-0.50475 -0.56969,-0.86528 -1.0919,-1.03353c-0.52221,-0.2644 -1.04442,-0.28843 -1.5429,-0.07211c-0.49848,0.21632 -0.85453,0.57686 -1.0919,1.12967c-0.11869,0.24035 -0.1899,0.50475 -0.1899,0.79318l0.00001,-0.00001l0.00001,0.00001zm4.39132,-5.86467l0,0.24035c0.04748,0.55281 0.28484,0.98546 0.71211,1.34599c0.54594,0.31246 1.02069,0.45667 1.47169,0.45667c0.52221,0 1.02069,-0.2644 1.44795,-0.79318l5.50695,-6.65785c0.33231,-0.4086 0.49848,-0.93739 0.47473,-1.58635c-0.04748,-0.50475 -0.28484,-0.93739 -0.66463,-1.27388c-0.37979,-0.33649 -0.78332,-0.52878 -1.23432,-0.52878c-0.14242,0 -0.23737,0 -0.33231,0.02403c-0.54594,0.09614 -0.99694,0.36054 -1.32926,0.79318l-5.6019,6.65785c-0.30858,0.38457 -0.451,0.81721 -0.451,1.32196l-0.00001,0.00001z"/>
</g>

<g stroke="midnightblue" stroke-opacity="0.4" style="filter:url(#drop_shadow);">
   <path filter="url(#blur_shadow)"  d="m4.941199,35.09589c0,1.880107 0.692668,3.512833 2.028543,4.848708s2.993338,2.028543 4.922926,2.028543l22.957138,0c1.904853,0 3.562316,-0.667932 4.922926,-2.028543c1.360611,-1.360611 2.053279,-2.968591 2.053279,-4.848708c0,-1.880107 -0.667932,-3.512833 -2.053279,-4.848708c-1.360611,-1.335864 -2.993338,-2.028543 -4.922926,-2.028543l-3.438626,0c-0.24738,0 -0.37107,-0.12369 -0.37107,-0.37107l-0.173172,-1.212174c-0.24738,-2.325405 -1.23691,-4.27973 -2.943855,-5.813503s-3.735488,-2.300659 -6.060883,-2.300659c-2.325405,0 -4.353938,0.766886 -6.085619,2.325405c-1.731681,1.533773 -2.696475,3.488098 -2.919119,5.788767l-0.173172,1.039013c0,0.24738 -0.12369,0.37107 -0.395816,0.37107l-1.11322,0.173172c-1.781153,0.148426 -3.265453,0.890576 -4.477628,2.201705c-1.137967,1.311129 -1.756417,2.869648 -1.756417,4.675536l-0.00001,-0.00001l0,-0.000001z" fill-opacity="0.2" fill="paleturquoise"/>
  <path stroke-width="2.5" d="m5.81255,28.04169c0,2.61108 0.76934,4.91909 2.28469,6.97065c1.51536,2.02825 3.49698,3.42704 5.94487,4.17306c0.20982,0.04663 0.39632,-0.02331 0.55952,-0.18651l2.70433,-3.33379c-2.07488,0 -3.84668,-0.74602 -5.31541,-2.23807c-1.46873,-1.49205 -2.21475,-3.28716 -2.21475,-5.38535c0,-1.95831 0.65277,-3.68349 1.95831,-5.12891s2.93746,-2.26138 4.89577,-2.42457l1.2356,-0.16319c0.25645,0 0.37301,-0.09325 0.37301,-0.30307l0.18651,-1.28223c0.27976,-2.56445 1.37548,-4.68595 3.24054,-6.36451s4.07981,-2.51783 6.64426,-2.51783c2.56445,0 4.80252,0.83928 6.69089,2.54114c1.91168,1.70186 2.96078,3.82337 3.19391,6.34119l0.16319,1.35217c0.04663,0.25645 0.23313,0.39632 0.51289,0.39632l3.77674,0c2.09819,0 3.89331,0.74602 5.36204,2.21475s2.21475,3.24054 2.21475,5.33872c0,1.935 -0.65277,3.63686 -1.95831,5.08228s-2.91415,2.28469 -4.82583,2.51783l0.41964,3.91661c2.89084,-0.30307 5.33872,-1.53867 7.34366,-3.75343c2.00494,-2.21475 2.98409,-4.80252 2.98409,-7.7633c0,-1.56198 -0.30307,-3.07734 -0.90922,-4.49945c-0.60614,-1.42211 -1.42211,-2.65771 -2.44789,-3.68349c-1.02578,-1.02578 -2.26138,-1.84174 -3.68349,-2.44789c-1.42211,-0.60614 -2.91415,-0.90922 -4.49945,-0.90922l-0.74602,0c-0.76934,-3.07734 -2.42457,-5.61848 -4.9424,-7.6001s-5.40866,-2.96078 -8.67251,-2.96078c-2.16813,0 -4.21969,0.46626 -6.13137,1.39879c-1.91168,0.93253 -3.52029,2.21475 -4.84915,3.86999s-2.19144,3.54361 -2.63439,5.6418c-2.61108,0.58283 -4.75589,1.91168 -6.41113,4.00987c-1.63192,2.07488 -2.44789,4.47614 -2.44789,7.18047l0,0.00005z" fill="linen"/>
<g fill="cornflowerblue" stroke-width="1">
<path d="m41.34188,36.31785zm-27.33698,10.17104c0,0.13988 0.04663,0.37301 0.13988,0.6994c0.20982,0.48958 0.5362,0.83928 1.02578,1.02578c0.51289,0.23313 1.02578,0.25645 1.56198,0.04663c0.5362,-0.20982 0.8859,-0.55952 1.07241,-1.04909c0.23313,-0.51289 0.25645,-1.00247 0.04663,-1.51536c-0.20982,-0.48958 -0.55952,-0.83928 -1.07241,-1.00247c-0.51289,-0.25645 -1.02578,-0.27976 -1.51536,-0.06994c-0.48958,0.20982 -0.83928,0.55952 -1.07241,1.09572c-0.11657,0.23313 -0.18651,0.48958 -0.18651,0.76934l0.00001,-0.00001zm4.31294,-5.68842l0,0.23313c0.04663,0.5362 0.27976,0.95584 0.6994,1.30554c0.5362,0.30307 1.00247,0.44295 1.44542,0.44295c0.51289,0 1.00247,-0.25645 1.42211,-0.76934l5.40866,-6.45776c0.32638,-0.39632 0.48958,-0.90922 0.46626,-1.53867c-0.04663,-0.48958 -0.27976,-0.90922 -0.65277,-1.2356c-0.37301,-0.32638 -0.76934,-0.51289 -1.21229,-0.51289c-0.13988,0 -0.23313,0 -0.32638,0.02331c-0.5362,0.09325 -0.97915,0.3497 -1.30554,0.76934l-5.50192,6.45776c-0.30307,0.37301 -0.44295,0.79265 -0.44295,1.28223zm1.79512,11.00383c0,0.27976 0.06994,0.5362 0.18651,0.74602c0.18651,0.48958 0.5362,0.86259 1.02578,1.09572c0.25645,0.11657 0.51289,0.16319 0.76934,0.16319c0.27976,0 0.5362,-0.04663 0.72271,-0.16319c0.5362,-0.20982 0.90922,-0.5362 1.09572,-0.95584c0.23313,-0.51289 0.25645,-1.02578 0.04663,-1.56198c-0.18651,-0.5362 -0.5362,-0.8859 -1.04909,-1.07241c-0.51289,-0.23313 -1.02578,-0.25645 -1.56198,-0.04663c-0.5362,0.20982 -0.8859,0.55952 -1.04909,1.04909c-0.13988,0.20982 -0.18651,0.46626 -0.18651,0.74602l-0.00002,0.00001zm3.89331,-5.4786l0,0.25645c0.04663,0.51289 0.30307,0.93253 0.72271,1.28223c0.41964,0.3497 0.86259,0.51289 1.28223,0.51289c0.5362,0 1.00247,-0.25645 1.46873,-0.76934l10.14124,-12.21612c0.25645,-0.27976 0.39632,-0.6994 0.39632,-1.21229l0,-0.27976c-0.04663,-0.5362 -0.27976,-0.93253 -0.62946,-1.2356s-0.76934,-0.46626 -1.21229,-0.46626l-0.30307,0c-0.5362,0.02331 -0.97915,0.27976 -1.28223,0.72271l-10.14124,12.12287c-0.32638,0.41964 -0.44295,0.83928 -0.44295,1.28223l0.00001,-0.00001z"/>
<path d="m30.4,50.41c0,0.14421 0.04748,0.38457 0.14242,0.72107c0.21363,0.50475 0.54594,0.86528 1.04442,1.05756c0.52221,0.24035 1.04442,0.2644 1.59036,0.04807c0.54594,-0.21632 0.902,-0.57686 1.0919,-1.0816c0.23737,-0.52878 0.26111,-1.03353 0.04748,-1.56231c-0.21363,-0.50475 -0.56969,-0.86528 -1.0919,-1.03353c-0.52221,-0.2644 -1.04442,-0.28843 -1.5429,-0.07211c-0.49848,0.21632 -0.85453,0.57686 -1.0919,1.12967c-0.11869,0.24035 -0.1899,0.50475 -0.1899,0.79318l0.00001,-0.00001l0.00001,0.00001zm4.39132,-5.86467l0,0.24035c0.04748,0.55281 0.28484,0.98546 0.71211,1.34599c0.54594,0.31246 1.02069,0.45667 1.47169,0.45667c0.52221,0 1.02069,-0.2644 1.44795,-0.79318l5.50695,-6.65785c0.33231,-0.4086 0.49848,-0.93739 0.47473,-1.58635c-0.04748,-0.50475 -0.28484,-0.93739 -0.66463,-1.27388c-0.37979,-0.33649 -0.78332,-0.52878 -1.23432,-0.52878c-0.14242,0 -0.23737,0 -0.33231,0.02403c-0.54594,0.09614 -0.99694,0.36054 -1.32926,0.79318l-5.6019,6.65785c-0.30858,0.38457 -0.451,0.81721 -0.451,1.32196l-0.00001,0.00001z"/>
</g>
</g>
</svg>
