<svg width="60" height="60" xmlns="http://www.w3.org/2000/svg">

  <defs>
    <filter id="drop_shadow" filterUnits="objectBoundingBox" x="-50%" y="-50%" width="200%" height="200%">
      <feDropShadow dx="0.5" dy="0.5" stdDeviation="2" flood-color="black" flood-opacity="0.8" />
    </filter>
    <filter id="blur_shadow" filterUnits="objectBoundingBox" x="-50%" y="-50%" width="200%" height="200%">
      <feGaussianBlur in="SourceGraphic" stdDeviation="3" />
    </filter>
    <filter id="blur_min" filterUnits="objectBoundingBox" width="120%" height="120%">
      <feGaussianBlur in="SourceGraphic" stdDeviation="1" />
    </filter>
  </defs>

<g fill="black" filter="url(#blur_shadow)">
  <path d="m19.90996,39.08314c0,-1.70584 0.40137,-3.29127 1.18405,-4.77636s1.88646,-2.70928 3.31134,-3.69265l0,-19.90818c0,-1.6055 0.54186,-2.97017 1.64564,-4.07395s2.46845,-1.68577 4.07395,-1.68577c1.62557,0 2.99024,0.56192 4.09402,1.6657c1.10378,1.12385 1.6657,2.46845 1.6657,4.07395l0,19.90818c1.42488,0.98337 2.50859,2.22763 3.29127,3.69265s1.16399,3.07051 1.16399,4.77636c0,1.84632 -0.46158,3.57223 -1.36467,5.13759s-2.14735,2.80962 -3.71271,3.71271s-3.2712,1.36467 -5.13759,1.36467c-1.84632,0 -3.55216,-0.46158 -5.11752,-1.36467s-2.80962,-2.14735 -3.73278,-3.71271s-1.36467,-3.2712 -1.36467,-5.11752zm3.5321,0c0,1.86639 0.66227,3.47189 1.96674,4.79643c1.30447,1.32454 2.8899,1.9868 4.73622,1.9868c1.86639,0 3.47189,-0.66227 4.81649,-2.00687s2.02694,-2.93003 2.02694,-4.75629c0,-1.24426 -0.3211,-2.40825 -0.9633,-3.47189c-0.6422,-1.06364 -1.52522,-1.88646 -2.64907,-2.46845l-0.56192,-0.28096c-0.20069,-0.08027 -0.30103,-0.28096 -0.30103,-0.58199l0,-21.59395c0,-0.6422 -0.22076,-1.18405 -0.68234,-1.62557c-0.46158,-0.42144 -1.0235,-0.6422 -1.70584,-0.6422c-0.6422,0 -1.20412,0.22076 -1.6657,0.6422c-0.46158,0.42144 -0.68234,0.9633 -0.68234,1.62557l0,21.55381c0,0.30103 -0.10034,0.50172 -0.28096,0.58199l-0.54186,0.28096c-1.10378,0.58199 -1.96674,1.40481 -2.58887,2.46845c-0.62213,1.06364 -0.92316,2.20756 -0.92316,3.49196zm1.56536,0c0,1.42488 0.48165,2.64907 1.46502,3.65251s2.14735,1.50515 3.5321,1.50515s2.5688,-0.50172 3.5923,-1.50515c1.0235,-1.00344 1.52522,-2.22763 1.52522,-3.63244c0,-1.26433 -0.44151,-2.38818 -1.30447,-3.35148c-0.86296,-0.9633 -1.9266,-1.54529 -3.17086,-1.70584l0,-14.77058c0,-0.12041 -0.06021,-0.26089 -0.20069,-0.38131c-0.14048,-0.14048 -0.28096,-0.20069 -0.44151,-0.20069c-0.18062,0 -0.3211,0.06021 -0.42144,0.16055c-0.10034,0.12041 -0.16055,0.24082 -0.16055,0.42144l0,14.73044c-1.22419,0.18062 -2.26777,0.74254 -3.13072,1.70584c-0.86296,0.98337 -1.2844,2.08715 -1.2844,3.37155z"/>
</g>

  <path id="glassback" fill="white" fill-opacity="0.4" d="m19.90996,39.08314c0,-1.70584 0.40137,-3.29127 1.18405,-4.77636s1.88646,-2.70928 3.31134,-3.69265l0,-19.90818c0,-1.6055 0.54186,-2.97017 1.64564,-4.07395s2.46845,-1.68577 4.07395,-1.68577c1.62557,0 2.99024,0.56192 4.09402,1.6657c1.10378,1.12385 1.6657,2.46845 1.6657,4.07395l0,19.90818c1.42488,0.98337 2.50859,2.22763 3.29127,3.69265s1.16399,3.07051 1.16399,4.77636c0,1.84632 -0.46158,3.57223 -1.36467,5.13759s-2.14735,2.80962 -3.71271,3.71271s-3.2712,1.36467 -5.13759,1.36467c-1.84632,0 -3.55216,-0.46158 -5.11752,-1.36467s-2.80962,-2.14735 -3.73278,-3.71271s-1.36467,-3.2712 -1.36467,-5.11752l-0.00002,0z"/>

  <path  id="glass" fill="lightskyblue" fill-opacity="0.3" stroke-width="0.4" stroke-opacity="0.2" stroke="midnightblue" d="m19.90996,39.08314c0,-1.70584 0.40137,-3.29127 1.18405,-4.77636s1.88646,-2.70928 3.31134,-3.69265l0,-19.90818c0,-1.6055 0.54186,-2.97017 1.64564,-4.07395s2.46845,-1.68577 4.07395,-1.68577c1.62557,0 2.99024,0.56192 4.09402,1.6657c1.10378,1.12385 1.6657,2.46845 1.6657,4.07395l0,19.90818c1.42488,0.98337 2.50859,2.22763 3.29127,3.69265s1.16399,3.07051 1.16399,4.77636c0,1.84632 -0.46158,3.57223 -1.36467,5.13759s-2.14735,2.80962 -3.71271,3.71271s-3.2712,1.36467 -5.13759,1.36467c-1.84632,0 -3.55216,-0.46158 -5.11752,-1.36467s-2.80962,-2.14735 -3.73278,-3.71271s-1.36467,-3.2712 -1.36467,-5.11752l-0.00002,0zm3.5321,0c0,1.86639 0.66227,3.47189 1.96674,4.79643c1.30447,1.32454 2.8899,1.9868 4.73622,1.9868c1.86639,0 3.47189,-0.66227 4.81649,-2.00687s2.02694,-2.93003 2.02694,-4.75629c0,-1.24426 -0.3211,-2.40825 -0.9633,-3.47189c-0.6422,-1.06364 -1.52522,-1.88646 -2.64907,-2.46845l-0.56192,-0.28096c-0.20069,-0.08027 -0.30103,-0.28096 -0.30103,-0.58199l0,-21.59395c0,-0.6422 -0.22076,-1.18405 -0.68234,-1.62557c-0.46158,-0.42144 -1.0235,-0.6422 -1.70584,-0.6422c-0.6422,0 -1.20412,0.22076 -1.6657,0.6422c-0.46158,0.42144 -0.68234,0.9633 -0.68234,1.62557l0,21.55381c0,0.30103 -0.10034,0.50172 -0.28096,0.58199l-0.54186,0.28096c-1.10378,0.58199 -1.96674,1.40481 -2.58887,2.46845c-0.62213,1.06364 -0.92316,2.20756 -0.92316,3.49196z"/>

  <path id="capillary" fill="linen" filter="url(#blur_shadow)" fill-opacity="0.4" d="m23.44206,39.08314c0,1.86639 0.66227,3.47189 1.96674,4.79643c1.30447,1.32454 2.8899,1.9868 4.73622,1.9868c1.86639,0 3.47189,-0.66227 4.81649,-2.00687s2.02694,-2.93003 2.02694,-4.75629c0,-1.24426 -0.3211,-2.40825 -0.9633,-3.47189c-0.6422,-1.06364 -1.52522,-1.88646 -2.64907,-2.46845l-0.56192,-0.28096c-0.20069,-0.08027 -0.30103,-0.28096 -0.30103,-0.58199l0,-21.59395c0,-0.6422 -0.22076,-1.18405 -0.68234,-1.62557c-0.46158,-0.42144 -1.0235,-0.6422 -1.70584,-0.6422c-0.6422,0 -1.20412,0.22076 -1.6657,0.6422c-0.46158,0.42144 -0.68234,0.9633 -0.68234,1.62557l0,21.55381c0,0.30103 -0.10034,0.50172 -0.28096,0.58199l-0.54186,0.28096c-1.10378,0.58199 -1.96674,1.40481 -2.58887,2.46845c-0.62213,1.06364 -0.92316,2.20756 -0.92316,3.49196z"/>

  <circle id="bulb" r="5.125" cy="39.088" cx="30.06261" fill="red"/>
<line id="temprature" y1="39.088" x1="30.06261" y2="11" x2="30.06261" stroke="red" stroke-width="1.8" stroke-linecap="round"/>

  <circle id="pop" r="4.5" cy="39.088" cx="30.06261" fill="white" filter="url(#blur_min)" filter-opacity="0.1" fill-opacity="0.2"/>
  <circle id="pop2" r="2" cy="37.088" cx="28.06261" fill="red" filter="url(#blur_min)" filter-opacity="0.05" fill-opacity="0.1"/>

  <path id="glassfront" fill="lightskyblue" fill-opacity="0.1" d="m19.90996,39.08314c0,-1.70584 0.40137,-3.29127 1.18405,-4.77636s1.88646,-2.70928 3.31134,-3.69265l0,-19.90818c0,-1.6055 0.54186,-2.97017 1.64564,-4.07395s2.46845,-1.68577 4.07395,-1.68577c1.62557,0 2.99024,0.56192 4.09402,1.6657c1.10378,1.12385 1.6657,2.46845 1.6657,4.07395l0,19.90818c1.42488,0.98337 2.50859,2.22763 3.29127,3.69265s1.16399,3.07051 1.16399,4.77636c0,1.84632 -0.46158,3.57223 -1.36467,5.13759s-2.14735,2.80962 -3.71271,3.71271s-3.2712,1.36467 -5.13759,1.36467c-1.84632,0 -3.55216,-0.46158 -5.11752,-1.36467s-2.80962,-2.14735 -3.73278,-3.71271s-1.36467,-3.2712 -1.36467,-5.11752l-0.00002,0z"/>

</svg>



