<svg width="60" height="60" xmlns="http://www.w3.org/2000/svg">

  <defs>
    <filter id="drop_shadow" filterUnits="objectBoundingBox" x="-50%" y="-50%" width="200%" height="200%">
      <feDropShadow dx="0.5" dy="0.5" stdDeviation="2" flood-color="black" flood-opacity="0.8" />
    </filter>
    <filter id="blur_shadow" filterUnits="objectBoundingBox" x="-50%" y="-50%" width="200%" height="200%">
      <feGaussianBlur in="SourceGraphic" stdDeviation="3" />
    </filter>
  </defs>

<g stroke="midnightblue" stroke-opacity="0.4" stroke-width="2.5" style="filter:url(#drop_shadow);">
  <path d="m4.983529,31.323709zm6.682317,7.26129c0,-0.530726 0.192991,-0.989079 0.554849,-1.326814c0.385982,-0.337734 0.892584,-0.530726 1.543929,-0.530726l13.77474,0c0.651345,0 1.157947,0.168867 1.543929,0.530726c0.385982,0.337734 0.578973,0.796088 0.578973,1.326814c0,0.651345 -0.192991,1.157947 -0.554849,1.543929c-0.385982,0.385982 -0.892584,0.578973 -1.568053,0.578973l-13.77474,0c-0.651345,0 -1.157947,-0.192991 -1.543929,-0.554849s-0.554849,-0.916708 -0.554849,-1.568053zm2.388265,7.116547c0,-0.530726 0.217115,-1.013203 0.675469,-1.447433c0.43423,-0.43423 0.940832,-0.651345 1.447433,-0.651345c0.627221,0 1.133823,0.217115 1.519805,0.627221c0.385982,0.43423 0.578973,0.916708 0.578973,1.471557c0,0.675469 -0.192991,1.182071 -0.554849,1.568053s-0.892584,0.554849 -1.543929,0.554849c-0.554849,0 -1.061451,-0.192991 -1.471557,-0.578973c-0.43423,-0.385982 -0.651345,-0.916708 -0.651345,-1.543929zm5.837981,0c0,-0.554849 0.192991,-1.037327 0.578973,-1.471557c0.385982,-0.410106 0.892584,-0.627221 1.519805,-0.627221l9.239449,0c0.530726,0 1.013203,0.217115 1.447433,0.651345c0.43423,0.43423 0.675469,0.916708 0.675469,1.447433c0,0.627221 -0.217115,1.157947 -0.651345,1.543929s-0.916708,0.578973 -1.471557,0.578973l-9.239449,0c-0.651345,0 -1.157947,-0.192991 -1.543929,-0.554849c-0.385982,-0.385982 -0.554849,-0.892584 -0.554849,-1.568053zm11.338228,-7.116547c0,-0.506602 0.217115,-0.940832 0.651345,-1.30269s0.916708,-0.554849 1.471557,-0.554849s1.037327,0.192991 1.471557,0.554849s0.651345,0.796088 0.651345,1.30269c0,0.627221 -0.217115,1.157947 -0.651345,1.543929c-0.43423,0.385982 -0.916708,0.578973 -1.471557,0.578973s-1.061451,-0.192991 -1.471557,-0.578973c-0.43423,-0.410106 -0.651345,-0.916708 -0.651345,-1.543929zm3.715079,7.116547c0,-0.554849 0.192991,-1.037327 0.578973,-1.471557c0.385982,-0.410106 0.916708,-0.627221 1.543929,-0.627221l4.487043,0c0.627221,0 1.133823,0.217115 1.519805,0.627221c0.385982,0.43423 0.578973,0.916708 0.578973,1.471557c0,0.675469 -0.192991,1.182071 -0.554849,1.568053c-0.361858,0.385982 -0.892584,0.554849 -1.543929,0.554849l-4.487043,0c-0.651345,0 -1.157947,-0.192991 -1.543929,-0.554849c-0.385982,-0.385982 -0.578973,-0.892584 -0.578973,-1.568053zm2.122902,-7.116547c0,-0.506602 0.217115,-0.940832 0.651345,-1.30269s0.916708,-0.554849 1.447433,-0.554849l7.406034,0c0.530726,0 0.964956,0.168867 1.30269,0.530726c0.337734,0.361858 0.530726,0.796088 0.530726,1.326814c0,0.651345 -0.168867,1.157947 -0.506602,1.543929c-0.337734,0.385982 -0.771964,0.578973 -1.326814,0.578973l-7.406034,0c-0.554849,0 -1.037327,-0.192991 -1.471557,-0.578973c-0.410106,-0.410106 -0.627221,-0.916708 -0.627221,-1.543929l0,-0.000001z" fill="lightgray" stroke-width="1" />
  <path fill="yellow" d="m4.380432,32.795266c0,-0.578973 0.192991,-1.061451 0.603097,-1.471557c0.43423,-0.410106 0.916708,-0.603097 1.447433,-0.603097l4.921273,0c0.554849,0 1.013203,0.192991 1.399186,0.603097c0.361858,0.410106 0.554849,0.892584 0.554849,1.471557c0,0.578973 -0.192991,1.061451 -0.554849,1.447433c-0.361858,0.410106 -0.844336,0.603097 -1.399186,0.603097l-4.897149,0c-0.554849,0 -1.037327,-0.192991 -1.447433,-0.603097c-0.410106,-0.410106 -0.627221,-0.892584 -0.627221,-1.447433zm6.899432,-16.669607c0,-0.554849 0.192991,-1.037327 0.554849,-1.471557c0.482478,-0.410106 0.989079,-0.603097 1.543929,-0.603097c0.506602,0 0.989079,0.192991 1.423309,0.603097l3.449716,3.522088c0.385982,0.361858 0.578973,0.844336 0.578973,1.423309c0,0.578973 -0.192991,1.061451 -0.578973,1.447433c-0.385982,0.385982 -0.86846,0.578973 -1.447433,0.578973c-0.578973,0 -1.061451,-0.192991 -1.423309,-0.578973l-3.522088,-3.449716c-0.385982,-0.410106 -0.578973,-0.892584 -0.578973,-1.471557zm6.175715,17.3692l0,-0.168867c0.072372,-3.03961 1.133823,-5.669114 3.160229,-7.912635c2.026407,-2.243522 4.511167,-3.594459 7.478405,-4.076937l0.120619,0c0.458354,-0.096496 1.085575,-0.144743 1.833415,-0.144743c0.747841,0 1.375062,0.048248 1.833415,0.144743l0.096496,0c2.943114,0.458354 5.451999,1.833415 7.478405,4.076937c2.026407,2.243522 3.087858,4.873025 3.160229,7.912635l0,0.168867c0,0.385982 -0.192991,0.578973 -0.554849,0.578973l-2.725999,0c-0.289487,0 -0.482478,-0.072372 -0.603097,-0.217115c-0.120619,-0.144743 -0.168867,-0.289487 -0.168867,-0.43423c-0.096496,-2.243522 -0.964956,-4.149309 -2.60538,-5.717361c-1.640424,-1.568053 -3.594459,-2.340017 -5.886229,-2.340017s-4.245804,0.771964 -5.886229,2.340017c-1.640424,1.568053 -2.508884,3.47384 -2.60538,5.717361c0,0.144743 -0.072372,0.289487 -0.192991,0.43423c-0.120619,0.144743 -0.337734,0.217115 -0.627221,0.217115l-2.725999,0c-0.385982,0 -0.578973,-0.192991 -0.578973,-0.578973l0.000001,0zm10.493892,-19.347359l0,-4.897149c0,-0.578973 0.192991,-1.061451 0.603097,-1.471557s0.892584,-0.603097 1.471557,-0.603097s1.037327,0.192991 1.447433,0.603097c0.410106,0.410106 0.603097,0.892584 0.603097,1.471557l0,4.897149c0,0.554849 -0.192991,1.037327 -0.603097,1.399186s-0.892584,0.578973 -1.447433,0.578973s-1.061451,-0.192991 -1.447433,-0.554849s-0.627221,-0.86846 -0.627221,-1.423309l0,-0.000001zm13.316387,5.451999c0,-0.603097 0.192991,-1.085575 0.554849,-1.423309l3.425592,-3.522088c0.43423,-0.410106 0.916708,-0.603097 1.423309,-0.603097c0.554849,0 1.037327,0.192991 1.447433,0.603097c0.410106,0.410106 0.603097,0.892584 0.603097,1.471557c0,0.578973 -0.192991,1.085575 -0.578973,1.471557l-3.522088,3.425592c-0.43423,0.385982 -0.916708,0.578973 -1.447433,0.578973c-0.554849,0 -0.989079,-0.192991 -1.350938,-0.578973c-0.361858,-0.361858 -0.554849,-0.844336 -0.554849,-1.423309l0.000001,0zm5.451999,13.195767c0,-0.554849 0.192991,-1.037327 0.578973,-1.471557c0.410106,-0.410106 0.86846,-0.603097 1.375062,-0.603097l4.873025,0c0.554849,0 1.037327,0.217115 1.447433,0.627221c0.410106,0.410106 0.627221,0.892584 0.627221,1.447433c0,0.554849 -0.217115,1.037327 -0.627221,1.447433c-0.410106,0.410106 -0.892584,0.603097 -1.447433,0.603097l-4.873025,0c-0.554849,0 -1.037327,-0.192991 -1.399186,-0.603097s-0.554849,-0.86846 -0.554849,-1.447433z"/> 
</g>
</svg>
