<svg width="60" height="60" xmlns="http://www.w3.org/2000/svg">
  <path stroke-width="2.5" stroke-opacity="0.4" stroke="midnightblue" d="m7.297501,25.920748c0,-2.506207 0.799853,-4.745796 2.372898,-6.718767s3.572678,-3.226075 5.998899,-3.75931c0.666544,-2.986119 2.186265,-5.465663 4.585825,-7.385311s5.11906,-2.879471 8.211826,-2.879471c2.986119,0 5.678958,0.933162 8.051855,2.799486c2.372898,1.866324 3.892619,4.265884 4.612487,7.172017l0.719868,0c2.986119,0 5.545649,1.039809 7.678591,3.146089c2.10628,2.079618 3.172751,4.639148 3.172751,7.598605c0,1.599706 -0.319941,3.119427 -0.986486,4.532501c-0.666544,1.413074 -1.573045,2.639516 -2.746163,3.652663l0,0.079985c0,1.573045 -0.506574,2.986119 -1.493059,4.239222c-0.986486,1.253103 -2.239589,2.026295 -3.732648,2.372898c-0.373265,1.65303 -1.19978,3.066104 -2.426221,4.21256c-1.226442,1.146456 -2.692839,1.866324 -4.345869,2.132942c0.773191,0.9065 1.146456,1.919648 1.146456,3.01278c0,1.279765 -0.45325,2.372898 -1.35975,3.30606c-0.9065,0.9065 -1.999633,1.386412 -3.279398,1.386412c-1.279765,0 -2.372898,-0.45325 -3.279398,-1.386412c-0.9065,-0.9065 -1.35975,-2.026295 -1.35975,-3.30606c0,-0.506574 0.079985,-1.013147 0.266618,-1.519721l-0.266618,0c-1.546383,0 -2.879471,-0.559897 -3.999266,-1.679692c-1.119794,-1.119794 -1.679692,-2.452883 -1.679692,-3.999266c0,-1.066471 0.266618,-2.026295 0.799853,-2.85281c-1.386412,-0.773191 -2.372898,-1.866324 -2.986119,-3.332722l-3.412707,0l0,-0.026662c-2.85281,-0.186632 -5.279031,-1.306427 -7.278664,-3.386045s-2.986119,-4.532501 -2.986119,-7.411973l0,0.000002zm3.732648,-0.666544c0,2.132942 0.74653,3.945942 2.239589,5.439002s3.30606,2.239589 5.41234,2.239589c1.306427,0 2.532868,-0.29328 3.652663,-0.9065c0.319941,1.972971 1.253103,3.626001 2.772824,4.95909s3.332722,1.972971 5.385678,1.972971c2.319574,0 4.292545,-0.826515 5.918914,-2.452883c1.093133,1.279765 2.452883,1.892986 4.105913,1.892986c1.519721,0 2.799486,-0.533235 3.892619,-1.599706c1.066471,-1.066471 1.599706,-2.372898 1.599706,-3.892619c1.066471,-0.719868 1.919648,-1.626368 2.532868,-2.772824c0.613221,-1.119794 0.933162,-2.346236 0.933162,-3.652663c0,-2.10628 -0.74653,-3.919281 -2.266251,-5.385678c-1.519721,-1.466398 -3.332722,-2.212927 -5.465663,-2.212927c-1.493059,0 -2.85281,0.399927 -4.079251,1.173118c0.159971,-0.639883 0.213294,-1.35975 0.213294,-2.10628c0,-2.55953 -0.9065,-4.745796 -2.746163,-6.558796c-1.839662,-1.813001 -4.052589,-2.692839 -6.638781,-2.692839c-2.506207,0 -4.66581,0.879839 -6.478811,2.586192s-2.772824,3.839295 -2.85281,6.31884c-0.053324,0 -0.133309,0 -0.213294,0c-0.106647,0 -0.186632,0 -0.239956,0c-2.10628,0 -3.892619,0.74653 -5.41234,2.239589s-2.266251,3.332722 -2.266251,5.41234l0.000001,-0.000002z" fill="darkgray"/>
  <path stroke-width="1" stroke-opacity="0.4" stroke="midnightblue" d="m11.107648,25.208456c0,2.132942 0.74653,3.945942 2.239589,5.439002s3.30606,2.239589 5.41234,2.239589c1.306427,0 2.532868,-0.29328 3.652663,-0.9065c0.319941,1.972971 1.253103,3.626001 2.772824,4.95909s3.332722,1.972971 5.385678,1.972971c2.319574,0 4.292545,-0.826515 5.918914,-2.452883c1.093133,1.279765 2.452883,1.892986 4.105913,1.892986c1.519721,0 2.799486,-0.533235 3.892619,-1.599706c1.066471,-1.066471 1.599706,-2.372898 1.599706,-3.892619c1.066471,-0.719868 1.919648,-1.626368 2.532868,-2.772824c0.613221,-1.119794 0.933162,-2.346236 0.933162,-3.652663c0,-2.10628 -0.74653,-3.919281 -2.266251,-5.385678c-1.519721,-1.466398 -3.332722,-2.212927 -5.465663,-2.212927c-1.493059,0 -2.85281,0.399927 -4.079251,1.173118c0.159971,-0.639883 0.213294,-1.35975 0.213294,-2.10628c0,-2.55953 -0.9065,-4.745796 -2.746163,-6.558796c-1.839662,-1.813001 -4.052589,-2.692839 -6.638781,-2.692839c-2.506207,0 -4.66581,0.879839 -6.478811,2.586192s-2.772824,3.839295 -2.85281,6.31884c-0.053324,0 -0.133309,0 -0.213294,0c-0.106647,0 -0.186632,0 -0.239956,0c-2.10628,0 -3.892619,0.74653 -5.41234,2.239589s-2.266251,3.332722 -2.266251,5.41234l0.000001,-0.000002z" fill="lightgray"/>
</svg>
