<svg width="60" height="60" xmlns="http://www.w3.org/2000/svg">
  <defs>
    <filter id="drop_shadow" filterUnits="objectBoundingBox" x="-50%" y="-50%" width="200%" height="200%">
      <feDropShadow dx="0.5" dy="0.5" stdDeviation="2" flood-color="black" flood-opacity="0.8" />
    </filter>
    <filter id="blur_shadow" filterUnits="objectBoundingBox" x="-50%" y="-50%" width="200%" height="200%">
      <feGaussianBlur in="SourceGraphic" stdDeviation="3" />
    </filter>
    <filter id="shadow">
      <feDropShadow dx="0.3" dy="0.6" stdDeviation="0.6" flood-color="black"/>
    </filter>
  </defs>

<g fill="black" style="filter:url(#blur_shadow)">
<path d="m9.38494,33.82546c0,-2.30113 0.72035,-4.34213 2.16105,-6.143c1.44071,-1.80087 3.2616,-2.94144 5.46267,-3.46169c0.6203,-2.72133 2.02098,-4.96242 4.20205,-6.70328s4.7023,-2.62128 7.52368,-2.62128c2.76135,0 5.20255,0.86042 7.3636,2.54124c2.14106,1.70083 3.56174,3.88189 4.22206,6.56321l0.6203,0c1.78088,0 3.44169,0.44021 4.96242,1.30063s2.74134,2.061 3.62177,3.56174c0.88043,1.50073 1.34065,3.16155 1.34065,4.94242c0,2.68131 -0.92046,4.98244 -2.76135,6.90338s-4.102,2.94144 -6.76331,3.02147c-0.26012,0 -0.4002,-0.12005 -0.4002,-0.34016l0,-2.6613c0,-0.24012 0.14007,-0.36018 0.4002,-0.36018c1.72084,-0.08004 3.16155,-0.76037 4.36213,-2.041s1.80087,-2.78136 1.80087,-4.52222s-0.64031,-3.24158 -1.96097,-4.52222c-1.30063,-1.28063 -2.84138,-1.92094 -4.62226,-1.92094l-3.20156,0c-0.24012,0 -0.38019,-0.12005 -0.38019,-0.34016l-0.14007,-1.16056c-0.22011,-2.14106 -1.14056,-3.96193 -2.76135,-5.42265c-1.6408,-1.46071 -3.54173,-2.20107 -5.70279,-2.20107c-2.18107,0 -4.102,0.72035 -5.7228,2.18107c-1.6208,1.46071 -2.54124,3.2616 -2.76135,5.42265l-0.12005,1.08053c0,0.24012 -0.14007,0.36018 -0.4002,0.36018l-1.06051,0.06004c-1.6408,0.08004 -3.02147,0.74037 -4.18204,2.00098s-1.72084,2.74134 -1.72084,4.44217c0,1.74085 0.60029,3.24158 1.80087,4.52222s2.6613,1.96097 4.36213,2.041c0.22011,0 0.34016,0.12005 0.34016,0.36018l0,2.6613c0,0.22011 -0.12005,0.34016 -0.34016,0.34016c-2.68131,-0.12005 -4.94242,-1.14056 -6.80332,-3.06149s-2.74134,-4.16204 -2.74134,-6.82333l0.00003,0.00001l0.00001,-0.00003z"/>
<path d="m20.01708,46.82056c0,0.34358 0.10105,0.68715 0.32337,1.03073c0.22232,0.34358 0.54568,0.5659 0.94988,0.70736c0.46484,0.14147 0.88926,0.12126 1.29346,-0.08085c0.384,-0.1819 0.66695,-0.5659 0.7882,-1.13178l0.28294,-1.23284c0.10105,-0.46484 0.04042,-0.88926 -0.1819,-1.27325s-0.5659,-0.66695 -1.05094,-0.80842c-0.44463,-0.14147 -0.88926,-0.08085 -1.29346,0.16168s-0.68715,0.60631 -0.80842,1.07115l-0.28294,1.19241c0,0.06064 -0.02021,0.1819 -0.02021,0.36378l0,0.00002l0,0.00001zm1.536,-5.86103c0,0.42442 0.16168,0.80842 0.50526,1.152c0.32337,0.34358 0.68715,0.50526 1.13178,0.50526c0.48505,0 0.88926,-0.16168 1.21263,-0.48505c0.32337,-0.32337 0.48505,-0.70736 0.48505,-1.19241c0,-0.46484 -0.16168,-0.86905 -0.48505,-1.19241c-0.32337,-0.32337 -0.72758,-0.48505 -1.21263,-0.48505c-0.46484,0 -0.84883,0.16168 -1.1722,0.46484c-0.30316,0.36378 -0.46484,0.768 -0.46484,1.23284l0,-0.00001l0.00001,-0.00001zm1.23284,-4.58776c-0.02021,0.32337 0.06064,0.62652 0.28294,0.90947c0.2021,0.30316 0.52547,0.50526 0.9701,0.64674c0.42442,0.12126 0.82863,0.08085 1.25305,-0.14147s0.68715,-0.5659 0.82863,-1.03073l0.5659,-1.81893c0.14147,-0.48505 0.10105,-0.92968 -0.14147,-1.31368c-0.24253,-0.384 -0.60631,-0.64674 -1.09137,-0.7882c-0.44463,-0.14147 -0.86905,-0.10105 -1.27325,0.14147c-0.40422,0.22232 -0.68715,0.5659 -0.82863,1.01052l-0.48505,1.85936c0,0.04042 -0.02021,0.12126 -0.04042,0.24253c-0.02021,0.10105 -0.04042,0.2021 -0.04042,0.28294l-0.00001,0.00001l0.00002,-0.00002zm2.36462,16.75444c0,0.36378 0.10105,0.68715 0.30316,1.01052c0.2021,0.32337 0.52547,0.54568 0.9701,0.66695c0.16168,0.04042 0.34358,0.06064 0.50526,0.06064c0.86905,0 1.39452,-0.40422 1.59662,-1.23284l0.28294,-1.19241c0.12126,-0.52547 0.06064,-0.9701 -0.16168,-1.37431c-0.24253,-0.40422 -0.5861,-0.64674 -1.05094,-0.74779c-0.42442,-0.14147 -0.84883,-0.10105 -1.27325,0.14147c-0.42442,0.24253 -0.68715,0.5861 -0.82863,1.03073l-0.28294,1.19241c-0.04042,0.1819 -0.06064,0.32337 -0.06064,0.44463l-0.00001,0zm1.5562,-5.86103c0,0.44463 0.16168,0.82863 0.50526,1.1722c0.32337,0.32337 0.70736,0.48505 1.152,0.48505c0.48505,0 0.86905,-0.16168 1.19241,-0.46484c0.32337,-0.32337 0.46484,-0.70736 0.46484,-1.19241c0,-0.46484 -0.16168,-0.84883 -0.46484,-1.1722c-0.32337,-0.32337 -0.70736,-0.46484 -1.19241,-0.46484c-0.48505,0 -0.86905,0.16168 -1.19241,0.46484s-0.46484,0.70736 -0.46484,1.1722zm1.27325,-4.58776c-0.02021,0.30316 0.06064,0.62652 0.26273,0.94988c0.2021,0.32337 0.50526,0.52547 0.90947,0.60631c0.46484,0.12126 0.88926,0.08085 1.29346,-0.12126s0.66695,-0.5861 0.82863,-1.13178l0.54568,-1.81893c0.14147,-0.44463 0.10105,-0.86905 -0.14147,-1.27325c-0.24253,-0.40422 -0.5861,-0.66695 -1.07115,-0.80842c-0.44463,-0.14147 -0.86905,-0.08085 -1.29346,0.16168c-0.42442,0.24253 -0.68715,0.60631 -0.82863,1.07115l-0.46484,1.81893c-0.02021,0.16168 -0.04042,0.34358 -0.04042,0.54568l-0.00001,0.00001l0.00002,0zm5.57808,4.34524c0,0.32337 0.10105,0.64674 0.30316,0.9701c0.2021,0.32337 0.52547,0.54568 0.92968,0.66695c0.06064,0 0.16168,0.02021 0.28294,0.04042c0.12126,0.02021 0.2021,0.04042 0.28294,0.04042c0.82863,0 1.33389,-0.44463 1.536,-1.33389l0.28294,-1.21263c0.14147,-0.42442 0.10105,-0.84883 -0.14147,-1.27325c-0.22232,-0.42442 -0.5659,-0.68715 -1.03073,-0.82863c-0.50526,-0.12126 -0.9701,-0.08085 -1.37431,0.16168s-0.68715,0.5861 -0.82863,1.07115l-0.1819,1.19241c0,0.04042 -0.02021,0.14147 -0.04042,0.24253s-0.02021,0.1819 -0.02021,0.26273l0,0.00002l0.00001,-0.00001zm1.49557,-5.98228c0,0.44463 0.16168,0.84883 0.50526,1.152c0.30316,0.32337 0.68715,0.48505 1.152,0.48505c0.48505,0 0.86905,-0.16168 1.19241,-0.46484s0.46484,-0.70736 0.46484,-1.1722c0,-0.48505 -0.16168,-0.86905 -0.46484,-1.19241s-0.70736,-0.46484 -1.19241,-0.46484c-0.48505,0 -0.86905,0.16168 -1.19241,0.46484c-0.30316,0.32337 -0.46484,0.70736 -0.46484,1.19241zm1.23284,-4.66861c0,0.34358 0.10105,0.66695 0.32337,0.9701c0.22232,0.30316 0.54568,0.52547 0.99032,0.64674c0.04042,0 0.12126,0.02021 0.24253,0.04042s0.22232,0.04042 0.28294,0.04042c0.2021,0 0.44463,-0.06064 0.72758,-0.1819c0.42442,-0.22232 0.70736,-0.5861 0.82863,-1.05094l0.48505,-1.81893c0.12126,-0.46484 0.08085,-0.88926 -0.16168,-1.27325c-0.22232,-0.40422 -0.5659,-0.66695 -1.03073,-0.80842c-0.46484,-0.14147 -0.88926,-0.10105 -1.29346,0.12126c-0.384,0.22232 -0.66695,0.54568 -0.7882,1.03073l-0.5659,1.83915c0,0.04042 -0.02021,0.12126 -0.04042,0.24253c0,0.06064 0,0.14147 0,0.2021l-0.00001,-0.00001z"/>
<path d="m20.34045,47.8513zm1.21263,-6.89176c0,0.42442 0.16168,0.80842 0.50526,1.152c0.32337,0.34358 0.68715,0.50526 1.13178,0.50526c0.48505,0 0.88926,-0.16168 1.21263,-0.48505c0.32337,-0.32337 0.48505,-0.70736 0.48505,-1.19241c0,-0.46484 -0.16168,-0.86905 -0.48505,-1.19241c-0.32337,-0.32337 -0.72758,-0.48505 -1.21263,-0.48505c-0.46484,0 -0.84883,0.16168 -1.1722,0.46484c-0.30316,0.36378 -0.46484,0.768 -0.46484,1.23284l0,-0.00001l0.00001,-0.00001zm5.15367,6.30564c0,0.44463 0.16168,0.82863 0.50526,1.1722c0.32337,0.32337 0.70736,0.48505 1.152,0.48505c0.48505,0 0.86905,-0.16168 1.19241,-0.46484c0.32337,-0.32337 0.46484,-0.70736 0.46484,-1.19241c0,-0.46484 -0.16168,-0.84883 -0.46484,-1.1722c-0.32337,-0.32337 -0.70736,-0.46484 -1.19241,-0.46484c-0.48505,0 -0.86905,0.16168 -1.19241,0.46484s-0.46484,0.70736 -0.46484,1.1722zm8.85216,-5.07282c0.30316,0.32337 0.68715,0.48505 1.152,0.48505c0.48505,0 0.86905,-0.16168 1.19241,-0.46484s0.46484,-0.70736 0.46484,-1.1722c0,-0.48505 -0.16168,-0.86905 -0.46484,-1.19241s-0.70736,-0.46484 -1.19241,-0.46484c-0.48505,0 -0.86905,0.16168 -1.19241,0.46484c-0.30316,0.32337 -0.46484,0.70736 -0.46484,1.19241l0.50526,1.152z"/>
</g>

<path d="m13.6624,34.33103c0,1.68953 0.62245,3.15676 1.82292,4.35723s2.68992,1.82292 4.42392,1.82292l20.63012,0c1.71177,0 3.20122,-0.60023 4.42392,-1.82292c1.22269,-1.22269 1.84516,-2.66768 1.84516,-4.35723c0,-1.68953 -0.60023,-3.15676 -1.84516,-4.35723c-1.22269,-1.20047 -2.68992,-1.82293 -4.42392,-1.82293l-3.09007,0c-0.22231,0 -0.33346,-0.11115 -0.33346,-0.33346l-0.15562,-1.08931c-0.22231,-2.08969 -1.11153,-3.84592 -2.64546,-5.22422s-3.35684,-2.06745 -5.44652,-2.06745c-2.08969,0 -3.91261,0.68915 -5.46876,2.08969c-1.55616,1.3783 -2.42315,3.13452 -2.62322,5.20199l-0.15562,0.9337c0,0.2223 -0.11115,0.33345 -0.3557,0.33345l-1.00038,0.15562c-1.6006,0.13339 -2.93445,0.80031 -4.02376,1.97854c-1.02262,1.17822 -1.57837,2.57877 -1.57837,4.20161l-0.00001,-0.00001l0,0.00002z" fill-opacity="0.2" fill="paleturquoise" filter="url(#blur_shadow)"/>

<g stroke="midnightblue" stroke-opacity="0.4" filter="url(#drop_shadow)">
<path stroke="midnightblue" d="m9.38494,33.82546c0,-2.30113 0.72035,-4.34213 2.16105,-6.143c1.44071,-1.80087 3.2616,-2.94144 5.46267,-3.46169c0.6203,-2.72133 2.02098,-4.96242 4.20205,-6.70328s4.7023,-2.62128 7.52368,-2.62128c2.76135,0 5.20255,0.86042 7.3636,2.54124c2.14106,1.70083 3.56174,3.88189 4.22206,6.56321l0.6203,0c1.78088,0 3.44169,0.44021 4.96242,1.30063s2.74134,2.061 3.62177,3.56174c0.88043,1.50073 1.34065,3.16155 1.34065,4.94242c0,2.68131 -0.92046,4.98244 -2.76135,6.90338s-4.102,2.94144 -6.76331,3.02147c-0.26012,0 -0.4002,-0.12005 -0.4002,-0.34016l0,-2.6613c0,-0.24012 0.14007,-0.36018 0.4002,-0.36018c1.72084,-0.08004 3.16155,-0.76037 4.36213,-2.041s1.80087,-2.78136 1.80087,-4.52222s-0.64031,-3.24158 -1.96097,-4.52222c-1.30063,-1.28063 -2.84138,-1.92094 -4.62226,-1.92094l-3.20156,0c-0.24012,0 -0.38019,-0.12005 -0.38019,-0.34016l-0.14007,-1.16056c-0.22011,-2.14106 -1.14056,-3.96193 -2.76135,-5.42265c-1.6408,-1.46071 -3.54173,-2.20107 -5.70279,-2.20107c-2.18107,0 -4.102,0.72035 -5.7228,2.18107c-1.6208,1.46071 -2.54124,3.2616 -2.76135,5.42265l-0.12005,1.08053c0,0.24012 -0.14007,0.36018 -0.4002,0.36018l-1.06051,0.06004c-1.6408,0.08004 -3.02147,0.74037 -4.18204,2.00098s-1.72084,2.74134 -1.72084,4.44217c0,1.74085 0.60029,3.24158 1.80087,4.52222s2.6613,1.96097 4.36213,2.041c0.22011,0 0.34016,0.12005 0.34016,0.36018l0,2.6613c0,0.22011 -0.12005,0.34016 -0.34016,0.34016c-2.68131,-0.12005 -4.94242,-1.14056 -6.80332,-3.06149s-2.74134,-4.16204 -2.74134,-6.82333l0.00003,0.00001l0.00001,-0.00003z" fill="linen" stroke-opacity="0.4" stroke-width="2.5"/>
<path fill="cornflowerblue" d="m20.01708,46.82056c0,0.34358 0.10105,0.68715 0.32337,1.03073c0.22232,0.34358 0.54568,0.5659 0.94988,0.70736c0.46484,0.14147 0.88926,0.12126 1.29346,-0.08085c0.384,-0.1819 0.66695,-0.5659 0.7882,-1.13178l0.28294,-1.23284c0.10105,-0.46484 0.04042,-0.88926 -0.1819,-1.27325s-0.5659,-0.66695 -1.05094,-0.80842c-0.44463,-0.14147 -0.88926,-0.08085 -1.29346,0.16168s-0.68715,0.60631 -0.80842,1.07115l-0.28294,1.19241c0,0.06064 -0.02021,0.1819 -0.02021,0.36378l0,0.00002l0,0.00001zm1.536,-5.86103c0,0.42442 0.16168,0.80842 0.50526,1.152c0.32337,0.34358 0.68715,0.50526 1.13178,0.50526c0.48505,0 0.88926,-0.16168 1.21263,-0.48505c0.32337,-0.32337 0.48505,-0.70736 0.48505,-1.19241c0,-0.46484 -0.16168,-0.86905 -0.48505,-1.19241c-0.32337,-0.32337 -0.72758,-0.48505 -1.21263,-0.48505c-0.46484,0 -0.84883,0.16168 -1.1722,0.46484c-0.30316,0.36378 -0.46484,0.768 -0.46484,1.23284l0,-0.00001l0.00001,-0.00001zm1.23284,-4.58776c-0.02021,0.32337 0.06064,0.62652 0.28294,0.90947c0.2021,0.30316 0.52547,0.50526 0.9701,0.64674c0.42442,0.12126 0.82863,0.08085 1.25305,-0.14147s0.68715,-0.5659 0.82863,-1.03073l0.5659,-1.81893c0.14147,-0.48505 0.10105,-0.92968 -0.14147,-1.31368c-0.24253,-0.384 -0.60631,-0.64674 -1.09137,-0.7882c-0.44463,-0.14147 -0.86905,-0.10105 -1.27325,0.14147c-0.40422,0.22232 -0.68715,0.5659 -0.82863,1.01052l-0.48505,1.85936c0,0.04042 -0.02021,0.12126 -0.04042,0.24253c-0.02021,0.10105 -0.04042,0.2021 -0.04042,0.28294l-0.00001,0.00001l0.00002,-0.00002zm2.36462,16.75444c0,0.36378 0.10105,0.68715 0.30316,1.01052c0.2021,0.32337 0.52547,0.54568 0.9701,0.66695c0.16168,0.04042 0.34358,0.06064 0.50526,0.06064c0.86905,0 1.39452,-0.40422 1.59662,-1.23284l0.28294,-1.19241c0.12126,-0.52547 0.06064,-0.9701 -0.16168,-1.37431c-0.24253,-0.40422 -0.5861,-0.64674 -1.05094,-0.74779c-0.42442,-0.14147 -0.84883,-0.10105 -1.27325,0.14147c-0.42442,0.24253 -0.68715,0.5861 -0.82863,1.03073l-0.28294,1.19241c-0.04042,0.1819 -0.06064,0.32337 -0.06064,0.44463l-0.00001,0zm1.5562,-5.86103c0,0.44463 0.16168,0.82863 0.50526,1.1722c0.32337,0.32337 0.70736,0.48505 1.152,0.48505c0.48505,0 0.86905,-0.16168 1.19241,-0.46484c0.32337,-0.32337 0.46484,-0.70736 0.46484,-1.19241c0,-0.46484 -0.16168,-0.84883 -0.46484,-1.1722c-0.32337,-0.32337 -0.70736,-0.46484 -1.19241,-0.46484c-0.48505,0 -0.86905,0.16168 -1.19241,0.46484s-0.46484,0.70736 -0.46484,1.1722zm1.27325,-4.58776c-0.02021,0.30316 0.06064,0.62652 0.26273,0.94988c0.2021,0.32337 0.50526,0.52547 0.90947,0.60631c0.46484,0.12126 0.88926,0.08085 1.29346,-0.12126s0.66695,-0.5861 0.82863,-1.13178l0.54568,-1.81893c0.14147,-0.44463 0.10105,-0.86905 -0.14147,-1.27325c-0.24253,-0.40422 -0.5861,-0.66695 -1.07115,-0.80842c-0.44463,-0.14147 -0.86905,-0.08085 -1.29346,0.16168c-0.42442,0.24253 -0.68715,0.60631 -0.82863,1.07115l-0.46484,1.81893c-0.02021,0.16168 -0.04042,0.34358 -0.04042,0.54568l-0.00001,0.00001l0.00002,0zm5.57808,4.34524c0,0.32337 0.10105,0.64674 0.30316,0.9701c0.2021,0.32337 0.52547,0.54568 0.92968,0.66695c0.06064,0 0.16168,0.02021 0.28294,0.04042c0.12126,0.02021 0.2021,0.04042 0.28294,0.04042c0.82863,0 1.33389,-0.44463 1.536,-1.33389l0.28294,-1.21263c0.14147,-0.42442 0.10105,-0.84883 -0.14147,-1.27325c-0.22232,-0.42442 -0.5659,-0.68715 -1.03073,-0.82863c-0.50526,-0.12126 -0.9701,-0.08085 -1.37431,0.16168s-0.68715,0.5861 -0.82863,1.07115l-0.1819,1.19241c0,0.04042 -0.02021,0.14147 -0.04042,0.24253s-0.02021,0.1819 -0.02021,0.26273l0,0.00002l0.00001,-0.00001zm1.49557,-5.98228c0,0.44463 0.16168,0.84883 0.50526,1.152c0.30316,0.32337 0.68715,0.48505 1.152,0.48505c0.48505,0 0.86905,-0.16168 1.19241,-0.46484s0.46484,-0.70736 0.46484,-1.1722c0,-0.48505 -0.16168,-0.86905 -0.46484,-1.19241s-0.70736,-0.46484 -1.19241,-0.46484c-0.48505,0 -0.86905,0.16168 -1.19241,0.46484c-0.30316,0.32337 -0.46484,0.70736 -0.46484,1.19241zm1.23284,-4.66861c0,0.34358 0.10105,0.66695 0.32337,0.9701c0.22232,0.30316 0.54568,0.52547 0.99032,0.64674c0.04042,0 0.12126,0.02021 0.24253,0.04042s0.22232,0.04042 0.28294,0.04042c0.2021,0 0.44463,-0.06064 0.72758,-0.1819c0.42442,-0.22232 0.70736,-0.5861 0.82863,-1.05094l0.48505,-1.81893c0.12126,-0.46484 0.08085,-0.88926 -0.16168,-1.27325c-0.22232,-0.40422 -0.5659,-0.66695 -1.03073,-0.80842c-0.46484,-0.14147 -0.88926,-0.10105 -1.29346,0.12126c-0.384,0.22232 -0.66695,0.54568 -0.7882,1.03073l-0.5659,1.83915c0,0.04042 -0.02021,0.12126 -0.04042,0.24253c0,0.06064 0,0.14147 0,0.2021l-0.00001,-0.00001z"/>
<path fill="white" d="m20.34045,47.8513zm1.21263,-6.89176c0,0.42442 0.16168,0.80842 0.50526,1.152c0.32337,0.34358 0.68715,0.50526 1.13178,0.50526c0.48505,0 0.88926,-0.16168 1.21263,-0.48505c0.32337,-0.32337 0.48505,-0.70736 0.48505,-1.19241c0,-0.46484 -0.16168,-0.86905 -0.48505,-1.19241c-0.32337,-0.32337 -0.72758,-0.48505 -1.21263,-0.48505c-0.46484,0 -0.84883,0.16168 -1.1722,0.46484c-0.30316,0.36378 -0.46484,0.768 -0.46484,1.23284l0,-0.00001l0.00001,-0.00001zm5.15367,6.30564c0,0.44463 0.16168,0.82863 0.50526,1.1722c0.32337,0.32337 0.70736,0.48505 1.152,0.48505c0.48505,0 0.86905,-0.16168 1.19241,-0.46484c0.32337,-0.32337 0.46484,-0.70736 0.46484,-1.19241c0,-0.46484 -0.16168,-0.84883 -0.46484,-1.1722c-0.32337,-0.32337 -0.70736,-0.46484 -1.19241,-0.46484c-0.48505,0 -0.86905,0.16168 -1.19241,0.46484s-0.46484,0.70736 -0.46484,1.1722zm8.85216,-5.07282c0.30316,0.32337 0.68715,0.48505 1.152,0.48505c0.48505,0 0.86905,-0.16168 1.19241,-0.46484s0.46484,-0.70736 0.46484,-1.1722c0,-0.48505 -0.16168,-0.86905 -0.46484,-1.19241s-0.70736,-0.46484 -1.19241,-0.46484c-0.48505,0 -0.86905,0.16168 -1.19241,0.46484c-0.30316,0.32337 -0.46484,0.70736 -0.46484,1.19241l0.50526,1.152z"/>
</g>

</svg>
