<svg width="60" height="60" xmlns="http://www.w3.org/2000/svg">

  <defs>
    <filter id="drop_shadow" filterUnits="objectBoundingBox" x="-50%" y="-50%" width="200%" height="200%">
      <feDropShadow dx="0.5" dy="0.5" stdDeviation="2" flood-color="black" flood-opacity="0.8" />
    </filter>
    <filter id="blur_shadow" filterUnits="objectBoundingBox" x="-50%" y="-50%" width="200%" height="200%">
      <feGaussianBlur in="SourceGraphic" stdDeviation="3" />
    </filter>
  </defs>

   <path filter="url(#blur_shadow)" d="m10.77608,29.31525c0,-0.43444 0.14482,-0.81457 0.45254,-1.1223c0.30773,-0.28962 0.68786,-0.43444 1.08609,-0.43444l3.69273,0c0.41634,0 0.76027,0.14482 1.0499,0.45254c0.27152,0.30773 0.41634,0.66976 0.41634,1.1042s-0.12671,0.79647 -0.39823,1.1042c-0.27152,0.30773 -0.63356,0.45254 -1.0499,0.45254l-3.69273,0c-0.41634,0 -0.77837,-0.14482 -1.08609,-0.45254c-0.30773,-0.30773 -0.47064,-0.66976 -0.47064,-1.1042l-0.00001,0zm5.17706,12.54442c0,-0.41634 0.14482,-0.77837 0.41634,-1.1042l2.66094,-2.58853c0.27152,-0.28962 0.63356,-0.41634 1.06799,-0.41634c0.43444,0 0.79647,0.14482 1.08609,0.41634s0.43444,0.61546 0.43444,1.03179c0,0.43444 -0.14482,0.83268 -0.43444,1.15851l-2.57043,2.57043c-0.74217,0.57925 -1.48433,0.57925 -2.2265,0c-0.28962,-0.28962 -0.43444,-0.65166 -0.43444,-1.06799l0.00001,-0.00001zm0,-25.05264c0,-0.41634 0.14482,-0.77837 0.41634,-1.1042c0.36203,-0.30773 0.74217,-0.45254 1.15851,-0.45254c0.39823,0 0.76027,0.14482 1.06799,0.43444l2.58853,2.66094c0.28962,0.27152 0.43444,0.63356 0.43444,1.06799c0,0.43444 -0.14482,0.79647 -0.43444,1.08609s-0.65166,0.43444 -1.08609,0.43444c-0.43444,0 -0.79647,-0.14482 -1.06799,-0.43444l-2.64284,-2.58853c-0.28962,-0.28962 -0.43444,-0.66976 -0.43444,-1.1042l-0.00001,0.00001zm4.61592,12.50822c0,-1.68345 0.41634,-3.25829 1.26712,-4.70642s1.99117,-2.60663 3.45741,-3.45741s3.02297,-1.26712 4.70642,-1.26712c1.26712,0 2.47992,0.25343 3.65653,0.76027c1.15851,0.50685 2.1722,1.1766 3.00486,2.02738c0.85078,0.85078 1.52054,1.84637 2.00928,3.00486c0.48874,1.15851 0.74217,2.38941 0.74217,3.65653c0,1.70155 -0.41634,3.27639 -1.26712,4.72453c-0.85078,1.44813 -1.99117,2.58853 -3.43931,3.43931c-1.44813,0.85078 -3.02297,1.26712 -4.72453,1.26712s-3.27639,-0.41634 -4.72453,-1.26712c-1.44813,-0.85078 -2.58853,-1.99117 -3.43931,-3.43931c-0.81457,-1.46623 -1.24901,-3.04107 -1.24901,-4.74262l0.00001,0zm3.07728,0c0,1.77396 0.61546,3.27639 1.86447,4.5254c1.23091,1.24901 2.73334,1.88256 4.5073,1.88256s3.27639,-0.63356 4.5254,-1.88256s1.88256,-2.75145 1.88256,-4.5254c0,-1.73776 -0.63356,-3.22209 -1.88256,-4.4711c-1.24901,-1.23091 -2.75145,-1.84637 -4.5254,-1.84637c-1.75586,0 -3.25829,0.61546 -4.4892,1.84637c-1.26712,1.24901 -1.88256,2.73334 -1.88256,4.4711l-0.00001,0zm4.81503,14.08305c0,-0.43444 0.14482,-0.79647 0.45254,-1.08609s0.66976,-0.43444 1.08609,-0.43444c0.43444,0 0.81457,0.14482 1.1042,0.43444s0.43444,0.65166 0.43444,1.08609l0,3.60222c0,0.43444 -0.14482,0.81457 -0.45254,1.1223c-0.30773,0.30773 -0.66976,0.45254 -1.08609,0.45254s-0.79647,-0.14482 -1.08609,-0.45254c-0.30773,-0.30773 -0.45254,-0.68786 -0.45254,-1.1223l0,-3.60222zm0,-28.0575l0,-3.69273c0,-0.41634 0.14482,-0.77837 0.45254,-1.08609c0.30773,-0.30773 0.66976,-0.47064 1.1042,-0.47064s0.77837,0.14482 1.08609,0.45254c0.30773,0.30773 0.45254,0.66976 0.45254,1.08609l0,3.71083c0,0.41634 -0.14482,0.76027 -0.45254,1.0499s-0.66976,0.41634 -1.08609,0.41634s-0.79647,-0.14482 -1.08609,-0.41634s-0.47064,-0.63356 -0.47064,-1.0499l-0.00001,0zm9.99209,23.85793c0,-0.41634 0.14482,-0.76027 0.41634,-1.01369c0.27152,-0.28962 0.61546,-0.41634 1.01369,-0.41634c0.43444,0 0.79647,0.14482 1.08609,0.41634l2.64284,2.58853c0.28962,0.30773 0.43444,0.68786 0.43444,1.1042c0,0.41634 -0.14482,0.77837 -0.43444,1.06799c-0.72407,0.56115 -1.44813,0.56115 -2.1722,0l-2.57043,-2.57043c-0.27152,-0.32583 -0.41634,-0.70596 -0.41634,-1.1766l0.00001,0zm0,-19.76697c0,-0.45254 0.14482,-0.81457 0.41634,-1.06799l2.57043,-2.66094c0.30773,-0.28962 0.66976,-0.43444 1.06799,-0.43444c0.43444,0 0.79647,0.14482 1.08609,0.45254c0.30773,0.30773 0.45254,0.66976 0.45254,1.08609c0,0.45254 -0.14482,0.83268 -0.43444,1.1223l-2.64284,2.58853c-0.32583,0.28962 -0.68786,0.43444 -1.08609,0.43444c-0.41634,0 -0.74217,-0.14482 -1.01369,-0.43444s-0.41634,-0.65166 -0.41634,-1.08609l0,-0.00001zm4.09097,9.88348c0,-0.43444 0.14482,-0.79647 0.43444,-1.1223c0.28962,-0.28962 0.63356,-0.43444 1.03179,-0.43444l3.65653,0c0.41634,0 0.77837,0.16291 1.08609,0.47064c0.30773,0.30773 0.47064,0.66976 0.47064,1.08609s-0.16291,0.77837 -0.47064,1.08609c-0.30773,0.30773 -0.66976,0.45254 -1.08609,0.45254l-3.65653,0c-0.41634,0 -0.77837,-0.14482 -1.0499,-0.45254s-0.41634,-0.65166 -0.41634,-1.08609l0,0.00001z" fill="black"/>
<g>
    <circle r="10.28132" cy="29.33335" cx="30" fill-opacity="0.4" fill="#FFFF99"/>
    <path stroke="midnightblue" filter="url(#drop_shadow)" stroke-opacity="0.4" stroke-width="2" fill="yellow" d="m10.77608,29.31525c0,-0.43444 0.14482,-0.81457 0.45254,-1.1223c0.30773,-0.28962 0.68786,-0.43444 1.08609,-0.43444l3.69273,0c0.41634,0 0.76027,0.14482 1.0499,0.45254c0.27152,0.30773 0.41634,0.66976 0.41634,1.1042s-0.12671,0.79647 -0.39823,1.1042c-0.27152,0.30773 -0.63356,0.45254 -1.0499,0.45254l-3.69273,0c-0.41634,0 -0.77837,-0.14482 -1.08609,-0.45254c-0.30773,-0.30773 -0.47064,-0.66976 -0.47064,-1.1042l-0.00001,0zm5.17706,12.54442c0,-0.41634 0.14482,-0.77837 0.41634,-1.1042l2.66094,-2.58853c0.27152,-0.28962 0.63356,-0.41634 1.06799,-0.41634c0.43444,0 0.79647,0.14482 1.08609,0.41634s0.43444,0.61546 0.43444,1.03179c0,0.43444 -0.14482,0.83268 -0.43444,1.15851l-2.57043,2.57043c-0.74217,0.57925 -1.48433,0.57925 -2.2265,0c-0.28962,-0.28962 -0.43444,-0.65166 -0.43444,-1.06799l0.00001,-0.00001zm0,-25.05264c0,-0.41634 0.14482,-0.77837 0.41634,-1.1042c0.36203,-0.30773 0.74217,-0.45254 1.15851,-0.45254c0.39823,0 0.76027,0.14482 1.06799,0.43444l2.58853,2.66094c0.28962,0.27152 0.43444,0.63356 0.43444,1.06799c0,0.43444 -0.14482,0.79647 -0.43444,1.08609s-0.65166,0.43444 -1.08609,0.43444c-0.43444,0 -0.79647,-0.14482 -1.06799,-0.43444l-2.64284,-2.58853c-0.28962,-0.28962 -0.43444,-0.66976 -0.43444,-1.1042l-0.00001,0.00001zm4.61592,12.50822c0,-1.68345 0.41634,-3.25829 1.26712,-4.70642s1.99117,-2.60663 3.45741,-3.45741s3.02297,-1.26712 4.70642,-1.26712c1.26712,0 2.47992,0.25343 3.65653,0.76027c1.15851,0.50685 2.1722,1.1766 3.00486,2.02738c0.85078,0.85078 1.52054,1.84637 2.00928,3.00486c0.48874,1.15851 0.74217,2.38941 0.74217,3.65653c0,1.70155 -0.41634,3.27639 -1.26712,4.72453c-0.85078,1.44813 -1.99117,2.58853 -3.43931,3.43931c-1.44813,0.85078 -3.02297,1.26712 -4.72453,1.26712s-3.27639,-0.41634 -4.72453,-1.26712c-1.44813,-0.85078 -2.58853,-1.99117 -3.43931,-3.43931c-0.81457,-1.46623 -1.24901,-3.04107 -1.24901,-4.74262l0.00001,0zm3.07728,0c0,1.77396 0.61546,3.27639 1.86447,4.5254c1.23091,1.24901 2.73334,1.88256 4.5073,1.88256s3.27639,-0.63356 4.5254,-1.88256s1.88256,-2.75145 1.88256,-4.5254c0,-1.73776 -0.63356,-3.22209 -1.88256,-4.4711c-1.24901,-1.23091 -2.75145,-1.84637 -4.5254,-1.84637c-1.75586,0 -3.25829,0.61546 -4.4892,1.84637c-1.26712,1.24901 -1.88256,2.73334 -1.88256,4.4711l-0.00001,0zm4.81503,14.08305c0,-0.43444 0.14482,-0.79647 0.45254,-1.08609s0.66976,-0.43444 1.08609,-0.43444c0.43444,0 0.81457,0.14482 1.1042,0.43444s0.43444,0.65166 0.43444,1.08609l0,3.60222c0,0.43444 -0.14482,0.81457 -0.45254,1.1223c-0.30773,0.30773 -0.66976,0.45254 -1.08609,0.45254s-0.79647,-0.14482 -1.08609,-0.45254c-0.30773,-0.30773 -0.45254,-0.68786 -0.45254,-1.1223l0,-3.60222zm0,-28.0575l0,-3.69273c0,-0.41634 0.14482,-0.77837 0.45254,-1.08609c0.30773,-0.30773 0.66976,-0.47064 1.1042,-0.47064s0.77837,0.14482 1.08609,0.45254c0.30773,0.30773 0.45254,0.66976 0.45254,1.08609l0,3.71083c0,0.41634 -0.14482,0.76027 -0.45254,1.0499s-0.66976,0.41634 -1.08609,0.41634s-0.79647,-0.14482 -1.08609,-0.41634s-0.47064,-0.63356 -0.47064,-1.0499l-0.00001,0zm9.99209,23.85793c0,-0.41634 0.14482,-0.76027 0.41634,-1.01369c0.27152,-0.28962 0.61546,-0.41634 1.01369,-0.41634c0.43444,0 0.79647,0.14482 1.08609,0.41634l2.64284,2.58853c0.28962,0.30773 0.43444,0.68786 0.43444,1.1042c0,0.41634 -0.14482,0.77837 -0.43444,1.06799c-0.72407,0.56115 -1.44813,0.56115 -2.1722,0l-2.57043,-2.57043c-0.27152,-0.32583 -0.41634,-0.70596 -0.41634,-1.1766l0.00001,0zm0,-19.76697c0,-0.45254 0.14482,-0.81457 0.41634,-1.06799l2.57043,-2.66094c0.30773,-0.28962 0.66976,-0.43444 1.06799,-0.43444c0.43444,0 0.79647,0.14482 1.08609,0.45254c0.30773,0.30773 0.45254,0.66976 0.45254,1.08609c0,0.45254 -0.14482,0.83268 -0.43444,1.1223l-2.64284,2.58853c-0.32583,0.28962 -0.68786,0.43444 -1.08609,0.43444c-0.41634,0 -0.74217,-0.14482 -1.01369,-0.43444s-0.41634,-0.65166 -0.41634,-1.08609l0,-0.00001zm4.09097,9.88348c0,-0.43444 0.14482,-0.79647 0.43444,-1.1223c0.28962,-0.28962 0.63356,-0.43444 1.03179,-0.43444l3.65653,0c0.41634,0 0.77837,0.16291 1.08609,0.47064c0.30773,0.30773 0.47064,0.66976 0.47064,1.08609s-0.16291,0.77837 -0.47064,1.08609c-0.30773,0.30773 -0.66976,0.45254 -1.08609,0.45254l-3.65653,0c-0.41634,0 -0.77837,-0.14482 -1.0499,-0.45254s-0.41634,-0.65166 -0.41634,-1.08609l0,0.00001z"/>
</g>

</svg>
