<svg width="60" height="60" xmlns="http://www.w3.org/2000/svg">


  <defs>
    <filter id="drop_shadow" filterUnits="objectBoundingBox" x="-50%" y="-50%" width="200%" height="200%">
      <feDropShadow dx="0.5" dy="0.5" stdDeviation="2" flood-color="black" flood-opacity="0.8" />
    </filter>
    <filter id="blur_shadow" filterUnits="objectBoundingBox" x="-50%" y="-50%" width="200%" height="200%">
      <feGaussianBlur in="SourceGraphic" stdDeviation="3" />
    </filter>
  </defs>
<g>
<path fill="black" style="filter:url(#blur_shadow)" d="m7.81195,35.22243c0,-1.97062 0.61706,-3.74217 1.85118,-5.27488s2.80663,-2.52796 4.73743,-2.96587c0.51754,-2.32891 1.69194,-4.25971 3.54312,-5.73269c1.85118,-1.49289 3.98104,-2.22938 6.40947,-2.22938c2.34881,0 4.45876,0.71658 6.29004,2.16967c1.85118,1.45308 3.04549,3.30426 3.58293,5.57345l0.53744,0c2.34881,0 4.33933,0.81611 5.99146,2.46824s2.48815,3.64265 2.48815,5.97156c0,2.34881 -0.83602,4.33933 -2.48815,5.99146s-3.64265,2.48815 -5.99146,2.48815l-18.4521,0c-1.1545,0 -2.24929,-0.21896 -3.28436,-0.67678s-1.97062,-1.01517 -2.72701,-1.77156c-0.7564,-0.7564 -1.35356,-1.67203 -1.81137,-2.7071s-0.67678,-2.16967 -0.67678,-3.30426l0.00001,0zm2.88625,0c0,1.51279 0.55734,2.82653 1.63223,3.90142s2.40853,1.63223 3.96114,1.63223l18.47201,0c1.5327,0 2.86635,-0.53744 3.96114,-1.63223c1.09479,-1.09479 1.65213,-2.38862 1.65213,-3.90142c0,-1.51279 -0.53744,-2.82653 -1.65213,-3.90142c-1.09479,-1.07488 -2.40853,-1.63223 -3.96114,-1.63223l-2.76682,0c-0.19905,0 -0.29857,-0.09952 -0.29857,-0.29857l-0.13934,-0.97535c-0.19905,-1.87109 -0.99526,-3.4436 -2.36871,-4.67772s-3.00569,-1.85118 -4.87677,-1.85118c-1.87109,0 -3.50331,0.61706 -4.89667,1.87109c-1.39336,1.23412 -2.16967,2.80663 -2.34881,4.65782l-0.13934,0.83602c0,0.19905 -0.09952,0.29857 -0.31849,0.29857l-0.89573,0.13934c-1.43317,0.11943 -2.62748,0.71658 -3.60283,1.77156c-0.91564,1.05497 -1.41327,2.30901 -1.41327,3.76208l-0.00001,-0.00001zm17.61608,-17.35732c-0.19905,0.17915 -0.15924,0.31849 0.13934,0.41801c0.85592,0.3782 1.57251,0.73649 2.14976,1.09479c0.21896,0.05972 0.3782,0.03981 0.43791,-0.05972c1.21422,-1.1346 2.60758,-1.71185 4.2199,-1.71185c1.61232,0 2.98577,0.53744 4.18009,1.61232c1.1744,1.07488 1.83128,2.40853 1.97062,3.98104l0.17915,1.27393l2.82653,0c1.29384,0 2.40853,0.45782 3.34407,1.39336c0.93555,0.93555 1.39336,2.03033 1.39336,3.30426c0,1.19431 -0.41801,2.22938 -1.23412,3.12511s-1.83128,1.39336 -3.04549,1.5327c-0.19905,0 -0.29857,0.09952 -0.29857,0.31849l0,2.24929c0,0.21896 0.09952,0.31849 0.29857,0.31849c2.01042,-0.11943 3.70237,-0.91564 5.07582,-2.36871s2.07014,-3.18483 2.07014,-5.17534c0,-2.10995 -0.73649,-3.90142 -2.22938,-5.3744c-1.49289,-1.49289 -3.28436,-2.22938 -5.3744,-2.22938l-0.29857,0c-0.51754,-1.99052 -1.61232,-3.62275 -3.28436,-4.91658c-1.65213,-1.29384 -3.52321,-1.9308 -5.57345,-1.9308c-2.78673,-0.0199 -5.11563,1.03507 -6.94691,3.14502l0,-0.00002z"/>
   <g stroke="midnightblue" filter="url(#drop_shadow)" stroke-opacity="0.4">
    <path d="m7.81195,35.22243c0,-1.97062 0.61706,-3.74217 1.85118,-5.27488s2.80663,-2.52796 4.73743,-2.96587c0.51754,-2.32891 1.69194,-4.25971 3.54312,-5.73269c1.85118,-1.49289 3.98104,-2.22938 6.40947,-2.22938c2.34881,0 4.45876,0.71658 6.29004,2.16967c1.85118,1.45308 3.04549,3.30426 3.58293,5.57345l0.53744,0c2.34881,0 4.33933,0.81611 5.99146,2.46824s2.48815,3.64265 2.48815,5.97156c0,2.34881 -0.83602,4.33933 -2.48815,5.99146s-3.64265,2.48815 -5.99146,2.48815l-18.4521,0c-1.1545,0 -2.24929,-0.21896 -3.28436,-0.67678s-1.97062,-1.01517 -2.72701,-1.77156c-0.7564,-0.7564 -1.35356,-1.67203 -1.81137,-2.7071s-0.67678,-2.16967 -0.67678,-3.30426l0.00001,0zm2.88625,0c0,1.51279 0.55734,2.82653 1.63223,3.90142s2.40853,1.63223 3.96114,1.63223l18.47201,0c1.5327,0 2.86635,-0.53744 3.96114,-1.63223c1.09479,-1.09479 1.65213,-2.38862 1.65213,-3.90142c0,-1.51279 -0.53744,-2.82653 -1.65213,-3.90142c-1.09479,-1.07488 -2.40853,-1.63223 -3.96114,-1.63223l-2.76682,0c-0.19905,0 -0.29857,-0.09952 -0.29857,-0.29857l-0.13934,-0.97535c-0.19905,-1.87109 -0.99526,-3.4436 -2.36871,-4.67772s-3.00569,-1.85118 -4.87677,-1.85118c-1.87109,0 -3.50331,0.61706 -4.89667,1.87109c-1.39336,1.23412 -2.16967,2.80663 -2.34881,4.65782l-0.13934,0.83602c0,0.19905 -0.09952,0.29857 -0.31849,0.29857l-0.89573,0.13934c-1.43317,0.11943 -2.62748,0.71658 -3.60283,1.77156c-0.91564,1.05497 -1.41327,2.30901 -1.41327,3.76208l-0.00001,-0.00001zm17.61608,-17.35732c-0.19905,0.17915 -0.15924,0.31849 0.13934,0.41801c0.85592,0.3782 1.57251,0.73649 2.14976,1.09479c0.21896,0.05972 0.3782,0.03981 0.43791,-0.05972c1.21422,-1.1346 2.60758,-1.71185 4.2199,-1.71185c1.61232,0 2.98577,0.53744 4.18009,1.61232c1.1744,1.07488 1.83128,2.40853 1.97062,3.98104l0.17915,1.27393l2.82653,0c1.29384,0 2.40853,0.45782 3.34407,1.39336c0.93555,0.93555 1.39336,2.03033 1.39336,3.30426c0,1.19431 -0.41801,2.22938 -1.23412,3.12511s-1.83128,1.39336 -3.04549,1.5327c-0.19905,0 -0.29857,0.09952 -0.29857,0.31849l0,2.24929c0,0.21896 0.09952,0.31849 0.29857,0.31849c2.01042,-0.11943 3.70237,-0.91564 5.07582,-2.36871s2.07014,-3.18483 2.07014,-5.17534c0,-2.10995 -0.73649,-3.90142 -2.22938,-5.3744c-1.49289,-1.49289 -3.28436,-2.22938 -5.3744,-2.22938l-0.29857,0c-0.51754,-1.99052 -1.61232,-3.62275 -3.28436,-4.91658c-1.65213,-1.29384 -3.52321,-1.9308 -5.57345,-1.9308c-2.78673,-0.0199 -5.11563,1.03507 -6.94691,3.14502l0,-0.00002z" fill="linen" stroke-width="2.5"/>
    <path d="m10.99571,35.0721c0,1.51279 0.55734,2.82653 1.63223,3.90142s2.40853,1.63223 3.96114,1.63223l18.47201,0c1.5327,0 2.86635,-0.53744 3.96114,-1.63223c1.09479,-1.09479 1.65213,-2.38862 1.65213,-3.90142c0,-1.51279 -0.53744,-2.82653 -1.65213,-3.90142c-1.09479,-1.07488 -2.40853,-1.63223 -3.96114,-1.63223l-2.76682,0c-0.19905,0 -0.29857,-0.09952 -0.29857,-0.29857l-0.13934,-0.97535c-0.19905,-1.87109 -0.99526,-3.4436 -2.36871,-4.67772s-3.00569,-1.85118 -4.87677,-1.85118c-1.87109,0 -3.50331,0.61706 -4.89667,1.87109c-1.39336,1.23412 -2.16967,2.80663 -2.34881,4.65782l-0.13934,0.83602c0,0.19905 -0.09952,0.29857 -0.31849,0.29857l-0.89573,0.13934c-1.43317,0.11943 -2.62748,0.71658 -3.60283,1.77156c-0.91564,1.05497 -1.41327,2.30901 -1.41327,3.76208l-0.00001,-0.00001z" fill-opacity="0.4" fill="paleturquoise"/>
  </g>
</g>
</svg>
