<svg width="60" height="60" xmlns="http://www.w3.org/2000/svg">
  <g stroke-opacity="0.2" stroke="midnightblue">
   <path d="m4.88681,31.56908c0,-2.78632 0.87224,-5.25766 2.61671,-7.43825c1.74448,-2.18059 3.9493,-3.56164 6.61447,-4.19159c0.75109,-3.29512 2.44711,-6.00875 5.08805,-8.11666s5.69378,-3.17398 9.11004,-3.17398c3.34358,0 6.2995,1.04184 8.91621,3.07706c2.59249,2.05945 4.31273,4.70039 5.11228,7.94706l0.75109,0c2.15637,0 4.16736,0.53303 6.00875,1.57487s3.31935,2.49557 4.38542,4.31273c1.06607,1.81716 1.62333,3.82816 1.62333,5.98452c0,3.24666 -1.11453,6.03298 -3.34358,8.35895s-4.96691,3.56164 -8.18935,3.65855c-0.31497,0 -0.48458,-0.14537 -0.48458,-0.41189l0,-3.22243c0,-0.29075 0.1696,-0.43612 0.48458,-0.43612c2.08368,-0.09692 3.82816,-0.9207 5.28189,-2.47134s2.18059,-3.36781 2.18059,-5.47572s-0.77532,-3.92507 -2.37443,-5.47572c-1.57487,-1.55065 -3.44049,-2.32597 -5.59686,-2.32597l-3.87661,0c-0.29075,0 -0.46035,-0.14537 -0.46035,-0.41189l-0.1696,-1.40527c-0.26652,-2.59249 -1.38104,-4.79731 -3.34358,-6.56601c-1.98676,-1.7687 -4.2885,-2.66517 -6.90522,-2.66517c-2.64094,0 -4.96691,0.87224 -6.92945,2.64094c-1.96254,1.7687 -3.07706,3.9493 -3.34358,6.56601l-0.14537,1.30836c0,0.29075 -0.1696,0.43612 -0.48458,0.43612l-1.28413,0.07269c-1.98676,0.09692 -3.65855,0.89647 -5.06383,2.42288s-2.08368,3.31935 -2.08368,5.3788c0,2.10791 0.72686,3.92507 2.18059,5.47572s3.22243,2.37443 5.28189,2.47134c0.26652,0 0.41189,0.14537 0.41189,0.43612l0,3.22243c0,0.26652 -0.14537,0.41189 -0.41189,0.41189c-3.24666,-0.14537 -5.98452,-1.38104 -8.2378,-3.70701s-3.31935,-5.0396 -3.31935,-8.26203l0.00004,0.00001z" fill="linen" stroke-opacity="0.4" stroke="midnightblue" stroke-width="2.5"/>
  <path fill="cornflowerblue" d="m17.76073,47.30419c0,0.41602 0.12236,0.83204 0.39155,1.24806c0.26919,0.41602 0.66074,0.68521 1.15017,0.85651c0.56285,0.1713 1.07676,0.14683 1.56619,-0.09789c0.46496,-0.22025 0.80757,-0.68521 0.9544,-1.37042l0.3426,-1.49278c0.12236,-0.56285 0.04894,-1.07676 -0.22025,-1.54172s-0.68521,-0.80757 -1.27253,-0.97887c-0.53838,-0.1713 -1.07676,-0.09789 -1.56619,0.19577s-0.83204,0.73415 -0.97887,1.297l-0.3426,1.44383c0,0.07342 -0.02447,0.22025 -0.02447,0.44049l0,0.00002zm1.85986,-7.09682c0,0.51391 0.19577,0.97887 0.61179,1.39489c0.39155,0.41602 0.83204,0.61179 1.37042,0.61179c0.58732,0 1.07676,-0.19577 1.46831,-0.58732c0.39155,-0.39155 0.58732,-0.85651 0.58732,-1.44383c0,-0.56285 -0.19577,-1.05229 -0.58732,-1.44383c-0.39155,-0.39155 -0.88098,-0.58732 -1.46831,-0.58732c-0.56285,0 -1.02781,0.19577 -1.41936,0.56285c-0.36708,0.44049 -0.56285,0.92993 -0.56285,1.49278l0,-0.00001zm1.49278,-5.55509c-0.02447,0.39155 0.07342,0.75863 0.3426,1.10123c0.24472,0.36708 0.63627,0.61179 1.17465,0.7831c0.51391,0.14683 1.00334,0.09789 1.51725,-0.1713s0.83204,-0.68521 1.00334,-1.24806l0.68521,-2.20246c0.1713,-0.58732 0.12236,-1.1257 -0.1713,-1.59067c-0.29366,-0.46496 -0.73415,-0.7831 -1.32148,-0.9544c-0.53838,-0.1713 -1.05229,-0.12236 -1.54172,0.1713c-0.48944,0.26919 -0.83204,0.68521 -1.00334,1.22359l-0.58732,2.2514c0,0.04894 -0.02447,0.14683 -0.04894,0.29366c-0.02447,0.12236 -0.04894,0.24472 -0.04894,0.3426l-0.00001,0.00001zm2.8632,20.2871c0,0.44049 0.12236,0.83204 0.36708,1.22359c0.24472,0.39155 0.63627,0.66074 1.17465,0.80757c0.19577,0.04894 0.41602,0.07342 0.61179,0.07342c1.05229,0 1.68855,-0.48944 1.93327,-1.49278l0.3426,-1.44383c0.14683,-0.63627 0.07342,-1.17465 -0.19577,-1.66408c-0.29366,-0.48944 -0.70968,-0.7831 -1.27253,-0.90546c-0.51391,-0.1713 -1.02781,-0.12236 -1.54172,0.1713c-0.51391,0.29366 -0.83204,0.70968 -1.00334,1.24806l-0.3426,1.44383c-0.04894,0.22025 -0.07342,0.39155 -0.07342,0.53838l-0.00001,0zm1.88433,-7.09682c0,0.53838 0.19577,1.00334 0.61179,1.41936c0.39155,0.39155 0.85651,0.58732 1.39489,0.58732c0.58732,0 1.05229,-0.19577 1.44383,-0.56285c0.39155,-0.39155 0.56285,-0.85651 0.56285,-1.44383c0,-0.56285 -0.19577,-1.02781 -0.56285,-1.41936c-0.39155,-0.39155 -0.85651,-0.56285 -1.44383,-0.56285c-0.58732,0 -1.05229,0.19577 -1.44383,0.56285s-0.56285,0.85651 -0.56285,1.41936zm1.54172,-5.55509c-0.02447,0.36708 0.07342,0.75863 0.31813,1.15017c0.24472,0.39155 0.61179,0.63627 1.10123,0.73415c0.56285,0.14683 1.07676,0.09789 1.56619,-0.14683s0.80757,-0.70968 1.00334,-1.37042l0.66074,-2.20246c0.1713,-0.53838 0.12236,-1.05229 -0.1713,-1.54172c-0.29366,-0.48944 -0.70968,-0.80757 -1.297,-0.97887c-0.53838,-0.1713 -1.05229,-0.09789 -1.56619,0.19577c-0.51391,0.29366 -0.83204,0.73415 -1.00334,1.297l-0.56285,2.20246c-0.02447,0.19577 -0.04894,0.41602 -0.04894,0.66074l-0.00001,0.00001zm6.75421,5.26143c0,0.39155 0.12236,0.7831 0.36708,1.17465c0.24472,0.39155 0.63627,0.66074 1.1257,0.80757c0.07342,0 0.19577,0.02447 0.3426,0.04894c0.14683,0.02447 0.24472,0.04894 0.3426,0.04894c1.00334,0 1.61514,-0.53838 1.85986,-1.61514l0.3426,-1.46831c0.1713,-0.51391 0.12236,-1.02781 -0.1713,-1.54172c-0.26919,-0.51391 -0.68521,-0.83204 -1.24806,-1.00334c-0.61179,-0.14683 -1.17465,-0.09789 -1.66408,0.19577s-0.83204,0.70968 -1.00334,1.297l-0.22025,1.44383c0,0.04894 -0.02447,0.1713 -0.04894,0.29366s-0.02447,0.22025 -0.02447,0.31813l0,0.00002zm1.81091,-7.24365c0,0.53838 0.19577,1.02781 0.61179,1.39489c0.36708,0.39155 0.83204,0.58732 1.39489,0.58732c0.58732,0 1.05229,-0.19577 1.44383,-0.56285s0.56285,-0.85651 0.56285,-1.41936c0,-0.58732 -0.19577,-1.05229 -0.56285,-1.44383s-0.85651,-0.56285 -1.44383,-0.56285c-0.58732,0 -1.05229,0.19577 -1.44383,0.56285c-0.36708,0.39155 -0.56285,0.85651 -0.56285,1.44383zm1.49278,-5.65298c0,0.41602 0.12236,0.80757 0.39155,1.17465c0.26919,0.36708 0.66074,0.63627 1.19912,0.7831c0.04894,0 0.14683,0.02447 0.29366,0.04894s0.26919,0.04894 0.3426,0.04894c0.24472,0 0.53838,-0.07342 0.88098,-0.22025c0.51391,-0.26919 0.85651,-0.70968 1.00334,-1.27253l0.58732,-2.20246c0.14683,-0.56285 0.09789,-1.07676 -0.19577,-1.54172c-0.26919,-0.48944 -0.68521,-0.80757 -1.24806,-0.97887c-0.56285,-0.1713 -1.07676,-0.12236 -1.56619,0.14683c-0.46496,0.26919 -0.80757,0.66074 -0.9544,1.24806l-0.68521,2.22693c0,0.04894 -0.02447,0.14683 -0.04894,0.29366c0,0.07342 0,0.1713 0,0.24472z"/>
 </g>
</svg>
