<svg width="60" height="60" xmlns="http://www.w3.org/2000/svg">
  <defs>
    <filter id="drop_shadow" filterUnits="objectBoundingBox" x="-50%" y="-50%" width="200%" height="200%">
      <feDropShadow dx="0.5" dy="0.5" stdDeviation="2" flood-color="black" flood-opacity="0.8" />
    </filter>
    <filter id="blur_shadow" filterUnits="objectBoundingBox" x="-50%" y="-50%" width="200%" height="200%">
      <feGaussianBlur in="SourceGraphic" stdDeviation="3" />
    </filter>
  </defs>
 <g transform="rotate(0 30 30)">
   <circle filter="url(#blur_shadow)" fill-opacity="0.15" fill="#0099FF;" r="22" cy="30" cx="30"/>
   <g fill-opacity="0.7" stroke="midnightblue" stroke-opacity="0.4">
    <path d="m6.74,30.04131c0,-4.21407 1.05352,-8.11828 3.13989,-11.69197s4.91641,-6.40373 8.49011,-8.49011s7.45725,-3.11924 11.65066,-3.11924c3.13989,0 6.15584,0.61972 9.02719,1.83849s5.32956,2.89201 7.41593,4.95773s3.73895,4.54458 4.95773,7.43659s1.83849,5.8873 1.83849,9.06851c0,3.13989 -0.61972,6.15584 -1.83849,9.02719s-2.89201,5.35021 -4.95773,7.41593s-4.54458,3.71829 -7.41593,4.93707s-5.86664,1.83849 -9.02719,1.83849c-3.16055,0 -6.19716,-0.61972 -9.06851,-1.83849s-5.35021,-2.89201 -7.43659,-4.95773s-3.71829,-4.54458 -4.95773,-7.39528s-1.81783,-5.86664 -1.81783,-9.02719l0,0.00001zm5.12298,0c0,4.89575 1.77652,9.15114 5.35021,12.76615c3.57369,3.57369 7.82908,5.35021 12.80746,5.35021c3.26384,0 6.30044,-0.80563 9.06851,-2.43755s4.99904,-3.82158 6.63096,-6.6103s2.45821,-5.80467 2.45821,-9.06851s-0.82629,-6.30044 -2.45821,-9.08917s-3.84224,-4.99904 -6.63096,-6.63096s-5.80467,-2.43755 -9.06851,-2.43755s-6.30044,0.80563 -9.06851,2.43755s-4.99904,3.84224 -6.65162,6.63096s-2.43755,5.82533 -2.43755,9.08917l0.00001,0z" fill="#66ff66"/>
    <path fill="orangered" d="m21.93402,42.26602l7.74645,-27.08158c0.02066,-0.20657 0.12394,-0.30986 0.30986,-0.30986s0.2892,0.10329 0.30986,0.30986l7.72579,27.08158c0.08263,0.22723 0.06197,0.39249 -0.04131,0.51643s-0.26854,0.12394 -0.49577,0l-7.16805,-2.68544c-0.20657,-0.08263 -0.41314,-0.08263 -0.59906,0l-7.23002,2.68544c-0.20657,0.12394 -0.35117,0.12394 -0.4338,0s-0.16526,-0.30986 -0.12394,-0.51643l-0.00001,0z"/>
  </g>
 </g>
</svg>
