<svg width="60" height="60" xmlns="http://www.w3.org/2000/svg">

  <defs>
    <filter id="drop_shadow" filterUnits="objectBoundingBox" x="-50%" y="-50%" width="200%" height="200%">
      <feDropShadow dx="0.5" dy="0.5" stdDeviation="2" flood-color="black" flood-opacity="0.8" />
    </filter>
    <filter id="blur_shadow" filterUnits="objectBoundingBox" x="-50%" y="-50%" width="200%" height="200%">
      <feGaussianBlur in="SourceGraphic" stdDeviation="3" />
    </filter>
  </defs>

<g>
  <path style="filter:url(#blur_shadow)" fill-opacity="0.3" fill="goldenrod" d="m4.15567,30.22319zm19.01444,7.01568c-1.28948,-1.61732 -1.94515,-3.47505 -1.94515,-5.52948c0,-2.40412 0.85237,-4.45856 2.57897,-6.14144c1.7266,-1.68289 3.80289,-2.53526 6.22887,-2.53526c2.40412,0 4.45856,0.85237 6.18515,2.53526c1.70474,1.70474 2.57897,3.73732 2.57897,6.11959c0,2.05443 -0.65567,3.91216 -1.94515,5.52948c-0.15299,0.15299 -0.1967,0.28412 -0.15299,0.3934c0.04371,0.10928 0.15299,0.15299 0.32784,0.15299l4.10887,0"/>

  <path stroke="midnightblue" stroke-opacity="0.4" stroke-width="2.5" style="filter:url(#drop_shadow)" fill="yellow" d="m3.5,31.70938c0,-0.61196 0.21856,-1.09278 0.65567,-1.48619c0.37155,-0.3934 0.87423,-0.56825 1.48619,-0.56825l5.04866,0c0.5901,0 1.07093,0.1967 1.46433,0.5901c0.37155,0.3934 0.56825,0.87423 0.56825,1.46433c0,0.61196 -0.1967,1.13649 -0.5901,1.55175c-0.3934,0.41526 -0.87423,0.63381 -1.44247,0.63381l-5.0268,0c-0.5901,0 -1.09278,-0.21856 -1.50804,-0.65567c-0.43711,-0.43711 -0.65567,-0.93979 -0.65567,-1.5299l-0.00002,0.00002zm7.19052,-17.17856c0,-0.61196 0.17485,-1.11464 0.54639,-1.48619c0.43711,-0.43711 0.93979,-0.65567 1.5299,-0.65567c0.63381,0 1.11464,0.21856 1.48619,0.65567l3.54062,3.56247c1.00536,0.96165 1.00536,1.94515 0,2.95052c-0.41526,0.41526 -0.87423,0.61196 -1.42062,0.61196c-0.48082,0 -0.96165,-0.1967 -1.48619,-0.61196l-3.62804,-3.54062c-0.37155,-0.3934 -0.56825,-0.89608 -0.56825,-1.48619l0,0.00001zm6.36,17.17856c0,2.16371 0.41526,4.08701 1.26763,5.72619c0.13113,0.24041 0.32784,0.34969 0.5901,0.34969l4.08701,0c0.17485,0 0.28412,-0.04371 0.32784,-0.15299c0.04371,-0.10928 -0.02186,-0.24041 -0.15299,-0.3934c-1.28948,-1.61732 -1.94515,-3.47505 -1.94515,-5.52948c0,-2.40412 0.85237,-4.45856 2.57897,-6.14144c1.7266,-1.68289 3.80289,-2.53526 6.22887,-2.53526c2.40412,0 4.45856,0.85237 6.18515,2.53526c1.70474,1.70474 2.57897,3.73732 2.57897,6.11959c0,2.05443 -0.65567,3.91216 -1.94515,5.52948c-0.15299,0.15299 -0.1967,0.28412 -0.15299,0.3934c0.04371,0.10928 0.15299,0.15299 0.32784,0.15299l4.10887,0c0.28412,0 0.45897,-0.10928 0.52454,-0.34969c0.89608,-1.70474 1.35505,-3.62804 1.35505,-5.72619c0,-1.7266 -0.34969,-3.40948 -1.02722,-5.00495s-1.61732,-2.99423 -2.77567,-4.15258s-2.53526,-2.07629 -4.13072,-2.77567c-1.59546,-0.69938 -3.27835,-1.02722 -5.0268,-1.02722c-1.74845,0 -3.43134,0.34969 -5.0268,1.02722c-1.59546,0.69938 -2.97237,1.61732 -4.13072,2.77567s-2.07629,2.53526 -2.77567,4.15258s-1.07093,3.30021 -1.07093,5.0268l-0.00003,0zm10.84041,-19.25484l0,-5.09237c0,-0.5901 0.21856,-1.09278 0.63381,-1.50804s0.91794,-0.63381 1.50804,-0.63381c0.5901,0 1.09278,0.21856 1.50804,0.63381s0.63381,0.91794 0.63381,1.50804l0,5.07052c0,0.5901 -0.21856,1.09278 -0.63381,1.50804c-0.41526,0.41526 -0.91794,0.63381 -1.50804,0.63381c-0.5901,0 -1.09278,-0.21856 -1.50804,-0.63381c-0.43711,-0.41526 -0.63381,-0.89608 -0.63381,-1.48619zm13.7035,5.63876c0,-0.61196 0.1967,-1.11464 0.56825,-1.46433l3.56247,-3.56247c0.34969,-0.43711 0.85237,-0.65567 1.48619,-0.65567c0.5901,0 1.09278,0.21856 1.48619,0.63381c0.3934,0.41526 0.5901,0.91794 0.5901,1.50804c0,0.61196 -0.17485,1.11464 -0.54639,1.48619l-3.62804,3.56247c-0.50268,0.41526 -1.00536,0.61196 -1.50804,0.61196c-0.56825,0 -1.04907,-0.1967 -1.44247,-0.61196c-0.37155,-0.41526 -0.56825,-0.91794 -0.56825,-1.50804l-0.00001,0zm5.66062,13.61608c0,-0.5901 0.1967,-1.07093 0.56825,-1.46433c0.37155,-0.3934 0.87423,-0.5901 1.46433,-0.5901l5.07052,0c0.5901,0 1.09278,0.1967 1.50804,0.5901c0.41526,0.3934 0.63381,0.87423 0.63381,1.46433c0,0.5901 -0.21856,1.09278 -0.63381,1.5299c-0.41526,0.43711 -0.91794,0.65567 -1.50804,0.65567l-5.07052,0c-0.56825,0 -1.04907,-0.21856 -1.44247,-0.63381c-0.3934,-0.41526 -0.5901,-0.93979 -0.5901,-1.55175l-0.00001,-0.00001z"/>

  <path  stroke="midnightblue" stroke-opacity="0.4" stroke-width="1"  fill="seagreen" d="m3.78365,29.9707zm11.035,13.62372c0,-0.61427 0.21938,-1.11886 0.63621,-1.49181c0.39489,-0.37295 0.87753,-0.5704 1.49181,-0.5704l5.76979,0l6.82283,-6.406c0.21938,-0.17551 0.46071,-0.17551 0.7459,0l6.93252,6.406l6.07693,0c0.59234,0 1.09692,0.19745 1.51375,0.61427c0.41683,0.39489 0.63621,0.89947 0.63621,1.46987c0,0.59234 -0.21938,1.09692 -0.63621,1.51375c-0.41683,0.41683 -0.92141,0.63621 -1.51375,0.63621l-7.41517,0c-0.21938,0 -0.43877,-0.04388 -0.63621,-0.15357l-5.28715,-4.98001l-5.24327,4.98001c-0.17551,0.10969 -0.37295,0.15357 -0.61427,0.15357l-7.15191,0c-0.59234,0 -1.09692,-0.21938 -1.51375,-0.63621c-0.41683,-0.43877 -0.61427,-0.94335 -0.61427,-1.53569z"/>


</g>
</svg>
