<svg width="60" height="60" xmlns="http://www.w3.org/2000/svg">
  <defs>
    <filter id="drop_shadow" filterUnits="objectBoundingBox" x="-50%" y="-50%" width="200%" height="200%">
      <feDropShadow dx="0.5" dy="0.5" stdDeviation="2" flood-color="black" flood-opacity="0.8" />
    </filter>
    <filter id="blur_shadow" filterUnits="objectBoundingBox" x="-50%" y="-50%" width="200%" height="200%">
      <feGaussianBlur in="SourceGraphic" stdDeviation="3" />
    </filter>
    <filter id="shadow">
      <feDropShadow dx="0.3" dy="0.6" stdDeviation="0.6" flood-color="black"/>
    </filter>
  <linearGradient id="linearGradient3199">
   <stop id="stop3201" offset="0" stop-color="#ffffff"/>
   <stop id="stop3203" offset="1" stop-opacity="0" stop-color="#ffffff"/>
  </linearGradient>
  <linearGradient xlink:href="#linearGradient3199" id="linearGradient3206" x1="0.35792" y1="0.0564" x2="0.4991" y2="0.96319"/>
  </defs>
 <g>
  <circle cx="30" cy="30" r="20.24999" fill-opacity="0.4" fill="blue"/>
  <path style="filter:url(#blur_shadow)" fill="black"  d="m4.18025,30.04586c0,-4.67782 1.16946,-9.01169 3.48544,-12.97867s5.45746,-7.10846 9.42444,-9.42444s8.27791,-3.46251 12.9328,-3.46251c3.48544,0 6.83329,0.68792 10.02063,2.04081s5.91607,3.21027 8.23205,5.50332s4.15042,5.04471 5.50332,8.25498s2.04081,6.53519 2.04081,10.06649c0,3.48544 -0.68792,6.83329 -2.04081,10.02063s-3.21027,5.939 -5.50332,8.23205s-5.04471,4.12749 -8.23205,5.48039s-6.51226,2.04081 -10.02063,2.04081c-3.50837,0 -6.87915,-0.68792 -10.06649,-2.04081s-5.939,-3.21027 -8.25498,-5.50332s-4.12749,-5.04471 -5.50332,-8.20912s-2.01788,-6.51226 -2.01788,-10.02063zm5.68677,0c0,5.43453 1.97202,10.15821 5.939,14.17105c3.96698,3.96698 8.69066,5.939 14.21691,5.939c3.62302,0 6.9938,-0.89429 10.06649,-2.7058s5.54918,-4.24214 7.36069,-7.33776s2.72873,-6.44347 2.72873,-10.06649s-0.91722,-6.9938 -2.72873,-10.08942s-4.26507,-5.54918 -7.36069,-7.36069s-6.44347,-2.7058 -10.06649,-2.7058s-6.9938,0.89429 -10.06649,2.7058s-5.54918,4.26507 -7.38362,7.36069s-2.7058,6.4664 -2.7058,10.08942zm13.0016,9.72253c-0.13758,-0.50447 -0.09172,-1.00894 0.18344,-1.49048l4.97592,-8.80531l0,-14.69845c0,-0.5274 0.18344,-0.98601 0.55033,-1.3529s0.8255,-0.55033 1.3529,-0.55033s0.98601,0.18344 1.3529,0.55033s0.55033,0.8255 0.55033,1.3529l0,15.29465c0,0.45861 -0.13758,0.84843 -0.43568,1.21532l-4.99885,8.9429c-0.36689,0.61912 -0.94015,0.94015 -1.71979,0.94015c-0.36689,0 -0.66498,-0.06879 -0.91722,-0.20637c-0.43568,-0.2981 -0.73378,-0.68792 -0.89429,-1.19239z"/>

<g stroke="midnightblue" stroke-opacity="0.4" stroke-width="0.5" style="filter:url(#drop_shadow);">
  <path fill="blue" d="m19.95644,12.59575zm2.91218,27.17264c-0.13758,-0.50447 -0.09172,-1.00894 0.18344,-1.49048l4.97592,-8.80531l0,-14.69845c0,-0.5274 0.18344,-0.98601 0.55033,-1.3529s0.8255,-0.55033 1.3529,-0.55033s0.98601,0.18344 1.3529,0.55033s0.55033,0.8255 0.55033,1.3529l0,15.29465c0,0.45861 -0.13758,0.84843 -0.43568,1.21532l-4.99885,8.9429c-0.36689,0.61912 -0.94015,0.94015 -1.71979,0.94015c-0.36689,0 -0.66498,-0.06879 -0.91722,-0.20637c-0.43568,-0.2981 -0.73378,-0.68792 -0.89429,-1.19239l0.00001,-0.00002z"/>
  <path fill="red" d="m30.02266,55.50972zm-1.97101,-25.46441c0,0.49841 0.18124,0.95152 0.54372,1.33666c0.36248,0.38514 0.81559,0.56638 1.33666,0.56638c0.49841,0 0.95152,-0.18124 1.33666,-0.56638c0.38514,-0.38514 0.56638,-0.81559 0.56638,-1.33666l0,-15.08835c0,-0.52107 -0.18124,-0.97417 -0.56638,-1.33666s-0.81559,-0.54372 -1.33666,-0.54372c-0.52107,0 -0.97417,0.18124 -1.33666,0.54372s-0.54372,0.81559 -0.54372,1.33666l0,15.08835z"/>

</g>
  <path d="m46.31259,25.7251c-1.22051,7.14799 -8.77858,9.72413 -16.42312,10.89422c-7.65822,1.17219 -16.54284,0.20237 -18.26605,-8.02008c-1.71947,-8.20461 7.01441,-18.57121 18.47796,-18.57121c11.46355,0 17.42792,8.57133 16.21121,15.69706l0,0l0,0z" stroke-dashoffset="0" stroke-miterlimit="4" stroke-linejoin="round" stroke-linecap="round" stroke-width="0.2" fill="url(#linearGradient3206)" fill-opacity="0.7"/>
  <path stroke="midnightblue" stroke-opacity="0.4" stroke-width="2.5"  fill="mediumaquamarine" d="m4.49027,30.04531c0,-4.62166 1.15541,-8.90348 3.44359,-12.82283s5.39193,-7.0231 9.31128,-9.31128s8.17852,-3.42093 12.77752,-3.42093c3.44359,0 6.75124,0.67966 9.90031,2.01631s5.84504,3.17172 8.13321,5.43724s4.10059,4.98414 5.43724,8.15586s2.01631,6.45672 2.01631,9.94562c0,3.44359 -0.67966,6.75124 -2.01631,9.90031s-3.17172,5.86769 -5.43724,8.13321s-4.98414,4.07793 -8.13321,5.41459s-6.43407,2.01631 -9.90031,2.01631c-3.46624,0 -6.79655,-0.67966 -9.94562,-2.01631s-5.86769,-3.17172 -8.15586,-5.43724s-4.07793,-4.98414 -5.43724,-8.11055s-1.99366,-6.43407 -1.99366,-9.90031l-0.00001,0zm5.61848,0c0,5.36928 1.94835,10.03624 5.86769,14.0009c3.91935,3.91935 8.58631,5.86769 14.04621,5.86769c3.57952,0 6.90983,-0.88355 9.94562,-2.67331s5.48255,-4.19121 7.27231,-7.24966s2.69597,-6.3661 2.69597,-9.94562s-0.90621,-6.90983 -2.69597,-9.96828s-4.21386,-5.48255 -7.27231,-7.27231s-6.3661,-2.67331 -9.94562,-2.67331s-6.90983,0.88355 -9.94562,2.67331s-5.48255,4.21386 -7.29497,7.27231s-2.67331,6.38876 -2.67331,9.96828z"/>
</g>
</svg>


