<svg width="60" height="60" xmlns="http://www.w3.org/2000/svg">

  <defs>
    <filter id="drop_shadow" filterUnits="objectBoundingBox" x="-50%" y="-50%" width="200%" height="200%">
      <feDropShadow dx="0.5" dy="0.5" stdDeviation="2" flood-color="black" flood-opacity="0.8" />
    </filter>
    <filter id="blur_shadow" filterUnits="objectBoundingBox" x="-50%" y="-50%" width="200%" height="200%">
      <feGaussianBlur in="SourceGraphic" stdDeviation="3" />
    </filter>
    <filter id="shadow">
      <feDropShadow dx="0.3" dy="0.6" stdDeviation="0.6" flood-color="black"/>
    </filter>
  </defs>

<g fill="black" style="filter:url(#blur_shadow)">
  <path d="m7.19497,26.84861c0,-2.29015 0.71692,-4.34133 2.15075,-6.13362s3.24604,-2.94732 5.43662,-3.4651c0.63726,-2.72827 2.03126,-4.95867 4.22184,-6.71114s4.67987,-2.60878 7.4878,-2.60878c2.74818,0 5.19765,0.85632 7.3484,2.54904s3.54476,3.8833 4.18201,6.55182l0.65717,0c1.79229,0 3.44518,0.43812 4.95867,1.29443c1.51349,0.85632 2.72827,2.05118 3.6045,3.56467c0.87623,1.51349 1.33426,3.14647 1.33426,4.93876c0,2.29015 -0.697,4.34133 -2.11092,6.13362c1.27452,1.09529 2.78801,1.67281 4.50064,1.73255l1.31435,0.11949c0.23897,0 0.35846,0.11949 0.35846,0.37837l0,1.53341c0.01991,2.01135 -0.47794,3.8833 -1.45375,5.57602c-0.9758,1.71263 -2.32998,3.0469 -4.0227,4.04261c-1.69272,0.99572 -3.54476,1.49358 -5.5561,1.49358c-1.53341,0 -2.98715,-0.29872 -4.36124,-0.87623c-1.37409,-0.57752 -2.54904,-1.37409 -3.54476,-2.36981c-0.9758,-0.99572 -1.77238,-2.17066 -2.34989,-3.54476c-0.57752,-1.37409 -0.87623,-2.80792 -0.87623,-4.32141l-13.72099,0c-2.66852,-0.11949 -4.91885,-1.13512 -6.77088,-3.0469s-2.78801,-4.18201 -2.78801,-6.83062zm3.40535,0c0,1.73255 0.59743,3.22613 1.79229,4.50064s2.64861,1.95161 4.36124,2.03126l22.28416,0c1.71263,-0.07966 3.16638,-0.75675 4.36124,-2.03126c1.19486,-1.27452 1.79229,-2.7681 1.79229,-4.50064c0,-1.75246 -0.63726,-3.24604 -1.93169,-4.54047c-1.29443,-1.27452 -2.82784,-1.93169 -4.60022,-1.93169l-3.22613,0c-0.21906,0 -0.33854,-0.11949 -0.33854,-0.33854l-0.1394,-1.15503c-0.21906,-2.15075 -1.15503,-3.96296 -2.78801,-5.39679s-3.52484,-2.17066 -5.69551,-2.17066c-2.19058,0 -4.08244,0.71692 -5.69551,2.17066s-2.50921,3.24604 -2.70835,5.39679l-0.1394,1.15503c0,0.21906 -0.1394,0.33854 -0.39829,0.33854l-1.05546,0c-1.67281,0.19914 -3.06681,0.91606 -4.18201,2.13084s-1.69272,2.66852 -1.69272,4.34133zm22.76211,9.87752c0,1.57323 0.39829,3.02698 1.19486,4.32141c0.79657,1.29443 1.81221,2.29015 3.06681,2.98715c1.2546,0.697 2.56895,1.03555 3.96296,1.03555c1.23469,0 2.44947,-0.29872 3.62441,-0.89615c1.19486,-0.59743 2.23041,-1.49358 3.14647,-2.70835s1.49358,-2.60878 1.71263,-4.18201c-2.15075,-0.43812 -3.94304,-1.29443 -5.4167,-2.58887c-1.67281,1.29443 -3.54476,1.97152 -5.61585,2.01135l-5.67559,0l0,0.01991z"/>
</g>

<g stroke-width="2.5" stroke-opacity="0.4" stroke="midnightblue">

  <path id="moonfillback" stroke-width="0.1" fill="paleturquoise"  fill-opacity="0.2" style="filter:url(#blur_shadow)" d="m37.24573,46.96211zm-3.8833,-10.23598c0,1.57323 0.39829,3.02698 1.19486,4.32141c0.79657,1.29443 1.81221,2.29015 3.06681,2.98715c1.2546,0.697 2.56895,1.03555 3.96296,1.03555c1.23469,0 2.44947,-0.29872 3.62441,-0.89615c1.19486,-0.59743 2.23041,-1.49358 3.14647,-2.70835s1.49358,-2.60878 1.71263,-4.18201c-2.15075,-0.43812 -3.94304,-1.29443 -5.4167,-2.58887c-1.67281,1.29443 -3.54476,1.97152 -5.61585,2.01135l-5.67559,0l0,0.01991l0,0.00001z"/>

  <path id="cloudfillback" stroke-width="0" filter="url(#blur_shadow)" fill="paleturquoise" fill-opacity="0.3" d="m10.18267,26.85888c0,1.81002 0.66685,3.38188 1.95292,4.66796s2.88175,1.95292 4.73941,1.95292l22.10135,0c1.83385,0 3.42952,-0.64303 4.73941,-1.95292c1.30989,-1.30989 1.97674,-2.85793 1.97674,-4.66796c0,-1.81002 -0.64303,-3.38188 -1.97674,-4.66796c-1.30989,-1.28607 -2.88175,-1.95292 -4.73941,-1.95292l-3.31044,0c-0.23816,0 -0.35724,-0.11908 -0.35724,-0.35724l-0.16671,-1.16699c-0.23816,-2.23872 -1.19081,-4.1202 -2.83411,-5.59679s-3.59624,-2.2149 -5.83495,-2.2149c-2.23872,0 -4.19163,0.7383 -5.85877,2.23872c-1.66713,1.4766 -2.59596,3.35807 -2.8103,5.57298l-0.16671,1.00028c0,0.23816 -0.11908,0.35724 -0.38106,0.35724l-1.07172,0.16671c-1.71476,0.14289 -3.14373,0.85738 -4.31071,2.11963c-1.09554,1.26226 -1.69095,2.76268 -1.69095,4.50125l-0.00001,-0.00001l-0.00001,0l0.00001,0z"/>
  <path id="cloudmoon" fill="linen" d="m7.19497,26.84861c0,-2.29015 0.71692,-4.34133 2.15075,-6.13362s3.24604,-2.94732 5.43662,-3.4651c0.63726,-2.72827 2.03126,-4.95867 4.22184,-6.71114s4.67987,-2.60878 7.4878,-2.60878c2.74818,0 5.19765,0.85632 7.3484,2.54904s3.54476,3.8833 4.18201,6.55182l0.65717,0c1.79229,0 3.44518,0.43812 4.95867,1.29443c1.51349,0.85632 2.72827,2.05118 3.6045,3.56467c0.87623,1.51349 1.33426,3.14647 1.33426,4.93876c0,2.29015 -0.697,4.34133 -2.11092,6.13362c1.27452,1.09529 2.78801,1.67281 4.50064,1.73255l1.31435,0.11949c0.23897,0 0.35846,0.11949 0.35846,0.37837l0,1.53341c0.01991,2.01135 -0.47794,3.8833 -1.45375,5.57602c-0.9758,1.71263 -2.32998,3.0469 -4.0227,4.04261c-1.69272,0.99572 -3.54476,1.49358 -5.5561,1.49358c-1.53341,0 -2.98715,-0.29872 -4.36124,-0.87623c-1.37409,-0.57752 -2.54904,-1.37409 -3.54476,-2.36981c-0.9758,-0.99572 -1.77238,-2.17066 -2.34989,-3.54476c-0.57752,-1.37409 -0.87623,-2.80792 -0.87623,-4.32141l-13.72099,0c-2.66852,-0.11949 -4.91885,-1.13512 -6.77088,-3.0469s-2.78801,-4.18201 -2.78801,-6.83062zm3.40535,0c0,1.73255 0.59743,3.22613 1.79229,4.50064s2.64861,1.95161 4.36124,2.03126l22.28416,0c1.71263,-0.07966 3.16638,-0.75675 4.36124,-2.03126c1.19486,-1.27452 1.79229,-2.7681 1.79229,-4.50064c0,-1.75246 -0.63726,-3.24604 -1.93169,-4.54047c-1.29443,-1.27452 -2.82784,-1.93169 -4.60022,-1.93169l-3.22613,0c-0.21906,0 -0.33854,-0.11949 -0.33854,-0.33854l-0.1394,-1.15503c-0.21906,-2.15075 -1.15503,-3.96296 -2.78801,-5.39679s-3.52484,-2.17066 -5.69551,-2.17066c-2.19058,0 -4.08244,0.71692 -5.69551,2.17066s-2.50921,3.24604 -2.70835,5.39679l-0.1394,1.15503c0,0.21906 -0.1394,0.33854 -0.39829,0.33854l-1.05546,0c-1.67281,0.19914 -3.06681,0.91606 -4.18201,2.13084s-1.69272,2.66852 -1.69272,4.34133zm22.76211,9.87752c0,1.57323 0.39829,3.02698 1.19486,4.32141c0.79657,1.29443 1.81221,2.29015 3.06681,2.98715c1.2546,0.697 2.56895,1.03555 3.96296,1.03555c1.23469,0 2.44947,-0.29872 3.62441,-0.89615c1.19486,-0.59743 2.23041,-1.49358 3.14647,-2.70835s1.49358,-2.60878 1.71263,-4.18201c-2.15075,-0.43812 -3.94304,-1.29443 -5.4167,-2.58887c-1.67281,1.29443 -3.54476,1.97152 -5.61585,2.01135l-5.67559,0l0,0.01991z"/>

</g>

  <path id="moonfill" stroke-width="0" fill="paleturquoise"  fill-opacity="0.5" d="m37.24573,46.96211zm-3.8833,-10.23598c0,1.57323 0.39829,3.02698 1.19486,4.32141c0.79657,1.29443 1.81221,2.29015 3.06681,2.98715c1.2546,0.697 2.56895,1.03555 3.96296,1.03555c1.23469,0 2.44947,-0.29872 3.62441,-0.89615c1.19486,-0.59743 2.23041,-1.49358 3.14647,-2.70835s1.49358,-2.60878 1.71263,-4.18201c-2.15075,-0.43812 -3.94304,-1.29443 -5.4167,-2.58887c-1.67281,1.29443 -3.54476,1.97152 -5.61585,2.01135l-5.67559,0l0,0.01991l0,0.00001z"/>


</svg>


