<svg width="60" height="60" xmlns="http://www.w3.org/2000/svg">
  <g stroke-opacity="0.4" stroke="midnightblue">
   <path fill="lightblue" d="m34.04407,37.99262l0.72789,0l14.07245,-20.67734c0.13479,-0.21567 0.16175,-0.40438 0.10783,-0.53917s-0.21567,-0.18871 -0.4583,-0.18871l-5.66133,0l5.877,-10.86436c0.3235,-0.53917 0.16175,-0.80876 -0.48526,-0.80876l-7.38669,0c-0.35046,0 -0.62005,0.16175 -0.80876,0.51222l-5.60741,14.77338c-0.08088,0.24263 -0.08088,0.43134 0.02696,0.56613c0.10783,0.13479 0.26959,0.18871 0.51222,0.18871l5.49958,0l-6.41617,17.03791l-0.00001,-0.00001z"/>
   <path fill="linen" d="m11.02173,55.08572l1.05139,0l18.5476,-27.44397c0.24263,-0.48526 0.10783,-0.72789 -0.40438,-0.72789l-7.65628,0l8.06066,-14.6925c0.24263,-0.48526 0.05392,-0.72789 -0.53917,-0.72789l-10.27127,0c-0.29655,0 -0.53917,0.16175 -0.7818,0.48526l-7.49452,19.94945c-0.05392,0.48526 0.10783,0.72789 0.51222,0.72789l7.41365,0l-8.43808,22.42965l-0.00002,0z"/>
 </g>
</svg>
