<svg width="60" height="60" xmlns="http://www.w3.org/2000/svg">
<g>
<path d="m8.18496,30.00001c0,-2.9642 0.58667,-5.77402 1.72912,-8.49121c1.14245,-2.71719 2.71719,-5.03297 4.66244,-6.97823c1.94526,-1.94526 4.29192,-3.51999 7.00911,-4.69332c2.71719,-1.17333 5.55788,-1.76 8.49121,-1.76l3.51999,0c0.49403,0.12351 0.71017,0.43228 0.71017,0.86456l0.15439,2.71719c0.12351,3.92139 1.51298,7.25612 4.23016,10.00419c2.71719,2.74806 5.99016,4.23016 9.8498,4.38455l2.53192,0.21614c0.49403,0 0.74105,0.24702 0.74105,0.71017l0,3.02596c0.03088,3.95227 -0.92631,7.62665 -2.87157,10.99225c-1.94526,3.36561 -4.56981,6.02104 -7.93542,7.99717c-3.33473,1.94526 -7.00911,2.93333 -10.96138,2.93333c-2.99508,0 -5.86665,-0.58667 -8.58384,-1.72912c-2.71719,-1.14245 -5.03297,-2.71719 -6.97823,-4.66244c-1.94526,-1.94526 -3.48911,-4.29192 -4.63157,-6.97823c-1.0807,-2.71719 -1.66736,-5.55788 -1.66736,-8.55296l0.00001,0z" stroke="midnightblue" stroke-opacity="0.2" stroke-width="3" fill="beige" fill-opacity="0.5"/>
<path stroke="midnightblue" stroke-opacity="0.4" stroke-width="2" d="m8.18496,30.00001c0,-2.9642 0.58667,-5.77402 1.72912,-8.49121s2.71719,-5.03297 4.66244,-6.97823c1.94526,-1.94526 4.29192,-3.51999 7.00911,-4.69332c2.71719,-1.17333 5.55788,-1.76 8.49121,-1.76l3.51999,0c0.49403,0.12351 0.71017,0.43228 0.71017,0.86456l0.15439,2.71719c0.12351,3.92139 1.51298,7.25612 4.23016,10.00419c2.71719,2.74806 5.99016,4.23016 9.8498,4.38455l2.53192,0.21614c0.49403,0 0.74105,0.24702 0.74105,0.71017l0,3.02596c0.03088,3.95227 -0.92631,7.62665 -2.87157,10.99225c-1.94526,3.36561 -4.56981,6.02104 -7.93542,7.99717c-3.33473,1.94526 -7.00911,2.93333 -10.96138,2.93333c-2.99508,0 -5.86665,-0.58667 -8.58384,-1.72912s-5.03297,-2.71719 -6.97823,-4.66244c-1.94526,-1.94526 -3.48911,-4.29192 -4.63157,-6.97823c-1.0807,-2.71719 -1.66736,-5.55788 -1.66736,-8.55296l0.00001,0zm5.65051,0c0,2.34666 0.46316,4.56981 1.38947,6.66946c0.92631,2.06877 2.1614,3.82876 3.67438,5.24911c1.51298,1.42035 3.2421,2.53192 5.21823,3.33473c1.94526,0.83368 3.95227,1.23508 5.99016,1.23508c1.79087,0 3.61262,-0.33965 5.43437,-1.04982c1.82175,-0.71017 3.51999,-1.69824 5.09472,-2.9642c1.57473,-1.26596 2.90245,-2.87157 4.0449,-4.84771c1.14245,-1.97614 1.85263,-4.10666 2.19228,-6.45332c-5.03297,-1.04982 -9.07787,-3.21122 -12.10383,-6.48419s-4.78595,-7.10174 -5.24911,-11.54804c-2.9642,0.18526 -5.61964,1.0807 -8.05893,2.71719c-2.40842,1.63649 -4.29192,3.70525 -5.61964,6.23718c-1.32772,2.53192 -2.00701,5.15648 -2.00701,7.90454l0.00001,-0.00001z" fill="linen"/>
 </g>
</svg>
