<svg width="60" height="60" xmlns="http://www.w3.org/2000/svg">
  <defs>
    <filter id="drop_shadow" filterUnits="objectBoundingBox" x="-50%" y="-50%" width="200%" height="200%">
      <feDropShadow dx="0.5" dy="0.5" stdDeviation="2" flood-color="black" flood-opacity="0.8" />
    </filter>
    <filter id="blur_shadow" filterUnits="objectBoundingBox" x="-50%" y="-50%" width="200%" height="200%">
      <feGaussianBlur in="SourceGraphic" stdDeviation="3" />
    </filter>
    <filter id="shadow">
      <feDropShadow dx="0.3" dy="0.6" stdDeviation="0.6" flood-color="black"/>
    </filter>
  </defs>
 <g>
  <path style="filter:url(#blur_shadow)"  d="m20.73248,27.51654c0,-0.58149 0.29075,-1.38104 0.89647,-2.39865c0.58149,-1.01761 1.13876,-1.81716 1.64756,-2.44711c0.50881,-0.58149 0.82378,-0.9207 0.9207,-1.01761l0.87224,0.96915c0.62995,0.67841 1.21144,1.47796 1.74448,2.47134c0.53303,0.96915 0.79955,1.79293 0.79955,2.42288c0,0.94492 -0.31497,1.74448 -0.96915,2.37443c-0.65418,0.62995 -1.45373,0.94492 -2.42288,0.94492c-0.94492,0 -1.7687,-0.31497 -2.44711,-0.96915c-0.70264,-0.62995 -1.04184,-1.4295 -1.04184,-2.3502l-0.00002,0zm7.22019,9.6673c0,-0.67841 0.19383,-1.4295 0.58149,-2.32597s0.84801,-1.69602 1.4295,-2.47134c0.43612,-0.62995 0.96915,-1.30836 1.62333,-2.03522c0.62995,-0.72686 1.11453,-1.2599 1.45373,-1.57487c0.1696,-0.14537 0.36343,-0.3392 0.58149,-0.55726l0.58149,0.55726c0.9207,0.79955 1.93831,1.98676 3.07706,3.53741c0.58149,0.79955 1.04184,1.64756 1.4295,2.5198s0.55726,1.64756 0.55726,2.3502c0,1.55065 -0.55726,2.88323 -1.64756,3.99776s-2.44711,1.64756 -4.02199,1.64756c-1.55065,0 -2.88323,-0.55726 -3.99776,-1.62333c-1.11453,-1.11453 -1.64756,-2.44711 -1.64756,-4.02199l0.00002,-0.00001zm3.56164,-16.1364c0,-1.01761 0.77532,-2.30174 2.3502,-3.87661l0.58149,0.60572c0.43612,0.50881 0.79955,1.0903 1.16298,1.72025c0.3392,0.62995 0.53303,1.13876 0.53303,1.55065c0,0.62995 -0.21806,1.16298 -0.67841,1.5991c-0.43612,0.43612 -0.96915,0.67841 -1.5991,0.67841c-0.65418,0 -1.21144,-0.21806 -1.67179,-0.67841c-0.46035,-0.43612 -0.67841,-0.96915 -0.67841,-1.5991l0.00001,-0.00001z" fill="cornflowerblue"/>

  <path stroke="midnightblue" stroke-opacity="0.4" stroke-width="2" d="m20.73248,27.51654c0,-0.58149 0.29075,-1.38104 0.89647,-2.39865c0.58149,-1.01761 1.13876,-1.81716 1.64756,-2.44711c0.50881,-0.58149 0.82378,-0.9207 0.9207,-1.01761l0.87224,0.96915c0.62995,0.67841 1.21144,1.47796 1.74448,2.47134c0.53303,0.96915 0.79955,1.79293 0.79955,2.42288c0,0.94492 -0.31497,1.74448 -0.96915,2.37443c-0.65418,0.62995 -1.45373,0.94492 -2.42288,0.94492c-0.94492,0 -1.7687,-0.31497 -2.44711,-0.96915c-0.70264,-0.62995 -1.04184,-1.4295 -1.04184,-2.3502l-0.00002,0zm7.22019,9.6673c0,-0.67841 0.19383,-1.4295 0.58149,-2.32597s0.84801,-1.69602 1.4295,-2.47134c0.43612,-0.62995 0.96915,-1.30836 1.62333,-2.03522c0.62995,-0.72686 1.11453,-1.2599 1.45373,-1.57487c0.1696,-0.14537 0.36343,-0.3392 0.58149,-0.55726l0.58149,0.55726c0.9207,0.79955 1.93831,1.98676 3.07706,3.53741c0.58149,0.79955 1.04184,1.64756 1.4295,2.5198s0.55726,1.64756 0.55726,2.3502c0,1.55065 -0.55726,2.88323 -1.64756,3.99776s-2.44711,1.64756 -4.02199,1.64756c-1.55065,0 -2.88323,-0.55726 -3.99776,-1.62333c-1.11453,-1.11453 -1.64756,-2.44711 -1.64756,-4.02199l0.00002,-0.00001zm3.56164,-16.1364c0,-1.01761 0.77532,-2.30174 2.3502,-3.87661l0.58149,0.60572c0.43612,0.50881 0.79955,1.0903 1.16298,1.72025c0.3392,0.62995 0.53303,1.13876 0.53303,1.55065c0,0.62995 -0.21806,1.16298 -0.67841,1.5991c-0.43612,0.43612 -0.96915,0.67841 -1.5991,0.67841c-0.65418,0 -1.21144,-0.21806 -1.67179,-0.67841c-0.46035,-0.43612 -0.67841,-0.96915 -0.67841,-1.5991l0.00001,-0.00001z" fill="cornflowerblue"/>

</g>
  <g stroke="linen" stroke-opacity="0.4">
   <circle fill="#ffffff" fill-opacity="0.4" r="1.25" cy="27.54036" cx="25.07415"/>
   <circle fill="#ffffff" fill-opacity="0.3" r="2.25" cy="37.29671" cx="35.43432"/>
   <circle fill="#ffffff" fill-opacity="0.2" r="0.80" cy="21.12087" cx="34.48093"/>
  </g>

</svg>
