<svg width="60" height="60" xmlns="http://www.w3.org/2000/svg">

  <defs>
    <filter id="drop_shadow" filterUnits="objectBoundingBox" x="-50%" y="-50%" width="200%" height="200%">
      <feDropShadow dx="0.5" dy="0.5" stdDeviation="2" flood-color="black" flood-opacity="0.8" />
    </filter>
    <filter id="blur_shadow" filterUnits="objectBoundingBox" x="-50%" y="-50%" width="200%" height="200%">
      <feGaussianBlur in="SourceGraphic" stdDeviation="3" />
    </filter>
  </defs>

<circle filter="url(#blur_shadow)" fill-opacity="0.2" r="10" cx="38.0996" cy="22.99975" fill="palegoldenrod"/>
<g stroke="midnightblue" stroke-opacity="0.4" stroke-width="2.5" style="filter:url(#drop_shadow);">
  <path filter="url(#blur_shadow)" fill-opacity="0.2" fill="paleturquoise" d="m7.81618,34.2209c0,1.88011 0.69267,3.51283 2.02854,4.84871s2.99334,2.02854 4.92293,2.02854l22.95714,0c1.90485,0 3.56231,-0.66793 4.92292,-2.02854c1.36061,-1.36061 2.05328,-2.96859 2.05328,-4.84871c0,-1.88011 -0.66793,-3.51283 -2.05328,-4.84871c-1.36061,-1.33586 -2.99334,-2.02854 -4.92292,-2.02854l-3.43863,0c-0.24738,0 -0.37107,-0.12369 -0.37107,-0.37107l-0.17317,-1.21218c-0.24738,-2.3254 -1.23691,-4.27973 -2.94386,-5.8135s-3.73548,-2.30066 -6.06088,-2.30066c-2.3254,0 -4.35394,0.76689 -6.08562,2.32541c-1.73168,1.53377 -2.69647,3.4881 -2.91912,5.78876l-0.17317,1.03902c0,0.24738 -0.12369,0.37107 -0.39582,0.37107l-1.11322,0.17317c-1.78115,0.14843 -3.26545,0.89058 -4.47762,2.2017c-1.13797,1.31113 -1.75642,2.86965 -1.75642,4.67554l-0.00001,-0.00001l0,0z"/>
  <path fill="linen" d="m1.0711,43.3566zm5.01104,-12.28708c0,0.1804 0.10023,0.26058 0.32071,0.26058l2.86632,0c0.14031,0 0.28062,-0.10022 0.42092,-0.32071c0.48106,-1.0423 1.18261,-1.88415 2.12469,-2.54561c0.94207,-0.66146 1.98437,-1.0423 3.12689,-1.12247l1.08238,-0.14031c0.22049,0 0.34075,-0.12027 0.34075,-0.3608l0.14031,-1.02225c0.22049,-2.16477 1.12248,-3.96874 2.74605,-5.43197c1.62358,-1.44318 3.52778,-2.18481 5.73264,-2.18481c2.16477,0 4.06896,0.72159 5.69254,2.16477c1.62358,1.44318 2.54561,3.22711 2.7661,5.37183l0.1403,1.16257c0,0.22048 0.12027,0.34075 0.38084,0.34075l3.22712,0c1.28282,0 2.46543,0.34075 3.52777,1.04229c1.06234,0.68151 1.84406,1.60354 2.36521,2.74606c0.14031,0.22048 0.26058,0.3207 0.40088,0.3207l2.88636,0c0.26058,0 0.3608,-0.14031 0.26058,-0.46101l-0.40088,-1.10243c1.52335,-1.88416 2.26499,-4.08901 2.26499,-6.63462c0,-1.42314 -0.28062,-2.7661 -0.82181,-4.06897s-1.28283,-2.4053 -2.22491,-3.34738c-0.92203,-0.94207 -2.0445,-1.68371 -3.34737,-2.24494s-2.64583,-0.80177 -4.08901,-0.80177c-3.08681,0 -5.65246,1.12247 -7.65688,3.36742c-1.70375,-0.84185 -3.48768,-1.26278 -5.37183,-1.26278c-2.80619,0 -5.31171,0.88194 -7.49652,2.64583s-3.58791,4.00883 -4.20928,6.75488c-3.56786,0.94208 -5.97316,3.16698 -7.17581,6.7148c-0.02005,0.02004 -0.02005,0.08018 -0.02005,0.16035zm16.41618,-21.76796c0,0.48106 0.16035,0.86189 0.46101,1.1826l1.30288,1.28283c0.34075,0.36079 0.72159,0.54119 1.16256,0.54119c0.44097,0 0.84185,-0.16035 1.20265,-0.5011c0.34075,-0.34075 0.52115,-0.74164 0.52115,-1.2227c0,-0.48106 -0.16036,-0.90199 -0.50111,-1.26278l-1.28282,-1.22269c-0.32071,-0.34076 -0.72159,-0.52115 -1.20265,-0.52115c-0.48106,0 -0.88195,0.16035 -1.20266,0.5011c-0.30066,0.32071 -0.46101,0.74164 -0.46101,1.2227zm10.6635,8.77934c1.34296,-1.363 2.96653,-2.02446 4.87073,-2.02446c1.96433,0 3.64804,0.70155 5.03109,2.08459c1.38304,1.38305 2.08459,3.06676 2.08459,5.01105c0,1.30287 -0.32071,2.50552 -0.98216,3.60795c-1.9042,-1.9042 -4.22932,-2.84628 -6.95533,-2.84628l-0.6815,0c-0.58128,-2.36521 -1.70376,-4.30949 -3.36742,-5.83285zm3.20706,-10.4831c0,0.46102 0.16036,0.8619 0.48106,1.18261c0.32071,0.3207 0.70155,0.48106 1.18261,0.48106c0.5011,0 0.92203,-0.16036 1.26278,-0.48106c0.34075,-0.32071 0.50111,-0.70155 0.50111,-1.18261l0,-4.10905c0,-0.46102 -0.1804,-0.8619 -0.52115,-1.20265c-0.3608,-0.34075 -0.78172,-0.50111 -1.26278,-0.50111c-0.46102,0 -0.8619,0.16036 -1.18261,0.50111c-0.32071,0.34075 -0.48106,0.74163 -0.48106,1.20265l0,4.10905l0.02004,0zm11.00425,4.55003c0,0.44097 0.16036,0.8619 0.48106,1.20265c0.74164,0.72159 1.56345,0.72159 2.46544,0l2.86631,-2.86632c0.32071,-0.36079 0.48106,-0.78172 0.48106,-1.28283c0,-0.46101 -0.16035,-0.86189 -0.48106,-1.1826c-0.3207,-0.32071 -0.72159,-0.48106 -1.1826,-0.48106c-0.48106,0 -0.88195,0.16035 -1.20265,0.48106l-2.92645,2.94649c-0.34075,0.3608 -0.50111,0.76168 -0.50111,1.18261zm1.62358,23.65212c0,0.48106 0.1804,0.88194 0.52115,1.20265l1.28283,1.30287c0.3207,0.32071 0.72159,0.48106 1.16256,0.48106c0.42093,0 0.82181,-0.16035 1.22269,-0.48106c0.32071,-0.34075 0.48106,-0.78172 0.48106,-1.28283c0,-0.44097 -0.16035,-0.82181 -0.48106,-1.12247l-1.30287,-1.32292c-0.36079,-0.3207 -0.76168,-0.48106 -1.20265,-0.48106c-0.48106,0 -0.88194,0.16036 -1.20265,0.50111c-0.32071,0.3207 -0.48106,0.72159 -0.48106,1.20265zm2.96654,-12.64787c0,0.48106 0.1804,0.88194 0.52115,1.20265c0.30066,0.34075 0.70154,0.5011 1.1826,0.5011l4.10906,0c0.46101,0 0.8619,-0.16035 1.1826,-0.5011c0.32071,-0.34075 0.48106,-0.74164 0.48106,-1.20265c0,-0.48106 -0.16035,-0.88195 -0.48106,-1.20265c-0.3207,-0.32071 -0.70154,-0.48106 -1.1826,-0.48106l-4.10906,0c-0.48106,0 -0.88194,0.16035 -1.20265,0.5011c-0.34075,0.32071 -0.5011,0.72159 -0.5011,1.18261z"/>
  <path stroke-width="1" fill="grey" d="m0.32,42.17417c0,0.46102 0.16035,0.8619 0.50111,1.18261c0.34075,0.32071 0.76168,0.48106 1.26279,0.48106l37.5028,0c0.48106,0 0.88195,-0.16035 1.2227,-0.48106c0.34075,-0.32071 0.50111,-0.70155 0.50111,-1.18261c0,-0.48106 -0.16035,-0.88195 -0.50111,-1.20266c-0.34075,-0.34075 -0.74164,-0.50111 -1.2227,-0.50111l-37.5028,0c-0.50111,0 -0.92204,0.16035 -1.26279,0.50111s-0.50111,0.72159 -0.50111,1.20266zm5.25159,-6.2939c0,0.46102 0.16035,0.8619 0.50111,1.16257c0.34075,0.3608 0.74164,0.54119 1.20266,0.54119l37.52284,0c0.46102,0 0.8619,-0.16035 1.18261,-0.50111c0.32071,-0.34075 0.48106,-0.74164 0.48106,-1.20266c0,-0.46102 -0.16035,-0.8619 -0.46102,-1.18261c-0.32071,-0.32071 -0.70155,-0.48106 -1.18261,-0.48106l-37.52284,0c-0.48106,0 -0.88195,0.16035 -1.20266,0.48106c-0.34075,0.34075 -0.52115,0.72159 -0.52115,1.18261l0,0.00001zm3.50775,12.44748c0,0.48106 0.1804,0.88195 0.54119,1.20266c0.32071,0.34075 0.70155,0.52115 1.18261,0.52115l37.56293,0c0.46102,0 0.8619,-0.16035 1.20266,-0.50111c0.34075,-0.34075 0.50111,-0.74164 0.50111,-1.2227c0,-0.46102 -0.16035,-0.84186 -0.50111,-1.16257c-0.34075,-0.30066 -0.74164,-0.46102 -1.20266,-0.46102l-37.56293,0c-0.48106,0 -0.88195,0.16035 -1.2227,0.46102c-0.34075,0.32071 -0.50111,0.70155 -0.50111,1.16257l0.00001,0z"/>

</g>
  <path d="m22.61607,9.33013c0,0.47886 0.15852,0.89787 0.47558,1.257l1.30785,1.27696c0.4954,0.3791 0.91153,0.53872 1.26822,0.49881c0.41613,0 0.77281,-0.17957 1.08987,-0.51876s0.47558,-0.75819 0.47558,-1.23705c0,-0.47886 -0.17835,-0.87791 -0.51522,-1.1772l-1.16914,-1.31687c-0.35668,-0.31924 -0.75301,-0.47886 -1.20878,-0.47886c-0.47558,0 -0.89171,0.15963 -1.22858,0.49881c-0.33687,0.31925 -0.4954,0.71829 -0.4954,1.19715l0,0.00002l0.00001,0zm10.58168,8.83894c1.3673,-1.33682 2.9922,-1.99525 4.8549,-1.99525c1.96177,0 3.6263,0.67838 4.9936,2.05511c1.3673,1.37671 2.06086,3.03277 2.06086,5.00806c0,1.23705 -0.33688,2.4741 -1.01061,3.67126c-1.92215,-1.91544 -4.22079,-2.87316 -6.91574,-2.87316l-0.63411,0c-0.4954,-2.17481 -1.60509,-4.13016 -3.34888,-5.86602l0,-0.00001l-0.00001,0zm3.23,-10.5349c0,0.51877 0.15853,0.91781 0.45576,1.23705s0.69356,0.45891 1.16915,0.45891c0.51522,0 0.91153,-0.15963 1.22858,-0.45891c0.31705,-0.31924 0.45576,-0.71828 0.45576,-1.23705l0,-4.09025c0,-0.47886 -0.15852,-0.85795 -0.47558,-1.1772s-0.71337,-0.45891 -1.20877,-0.45891c-0.47558,0 -0.85208,0.15963 -1.16914,0.45891s-0.45577,0.69833 -0.45577,1.1772l0,4.09025l0.00001,0zm10.93837,4.56912c0,0.51876 0.13871,0.91781 0.43596,1.23705c0.41613,0.31924 0.83227,0.47886 1.22858,0.47886c0.35668,0 0.75301,-0.15963 1.16914,-0.47886l2.83367,-2.8532c0.31705,-0.35913 0.47558,-0.77814 0.47558,-1.27695c0,-0.47886 -0.15853,-0.87791 -0.47558,-1.19715c-0.31705,-0.31924 -0.71337,-0.47886 -1.16914,-0.47886c-0.47559,0 -0.85208,0.15963 -1.14933,0.47886l-2.91294,2.8532c-0.29725,0.3791 -0.43596,0.77814 -0.43596,1.23705l0.00001,0zm1.56545,23.6237c0,0.47886 0.15853,0.89786 0.4954,1.257l1.28804,1.25701c0.29725,0.31924 0.67373,0.47885 1.14933,0.47885s0.87189,-0.15962 1.18895,-0.49881c0.31705,-0.33919 0.47558,-0.73824 0.47558,-1.23705c0,-0.43896 0.32018,-0.47649 -0.47558,-1.15724l-1.28804,-1.29691c-0.31705,-0.31924 -0.69355,-0.47886 -1.12949,-0.47886c-0.47559,0 -0.8719,0.15963 -1.18896,0.47886c-0.33687,0.31924 -0.51522,0.71829 -0.51522,1.19715l0,-0.00001zm2.91295,-12.59c0,0.45891 0.17834,0.83801 0.51522,1.15724c0.31705,0.31924 0.73319,0.47886 1.20877,0.47886l4.04244,0c0.45576,0 0.83227,-0.15963 1.14933,-0.45891s0.45576,-0.69833 0.45576,-1.1772c0,-0.47886 -0.15853,-0.87791 -0.45576,-1.19715s-0.69356,-0.49881 -1.14933,-0.49881l-4.04244,0c-0.47558,0 -0.8719,0.15963 -1.20877,0.49881c-0.35668,0.3392 -0.51522,0.73824 -0.51522,1.19715l0,0z" fill="goldenrod" fill-opacity="0.4"/>

</svg>

