<svg width="60" height="60" xmlns="http://www.w3.org/2000/svg">

  <defs>
    <filter id="drop_shadow" filterUnits="objectBoundingBox" x="-50%" y="-50%" width="200%" height="200%">
      <feDropShadow dx="0.5" dy="0.5" stdDeviation="2" flood-color="black" flood-opacity="0.8" />
    </filter>
    <filter id="blur_shadow" filterUnits="objectBoundingBox" x="-50%" y="-50%" width="200%" height="200%">
      <feGaussianBlur in="SourceGraphic" stdDeviation="3" />
    </filter>
  </defs>

 <g>
    <path fill="black" style="filter:url(#blur_shadow)" d="m3.05999,41.20953c0,1.80402 0.44099,3.46772 1.32295,4.99112s2.08464,2.72607 3.60803,3.60803c1.52339,0.88196 3.16706,1.32295 4.95102,1.32295l21.70835,0c1.78398,0 3.44768,-0.44099 4.97107,-1.32295c1.52339,-0.88196 2.74612,-2.08464 3.62808,-3.60803c0.88196,-1.52339 1.34299,-3.18709 1.34299,-4.99112c0,-1.32295 -0.28063,-2.66594 -0.84188,-4.00893c1.52339,-1.8441 2.28509,-4.06906 2.28509,-6.61474c0,-1.42317 -0.28063,-2.78621 -0.82183,-4.08911c-0.5412,-1.3029 -1.3029,-2.40536 -2.245,-3.34746c-0.9421,-0.9421 -2.04455,-1.70379 -3.34746,-2.245c-1.3029,-0.56125 -2.66594,-0.82183 -4.08911,-0.82183c-2.96661,0 -5.55236,1.16259 -7.77733,3.48777c-1.54344,-0.88196 -3.34746,-1.32295 -5.41205,-1.32295c-2.82629,0 -5.31183,0.88196 -7.47665,2.62584c-2.16482,1.74388 -3.56794,3.98888 -4.16928,6.71495c-2.245,0.52116 -4.06906,1.6637 -5.49223,3.46772s-2.14478,3.84857 -2.14478,6.1537l0,0.00003l0.00002,0.00001zm3.42763,0c0,-1.68375 0.56125,-3.12697 1.68375,-4.34968c1.1225,-1.22273 2.52563,-1.92429 4.20937,-2.12473l1.00223,-0.06014c0.24054,0 0.38085,-0.12026 0.38085,-0.3608l0.14031,-1.08241c0.28063,-2.16482 1.22273,-3.98888 2.82629,-5.4321c1.60357,-1.46325 3.48777,-2.18487 5.63255,-2.18487c2.20492,0 4.1292,0.74165 5.75281,2.20492c1.64366,1.46325 2.54567,3.26728 2.74612,5.4321l0.14031,1.16259c0.04009,0.22049 0.1804,0.34076 0.42094,0.34076l3.22719,0c1.76393,0 3.28732,0.64143 4.57018,1.92429c1.28285,1.28285 1.92429,2.78621 1.92429,4.55013c0,1.82407 -0.64143,3.3675 -1.90424,4.65036c-1.26281,1.28285 -2.80625,1.92429 -4.57018,1.92429l-21.72839,0c-1.76393,0 -3.26728,-0.64143 -4.55013,-1.94433c-1.26281,-1.3029 -1.90424,-2.84634 -1.90424,-4.65036l-0.00001,-0.00002zm13.42991,-24.59477c0,0.48107 0.16036,0.90201 0.48107,1.26281l1.32295,1.28285c0.50111,0.38085 0.92205,0.5412 1.28285,0.50111c0.42094,0 0.78174,-0.1804 1.10245,-0.52116s0.48107,-0.7617 0.48107,-1.24277c0,-0.48107 -0.1804,-0.88196 -0.52116,-1.18264l-1.18264,-1.32295c-0.3608,-0.32071 -0.7617,-0.48107 -1.22273,-0.48107c-0.48107,0 -0.90201,0.16036 -1.24277,0.50111c-0.34076,0.32071 -0.50111,0.7216 -0.50111,1.20268l0,0.00002l0.00002,0.00001zm10.70384,8.87978c1.38308,-1.34299 3.02674,-2.00447 4.91094,-2.00447c1.98442,0 3.66817,0.68151 5.05125,2.0646c1.38308,1.38308 2.08464,3.04678 2.08464,5.03121c0,1.24277 -0.34076,2.48553 -1.02228,3.68822c-1.94433,-1.92429 -4.26951,-2.88643 -6.99558,-2.88643l-0.64143,0c-0.50111,-2.18487 -1.62362,-4.14924 -3.38754,-5.89312l0,-0.00001zm3.26728,-10.58357c0,0.52116 0.16036,0.92205 0.46103,1.24277s0.70156,0.46103 1.18264,0.46103c0.52116,0 0.92205,-0.16036 1.24277,-0.46103c0.32071,-0.32071 0.46103,-0.7216 0.46103,-1.24277l0,-4.10916c0,-0.48107 -0.16036,-0.86192 -0.48107,-1.18264s-0.7216,-0.46103 -1.22273,-0.46103c-0.48107,0 -0.86192,0.16036 -1.18264,0.46103s-0.46103,0.70156 -0.46103,1.18264l0,4.10916l0.00001,0l-0.00001,0zm11.06465,4.59022c0,0.52116 0.14031,0.92205 0.44099,1.24277c0.42094,0.32071 0.84188,0.48107 1.24277,0.48107c0.3608,0 0.7617,-0.16036 1.18264,-0.48107l2.86638,-2.86638c0.32071,-0.3608 0.48107,-0.78174 0.48107,-1.28285c0,-0.48107 -0.16036,-0.88196 -0.48107,-1.20268c-0.32071,-0.32071 -0.7216,-0.48107 -1.18264,-0.48107c-0.48107,0 -0.86192,0.16036 -1.16259,0.48107l-2.94657,2.86638c-0.30067,0.38085 -0.44099,0.78174 -0.44099,1.24277l0.00001,0l0,-0.00001zm1.58353,23.73286c0,0.48107 0.16036,0.90201 0.50111,1.26281l1.3029,1.26281c0.30067,0.32071 0.68151,0.48107 1.16259,0.48107s0.88196,-0.16036 1.20268,-0.50111c0.32071,-0.34076 0.48107,-0.74165 0.48107,-1.24277c0,-0.44099 -0.16036,-0.84188 -0.48107,-1.16259l-1.3029,-1.3029c-0.32071,-0.32071 -0.70156,-0.48107 -1.14254,-0.48107c-0.48107,0 -0.88196,0.16036 -1.20268,0.48107c-0.34076,0.32071 -0.52116,0.7216 -0.52116,1.20268l0,-0.00001l0,0.00001zm2.94657,-12.64817c0,0.46103 0.1804,0.84188 0.52116,1.16259c0.32071,0.32071 0.74165,0.48107 1.22273,0.48107l4.08911,0c0.46103,0 0.84188,-0.16036 1.16259,-0.46103s0.46103,-0.70156 0.46103,-1.18264c0,-0.48107 -0.16036,-0.88196 -0.46103,-1.20268s-0.70156,-0.50111 -1.16259,-0.50111l-4.08911,0c-0.48107,0 -0.88196,0.16036 -1.22273,0.50111c-0.3608,0.34076 -0.52116,0.74165 -0.52116,1.20268l0,0.00001z"/>
    <g>
     <circle fill="palegoldenrod" cy="29.53912" cx="36.02874" r="9.68542" fill-opacity="0.2" filter="url(#blur_shadow)"/>
     <g stroke-opacity="0.4" filter="url(#drop_shadow)" stroke="midnightblue">
      <path stroke-width="2.5" fill="linen" d="m3.05999,41.20953c0,1.80402 0.44099,3.46772 1.32295,4.99112s2.08464,2.72607 3.60803,3.60803c1.52339,0.88196 3.16706,1.32295 4.95102,1.32295l21.70835,0c1.78398,0 3.44768,-0.44099 4.97107,-1.32295c1.52339,-0.88196 2.74612,-2.08464 3.62808,-3.60803c0.88196,-1.52339 1.34299,-3.18709 1.34299,-4.99112c0,-1.32295 -0.28063,-2.66594 -0.84188,-4.00893c1.52339,-1.8441 2.28509,-4.06906 2.28509,-6.61474c0,-1.42317 -0.28063,-2.78621 -0.82183,-4.08911c-0.5412,-1.3029 -1.3029,-2.40536 -2.245,-3.34746c-0.9421,-0.9421 -2.04455,-1.70379 -3.34746,-2.245c-1.3029,-0.56125 -2.66594,-0.82183 -4.08911,-0.82183c-2.96661,0 -5.55236,1.16259 -7.77733,3.48777c-1.54344,-0.88196 -3.34746,-1.32295 -5.41205,-1.32295c-2.82629,0 -5.31183,0.88196 -7.47665,2.62584c-2.16482,1.74388 -3.56794,3.98888 -4.16928,6.71495c-2.245,0.52116 -4.06906,1.6637 -5.49223,3.46772s-2.14478,3.84857 -2.14478,6.1537l0,0.00003l0.00002,0.00001zm3.42763,0c0,-1.68375 0.56125,-3.12697 1.68375,-4.34968c1.1225,-1.22273 2.52563,-1.92429 4.20937,-2.12473l1.00223,-0.06014c0.24054,0 0.38085,-0.12026 0.38085,-0.3608l0.14031,-1.08241c0.28063,-2.16482 1.22273,-3.98888 2.82629,-5.4321c1.60357,-1.46325 3.48777,-2.18487 5.63255,-2.18487c2.20492,0 4.1292,0.74165 5.75281,2.20492c1.64366,1.46325 2.54567,3.26728 2.74612,5.4321l0.14031,1.16259c0.04009,0.22049 0.1804,0.34076 0.42094,0.34076l3.22719,0c1.76393,0 3.28732,0.64143 4.57018,1.92429c1.28285,1.28285 1.92429,2.78621 1.92429,4.55013c0,1.82407 -0.64143,3.3675 -1.90424,4.65036c-1.26281,1.28285 -2.80625,1.92429 -4.57018,1.92429l-21.72839,0c-1.76393,0 -3.26728,-0.64143 -4.55013,-1.94433c-1.26281,-1.3029 -1.90424,-2.84634 -1.90424,-4.65036l-0.00001,-0.00002zm13.42991,-24.59477c0,0.48107 0.16036,0.90201 0.48107,1.26281l1.32295,1.28285c0.50111,0.38085 0.92205,0.5412 1.28285,0.50111c0.42094,0 0.78174,-0.1804 1.10245,-0.52116s0.48107,-0.7617 0.48107,-1.24277c0,-0.48107 -0.1804,-0.88196 -0.52116,-1.18264l-1.18264,-1.32295c-0.3608,-0.32071 -0.7617,-0.48107 -1.22273,-0.48107c-0.48107,0 -0.90201,0.16036 -1.24277,0.50111c-0.34076,0.32071 -0.50111,0.7216 -0.50111,1.20268l0,0.00002l0.00002,0.00001zm10.70384,8.87978c1.38308,-1.34299 3.02674,-2.00447 4.91094,-2.00447c1.98442,0 3.66817,0.68151 5.05125,2.0646c1.38308,1.38308 2.08464,3.04678 2.08464,5.03121c0,1.24277 -0.34076,2.48553 -1.02228,3.68822c-1.94433,-1.92429 -4.26951,-2.88643 -6.99558,-2.88643l-0.64143,0c-0.50111,-2.18487 -1.62362,-4.14924 -3.38754,-5.89312l0,-0.00001zm3.26728,-10.58357c0,0.52116 0.16036,0.92205 0.46103,1.24277s0.70156,0.46103 1.18264,0.46103c0.52116,0 0.92205,-0.16036 1.24277,-0.46103c0.32071,-0.32071 0.46103,-0.7216 0.46103,-1.24277l0,-4.10916c0,-0.48107 -0.16036,-0.86192 -0.48107,-1.18264s-0.7216,-0.46103 -1.22273,-0.46103c-0.48107,0 -0.86192,0.16036 -1.18264,0.46103s-0.46103,0.70156 -0.46103,1.18264l0,4.10916l0.00001,0l-0.00001,0zm11.06465,4.59022c0,0.52116 0.14031,0.92205 0.44099,1.24277c0.42094,0.32071 0.84188,0.48107 1.24277,0.48107c0.3608,0 0.7617,-0.16036 1.18264,-0.48107l2.86638,-2.86638c0.32071,-0.3608 0.48107,-0.78174 0.48107,-1.28285c0,-0.48107 -0.16036,-0.88196 -0.48107,-1.20268c-0.32071,-0.32071 -0.7216,-0.48107 -1.18264,-0.48107c-0.48107,0 -0.86192,0.16036 -1.16259,0.48107l-2.94657,2.86638c-0.30067,0.38085 -0.44099,0.78174 -0.44099,1.24277l0.00001,0l0,-0.00001zm1.58353,23.73286c0,0.48107 0.16036,0.90201 0.50111,1.26281l1.3029,1.26281c0.30067,0.32071 0.68151,0.48107 1.16259,0.48107s0.88196,-0.16036 1.20268,-0.50111c0.32071,-0.34076 0.48107,-0.74165 0.48107,-1.24277c0,-0.44099 -0.16036,-0.84188 -0.48107,-1.16259l-1.3029,-1.3029c-0.32071,-0.32071 -0.70156,-0.48107 -1.14254,-0.48107c-0.48107,0 -0.88196,0.16036 -1.20268,0.48107c-0.34076,0.32071 -0.52116,0.7216 -0.52116,1.20268l0,-0.00001l0,0.00001zm2.94657,-12.64817c0,0.46103 0.1804,0.84188 0.52116,1.16259c0.32071,0.32071 0.74165,0.48107 1.22273,0.48107l4.08911,0c0.46103,0 0.84188,-0.16036 1.16259,-0.46103s0.46103,-0.70156 0.46103,-1.18264c0,-0.48107 -0.16036,-0.88196 -0.46103,-1.20268s-0.70156,-0.50111 -1.16259,-0.50111l-4.08911,0c-0.48107,0 -0.88196,0.16036 -1.22273,0.50111c-0.3608,0.34076 -0.52116,0.74165 -0.52116,1.20268l0,0.00001z"/>
      <path d="m6.94014,40.96508c0,1.74691 0.6436,3.26397 1.88483,4.5052s2.78128,1.88483 4.57416,1.88483l21.33075,0c1.7699,0 3.30994,-0.62061 4.57416,-1.88483c1.26422,-1.26422 1.90782,-2.75828 1.90782,-4.5052c0,-1.74691 -0.62061,-3.26397 -1.90782,-4.5052c-1.26422,-1.24123 -2.78128,-1.88483 -4.57416,-1.88483l-3.19502,0c-0.22985,0 -0.34478,-0.11493 -0.34478,-0.34478l-0.1609,-1.1263c-0.22985,-2.16066 -1.14928,-3.97653 -2.7353,-5.40165s-3.47085,-2.13767 -5.6315,-2.13767c-2.16066,0 -4.04548,0.71256 -5.65449,2.16066c-1.609,1.42511 -2.50544,3.24098 -2.71232,5.37866l-0.1609,0.9654c0,0.22985 -0.11493,0.34478 -0.36777,0.34478l-1.03435,0.1609c-1.65497,0.13791 -3.03411,0.82748 -4.16041,2.04573c-1.05735,1.21824 -1.63198,2.66635 -1.63198,4.3443l-0.00001,-0.00001l-0.00001,0.00001z" fill-opacity="0.4" fill="paleturquoise"/>
     </g>
    </g>
   </g>
   <g>
    <path fill-opacity="0.4" fill="goldenrod" d="m19.70063,16.32498c0,0.48107 0.16036,0.90201 0.48107,1.26281l1.32295,1.28285c0.50111,0.38085 0.92205,0.5412 1.28285,0.50111c0.42094,0 0.78174,-0.1804 1.10245,-0.52116s0.48107,-0.7617 0.48107,-1.24277c0,-0.48107 -0.1804,-0.88196 -0.52116,-1.18264l-1.18264,-1.32295c-0.3608,-0.32071 -0.7617,-0.48107 -1.22273,-0.48107c-0.48107,0 -0.90201,0.16036 -1.24277,0.50111c-0.34076,0.32071 -0.50111,0.7216 -0.50111,1.20268l0,0.00002l0.00002,0.00001zm10.70384,8.87978c1.38308,-1.34299 3.02674,-2.00447 4.91094,-2.00447c1.98442,0 3.66817,0.68151 5.05125,2.0646c1.38308,1.38308 2.08464,3.04678 2.08464,5.03121c0,1.24277 -0.34076,2.48553 -1.02228,3.68822c-1.94433,-1.92429 -4.26951,-2.88643 -6.99558,-2.88643l-0.64143,0c-0.50111,-2.18487 -1.62362,-4.14924 -3.38754,-5.89312l0,-0.00001zm3.26728,-10.58357c0,0.52116 0.16036,0.92205 0.46103,1.24277s0.70156,0.46103 1.18264,0.46103c0.52116,0 0.92205,-0.16036 1.24277,-0.46103c0.32071,-0.32071 0.46103,-0.7216 0.46103,-1.24277l0,-4.10916c0,-0.48107 -0.16036,-0.86192 -0.48107,-1.18264s-0.7216,-0.46103 -1.22273,-0.46103c-0.48107,0 -0.86192,0.16036 -1.18264,0.46103s-0.46103,0.70156 -0.46103,1.18264l0,4.10916l0.00001,0l-0.00001,0zm11.06465,4.59022c0,0.52116 0.14031,0.92205 0.44099,1.24277c0.42094,0.32071 0.84188,0.48107 1.24277,0.48107c0.3608,0 0.7617,-0.16036 1.18264,-0.48107l2.86638,-2.86638c0.32071,-0.3608 0.48107,-0.78174 0.48107,-1.28285c0,-0.48107 -0.16036,-0.88196 -0.48107,-1.20268c-0.32071,-0.32071 -0.7216,-0.48107 -1.18264,-0.48107c-0.48107,0 -0.86192,0.16036 -1.16259,0.48107l-2.94657,2.86638c-0.30067,0.38085 -0.44099,0.78174 -0.44099,1.24277l0.00001,0l0,-0.00001zm1.58353,23.73286c0,0.48107 0.16036,0.90201 0.50111,1.26281l1.3029,1.26281c0.30067,0.32071 0.68151,0.48107 1.16259,0.48107s0.88196,-0.16036 1.20268,-0.50111c0.32071,-0.34076 0.48107,-0.74165 0.48107,-1.24277c0,-0.44099 -0.16036,-0.84188 -0.48107,-1.16259l-1.3029,-1.3029c-0.32071,-0.32071 -0.70156,-0.48107 -1.14254,-0.48107c-0.48107,0 -0.88196,0.16036 -1.20268,0.48107c-0.34076,0.32071 -0.52116,0.7216 -0.52116,1.20268l0,-0.00001l0,0.00001zm2.94657,-12.64817c0,0.46103 0.1804,0.84188 0.52116,1.16259c0.32071,0.32071 0.74165,0.48107 1.22273,0.48107l4.08911,0c0.46103,0 0.84188,-0.16036 1.16259,-0.46103s0.46103,-0.70156 0.46103,-1.18264c0,-0.48107 -0.16036,-0.88196 -0.46103,-1.20268s-0.70156,-0.50111 -1.16259,-0.50111l-4.08911,0c-0.48107,0 -0.88196,0.16036 -1.22273,0.50111c-0.3608,0.34076 -0.52116,0.74165 -0.52116,1.20268l0,0.00001z"/>
   </g>

</svg>
