<svg width="60" height="60" xmlns="http://www.w3.org/2000/svg">

  <defs>
    <filter id="drop_shadow" filterUnits="objectBoundingBox" x="-50%" y="-50%" width="200%" height="200%">
      <feDropShadow dx="0.5" dy="0.5" stdDeviation="2" flood-color="black" flood-opacity="0.8" />
    </filter>
    <filter id="blur_shadow" filterUnits="objectBoundingBox" x="-50%" y="-50%" width="200%" height="200%">
      <feGaussianBlur in="SourceGraphic" stdDeviation="3" />
    </filter>
  </defs>

<g>
  <path stroke="midnightblue" stroke-opacity="0.4" stroke-width="2.5" style="filter:url(#drop_shadow)" d="m11.927744,43.950104c0,-0.302757 0,-0.535647 0.023289,-0.675381l0,-0.186312c0,-0.046578 0,-0.093156 0,-0.139734c0,-0.046578 0,-0.069867 0,-0.116445s0,-0.069867 0,-0.116445c0,-0.046578 0,-0.069867 0,-0.093156l0,-0.046578c0,-0.069867 0.023289,-0.163023 0.046578,-0.279468c0.023289,-0.116445 0.046578,-0.186312 0.046578,-0.209601l0,-0.069867c0,-0.023289 0,-0.069867 0,-0.116445c0,-0.046578 0,-0.069867 0,-0.093156l0.186312,-0.861693c0,-0.023289 0,-0.023289 0.023289,-0.046578l0,-0.046578l0.093156,-0.326046c0.023289,-0.023289 0.023289,-0.023289 0.023289,-0.046578c0.023289,-0.023289 0.023289,-0.046578 0.023289,-0.069867l0,-0.069867c0.093156,-0.279468 0.163023,-0.512358 0.23289,-0.652092c0,-0.023289 0.023289,-0.046578 0.046578,-0.069867c0.023289,-0.023289 0.046578,-0.139734 0.116445,-0.349335c0.395913,-0.884982 0.884982,-1.723385 1.467206,-2.515211l0.139734,-0.163023c0.023289,-0.023289 0.046578,-0.046578 0.069867,-0.093156c0.023289,-0.046578 0.046578,-0.069867 0.069867,-0.093156c0.023289,-0.023289 0.069867,-0.069867 0.163023,-0.139734c0.023289,-0.046578 0.046578,-0.093156 0.093156,-0.139734c0.046578,-0.046578 0.069867,-0.093156 0.093156,-0.139734c0.093156,-0.046578 0.139734,-0.116445 0.163023,-0.163023c0.023289,-0.023289 0.069867,-0.046578 0.163023,-0.139734l0.163023,-0.163023l17.699632,-19.399728l-0.884982,5.123578l15.883091,-16.977673l-9.734797,18.957237l9.734797,-7.359321l-8.826527,17.699632l6.311316,-4.355041l-10.899247,19.399728c0,0.023289 -0.023289,0.046578 -0.046578,0.093156s-0.046578,0.093156 -0.069867,0.116445c-0.023289,0.023289 -0.023289,0.046578 -0.046578,0.093156c-0.023289,0.046578 -0.023289,0.069867 -0.046578,0.116445c-0.023289,0.023289 -0.023289,0.046578 -0.046578,0.116445c-0.023289,0.046578 -0.046578,0.093156 -0.046578,0.116445c-1.001427,1.956275 -2.445344,3.516637 -4.331752,4.704376c-1.886408,1.187738 -3.959128,1.769963 -6.21816,1.769963c-2.142587,0 -4.122151,-0.535647 -5.938692,-1.583651c-1.816541,-1.071293 -3.260458,-2.491922 -4.331752,-4.331752s-1.60694,-3.726238 -1.60694,-5.868825l-0.000001,0.000002zm2.794679,0c0,2.515211 0.884982,4.634509 2.654945,6.404472c1.769963,1.769963 3.91255,2.654945 6.404472,2.654945c1.909697,0 3.633082,-0.558936 5.170156,-1.653518c1.537073,-1.094582 2.631656,-2.5385 3.283747,-4.285174c0.395913,-1.001427 0.582225,-2.026142 0.582225,-3.120725c0,-2.491922 -0.884982,-4.634509 -2.631656,-6.404472c-1.769963,-1.769963 -3.889261,-2.631656 -6.404472,-2.631656c-2.328899,0 -4.355041,0.768537 -6.055137,2.328899c-0.954849,0.838404 -1.676807,1.816541 -2.212454,2.980991c-0.535647,1.187738 -0.791826,2.422055 -0.791826,3.726238z" fill="red"/>
  <path stroke="none" style="filter:url(#blur_shadow)" d="m14.669678,43.874996c0,2.515211 0.884982,4.634509 2.654945,6.404472c1.769963,1.769963 3.91255,2.654945 6.404472,2.654945c1.909697,0 3.633082,-0.558936 5.170156,-1.653518c1.537073,-1.094582 2.631656,-2.5385 3.283747,-4.285174c0.395913,-1.001427 0.582225,-2.026142 0.582225,-3.120725c0,-2.491922 -0.884982,-4.634509 -2.631656,-6.404472c-1.769963,-1.769963 -3.889261,-2.631656 -6.404472,-2.631656c-2.328899,0 -4.355041,0.768537 -6.055137,2.328899c-0.954849,0.838404 -1.676807,1.816541 -2.212454,2.980991c-0.535647,1.187738 -0.791826,2.422055 -0.791826,3.726238z" fill="orangered"/>
  <path fill-opacity="0.8" style="filter:url(#blur_shadow)" d="m14.669678,43.874996c0,2.515211 0.884982,4.634509 2.654945,6.404472c1.769963,1.769963 3.91255,2.654945 6.404472,2.654945c1.909697,0 3.633082,-0.558936 5.170156,-1.653518c1.537073,-1.094582 2.631656,-2.5385 3.283747,-4.285174c0.395913,-1.001427 0.582225,-2.026142 0.582225,-3.120725c0,-2.491922 -0.884982,-4.634509 -2.631656,-6.404472c-1.769963,-1.769963 -3.889261,-2.631656 -6.404472,-2.631656c-2.328899,0 -4.355041,0.768537 -6.055137,2.328899c-0.954849,0.838404 -1.676807,1.816541 -2.212454,2.980991c-0.535647,1.187738 -0.791826,2.422055 -0.791826,3.726238z" fill="orange"/>
</g>
</svg>

