<svg width="60" height="60" xmlns="http://www.w3.org/2000/svg">

  <defs>
    <filter id="drop_shadow" filterUnits="objectBoundingBox" x="-50%" y="-50%" width="200%" height="200%">
      <feDropShadow dx="0.5" dy="0.5" stdDeviation="2" flood-color="black" flood-opacity="0.8" />
    </filter>
    <filter id="blur_shadow" filterUnits="objectBoundingBox" x="-50%" y="-50%" width="200%" height="200%">
      <feGaussianBlur in="SourceGraphic" stdDeviation="3" />
    </filter>
  </defs>

<g fill="black" filter="url(#blur_shadow)">
   <path d="m8.0375,33.75392c0,2.71091 0.95799,5.05494 2.8536,7.01169s4.21924,2.99628 6.93016,3.11858c0.24459,0 0.36689,-0.1223 0.36689,-0.34651l0,-2.7313c0,-0.22421 -0.1223,-0.3465 -0.36689,-0.3465c-1.75292,-0.10192 -3.24087,-0.79493 -4.46384,-2.09943c-1.22297,-1.3045 -1.83445,-2.83322 -1.83445,-4.60652c0,-1.69178 0.57072,-3.15934 1.73254,-4.42307c1.16182,-1.24336 2.58862,-1.97714 4.2804,-2.18096l1.08029,-0.08153c0.26498,0 0.40765,-0.1223 0.40765,-0.3669l0.14268,-1.10067c0.22421,-2.20135 1.14144,-4.05618 2.79245,-5.54413c1.65101,-1.48794 3.58738,-2.24211 5.80911,-2.24211c2.22173,0 4.1581,0.75416 5.82949,2.24211c1.67139,1.48795 2.60901,3.34278 2.8536,5.54413l0.16306,1.16182c0,0.24459 0.1223,0.38728 0.34651,0.38728l3.30202,0c1.85483,0 3.42431,0.65225 4.7492,1.93636c1.3045,1.28412 1.97714,2.8536 1.97714,4.64729c0,1.75292 -0.61149,3.28164 -1.85484,4.58614c-1.24335,1.30449 -2.7313,2.01789 -4.46384,2.11981c-0.24459,0 -0.38728,0.1223 -0.38728,0.34651l0,2.73129c0,0.22421 0.1223,0.34651 0.38728,0.34651c2.7313,-0.08153 5.03456,-1.12105 6.93016,-3.0778c1.89561,-1.97714 2.83322,-4.32116 2.83322,-7.03208c0,-1.44719 -0.28537,-2.81283 -0.87646,-4.09695c1.61024,-1.95676 2.40517,-4.21925 2.40517,-6.76711c0,-1.93636 -0.48919,-3.73005 -1.44718,-5.38106s-2.26249,-2.95551 -3.91351,-3.9135s-3.42431,-1.4268 -5.3403,-1.4268c-3.15934,0 -5.80911,1.1822 -7.92893,3.52622c-1.651,-0.87646 -3.48546,-1.32488 -5.52375,-1.32488c-2.87398,0 -5.44221,0.89685 -7.66394,2.69054s-3.66892,4.07656 -4.30078,6.84863c-2.26249,0.52995 -4.11733,1.71216 -5.58489,3.54661c-1.48794,1.85484 -2.22173,3.95427 -2.22173,6.2983l0,0zm28.12831,-16.04129c1.38603,-1.38603 3.05743,-2.05867 5.05494,-2.05867c1.99752,0 3.68929,0.7134 5.09571,2.11982s2.09943,3.11857 2.09943,5.13647c0,1.20258 -0.34651,2.44594 -1.03952,3.75044c-1.95676,-1.95675 -4.34155,-2.93513 -7.134,-2.93513l-0.63187,0c-0.57072,-2.38479 -1.73254,-4.38231 -3.44469,-6.01293l0,0z"/>
   <path d="m40.67041,40.43948zm-19.60828,1.71216c0,0.44842 0.16306,0.8357 0.48919,1.16182c0.34651,0.34651 0.73379,0.50957 1.18221,0.50957c0.46881,0 0.87646,-0.16306 1.20258,-0.46881s0.48919,-0.7134 0.48919,-1.20258c0,-0.48919 -0.16306,-0.87646 -0.4688,-1.20258c-0.32613,-0.32613 -0.7134,-0.46881 -1.20259,-0.46881c-0.48919,0 -0.87646,0.16306 -1.20258,0.46881c-0.32612,0.30574 -0.48919,0.71339 -0.48919,1.20258l0,0zm0,7.39897c0,0.48919 0.16306,0.87646 0.48919,1.18221c0.32612,0.32612 0.73379,0.48919 1.18221,0.48919c0.48919,0 0.87646,-0.16306 1.20258,-0.46881c0.32612,-0.32612 0.46881,-0.7134 0.46881,-1.20258c0,-0.48919 -0.16306,-0.89685 -0.48919,-1.22297s-0.7134,-0.50957 -1.20259,-0.50957c-0.46881,0 -0.87646,0.16306 -1.20258,0.50957s-0.44842,0.73379 -0.44842,1.22297l0,0zm6.50212,-3.54661c0,0.46881 0.16306,0.89684 0.50957,1.24335s0.73379,0.55034 1.18221,0.55034c0.46881,0 0.87646,-0.18345 1.22297,-0.52995c0.3465,-0.34651 0.50956,-0.77455 0.50956,-1.26374c0,-0.44842 -0.16306,-0.8357 -0.50956,-1.18221c-0.34651,-0.34651 -0.75416,-0.50957 -1.22297,-0.50957c-0.44842,0 -0.8357,0.16306 -1.18221,0.50957s-0.50957,0.73379 -0.50957,1.18221zm0,-7.31744c0,0.46881 0.16306,0.85607 0.48919,1.1822s0.73378,0.48919 1.20258,0.48919c0.48919,0 0.89685,-0.16306 1.22297,-0.48919s0.50957,-0.71339 0.50957,-1.20258s-0.16307,-0.87646 -0.50957,-1.22297s-0.75416,-0.50956 -1.22297,-0.50956c-0.46881,0 -0.85608,0.16306 -1.20258,0.50956s-0.48919,0.77455 -0.48919,1.24336l0,0zm0,14.81832c0,0.4688 0.16306,0.87646 0.50957,1.22296c0.34651,0.34651 0.73379,0.50957 1.20258,0.50957c0.46881,0 0.87646,-0.16306 1.22297,-0.50957c0.34651,-0.3465 0.50957,-0.75416 0.50957,-1.22296c0,-0.44843 -0.16306,-0.8357 -0.50957,-1.18221c-0.3465,-0.34651 -0.75416,-0.50957 -1.22297,-0.50957c-0.44842,0 -0.8357,0.16306 -1.1822,0.50957c-0.34651,0.34651 -0.52996,0.73378 -0.52996,1.18221l0,0zm6.60404,-11.35324c0,0.42804 0.16307,0.81531 0.48919,1.16182c0.3465,0.34651 0.75416,0.50957 1.22297,0.50957c0.4688,0 0.87646,-0.16306 1.20258,-0.46881c0.32612,-0.32612 0.48919,-0.7134 0.48919,-1.20258c0,-0.48919 -0.16306,-0.87646 -0.46881,-1.20258c-0.32612,-0.32613 -0.7134,-0.46881 -1.20258,-0.46881c-0.48919,0 -0.89685,0.16306 -1.22297,0.46881c-0.3465,0.30574 -0.50957,0.71339 -0.50957,1.20258l0,0zm0,7.39897c0,0.44842 0.16307,0.85608 0.48919,1.18221s0.73378,0.48919 1.22297,0.48919c0.48919,0 0.87646,-0.16306 1.20258,-0.46881c0.32612,-0.32612 0.46881,-0.7134 0.46881,-1.20258c0,-0.48919 -0.16306,-0.89685 -0.48919,-1.22297c-0.32612,-0.34651 -0.7134,-0.50957 -1.20258,-0.50957c-0.46881,0 -0.87646,0.16306 -1.22297,0.50957s-0.46881,0.73379 -0.46881,1.22297l0,0z"/>
</g>

<circle style="filter:url(#blur_shadow);" fill-opacity="0.2" fill="lightcyan" cy="22.12474" cx="41.62453" r="6.87506"/>
<g stroke-width="2.5" stroke-opacity="0.4" stroke="midnightblue">
  <path stroke-width="0" filter="url(#blur_shadow)" fill="paleturquoise" fill-opacity="0.3" d="m11.43267,33.85888c0,1.81002 0.66685,3.38188 1.95292,4.66796s2.88175,1.95292 4.73941,1.95292l22.10135,0c1.83385,0 3.42952,-0.64303 4.73941,-1.95292c1.30989,-1.30989 1.97674,-2.85793 1.97674,-4.66796c0,-1.81002 -0.64303,-3.38188 -1.97674,-4.66796c-1.30989,-1.28607 -2.88175,-1.95292 -4.73941,-1.95292l-3.31044,0c-0.23816,0 -0.35724,-0.11908 -0.35724,-0.35724l-0.16671,-1.16699c-0.23816,-2.23872 -1.19081,-4.1202 -2.83411,-5.59679s-3.59624,-2.2149 -5.83495,-2.2149c-2.23872,0 -4.19163,0.7383 -5.85877,2.23872c-1.66713,1.4766 -2.59596,3.35807 -2.8103,5.57298l-0.16671,1.00028c0,0.23816 -0.11908,0.35724 -0.38106,0.35724l-1.07172,0.16671c-1.71476,0.14289 -3.14373,0.85738 -4.31071,2.11963c-1.09554,1.26226 -1.69095,2.76268 -1.69095,4.50125l-0.00001,-0.00001l-0.00001,0z"/>
  <path fill="linen" d="m8.0375,33.75392c0,2.71091 0.95799,5.05494 2.8536,7.01169s4.21924,2.99628 6.93016,3.11858c0.24459,0 0.36689,-0.1223 0.36689,-0.34651l0,-2.7313c0,-0.22421 -0.1223,-0.3465 -0.36689,-0.3465c-1.75292,-0.10192 -3.24087,-0.79493 -4.46384,-2.09943c-1.22297,-1.3045 -1.83445,-2.83322 -1.83445,-4.60652c0,-1.69178 0.57072,-3.15934 1.73254,-4.42307c1.16182,-1.24336 2.58862,-1.97714 4.2804,-2.18096l1.08029,-0.08153c0.26498,0 0.40765,-0.1223 0.40765,-0.3669l0.14268,-1.10067c0.22421,-2.20135 1.14144,-4.05618 2.79245,-5.54413c1.65101,-1.48794 3.58738,-2.24211 5.80911,-2.24211c2.22173,0 4.1581,0.75416 5.82949,2.24211c1.67139,1.48795 2.60901,3.34278 2.8536,5.54413l0.16306,1.16182c0,0.24459 0.1223,0.38728 0.34651,0.38728l3.30202,0c1.85483,0 3.42431,0.65225 4.7492,1.93636c1.3045,1.28412 1.97714,2.8536 1.97714,4.64729c0,1.75292 -0.61149,3.28164 -1.85484,4.58614c-1.24335,1.30449 -2.7313,2.01789 -4.46384,2.11981c-0.24459,0 -0.38728,0.1223 -0.38728,0.34651l0,2.73129c0,0.22421 0.1223,0.34651 0.38728,0.34651c2.7313,-0.08153 5.03456,-1.12105 6.93016,-3.0778c1.89561,-1.97714 2.83322,-4.32116 2.83322,-7.03208c0,-1.44719 -0.28537,-2.81283 -0.87646,-4.09695c1.61024,-1.95676 2.40517,-4.21925 2.40517,-6.76711c0,-1.93636 -0.48919,-3.73005 -1.44718,-5.38106s-2.26249,-2.95551 -3.91351,-3.9135s-3.42431,-1.4268 -5.3403,-1.4268c-3.15934,0 -5.80911,1.1822 -7.92893,3.52622c-1.651,-0.87646 -3.48546,-1.32488 -5.52375,-1.32488c-2.87398,0 -5.44221,0.89685 -7.66394,2.69054s-3.66892,4.07656 -4.30078,6.84863c-2.26249,0.52995 -4.11733,1.71216 -5.58489,3.54661c-1.48794,1.85484 -2.22173,3.95427 -2.22173,6.2983l0,0zm28.12831,-16.04129c1.38603,-1.38603 3.05743,-2.05867 5.05494,-2.05867c1.99752,0 3.68929,0.7134 5.09571,2.11982s2.09943,3.11857 2.09943,5.13647c0,1.20258 -0.34651,2.44594 -1.03952,3.75044c-1.95676,-1.95675 -4.34155,-2.93513 -7.134,-2.93513l-0.63187,0c-0.57072,-2.38479 -1.73254,-4.38231 -3.44469,-6.01293l0,0z"/>
  <path stroke-width="1" fill="white" d="m40.67041,40.43948zm-19.60828,1.71216c0,0.44842 0.16306,0.8357 0.48919,1.16182c0.34651,0.34651 0.73379,0.50957 1.18221,0.50957c0.46881,0 0.87646,-0.16306 1.20258,-0.46881s0.48919,-0.7134 0.48919,-1.20258c0,-0.48919 -0.16306,-0.87646 -0.4688,-1.20258c-0.32613,-0.32613 -0.7134,-0.46881 -1.20259,-0.46881c-0.48919,0 -0.87646,0.16306 -1.20258,0.46881c-0.32612,0.30574 -0.48919,0.71339 -0.48919,1.20258l0,0zm0,7.39897c0,0.48919 0.16306,0.87646 0.48919,1.18221c0.32612,0.32612 0.73379,0.48919 1.18221,0.48919c0.48919,0 0.87646,-0.16306 1.20258,-0.46881c0.32612,-0.32612 0.46881,-0.7134 0.46881,-1.20258c0,-0.48919 -0.16306,-0.89685 -0.48919,-1.22297s-0.7134,-0.50957 -1.20259,-0.50957c-0.46881,0 -0.87646,0.16306 -1.20258,0.50957s-0.44842,0.73379 -0.44842,1.22297l0,0zm6.50212,-3.54661c0,0.46881 0.16306,0.89684 0.50957,1.24335s0.73379,0.55034 1.18221,0.55034c0.46881,0 0.87646,-0.18345 1.22297,-0.52995c0.3465,-0.34651 0.50956,-0.77455 0.50956,-1.26374c0,-0.44842 -0.16306,-0.8357 -0.50956,-1.18221c-0.34651,-0.34651 -0.75416,-0.50957 -1.22297,-0.50957c-0.44842,0 -0.8357,0.16306 -1.18221,0.50957s-0.50957,0.73379 -0.50957,1.18221zm0,-7.31744c0,0.46881 0.16306,0.85607 0.48919,1.1822s0.73378,0.48919 1.20258,0.48919c0.48919,0 0.89685,-0.16306 1.22297,-0.48919s0.50957,-0.71339 0.50957,-1.20258s-0.16307,-0.87646 -0.50957,-1.22297s-0.75416,-0.50956 -1.22297,-0.50956c-0.46881,0 -0.85608,0.16306 -1.20258,0.50956s-0.48919,0.77455 -0.48919,1.24336l0,0zm0,14.81832c0,0.4688 0.16306,0.87646 0.50957,1.22296c0.34651,0.34651 0.73379,0.50957 1.20258,0.50957c0.46881,0 0.87646,-0.16306 1.22297,-0.50957c0.34651,-0.3465 0.50957,-0.75416 0.50957,-1.22296c0,-0.44843 -0.16306,-0.8357 -0.50957,-1.18221c-0.3465,-0.34651 -0.75416,-0.50957 -1.22297,-0.50957c-0.44842,0 -0.8357,0.16306 -1.1822,0.50957c-0.34651,0.34651 -0.52996,0.73378 -0.52996,1.18221l0,0zm6.60404,-11.35324c0,0.42804 0.16307,0.81531 0.48919,1.16182c0.3465,0.34651 0.75416,0.50957 1.22297,0.50957c0.4688,0 0.87646,-0.16306 1.20258,-0.46881c0.32612,-0.32612 0.48919,-0.7134 0.48919,-1.20258c0,-0.48919 -0.16306,-0.87646 -0.46881,-1.20258c-0.32612,-0.32613 -0.7134,-0.46881 -1.20258,-0.46881c-0.48919,0 -0.89685,0.16306 -1.22297,0.46881c-0.3465,0.30574 -0.50957,0.71339 -0.50957,1.20258l0,0zm0,7.39897c0,0.44842 0.16307,0.85608 0.48919,1.18221s0.73378,0.48919 1.22297,0.48919c0.48919,0 0.87646,-0.16306 1.20258,-0.46881c0.32612,-0.32612 0.46881,-0.7134 0.46881,-1.20258c0,-0.48919 -0.16306,-0.89685 -0.48919,-1.22297c-0.32612,-0.34651 -0.7134,-0.50957 -1.20258,-0.50957c-0.46881,0 -0.87646,0.16306 -1.22297,0.50957s-0.46881,0.73379 -0.46881,1.22297l0,0z"/>
</g>
</svg>
