<svg width="60" height="60" xmlns="http://www.w3.org/2000/svg">

  <defs>
    <filter id="drop_shadow" filterUnits="objectBoundingBox" x="-50%" y="-50%" width="200%" height="200%">
      <feDropShadow dx="0.5" dy="0.5" stdDeviation="2" flood-color="black" flood-opacity="0.8" />
    </filter>
    <filter id="blur_shadow" filterUnits="objectBoundingBox" x="-50%" y="-50%" width="200%" height="200%">
      <feGaussianBlur in="SourceGraphic" stdDeviation="3" />
    </filter>
    <filter id="shadow">
      <feDropShadow dx="0.3" dy="0.6" stdDeviation="0.6" flood-color="black"/>
    </filter>
  </defs>

<g fill="black" style="filter:url(#blur_shadow)">
  <path d="m8.195,33.75798c0,2.6457 0.93495,4.91344 2.78495,6.82312s4.11775,2.9242 6.76345,3.00377c0.23871,0 0.35806,-0.11935 0.35806,-0.33817l0,-2.66559c0,-0.21882 -0.11935,-0.33817 -0.35806,-0.33817c-1.69086,-0.07957 -3.14301,-0.77581 -4.33656,-2.04893c-1.21344,-1.27312 -1.81022,-2.76506 -1.81022,-4.45592c0,-1.69086 0.55699,-3.14301 1.69086,-4.37635c1.13387,-1.23333 2.52635,-1.90968 4.17742,-2.04893l1.0543,-0.13925c0.2586,0 0.39785,-0.11935 0.39785,-0.33817l0.13925,-1.03441c0.21882,-2.16828 1.11398,-3.99839 2.72527,-5.47043s3.50108,-2.20807 5.68925,-2.20807c2.16828,0 4.05807,0.73602 5.68925,2.18817c1.63118,1.45215 2.54624,3.26237 2.78495,5.41076l0.15914,1.13387c0,0.23871 0.11935,0.35806 0.33817,0.35806l3.22258,0c1.81022,0 3.34194,0.63656 4.63495,1.92957c1.29301,1.27312 1.92957,2.80484 1.92957,4.59517c0,1.69086 -0.59677,3.1828 -1.81022,4.45592c-1.21344,1.27312 -2.6457,1.94946 -4.33656,2.04893c-0.27849,0 -0.41774,0.11935 -0.41774,0.33817l0,2.66559c0,0.21882 0.13925,0.33817 0.41774,0.33817c1.75054,-0.03978 3.34194,-0.5172 4.79409,-1.41237c1.45215,-0.89516 2.60592,-2.08871 3.4414,-3.58065s1.25323,-3.10323 1.25323,-4.83387c0,-1.81022 -0.43763,-3.46129 -1.29301,-4.93334c1.47204,-1.3129 2.46667,-3.02366 3.02366,-5.13226l0.33817,-1.43226c0.01989,-0.01989 0.03978,-0.07957 0.03978,-0.15914c0,-0.13925 -0.09946,-0.2586 -0.31828,-0.31828l-1.21344,-0.33817c-0.87527,-0.2586 -1.65108,-0.63656 -2.32742,-1.13387s-1.21344,-1.0543 -1.61129,-1.67097c-0.39785,-0.61667 -0.67634,-1.23333 -0.87527,-1.88979c-0.19892,-0.63656 -0.29839,-1.27312 -0.29839,-1.88979c0,-0.5371 0.05968,-1.11398 0.19892,-1.71075l0.21882,-1.23333c0.03978,-0.17903 -0.03978,-0.33817 -0.27849,-0.43763l-1.5914,-0.47742c-0.87527,-0.21882 -1.69086,-0.31828 -2.48656,-0.31828c-0.73602,0 -1.47204,0.07957 -2.22796,0.2586c-0.75591,0.17903 -1.53172,0.43763 -2.34731,0.81559c-0.81559,0.37796 -1.5914,0.89516 -2.34731,1.5914c-0.75591,0.69624 -1.41237,1.49194 -1.96936,2.42688c-1.61129,-0.65645 -3.1828,-0.99462 -4.73441,-0.99462c-2.80484,0 -5.31129,0.87527 -7.47958,2.62581s-3.58065,3.9785 -4.19732,6.70377c-2.22796,0.55699 -4.05807,1.73065 -5.47043,3.50108c-1.41237,1.79032 -2.1285,3.83925 -2.1285,6.14678zm11.00055,15.37689c0,0.45753 0.15914,0.83548 0.47742,1.15376c0.31828,0.31828 0.71613,0.47742 1.15376,0.47742c0.47742,0 0.87527,-0.15914 1.19355,-0.45753c0.31828,-0.31828 0.47742,-0.69624 0.47742,-1.17366c0,-0.47742 -0.15914,-0.85538 -0.47742,-1.17366c-0.31828,-0.31828 -0.71613,-0.45753 -1.19355,-0.45753s-0.83548,0.13925 -1.15376,0.45753c-0.31828,0.29839 -0.47742,0.69624 -0.47742,1.17366zm0.85538,-7.24087c0,0.47742 0.15914,0.87527 0.47742,1.19355s0.69624,0.49731 1.17366,0.49731c0.47742,0 0.87527,-0.15914 1.19355,-0.49731c0.31828,-0.33817 0.47742,-0.73602 0.47742,-1.19355c0,-0.43763 -0.15914,-0.83548 -0.47742,-1.15376c-0.31828,-0.31828 -0.71613,-0.47742 -1.19355,-0.47742c-0.45753,0 -0.85538,0.15914 -1.17366,0.47742s-0.47742,0.69624 -0.47742,1.15376zm4.67473,11.15969c0,0.43763 0.15914,0.81559 0.47742,1.13387c0.33817,0.33817 0.71613,0.49731 1.15376,0.49731c0.47742,0 0.87527,-0.15914 1.21344,-0.47742c0.33817,-0.31828 0.49731,-0.69624 0.49731,-1.17366c0,-0.47742 -0.15914,-0.87527 -0.49731,-1.21344c-0.33817,-0.33817 -0.73602,-0.5172 -1.21344,-0.5172c-0.43763,0 -0.81559,0.17903 -1.15376,0.5172c-0.31828,0.35806 -0.47742,0.77581 -0.47742,1.23333zm1.27312,-7.30054c0,0.47742 0.15914,0.85538 0.49731,1.17366c0.31828,0.31828 0.69624,0.47742 1.13387,0.47742c0.47742,0 0.87527,-0.15914 1.21344,-0.47742c0.33817,-0.31828 0.5172,-0.71613 0.5172,-1.17366c0,-0.47742 -0.17903,-0.87527 -0.5172,-1.21344c-0.33817,-0.33817 -0.75591,-0.5172 -1.21344,-0.5172c-0.43763,0 -0.81559,0.17903 -1.15376,0.5172s-0.47742,0.73602 -0.47742,1.21344zm1.27312,-7.24087c0,0.47742 0.15914,0.85538 0.47742,1.15376c0.31828,0.31828 0.71613,0.47742 1.15376,0.47742c0.47742,0 0.89516,-0.15914 1.21344,-0.45753s0.49731,-0.69624 0.49731,-1.17366c0,-0.45753 -0.15914,-0.85538 -0.49731,-1.19355s-0.73602,-0.49731 -1.21344,-0.49731c-0.43763,0 -0.83548,0.15914 -1.15376,0.49731s-0.47742,0.73602 -0.47742,1.19355zm4.7543,10.62259c0,0.45753 0.15914,0.83548 0.47742,1.15376c0.31828,0.31828 0.71613,0.47742 1.19355,0.47742c0.45753,0 0.85538,-0.15914 1.17366,-0.47742c0.31828,-0.31828 0.47742,-0.69624 0.47742,-1.17366c0,-0.47742 -0.15914,-0.85538 -0.45753,-1.17366c-0.31828,-0.31828 -0.69624,-0.45753 -1.17366,-0.45753c-0.47742,0 -0.87527,0.15914 -1.19355,0.45753c-0.33817,0.31828 -0.49731,0.71613 -0.49731,1.19355zm0.83548,-7.24087c0,0.45753 0.15914,0.85538 0.49731,1.19355c0.33817,0.33817 0.73602,0.49731 1.19355,0.49731s0.85538,-0.15914 1.17366,-0.49731s0.47742,-0.73602 0.47742,-1.19355c0,-0.43763 -0.15914,-0.83548 -0.47742,-1.15376s-0.69624,-0.47742 -1.17366,-0.47742s-0.85538,0.15914 -1.19355,0.49731c-0.33817,0.31828 -0.49731,0.69624 -0.49731,1.13387zm2.20807,-24.3683c0.61667,-1.07419 1.49194,-1.90968 2.58602,-2.50645s2.22796,-0.89516 3.40162,-0.91505c0.29839,0 0.5172,0.01989 0.65645,0.03978l0,0.61667c0,1.92957 0.5172,3.73979 1.55161,5.45054s2.48656,3.00377 4.31667,3.89893c-0.31828,0.71613 -0.81559,1.43226 -1.51183,2.1285c-1.77043,-1.57151 -3.89893,-2.34731 -6.42527,-2.34731l-0.61667,0c-0.5371,-2.44678 -1.85,-4.55538 -3.95861,-6.3656z"/>
</g>

<g stroke-width="2.5" stroke-opacity="0.4" stroke="midnightblue">

  <path id="moonfillback" stroke-width="0.1" fill="paleturquoise"  fill-opacity="0.2" style="filter:url(#blur_shadow)" d="m39.9567,27.27653zm-4.53863,-9.71987c0.62256,-1.1447 1.50618,-2.02832 2.61072,-2.6308c1.10453,-0.60247 2.2894,-0.90371 3.53451,-0.88363c0.22091,0 0.40165,0.02008 0.50206,0.04016l0,0.62256c0,1.96808 0.52214,3.79558 1.56643,5.52267c1.04429,1.72709 2.5103,3.03245 4.35789,3.91607c-0.38157,0.88363 -0.88363,1.58651 -1.50618,2.14882c-1.76725,-1.58651 -3.93616,-2.36973 -6.52679,-2.36973l-0.64264,0c-0.52214,-2.5103 -1.80742,-4.63904 -3.89599,-6.36613l-0.00001,0.00001z"/>

  <path stroke-width="0" filter="url(#blur_shadow)" fill="paleturquoise" fill-opacity="0.3" d="m11.43267,33.85888c0,1.81002 0.66685,3.38188 1.95292,4.66796s2.88175,1.95292 4.73941,1.95292l22.10135,0c1.83385,0 3.42952,-0.64303 4.73941,-1.95292c1.30989,-1.30989 1.97674,-2.85793 1.97674,-4.66796c0,-1.81002 -0.64303,-3.38188 -1.97674,-4.66796c-1.30989,-1.28607 -2.88175,-1.95292 -4.73941,-1.95292l-3.31044,0c-0.23816,0 -0.35724,-0.11908 -0.35724,-0.35724l-0.16671,-1.16699c-0.23816,-2.23872 -1.19081,-4.1202 -2.83411,-5.59679s-3.59624,-2.2149 -5.83495,-2.2149c-2.23872,0 -4.19163,0.7383 -5.85877,2.23872c-1.66713,1.4766 -2.59596,3.35807 -2.8103,5.57298l-0.16671,1.00028c0,0.23816 -0.11908,0.35724 -0.38106,0.35724l-1.07172,0.16671c-1.71476,0.14289 -3.14373,0.85738 -4.31071,2.11963c-1.09554,1.26226 -1.69095,2.76268 -1.69095,4.50125l-0.00001,-0.00001l-0.00001,0z"/>
  <path id="cloudmoon" fill="linen" d="m8.26664,33.78325c0,2.67096 0.92379,4.98044 2.79146,6.88827s4.13698,2.95212 6.82802,3.07261c0.24099,0 0.36148,-0.12049 0.36148,-0.3414l0,-2.69105c0,-0.22091 -0.12049,-0.3414 -0.36148,-0.3414c-1.72709,-0.08033 -3.17302,-0.76313 -4.37797,-2.04841s-1.80742,-2.79146 -1.80742,-4.53863c0,-1.66684 0.56231,-3.11278 1.68692,-4.35789c1.12462,-1.22503 2.53039,-1.948 4.21731,-2.14882l1.06437,-0.06025c0.26107,0 0.40165,-0.12049 0.40165,-0.36148l0.14058,-1.08445c0.22091,-2.1689 1.12462,-3.9964 2.75129,-5.46242c1.62668,-1.46602 3.53451,-2.20907 5.72349,-2.20907c2.1689,0 4.07673,0.74305 5.72349,2.20907c1.64676,1.46602 2.57055,3.29352 2.81154,5.46242l0.16066,1.16478c0,0.22091 0.12049,0.3414 0.3414,0.3414l3.23327,0c1.78734,0 3.33368,0.64264 4.63904,1.92791c1.30536,1.28528 1.96808,2.81154 1.96808,4.55871c0,1.74717 -0.60247,3.25335 -1.80742,4.53863c-1.20495,1.28528 -2.67096,1.96808 -4.37797,2.04841c-0.26107,0 -0.40165,0.12049 -0.40165,0.3414l0,2.69105c0,0.22091 0.14058,0.3414 0.40165,0.3414c2.67096,-0.08033 4.94028,-1.10453 6.78786,-3.03245c1.86767,-1.92791 2.79146,-4.23739 2.79146,-6.92844c0,-1.72709 -0.44181,-3.33368 -1.30536,-4.83986c1.58651,-1.4861 2.61072,-3.25335 3.11278,-5.2616l0.26107,-1.3656c0.04016,-0.02008 0.06025,-0.06025 0.06025,-0.14058c0,-0.14058 -0.10041,-0.26107 -0.32132,-0.32132l-1.12462,-0.3414c-1.1447,-0.3414 -2.10865,-0.90371 -2.93203,-1.70701c-0.8033,-0.8033 -1.38569,-1.62668 -1.72709,-2.5103c-0.3414,-0.86354 -0.50206,-1.74717 -0.50206,-2.65088c-0.02008,-0.48198 0.04016,-1.0242 0.16066,-1.58651l0.28115,-1.16478c0.06025,-0.18074 -0.04016,-0.32132 -0.28115,-0.44181l-1.60659,-0.50206c-0.84346,-0.24099 -1.72709,-0.38157 -2.6308,-0.38157c-0.70288,0 -1.42585,0.08033 -2.1689,0.26107s-1.52626,0.44181 -2.34964,0.8033c-0.82338,0.36148 -1.60659,0.90371 -2.38981,1.60659c-0.76313,0.70288 -1.44593,1.50618 -2.00824,2.45006c-1.50618,-0.64264 -3.09269,-0.98404 -4.75953,-0.98404c-2.83162,0 -5.36201,0.88363 -7.55099,2.6308s-3.59475,3.9964 -4.21731,6.7477c-2.22915,0.52214 -4.05665,1.66684 -5.50258,3.47426s-2.18898,3.93616 -2.18898,6.24563l-0.00002,0.00001zm27.15143,-16.22659c0.62256,-1.1447 1.50618,-2.02832 2.61072,-2.6308c1.10453,-0.60247 2.2894,-0.90371 3.53451,-0.88363c0.22091,0 0.40165,0.02008 0.50206,0.04016l0,0.62256c0,1.96808 0.52214,3.79558 1.56643,5.52267c1.04429,1.72709 2.5103,3.03245 4.35789,3.91607c-0.38157,0.88363 -0.88363,1.58651 -1.50618,2.14882c-1.76725,-1.58651 -3.93616,-2.36973 -6.52679,-2.36973l-0.64264,0c-0.52214,-2.5103 -1.80742,-4.63904 -3.89599,-6.36613l-0.00001,0.00001z"/>

<path stroke-width="1" id="snow" fill="white" d="m27.47082,18.12248zm-8.27527,31.01239c0,0.45753 0.15914,0.83548 0.47742,1.15376c0.31828,0.31828 0.71613,0.47742 1.15376,0.47742c0.47742,0 0.87527,-0.15914 1.19355,-0.45753c0.31828,-0.31828 0.47742,-0.69624 0.47742,-1.17366c0,-0.47742 -0.15914,-0.85538 -0.47742,-1.17366c-0.31828,-0.31828 -0.71613,-0.45753 -1.19355,-0.45753s-0.83548,0.13925 -1.15376,0.45753c-0.31828,0.29839 -0.47742,0.69624 -0.47742,1.17366l0,0.00001zm0.85538,-7.24087c0,0.47742 0.15914,0.87527 0.47742,1.19355s0.69624,0.49731 1.17366,0.49731c0.47742,0 0.87527,-0.15914 1.19355,-0.49731c0.31828,-0.33817 0.47742,-0.73602 0.47742,-1.19355c0,-0.43763 -0.15914,-0.83548 -0.47742,-1.15376c-0.31828,-0.31828 -0.71613,-0.47742 -1.19355,-0.47742c-0.45753,0 -0.85538,0.15914 -1.17366,0.47742s-0.47742,0.69624 -0.47742,1.15376zm4.67473,11.15969c0,0.43763 0.15914,0.81559 0.47742,1.13387c0.33817,0.33817 0.71613,0.49731 1.15376,0.49731c0.47742,0 0.87527,-0.15914 1.21344,-0.47742c0.33817,-0.31828 0.49731,-0.69624 0.49731,-1.17366c0,-0.47742 -0.15914,-0.87527 -0.49731,-1.21344c-0.33817,-0.33817 -0.73602,-0.5172 -1.21344,-0.5172c-0.43763,0 -0.81559,0.17903 -1.15376,0.5172c-0.31828,0.35806 -0.47742,0.77581 -0.47742,1.23333l0,0.00001zm1.27312,-7.30054c0,0.47742 0.15914,0.85538 0.49731,1.17366c0.31828,0.31828 0.69624,0.47742 1.13387,0.47742c0.47742,0 0.87527,-0.15914 1.21344,-0.47742c0.33817,-0.31828 0.5172,-0.71613 0.5172,-1.17366c0,-0.47742 -0.17903,-0.87527 -0.5172,-1.21344c-0.33817,-0.33817 -0.75591,-0.5172 -1.21344,-0.5172c-0.43763,0 -0.81559,0.17903 -1.15376,0.5172s-0.47742,0.73602 -0.47742,1.21344zm1.27312,-7.24087c0,0.47742 0.15914,0.85538 0.47742,1.15376c0.31828,0.31828 0.71613,0.47742 1.15376,0.47742c0.47742,0 0.89516,-0.15914 1.21344,-0.45753s0.49731,-0.69624 0.49731,-1.17366c0,-0.45753 -0.15914,-0.85538 -0.49731,-1.19355s-0.73602,-0.49731 -1.21344,-0.49731c-0.43763,0 -0.83548,0.15914 -1.15376,0.49731s-0.47742,0.73602 -0.47742,1.19355l0,0.00001zm4.7543,10.62259c0,0.45753 0.15914,0.83548 0.47742,1.15376c0.31828,0.31828 0.71613,0.47742 1.19355,0.47742c0.45753,0 0.85538,-0.15914 1.17366,-0.47742c0.31828,-0.31828 0.47742,-0.69624 0.47742,-1.17366c0,-0.47742 -0.15914,-0.85538 -0.45753,-1.17366c-0.31828,-0.31828 -0.69624,-0.45753 -1.17366,-0.45753c-0.47742,0 -0.87527,0.15914 -1.19355,0.45753c-0.33817,0.31828 -0.49731,0.71613 -0.49731,1.19355l0,0.00001zm0.83548,-7.24087c0,0.45753 0.15914,0.85538 0.49731,1.19355c0.33817,0.33817 0.73602,0.49731 1.19355,0.49731s0.85538,-0.15914 1.17366,-0.49731s0.47742,-0.73602 0.47742,-1.19355c0,-0.43763 -0.15914,-0.83548 -0.47742,-1.15376s-0.69624,-0.47742 -1.17366,-0.47742s-0.85538,0.15914 -1.19355,0.49731c-0.33817,0.31828 -0.49731,0.69624 -0.49731,1.13387z"/>

</g>

  <path id="moonfill" stroke-width="0" fill="paleturquoise"  fill-opacity="0.5" d="m39.9567,27.27653zm-4.53863,-9.71987c0.62256,-1.1447 1.50618,-2.02832 2.61072,-2.6308c1.10453,-0.60247 2.2894,-0.90371 3.53451,-0.88363c0.22091,0 0.40165,0.02008 0.50206,0.04016l0,0.62256c0,1.96808 0.52214,3.79558 1.56643,5.52267c1.04429,1.72709 2.5103,3.03245 4.35789,3.91607c-0.38157,0.88363 -0.88363,1.58651 -1.50618,2.14882c-1.76725,-1.58651 -3.93616,-2.36973 -6.52679,-2.36973l-0.64264,0c-0.52214,-2.5103 -1.80742,-4.63904 -3.89599,-6.36613l-0.00001,0.00001z"/>


</svg>


