<svg width="60" height="60" xmlns="http://www.w3.org/2000/svg">

  <defs>
    <filter id="drop_shadow" filterUnits="objectBoundingBox" x="-50%" y="-50%" width="200%" height="200%">
      <feDropShadow dx="0.5" dy="0.5" stdDeviation="2" flood-color="black" flood-opacity="0.8" />
    </filter>
    <filter id="blur_shadow" filterUnits="objectBoundingBox" x="-50%" y="-50%" width="200%" height="200%">
      <feGaussianBlur in="SourceGraphic" stdDeviation="3" />
    </filter>
  </defs>

   <path fill="black" filter="url(#blur_shadow)" d="m5.00716,29.06034c0.02409,-0.81919 0.43369,-2.07207 1.20469,-3.80683c0.771,-1.73476 1.83113,-3.56589 3.20448,-5.54158c4.48145,-6.28849 10.81813,-9.58935 18.98594,-9.95075l0,-1.03603c0,-0.50597 0.16866,-0.89147 0.50597,-1.20469c0.33731,-0.31322 0.72282,-0.45778 1.1565,-0.45778c0.45778,0 0.84328,0.14456 1.20469,0.45778c0.33731,0.31322 0.53006,0.72282 0.53006,1.20469l0,1.06013c2.3612,0.09638 4.57783,0.45778 6.6258,1.08422c2.04798,0.62644 3.83092,1.42154 5.34883,2.40938c1.51791,0.98785 2.81898,1.99979 3.87911,3.05992c1.08422,1.03603 2.04798,2.16845 2.89126,3.39723c0.98785,1.42154 1.85523,2.96354 2.55395,4.57783c0.69872,1.61429 1.20469,2.91535 1.46972,3.87911c0.26503,0.96375 0.4096,1.44563 0.43369,1.46972l0,0.45778c0,0.43369 -0.16866,0.771 -0.50597,1.06013s-0.72282,0.4096 -1.1806,0.4096c-0.74691,0 -1.22879,-0.21684 -1.44563,-0.62644c-1.87932,-2.12026 -3.9273,-3.15629 -6.14393,-3.15629c-0.81919,0.04819 -1.66247,0.24094 -2.48167,0.55416c-0.81919,0.31322 -1.49382,0.65053 -1.97569,1.01194c-0.50597,0.33731 -0.96375,0.69872 -1.39744,1.06013c-0.43369,0.36141 -0.65053,0.53006 -0.67463,0.55416c-0.45778,0.4096 -0.89147,0.62644 -1.27697,0.62644c-0.55416,0 -0.96375,-0.14456 -1.25288,-0.43369c-1.75885,-1.75885 -3.34904,-2.81898 -4.84286,-3.18039l0,18.23903l0,0.4096l-0.02409,0.50597l-0.09638,0.55416l-0.14456,0.60235l-0.21684,0.62644l-0.31322,0.65053l-0.4096,0.62644l-0.50597,0.60235c-1.22879,1.42154 -2.96354,2.12026 -5.25246,2.12026c-2.43348,0 -4.26461,-0.69872 -5.49339,-2.12026c-0.28913,-0.28913 -0.53006,-0.60235 -0.74691,-0.91557c-0.21684,-0.33731 -0.3855,-0.65053 -0.50597,-0.98785c-0.12047,-0.31322 -0.21684,-0.62644 -0.28913,-0.91557s-0.12047,-0.57825 -0.14456,-0.86738c-0.04819,-0.36141 -0.07228,-0.60235 -0.07228,-0.7951s0,-0.3855 0,-0.55416s0.02409,-0.28913 0.02409,-0.31322c0,-0.43369 0.19275,-0.81919 0.55416,-1.13241c0.3855,-0.31322 0.81919,-0.43369 1.32516,-0.33731c0.43369,0 0.771,0.19275 1.06013,0.55416s0.43369,0.81919 0.43369,1.34925c-0.14456,0.98785 0.04819,1.83113 0.60235,2.52985c0.50597,0.69872 1.5661,1.06013 3.18039,1.06013c1.25288,0 2.16845,-0.28913 2.7226,-0.86738c0.31322,-0.31322 0.55416,-0.69872 0.69872,-1.1565c0.14456,-0.45778 0.21684,-0.81919 0.19275,-1.13241l-0.02409,-0.45778l0,-17.73306c-1.75885,0.43369 -3.32495,1.34925 -4.65011,2.7467c-0.09638,0.19275 -0.28913,0.3855 -0.55416,0.55416s-0.50597,0.26503 -0.72282,0.26503c-0.43369,0 -0.91557,-0.26503 -1.44563,-0.81919c-1.92751,-2.14435 -3.97548,-3.20448 -6.14393,-3.15629c-0.96375,0.02409 -1.87932,0.16866 -2.69851,0.48188c-0.84328,0.31322 -1.46972,0.62644 -1.90341,0.93966c-0.4096,0.31322 -0.86738,0.67463 -1.30107,1.08422s-0.69872,0.65053 -0.771,0.69872c-0.50597,0.33731 -0.91557,0.53006 -1.22879,0.53006s-0.72282,-0.14456 -1.1565,-0.4096c-0.3855,-0.24094 -0.62644,-0.50597 -0.72282,-0.771c-0.07228,-0.28913 -0.09638,-0.69872 -0.07228,-1.22879l0.00002,0zm5.03561,-3.42132c1.63838,-0.86738 3.18039,-1.27697 4.62602,-1.27697l0.19275,0c2.77079,0 5.30064,1.06013 7.58956,3.20448c0.91557,-0.7951 2.02388,-1.49382 3.34904,-2.12026c1.30107,-0.62644 2.7226,-0.98785 4.26461,-1.08422l0.19275,0c2.77079,0 5.30064,1.06013 7.58956,3.20448c0.91557,-0.7951 2.02388,-1.49382 3.34904,-2.12026c1.30107,-0.62644 2.7226,-0.98785 4.26461,-1.08422l0.21684,0c1.34925,0 2.77079,0.36141 4.21642,1.06013c-1.06013,-2.07207 -1.78294,-3.39723 -2.12026,-3.99958c-4.3128,-5.63796 -10.28807,-8.45694 -17.90172,-8.45694c-3.80683,0 -7.20406,0.72282 -10.21579,2.16845c-2.98764,1.44563 -5.44521,3.54179 -7.34862,6.28849c-0.55416,0.81919 -1.32516,2.24073 -2.26482,4.21642l0.00001,0z"/>

<g>
<g filter="url(#blur_shadow)">
<path fill="#66ff99" fill-opacity="0.3" stroke-width="2" stroke="midnightblue" stroke-opacity="0.2" d="m51.66943,9.11162zm-41.62666,16.5274c1.63838,-0.86738 3.18039,-1.27697 4.62602,-1.27697l0.19275,0c2.77079,0 5.30064,1.06013 7.58956,3.20448c0.91557,-0.7951 2.02388,-1.49382 3.34904,-2.12026c1.30107,-0.62644 2.7226,-0.98785 4.26461,-1.08422l0.19275,0c2.77079,0 5.30064,1.06013 7.58956,3.20448c0.91557,-0.7951 2.02388,-1.49382 3.34904,-2.12026c1.30107,-0.62644 2.7226,-0.98785 4.26461,-1.08422l0.21684,0c1.34925,0 2.77079,0.36141 4.21642,1.06013c-1.06013,-2.07207 -1.78294,-3.39723 -2.12026,-3.99958c-4.3128,-5.63796 -10.28807,-8.45694 -17.90172,-8.45694c-3.80683,0 -7.20406,0.72282 -10.21579,2.16845c-2.98764,1.44563 -5.44521,3.54179 -7.34862,6.28849c-0.55416,0.81919 -1.32516,2.24073 -2.26482,4.21642l0.00001,0z" />
<path fill="#00ccff" fill-opacity="0.3" d="m51.66943,9.11162zm-13.82237,18.45491c0.91557,-0.7951 2.02388,-1.49382 3.34904,-2.12026c1.30107,-0.62644 2.7226,-0.98785 4.26461,-1.08422l0.21684,0c1.34925,0 2.77079,0.36141 4.21642,1.06013c-1.06013,-2.07207 -1.78294,-3.39723 -2.12026,-3.99958c-4.3128,-5.63796 -10.28807,-8.45694 -17.90172,-8.45694l7.97507,14.60087z"/>
<path transform="scale(-1,1) translate(-60,0) " fill="#990000" fill-opacity="0.3" d="m51.66943,9.11162zm-13.82237,18.45491c0.91557,-0.7951 2.02388,-1.49382 3.34904,-2.12026c1.30107,-0.62644 2.7226,-0.98785 4.26461,-1.08422l0.21684,0c1.34925,0 2.77079,0.36141 4.21642,1.06013c-1.06013,-2.07207 -1.78294,-3.39723 -2.12026,-3.99958c-4.3128,-5.63796 -10.28807,-8.45694 -17.90172,-8.45694l7.97507,14.60087z"/>
</g>
   <path stroke-opacity="0.2" stroke="midnightblue" stroke-width="2" fill="#66ff99" d="m5.00716,29.06034c0.02409,-0.81919 0.43369,-2.07207 1.20469,-3.80683c0.771,-1.73476 1.83113,-3.56589 3.20448,-5.54158c4.48145,-6.28849 10.81813,-9.58935 18.98594,-9.95075l0,-1.03603c0,-0.50597 0.16866,-0.89147 0.50597,-1.20469c0.33731,-0.31322 0.72282,-0.45778 1.1565,-0.45778c0.45778,0 0.84328,0.14456 1.20469,0.45778c0.33731,0.31322 0.53006,0.72282 0.53006,1.20469l0,1.06013c2.3612,0.09638 4.57783,0.45778 6.6258,1.08422c2.04798,0.62644 3.83092,1.42154 5.34883,2.40938c1.51791,0.98785 2.81898,1.99979 3.87911,3.05992c1.08422,1.03603 2.04798,2.16845 2.89126,3.39723c0.98785,1.42154 1.85523,2.96354 2.55395,4.57783c0.69872,1.61429 1.20469,2.91535 1.46972,3.87911c0.26503,0.96375 0.4096,1.44563 0.43369,1.46972l0,0.45778c0,0.43369 -0.16866,0.771 -0.50597,1.06013s-0.72282,0.4096 -1.1806,0.4096c-0.74691,0 -1.22879,-0.21684 -1.44563,-0.62644c-1.87932,-2.12026 -3.9273,-3.15629 -6.14393,-3.15629c-0.81919,0.04819 -1.66247,0.24094 -2.48167,0.55416c-0.81919,0.31322 -1.49382,0.65053 -1.97569,1.01194c-0.50597,0.33731 -0.96375,0.69872 -1.39744,1.06013c-0.43369,0.36141 -0.65053,0.53006 -0.67463,0.55416c-0.45778,0.4096 -0.89147,0.62644 -1.27697,0.62644c-0.55416,0 -0.96375,-0.14456 -1.25288,-0.43369c-1.75885,-1.75885 -3.34904,-2.81898 -4.84286,-3.18039l0,18.23903l0,0.4096l-0.02409,0.50597l-0.09638,0.55416l-0.14456,0.60235l-0.21684,0.62644l-0.31322,0.65053l-0.4096,0.62644l-0.50597,0.60235c-1.22879,1.42154 -2.96354,2.12026 -5.25246,2.12026c-2.43348,0 -4.26461,-0.69872 -5.49339,-2.12026c-0.28913,-0.28913 -0.53006,-0.60235 -0.74691,-0.91557c-0.21684,-0.33731 -0.3855,-0.65053 -0.50597,-0.98785c-0.12047,-0.31322 -0.21684,-0.62644 -0.28913,-0.91557s-0.12047,-0.57825 -0.14456,-0.86738c-0.04819,-0.36141 -0.07228,-0.60235 -0.07228,-0.7951s0,-0.3855 0,-0.55416s0.02409,-0.28913 0.02409,-0.31322c0,-0.43369 0.19275,-0.81919 0.55416,-1.13241c0.3855,-0.31322 0.81919,-0.43369 1.32516,-0.33731c0.43369,0 0.771,0.19275 1.06013,0.55416s0.43369,0.81919 0.43369,1.34925c-0.14456,0.98785 0.04819,1.83113 0.60235,2.52985c0.50597,0.69872 1.5661,1.06013 3.18039,1.06013c1.25288,0 2.16845,-0.28913 2.7226,-0.86738c0.31322,-0.31322 0.55416,-0.69872 0.69872,-1.1565c0.14456,-0.45778 0.21684,-0.81919 0.19275,-1.13241l-0.02409,-0.45778l0,-17.73306c-1.75885,0.43369 -3.32495,1.34925 -4.65011,2.7467c-0.09638,0.19275 -0.28913,0.3855 -0.55416,0.55416s-0.50597,0.26503 -0.72282,0.26503c-0.43369,0 -0.91557,-0.26503 -1.44563,-0.81919c-1.92751,-2.14435 -3.97548,-3.20448 -6.14393,-3.15629c-0.96375,0.02409 -1.87932,0.16866 -2.69851,0.48188c-0.84328,0.31322 -1.46972,0.62644 -1.90341,0.93966c-0.4096,0.31322 -0.86738,0.67463 -1.30107,1.08422s-0.69872,0.65053 -0.771,0.69872c-0.50597,0.33731 -0.91557,0.53006 -1.22879,0.53006s-0.72282,-0.14456 -1.1565,-0.4096c-0.3855,-0.24094 -0.62644,-0.50597 -0.72282,-0.771c-0.07228,-0.28913 -0.09638,-0.69872 -0.07228,-1.22879l0.00002,0zm5.03561,-3.42132c1.63838,-0.86738 3.18039,-1.27697 4.62602,-1.27697l0.19275,0c2.77079,0 5.30064,1.06013 7.58956,3.20448c0.91557,-0.7951 2.02388,-1.49382 3.34904,-2.12026c1.30107,-0.62644 2.7226,-0.98785 4.26461,-1.08422l0.19275,0c2.77079,0 5.30064,1.06013 7.58956,3.20448c0.91557,-0.7951 2.02388,-1.49382 3.34904,-2.12026c1.30107,-0.62644 2.7226,-0.98785 4.26461,-1.08422l0.21684,0c1.34925,0 2.77079,0.36141 4.21642,1.06013c-1.06013,-2.07207 -1.78294,-3.39723 -2.12026,-3.99958c-4.3128,-5.63796 -10.28807,-8.45694 -17.90172,-8.45694c-3.80683,0 -7.20406,0.72282 -10.21579,2.16845c-2.98764,1.44563 -5.44521,3.54179 -7.34862,6.28849c-0.55416,0.81919 -1.32516,2.24073 -2.26482,4.21642l0.00001,0z"/>
 </g>
</svg>
