<svg width="60" height="60" xmlns="http://www.w3.org/2000/svg">
  <defs>
    <filter id="drop_shadow" filterUnits="objectBoundingBox" x="-50%" y="-50%" width="200%" height="200%">
      <feDropShadow dx="0.5" dy="0.5" stdDeviation="2" flood-color="black" flood-opacity="0.8" />
    </filter>
    <filter id="blur_shadow" filterUnits="objectBoundingBox" x="-50%" y="-50%" width="200%" height="200%">
      <feGaussianBlur in="SourceGraphic" stdDeviation="3" />
    </filter>
    <filter id="shadow">
      <feDropShadow dx="0.3" dy="0.6" stdDeviation="0.6" flood-color="black"/>
    </filter>
  </defs>
 <g>
  <path style="filter:url(#blur_shadow)" d="m10.066166,32.181258c0,2.045769 0.753701,3.82236 2.207284,5.275943s3.25709,2.207284 5.3567,2.207284l24.979961,0c2.072695,0 3.876202,-0.726786 5.3567,-2.207284c1.480498,-1.480498 2.2342,-3.230163 2.2342,-5.275943c0,-2.045769 -0.726786,-3.82236 -2.2342,-5.275943c-1.480498,-1.453572 -3.25709,-2.207284 -5.3567,-2.207284l-3.741613,0c-0.269177,0 -0.403766,-0.134589 -0.403766,-0.403766l-0.188431,-1.318983c-0.269177,-2.530304 -1.345898,-4.65683 -3.203247,-6.325748s-4.064633,-2.503377 -6.594925,-2.503377c-2.530304,0 -4.737577,0.834459 -6.621841,2.530304c-1.884264,1.668918 -2.93407,3.795444 -3.176332,6.298833l-0.188431,1.130563c0,0.269177 -0.134589,0.403766 -0.430693,0.403766l-1.21131,0.188431c-1.938095,0.161504 -3.553182,0.969048 -4.872165,2.395704c-1.238236,1.426656 -1.91118,3.122501 -1.91118,5.087512l-0.000011,-0.000011z" fill-opacity="0.2" fill="paleturquoise"/>
<g style="filter:url(#drop_shadow)"  stroke="midnightblue" stroke-opacity="0.4">
    <path
       fill="beige" stroke-width="2.5"
       d="m4.88681,31.56908c0,-2.78632 0.87224,-5.25766 2.61671,-7.43825c1.74448,-2.18059 3.9493,-3.56164 6.61447,-4.19159c0.75109,-3.29512 2.44711,-6.00875 5.08805,-8.11666s5.69378,-3.17398 9.11004,-3.17398c3.34358,0 6.2995,1.04184 8.91621,3.07706c2.59249,2.05945 4.31273,4.70039 5.11228,7.94706l0.75109,0c2.15637,0 4.16736,0.53303 6.00875,1.57487s3.31935,2.49557 4.38542,4.31273c1.06607,1.81716 1.62333,3.82816 1.62333,5.98452c0,3.24666 -1.11453,6.03298 -3.34358,8.35895s-4.96691,3.56164 -8.18935,3.65855c-0.31497,0 -0.48458,-0.14537 -0.48458,-0.41189l0,-3.22243c0,-0.29075 0.1696,-0.43612 0.48458,-0.43612c2.08368,-0.09692 3.82816,-0.9207 5.28189,-2.47134s2.18059,-3.36781 2.18059,-5.47572s-0.77532,-3.92507 -2.37443,-5.47572c-1.57487,-1.55065 -3.44049,-2.32597 -5.59686,-2.32597l-3.87661,0c-0.29075,0 -0.46035,-0.14537 -0.46035,-0.41189l-0.1696,-1.40527c-0.26652,-2.59249 -1.38104,-4.79731 -3.34358,-6.56601c-1.98676,-1.7687 -4.2885,-2.66517 -6.90522,-2.66517c-2.64094,0 -4.96691,0.87224 -6.92945,2.64094c-1.96254,1.7687 -3.07706,3.9493 -3.34358,6.56601l-0.14537,1.30836c0,0.29075 -0.1696,0.43612 -0.48458,0.43612l-1.28413,0.07269c-1.98676,0.09692 -3.65855,0.89647 -5.06383,2.42288s-2.08368,3.31935 -2.08368,5.3788c0,2.10791 0.72686,3.92507 2.18059,5.47572s3.22243,2.37443 5.28189,2.47134c0.26652,0 0.41189,0.14537 0.41189,0.43612l0,3.22243c0,0.26652 -0.14537,0.41189 -0.41189,0.41189c-3.24666,-0.14537 -5.98452,-1.38104 -8.2378,-3.70701s-3.31935,-5.0396 -3.31935,-8.26203z"/>
    <path
       fill="cornflowerblue"
       d="m20.72036,36.03877c0,-0.58149 0.29075,-1.38104 0.89647,-2.39865c0.58149,-1.01761 1.13876,-1.81716 1.64756,-2.44711c0.50881,-0.58149 0.82378,-0.9207 0.9207,-1.01761l0.87224,0.96915c0.62995,0.67841 1.21144,1.47796 1.74448,2.47134c0.53303,0.96915 0.79955,1.79293 0.79955,2.42288c0,0.94492 -0.31497,1.74448 -0.96915,2.37443c-0.65418,0.62995 -1.45373,0.94492 -2.42288,0.94492c-0.94492,0 -1.7687,-0.31497 -2.44711,-0.96915c-0.70264,-0.62995 -1.04184,-1.4295 -1.04184,-2.3502zm7.22019,9.6673c0,-0.67841 0.19383,-1.4295 0.58149,-2.32597s0.84801,-1.69602 1.4295,-2.47134c0.43612,-0.62995 0.96915,-1.30836 1.62333,-2.03522c0.62995,-0.72686 1.11453,-1.2599 1.45373,-1.57487c0.1696,-0.14537 0.36343,-0.3392 0.58149,-0.55726l0.58149,0.55726c0.9207,0.79955 1.93831,1.98676 3.07706,3.53741c0.58149,0.79955 1.04184,1.64756 1.4295,2.5198s0.55726,1.64756 0.55726,2.3502c0,1.55065 -0.55726,2.88323 -1.64756,3.99776s-2.44711,1.64756 -4.02199,1.64756c-1.55065,0 -2.88323,-0.55726 -3.99776,-1.62333c-1.11453,-1.11453 -1.64756,-2.44711 -1.64756,-4.02199zm3.56164,-16.1364c0,-1.01761 0.77532,-2.30174 2.3502,-3.87661l0.58149,0.60572c0.43612,0.50881 0.79955,1.0903 1.16298,1.72025c0.3392,0.62995 0.53303,1.13876 0.53303,1.55065c0,0.62995 -0.21806,1.16298 -0.67841,1.5991c-0.43612,0.43612 -0.96915,0.67841 -1.5991,0.67841c-0.65418,0 -1.21144,-0.21806 -1.67179,-0.67841c-0.46035,-0.43612 -0.67841,-0.96915 -0.67841,-1.5991z"/>
  </g>
  <circle
     style="fill:#ffffff;fill-opacity:0.4"
     cx="25.074152"
     cy="36.165253"
     r="1.25"/>
  <circle
     style="fill:#ffffff;fill-opacity:0.3"
     cx="35.434322"
     cy="45.921608"
     r="2.25"/>
  <circle
     style="fill:#ffffff;fill-opacity:0.2"
     cx="34.480934"
     cy="29.745762"
     r="0.8"/>
</g>
</svg>
