<svg width="60" height="60" xmlns="http://www.w3.org/2000/svg">

  <defs>
    <filter id="drop_shadow" filterUnits="objectBoundingBox" x="-50%" y="-50%" width="200%" height="200%">
      <feDropShadow dx="0.5" dy="0.5" stdDeviation="2" flood-color="black" flood-opacity="0.8" />
    </filter>
    <filter id="blur_shadow" filterUnits="objectBoundingBox" x="-50%" y="-50%" width="200%" height="200%">
      <feGaussianBlur in="SourceGraphic" stdDeviation="3" />
    </filter>
  </defs>

<g filter="url(#blur_shadow)" >
  <path fill="green" d="m15.334294,32.925341c-2.580304,-5.529224 -2.188651,-10.73591 1.197998,-15.643096c2.372959,-3.409688 5.989992,-5.506185 10.897179,-6.266454c0.368615,-0.092154 0.783307,-0.161269 1.244075,-0.184307l1.451421,0c6.704184,0.207346 11.634408,3.179304 14.744597,8.938912c1.47446,2.718535 1.843075,5.713531 1.105845,9.008027c-0.598999,2.603343 -1.566613,5.045417 -2.948919,7.303183c-2.971958,4.630725 -6.059108,8.385989 -9.215373,11.242755c-0.161269,0.161269 -0.391653,0.368615 -0.691153,0.598999c-1.059768,0.806345 -2.050421,1.221037 -2.948919,1.244075s-1.91219,-0.322538 -3.018035,-1.036729c-0.668115,-0.391653 -1.221037,-0.852422 -1.704844,-1.359268c-4.515533,-4.607687 -7.902182,-9.215373 -10.113872,-13.846098zm0.253423,-5.091494c0.046077,0.253423 0.115192,0.575961 0.207346,1.013691s0.161269,0.73723 0.207346,0.921537c0.645076,2.902843 1.981305,5.13757 3.985649,6.750261c2.027382,1.61269 4.515533,2.557266 7.510529,2.833727c0.668115,0.069115 1.059768,0.046077 1.17496,-0.069115s0.184307,-0.529884 0.207346,-1.197998c-0.023038,-0.184307 -0.069115,-0.483807 -0.115192,-0.898499c-0.046077,-0.414692 -0.092154,-0.714191 -0.138231,-0.898499c-0.575961,-3.08715 -2.027382,-5.344916 -4.377302,-6.750261c-0.414692,-0.253423 -0.898499,-0.506846 -1.428383,-0.783307s-1.013691,-0.460769 -1.405344,-0.622038c-0.391653,-0.161269 -0.921537,-0.368615 -1.589652,-0.622038c-0.668115,-0.253423 -1.151922,-0.43773 -1.451421,-0.575961c-0.368615,-0.138231 -0.967614,-0.230384 -1.843075,-0.253423c-0.73723,0 -1.059768,0.391653 -0.944576,1.151922zm15.666134,10.13691c-0.046077,0.714191 0,1.128883 0.138231,1.290152c0.161269,0.161269 0.575961,0.184307 1.267114,0.092154c0.87546,-0.092154 1.796998,-0.276461 2.764612,-0.506846c2.465112,-0.622038 4.469456,-1.935228 6.036069,-3.939572c0.783307,-0.944576 1.382306,-1.981305 1.773959,-3.08715s0.783307,-2.419035 1.082806,-3.96261c0.115192,-0.529884 0.092154,-0.87546 -0.069115,-1.059768c-0.161269,-0.184307 -0.506846,-0.253423 -1.013691,-0.184307c-1.359268,0.230384 -2.580304,0.529884 -3.663111,0.921537c-2.64942,0.990653 -4.653763,2.326882 -6.036069,4.008687c-1.382306,1.704844 -2.142574,3.82438 -2.280805,6.427723z"/>
  <path fill="red" fill-opacity="0.6" stroke-opacity="0.4" stroke="midnightblue" stroke-width="0.5"  d="m33.119964,47.92336zm-17.532247,-20.089513c0.046077,0.253423 0.115192,0.575961 0.207346,1.013691s0.161269,0.73723 0.207346,0.921537c0.645076,2.902843 1.981305,5.13757 3.985649,6.750261c2.027382,1.61269 4.515533,2.557266 7.510529,2.833727c0.668115,0.069115 1.059768,0.046077 1.17496,-0.069115s0.184307,-0.529884 0.207346,-1.197998c-0.023038,-0.184307 -0.069115,-0.483807 -0.115192,-0.898499c-0.046077,-0.414692 -0.092154,-0.714191 -0.138231,-0.898499c-0.575961,-3.08715 -2.027382,-5.344916 -4.377302,-6.750261c-0.414692,-0.253423 -0.898499,-0.506846 -1.428383,-0.783307s-1.013691,-0.460769 -1.405344,-0.622038c-0.391653,-0.161269 -0.921537,-0.368615 -1.589652,-0.622038c-0.668115,-0.253423 -1.151922,-0.43773 -1.451421,-0.575961c-0.368615,-0.138231 -0.967614,-0.230384 -1.843075,-0.253423c-0.73723,0 -1.059768,0.391653 -0.944576,1.151922l0,0.000001zm15.666134,10.13691c-0.046077,0.714191 0,1.128883 0.138231,1.290152c0.161269,0.161269 0.575961,0.184307 1.267114,0.092154c0.87546,-0.092154 1.796998,-0.276461 2.764612,-0.506846c2.465112,-0.622038 4.469456,-1.935228 6.036069,-3.939572c0.783307,-0.944576 1.382306,-1.981305 1.773959,-3.08715s0.783307,-2.419035 1.082806,-3.96261c0.115192,-0.529884 0.092154,-0.87546 -0.069115,-1.059768c-0.161269,-0.184307 -0.506846,-0.253423 -1.013691,-0.184307c-1.359268,0.230384 -2.580304,0.529884 -3.663111,0.921537c-2.64942,0.990653 -4.653763,2.326882 -6.036069,4.008687c-1.382306,1.704844 -2.142574,3.82438 -2.280805,6.427723z"/>
</g>
  <path stroke-opacity="0.4" stroke="midnightblue" stroke-width="2.5" fill="limegreen" d="m15.334294,32.925341c-2.580304,-5.529224 -2.188651,-10.73591 1.197998,-15.643096c2.372959,-3.409688 5.989992,-5.506185 10.897179,-6.266454c0.368615,-0.092154 0.783307,-0.161269 1.244075,-0.184307l1.451421,0c6.704184,0.207346 11.634408,3.179304 14.744597,8.938912c1.47446,2.718535 1.843075,5.713531 1.105845,9.008027c-0.598999,2.603343 -1.566613,5.045417 -2.948919,7.303183c-2.971958,4.630725 -6.059108,8.385989 -9.215373,11.242755c-0.161269,0.161269 -0.391653,0.368615 -0.691153,0.598999c-1.059768,0.806345 -2.050421,1.221037 -2.948919,1.244075s-1.91219,-0.322538 -3.018035,-1.036729c-0.668115,-0.391653 -1.221037,-0.852422 -1.704844,-1.359268c-4.515533,-4.607687 -7.902182,-9.215373 -10.113872,-13.846098zm0.253423,-5.091494c0.046077,0.253423 0.115192,0.575961 0.207346,1.013691s0.161269,0.73723 0.207346,0.921537c0.645076,2.902843 1.981305,5.13757 3.985649,6.750261c2.027382,1.61269 4.515533,2.557266 7.510529,2.833727c0.668115,0.069115 1.059768,0.046077 1.17496,-0.069115s0.184307,-0.529884 0.207346,-1.197998c-0.023038,-0.184307 -0.069115,-0.483807 -0.115192,-0.898499c-0.046077,-0.414692 -0.092154,-0.714191 -0.138231,-0.898499c-0.575961,-3.08715 -2.027382,-5.344916 -4.377302,-6.750261c-0.414692,-0.253423 -0.898499,-0.506846 -1.428383,-0.783307s-1.013691,-0.460769 -1.405344,-0.622038c-0.391653,-0.161269 -0.921537,-0.368615 -1.589652,-0.622038c-0.668115,-0.253423 -1.151922,-0.43773 -1.451421,-0.575961c-0.368615,-0.138231 -0.967614,-0.230384 -1.843075,-0.253423c-0.73723,0 -1.059768,0.391653 -0.944576,1.151922zm15.666134,10.13691c-0.046077,0.714191 0,1.128883 0.138231,1.290152c0.161269,0.161269 0.575961,0.184307 1.267114,0.092154c0.87546,-0.092154 1.796998,-0.276461 2.764612,-0.506846c2.465112,-0.622038 4.469456,-1.935228 6.036069,-3.939572c0.783307,-0.944576 1.382306,-1.981305 1.773959,-3.08715s0.783307,-2.419035 1.082806,-3.96261c0.115192,-0.529884 0.092154,-0.87546 -0.069115,-1.059768c-0.161269,-0.184307 -0.506846,-0.253423 -1.013691,-0.184307c-1.359268,0.230384 -2.580304,0.529884 -3.663111,0.921537c-2.64942,0.990653 -4.653763,2.326882 -6.036069,4.008687c-1.382306,1.704844 -2.142574,3.82438 -2.280805,6.427723z"/>
</svg>
