<svg width="60" height="60" xmlns="http://www.w3.org/2000/svg">



  <defs>
    <filter id="drop_shadow" filterUnits="objectBoundingBox" x="-50%" y="-50%" width="200%" height="200%">
      <feDropShadow dx="0.5" dy="0.5" stdDeviation="2" flood-color="black" flood-opacity="0.8" />
    </filter>
    <filter id="blur_shadow" filterUnits="objectBoundingBox" x="-50%" y="-50%" width="200%" height="200%">
      <feGaussianBlur in="SourceGraphic" stdDeviation="3" />
    </filter>
    <filter id="shadow">
      <feDropShadow dx="0.3" dy="0.6" stdDeviation="0.6" flood-color="black"/>
    </filter>
  </defs>

<g fill="black" style="filter:url(#blur_shadow)">
  <path d="m8.19499,33.68329c0,2.6451 0.93473,4.93221 2.78431,6.84146s4.11681,2.92353 6.76191,3.04286c0.23866,0 0.35798,-0.11933 0.35798,-0.3381l0,-2.66499c0,-0.21877 -0.11933,-0.3381 -0.35798,-0.3381c-1.71036,-0.09944 -3.16219,-0.77563 -4.35546,-2.04846c-1.19328,-1.27283 -1.78992,-2.76443 -1.78992,-4.49468c0,-1.6507 0.55686,-3.08263 1.69048,-4.31569c1.13361,-1.23305 2.52577,-1.92913 4.17647,-2.12801l1.05406,-0.07955c0.25854,0 0.39776,-0.11933 0.39776,-0.3381l0.13922,-1.07395c0.21877,-2.1479 1.13361,-3.9577 2.74454,-5.40953c1.61092,-1.45182 3.52017,-2.18768 5.68796,-2.18768c2.16779,0 4.05714,0.73585 5.68796,2.18768c1.63081,1.45182 2.54566,3.26163 2.78431,5.40953l0.1591,1.13361c0,0.23866 0.11933,0.35798 0.3381,0.35798l3.22185,0c1.77003,0 3.32129,0.63641 4.61401,1.90924c1.29272,1.27283 1.94902,2.78431 1.94902,4.53445c0,1.73025 -0.59664,3.22185 -1.78992,4.49468c-1.19328,1.27283 -2.6451,1.94902 -4.35546,2.04846c-0.27843,0 -0.41765,0.11933 -0.41765,0.3381l0,2.66499c0,0.21877 0.13922,0.3381 0.41765,0.3381c2.6451,-0.07955 4.89244,-1.09384 6.72213,-3.00308c1.84958,-1.92913 2.76443,-4.21625 2.76443,-6.86135c0,-1.75014 -0.45742,-3.38095 -1.35238,-4.89244c1.61092,-1.45182 2.6451,-3.18207 3.1423,-5.21065l0.27843,-1.43193c0.01989,-0.01989 0.03978,-0.05966 0.03978,-0.13922c0,-0.13922 -0.09944,-0.25854 -0.31821,-0.31821l-1.11373,-0.35798c-1.13361,-0.31821 -2.10812,-0.87507 -2.90364,-1.6507c-0.81541,-0.77563 -1.39216,-1.59104 -1.73025,-2.44622c-0.3381,-0.85518 -0.51709,-1.71036 -0.51709,-2.54566c-0.03978,-0.43754 0.01989,-0.9944 0.1591,-1.63081l0.27843,-1.21317c0.07955,-0.19888 0,-0.35798 -0.27843,-0.47731l-1.57115,-0.47731c-0.89496,-0.19888 -1.73025,-0.29832 -2.52577,-0.29832c-0.75574,0 -1.51148,0.07955 -2.26723,0.25854c-0.77563,0.17899 -1.57115,0.43754 -2.38656,0.81541c-0.81541,0.35798 -1.61092,0.89496 -2.38656,1.59104c-0.77563,0.69608 -1.43193,1.4916 -1.9888,2.42633c-1.63081,-0.59664 -3.18207,-0.89496 -4.63389,-0.89496c-2.8042,0 -5.31009,0.87507 -7.47787,2.62521s-3.57983,3.97759 -4.19636,6.70224c-2.20756,0.51709 -4.01737,1.6507 -5.4493,3.44062c-1.47171,1.77003 -2.18768,3.81849 -2.18768,6.1056zm11.05771,13.60336c0,0.3381 0.09944,0.6563 0.31821,0.97451c0.21877,0.31821 0.53697,0.53697 0.97451,0.6563c0.45742,0.13922 0.89496,0.09944 1.27283,-0.07955c0.39776,-0.19888 0.6563,-0.55686 0.79552,-1.11373l2.84398,-11.67423c0.11933,-0.4972 0.05966,-0.95462 -0.1591,-1.33249c-0.23866,-0.39776 -0.57675,-0.63641 -1.03417,-0.73585c-0.43754,-0.13922 -0.85518,-0.09944 -1.25294,0.13922c-0.39776,0.21877 -0.67619,0.55686 -0.81541,1.01429l-2.86387,11.7339c0,0.01989 -0.01989,0.07955 -0.03978,0.17899c-0.01989,0.09944 -0.03978,0.17899 -0.03978,0.23866zm5.19076,6.1056c0,0.31821 0.09944,0.61653 0.29832,0.91485c0.19888,0.29832 0.4972,0.4972 0.89496,0.61653c0.21877,0.05966 0.37787,0.07955 0.47731,0.07955c0.87507,0 1.41205,-0.39776 1.63081,-1.17339l4.47479,-17.75995c0.11933,-0.47731 0.07955,-0.91485 -0.13922,-1.29272c-0.21877,-0.37787 -0.55686,-0.63641 -0.9944,-0.77563c-0.45742,-0.13922 -0.89496,-0.09944 -1.31261,0.13922s-0.67619,0.55686 -0.77563,0.9944l-4.49468,17.74006c0,0.01989 0,0.09944 -0.01989,0.23866c-0.03978,0.11933 -0.03978,0.21877 -0.03978,0.27843zm8.27339,-5.9465c0,0.71597 0.41765,1.19328 1.25294,1.47171c0.27843,0.07955 0.47731,0.11933 0.59664,0.11933c0.21877,0 0.45742,-0.03978 0.69608,-0.13922c0.41765,-0.1591 0.67619,-0.55686 0.77563,-1.1535l2.84398,-11.67423c0.11933,-0.47731 0.07955,-0.89496 -0.1591,-1.29272c-0.21877,-0.37787 -0.55686,-0.63641 -1.01429,-0.77563c-0.45742,-0.13922 -0.89496,-0.09944 -1.31261,0.13922c-0.41765,0.21877 -0.6563,0.55686 -0.75574,1.01429l-2.84398,11.7339c-0.03978,0.31821 -0.07955,0.51709 -0.07955,0.55686zm2.34678,-29.93138c0.63641,-1.1535 1.4916,-2.02857 2.60532,-2.6451c1.09384,-0.59664 2.26723,-0.89496 3.50028,-0.87507c0.23866,0 0.41765,0 0.53697,0.01989l0,0.59664c-0.01989,1.92913 0.47731,3.73894 1.53137,5.46919c1.03417,1.71036 2.50588,3.02297 4.39524,3.91793c-0.43754,0.91485 -0.97451,1.61092 -1.57115,2.12801c-1.82969,-1.51148 -3.9577,-2.24734 -6.42381,-2.24734l-0.61653,0c-0.53697,-2.52577 -1.84958,-4.63389 -3.9577,-6.36415z"/>
</g>

<g stroke-width="2.5" stroke-opacity="0.4" stroke="midnightblue">

  <path id="moonfillback" stroke-width="0.1" fill="paleturquoise"  fill-opacity="0.2" style="filter:url(#blur_shadow)" d="m39.9567,27.27653zm-4.53863,-9.71987c0.62256,-1.1447 1.50618,-2.02832 2.61072,-2.6308c1.10453,-0.60247 2.2894,-0.90371 3.53451,-0.88363c0.22091,0 0.40165,0.02008 0.50206,0.04016l0,0.62256c0,1.96808 0.52214,3.79558 1.56643,5.52267c1.04429,1.72709 2.5103,3.03245 4.35789,3.91607c-0.38157,0.88363 -0.88363,1.58651 -1.50618,2.14882c-1.76725,-1.58651 -3.93616,-2.36973 -6.52679,-2.36973l-0.64264,0c-0.52214,-2.5103 -1.80742,-4.63904 -3.89599,-6.36613l-0.00001,0.00001z"/>

  <path stroke-width="0" filter="url(#blur_shadow)" fill="paleturquoise" fill-opacity="0.3" d="m11.43267,33.85888c0,1.81002 0.66685,3.38188 1.95292,4.66796s2.88175,1.95292 4.73941,1.95292l22.10135,0c1.83385,0 3.42952,-0.64303 4.73941,-1.95292c1.30989,-1.30989 1.97674,-2.85793 1.97674,-4.66796c0,-1.81002 -0.64303,-3.38188 -1.97674,-4.66796c-1.30989,-1.28607 -2.88175,-1.95292 -4.73941,-1.95292l-3.31044,0c-0.23816,0 -0.35724,-0.11908 -0.35724,-0.35724l-0.16671,-1.16699c-0.23816,-2.23872 -1.19081,-4.1202 -2.83411,-5.59679s-3.59624,-2.2149 -5.83495,-2.2149c-2.23872,0 -4.19163,0.7383 -5.85877,2.23872c-1.66713,1.4766 -2.59596,3.35807 -2.8103,5.57298l-0.16671,1.00028c0,0.23816 -0.11908,0.35724 -0.38106,0.35724l-1.07172,0.16671c-1.71476,0.14289 -3.14373,0.85738 -4.31071,2.11963c-1.09554,1.26226 -1.69095,2.76268 -1.69095,4.50125l-0.00001,-0.00001l-0.00001,0z"/>
  <path id="cloudmoon" fill="linen" d="m8.26664,33.78325c0,2.67096 0.92379,4.98044 2.79146,6.88827s4.13698,2.95212 6.82802,3.07261c0.24099,0 0.36148,-0.12049 0.36148,-0.3414l0,-2.69105c0,-0.22091 -0.12049,-0.3414 -0.36148,-0.3414c-1.72709,-0.08033 -3.17302,-0.76313 -4.37797,-2.04841s-1.80742,-2.79146 -1.80742,-4.53863c0,-1.66684 0.56231,-3.11278 1.68692,-4.35789c1.12462,-1.22503 2.53039,-1.948 4.21731,-2.14882l1.06437,-0.06025c0.26107,0 0.40165,-0.12049 0.40165,-0.36148l0.14058,-1.08445c0.22091,-2.1689 1.12462,-3.9964 2.75129,-5.46242c1.62668,-1.46602 3.53451,-2.20907 5.72349,-2.20907c2.1689,0 4.07673,0.74305 5.72349,2.20907c1.64676,1.46602 2.57055,3.29352 2.81154,5.46242l0.16066,1.16478c0,0.22091 0.12049,0.3414 0.3414,0.3414l3.23327,0c1.78734,0 3.33368,0.64264 4.63904,1.92791c1.30536,1.28528 1.96808,2.81154 1.96808,4.55871c0,1.74717 -0.60247,3.25335 -1.80742,4.53863c-1.20495,1.28528 -2.67096,1.96808 -4.37797,2.04841c-0.26107,0 -0.40165,0.12049 -0.40165,0.3414l0,2.69105c0,0.22091 0.14058,0.3414 0.40165,0.3414c2.67096,-0.08033 4.94028,-1.10453 6.78786,-3.03245c1.86767,-1.92791 2.79146,-4.23739 2.79146,-6.92844c0,-1.72709 -0.44181,-3.33368 -1.30536,-4.83986c1.58651,-1.4861 2.61072,-3.25335 3.11278,-5.2616l0.26107,-1.3656c0.04016,-0.02008 0.06025,-0.06025 0.06025,-0.14058c0,-0.14058 -0.10041,-0.26107 -0.32132,-0.32132l-1.12462,-0.3414c-1.1447,-0.3414 -2.10865,-0.90371 -2.93203,-1.70701c-0.8033,-0.8033 -1.38569,-1.62668 -1.72709,-2.5103c-0.3414,-0.86354 -0.50206,-1.74717 -0.50206,-2.65088c-0.02008,-0.48198 0.04016,-1.0242 0.16066,-1.58651l0.28115,-1.16478c0.06025,-0.18074 -0.04016,-0.32132 -0.28115,-0.44181l-1.60659,-0.50206c-0.84346,-0.24099 -1.72709,-0.38157 -2.6308,-0.38157c-0.70288,0 -1.42585,0.08033 -2.1689,0.26107s-1.52626,0.44181 -2.34964,0.8033c-0.82338,0.36148 -1.60659,0.90371 -2.38981,1.60659c-0.76313,0.70288 -1.44593,1.50618 -2.00824,2.45006c-1.50618,-0.64264 -3.09269,-0.98404 -4.75953,-0.98404c-2.83162,0 -5.36201,0.88363 -7.55099,2.6308s-3.59475,3.9964 -4.21731,6.7477c-2.22915,0.52214 -4.05665,1.66684 -5.50258,3.47426s-2.18898,3.93616 -2.18898,6.24563l-0.00002,0.00001zm27.15143,-16.22659c0.62256,-1.1447 1.50618,-2.02832 2.61072,-2.6308c1.10453,-0.60247 2.2894,-0.90371 3.53451,-0.88363c0.22091,0 0.40165,0.02008 0.50206,0.04016l0,0.62256c0,1.96808 0.52214,3.79558 1.56643,5.52267c1.04429,1.72709 2.5103,3.03245 4.35789,3.91607c-0.38157,0.88363 -0.88363,1.58651 -1.50618,2.14882c-1.76725,-1.58651 -3.93616,-2.36973 -6.52679,-2.36973l-0.64264,0c-0.52214,-2.5103 -1.80742,-4.63904 -3.89599,-6.36613l-0.00001,0.00001z"/>
  <path id="rain" stroke-width="1" fill="cornflowerblue" d="m19.2527,47.28665c0,0.3381 0.09944,0.6563 0.31821,0.97451c0.21877,0.31821 0.53697,0.53697 0.97451,0.6563c0.45742,0.13922 0.89496,0.09944 1.27283,-0.07955c0.39776,-0.19888 0.6563,-0.55686 0.79552,-1.11373l2.84398,-11.67423c0.11933,-0.4972 0.05966,-0.95462 -0.1591,-1.33249c-0.23866,-0.39776 -0.57675,-0.63641 -1.03417,-0.73585c-0.43754,-0.13922 -0.85518,-0.09944 -1.25294,0.13922c-0.39776,0.21877 -0.67619,0.55686 -0.81541,1.01429l-2.86387,11.7339c0,0.01989 -0.01989,0.07955 -0.03978,0.17899c-0.01989,0.09944 -0.03978,0.17899 -0.03978,0.23866l0,-0.00002zm5.19076,6.1056c0,0.31821 0.09944,0.61653 0.29832,0.91485c0.19888,0.29832 0.4972,0.4972 0.89496,0.61653c0.21877,0.05966 0.37787,0.07955 0.47731,0.07955c0.87507,0 1.41205,-0.39776 1.63081,-1.17339l4.47479,-17.75995c0.11933,-0.47731 0.07955,-0.91485 -0.13922,-1.29272c-0.21877,-0.37787 -0.55686,-0.63641 -0.9944,-0.77563c-0.45742,-0.13922 -0.89496,-0.09944 -1.31261,0.13922s-0.67619,0.55686 -0.77563,0.9944l-4.49468,17.74006c0,0.01989 0,0.09944 -0.01989,0.23866c-0.03978,0.11933 -0.03978,0.21877 -0.03978,0.27843l0.00002,-0.00001zm8.27339,-5.9465c0,0.71597 0.41765,1.19328 1.25294,1.47171c0.27843,0.07955 0.47731,0.11933 0.59664,0.11933c0.21877,0 0.45742,-0.03978 0.69608,-0.13922c0.41765,-0.1591 0.67619,-0.55686 0.77563,-1.1535l2.84398,-11.67423c0.11933,-0.47731 0.07955,-0.89496 -0.1591,-1.29272c-0.21877,-0.37787 -0.55686,-0.63641 -1.01429,-0.77563c-0.45742,-0.13922 -0.89496,-0.09944 -1.31261,0.13922c-0.41765,0.21877 -0.6563,0.55686 -0.75574,1.01429l-2.84398,11.7339c-0.03978,0.31821 -0.07955,0.51709 -0.07955,0.55686l0,-0.00001z"/>
</g>

  <path id="moonfill" stroke-width="0" fill="paleturquoise"  fill-opacity="0.5" d="m39.9567,27.27653zm-4.53863,-9.71987c0.62256,-1.1447 1.50618,-2.02832 2.61072,-2.6308c1.10453,-0.60247 2.2894,-0.90371 3.53451,-0.88363c0.22091,0 0.40165,0.02008 0.50206,0.04016l0,0.62256c0,1.96808 0.52214,3.79558 1.56643,5.52267c1.04429,1.72709 2.5103,3.03245 4.35789,3.91607c-0.38157,0.88363 -0.88363,1.58651 -1.50618,2.14882c-1.76725,-1.58651 -3.93616,-2.36973 -6.52679,-2.36973l-0.64264,0c-0.52214,-2.5103 -1.80742,-4.63904 -3.89599,-6.36613l-0.00001,0.00001z"/>


</svg>
