<svg width="60" height="60" xmlns="http://www.w3.org/2000/svg">
  <defs>
    <filter id="drop_shadow" filterUnits="objectBoundingBox" x="-50%" y="-50%" width="200%" height="200%">
      <feDropShadow dx="0.5" dy="0.5" stdDeviation="2" flood-color="black" flood-opacity="0.8" />
    </filter>
    <filter id="blur_shadow" filterUnits="objectBoundingBox" x="-50%" y="-50%" width="200%" height="200%">
      <feGaussianBlur in="SourceGraphic" stdDeviation="3" />
    </filter>
    <filter id="shadow">
      <feDropShadow dx="0.3" dy="0.6" stdDeviation="0.6" flood-color="black"/>
    </filter>
  </defs>

<g fill="black" style="filter:url(#blur_shadow)">
    <path d="m9.22011,33.94742c0,-2.30554 0.72173,-4.35045 2.16519,-6.15477c1.44347,-1.80433 3.26785,-2.94708 5.47314,-3.46833c0.62149,-2.72654 2.02486,-4.97194 4.2101,-6.71612s4.71131,-2.62631 7.5381,-2.62631c2.76664,0 5.21252,0.86207 7.37771,2.54611c2.14515,1.70409 3.56856,3.88933 4.23015,6.57579l0.62149,0c1.78429,0 3.44828,0.44106 4.97194,1.30312s2.74659,2.06496 3.62871,3.56856c0.88212,1.50361 1.34322,3.16761 1.34322,4.95189c0,2.68645 -0.92222,4.99198 -2.76664,6.91661s-4.10987,2.94708 -6.77627,3.02726c-0.26062,0 -0.40097,-0.12029 -0.40097,-0.34082l0,-2.6664c0,-0.24058 0.14034,-0.36087 0.40097,-0.36087c1.72414,-0.0802 3.16761,-0.76183 4.3705,-2.04491s1.80433,-2.78669 1.80433,-4.53088s-0.64154,-3.2478 -1.96472,-4.53088c-1.30312,-1.28308 -2.84683,-1.92462 -4.63112,-1.92462l-3.2077,0c-0.24058,0 -0.38092,-0.12029 -0.38092,-0.34082l-0.14034,-1.16279c-0.22053,-2.14515 -1.14274,-3.96953 -2.76664,-5.43304c-1.64394,-1.46351 -3.54852,-2.20529 -5.71372,-2.20529c-2.18524,0 -4.10987,0.72173 -5.73377,2.18524c-1.6239,1.46351 -2.54611,3.26785 -2.76664,5.43304l-0.12029,1.0826c0,0.24058 -0.14034,0.36087 -0.40097,0.36087l-1.06255,0.06015c-1.64394,0.0802 -3.02726,0.74178 -4.19006,2.00481s-1.72414,2.74659 -1.72414,4.45068c0,1.74419 0.60144,3.2478 1.80433,4.53088s2.6664,1.96472 4.3705,2.04491c0.22053,0 0.34082,0.12029 0.34082,0.36087l0,2.6664c0,0.22053 -0.12029,0.34082 -0.34082,0.34082c-2.68645,-0.12029 -4.95189,-1.14274 -6.81636,-3.06736s-2.74659,-4.17001 -2.74659,-6.83641l0.00003,0.00001z"/>
    <path d="m19.67992,46.95627c0,-0.08059 0.02015,-0.22164 0.08059,-0.40298l3.28434,-11.62617c0.1209,-0.38284 0.34254,-0.68508 0.64478,-0.88657c0.30224,-0.20149 0.62463,-0.30224 0.92687,-0.30224c0.14105,0 0.30224,0.02015 0.48359,0.06045c0.48359,0.08059 0.84627,0.34254 1.08806,0.74552c0.24179,0.40298 0.30224,0.84627 0.1612,1.35001l-3.28434,11.54558c-0.24179,0.86642 -0.80598,1.28955 -1.65225,1.28955c-0.08059,0 -0.14105,-0.02015 -0.22164,-0.0403c-0.1209,-0.0403 -0.18134,-0.06045 -0.20149,-0.06045c-0.44329,-0.1209 -0.76567,-0.34254 -0.98732,-0.66493c-0.22164,-0.34254 -0.32239,-0.66493 -0.32239,-1.00747l0.00001,0zm5.27913,5.66197l4.91644,-17.67098c0.08059,-0.38284 0.28209,-0.68508 0.60448,-0.88657c0.32239,-0.20149 0.64478,-0.30224 0.98732,-0.30224c0.18134,0 0.36269,0.02015 0.54403,0.06045c0.44329,0.1209 0.76567,0.38284 0.98732,0.78583c0.22164,0.40298 0.26195,0.82613 0.14105,1.28955l-4.89629,17.69114c-0.08059,0.34254 -0.26195,0.62463 -0.58433,0.86642c-0.32239,0.24179 -0.64478,0.36269 -1.02762,0.36269c-0.18134,0 -0.36269,-0.0403 -0.50373,-0.10075c-0.40298,-0.10075 -0.74552,-0.36269 -1.04777,-0.78583c-0.22164,-0.36269 -0.26195,-0.78583 -0.1209,-1.30971l-0.00001,0.00001zm8.32168,-5.62167c0,-0.08059 0.02015,-0.22164 0.08059,-0.46344l3.28434,-11.62617c0.1209,-0.38284 0.32239,-0.68508 0.60448,-0.88657c0.30224,-0.20149 0.60448,-0.30224 0.92687,-0.30224c0.1612,0 0.34254,0.02015 0.52388,0.06045c0.42313,0.1209 0.72538,0.32239 0.92687,0.62463c0.20149,0.30224 0.30224,0.62463 0.30224,0.94702c0,0.06045 -0.02015,0.1612 -0.0403,0.28209s-0.0403,0.20149 -0.0403,0.24179l-3.28434,11.54558c-0.08059,0.38284 -0.26195,0.70523 -0.56418,0.92687s-0.64478,0.34254 -1.02762,0.34254l-0.48359,-0.10075c-0.40298,-0.1209 -0.70523,-0.32239 -0.92687,-0.64478c-0.18134,-0.30224 -0.28209,-0.62463 -0.28209,-0.94702l0,0.00001z"/>
   </g>
   <path fill="paleturquoise" fill-opacity="0.2" d="m13.50576,34.45397c0,1.69277 0.62365,3.16281 1.82641,4.36557s2.69508,1.82641 4.4324,1.82641l20.66965,0c1.71505,0 3.20736,-0.60137 4.4324,-1.82641c1.22504,-1.22504 1.84869,-2.67279 1.84869,-4.36557c0,-1.69277 -0.60137,-3.16281 -1.84869,-4.36557c-1.22504,-1.20276 -2.69508,-1.82642 -4.4324,-1.82642l-3.09599,0c-0.22273,0 -0.3341,-0.11137 -0.3341,-0.3341l-0.15592,-1.09139c-0.22273,-2.09369 -1.11366,-3.85329 -2.65053,-5.23424s-3.36327,-2.07141 -5.45696,-2.07141c-2.09369,0 -3.92011,0.69047 -5.47924,2.09369c-1.55914,1.38095 -2.42779,3.14053 -2.62825,5.21196l-0.15592,0.93549c0,0.22272 -0.11137,0.33409 -0.35638,0.33409l-1.0023,0.15592c-1.60367,0.13364 -2.94008,0.80184 -4.03146,1.98233c-1.02458,1.18048 -1.5814,2.58371 -1.5814,4.20966l-0.00001,-0.00001z" filter="url(#blur_shadow)"/>
   <g stroke="midnightblue" filter="url(#drop_shadow)" stroke-opacity="0.4">
    <path d="m9.22011,33.94742c0,-2.30554 0.72173,-4.35045 2.16519,-6.15477c1.44347,-1.80433 3.26785,-2.94708 5.47314,-3.46833c0.62149,-2.72654 2.02486,-4.97194 4.2101,-6.71612s4.71131,-2.62631 7.5381,-2.62631c2.76664,0 5.21252,0.86207 7.37771,2.54611c2.14515,1.70409 3.56856,3.88933 4.23015,6.57579l0.62149,0c1.78429,0 3.44828,0.44106 4.97194,1.30312s2.74659,2.06496 3.62871,3.56856c0.88212,1.50361 1.34322,3.16761 1.34322,4.95189c0,2.68645 -0.92222,4.99198 -2.76664,6.91661s-4.10987,2.94708 -6.77627,3.02726c-0.26062,0 -0.40097,-0.12029 -0.40097,-0.34082l0,-2.6664c0,-0.24058 0.14034,-0.36087 0.40097,-0.36087c1.72414,-0.0802 3.16761,-0.76183 4.3705,-2.04491s1.80433,-2.78669 1.80433,-4.53088s-0.64154,-3.2478 -1.96472,-4.53088c-1.30312,-1.28308 -2.84683,-1.92462 -4.63112,-1.92462l-3.2077,0c-0.24058,0 -0.38092,-0.12029 -0.38092,-0.34082l-0.14034,-1.16279c-0.22053,-2.14515 -1.14274,-3.96953 -2.76664,-5.43304c-1.64394,-1.46351 -3.54852,-2.20529 -5.71372,-2.20529c-2.18524,0 -4.10987,0.72173 -5.73377,2.18524c-1.6239,1.46351 -2.54611,3.26785 -2.76664,5.43304l-0.12029,1.0826c0,0.24058 -0.14034,0.36087 -0.40097,0.36087l-1.06255,0.06015c-1.64394,0.0802 -3.02726,0.74178 -4.19006,2.00481s-1.72414,2.74659 -1.72414,4.45068c0,1.74419 0.60144,3.2478 1.80433,4.53088s2.6664,1.96472 4.3705,2.04491c0.22053,0 0.34082,0.12029 0.34082,0.36087l0,2.6664c0,0.22053 -0.12029,0.34082 -0.34082,0.34082c-2.68645,-0.12029 -4.95189,-1.14274 -6.81636,-3.06736s-2.74659,-4.17001 -2.74659,-6.83641l0.00003,0.00001z" stroke-width="2.5" fill="linen"/>
    <path d="m19.67992,46.95627c0,-0.08059 0.02015,-0.22164 0.08059,-0.40298l3.28434,-11.62617c0.1209,-0.38284 0.34254,-0.68508 0.64478,-0.88657c0.30224,-0.20149 0.62463,-0.30224 0.92687,-0.30224c0.14105,0 0.30224,0.02015 0.48359,0.06045c0.48359,0.08059 0.84627,0.34254 1.08806,0.74552c0.24179,0.40298 0.30224,0.84627 0.1612,1.35001l-3.28434,11.54558c-0.24179,0.86642 -0.80598,1.28955 -1.65225,1.28955c-0.08059,0 -0.14105,-0.02015 -0.22164,-0.0403c-0.1209,-0.0403 -0.18134,-0.06045 -0.20149,-0.06045c-0.44329,-0.1209 -0.76567,-0.34254 -0.98732,-0.66493c-0.22164,-0.34254 -0.32239,-0.66493 -0.32239,-1.00747l0.00001,0zm5.27913,5.66197l4.91644,-17.67098c0.08059,-0.38284 0.28209,-0.68508 0.60448,-0.88657c0.32239,-0.20149 0.64478,-0.30224 0.98732,-0.30224c0.18134,0 0.36269,0.02015 0.54403,0.06045c0.44329,0.1209 0.76567,0.38284 0.98732,0.78583c0.22164,0.40298 0.26195,0.82613 0.14105,1.28955l-4.89629,17.69114c-0.08059,0.34254 -0.26195,0.62463 -0.58433,0.86642c-0.32239,0.24179 -0.64478,0.36269 -1.02762,0.36269c-0.18134,0 -0.36269,-0.0403 -0.50373,-0.10075c-0.40298,-0.10075 -0.74552,-0.36269 -1.04777,-0.78583c-0.22164,-0.36269 -0.26195,-0.78583 -0.1209,-1.30971l-0.00001,0.00001zm8.32168,-5.62167c0,-0.08059 0.02015,-0.22164 0.08059,-0.46344l3.28434,-11.62617c0.1209,-0.38284 0.32239,-0.68508 0.60448,-0.88657c0.30224,-0.20149 0.60448,-0.30224 0.92687,-0.30224c0.1612,0 0.34254,0.02015 0.52388,0.06045c0.42313,0.1209 0.72538,0.32239 0.92687,0.62463c0.20149,0.30224 0.30224,0.62463 0.30224,0.94702c0,0.06045 -0.02015,0.1612 -0.0403,0.28209s-0.0403,0.20149 -0.0403,0.24179l-3.28434,11.54558c-0.08059,0.38284 -0.26195,0.70523 -0.56418,0.92687s-0.64478,0.34254 -1.02762,0.34254l-0.48359,-0.10075c-0.40298,-0.1209 -0.70523,-0.32239 -0.92687,-0.64478c-0.18134,-0.30224 -0.28209,-0.62463 -0.28209,-0.94702l0,0.00001z" fill="cornflowerblue"/>
   </g>

</svg>

