<svg width="60" height="60" xmlns="http://www.w3.org/2000/svg">

  <defs>
    <filter id="drop_shadow" filterUnits="objectBoundingBox" x="-50%" y="-50%" width="200%" height="200%">
      <feDropShadow dx="0.5" dy="0.5" stdDeviation="2" flood-color="black" flood-opacity="0.8" />
    </filter>
    <filter id="blur_shadow" filterUnits="objectBoundingBox" x="-50%" y="-50%" width="200%" height="200%">
      <feGaussianBlur in="SourceGraphic" stdDeviation="3" />
    </filter>
    <filter id="shadow">
      <feDropShadow dx="0.3" dy="0.6" stdDeviation="0.6" flood-color="black"/>
    </filter>
  </defs>

<g fill="black" style="filter:url(#blur_shadow)">
  <path d="m8.215,33.70335c0,2.21008 0.65705,4.18123 1.97115,5.91346c1.3141,1.73222 3.02642,2.92686 5.13694,3.564l-1.29419,3.38481c-0.07964,0.27875 0,0.41812 0.27875,0.41812l4.22105,0l-2.56847,8.32264l0.5575,0l8.4222,-11.18977c0.07964,-0.07964 0.07964,-0.1792 0.03982,-0.27875c-0.05973,-0.09955 -0.13937,-0.13937 -0.27875,-0.13937l-4.34052,0l4.91793,-9.23853c0.13937,-0.27875 0.05973,-0.43803 -0.25884,-0.43803l-5.89355,0c-0.1792,0 -0.31857,0.09955 -0.43803,0.29866l-2.13044,5.73426c-1.41365,-0.35839 -2.58838,-1.13491 -3.54409,-2.32954s-1.41365,-2.52865 -1.41365,-4.00204c0,-1.65258 0.5575,-3.08615 1.6924,-4.32061c1.13491,-1.21455 2.52865,-1.93133 4.18123,-2.13044l1.05526,-0.13937c0.25884,0 0.39821,-0.11946 0.39821,-0.35839l0.13937,-1.01544c0.21902,-2.15035 1.115,-3.96222 2.72776,-5.41569c1.61276,-1.45348 3.50427,-2.19017 5.67453,-2.19017c2.17026,0 4.06177,0.73669 5.69444,2.19017c1.63267,1.45348 2.54856,3.26534 2.78749,5.39578l0.13937,1.13491c0,0.23893 0.11946,0.3783 0.33848,0.3783l3.22552,0c1.81187,0 3.34499,0.63714 4.63918,1.89151s1.93133,2.78749 1.93133,4.53962c0,1.6924 -0.59732,3.16579 -1.79196,4.40025c-1.19464,1.23446 -2.64811,1.93133 -4.38034,2.0508c-0.23893,0 -0.3783,0.11946 -0.3783,0.3783l0,2.70785c0,0.23893 0.11946,0.35839 0.3783,0.35839c2.64811,-0.07964 4.89802,-1.09508 6.7497,-3.00651c1.85169,-1.93133 2.76758,-4.22105 2.76758,-6.86917c0,-1.73222 -0.43803,-3.34499 -1.3141,-4.8781c1.51321,-1.47339 2.52865,-3.20561 3.00651,-5.21659l0.3783,-1.35392c0.01991,-0.01991 0.01991,-0.05973 0.01991,-0.13937c0,-0.15929 -0.09955,-0.25884 -0.29866,-0.31857l-1.23446,-0.33848c-1.13491,-0.33848 -2.11053,-0.89598 -2.90695,-1.67249c-0.79643,-0.77651 -1.35392,-1.59285 -1.6924,-2.4291s-0.49777,-1.67249 -0.47786,-2.50874c0,-0.5575 0.05973,-1.115 0.19911,-1.6924l0.21902,-1.21455c0.03982,-0.19911 -0.03982,-0.35839 -0.27875,-0.45794l-1.59285,-0.47786c-0.9358,-0.1792 -1.75214,-0.27875 -2.46892,-0.27875c-0.73669,-0.01991 -1.4933,0.05973 -2.2499,0.23893c-0.7566,0.15929 -1.55303,0.43803 -2.36937,0.79643c-0.81634,0.35839 -1.59285,0.89598 -2.34945,1.57294c-0.7566,0.67696 -1.41365,1.47339 -1.97115,2.38928c-1.65258,-0.61723 -3.22552,-0.91589 -4.69891,-0.91589c-2.8074,0 -5.31614,0.87607 -7.4864,2.6282s-3.58391,3.98213 -4.20114,6.68997c-2.21008,0.51768 -4.02195,1.67249 -5.45551,3.46445c-1.41365,1.77205 -2.13044,3.82284 -2.13044,6.11256zm19.0943,12.08575c0,0.47786 0.15929,0.87607 0.47786,1.17473c0.31857,0.31857 0.71678,0.47786 1.15482,0.47786c0.47786,0 0.87607,-0.15929 1.21455,-0.47786s0.49777,-0.71678 0.49777,-1.17473c0,-0.47786 -0.15929,-0.87607 -0.49777,-1.21455s-0.73669,-0.51768 -1.21455,-0.51768c-0.43803,0 -0.81634,0.1792 -1.15482,0.51768s-0.47786,0.73669 -0.47786,1.21455zm0,-7.24747c0,0.47786 0.15929,0.85616 0.47786,1.15482c0.31857,0.31857 0.71678,0.47786 1.15482,0.47786c0.47786,0 0.89598,-0.15929 1.21455,-0.45794s0.49777,-0.69687 0.49777,-1.17473c0,-0.45794 -0.15929,-0.85616 -0.49777,-1.19464s-0.73669,-0.49777 -1.21455,-0.49777c-0.45794,0 -0.83625,0.15929 -1.15482,0.49777s-0.47786,0.73669 -0.47786,1.19464zm0,14.55467c0,0.43803 0.15929,0.81634 0.47786,1.13491c0.33848,0.33848 0.71678,0.49777 1.15482,0.49777c0.47786,0 0.87607,-0.15929 1.21455,-0.47786c0.33848,-0.31857 0.49777,-0.69687 0.49777,-1.17473c0,-0.47786 -0.15929,-0.87607 -0.49777,-1.21455c-0.33848,-0.33848 -0.73669,-0.51768 -1.21455,-0.51768c-0.43803,0 -0.81634,0.1792 -1.15482,0.51768c-0.31857,0.35839 -0.47786,0.77651 -0.47786,1.23446zm6.43113,-11.16986c0,0.47786 0.15929,0.87607 0.49777,1.19464s0.71678,0.49777 1.19464,0.49777c0.45794,0 0.85616,-0.15929 1.17473,-0.49777c0.31857,-0.33848 0.47786,-0.73669 0.47786,-1.19464c0,-0.43803 -0.15929,-0.83625 -0.47786,-1.15482c-0.31857,-0.31857 -0.69687,-0.47786 -1.17473,-0.47786c-0.45794,0 -0.85616,0.15929 -1.19464,0.47786s-0.49777,0.69687 -0.49777,1.15482zm0,7.24747c0,0.45794 0.15929,0.83625 0.47786,1.15482c0.31857,0.31857 0.71678,0.47786 1.19464,0.47786c0.47786,0 0.85616,-0.15929 1.17473,-0.47786c0.31857,-0.31857 0.45794,-0.69687 0.45794,-1.17473c0,-0.47786 -0.15929,-0.85616 -0.45794,-1.17473c-0.31857,-0.31857 -0.69687,-0.45794 -1.17473,-0.45794c-0.47786,0 -0.87607,0.15929 -1.19464,0.45794c-0.31857,0.31857 -0.47786,0.71678 -0.47786,1.19464zm1.35392,-31.63799c0.65705,-1.115 1.55303,-1.97115 2.66802,-2.56847s2.28972,-0.89598 3.50427,-0.89598l0.43803,0l0,0.63714c0,1.27428 0.21902,2.50874 0.67696,3.70338c0.45794,1.19464 1.115,2.28972 2.03088,3.30516c0.89598,1.01544 1.97115,1.81187 3.20561,2.40919c-0.33848,0.7566 -0.83625,1.43357 -1.51321,2.0508c-1.81187,-1.55303 -3.9423,-2.32954 -6.41122,-2.32954l-0.65705,0c-0.57741,-2.50874 -1.89151,-4.61927 -3.9423,-6.31167z"/>
</g>

<g stroke-width="2.5" stroke-opacity="0.4" stroke="midnightblue">

  <path id="moonfillback" stroke-width="0.1" fill="paleturquoise"  fill-opacity="0.2" style="filter:url(#blur_shadow)" d="m39.9567,27.27653zm-4.53863,-9.71987c0.62256,-1.1447 1.50618,-2.02832 2.61072,-2.6308c1.10453,-0.60247 2.2894,-0.90371 3.53451,-0.88363c0.22091,0 0.40165,0.02008 0.50206,0.04016l0,0.62256c0,1.96808 0.52214,3.79558 1.56643,5.52267c1.04429,1.72709 2.5103,3.03245 4.35789,3.91607c-0.38157,0.88363 -0.88363,1.58651 -1.50618,2.14882c-1.76725,-1.58651 -3.93616,-2.36973 -6.52679,-2.36973l-0.64264,0c-0.52214,-2.5103 -1.80742,-4.63904 -3.89599,-6.36613l-0.00001,0.00001z"/>

  <path stroke-width="0" filter="url(#blur_shadow)" fill="paleturquoise" fill-opacity="0.3" d="m11.43267,33.85888c0,1.81002 0.66685,3.38188 1.95292,4.66796s2.88175,1.95292 4.73941,1.95292l22.10135,0c1.83385,0 3.42952,-0.64303 4.73941,-1.95292c1.30989,-1.30989 1.97674,-2.85793 1.97674,-4.66796c0,-1.81002 -0.64303,-3.38188 -1.97674,-4.66796c-1.30989,-1.28607 -2.88175,-1.95292 -4.73941,-1.95292l-3.31044,0c-0.23816,0 -0.35724,-0.11908 -0.35724,-0.35724l-0.16671,-1.16699c-0.23816,-2.23872 -1.19081,-4.1202 -2.83411,-5.59679s-3.59624,-2.2149 -5.83495,-2.2149c-2.23872,0 -4.19163,0.7383 -5.85877,2.23872c-1.66713,1.4766 -2.59596,3.35807 -2.8103,5.57298l-0.16671,1.00028c0,0.23816 -0.11908,0.35724 -0.38106,0.35724l-1.07172,0.16671c-1.71476,0.14289 -3.14373,0.85738 -4.31071,2.11963c-1.09554,1.26226 -1.69095,2.76268 -1.69095,4.50125l-0.00001,-0.00001l-0.00001,0z"/>
  <path id="cloudmoon" fill="linen" d="m8.26664,33.78325c0,2.67096 0.92379,4.98044 2.79146,6.88827s4.13698,2.95212 6.82802,3.07261c0.24099,0 0.36148,-0.12049 0.36148,-0.3414l0,-2.69105c0,-0.22091 -0.12049,-0.3414 -0.36148,-0.3414c-1.72709,-0.08033 -3.17302,-0.76313 -4.37797,-2.04841s-1.80742,-2.79146 -1.80742,-4.53863c0,-1.66684 0.56231,-3.11278 1.68692,-4.35789c1.12462,-1.22503 2.53039,-1.948 4.21731,-2.14882l1.06437,-0.06025c0.26107,0 0.40165,-0.12049 0.40165,-0.36148l0.14058,-1.08445c0.22091,-2.1689 1.12462,-3.9964 2.75129,-5.46242c1.62668,-1.46602 3.53451,-2.20907 5.72349,-2.20907c2.1689,0 4.07673,0.74305 5.72349,2.20907c1.64676,1.46602 2.57055,3.29352 2.81154,5.46242l0.16066,1.16478c0,0.22091 0.12049,0.3414 0.3414,0.3414l3.23327,0c1.78734,0 3.33368,0.64264 4.63904,1.92791c1.30536,1.28528 1.96808,2.81154 1.96808,4.55871c0,1.74717 -0.60247,3.25335 -1.80742,4.53863c-1.20495,1.28528 -2.67096,1.96808 -4.37797,2.04841c-0.26107,0 -0.40165,0.12049 -0.40165,0.3414l0,2.69105c0,0.22091 0.14058,0.3414 0.40165,0.3414c2.67096,-0.08033 4.94028,-1.10453 6.78786,-3.03245c1.86767,-1.92791 2.79146,-4.23739 2.79146,-6.92844c0,-1.72709 -0.44181,-3.33368 -1.30536,-4.83986c1.58651,-1.4861 2.61072,-3.25335 3.11278,-5.2616l0.26107,-1.3656c0.04016,-0.02008 0.06025,-0.06025 0.06025,-0.14058c0,-0.14058 -0.10041,-0.26107 -0.32132,-0.32132l-1.12462,-0.3414c-1.1447,-0.3414 -2.10865,-0.90371 -2.93203,-1.70701c-0.8033,-0.8033 -1.38569,-1.62668 -1.72709,-2.5103c-0.3414,-0.86354 -0.50206,-1.74717 -0.50206,-2.65088c-0.02008,-0.48198 0.04016,-1.0242 0.16066,-1.58651l0.28115,-1.16478c0.06025,-0.18074 -0.04016,-0.32132 -0.28115,-0.44181l-1.60659,-0.50206c-0.84346,-0.24099 -1.72709,-0.38157 -2.6308,-0.38157c-0.70288,0 -1.42585,0.08033 -2.1689,0.26107s-1.52626,0.44181 -2.34964,0.8033c-0.82338,0.36148 -1.60659,0.90371 -2.38981,1.60659c-0.76313,0.70288 -1.44593,1.50618 -2.00824,2.45006c-1.50618,-0.64264 -3.09269,-0.98404 -4.75953,-0.98404c-2.83162,0 -5.36201,0.88363 -7.55099,2.6308s-3.59475,3.9964 -4.21731,6.7477c-2.22915,0.52214 -4.05665,1.66684 -5.50258,3.47426s-2.18898,3.93616 -2.18898,6.24563l-0.00002,0.00001zm27.15143,-16.22659c0.62256,-1.1447 1.50618,-2.02832 2.61072,-2.6308c1.10453,-0.60247 2.2894,-0.90371 3.53451,-0.88363c0.22091,0 0.40165,0.02008 0.50206,0.04016l0,0.62256c0,1.96808 0.52214,3.79558 1.56643,5.52267c1.04429,1.72709 2.5103,3.03245 4.35789,3.91607c-0.38157,0.88363 -0.88363,1.58651 -1.50618,2.14882c-1.76725,-1.58651 -3.93616,-2.36973 -6.52679,-2.36973l-0.64264,0c-0.52214,-2.5103 -1.80742,-4.63904 -3.89599,-6.36613l-0.00001,0.00001z"/>

<path stroke-width="1" id="bolt" fill="bisque" d="m14.0289,46.56562c-0.07964,0.27875 0,0.41812 0.27875,0.41812l4.22105,0l-2.56847,8.32264l0.5575,0l8.4222,-11.18977c0.07964,-0.07964 0.07964,-0.1792 0.03982,-0.27875c-0.05973,-0.09955 -0.13937,-0.13937 -0.27875,-0.13937l-4.34052,0l4.91793,-9.23853c0.13937,-0.27875 0.05973,-0.43803 -0.25884,-0.43803l-5.89355,0c-0.1792,0 -0.31857,0.09955 -0.43803,0.29866l-2.13044,5.73426l-2.52865,6.51077z"/>

<path stroke-width="1" id="halfsnow" fill="white" d="m27.3093,45.7891c0,0.47786 0.15929,0.87607 0.47786,1.17473c0.31857,0.31857 0.71678,0.47786 1.15482,0.47786c0.47786,0 0.87607,-0.15929 1.21455,-0.47786s0.49777,-0.71678 0.49777,-1.17473c0,-0.47786 -0.15929,-0.87607 -0.49777,-1.21455s-0.73669,-0.51768 -1.21455,-0.51768c-0.43803,0 -0.81634,0.1792 -1.15482,0.51768s-0.47786,0.73669 -0.47786,1.21455zm0,-7.24747c0,0.47786 0.15929,0.85616 0.47786,1.15482c0.31857,0.31857 0.71678,0.47786 1.15482,0.47786c0.47786,0 0.89598,-0.15929 1.21455,-0.45794s0.49777,-0.69687 0.49777,-1.17473c0,-0.45794 -0.15929,-0.85616 -0.49777,-1.19464s-0.73669,-0.49777 -1.21455,-0.49777c-0.45794,0 -0.83625,0.15929 -1.15482,0.49777s-0.47786,0.73669 -0.47786,1.19464l0,-0.00001zm0,14.55467c0,0.43803 0.15929,0.81634 0.47786,1.13491c0.33848,0.33848 0.71678,0.49777 1.15482,0.49777c0.47786,0 0.87607,-0.15929 1.21455,-0.47786c0.33848,-0.31857 0.49777,-0.69687 0.49777,-1.17473c0,-0.47786 -0.15929,-0.87607 -0.49777,-1.21455c-0.33848,-0.33848 -0.73669,-0.51768 -1.21455,-0.51768c-0.43803,0 -0.81634,0.1792 -1.15482,0.51768c-0.31857,0.35839 -0.47786,0.77651 -0.47786,1.23446zm6.43113,-11.16986c0,0.47786 0.15929,0.87607 0.49777,1.19464s0.71678,0.49777 1.19464,0.49777c0.45794,0 0.85616,-0.15929 1.17473,-0.49777c0.31857,-0.33848 0.47786,-0.73669 0.47786,-1.19464c0,-0.43803 -0.15929,-0.83625 -0.47786,-1.15482c-0.31857,-0.31857 -0.69687,-0.47786 -1.17473,-0.47786c-0.45794,0 -0.85616,0.15929 -1.19464,0.47786s-0.49777,0.69687 -0.49777,1.15482zm0,7.24747c0,0.45794 0.15929,0.83625 0.47786,1.15482c0.31857,0.31857 0.71678,0.47786 1.19464,0.47786c0.47786,0 0.85616,-0.15929 1.17473,-0.47786c0.31857,-0.31857 0.45794,-0.69687 0.45794,-1.17473c0,-0.47786 -0.15929,-0.85616 -0.45794,-1.17473c-0.31857,-0.31857 -0.69687,-0.45794 -1.17473,-0.45794c-0.47786,0 -0.87607,0.15929 -1.19464,0.45794c-0.31857,0.31857 -0.47786,0.71678 -0.47786,1.19464z"/>

</g>

  <path id="moonfill" stroke-width="0" fill="paleturquoise"  fill-opacity="0.5" d="m39.9567,27.27653zm-4.53863,-9.71987c0.62256,-1.1447 1.50618,-2.02832 2.61072,-2.6308c1.10453,-0.60247 2.2894,-0.90371 3.53451,-0.88363c0.22091,0 0.40165,0.02008 0.50206,0.04016l0,0.62256c0,1.96808 0.52214,3.79558 1.56643,5.52267c1.04429,1.72709 2.5103,3.03245 4.35789,3.91607c-0.38157,0.88363 -0.88363,1.58651 -1.50618,2.14882c-1.76725,-1.58651 -3.93616,-2.36973 -6.52679,-2.36973l-0.64264,0c-0.52214,-2.5103 -1.80742,-4.63904 -3.89599,-6.36613l-0.00001,0.00001z"/>


</svg>

