<svg width="60" height="60" xmlns="http://www.w3.org/2000/svg">

  <defs>
    <filter id="drop_shadow" filterUnits="objectBoundingBox" x="-50%" y="-50%" width="200%" height="200%">
      <feDropShadow dx="0.5" dy="0.5" stdDeviation="2" flood-color="black" flood-opacity="0.8" />
    </filter>
    <filter id="blur_shadow" filterUnits="objectBoundingBox" x="-50%" y="-50%" width="200%" height="200%">
      <feGaussianBlur in="SourceGraphic" stdDeviation="3" />
    </filter>
    <filter id="shadow">
      <feDropShadow dx="0.3" dy="0.6" stdDeviation="0.6" flood-color="black"/>
    </filter>
  </defs>

<g fill="black" style="filter:url(#blur_shadow)">
  <path d="m8.21499,33.7989c0,2.21644 0.65894,4.19326 1.97682,5.93047c1.31788,1.73721 3.03512,2.93528 5.15172,3.57425l-1.29791,3.39454c-0.07987,0.27955 0,0.41933 0.27955,0.41933l4.23319,0l-2.57586,8.34658l0.5591,0l8.44642,-11.22196c0.07987,-0.07987 0.07987,-0.17971 0.03994,-0.27955c-0.0599,-0.09984 -0.13978,-0.13978 -0.27955,-0.13978l-4.353,0l4.93207,-9.2651c0.13978,-0.27955 0.0599,-0.43929 -0.25958,-0.43929l-5.9105,0c-0.17971,0 -0.31949,0.09984 -0.43929,0.29952l-2.13656,5.75075c-1.41772,-0.35942 -2.59583,-1.13817 -3.55429,-2.33624s-1.41772,-2.53592 -1.41772,-4.01355c0,-1.65734 0.5591,-3.09502 1.69727,-4.33303c1.13817,-1.21804 2.53592,-1.93689 4.19326,-2.13656l1.0583,-0.13978c0.25958,0 0.39936,-0.11981 0.39936,-0.35942l0.13978,-1.01836c0.21965,-2.15653 1.1182,-3.97361 2.7356,-5.43127c1.6174,-1.45766 3.51435,-2.19647 5.69085,-2.19647c2.1765,0 4.07345,0.73881 5.71082,2.19647c1.63737,1.45766 2.55589,3.27473 2.79551,5.4113l0.13978,1.13817c0,0.23961 0.11981,0.37939 0.33945,0.37939l3.2348,0c1.81708,0 3.35461,0.63897 4.65252,1.89695s1.93689,2.79551 1.93689,4.55268c0,1.69727 -0.59904,3.1749 -1.79711,4.41291c-1.19807,1.23801 -2.65573,1.93689 -4.39294,2.05669c-0.23961,0 -0.37939,0.11981 -0.37939,0.37939l0,2.71563c0,0.23961 0.11981,0.35942 0.37939,0.35942c2.65573,-0.07987 4.9121,-1.09823 6.76912,-3.01515c1.85701,-1.93689 2.77554,-4.23319 2.77554,-6.88892c0,-1.73721 -0.43929,-3.35461 -1.31788,-4.89213c1.51756,-1.47762 2.53592,-3.21483 3.01515,-5.23159l0.37939,-1.35782c0.01997,-0.01997 0.01997,-0.0599 0.01997,-0.13978c0,-0.15974 -0.09984,-0.25958 -0.29952,-0.31949l-1.23801,-0.33945c-1.13817,-0.33945 -2.1166,-0.89856 -2.91531,-1.6773c-0.79872,-0.77875 -1.35782,-1.59743 -1.69727,-2.43608s-0.4992,-1.6773 -0.47923,-2.51595c0,-0.5591 0.0599,-1.1182 0.19968,-1.69727l0.21965,-1.21804c0.03994,-0.19968 -0.03994,-0.35942 -0.27955,-0.45926l-1.59743,-0.47923c-0.93849,-0.17971 -1.75717,-0.27955 -2.47602,-0.27955c-0.73881,-0.01997 -1.49759,0.0599 -2.25637,0.23961c-0.75878,0.15974 -1.5575,0.43929 -2.37618,0.79872c-0.81868,0.35942 -1.59743,0.89856 -2.35621,1.57746c-0.75878,0.67891 -1.41772,1.47762 -1.97682,2.39615c-1.65734,-0.619 -3.2348,-0.91852 -4.71242,-0.91852c-2.81547,0 -5.33143,0.87859 -7.50793,2.63576s-3.59422,3.99358 -4.21323,6.70921c-2.21644,0.51917 -4.03352,1.6773 -5.4712,3.47441c-1.41772,1.77714 -2.13656,3.83384 -2.13656,6.13014zm16.31377,19.70831c0,0.31949 0.09984,0.619 0.29952,0.93849c0.19968,0.31949 0.4992,0.53913 0.89856,0.65894c0.31949,0.0599 0.4992,0.09984 0.53913,0.09984c0.17971,0 0.43929,-0.0599 0.73881,-0.19968c0.41933,-0.19968 0.69888,-0.53913 0.83865,-1.0583l0.5591,-2.09663c0.11981,-0.43929 0.07987,-0.85862 -0.15974,-1.25798s-0.57907,-0.67891 -1.0583,-0.81868c-0.43929,-0.11981 -0.85862,-0.0599 -1.25798,0.15974c-0.39936,0.23961 -0.67891,0.59904 -0.81868,1.0583l-0.53913,1.99679l-0.03994,0.51917zm2.6757,-9.50472c0,0.85862 0.39936,1.35782 1.21804,1.49759c0.27955,0.0599 0.45926,0.09984 0.53913,0.09984c0.75878,0 1.25798,-0.41933 1.53753,-1.25798l0.59904,-2.03673c0.11981,-0.43929 0.0599,-0.85862 -0.15974,-1.25798s-0.59904,-0.67891 -1.0583,-0.81868c-0.43929,-0.13978 -0.87859,-0.09984 -1.27795,0.13978c-0.39936,0.23961 -0.67891,0.57907 -0.81868,1.0583l-0.4992,2.01676c-0.0599,0.17971 -0.07987,0.35942 -0.07987,0.5591zm5.61098,3.33464c0.01997,0.33945 0.13978,0.65894 0.35942,0.95846s0.53913,0.53913 0.95846,0.67891c0.31949,0.07987 0.53913,0.11981 0.65894,0.11981c0.67891,0 1.15814,-0.45926 1.41772,-1.35782l0.47923,-2.03673c0.13978,-0.45926 0.09984,-0.89856 -0.11981,-1.31788c-0.21965,-0.41933 -0.5591,-0.67891 -0.99839,-0.81868c-0.4992,-0.11981 -0.95846,-0.0599 -1.35782,0.15974c-0.39936,0.23961 -0.65894,0.59904 -0.73881,1.0583l-0.57907,2.05669c0,0.03994 -0.01997,0.11981 -0.03994,0.23961c-0.03994,0.13978 -0.03994,0.21965 -0.03994,0.25958zm2.35621,-29.75217c0.65894,-1.1182 1.5575,-1.97682 2.6757,-2.57586s2.29631,-0.89856 3.51435,-0.89856l0.43929,0l0,0.63897c0,1.27795 0.21965,2.51595 0.67891,3.71403c0.45926,1.19807 1.1182,2.29631 2.03673,3.31467c0.89856,1.01836 1.97682,1.81708 3.21483,2.41612c-0.33945,0.75878 -0.83865,1.43769 -1.51756,2.05669c-1.81708,-1.5575 -3.95364,-2.33624 -6.42966,-2.33624l-0.65894,0c-0.57907,-2.51595 -1.89695,-4.63255 -3.95364,-6.32982zm0.37939,20.16758c0,0.85862 0.43929,1.41772 1.29791,1.63737c0.27955,0.03994 0.47923,0.07987 0.59904,0.07987c0.71884,0 1.21804,-0.43929 1.47762,-1.29791l0.5591,-2.07666c0.01997,-0.09984 0.01997,-0.23961 0.01997,-0.43929c0.01997,-0.33945 -0.0599,-0.65894 -0.27955,-0.97843c-0.21965,-0.31949 -0.53913,-0.53913 -0.97843,-0.65894c-0.01997,0 -0.09984,0 -0.19968,-0.01997c-0.09984,-0.01997 -0.19968,-0.01997 -0.25958,-0.01997c-0.31949,0 -0.63897,0.09984 -0.95846,0.29952s-0.53913,0.51917 -0.65894,0.93849l-0.57907,2.03673c0,0.01997 0,0.07987 -0.01997,0.19968c0,0.13978 -0.01997,0.23961 -0.01997,0.29952z"/>
</g>

<g stroke-width="2.5" stroke-opacity="0.4" stroke="midnightblue">

  <path id="moonfillback" stroke-width="0.1" fill="paleturquoise"  fill-opacity="0.2" style="filter:url(#blur_shadow)" d="m39.9567,27.27653zm-4.53863,-9.71987c0.62256,-1.1447 1.50618,-2.02832 2.61072,-2.6308c1.10453,-0.60247 2.2894,-0.90371 3.53451,-0.88363c0.22091,0 0.40165,0.02008 0.50206,0.04016l0,0.62256c0,1.96808 0.52214,3.79558 1.56643,5.52267c1.04429,1.72709 2.5103,3.03245 4.35789,3.91607c-0.38157,0.88363 -0.88363,1.58651 -1.50618,2.14882c-1.76725,-1.58651 -3.93616,-2.36973 -6.52679,-2.36973l-0.64264,0c-0.52214,-2.5103 -1.80742,-4.63904 -3.89599,-6.36613l-0.00001,0.00001z"/>

  <path stroke-width="0" filter="url(#blur_shadow)" fill="paleturquoise" fill-opacity="0.3" d="m11.43267,33.85888c0,1.81002 0.66685,3.38188 1.95292,4.66796s2.88175,1.95292 4.73941,1.95292l22.10135,0c1.83385,0 3.42952,-0.64303 4.73941,-1.95292c1.30989,-1.30989 1.97674,-2.85793 1.97674,-4.66796c0,-1.81002 -0.64303,-3.38188 -1.97674,-4.66796c-1.30989,-1.28607 -2.88175,-1.95292 -4.73941,-1.95292l-3.31044,0c-0.23816,0 -0.35724,-0.11908 -0.35724,-0.35724l-0.16671,-1.16699c-0.23816,-2.23872 -1.19081,-4.1202 -2.83411,-5.59679s-3.59624,-2.2149 -5.83495,-2.2149c-2.23872,0 -4.19163,0.7383 -5.85877,2.23872c-1.66713,1.4766 -2.59596,3.35807 -2.8103,5.57298l-0.16671,1.00028c0,0.23816 -0.11908,0.35724 -0.38106,0.35724l-1.07172,0.16671c-1.71476,0.14289 -3.14373,0.85738 -4.31071,2.11963c-1.09554,1.26226 -1.69095,2.76268 -1.69095,4.50125l-0.00001,-0.00001l-0.00001,0z"/>
  <path id="cloudmoon" fill="linen" d="m8.26664,33.78325c0,2.67096 0.92379,4.98044 2.79146,6.88827s4.13698,2.95212 6.82802,3.07261c0.24099,0 0.36148,-0.12049 0.36148,-0.3414l0,-2.69105c0,-0.22091 -0.12049,-0.3414 -0.36148,-0.3414c-1.72709,-0.08033 -3.17302,-0.76313 -4.37797,-2.04841s-1.80742,-2.79146 -1.80742,-4.53863c0,-1.66684 0.56231,-3.11278 1.68692,-4.35789c1.12462,-1.22503 2.53039,-1.948 4.21731,-2.14882l1.06437,-0.06025c0.26107,0 0.40165,-0.12049 0.40165,-0.36148l0.14058,-1.08445c0.22091,-2.1689 1.12462,-3.9964 2.75129,-5.46242c1.62668,-1.46602 3.53451,-2.20907 5.72349,-2.20907c2.1689,0 4.07673,0.74305 5.72349,2.20907c1.64676,1.46602 2.57055,3.29352 2.81154,5.46242l0.16066,1.16478c0,0.22091 0.12049,0.3414 0.3414,0.3414l3.23327,0c1.78734,0 3.33368,0.64264 4.63904,1.92791c1.30536,1.28528 1.96808,2.81154 1.96808,4.55871c0,1.74717 -0.60247,3.25335 -1.80742,4.53863c-1.20495,1.28528 -2.67096,1.96808 -4.37797,2.04841c-0.26107,0 -0.40165,0.12049 -0.40165,0.3414l0,2.69105c0,0.22091 0.14058,0.3414 0.40165,0.3414c2.67096,-0.08033 4.94028,-1.10453 6.78786,-3.03245c1.86767,-1.92791 2.79146,-4.23739 2.79146,-6.92844c0,-1.72709 -0.44181,-3.33368 -1.30536,-4.83986c1.58651,-1.4861 2.61072,-3.25335 3.11278,-5.2616l0.26107,-1.3656c0.04016,-0.02008 0.06025,-0.06025 0.06025,-0.14058c0,-0.14058 -0.10041,-0.26107 -0.32132,-0.32132l-1.12462,-0.3414c-1.1447,-0.3414 -2.10865,-0.90371 -2.93203,-1.70701c-0.8033,-0.8033 -1.38569,-1.62668 -1.72709,-2.5103c-0.3414,-0.86354 -0.50206,-1.74717 -0.50206,-2.65088c-0.02008,-0.48198 0.04016,-1.0242 0.16066,-1.58651l0.28115,-1.16478c0.06025,-0.18074 -0.04016,-0.32132 -0.28115,-0.44181l-1.60659,-0.50206c-0.84346,-0.24099 -1.72709,-0.38157 -2.6308,-0.38157c-0.70288,0 -1.42585,0.08033 -2.1689,0.26107s-1.52626,0.44181 -2.34964,0.8033c-0.82338,0.36148 -1.60659,0.90371 -2.38981,1.60659c-0.76313,0.70288 -1.44593,1.50618 -2.00824,2.45006c-1.50618,-0.64264 -3.09269,-0.98404 -4.75953,-0.98404c-2.83162,0 -5.36201,0.88363 -7.55099,2.6308s-3.59475,3.9964 -4.21731,6.7477c-2.22915,0.52214 -4.05665,1.66684 -5.50258,3.47426s-2.18898,3.93616 -2.18898,6.24563l-0.00002,0.00001zm27.15143,-16.22659c0.62256,-1.1447 1.50618,-2.02832 2.61072,-2.6308c1.10453,-0.60247 2.2894,-0.90371 3.53451,-0.88363c0.22091,0 0.40165,0.02008 0.50206,0.04016l0,0.62256c0,1.96808 0.52214,3.79558 1.56643,5.52267c1.04429,1.72709 2.5103,3.03245 4.35789,3.91607c-0.38157,0.88363 -0.88363,1.58651 -1.50618,2.14882c-1.76725,-1.58651 -3.93616,-2.36973 -6.52679,-2.36973l-0.64264,0c-0.52214,-2.5103 -1.80742,-4.63904 -3.89599,-6.36613l-0.00001,0.00001z"/>

<g stroke-width="1" >

<path fill="bisque" d="m14.04562,46.69816c-0.07987,0.27955 0,0.41933 0.27955,0.41933l4.23319,0l-2.57586,8.34658l0.5591,0l8.44642,-11.22196c0.07987,-0.07987 0.07987,-0.17971 0.03994,-0.27955c-0.0599,-0.09984 -0.13978,-0.13978 -0.27955,-0.13978l-4.353,0l4.93207,-9.2651c0.13978,-0.27955 0.0599,-0.43929 -0.25958,-0.43929l-5.9105,0c-0.17971,0 -0.31949,0.09984 -0.43929,0.29952l-2.13656,5.75075l-2.53593,6.5295z"/>
<path id="halfrain" fill="cornflowerblue" d="m24.52876,53.50721c0,0.31949 0.09984,0.619 0.29952,0.93849c0.19968,0.31949 0.4992,0.53913 0.89856,0.65894c0.31949,0.0599 0.4992,0.09984 0.53913,0.09984c0.17971,0 0.43929,-0.0599 0.73881,-0.19968c0.41933,-0.19968 0.69888,-0.53913 0.83865,-1.0583l0.5591,-2.09663c0.11981,-0.43929 0.07987,-0.85862 -0.15974,-1.25798s-0.57907,-0.67891 -1.0583,-0.81868c-0.43929,-0.11981 -0.85862,-0.0599 -1.25798,0.15974c-0.39936,0.23961 -0.67891,0.59904 -0.81868,1.0583l-0.53913,1.99679l-0.03994,0.51917zm2.6757,-9.50472c0,0.85862 0.39936,1.35782 1.21804,1.49759c0.27955,0.0599 0.45926,0.09984 0.53913,0.09984c0.75878,0 1.25798,-0.41933 1.53753,-1.25798l0.59904,-2.03673c0.11981,-0.43929 0.0599,-0.85862 -0.15974,-1.25798s-0.59904,-0.67891 -1.0583,-0.81868c-0.43929,-0.13978 -0.87859,-0.09984 -1.27795,0.13978c-0.39936,0.23961 -0.67891,0.57907 -0.81868,1.0583l-0.4992,2.01676c-0.0599,0.17971 -0.07987,0.35942 -0.07987,0.5591zm5.61098,3.33464c0.01997,0.33945 0.13978,0.65894 0.35942,0.95846s0.53913,0.53913 0.95846,0.67891c0.31949,0.07987 0.53913,0.11981 0.65894,0.11981c0.67891,0 1.15814,-0.45926 1.41772,-1.35782l0.47923,-2.03673c0.13978,-0.45926 0.09984,-0.89856 -0.11981,-1.31788c-0.21965,-0.41933 -0.5591,-0.67891 -0.99839,-0.81868c-0.4992,-0.11981 -0.95846,-0.0599 -1.35782,0.15974c-0.39936,0.23961 -0.65894,0.59904 -0.73881,1.0583l-0.57907,2.05669c0,0.03994 -0.01997,0.11981 -0.03994,0.23961c-0.03994,0.13978 -0.03994,0.21965 -0.03994,0.25958l0.00001,0.00001zm2.7356,-9.58459c0,0.85862 0.43929,1.41772 1.29791,1.63737c0.27955,0.03994 0.47923,0.07987 0.59904,0.07987c0.71884,0 1.21804,-0.43929 1.47762,-1.29791l0.5591,-2.07666c0.01997,-0.09984 0.01997,-0.23961 0.01997,-0.43929c0.01997,-0.33945 -0.0599,-0.65894 -0.27955,-0.97843c-0.21965,-0.31949 -0.53913,-0.53913 -0.97843,-0.65894c-0.01997,0 -0.09984,0 -0.19968,-0.01997c-0.09984,-0.01997 -0.19968,-0.01997 -0.25958,-0.01997c-0.31949,0 -0.63897,0.09984 -0.95846,0.29952s-0.53913,0.51917 -0.65894,0.93849l-0.57907,2.03673c0,0.01997 0,0.07987 -0.01997,0.19968c0,0.13978 -0.01997,0.23961 -0.01997,0.29952l0.00001,-0.00001z"/>

</g>
</g>

  <path id="moonfill" stroke-width="0" fill="paleturquoise"  fill-opacity="0.5" d="m39.9567,27.27653zm-4.53863,-9.71987c0.62256,-1.1447 1.50618,-2.02832 2.61072,-2.6308c1.10453,-0.60247 2.2894,-0.90371 3.53451,-0.88363c0.22091,0 0.40165,0.02008 0.50206,0.04016l0,0.62256c0,1.96808 0.52214,3.79558 1.56643,5.52267c1.04429,1.72709 2.5103,3.03245 4.35789,3.91607c-0.38157,0.88363 -0.88363,1.58651 -1.50618,2.14882c-1.76725,-1.58651 -3.93616,-2.36973 -6.52679,-2.36973l-0.64264,0c-0.52214,-2.5103 -1.80742,-4.63904 -3.89599,-6.36613l-0.00001,0.00001z"/>


</svg>

