<svg width="60" height="60" xmlns="http://www.w3.org/2000/svg">

  <defs>
    <filter id="drop_shadow" filterUnits="objectBoundingBox" x="-50%" y="-50%" width="200%" height="200%">
      <feDropShadow dx="0.5" dy="0.5" stdDeviation="2" flood-color="black" flood-opacity="0.8" />
    </filter>
    <filter id="blur_shadow" filterUnits="objectBoundingBox" x="-50%" y="-50%" width="200%" height="200%">
      <feGaussianBlur in="SourceGraphic" stdDeviation="3" />
    </filter>
    <filter id="shadow">
      <feDropShadow dx="0.3" dy="0.6" stdDeviation="0.6" flood-color="black"/>
    </filter>
  </defs>

<g fill="black" style="filter:url(#blur_shadow)">
  <path d="m8.195,33.88356c0,2.66091 0.94032,4.94169 2.80096,6.86235s4.14142,2.94101 6.80233,3.02104c0.24008,0 0.36012,-0.12004 0.36012,-0.34012l0,-2.68092c0,-0.22008 -0.12004,-0.34012 -0.36012,-0.34012c-1.70058,-0.08003 -3.16108,-0.78027 -4.3615,-2.06071s-1.82062,-2.78095 -1.82062,-4.46153c0,-1.70058 0.56019,-3.18109 1.70058,-4.42152c1.14039,-1.24043 2.54087,-1.94067 4.20144,-2.08071l1.06036,-0.14005c0.26009,0 0.40014,-0.12004 0.40014,-0.36012l0.14005,-1.02035c0.22008,-2.20075 1.12038,-4.04139 2.74094,-5.50189c1.62056,-1.4605 3.52121,-2.20075 5.72196,-2.20075c2.18075,0 4.0814,0.74025 5.72196,2.20075c1.64056,1.4605 2.58088,3.28112 2.80096,5.44187l0.14005,1.14039c0,0.24008 0.12004,0.38013 0.34012,0.38013l3.24111,0c1.82062,0 3.36115,0.64022 4.6616,1.94067c1.30045,1.28044 1.94067,2.82097 1.94067,4.62158c0,1.10038 -0.2801,2.14073 -0.82028,3.12107s-1.30045,1.78061 -2.26077,2.40082c-0.96033,0.62021 -2.00069,0.96033 -3.12107,1.02035c-0.26009,0 -0.40014,0.12004 -0.40014,0.34012l0,2.68092c0,0.22008 0.14005,0.34012 0.40014,0.34012c1.7606,-0.04001 3.38116,-0.52018 4.84166,-1.42049c1.4605,-0.90031 2.6209,-2.10072 3.46119,-3.60123c0.84029,-1.50051 1.26043,-3.12107 1.26043,-4.86167c0,-1.7606 -0.46016,-3.44118 -1.36047,-5.02172c1.66057,-1.48051 2.72093,-3.24111 3.16108,-5.2418l0.2801,-1.36047c0.04001,-0.04001 0.06002,-0.08003 0.06002,-0.14005c0,-0.12004 -0.12004,-0.22008 -0.34012,-0.32011l-1.10038,-0.36012c-1.14039,-0.34012 -2.14073,-0.90031 -2.94101,-1.70058c-0.82028,-0.80027 -1.40048,-1.62056 -1.7406,-2.50086c-0.34012,-0.86029 -0.52018,-1.72059 -0.52018,-2.58088c-0.04001,-0.42014 0.02001,-0.98034 0.18006,-1.64056l0.26009,-1.1604c0.08003,-0.20007 0,-0.36012 -0.26009,-0.46016l-1.60055,-0.48016c-0.82028,-0.22008 -1.68058,-0.34012 -2.58088,-0.34012c-0.72025,0 -1.48051,0.08003 -2.24077,0.26009c-0.76026,0.18006 -1.56053,0.44015 -2.38082,0.82028s-1.62056,0.92032 -2.40082,1.62056c-0.78027,0.70024 -1.44049,1.52052 -2.00069,2.46084c-1.62056,-0.62021 -3.2011,-0.92032 -4.70161,-0.92032c-2.82097,0 -5.34183,0.8803 -7.52258,2.64091s-3.60123,4.00137 -4.22145,6.74231c-2.24077,0.5802 -4.0814,1.7606 -5.50189,3.54121c-1.42049,1.7406 -2.12073,3.8013 -2.12073,6.1221zm10.82371,14.10484c0,0.34012 0.10003,0.68023 0.32011,1.02035c0.22008,0.34012 0.54019,0.56019 0.94032,0.70024c0.46016,0.14005 0.8803,0.12004 1.28044,-0.08003s0.64022,-0.56019 0.78027,-1.12038l0.2801,-1.22042c0.10003,-0.46016 0.04001,-0.8803 -0.18006,-1.26043c-0.22008,-0.40014 -0.56019,-0.66023 -1.04036,-0.80027c-0.46016,-0.14005 -0.8803,-0.08003 -1.28044,0.16005s-0.68023,0.60021 -0.80027,1.06036l-0.26009,1.1604c-0.04001,0.08003 -0.04001,0.20007 -0.04001,0.38013zm1.52052,-5.80199c0,0.42014 0.16005,0.80027 0.50017,1.14039c0.32011,0.34012 0.68023,0.50017 1.12038,0.50017c0.48016,0 0.8803,-0.16005 1.20041,-0.48016c0.32011,-0.32011 0.48016,-0.70024 0.48016,-1.1804c0,-0.46016 -0.16005,-0.86029 -0.48016,-1.1804c-0.32011,-0.32011 -0.72025,-0.48016 -1.20041,-0.48016c-0.46016,0 -0.86029,0.16005 -1.1604,0.46016s-0.46016,0.76026 -0.46016,1.22042zm1.22042,-4.54156c-0.02001,0.32011 0.06002,0.62021 0.2801,0.90031c0.20007,0.3001 0.52018,0.50017 0.96033,0.64022c0.42014,0.12004 0.82028,0.08003 1.24043,-0.14005c0.42014,-0.22008 0.68023,-0.56019 0.82028,-1.02035l0.56019,-1.80062c0.14005,-0.48016 0.10003,-0.92032 -0.14005,-1.30045c-0.24008,-0.38013 -0.60021,-0.64022 -1.08037,-0.78027c-0.44015,-0.14005 -0.86029,-0.10003 -1.26043,0.14005c-0.40014,0.22008 -0.68023,0.56019 -0.82028,1.00034l-0.48016,1.84063c0,0.04001 -0.02001,0.12004 -0.04001,0.24008c-0.04001,0.10003 -0.04001,0.20007 -0.04001,0.2801zm2.3208,16.58569c0,0.36012 0.10003,0.68023 0.3001,1.00034c0.20007,0.32011 0.52018,0.54019 0.96033,0.66023c0.16005,0.04001 0.34012,0.06002 0.50017,0.06002c0.86029,0 1.38047,-0.40014 1.58054,-1.22042l0.2801,-1.1804c0.12004,-0.52018 0.06002,-0.96033 -0.16005,-1.36047s-0.5802,-0.64022 -1.04036,-0.74025c-0.42014,-0.14005 -0.84029,-0.10003 -1.26043,0.14005c-0.42014,0.24008 -0.68023,0.5802 -0.82028,1.02035l-0.2801,1.1804c-0.04001,0.18006 -0.06002,0.32011 -0.06002,0.44015zm1.56053,-5.80199c0,0.44015 0.16005,0.82028 0.50017,1.1604c0.32011,0.32011 0.70024,0.48016 1.14039,0.48016c0.48016,0 0.86029,-0.16005 1.1804,-0.46016c0.32011,-0.32011 0.46016,-0.70024 0.46016,-1.1804c0,-0.46016 -0.16005,-0.84029 -0.46016,-1.1604s-0.70024,-0.46016 -1.1804,-0.46016s-0.86029,0.16005 -1.1804,0.46016c-0.3001,0.3001 -0.46016,0.70024 -0.46016,1.1604zm1.26043,-4.54156c-0.02001,0.3001 0.06002,0.62021 0.26009,0.94032s0.50017,0.52018 0.90031,0.60021c0.46016,0.12004 0.8803,0.08003 1.28044,-0.12004c0.38013,-0.20007 0.66023,-0.5802 0.82028,-1.12038l0.54019,-1.80062c0.14005,-0.44015 0.10003,-0.86029 -0.14005,-1.26043c-0.24008,-0.40014 -0.5802,-0.66023 -1.06036,-0.80027c-0.44015,-0.14005 -0.86029,-0.08003 -1.28044,0.16005s-0.68023,0.60021 -0.82028,1.06036l-0.44015,1.80062c-0.04001,0.16005 -0.06002,0.34012 -0.06002,0.54019zm5.50189,4.30147c0,0.32011 0.10003,0.64022 0.3001,0.96033s0.52018,0.54019 0.92032,0.66023c0.06002,0 0.16005,0.02001 0.2801,0.04001c0.12004,0.02001 0.20007,0.04001 0.2801,0.04001c0.82028,0 1.32045,-0.44015 1.52052,-1.32045l0.2801,-1.20041c0.14005,-0.42014 0.10003,-0.84029 -0.14005,-1.26043c-0.22008,-0.42014 -0.56019,-0.68023 -1.02035,-0.82028c-0.50017,-0.12004 -0.96033,-0.08003 -1.36047,0.16005s-0.68023,0.5802 -0.82028,1.06036l-0.18006,1.1804c0,0.04001 -0.02001,0.14005 -0.04001,0.24008c0,0.10003 -0.02001,0.18006 -0.02001,0.26009zm1.48051,-5.92203c0,0.44015 0.16005,0.84029 0.50017,1.14039c0.3001,0.32011 0.68023,0.48016 1.14039,0.48016c0.48016,0 0.86029,-0.16005 1.1804,-0.46016s0.46016,-0.70024 0.46016,-1.1604c0,-0.48016 -0.16005,-0.86029 -0.46016,-1.1804s-0.70024,-0.46016 -1.1804,-0.46016c-0.48016,0 -0.86029,0.16005 -1.1804,0.46016s-0.46016,0.70024 -0.46016,1.1804zm1.22042,-4.62158c0,0.34012 0.10003,0.66023 0.32011,0.96033s0.54019,0.52018 0.98034,0.64022c0.04001,0 0.12004,0.02001 0.24008,0.04001c0.12004,0.02001 0.22008,0.04001 0.2801,0.04001c0.20007,0 0.44015,-0.06002 0.72025,-0.18006c0.42014,-0.22008 0.70024,-0.5802 0.82028,-1.04036l0.48016,-1.80062c0.12004,-0.46016 0.08003,-0.8803 -0.16005,-1.26043c-0.22008,-0.40014 -0.56019,-0.66023 -1.02035,-0.80027c-0.46016,-0.14005 -0.8803,-0.10003 -1.28044,0.12004s-0.64022,0.54019 -0.78027,1.02035l-0.56019,1.82062c0,0.04001 -0.02001,0.12004 -0.04001,0.24008c0.02001,0.06002 0,0.14005 0,0.20007zm0.14005,-20.10689c0.64022,-1.1604 1.52052,-2.0407 2.6209,-2.68092c1.12038,-0.64022 2.26077,-0.94032 3.46119,-0.92032c0.18006,0 0.38013,0.02001 0.60021,0.06002l0,0.62021c-0.02001,1.96067 0.50017,3.8013 1.54053,5.52189c1.06036,1.72059 2.54087,3.00103 4.44152,3.88133c-0.38013,0.82028 -0.92032,1.56053 -1.60055,2.22076c-1.84063,-1.52052 -4.00137,-2.28078 -6.46222,-2.28078l-0.62021,0c-0.62021,-2.6209 -1.94067,-4.76163 -3.98136,-6.4222z"/>
</g>

<g stroke-width="2.5" stroke-opacity="0.4" stroke="midnightblue">

  <path id="moonfillback" stroke-width="0.1" fill="paleturquoise"  fill-opacity="0.2" style="filter:url(#blur_shadow)" d="m39.9567,27.27653zm-4.53863,-9.71987c0.62256,-1.1447 1.50618,-2.02832 2.61072,-2.6308c1.10453,-0.60247 2.2894,-0.90371 3.53451,-0.88363c0.22091,0 0.40165,0.02008 0.50206,0.04016l0,0.62256c0,1.96808 0.52214,3.79558 1.56643,5.52267c1.04429,1.72709 2.5103,3.03245 4.35789,3.91607c-0.38157,0.88363 -0.88363,1.58651 -1.50618,2.14882c-1.76725,-1.58651 -3.93616,-2.36973 -6.52679,-2.36973l-0.64264,0c-0.52214,-2.5103 -1.80742,-4.63904 -3.89599,-6.36613l-0.00001,0.00001z"/>

  <path stroke-width="0" filter="url(#blur_shadow)" fill="paleturquoise" fill-opacity="0.3" d="m11.43267,33.85888c0,1.81002 0.66685,3.38188 1.95292,4.66796s2.88175,1.95292 4.73941,1.95292l22.10135,0c1.83385,0 3.42952,-0.64303 4.73941,-1.95292c1.30989,-1.30989 1.97674,-2.85793 1.97674,-4.66796c0,-1.81002 -0.64303,-3.38188 -1.97674,-4.66796c-1.30989,-1.28607 -2.88175,-1.95292 -4.73941,-1.95292l-3.31044,0c-0.23816,0 -0.35724,-0.11908 -0.35724,-0.35724l-0.16671,-1.16699c-0.23816,-2.23872 -1.19081,-4.1202 -2.83411,-5.59679s-3.59624,-2.2149 -5.83495,-2.2149c-2.23872,0 -4.19163,0.7383 -5.85877,2.23872c-1.66713,1.4766 -2.59596,3.35807 -2.8103,5.57298l-0.16671,1.00028c0,0.23816 -0.11908,0.35724 -0.38106,0.35724l-1.07172,0.16671c-1.71476,0.14289 -3.14373,0.85738 -4.31071,2.11963c-1.09554,1.26226 -1.69095,2.76268 -1.69095,4.50125l-0.00001,-0.00001l-0.00001,0z"/>
  <path id="cloudmoon" fill="linen" d="m8.26664,33.78325c0,2.67096 0.92379,4.98044 2.79146,6.88827s4.13698,2.95212 6.82802,3.07261c0.24099,0 0.36148,-0.12049 0.36148,-0.3414l0,-2.69105c0,-0.22091 -0.12049,-0.3414 -0.36148,-0.3414c-1.72709,-0.08033 -3.17302,-0.76313 -4.37797,-2.04841s-1.80742,-2.79146 -1.80742,-4.53863c0,-1.66684 0.56231,-3.11278 1.68692,-4.35789c1.12462,-1.22503 2.53039,-1.948 4.21731,-2.14882l1.06437,-0.06025c0.26107,0 0.40165,-0.12049 0.40165,-0.36148l0.14058,-1.08445c0.22091,-2.1689 1.12462,-3.9964 2.75129,-5.46242c1.62668,-1.46602 3.53451,-2.20907 5.72349,-2.20907c2.1689,0 4.07673,0.74305 5.72349,2.20907c1.64676,1.46602 2.57055,3.29352 2.81154,5.46242l0.16066,1.16478c0,0.22091 0.12049,0.3414 0.3414,0.3414l3.23327,0c1.78734,0 3.33368,0.64264 4.63904,1.92791c1.30536,1.28528 1.96808,2.81154 1.96808,4.55871c0,1.74717 -0.60247,3.25335 -1.80742,4.53863c-1.20495,1.28528 -2.67096,1.96808 -4.37797,2.04841c-0.26107,0 -0.40165,0.12049 -0.40165,0.3414l0,2.69105c0,0.22091 0.14058,0.3414 0.40165,0.3414c2.67096,-0.08033 4.94028,-1.10453 6.78786,-3.03245c1.86767,-1.92791 2.79146,-4.23739 2.79146,-6.92844c0,-1.72709 -0.44181,-3.33368 -1.30536,-4.83986c1.58651,-1.4861 2.61072,-3.25335 3.11278,-5.2616l0.26107,-1.3656c0.04016,-0.02008 0.06025,-0.06025 0.06025,-0.14058c0,-0.14058 -0.10041,-0.26107 -0.32132,-0.32132l-1.12462,-0.3414c-1.1447,-0.3414 -2.10865,-0.90371 -2.93203,-1.70701c-0.8033,-0.8033 -1.38569,-1.62668 -1.72709,-2.5103c-0.3414,-0.86354 -0.50206,-1.74717 -0.50206,-2.65088c-0.02008,-0.48198 0.04016,-1.0242 0.16066,-1.58651l0.28115,-1.16478c0.06025,-0.18074 -0.04016,-0.32132 -0.28115,-0.44181l-1.60659,-0.50206c-0.84346,-0.24099 -1.72709,-0.38157 -2.6308,-0.38157c-0.70288,0 -1.42585,0.08033 -2.1689,0.26107s-1.52626,0.44181 -2.34964,0.8033c-0.82338,0.36148 -1.60659,0.90371 -2.38981,1.60659c-0.76313,0.70288 -1.44593,1.50618 -2.00824,2.45006c-1.50618,-0.64264 -3.09269,-0.98404 -4.75953,-0.98404c-2.83162,0 -5.36201,0.88363 -7.55099,2.6308s-3.59475,3.9964 -4.21731,6.7477c-2.22915,0.52214 -4.05665,1.66684 -5.50258,3.47426s-2.18898,3.93616 -2.18898,6.24563l-0.00002,0.00001zm27.15143,-16.22659c0.62256,-1.1447 1.50618,-2.02832 2.61072,-2.6308c1.10453,-0.60247 2.2894,-0.90371 3.53451,-0.88363c0.22091,0 0.40165,0.02008 0.50206,0.04016l0,0.62256c0,1.96808 0.52214,3.79558 1.56643,5.52267c1.04429,1.72709 2.5103,3.03245 4.35789,3.91607c-0.38157,0.88363 -0.88363,1.58651 -1.50618,2.14882c-1.76725,-1.58651 -3.93616,-2.36973 -6.52679,-2.36973l-0.64264,0c-0.52214,-2.5103 -1.80742,-4.63904 -3.89599,-6.36613l-0.00001,0.00001z"/>

<g  stroke-width="1" >
  <path id="rain" fill="cornflowerblue" d="m19.01871,47.9884c0,0.34012 0.10003,0.68023 0.32011,1.02035c0.22008,0.34012 0.54019,0.56019 0.94032,0.70024c0.46016,0.14005 0.8803,0.12004 1.28044,-0.08003s0.64022,-0.56019 0.78027,-1.12038l0.2801,-1.22042c0.10003,-0.46016 0.04001,-0.8803 -0.18006,-1.26043c-0.22008,-0.40014 -0.56019,-0.66023 -1.04036,-0.80027c-0.46016,-0.14005 -0.8803,-0.08003 -1.28044,0.16005s-0.68023,0.60021 -0.80027,1.06036l-0.26009,1.1604c-0.04001,0.08003 -0.04001,0.20007 -0.04001,0.38013l-0.00001,0zm2.74094,-10.34355c-0.02001,0.32011 0.06002,0.62021 0.2801,0.90031c0.20007,0.3001 0.52018,0.50017 0.96033,0.64022c0.42014,0.12004 0.82028,0.08003 1.24043,-0.14005c0.42014,-0.22008 0.68023,-0.56019 0.82028,-1.02035l0.56019,-1.80062c0.14005,-0.48016 0.10003,-0.92032 -0.14005,-1.30045c-0.24008,-0.38013 -0.60021,-0.64022 -1.08037,-0.78027c-0.44015,-0.14005 -0.86029,-0.10003 -1.26043,0.14005c-0.40014,0.22008 -0.68023,0.56019 -0.82028,1.00034l-0.48016,1.84063c0,0.04001 -0.02001,0.12004 -0.04001,0.24008c-0.04001,0.10003 -0.04001,0.20007 -0.04001,0.2801l-0.00002,0.00001zm2.3208,16.58569c0,0.36012 0.10003,0.68023 0.3001,1.00034c0.20007,0.32011 0.52018,0.54019 0.96033,0.66023c0.16005,0.04001 0.34012,0.06002 0.50017,0.06002c0.86029,0 1.38047,-0.40014 1.58054,-1.22042l0.2801,-1.1804c0.12004,-0.52018 0.06002,-0.96033 -0.16005,-1.36047s-0.5802,-0.64022 -1.04036,-0.74025c-0.42014,-0.14005 -0.84029,-0.10003 -1.26043,0.14005c-0.42014,0.24008 -0.68023,0.5802 -0.82028,1.02035l-0.2801,1.1804c-0.04001,0.18006 -0.06002,0.32011 -0.06002,0.44015zm2.82096,-10.34355c-0.02001,0.3001 0.06002,0.62021 0.26009,0.94032s0.50017,0.52018 0.90031,0.60021c0.46016,0.12004 0.8803,0.08003 1.28044,-0.12004c0.38013,-0.20007 0.66023,-0.5802 0.82028,-1.12038l0.54019,-1.80062c0.14005,-0.44015 0.10003,-0.86029 -0.14005,-1.26043c-0.24008,-0.40014 -0.5802,-0.66023 -1.06036,-0.80027c-0.44015,-0.14005 -0.86029,-0.08003 -1.28044,0.16005s-0.68023,0.60021 -0.82028,1.06036l-0.44015,1.80062c-0.04001,0.16005 -0.06002,0.34012 -0.06002,0.54019l-0.00001,-0.00001zm5.50189,4.30147c0,0.32011 0.10003,0.64022 0.3001,0.96033s0.52018,0.54019 0.92032,0.66023c0.06002,0 0.16005,0.02001 0.2801,0.04001c0.12004,0.02001 0.20007,0.04001 0.2801,0.04001c0.82028,0 1.32045,-0.44015 1.52052,-1.32045l0.2801,-1.20041c0.14005,-0.42014 0.10003,-0.84029 -0.14005,-1.26043c-0.22008,-0.42014 -0.56019,-0.68023 -1.02035,-0.82028c-0.50017,-0.12004 -0.96033,-0.08003 -1.36047,0.16005s-0.68023,0.5802 -0.82028,1.06036l-0.18006,1.1804c0,0.04001 -0.02001,0.14005 -0.04001,0.24008c0,0.10003 -0.02001,0.18006 -0.02001,0.26009l-0.00001,0.00001zm2.70093,-10.54361c0,0.34012 0.10003,0.66023 0.32011,0.96033s0.54019,0.52018 0.98034,0.64022c0.04001,0 0.12004,0.02001 0.24008,0.04001c0.12004,0.02001 0.22008,0.04001 0.2801,0.04001c0.20007,0 0.44015,-0.06002 0.72025,-0.18006c0.42014,-0.22008 0.70024,-0.5802 0.82028,-1.04036l0.48016,-1.80062c0.12004,-0.46016 0.08003,-0.8803 -0.16005,-1.26043c-0.22008,-0.40014 -0.56019,-0.66023 -1.02035,-0.80027c-0.46016,-0.14005 -0.8803,-0.10003 -1.28044,0.12004s-0.64022,0.54019 -0.78027,1.02035l-0.56019,1.82062c0,0.04001 -0.02001,0.12004 -0.04001,0.24008c0.02001,0.06002 0,0.14005 0,0.20007l-0.00001,0.00001z"/>
  <path id="hail" fill="linen" d="m20.11909,45.38751zm0.42014,-3.2011c0,0.42014 0.16005,0.80027 0.50017,1.14039c0.32011,0.34012 0.68023,0.50017 1.12038,0.50017c0.48016,0 0.8803,-0.16005 1.20041,-0.48016c0.32011,-0.32011 0.48016,-0.70024 0.48016,-1.1804c0,-0.46016 -0.16005,-0.86029 -0.48016,-1.1804c-0.32011,-0.32011 -0.72025,-0.48016 -1.20041,-0.48016c-0.46016,0 -0.86029,0.16005 -1.1604,0.46016s-0.46016,0.76026 -0.46016,1.22042l0.00001,-0.00002zm5.10175,6.24214c0,0.44015 0.16005,0.82028 0.50017,1.1604c0.32011,0.32011 0.70024,0.48016 1.14039,0.48016c0.48016,0 0.86029,-0.16005 1.1804,-0.46016c0.32011,-0.32011 0.46016,-0.70024 0.46016,-1.1804c0,-0.46016 -0.16005,-0.84029 -0.46016,-1.1604s-0.70024,-0.46016 -1.1804,-0.46016s-0.86029,0.16005 -1.1804,0.46016c-0.3001,0.3001 -0.46016,0.70024 -0.46016,1.1604zm8.24283,-6.16212c0,0.44015 0.16005,0.84029 0.50017,1.14039c0.3001,0.32011 0.68023,0.48016 1.14039,0.48016c0.48016,0 0.86029,-0.16005 1.1804,-0.46016s0.46016,-0.70024 0.46016,-1.1604c0,-0.48016 -0.16005,-0.86029 -0.46016,-1.1804s-0.70024,-0.46016 -1.1804,-0.46016c-0.48016,0 -0.86029,0.16005 -1.1804,0.46016s-0.46016,0.70024 -0.46016,1.1804l0,0.00001z"/>

</g>
</g>

  <path id="moonfill" stroke-width="0" fill="paleturquoise"  fill-opacity="0.5" d="m39.9567,27.27653zm-4.53863,-9.71987c0.62256,-1.1447 1.50618,-2.02832 2.61072,-2.6308c1.10453,-0.60247 2.2894,-0.90371 3.53451,-0.88363c0.22091,0 0.40165,0.02008 0.50206,0.04016l0,0.62256c0,1.96808 0.52214,3.79558 1.56643,5.52267c1.04429,1.72709 2.5103,3.03245 4.35789,3.91607c-0.38157,0.88363 -0.88363,1.58651 -1.50618,2.14882c-1.76725,-1.58651 -3.93616,-2.36973 -6.52679,-2.36973l-0.64264,0c-0.52214,-2.5103 -1.80742,-4.63904 -3.89599,-6.36613l-0.00001,0.00001z"/>


</svg>


