<svg width="60" height="60" xmlns="http://www.w3.org/2000/svg">

  <defs>
    <filter id="drop_shadow" filterUnits="objectBoundingBox" x="-50%" y="-50%" width="200%" height="200%">
      <feDropShadow dx="0.5" dy="0.5" stdDeviation="2" flood-color="black" flood-opacity="0.8" />
    </filter>
    <filter id="blur_shadow" filterUnits="objectBoundingBox" x="-50%" y="-50%" width="200%" height="200%">
      <feGaussianBlur in="SourceGraphic" stdDeviation="3" />
    </filter>
    <filter id="shadow">
      <feDropShadow dx="0.3" dy="0.6" stdDeviation="0.6" flood-color="black"/>
    </filter>
  </defs>

<g fill="black" style="filter:url(#blur_shadow)">
    <path d="m11.34014,35.35021c0,-2.21602 0.60437,-4.7594 1.8131,-7.63015s2.77002,-5.66595 4.68385,-8.33524c3.92839,-5.18749 7.35315,-9.11589 10.22389,-11.76l1.88865,-1.8131c0.62955,0.65473 1.33465,1.2591 2.09011,1.8131c1.03246,1.05764 2.61893,2.7952 4.73422,5.26304s3.95357,4.65867 5.46449,6.67323c1.78792,2.54338 3.32402,5.28822 4.55794,8.18415s1.86347,5.43931 1.86347,7.63015c0,2.5182 -0.47846,4.91049 -1.46056,7.20205c-0.9821,2.29156 -2.29156,4.28094 -3.95357,5.94295c-1.66201,1.66201 -3.65139,2.99666 -5.96813,3.97876c-2.31674,0.9821 -4.7594,1.48574 -7.32796,1.48574c-2.5182,0 -4.91049,-0.47846 -7.20205,-1.43537c-2.29156,-0.95692 -4.28094,-2.2412 -5.94295,-3.90321c-1.66201,-1.63683 -2.99666,-3.62621 -3.97876,-5.91777s-1.48574,-4.7594 -1.48574,-7.37833zm5.69113,-7.37833c0,2.09011 0.42809,3.75212 1.30946,5.01122c0.88137,1.23392 2.21602,1.86347 4.00394,1.86347c1.8131,0 3.14775,-0.62955 4.0543,-1.86347c0.88137,-1.23392 1.33465,-2.89593 1.35983,-5.01122c-0.02518,-2.11529 -0.47846,-3.7773 -1.35983,-5.0364c-0.88137,-1.23392 -2.2412,-1.86347 -4.0543,-1.86347c-1.78792,0 -3.12257,0.62955 -4.00394,1.86347c-0.88137,1.2591 -1.30946,2.92111 -1.30946,5.0364zm3.95357,0c0,-0.37773 0,-0.67991 0,-0.88137s0.02518,-0.47846 0.05036,-0.83101c0.02518,-0.35255 0.05036,-0.62955 0.12591,-0.80582s0.12591,-0.40291 0.22664,-0.60437c0.10073,-0.20146 0.22664,-0.37773 0.37773,-0.45328c0.17627,-0.10073 0.35255,-0.15109 0.57919,-0.15109c0.35255,0 0.62955,0.10073 0.83101,0.30218s0.35255,0.52882 0.42809,0.95692c0.07555,0.45328 0.12591,0.80582 0.15109,1.13319s0.02518,0.75546 0.02518,1.30946c0,0.57919 0,1.00728 -0.02518,1.30946c-0.02518,0.30218 -0.07555,0.67991 -0.15109,1.13319c-0.07555,0.42809 -0.22664,0.75546 -0.42809,0.95692s-0.47846,0.30218 -0.83101,0.30218c-0.22664,0 -0.40291,-0.05036 -0.57919,-0.15109c-0.17627,-0.10073 -0.30218,-0.25182 -0.37773,-0.45328c-0.10073,-0.20146 -0.17627,-0.42809 -0.22664,-0.60437c-0.05036,-0.20146 -0.10073,-0.47846 -0.12591,-0.80582c-0.02518,-0.35255 -0.05036,-0.62955 -0.05036,-0.80582s0,-0.47846 0,-0.85619l0,0.00001zm1.48574,19.51605l3.32402,0l12.56582,-27.04547l-3.39957,0l-12.49027,27.04547zm10.82826,-7.52942c0.02518,2.11529 0.50364,3.7773 1.38501,5.0364c0.88137,1.23392 2.2412,1.86347 4.02912,1.86347c1.8131,0 3.14775,-0.62955 4.02912,-1.86347c0.88137,-1.23392 1.30946,-2.92111 1.33465,-5.0364c-0.02518,-2.11529 -0.45328,-3.7773 -1.33465,-5.01122c-0.88137,-1.23392 -2.21602,-1.86347 -4.02912,-1.86347c-1.78792,0 -3.14775,0.62955 -4.02912,1.86347c-0.90655,1.23392 -1.35983,2.89593 -1.38501,5.01122zm3.95357,0c0,-0.57919 0,-1.00728 0.02518,-1.30946c0.02518,-0.30218 0.07555,-0.67991 0.15109,-1.13319s0.22664,-0.75546 0.42809,-0.95692s0.47846,-0.30218 0.83101,-0.30218c0.22664,0 0.42809,0.05036 0.60437,0.15109c0.17627,0.10073 0.30218,0.25182 0.40291,0.47846c0.10073,0.22664 0.17627,0.42809 0.25182,0.60437s0.10073,0.45328 0.12591,0.80582l0.02518,0.80582l0,0.85619c0,0.40291 0,0.7051 0,0.88137l-0.02518,0.80582l-0.12591,0.80582l-0.25182,0.60437l-0.40291,0.47846l-0.60437,0.15109c-0.35255,0 -0.62955,-0.10073 -0.83101,-0.30218s-0.35255,-0.52882 -0.42809,-0.95692c-0.07555,-0.45328 -0.12591,-0.83101 -0.15109,-1.13319s-0.02518,-0.75546 -0.02518,-1.33465l0,0.00001z"/>
</g>

  <g>
   <path d="m11.4102,35.44138c0,3.2795 0.81988,6.34513 2.49527,9.16122s3.92115,5.09749 6.77289,6.77289c2.85174,1.6754 5.91737,2.53092 9.23252,2.53092c3.31515,0 6.41642,-0.85552 9.30381,-2.53092c2.88739,-1.6754 5.16878,-3.95679 6.84418,-6.77289c1.6754,-2.85174 2.53092,-5.88172 2.53092,-9.16122c0,-2.13881 -0.606,-4.66973 -1.85363,-7.62841c-1.24764,-2.95868 -2.7448,-5.70348 -4.49149,-8.19876c-1.56846,-2.03187 -3.42209,-4.27761 -5.5609,-6.70159c-2.13881,-2.42398 -5.88172,-6.16689 -6.73724,-7.02242l-4.56279,4.59843c-2.2101,2.13881 -4.34891,4.59843 -6.38077,7.41453c-2.03187,2.8161 -3.81421,5.84607 -5.31137,9.08993c-1.56846,3.24386 -2.28139,6.05995 -2.28139,8.44829l-0.00001,0z" fill="#ffcc00" fill-opacity="0.6"/>
   <g stroke="midnightblue" stroke-opacity="0.4" stroke-width="3">
    <path  fill="#66ff99" filter="url(#drop_shadow)" d="m11.34014,35.35021c0,-2.21602 0.60437,-4.7594 1.8131,-7.63015s2.77002,-5.66595 4.68385,-8.33524c3.92839,-5.18749 7.35315,-9.11589 10.22389,-11.76l1.88865,-1.8131c0.62955,0.65473 1.33465,1.2591 2.09011,1.8131c1.03246,1.05764 2.61893,2.7952 4.73422,5.26304s3.95357,4.65867 5.46449,6.67323c1.78792,2.54338 3.32402,5.28822 4.55794,8.18415s1.86347,5.43931 1.86347,7.63015c0,2.5182 -0.47846,4.91049 -1.46056,7.20205c-0.9821,2.29156 -2.29156,4.28094 -3.95357,5.94295c-1.66201,1.66201 -3.65139,2.99666 -5.96813,3.97876c-2.31674,0.9821 -4.7594,1.48574 -7.32796,1.48574c-2.5182,0 -4.91049,-0.47846 -7.20205,-1.43537c-2.29156,-0.95692 -4.28094,-2.2412 -5.94295,-3.90321c-1.66201,-1.63683 -2.99666,-3.62621 -3.97876,-5.91777s-1.48574,-4.7594 -1.48574,-7.37833zm5.69113,-7.37833c0,2.09011 0.42809,3.75212 1.30946,5.01122c0.88137,1.23392 2.21602,1.86347 4.00394,1.86347c1.8131,0 3.14775,-0.62955 4.0543,-1.86347c0.88137,-1.23392 1.33465,-2.89593 1.35983,-5.01122c-0.02518,-2.11529 -0.47846,-3.7773 -1.35983,-5.0364c-0.88137,-1.23392 -2.2412,-1.86347 -4.0543,-1.86347c-1.78792,0 -3.12257,0.62955 -4.00394,1.86347c-0.88137,1.2591 -1.30946,2.92111 -1.30946,5.0364zm3.95357,0c0,-0.37773 0,-0.67991 0,-0.88137s0.02518,-0.47846 0.05036,-0.83101c0.02518,-0.35255 0.05036,-0.62955 0.12591,-0.80582s0.12591,-0.40291 0.22664,-0.60437c0.10073,-0.20146 0.22664,-0.37773 0.37773,-0.45328c0.17627,-0.10073 0.35255,-0.15109 0.57919,-0.15109c0.35255,0 0.62955,0.10073 0.83101,0.30218s0.35255,0.52882 0.42809,0.95692c0.07555,0.45328 0.12591,0.80582 0.15109,1.13319s0.02518,0.75546 0.02518,1.30946c0,0.57919 0,1.00728 -0.02518,1.30946c-0.02518,0.30218 -0.07555,0.67991 -0.15109,1.13319c-0.07555,0.42809 -0.22664,0.75546 -0.42809,0.95692s-0.47846,0.30218 -0.83101,0.30218c-0.22664,0 -0.40291,-0.05036 -0.57919,-0.15109c-0.17627,-0.10073 -0.30218,-0.25182 -0.37773,-0.45328c-0.10073,-0.20146 -0.17627,-0.42809 -0.22664,-0.60437c-0.05036,-0.20146 -0.10073,-0.47846 -0.12591,-0.80582c-0.02518,-0.35255 -0.05036,-0.62955 -0.05036,-0.80582s0,-0.47846 0,-0.85619l0,0.00001zm1.48574,19.51605l3.32402,0l12.56582,-27.04547l-3.39957,0l-12.49027,27.04547zm10.82826,-7.52942c0.02518,2.11529 0.50364,3.7773 1.38501,5.0364c0.88137,1.23392 2.2412,1.86347 4.02912,1.86347c1.8131,0 3.14775,-0.62955 4.02912,-1.86347c0.88137,-1.23392 1.30946,-2.92111 1.33465,-5.0364c-0.02518,-2.11529 -0.45328,-3.7773 -1.33465,-5.01122c-0.88137,-1.23392 -2.21602,-1.86347 -4.02912,-1.86347c-1.78792,0 -3.14775,0.62955 -4.02912,1.86347c-0.90655,1.23392 -1.35983,2.89593 -1.38501,5.01122zm3.95357,0c0,-0.57919 0,-1.00728 0.02518,-1.30946c0.02518,-0.30218 0.07555,-0.67991 0.15109,-1.13319s0.22664,-0.75546 0.42809,-0.95692s0.47846,-0.30218 0.83101,-0.30218c0.22664,0 0.42809,0.05036 0.60437,0.15109c0.17627,0.10073 0.30218,0.25182 0.40291,0.47846c0.10073,0.22664 0.17627,0.42809 0.25182,0.60437s0.10073,0.45328 0.12591,0.80582l0.02518,0.80582l0,0.85619c0,0.40291 0,0.7051 0,0.88137l-0.02518,0.80582l-0.12591,0.80582l-0.25182,0.60437l-0.40291,0.47846l-0.60437,0.15109c-0.35255,0 -0.62955,-0.10073 -0.83101,-0.30218s-0.35255,-0.52882 -0.42809,-0.95692c-0.07555,-0.45328 -0.12591,-0.83101 -0.15109,-1.13319s-0.02518,-0.75546 -0.02518,-1.33465l0,0.00001z"/>
   </g>
</g>
</svg>
