<svg width="60" height="60" xmlns="http://www.w3.org/2000/svg">
  <defs>
    <filter id="drop_shadow" filterUnits="objectBoundingBox" x="-50%" y="-50%" width="200%" height="200%">
      <feDropShadow dx="0.5" dy="0.5" stdDeviation="2" flood-color="black" flood-opacity="0.8" />
    </filter>
    <filter id="blur_shadow" filterUnits="objectBoundingBox" x="-50%" y="-50%" width="200%" height="200%">
      <feGaussianBlur in="SourceGraphic" stdDeviation="3" />
    </filter>
    <filter id="shadow">
      <feDropShadow dx="0.3" dy="0.6" stdDeviation="0.6" flood-color="black"/>
    </filter>
  </defs>
<g>
  <path filter="url(#blur_shadow)" d="m10.066166,32.181258c0,2.045769 0.753701,3.82236 2.207284,5.275943s3.25709,2.207284 5.3567,2.207284l24.979961,0c2.072695,0 3.876202,-0.726786 5.3567,-2.207284c1.480498,-1.480498 2.2342,-3.230163 2.2342,-5.275943c0,-2.045769 -0.726786,-3.82236 -2.2342,-5.275943c-1.480498,-1.453572 -3.25709,-2.207284 -5.3567,-2.207284l-3.741613,0c-0.269177,0 -0.403766,-0.134589 -0.403766,-0.403766l-0.188431,-1.318983c-0.269177,-2.530304 -1.345898,-4.65683 -3.203247,-6.325748s-4.064633,-2.503377 -6.594925,-2.503377c-2.530304,0 -4.737577,0.834459 -6.621841,2.530304c-1.884264,1.668918 -2.93407,3.795444 -3.176332,6.298833l-0.188431,1.130563c0,0.269177 -0.134589,0.403766 -0.430693,0.403766l-1.21131,0.188431c-1.938095,0.161504 -3.553182,0.969048 -4.872165,2.395704c-1.238236,1.426656 -1.91118,3.122501 -1.91118,5.087512l-0.000011,-0.000011z"  fill-opacity="0.2" fill="paleturquoise"/>
<g stroke="midnightblue" stroke-opacity="0.4" style="filter:url(#drop_shadow);" >
   <path fill="linen" stroke-width="2.5" d="m4.88681,31.56908c0,-2.78632 0.87224,-5.25766 2.61671,-7.43825c1.74448,-2.18059 3.9493,-3.56164 6.61447,-4.19159c0.75109,-3.29512 2.44711,-6.00875 5.08805,-8.11666s5.69378,-3.17398 9.11004,-3.17398c3.34358,0 6.2995,1.04184 8.91621,3.07706c2.59249,2.05945 4.31273,4.70039 5.11228,7.94706l0.75109,0c2.15637,0 4.16736,0.53303 6.00875,1.57487s3.31935,2.49557 4.38542,4.31273c1.06607,1.81716 1.62333,3.82816 1.62333,5.98452c0,3.24666 -1.11453,6.03298 -3.34358,8.35895s-4.96691,3.56164 -8.18935,3.65855c-0.31497,0 -0.48458,-0.14537 -0.48458,-0.41189l0,-3.22243c0,-0.29075 0.1696,-0.43612 0.48458,-0.43612c2.08368,-0.09692 3.82816,-0.9207 5.28189,-2.47134s2.18059,-3.36781 2.18059,-5.47572s-0.77532,-3.92507 -2.37443,-5.47572c-1.57487,-1.55065 -3.44049,-2.32597 -5.59686,-2.32597l-3.87661,0c-0.29075,0 -0.46035,-0.14537 -0.46035,-0.41189l-0.1696,-1.40527c-0.26652,-2.59249 -1.38104,-4.79731 -3.34358,-6.56601c-1.98676,-1.7687 -4.2885,-2.66517 -6.90522,-2.66517c-2.64094,0 -4.96691,0.87224 -6.92945,2.64094c-1.96254,1.7687 -3.07706,3.9493 -3.34358,6.56601l-0.14537,1.30836c0,0.29075 -0.1696,0.43612 -0.48458,0.43612l-1.28413,0.07269c-1.98676,0.09692 -3.65855,0.89647 -5.06383,2.42288s-2.08368,3.31935 -2.08368,5.3788c0,2.10791 0.72686,3.92507 2.18059,5.47572s3.22243,2.37443 5.28189,2.47134c0.26652,0 0.41189,0.14537 0.41189,0.43612l0,3.22243c0,0.26652 -0.14537,0.41189 -0.41189,0.41189c-3.24666,-0.14537 -5.98452,-1.38104 -8.2378,-3.70701s-3.31935,-5.0396 -3.31935,-8.26203l0.00004,0.00001z"/>
  <path stroke-width="1" fill="darkgrey" d="m13.12433,38.52347zm4.74396,10.40213c0,-0.07412 0.02471,-0.17295 0.04942,-0.3212c0.02471,-0.12354 0.04942,-0.22238 0.04942,-0.2965l0.22237,-1.45778c0.17296,-0.593 0.49416,-1.01304 1.01303,-1.30953s1.06246,-0.34592 1.68016,-0.19767c0.56829,0.17296 0.96362,0.51887 1.26012,1.01303c0.27179,0.51888 0.3212,1.03775 0.17295,1.55662l-0.34591,1.48249c-0.24708,1.08716 -0.86479,1.63074 -1.87782,1.63074c-0.07413,0 -0.19767,-0.02471 -0.34592,-0.04942c-0.14825,-0.02471 -0.24708,-0.04942 -0.34591,-0.04942c-0.51887,-0.14824 -0.88949,-0.42003 -1.13658,-0.81536c-0.27179,-0.37063 -0.39533,-0.76596 -0.39533,-1.186zm1.82841,-7.2642c0,-0.59299 0.19766,-1.06245 0.56829,-1.45778s0.86478,-0.56829 1.45778,-0.56829s1.06245,0.19767 1.45778,0.56829s0.56829,0.86479 0.56829,1.45778c0,0.56829 -0.19767,1.03775 -0.56829,1.43308s-0.86479,0.56828 -1.45778,0.56828c-0.56829,0 -1.03775,-0.19766 -1.40837,-0.59299c-0.39533,-0.39533 -0.6177,-0.86479 -0.6177,-1.40837zm4.05214,14.80019c0,-0.09883 0.0247,-0.27179 0.09883,-0.56829l0.3212,-1.45778c0.17296,-0.56828 0.51888,-0.98832 1.01304,-1.26011c0.51887,-0.2965 1.03774,-0.34592 1.55661,-0.17296c0.56829,0.09883 1.01304,0.42004 1.30954,0.9142c0.29649,0.49417 0.37062,1.06245 0.19766,1.68016l-0.3212,1.45778c-0.24709,1.01303 -0.91421,1.5072 -1.97666,1.5072c-0.17295,0 -0.39533,-0.02471 -0.59299,-0.07413c-0.54358,-0.14825 -0.93891,-0.42004 -1.2107,-0.81537c-0.24709,-0.39533 -0.39533,-0.79066 -0.39533,-1.2107zm1.95194,-7.19007c0,-0.56829 0.19767,-1.06245 0.56829,-1.43308c0.39533,-0.39533 0.86478,-0.56828 1.45778,-0.56828s1.06245,0.19766 1.45778,0.56828c0.39533,0.39533 0.56829,0.86479 0.56829,1.43308c0,0.59299 -0.19767,1.06245 -0.56829,1.45778c-0.39533,0.39533 -0.86478,0.56829 -1.45778,0.56829c-0.56829,0 -1.03774,-0.19767 -1.43307,-0.593c-0.39533,-0.39533 -0.593,-0.86478 -0.593,-1.43307zm1.53191,-5.60876c0,-0.24708 0.0247,-0.46945 0.07412,-0.66712l0.56829,-2.22373c0.17296,-0.56829 0.51887,-1.01303 1.01303,-1.30953c0.51887,-0.2965 1.03775,-0.37062 1.58133,-0.19767c0.59299,0.17296 1.01303,0.49417 1.30953,0.98833s0.34591,1.01303 0.17296,1.55661l-0.64242,2.22374c-0.19766,0.69183 -0.54358,1.13657 -1.01303,1.38365c-0.46946,0.24709 -1.01304,0.2965 -1.58132,0.14825c-0.49417,-0.09883 -0.86479,-0.34591 -1.11187,-0.74124c-0.2965,-0.39533 -0.39533,-0.79066 -0.37062,-1.16129zm6.81945,5.28755c0,-0.07412 0,-0.19766 0.02471,-0.3212s0.02471,-0.22238 0.02471,-0.27179l0.22237,-1.45779c0.17296,-0.59299 0.49416,-1.01303 1.01303,-1.30953s1.06245,-0.34591 1.68016,-0.19766c0.56829,0.17295 0.98833,0.51887 1.26011,1.01303c0.2965,0.51887 0.34592,1.03774 0.17296,1.55662l-0.34591,1.48248c-0.24708,1.08716 -0.86479,1.63074 -1.87782,1.63074c-0.07413,0 -0.19767,-0.0247 -0.34592,-0.04941c-0.14825,-0.02471 -0.27179,-0.04942 -0.34591,-0.04942c-0.49416,-0.14825 -0.86479,-0.42004 -1.11187,-0.81537c-0.22237,-0.39533 -0.37062,-0.79066 -0.37062,-1.2107zm1.8284,-7.2642c0,-0.59299 0.19767,-1.06245 0.56829,-1.45778c0.39533,-0.39533 0.86479,-0.56829 1.45778,-0.56829c0.593,0 1.06245,0.19767 1.45778,0.56829c0.39533,0.39533 0.56829,0.86479 0.56829,1.45778c0,0.56829 -0.19766,1.06245 -0.56829,1.43308c-0.37062,0.37062 -0.84007,0.56828 -1.43307,0.56828c-0.593,0 -1.06245,-0.19766 -1.43307,-0.59299c-0.39533,-0.37063 -0.61771,-0.84008 -0.61771,-1.40837z"/>
</g>
</g>
</svg>
