<svg width="60" height="60" xmlns="http://www.w3.org/2000/svg">


  <defs>
    <filter id="drop_shadow" filterUnits="objectBoundingBox" x="-50%" y="-50%" width="200%" height="200%">
      <feDropShadow dx="0.5" dy="0.5" stdDeviation="2" flood-color="black" flood-opacity="0.8" />
    </filter>
    <filter id="blur_shadow" filterUnits="objectBoundingBox" x="-50%" y="-50%" width="200%" height="200%">
      <feGaussianBlur in="SourceGraphic" stdDeviation="3" />
    </filter>
  </defs>

<g>

    <circle filter="url(#blur_shadow)" r="11.82442" cy="26.86158" cx="30.73093" fill="palegoldenrod" fill-opacity="0.4"/>
    <g stroke="midnightblue" filter="url(#drop_shadow)" stroke-width="2.5" stroke-opacity="0.4">
     <path filter="url(#blur_shadow)" fill="paleturquoise" d="m13.58368,39.31391c0,0.98534 0.38271,1.84104 1.12083,2.54116s1.6539,1.06314 2.72004,1.06314l12.6844,0c1.05248,0 1.96827,-0.35005 2.72004,-1.06314c0.75177,-0.71308 1.13449,-1.55581 1.13449,-2.54116c0,-0.98534 -0.36905,-1.84104 -1.13449,-2.54116c-0.75177,-0.70012 -1.6539,-1.06314 -2.72004,-1.06314l-1.89992,0c-0.13668,0 -0.20503,-0.06482 -0.20503,-0.19447l-0.09568,-0.63529c-0.13668,-1.21873 -0.68343,-2.24296 -1.62656,-3.0468s-2.06396,-1.20575 -3.34879,-1.20575c-1.28485,0 -2.40566,0.40192 -3.36246,1.21873c-0.95679,0.80383 -1.48987,1.82808 -1.61288,3.03383l-0.09568,0.54453c0,0.12965 -0.06834,0.19447 -0.2187,0.19447l-0.61509,0.09075c-0.98413,0.07779 -1.80424,0.46674 -2.47401,1.1539c-0.62876,0.68715 -0.97047,1.50395 -0.97047,2.4504l-0.00001,-0.00001z" fill-opacity="0.2"/>
     <path d="m6.45997,26.97491c0,0.53673 0.17891,0.97407 0.55662,1.3319s0.8548,0.51686 1.43129,0.51686l3.35957,0c0.53673,0 0.99396,-0.17891 1.37166,-0.53673s0.57649,-0.79516 0.57649,-1.31202c0,-0.57649 -0.17891,-1.05359 -0.55662,-1.41142s-0.83492,-0.55662 -1.37166,-0.55662l-3.37945,0c-0.57649,0 -1.05359,0.17891 -1.43129,0.55662c-0.3777,0.33794 -0.55662,0.81504 -0.55662,1.41142l0.00001,-0.00001zm3.5186,12.28528c0,1.92827 0.69577,3.59812 2.10719,5.00953c1.41142,1.41142 3.06138,2.10719 4.98965,2.10719l13.63706,0c1.92827,0 3.57824,-0.69577 4.9499,-2.0873c1.37166,-1.39153 2.06742,-3.06138 2.06742,-5.02941c0,-0.9542 -0.13916,-1.76923 -0.41746,-2.44513c1.64996,-1.05359 2.96199,-2.46501 3.91618,-4.21437c0.9542,-1.74936 1.45117,-3.63788 1.45117,-5.64567c0,-1.6102 -0.31807,-3.16078 -0.9542,-4.63183c-0.63613,-1.47105 -1.49093,-2.74332 -2.54452,-3.79691c-1.05359,-1.05359 -2.32585,-1.90839 -3.79691,-2.54452c-1.47105,-0.63613 -3.00175,-0.9542 -4.61195,-0.9542c-2.16682,0 -4.17461,0.53673 -6.00348,1.6102s-3.28005,2.52465 -4.33364,4.33364c-1.05359,1.82888 -1.57045,3.81678 -1.57045,5.98361l0,0.67589c-1.98791,1.1331 -3.29993,2.78308 -3.93606,4.9499c-1.51082,0.4771 -2.70356,1.31202 -3.59812,2.52465c-0.89456,1.21263 -1.35178,2.60416 -1.35178,4.15473zm3.10114,-28.1488c0,0.55662 0.17891,1.01383 0.51686,1.3319l3.20053,3.35957c0.93432,0.71565 1.86863,0.71565 2.80295,0c0.3777,-0.3777 0.55662,-0.83492 0.55662,-1.39153c0,-0.53673 -0.17891,-0.99396 -0.55662,-1.39153l-3.28005,-3.28005c-0.41746,-0.3777 -0.89456,-0.57649 -1.39153,-0.57649c-0.55662,0 -1.01383,0.17891 -1.35178,0.55662c-0.33794,0.3777 -0.49697,0.83492 -0.49697,1.39153l-0.00001,-0.00001zm0.83492,28.1488c0,-0.83492 0.25843,-1.55057 0.79516,-2.14695c0.53673,-0.59637 1.21263,-0.93432 2.02766,-1.01383l1.2325,-0.15903c0.25843,0 0.39758,-0.15903 0.39758,-0.45722l0.17891,-1.11323c0.13916,-1.15299 0.61626,-2.10719 1.45117,-2.86259c0.83492,-0.77529 1.809,-1.15299 2.94211,-1.15299c1.15299,0 2.16682,0.3777 3.00175,1.15299c0.8548,0.77529 1.35178,1.72948 1.49093,2.86259l0.15903,1.29214c0.11927,0.29819 0.2783,0.45722 0.4771,0.45722l2.62404,0c0.8548,0 1.59033,0.31807 2.22646,0.93432c0.63613,0.61626 0.93432,1.35178 0.93432,2.22646c0,0.89456 -0.31807,1.64996 -0.93432,2.28609s-1.37166,0.9542 -2.22646,0.9542l-13.61717,0c-0.89456,0 -1.64996,-0.31807 -2.24633,-0.9542c-0.61626,-0.63613 -0.91444,-1.41142 -0.91444,-2.30598zm8.78656,-12.70274c0.13916,-2.16682 0.97407,-3.9957 2.52465,-5.48663c1.53069,-1.47105 3.39932,-2.22646 5.54627,-2.22646c2.20658,0 4.09509,0.79516 5.64567,2.36561c1.55057,1.57045 2.32585,3.49872 2.32585,5.74506c0,1.39153 -0.33794,2.68368 -1.01383,3.87642c-0.67589,1.19275 -1.59033,2.14695 -2.74332,2.88247c-1.17286,-0.97407 -2.52465,-1.45117 -4.03545,-1.45117c-0.57649,-1.74936 -1.6102,-3.12102 -3.06138,-4.15473c-1.45117,-1.03372 -3.10114,-1.55057 -4.93001,-1.55057l-0.25843,0l-0.00001,0.00002zm6.14264,-17.39421c0,0.53673 0.19879,1.01383 0.57649,1.39153c0.3777,0.3777 0.83492,0.57649 1.37166,0.57649c0.55662,0 1.01383,-0.19879 1.39153,-0.57649c0.3777,-0.3777 0.57649,-0.83492 0.57649,-1.39153l0,-4.65171c0,-0.51686 -0.19879,-0.9542 -0.57649,-1.31202c-0.3777,-0.35783 -0.83492,-0.53673 -1.39153,-0.53673c-0.53673,0 -0.99396,0.17891 -1.37166,0.53673c-0.3777,0.35783 -0.57649,0.79516 -0.57649,1.31202l0,4.65171zm12.56358,30.27586c0,0.53673 0.17891,0.99396 0.53673,1.39153l3.26018,3.22041c0.83492,0.83492 1.76923,0.83492 2.80295,0c0.35783,-0.33794 0.51686,-0.77529 0.51686,-1.35178c0,-0.53673 -0.17891,-0.97407 -0.51686,-1.3319l-3.35957,-3.31981c-0.35783,-0.33794 -0.81504,-0.49697 -1.35178,-0.49697c-0.55662,0 -0.99396,0.17891 -1.35178,0.53673c-0.35783,0.35783 -0.53673,0.81504 -0.53673,1.35178l-0.00001,0.00001zm0,-25.06754c0,0.55662 0.17891,1.03372 0.53673,1.43129c0.35783,0.35783 0.81504,0.53673 1.35178,0.53673c0.53673,0 0.99396,-0.17891 1.35178,-0.53673l3.35957,-3.35957c0.35783,-0.33794 0.51686,-0.77529 0.51686,-1.3319c0,-0.55662 -0.19879,-1.01383 -0.57649,-1.37166s-0.83492,-0.55662 -1.39153,-0.55662c-0.51686,0 -0.97407,0.19879 -1.35178,0.57649l-3.26018,3.24029c-0.35783,0.35783 -0.53673,0.81504 -0.53673,1.37166l0,0.00001zm5.12881,12.60334c0,0.53673 0.17891,0.97407 0.55662,1.3319s0.8548,0.51686 1.43129,0.51686l3.35957,0c0.53673,0 0.99396,-0.17891 1.37166,-0.53673s0.57649,-0.79516 0.57649,-1.31202c0,-0.57649 -0.17891,-1.05359 -0.55662,-1.41142s-0.83492,-0.55662 -1.37166,-0.55662l-3.35957,0c-0.57649,0 -1.05359,0.17891 -1.43129,0.55662c-0.3777,0.33794 -0.57649,0.81504 -0.57649,1.41142l0,-0.00001z" fill="linen"/>
    </g>
    <path d="m6.45997,26.97491c0,0.53673 0.17891,0.97407 0.55662,1.3319s0.8548,0.51686 1.43129,0.51686l3.35957,0c0.53673,0 0.99396,-0.17891 1.37166,-0.53673s0.57649,-0.79516 0.57649,-1.31202c0,-0.57649 -0.17891,-1.05359 -0.55662,-1.41142s-0.83492,-0.55662 -1.37166,-0.55662l-3.37945,0c-0.57649,0 -1.05359,0.17891 -1.43129,0.55662c-0.3777,0.33794 -0.55662,0.81504 -0.55662,1.41142l0.00001,-0.00001zm6.61973,-15.86352c0,0.55662 0.17891,1.01383 0.51686,1.3319l3.20053,3.35957c0.93432,0.71565 1.86863,0.71565 2.80295,0c0.3777,-0.3777 0.55662,-0.83492 0.55662,-1.39153c0,-0.53673 -0.17891,-0.99396 -0.55662,-1.39153l-3.28005,-3.28005c-0.41746,-0.3777 -0.89456,-0.57649 -1.39153,-0.57649c-0.55662,0 -1.01383,0.17891 -1.35178,0.55662c-0.33794,0.3777 -0.49697,0.83492 -0.49697,1.39153l-0.00001,-0.00001zm9.62148,15.44606c0.13916,-2.16682 0.97407,-3.9957 2.52465,-5.48663c1.53069,-1.47105 3.39932,-2.22646 5.54627,-2.22646c2.20658,0 4.09509,0.79516 5.64567,2.36561c1.55057,1.57045 2.32585,3.49872 2.32585,5.74506c0,1.39153 -0.33794,2.68368 -1.01383,3.87642c-0.67589,1.19275 -1.59033,2.14695 -2.74332,2.88247c-1.17286,-0.97407 -2.52465,-1.45117 -4.03545,-1.45117c-0.57649,-1.74936 -1.6102,-3.12102 -3.06138,-4.15473c-1.45117,-1.03372 -3.10114,-1.55057 -4.93001,-1.55057l-0.25843,0l-0.00001,0.00002zm6.14264,-17.39421c0,0.53673 0.19879,1.01383 0.57649,1.39153c0.3777,0.3777 0.83492,0.57649 1.37166,0.57649c0.55662,0 1.01383,-0.19879 1.39153,-0.57649c0.3777,-0.3777 0.57649,-0.83492 0.57649,-1.39153l0,-4.65171c0,-0.51686 -0.19879,-0.9542 -0.57649,-1.31202c-0.3777,-0.35783 -0.83492,-0.53673 -1.39153,-0.53673c-0.53673,0 -0.99396,0.17891 -1.37166,0.53673c-0.3777,0.35783 -0.57649,0.79516 -0.57649,1.31202l0,4.65171zm12.56358,30.27586c0,0.53673 0.17891,0.99396 0.53673,1.39153l3.26018,3.22041c0.83492,0.83492 1.76923,0.83492 2.80295,0c0.35783,-0.33794 0.51686,-0.77529 0.51686,-1.35178c0,-0.53673 -0.17891,-0.97407 -0.51686,-1.3319l-3.35957,-3.31981c-0.35783,-0.33794 -0.81504,-0.49697 -1.35178,-0.49697c-0.55662,0 -0.99396,0.17891 -1.35178,0.53673c-0.35783,0.35783 -0.53673,0.81504 -0.53673,1.35178l-0.00001,0.00001zm0,-25.06754c0,0.55662 0.17891,1.03372 0.53673,1.43129c0.35783,0.35783 0.81504,0.53673 1.35178,0.53673c0.53673,0 0.99396,-0.17891 1.35178,-0.53673l3.35957,-3.35957c0.35783,-0.33794 0.51686,-0.77529 0.51686,-1.3319c0,-0.55662 -0.19879,-1.01383 -0.57649,-1.37166s-0.83492,-0.55662 -1.39153,-0.55662c-0.51686,0 -0.97407,0.19879 -1.35178,0.57649l-3.26018,3.24029c-0.35783,0.35783 -0.53673,0.81504 -0.53673,1.37166l0,0.00001zm5.12881,12.60334c0,0.53673 0.17891,0.97407 0.55662,1.3319s0.8548,0.51686 1.43129,0.51686l3.35957,0c0.53673,0 0.99396,-0.17891 1.37166,-0.53673s0.57649,-0.79516 0.57649,-1.31202c0,-0.57649 -0.17891,-1.05359 -0.55662,-1.41142s-0.83492,-0.55662 -1.37166,-0.55662l-3.35957,0c-0.57649,0 -1.05359,0.17891 -1.43129,0.55662c-0.3777,0.33794 -0.57649,0.81504 -0.57649,1.41142l0,-0.00001z" fill="goldenrod" fill-opacity="0.4"/>

</g>

</svg>
