<svg width="60" height="60" xmlns="http://www.w3.org/2000/svg">
  <defs>
    <filter id="drop_shadow" filterUnits="objectBoundingBox" x="-50%" y="-50%" width="200%" height="200%">
      <feDropShadow dx="0.5" dy="0.5" stdDeviation="2" flood-color="black" flood-opacity="0.8" />
    </filter>
    <filter id="blur_shadow" filterUnits="objectBoundingBox" x="-50%" y="-50%" width="200%" height="200%">
      <feGaussianBlur in="SourceGraphic" stdDeviation="3" />
    </filter>
    <filter id="shadow">
      <feDropShadow dx="0.3" dy="0.6" stdDeviation="0.6" flood-color="black"/>
    </filter>
  <linearGradient id="linearGradient3199">
   <stop id="stop3201" offset="0" stop-color="#ffffff"/>
   <stop id="stop3203" offset="1" stop-opacity="0" stop-color="#ffffff"/>
  </linearGradient>
  <linearGradient xlink:href="#linearGradient3199" id="linearGradient3206" x1="0.35792" y1="0.0564" x2="0.4991" y2="0.96319"/>
  </defs>
 <g>
  <circle cx="30" cy="30" r="20.24999" fill-opacity="0.4" fill="blue"/>
  <path style="filter:url(#blur_shadow)" fill="black" d="m3.86523,30.04642c0,-4.7349 1.18372,-9.12164 3.52796,-13.13702s5.52405,-7.19519 9.53942,-9.53942s8.37891,-3.50475 13.0906,-3.50475c3.52796,0 6.91666,0.69631 10.14289,2.06571s5.98825,3.24944 8.33249,5.57047s4.20106,5.10626 5.57047,8.3557s2.06571,6.61493 2.06571,10.18931c0,3.52796 -0.69631,6.91666 -2.06571,10.14289s-3.24944,6.01146 -5.57047,8.33249s-5.10626,4.17785 -8.33249,5.54726s-6.59172,2.06571 -10.14289,2.06571c-3.55117,0 -6.96308,-0.69631 -10.18931,-2.06571s-6.01146,-3.24944 -8.3557,-5.57047s-4.17785,-5.10626 -5.57047,-8.30928s-2.0425,-6.59172 -2.0425,-10.14289zm5.75615,0c0,5.50084 1.99608,10.28215 6.01146,14.34395c4.01538,4.01538 8.79669,6.01146 14.39037,6.01146c3.66722,0 7.07913,-0.9052 10.18931,-2.73881s5.61689,-4.2939 7.4505,-7.42729s2.76202,-6.52209 2.76202,-10.18931s-0.92841,-7.07913 -2.76202,-10.21252s-4.31711,-5.61689 -7.4505,-7.4505s-6.52209,-2.73881 -10.18931,-2.73881s-7.07913,0.9052 -10.18931,2.73881s-5.61689,4.31711 -7.47371,7.4505s-2.73881,6.5453 -2.73881,10.21252zm18.38254,0l0,-15.45804c0,-0.53384 0.18568,-0.99804 0.55705,-1.36941s0.83557,-0.55705 1.36941,-0.55705c0.51063,0 0.97483,0.18568 1.36941,0.55705s0.58026,0.83557 0.58026,1.36941l0,8.19323l1.74077,-3.01734c0.27852,-0.46421 0.6731,-0.74273 1.20693,-0.88199s1.02125,-0.06963 1.48546,0.20889c0.46421,0.25531 0.74273,0.62668 0.9052,1.16051s0.09284,0.99804 -0.18568,1.46225l-5.31515,9.07522c-0.30173,0.81236 -0.88199,1.23014 -1.76398,1.23014c-0.53384,0 -0.99804,-0.18568 -1.36941,-0.55705s-0.58026,-0.85878 -0.58026,-1.41583z"/>
   <g stroke="midnightblue" stroke-opacity="0.4" stroke-width="0.5" style="filter:url(#drop_shadow);">
  <path fill="blue" d="m28.00392,30.04642l0,-15.45804c0,-0.53384 0.18568,-0.99804 0.55705,-1.36941s0.83557,-0.55705 1.36941,-0.55705c0.51063,0 0.97483,0.18568 1.36941,0.55705s0.58026,0.83557 0.58026,1.36941l0,8.19323l1.74077,-3.01734c0.27852,-0.46421 0.6731,-0.74273 1.20693,-0.88199s1.02125,-0.06963 1.48546,0.20889c0.46421,0.25531 0.74273,0.62668 0.9052,1.16051s0.09284,0.99804 -0.18568,1.46225l-5.31515,9.07522c-0.30173,0.81236 -0.88199,1.23014 -1.76398,1.23014c-0.53384,0 -0.99804,-0.18568 -1.36941,-0.55705s-0.58026,-0.85878 -0.58026,-1.41583l-0.00001,0.00001z"/>
  <path fill="red" d="m30.02266,55.50972zm-1.97101,-25.46441c0,0.49841 0.18124,0.95152 0.54372,1.33666c0.36248,0.38514 0.81559,0.56638 1.33666,0.56638c0.49841,0 0.95152,-0.18124 1.33666,-0.56638c0.38514,-0.38514 0.56638,-0.81559 0.56638,-1.33666l0,-15.08835c0,-0.52107 -0.18124,-0.97417 -0.56638,-1.33666s-0.81559,-0.54372 -1.33666,-0.54372c-0.52107,0 -0.97417,0.18124 -1.33666,0.54372s-0.54372,0.81559 -0.54372,1.33666l0,15.08835z"/>

</g>
  <path d="m46.31259,25.7251c-1.22051,7.14799 -8.77858,9.72413 -16.42312,10.89422c-7.65822,1.17219 -16.54284,0.20237 -18.26605,-8.02008c-1.71947,-8.20461 7.01441,-18.57121 18.47796,-18.57121c11.46355,0 17.42792,8.57133 16.21121,15.69706l0,0l0,0z" stroke-dashoffset="0" stroke-miterlimit="4" stroke-linejoin="round" stroke-linecap="round" stroke-width="0.2" fill="url(#linearGradient3206)" fill-opacity="0.7"/>
  <path stroke="midnightblue" stroke-opacity="0.4" stroke-width="2.5"  fill="mediumaquamarine" d="m4.49027,30.04531c0,-4.62166 1.15541,-8.90348 3.44359,-12.82283s5.39193,-7.0231 9.31128,-9.31128s8.17852,-3.42093 12.77752,-3.42093c3.44359,0 6.75124,0.67966 9.90031,2.01631s5.84504,3.17172 8.13321,5.43724s4.10059,4.98414 5.43724,8.15586s2.01631,6.45672 2.01631,9.94562c0,3.44359 -0.67966,6.75124 -2.01631,9.90031s-3.17172,5.86769 -5.43724,8.13321s-4.98414,4.07793 -8.13321,5.41459s-6.43407,2.01631 -9.90031,2.01631c-3.46624,0 -6.79655,-0.67966 -9.94562,-2.01631s-5.86769,-3.17172 -8.15586,-5.43724s-4.07793,-4.98414 -5.43724,-8.11055s-1.99366,-6.43407 -1.99366,-9.90031l-0.00001,0zm5.61848,0c0,5.36928 1.94835,10.03624 5.86769,14.0009c3.91935,3.91935 8.58631,5.86769 14.04621,5.86769c3.57952,0 6.90983,-0.88355 9.94562,-2.67331s5.48255,-4.19121 7.27231,-7.24966s2.69597,-6.3661 2.69597,-9.94562s-0.90621,-6.90983 -2.69597,-9.96828s-4.21386,-5.48255 -7.27231,-7.27231s-6.3661,-2.67331 -9.94562,-2.67331s-6.90983,0.88355 -9.94562,2.67331s-5.48255,4.21386 -7.29497,7.27231s-2.67331,6.38876 -2.67331,9.96828z"/>
</g>
</svg>


