<svg width="60" height="60" xmlns="http://www.w3.org/2000/svg">


  <defs>
    <filter id="drop_shadow" filterUnits="objectBoundingBox" x="-50%" y="-50%" width="200%" height="200%">
      <feDropShadow dx="0.5" dy="0.5" stdDeviation="2" flood-color="black" flood-opacity="0.8" />
    </filter>
    <filter id="blur_shadow" filterUnits="objectBoundingBox" x="-50%" y="-50%" width="200%" height="200%">
      <feGaussianBlur in="SourceGraphic" stdDeviation="3" />
    </filter>
  </defs>

<g stroke="midnightblue" stroke-opacity="0.4" stroke-width="2.5" style="filter:url(#drop_shadow);">
  <path fill="blue" stroke-width="1" d="m6.941014,30.581799zm1.410667,12.370468c0,-0.499159 0.195323,-0.933211 0.564267,-1.323857c0.347241,-0.347241 0.802995,-0.499159 1.323857,-0.499159l39.52039,0c0.520862,0 0.976616,0.173621 1.34556,0.520862c0.368944,0.347241 0.542564,0.781293 0.542564,1.302155c0,0.520862 -0.195323,0.954913 -0.564267,1.323857s-0.824698,0.564267 -1.323857,0.564267l-39.498688,0c-0.520862,0 -0.954913,-0.195323 -1.323857,-0.564267s-0.58597,-0.802995 -0.58597,-1.323857l0.000001,-0.000001z"/>
  <path fill="yellow" d="m7.444829,41.297475zm3.891602,-17.661885c0,-0.598708 0.184218,-1.08228 0.529626,-1.450715c0.391463,-0.41449 0.875035,-0.598708 1.49677,-0.598708c0.529626,0 0.990171,0.207245 1.381634,0.598708l3.454084,3.454084c0.41449,0.41449 0.621735,0.898062 0.621735,1.450715c0,0.529626 -0.207245,1.013198 -0.621735,1.427688c-0.345408,0.41449 -0.805953,0.621735 -1.381634,0.621735s-1.08228,-0.207245 -1.473743,-0.621735l-3.454084,-3.454084c-0.368436,-0.345408 -0.552654,-0.805953 -0.552654,-1.427688zm6.746978,12.872221c-0.092109,0.368436 0.023027,0.529626 0.345408,0.529626l3.431057,0c0.161191,0 0.322381,-0.138163 0.506599,-0.391463c0.690817,-1.473743 1.704015,-2.625104 3.062621,-3.500139s2.855376,-1.289525 4.513337,-1.289525c1.680988,0 3.200785,0.437517 4.582419,1.289525s2.417859,2.026396 3.108676,3.500139c0.184218,0.2533 0.368436,0.391463 0.529626,0.391463l3.40803,0c0.299354,0 0.41449,-0.184218 0.345408,-0.529626c-0.782926,-2.602077 -2.279696,-4.720582 -4.49031,-6.355515c-2.210614,-1.634933 -4.697555,-2.440886 -7.48385,-2.440886c-2.763268,0 -5.250208,0.805953 -7.437795,2.440886c-2.141532,1.634933 -3.638302,3.753438 -4.421228,6.355515zm9.924736,-14.87559l0,-4.9048c0,-0.575681 0.184218,-1.059253 0.552654,-1.473743c0.368436,-0.41449 0.852007,-0.598708 1.404661,-0.598708c0.575681,0 1.059253,0.207245 1.450715,0.598708c0.391463,0.391463 0.575681,0.898062 0.575681,1.473743l0,4.927827c0,0.598708 -0.184218,1.08228 -0.575681,1.473743c-0.391463,0.391463 -0.875035,0.575681 -1.450715,0.575681c-0.552654,0 -1.036225,-0.207245 -1.404661,-0.598708s-0.552654,-0.898062 -0.552654,-1.473743zm13.171575,5.457453c0,-0.552654 0.184218,-1.036225 0.575681,-1.450715l3.546193,-3.454084c0.368436,-0.41449 0.82898,-0.598708 1.427688,-0.598708c0.552654,0 1.013198,0.184218 1.381634,0.575681s0.529626,0.875035 0.529626,1.473743c0,0.598708 -0.184218,1.08228 -0.529626,1.427688l-3.40803,3.454084c-0.391463,0.391463 -0.82898,0.598708 -1.289525,0.644762c-0.529626,0.046054 -1.013198,-0.138163 -1.49677,-0.552654s-0.736871,-0.944116 -0.736871,-1.519797z"/>
</g>
</svg>

