<svg width="60" height="60" xmlns="http://www.w3.org/2000/svg">

  <defs>
    <filter id="drop_shadow" filterUnits="objectBoundingBox" x="-50%" y="-50%" width="200%" height="200%">
      <feDropShadow dx="0.5" dy="0.5" stdDeviation="2" flood-color="black" flood-opacity="0.8" />
    </filter>
    <filter id="blur_shadow" filterUnits="objectBoundingBox" x="-50%" y="-50%" width="200%" height="200%">
      <feGaussianBlur in="SourceGraphic" stdDeviation="3" />
    </filter>
  </defs>
<g filter="url(#blur_shadow)" >
  <path fill="red" d="m8.067505,32.252708c0,0.360103 0.135038,0.652686 0.382609,0.900256c0.24757,0.24757 0.56266,0.360103 0.900256,0.360103l6.70691,0c0.31509,0 0.607673,-0.090026 0.855244,-0.292583c0.24757,-0.202558 0.382609,-0.450128 0.450128,-0.765218l2.025577,-11.860877l3.646038,29.663447c0.045013,0.31509 0.202558,0.585167 0.427622,0.810231c0.225064,0.202558 0.495141,0.31509 0.810231,0.31509c0.337596,0 0.630179,-0.112532 0.855244,-0.31509s0.382609,-0.472635 0.450128,-0.810231l2.813301,-21.763697l2.340667,6.301794c0.090026,0.24757 0.225064,0.450128 0.450128,0.607673s0.450128,0.225064 0.720205,0.225064l0.112532,0c0.270077,-0.022506 0.517647,-0.112532 0.720205,-0.292583c0.225064,-0.180051 0.360103,-0.405115 0.427622,-0.697699l3.443481,-15.439396l1.597955,29.663447c0.022506,0.31509 0.135038,0.607673 0.337596,0.832737c0.202558,0.225064 0.472635,0.360103 0.810231,0.382609c0.31509,0.022506 0.607673,-0.045013 0.855244,-0.225064c0.24757,-0.180051 0.405115,-0.427622 0.495141,-0.742711l3.713557,-15.619448l6.234275,0c0.360103,0 0.652686,-0.112532 0.900256,-0.360103c0.24757,-0.24757 0.382609,-0.540154 0.382609,-0.900256c0,-0.360103 -0.135038,-0.652686 -0.382609,-0.900256c-0.24757,-0.24757 -0.56266,-0.382609 -0.900256,-0.382609l-7.26957,0c-0.292583,0 -0.56266,0.090026 -0.787724,0.270077s-0.382609,0.405115 -0.450128,0.697699l-1.868032,7.967269l-1.620461,-30.068562c-0.022506,-0.31509 -0.135038,-0.607673 -0.360103,-0.832737c-0.225064,-0.225064 -0.495141,-0.360103 -0.810231,-0.360103c-0.31509,-0.022506 -0.607673,0.045013 -0.87775,0.24757s-0.427622,0.450128 -0.495141,0.765218l-4.501282,20.188249l-2.610743,-7.112025c-0.090026,-0.270077 -0.270077,-0.472635 -0.540154,-0.630179s-0.540154,-0.225064 -0.810231,-0.180051c-0.292583,0.022506 -0.540154,0.157545 -0.742711,0.360103c-0.202558,0.202558 -0.337596,0.472635 -0.382609,0.765218l-2.205628,16.902313l-3.443481,-28.268049c-0.067519,-0.31509 -0.202558,-0.585167 -0.427622,-0.787724c-0.225064,-0.202558 -0.495141,-0.31509 -0.810231,-0.337596c-0.31509,-0.022506 -0.607673,0.067519 -0.855244,0.270077c-0.24757,0.202558 -0.405115,0.450128 -0.450128,0.787724l-3.330948,19.378018l-5.649109,0c-0.360103,0 -0.652686,0.135038 -0.900256,0.382609c-0.24757,0.24757 -0.382609,0.540154 -0.382609,0.900256z"/>
</g>
<g stroke-opacity="0.4" stroke="midnightblue" stroke-width="1.5">
  <path fill="blue" d="m8.067505,32.252708c0,0.360103 0.135038,0.652686 0.382609,0.900256c0.24757,0.24757 0.56266,0.360103 0.900256,0.360103l6.70691,0c0.31509,0 0.607673,-0.090026 0.855244,-0.292583c0.24757,-0.202558 0.382609,-0.450128 0.450128,-0.765218l2.025577,-11.860877l3.646038,29.663447c0.045013,0.31509 0.202558,0.585167 0.427622,0.810231c0.225064,0.202558 0.495141,0.31509 0.810231,0.31509c0.337596,0 0.630179,-0.112532 0.855244,-0.31509s0.382609,-0.472635 0.450128,-0.810231l2.813301,-21.763697l2.340667,6.301794c0.090026,0.24757 0.225064,0.450128 0.450128,0.607673s0.450128,0.225064 0.720205,0.225064l0.112532,0c0.270077,-0.022506 0.517647,-0.112532 0.720205,-0.292583c0.225064,-0.180051 0.360103,-0.405115 0.427622,-0.697699l3.443481,-15.439396l1.597955,29.663447c0.022506,0.31509 0.135038,0.607673 0.337596,0.832737c0.202558,0.225064 0.472635,0.360103 0.810231,0.382609c0.31509,0.022506 0.607673,-0.045013 0.855244,-0.225064c0.24757,-0.180051 0.405115,-0.427622 0.495141,-0.742711l3.713557,-15.619448l6.234275,0c0.360103,0 0.652686,-0.112532 0.900256,-0.360103c0.24757,-0.24757 0.382609,-0.540154 0.382609,-0.900256c0,-0.360103 -0.135038,-0.652686 -0.382609,-0.900256c-0.24757,-0.24757 -0.56266,-0.382609 -0.900256,-0.382609l-7.26957,0c-0.292583,0 -0.56266,0.090026 -0.787724,0.270077s-0.382609,0.405115 -0.450128,0.697699l-1.868032,7.967269l-1.620461,-30.068562c-0.022506,-0.31509 -0.135038,-0.607673 -0.360103,-0.832737c-0.225064,-0.225064 -0.495141,-0.360103 -0.810231,-0.360103c-0.31509,-0.022506 -0.607673,0.045013 -0.87775,0.24757s-0.427622,0.450128 -0.495141,0.765218l-4.501282,20.188249l-2.610743,-7.112025c-0.090026,-0.270077 -0.270077,-0.472635 -0.540154,-0.630179s-0.540154,-0.225064 -0.810231,-0.180051c-0.292583,0.022506 -0.540154,0.157545 -0.742711,0.360103c-0.202558,0.202558 -0.337596,0.472635 -0.382609,0.765218l-2.205628,16.902313l-3.443481,-28.268049c-0.067519,-0.31509 -0.202558,-0.585167 -0.427622,-0.787724c-0.225064,-0.202558 -0.495141,-0.31509 -0.810231,-0.337596c-0.31509,-0.022506 -0.607673,0.067519 -0.855244,0.270077c-0.24757,0.202558 -0.405115,0.450128 -0.450128,0.787724l-3.330948,19.378018l-5.649109,0c-0.360103,0 -0.652686,0.135038 -0.900256,0.382609c-0.24757,0.24757 -0.382609,0.540154 -0.382609,0.900256z"/>
</g>
</svg>
