<svg width="60" height="60" xmlns="http://www.w3.org/2000/svg">

  <defs>
    <filter id="drop_shadow" filterUnits="objectBoundingBox" x="-50%" y="-50%" width="200%" height="200%">
      <feDropShadow dx="0.5" dy="0.5" stdDeviation="2" flood-color="black" flood-opacity="0.8" />
    </filter>
    <filter id="blur_shadow" filterUnits="objectBoundingBox" x="-50%" y="-50%" width="200%" height="200%">
      <feGaussianBlur in="SourceGraphic" stdDeviation="3" />
    </filter>
  </defs>

<circle filter="url(#blur_shadow)" fill-opacity="0.2" fill="palegoldenrod" cy="31.87389" cx="35.09989" r="8.50014"/>
<g stroke="midnightblue" stroke-opacity="0.4" stroke-width="2" style="filter:url(#drop_shadow);">
  <path filter="url(#blur_shadow)" fill-opacity="0.2" fill="paleturquoise" d="m10.44112,26.2973c0,1.44921 0.52836,2.70774 1.54733,3.73745s2.28326,1.56363 3.75512,1.56363l17.51126,0c1.45298,0 2.71726,-0.51485 3.75511,-1.56363c1.03785,-1.04878 1.5662,-2.28823 1.5662,-3.73745c0,-1.44921 -0.50948,-2.70774 -1.5662,-3.73745c-1.03785,-1.0297 -2.28326,-1.56363 -3.75511,-1.56363l-2.62292,0c-0.1887,0 -0.28304,-0.09534 -0.28304,-0.28603l-0.13209,-0.93436c-0.1887,-1.79245 -0.94349,-3.29887 -2.24552,-4.48112s-2.84935,-1.77338 -4.62312,-1.77338c-1.77377,0 -3.3211,0.59113 -4.64199,1.79246c-1.32089,1.18225 -2.05681,2.68867 -2.22665,4.46205l-0.13209,0.80089c0,0.19068 -0.09435,0.28603 -0.30192,0.28603l-0.84914,0.13348c-1.35863,0.11441 -2.49082,0.68647 -3.41544,1.6971c-0.86802,1.01064 -1.33976,2.21196 -1.33976,3.60397l-0.00001,-0.00001l0,0z"/>
 <path d="m7.57497,25.99953c0,-1.88122 0.58662,-3.53994 1.75985,-5.01659s2.64989,-2.42738 4.42998,-2.83195c0.52593,-2.2251 1.65871,-4.04564 3.43879,-5.48184s3.8029,-2.14419 6.08869,-2.14419c2.2251,0 4.20747,0.70799 5.96732,2.10373s2.89263,3.17583 3.39834,5.36047l0.52593,0c2.2251,0 4.12655,0.7889 5.70435,2.34647c1.5778,1.55757 2.3667,3.45902 2.3667,5.68413c0,0.02023 0,0.04046 0,0.08091c0,0.04046 0,0.08091 0,0.12137c1.51712,1.61826 2.26556,3.53994 2.26556,5.76504c0,1.53734 -0.38434,2.95332 -1.15301,4.24792c-0.76867,1.31483 -1.80031,2.34647 -3.09492,3.09492c-1.29461,0.76867 -2.71058,1.13278 -4.22769,1.13278c-1.94191,0 -3.68153,-0.60685 -5.17842,-1.80031s-2.5083,-2.73081 -2.99377,-4.57157l-11.53008,0c-2.16442,-0.10114 -4.00518,-0.9305 -5.50207,-2.48807s-2.26556,-3.43879 -2.26556,-5.60321zm2.75104,0c0,1.41597 0.48548,2.64989 1.47666,3.68153s2.16442,1.59803 3.53994,1.65871l18.18516,0c1.37552,-0.06068 2.56898,-0.60685 3.53994,-1.65871c0.99118,-1.05187 1.47666,-2.26556 1.47666,-3.68153c0,-1.4362 -0.52593,-2.67012 -1.59803,-3.70176c-1.07209,-1.05187 -2.30602,-1.55757 -3.76245,-1.55757l-2.60944,0c-0.18205,0 -0.28319,-0.10114 -0.28319,-0.28319l-0.1416,-0.95073c-0.18205,-1.75985 -0.9305,-3.23651 -2.26556,-4.42998s-2.87241,-1.80031 -4.61203,-1.80031c-1.80031,0 -3.35788,0.58662 -4.67272,1.78008s-2.02282,2.67012 -2.20487,4.42998l-0.12137,0.95073c0,0.18205 -0.10114,0.28319 -0.32365,0.28319l-0.80913,0c-1.35529,0.16183 -2.5083,0.72822 -3.41857,1.73963c-0.9305,0.99118 -1.39575,2.18465 -1.39575,3.53994zm12.54149,18.22561c-0.50571,-0.66753 -0.50571,-1.31483 0,-1.98236l2.28579,-2.32624c0.28319,-0.24274 0.62707,-0.36411 1.05187,-0.36411c0.38434,0 0.68776,0.12137 0.9305,0.36411c0.24274,0.24274 0.36411,0.56639 0.36411,0.95073c0,0.40456 -0.12137,0.72822 -0.36411,0.97095l-2.30602,2.38693c-0.24274,0.24274 -0.58662,0.38434 -0.99118,0.38434c-0.40456,0 -0.72822,-0.1416 -0.97095,-0.38434zm6.85736,-10.15456c0.42479,1.09232 1.13278,1.96214 2.10373,2.62967c0.97095,0.66753 2.04305,1.01141 3.23651,1.01141c1.55757,0 2.89263,-0.56639 3.98496,-1.67894c1.09232,-1.13278 1.63848,-2.48807 1.63848,-4.0861c0,-0.7889 -0.12137,-1.49689 -0.38434,-2.12396c-0.66753,1.23392 -1.61826,2.24533 -2.81172,3.014c-1.21369,0.76867 -2.52853,1.17324 -3.96473,1.23392l-3.8029,0zm3.9445,10.49844c0,-0.38434 0.1416,-0.68776 0.40456,-0.95073c0.26297,-0.24274 0.60685,-0.38434 0.97095,-0.38434c0.36411,0 0.70799,0.1416 1.01141,0.42479c0.24274,0.24274 0.38434,0.54616 0.38434,0.91027l0,3.31743c0,0.38434 -0.1416,0.70799 -0.40456,0.99118c-0.26297,0.28319 -0.60685,0.42479 -0.97095,0.42479s-0.70799,-0.1416 -0.97095,-0.42479c-0.26297,-0.28319 -0.40456,-0.60685 -0.40456,-0.99118l0,-3.31743l-0.02023,0zm8.92064,-3.70176c0,-0.36411 0.12137,-0.66753 0.38434,-0.9305c0.26297,-0.24274 0.58662,-0.38434 0.95073,-0.38434c0.38434,0 0.70799,0.12137 0.95073,0.36411l2.38693,2.32624c0.26297,0.28319 0.40456,0.60685 0.40456,0.97095c0,0.38434 -0.1416,0.70799 -0.40456,0.97095c-0.26297,0.26297 -0.60685,0.40456 -0.99118,0.40456c-0.42479,0 -0.74844,-0.12137 -1.01141,-0.38434l-2.28579,-2.38693c-0.26297,-0.28319 -0.38434,-0.60685 -0.38434,-0.95073zm0,-17.82105c0,-0.38434 0.12137,-0.70799 0.38434,-0.95073l2.28579,-2.38693c0.28319,-0.24274 0.60685,-0.38434 1.01141,-0.38434c0.38434,0 0.70799,0.12137 1.01141,0.38434c0.26297,0.30342 0.40456,0.6473 0.40456,1.03164c0,0.36411 -0.1416,0.66753 -0.40456,0.97095l-2.38693,2.32624c-0.24274,0.24274 -0.56639,0.38434 -0.95073,0.38434s-0.70799,-0.12137 -0.95073,-0.38434c-0.28319,-0.28319 -0.40456,-0.60685 -0.40456,-0.99118zm3.68153,8.90041c0,-0.38434 0.12137,-0.70799 0.38434,-0.97095c0.24274,-0.26297 0.56639,-0.40456 0.95073,-0.40456l3.27697,0c0.38434,0 0.72822,0.1416 1.01141,0.40456s0.42479,0.58662 0.42479,0.97095c0,0.38434 -0.1416,0.72822 -0.42479,0.99118c-0.28319,0.26297 -0.60685,0.40456 -1.01141,0.40456l-3.27697,0c-0.38434,0 -0.68776,-0.1416 -0.95073,-0.40456c-0.26297,-0.26297 -0.38434,-0.58662 -0.38434,-0.99118z" fill="linen"/>
</g>
  <path  fill="goldenrod" fill-opacity="0.4" d="m22.8675,44.22514c-0.50571,-0.66753 -0.50571,-1.31483 0,-1.98236l2.28579,-2.32624c0.28319,-0.24274 0.62707,-0.36411 1.05187,-0.36411c0.38434,0 0.68776,0.12137 0.9305,0.36411c0.24274,0.24274 0.36411,0.56639 0.36411,0.95073c0,0.40456 -0.12137,0.72822 -0.36411,0.97095l-2.30602,2.38693c-0.24274,0.24274 -0.58662,0.38434 -0.99118,0.38434c-0.40456,0 -0.72822,-0.1416 -0.97095,-0.38434l-0.00001,-0.00001zm6.85736,-10.15456c0.42479,1.09232 1.13278,1.96214 2.10373,2.62967c0.97095,0.66753 2.04305,1.01141 3.23651,1.01141c1.55757,0 2.89263,-0.56639 3.98496,-1.67894c1.09232,-1.13278 1.63848,-2.48807 1.63848,-4.0861c0,-0.7889 -0.12137,-1.49689 -0.38434,-2.12396c-0.66753,1.23392 -1.61826,2.24533 -2.81172,3.014c-1.21369,0.76867 -2.52853,1.17324 -3.96473,1.23392l-3.8029,0l0.00001,0zm3.9445,10.49844c0,-0.38434 0.1416,-0.68776 0.40456,-0.95073c0.26297,-0.24274 0.60685,-0.38434 0.97095,-0.38434c0.36411,0 0.70799,0.1416 1.01141,0.42479c0.24274,0.24274 0.38434,0.54616 0.38434,0.91027l0,3.31743c0,0.38434 -0.1416,0.70799 -0.40456,0.99118c-0.26297,0.28319 -0.60685,0.42479 -0.97095,0.42479s-0.70799,-0.1416 -0.97095,-0.42479c-0.26297,-0.28319 -0.40456,-0.60685 -0.40456,-0.99118l0,-3.31743l-0.02023,0l-0.00001,0.00001zm8.92064,-3.70176c0,-0.36411 0.12137,-0.66753 0.38434,-0.9305c0.26297,-0.24274 0.58662,-0.38434 0.95073,-0.38434c0.38434,0 0.70799,0.12137 0.95073,0.36411l2.38693,2.32624c0.26297,0.28319 0.40456,0.60685 0.40456,0.97095c0,0.38434 -0.1416,0.70799 -0.40456,0.97095c-0.26297,0.26297 -0.60685,0.40456 -0.99118,0.40456c-0.42479,0 -0.74844,-0.12137 -1.01141,-0.38434l-2.28579,-2.38693c-0.26297,-0.28319 -0.38434,-0.60685 -0.38434,-0.95073l-0.00001,0.00003zm0,-17.82105c0,-0.38434 0.12137,-0.70799 0.38434,-0.95073l2.28579,-2.38693c0.28319,-0.24274 0.60685,-0.38434 1.01141,-0.38434c0.38434,0 0.70799,0.12137 1.01141,0.38434c0.26297,0.30342 0.40456,0.6473 0.40456,1.03164c0,0.36411 -0.1416,0.66753 -0.40456,0.97095l-2.38693,2.32624c-0.24274,0.24274 -0.56639,0.38434 -0.95073,0.38434s-0.70799,-0.12137 -0.95073,-0.38434c-0.28319,-0.28319 -0.40456,-0.60685 -0.40456,-0.99118l0,0.00001zm3.68153,8.90041c0,-0.38434 0.12137,-0.70799 0.38434,-0.97095c0.24274,-0.26297 0.56639,-0.40456 0.95073,-0.40456l3.27697,0c0.38434,0 0.72822,0.1416 1.01141,0.40456s0.42479,0.58662 0.42479,0.97095c0,0.38434 -0.1416,0.72822 -0.42479,0.99118c-0.28319,0.26297 -0.60685,0.40456 -1.01141,0.40456l-3.27697,0c-0.38434,0 -0.68776,-0.1416 -0.95073,-0.40456c-0.26297,-0.26297 -0.38434,-0.58662 -0.38434,-0.99118z" id="svg_2" stroke="null"/>

</svg>
