<svg width="60" height="60" xmlns="http://www.w3.org/2000/svg">

  <defs>
    <filter id="drop_shadow" filterUnits="objectBoundingBox" x="-50%" y="-50%" width="200%" height="200%">
      <feDropShadow dx="0.5" dy="0.5" stdDeviation="2" flood-color="black" flood-opacity="0.8" />
    </filter>
    <filter id="blur_shadow" filterUnits="objectBoundingBox" x="-50%" y="-50%" width="200%" height="200%">
      <feGaussianBlur in="SourceGraphic" stdDeviation="3" />
    </filter>
  </defs>
<g fill="black" style="filter:url(#blur_shadow);">
    <path d="m10.88992,30.99087c0,0.17824 0.09902,0.25745 0.29706,0.25745l2.83199,0c0.11883,0 0.25745,-0.09902 0.39608,-0.31687c0.4753,-1.02981 1.16844,-1.86159 2.09923,-2.51512c0.93079,-0.65353 1.96061,-1.02981 3.06963,-1.10903l1.08923,-0.13863c0.21785,0 0.33667,-0.11883 0.33667,-0.35647l0.13863,-0.99021c0.21785,-2.13884 1.10903,-3.92121 2.71316,-5.34711c1.60413,-1.42589 3.48552,-2.13884 5.64416,-2.13884c2.13884,0 4.00042,0.71295 5.60456,2.11904c1.58433,1.40609 2.49532,3.18846 2.71316,5.3075l0.15843,1.12883c0,0.21785 0.13863,0.33667 0.39608,0.33667l3.14885,0c1.26746,0 2.43591,0.33667 3.48552,1.02981s1.82198,1.58433 2.33689,2.71316c0.13863,0.21785 0.27726,0.31687 0.41589,0.31687l2.83199,0c0.23765,0 0.33667,-0.13863 0.27726,-0.45549c-0.57432,-2.02002 -1.74276,-3.68357 -3.44591,-4.97083c-1.72296,-1.28727 -3.68357,-1.921 -5.88182,-1.921l-0.63373,0c-0.65353,-2.63395 -2.03982,-4.79259 -4.15886,-6.47594s-4.51533,-2.51512 -7.2285,-2.51512c-2.77257,0 -5.22829,0.87138 -7.38693,2.61414s-3.52513,3.96082 -4.13906,6.65418c-1.68335,0.39608 -3.16865,1.18825 -4.43612,2.39629c-1.26746,1.20805 -2.15865,2.63395 -2.65374,4.31729l0,-0.07921c-0.01981,0 -0.01981,0.05941 -0.01981,0.13863l0.00004,0z"/>
    <path d="m14.04999,48.2695c0,-0.4753 0.17824,-0.85157 0.51491,-1.16844c0.29706,-0.29706 0.69315,-0.45549 1.18825,-0.45549l36.99406,0c0.4753,0 0.87138,0.15843 1.18825,0.45549c0.33667,0.31687 0.4951,0.69315 0.4951,1.14864c0,0.4753 -0.15843,0.87138 -0.4951,1.20805c-0.33667,0.33667 -0.73275,0.4951 -1.18825,0.4951l-36.99406,0c-0.45549,0 -0.85157,-0.17824 -1.18825,-0.51491c-0.33667,-0.29706 -0.51491,-0.71295 -0.51491,-1.16844l0,-0.00001z"/>
    <path d="m5.24999,42.14231c0,-0.4753 0.15843,-0.89119 0.4951,-1.20805c0.33667,-0.31687 0.75255,-0.4753 1.24766,-0.4753l36.97425,0c0.4951,0 0.89119,0.15843 1.20805,0.4753c0.31687,0.31687 0.4753,0.71295 0.4753,1.20805c0,0.45549 -0.15843,0.85157 -0.4951,1.14864c-0.33667,0.31687 -0.73275,0.45549 -1.18825,0.45549l-36.97425,0c-0.4951,0 -0.91099,-0.15843 -1.24766,-0.45549c-0.33667,-0.31687 -0.4951,-0.69315 -0.4951,-1.14864l-0.00001,0z"/>
    <path d="m10.43863,35.91864c0,-0.4753 0.17824,-0.87138 0.51491,-1.18825c0.29706,-0.29706 0.69315,-0.45549 1.16844,-0.45549l36.97425,0c0.45549,0 0.83177,0.15843 1.14864,0.4753c0.31687,0.31687 0.45549,0.69315 0.45549,1.16844c0,0.4753 -0.15843,0.87138 -0.45549,1.18825c-0.31687,0.33667 -0.69315,0.4951 -1.14864,0.4951l-36.97425,0c-0.4753,0 -0.87138,-0.15843 -1.18825,-0.4951c-0.33667,-0.33667 -0.4951,-0.73275 -0.4951,-1.18825z"/>
   </g>
   <g stroke="midnightblue" stroke-opacity="0.2">
    <path stroke="midnightblue" d="m10.88992,30.99087c0,0.17824 0.09902,0.25745 0.29706,0.25745l2.83199,0c0.11883,0 0.25745,-0.09902 0.39608,-0.31687c0.4753,-1.02981 1.16844,-1.86159 2.09923,-2.51512c0.93079,-0.65353 1.96061,-1.02981 3.06963,-1.10903l1.08923,-0.13863c0.21785,0 0.33667,-0.11883 0.33667,-0.35647l0.13863,-0.99021c0.21785,-2.13884 1.10903,-3.92121 2.71316,-5.34711c1.60413,-1.42589 3.48552,-2.13884 5.64416,-2.13884c2.13884,0 4.00042,0.71295 5.60456,2.11904c1.58433,1.40609 2.49532,3.18846 2.71316,5.3075l0.15843,1.12883c0,0.21785 0.13863,0.33667 0.39608,0.33667l3.14885,0c1.26746,0 2.43591,0.33667 3.48552,1.02981s1.82198,1.58433 2.33689,2.71316c0.13863,0.21785 0.27726,0.31687 0.41589,0.31687l2.83199,0c0.23765,0 0.33667,-0.13863 0.27726,-0.45549c-0.57432,-2.02002 -1.74276,-3.68357 -3.44591,-4.97083c-1.72296,-1.28727 -3.68357,-1.921 -5.88182,-1.921l-0.63373,0c-0.65353,-2.63395 -2.03982,-4.79259 -4.15886,-6.47594s-4.51533,-2.51512 -7.2285,-2.51512c-2.77257,0 -5.22829,0.87138 -7.38693,2.61414s-3.52513,3.96082 -4.13906,6.65418c-1.68335,0.39608 -3.16865,1.18825 -4.43612,2.39629c-1.26746,1.20805 -2.15865,2.63395 -2.65374,4.31729l0,-0.07921c-0.01981,0 -0.01981,0.05941 -0.01981,0.13863l0.00004,0z" stroke-width="2.5" stroke-opacity="0.4" fill="linen"/>
    <path stroke="midnightblue" id="svg_10" d="m14.04999,48.2695c0,-0.4753 0.17824,-0.85157 0.51491,-1.16844c0.29706,-0.29706 0.69315,-0.45549 1.18825,-0.45549l36.99406,0c0.4753,0 0.87138,0.15843 1.18825,0.45549c0.33667,0.31687 0.4951,0.69315 0.4951,1.14864c0,0.4753 -0.15843,0.87138 -0.4951,1.20805c-0.33667,0.33667 -0.73275,0.4951 -1.18825,0.4951l-36.99406,0c-0.45549,0 -0.85157,-0.17824 -1.18825,-0.51491c-0.33667,-0.29706 -0.51491,-0.71295 -0.51491,-1.16844l0,-0.00001z" fill="lightgrey" stroke-width="1.5" stroke-opacity="0.2"/>
    <path stroke="midnightblue" id="svg_11" d="m5.24999,42.14231c0,-0.4753 0.15843,-0.89119 0.4951,-1.20805c0.33667,-0.31687 0.75255,-0.4753 1.24766,-0.4753l36.97425,0c0.4951,0 0.89119,0.15843 1.20805,0.4753c0.31687,0.31687 0.4753,0.71295 0.4753,1.20805c0,0.45549 -0.15843,0.85157 -0.4951,1.14864c-0.33667,0.31687 -0.73275,0.45549 -1.18825,0.45549l-36.97425,0c-0.4951,0 -0.91099,-0.15843 -1.24766,-0.45549c-0.33667,-0.31687 -0.4951,-0.69315 -0.4951,-1.14864l-0.00001,0z" fill="lightsteelblue" stroke-width="1.5" stroke-opacity="0.2"/>
    <path stroke="midnightblue" id="svg_12" d="m10.43863,35.91864c0,-0.4753 0.17824,-0.87138 0.51491,-1.18825c0.29706,-0.29706 0.69315,-0.45549 1.16844,-0.45549l36.97425,0c0.45549,0 0.83177,0.15843 1.14864,0.4753c0.31687,0.31687 0.45549,0.69315 0.45549,1.16844c0,0.4753 -0.15843,0.87138 -0.45549,1.18825c-0.31687,0.33667 -0.69315,0.4951 -1.14864,0.4951l-36.97425,0c-0.4753,0 -0.87138,-0.15843 -1.18825,-0.4951c-0.33667,-0.33667 -0.4951,-0.73275 -0.4951,-1.18825z" fill="gray" stroke-width="1.5" stroke-opacity="0.2"/>
</g>


</svg>
