<svg width="60" height="60" xmlns="http://www.w3.org/2000/svg">

  <defs>
    <filter id="drop_shadow" filterUnits="objectBoundingBox" x="-50%" y="-50%" width="200%" height="200%">
      <feDropShadow dx="0.5" dy="0.5" stdDeviation="2" flood-color="black" flood-opacity="0.8" />
    </filter>
    <filter id="blur_shadow" filterUnits="objectBoundingBox" x="-50%" y="-50%" width="200%" height="200%">
      <feGaussianBlur in="SourceGraphic" stdDeviation="3" />
    </filter>
    <filter id="shadow">
      <feDropShadow dx="0.3" dy="0.6" stdDeviation="0.6" flood-color="black"/>
    </filter>
  </defs>

<g fill="black" style="filter:url(#blur_shadow)">
  <path d="m5.98,42.03078c0,0.45952 0.17981,0.85911 0.53944,1.19875c0.33965,0.33965 0.73923,0.49948 1.21873,0.49948l11.46806,0c0.51946,0 0.97898,0.19979 1.37856,0.5794c0.39958,0.3796 0.59938,0.83913 0.59938,1.35859c0,0.53944 -0.19979,0.99896 -0.59938,1.37856s-0.85911,0.5794 -1.37856,0.5794c-0.51946,0 -0.959,-0.19979 -1.35859,-0.59938c-0.35963,-0.31967 -0.75921,-0.4795 -1.21873,-0.4795c-0.4795,0 -0.87908,0.15983 -1.19875,0.4795c-0.31967,0.31967 -0.4795,0.71925 -0.4795,1.19875c0,0.43954 0.15983,0.83913 0.4795,1.19875c1.03892,1.0589 2.31759,1.57836 3.77607,1.57836s2.73715,-0.51946 3.77607,-1.55838c1.03892,-1.03892 1.55838,-2.29761 1.55838,-3.77607c0,-1.47846 -0.51946,-2.73715 -1.55838,-3.77607s-2.29761,-1.57836 -3.77607,-1.57836l-11.46806,0c-0.4795,0 -0.87908,0.17981 -1.23871,0.51946c-0.33965,0.33965 -0.51946,0.73923 -0.51946,1.19875zm0,-6.03372c0,0.43954 0.17981,0.81915 0.53944,1.15879c0.33965,0.31967 0.75921,0.4795 1.21873,0.4795l21.67743,0c1.47846,0 2.73715,-0.51946 3.77607,-1.55838c1.03892,-1.03892 1.55838,-2.29761 1.55838,-3.75609c0,-1.47846 -0.51946,-2.71717 -1.55838,-3.75609c-1.03892,-1.03892 -2.29761,-1.5384 -3.77607,-1.5384c-1.51842,0 -2.77711,0.49948 -3.77607,1.51842c-0.29969,0.31967 -0.45952,0.71925 -0.45952,1.21873c0,0.49948 0.15983,0.89906 0.45952,1.19875c0.29969,0.29969 0.69927,0.45952 1.17877,0.45952s0.87908,-0.13985 1.23871,-0.45952c0.3796,-0.3796 0.83913,-0.55942 1.35859,-0.55942c0.51946,0 0.959,0.17981 1.33861,0.55942c0.3796,0.3796 0.5794,0.83913 0.5794,1.35859c0,0.51946 -0.19979,0.97898 -0.5794,1.35859c-0.3796,0.3796 -0.83913,0.5794 -1.33861,0.5794l-21.67743,0c-0.4795,0 -0.87908,0.17981 -1.23871,0.51946c-0.33965,0.35963 -0.51946,0.75921 -0.51946,1.21873zm5.03476,-4.69511c0,0.17981 0.0999,0.25973 0.31967,0.25973l2.877,0c0.15983,0 0.29969,-0.0999 0.43954,-0.29969c0.43954,-1.07888 1.13881,-1.97794 2.09782,-2.69719c0.93902,-0.69927 1.99792,-1.09886 3.15671,-1.19875l1.03892,-0.13985c0.23975,0 0.3796,-0.11988 0.3796,-0.33965l0.15983,-1.03892c0.21977,-2.15775 1.13881,-3.97586 2.75713,-5.41436c1.61831,-1.45848 3.53632,-2.17773 5.71405,-2.17773s4.09573,0.71925 5.69407,2.17773c1.61831,1.4385 2.53736,3.25661 2.75713,5.43434l0.13985,1.15879c0,0.23975 0.11988,0.35963 0.3796,0.35963l3.23663,0c1.81811,0 3.3565,0.63933 4.63517,1.89802c1.27867,1.25869 1.918,2.77711 1.918,4.55526c0,1.77815 -0.63933,3.29657 -1.918,4.57524c-1.27867,1.27867 -2.81707,1.918 -4.61519,1.918l-13.80562,0c-0.21977,0 -0.33965,0.11988 -0.33965,0.35963l0,2.73715c0,0.21977 0.11988,0.33965 0.33965,0.33965l13.80562,0c1.77815,0 3.43642,-0.43954 4.95484,-1.33861s2.71717,-2.09782 3.59625,-3.61623s1.33861,-3.17669 1.33861,-4.95484c0,-1.75817 -0.45952,-3.41644 -1.35859,-4.95484c1.45848,-1.41852 2.45744,-3.13673 3.01686,-5.15463l0.23975,-1.37856c0.03996,-0.03996 0.05994,-0.07992 0.05994,-0.13985c0,-0.07992 -0.0999,-0.19979 -0.27971,-0.31967l-1.19875,-0.41956c-1.67825,-0.51946 -2.95692,-1.41852 -3.83601,-2.71717c-0.87908,-1.29865 -1.31863,-2.63725 -1.31863,-4.0358c0,-0.4795 0.05994,-1.01894 0.17981,-1.57836l0.25973,-1.23871c0.03996,-0.19979 -0.03996,-0.35963 -0.25973,-0.43954l-1.59834,-0.4795c-0.87908,-0.21977 -1.69823,-0.31967 -2.4974,-0.31967c-0.73923,0 -1.47846,0.07992 -2.23767,0.25973c-0.75921,0.17981 -1.5384,0.43954 -2.35754,0.81915c-0.79917,0.35963 -1.59834,0.89906 -2.35754,1.59834c-0.75921,0.69927 -1.4385,1.49844 -1.99792,2.43746c-1.41852,-0.59938 -2.95692,-0.89906 -4.63517,-0.89906c-2.81707,0 -5.31447,0.87908 -7.4922,2.61727s-3.53632,3.97586 -4.13569,6.69303c-1.71821,0.39958 -3.21665,1.21873 -4.53528,2.45744c-1.31863,1.23871 -2.21769,2.69719 -2.71717,4.39542l0,0.05994c0.01998,0.03996 0,0.0999 0,0.17981zm26.43247,-13.76566c0.61936,-1.09886 1.47846,-1.93798 2.57732,-2.51738c1.09886,-0.5794 2.23767,-0.87908 3.41644,-0.87908c0.27971,0 0.4795,0 0.61936,0.01998c-0.01998,0.17981 -0.03996,0.41956 -0.03996,0.71925c0,1.87804 0.51946,3.69615 1.57836,5.41436c1.03892,1.71821 2.4974,3.01686 4.33549,3.87596c-0.31967,0.75921 -0.81915,1.4385 -1.49844,2.05786c-1.77815,-1.51842 -3.87596,-2.27763 -6.31343,-2.27763l-0.65931,0c-0.51946,-2.51738 -1.85807,-4.65515 -4.01582,-6.41332z"/>
</g>

<g stroke-width="2.5" stroke-opacity="0.4" stroke="midnightblue">

  <path id="moonfillback" stroke-width="0.1" fill="paleturquoise"  fill-opacity="0.2" style="filter:url(#blur_shadow)" d="m41.95669,27.15153zm-4.53863,-9.71987c0.62256,-1.1447 1.50618,-2.02832 2.61072,-2.6308c1.10453,-0.60247 2.2894,-0.90371 3.53451,-0.88363c0.22091,0 0.40165,0.02008 0.50206,0.04016l0,0.62256c0,1.96808 0.52214,3.79558 1.56643,5.52267c1.04429,1.72709 2.5103,3.03245 4.35789,3.91607c-0.38157,0.88363 -0.88363,1.58651 -1.50618,2.14882c-1.76725,-1.58651 -3.93616,-2.36973 -6.52679,-2.36973l-0.64264,0c-0.52214,-2.5103 -1.80742,-4.63904 -3.89599,-6.36613l-0.00001,0.00001z"/>

  <path id="cloudfillback" stroke-width="0" filter="url(#blur_shadow)" fill="paleturquoise" fill-opacity="0.3" d="m13.55767,33.60888c0,1.81002 0.66685,3.38188 1.95292,4.66796s2.88175,1.95292 4.73941,1.95292l22.10135,0c1.83385,0 3.42952,-0.64303 4.73941,-1.95292c1.30989,-1.30989 1.97674,-2.85793 1.97674,-4.66796c0,-1.81002 -0.64303,-3.38188 -1.97674,-4.66796c-1.30989,-1.28607 -2.88175,-1.95292 -4.73941,-1.95292l-3.31044,0c-0.23816,0 -0.35724,-0.11908 -0.35724,-0.35724l-0.16671,-1.16699c-0.23816,-2.23872 -1.19081,-4.1202 -2.83411,-5.59679s-3.59624,-2.2149 -5.83495,-2.2149c-2.23872,0 -4.19163,0.7383 -5.85877,2.23872c-1.66713,1.4766 -2.59596,3.35807 -2.8103,5.57298l-0.16671,1.00028c0,0.23816 -0.11908,0.35724 -0.38106,0.35724l-1.07172,0.16671c-1.71476,0.14289 -3.14373,0.85738 -4.31071,2.11963c-1.09554,1.26226 -1.69095,2.76268 -1.69095,4.50125l-0.00001,-0.00001l-0.00001,0l0.00001,0z"/>
  <path id="cloudmoon" fill="linen" d="m6.51944,43.22953zm4.49532,-11.92758c0,0.17981 0.0999,0.25973 0.31967,0.25973l2.877,0c0.15983,0 0.29969,-0.0999 0.43954,-0.29969c0.43954,-1.07888 1.13881,-1.97794 2.09782,-2.69719c0.93902,-0.69927 1.99792,-1.09886 3.15671,-1.19875l1.03892,-0.13985c0.23975,0 0.3796,-0.11988 0.3796,-0.33965l0.15983,-1.03892c0.21977,-2.15775 1.13881,-3.97586 2.75713,-5.41436c1.61831,-1.45848 3.53632,-2.17773 5.71405,-2.17773s4.09573,0.71925 5.69407,2.17773c1.61831,1.4385 2.53736,3.25661 2.75713,5.43434l0.13985,1.15879c0,0.23975 0.11988,0.35963 0.3796,0.35963l3.23663,0c1.81811,0 3.3565,0.63933 4.63517,1.89802c1.27867,1.25869 1.918,2.77711 1.918,4.55526c0,1.77815 -0.63933,3.29657 -1.918,4.57524c-1.27867,1.27867 -2.81707,1.918 -4.61519,1.918l-13.80562,0c-0.21977,0 -0.33965,0.11988 -0.33965,0.35963l0,2.73715c0,0.21977 0.11988,0.33965 0.33965,0.33965l13.80562,0c1.77815,0 3.43642,-0.43954 4.95484,-1.33861s2.71717,-2.09782 3.59625,-3.61623s1.33861,-3.17669 1.33861,-4.95484c0,-1.75817 -0.45952,-3.41644 -1.35859,-4.95484c1.45848,-1.41852 2.45744,-3.13673 3.01686,-5.15463l0.23975,-1.37856c0.03996,-0.03996 0.05994,-0.07992 0.05994,-0.13985c0,-0.07992 -0.0999,-0.19979 -0.27971,-0.31967l-1.19875,-0.41956c-1.67825,-0.51946 -2.95692,-1.41852 -3.83601,-2.71717c-0.87908,-1.29865 -1.31863,-2.63725 -1.31863,-4.0358c0,-0.4795 0.05994,-1.01894 0.17981,-1.57836l0.25973,-1.23871c0.03996,-0.19979 -0.03996,-0.35963 -0.25973,-0.43954l-1.59834,-0.4795c-0.87908,-0.21977 -1.69823,-0.31967 -2.4974,-0.31967c-0.73923,0 -1.47846,0.07992 -2.23767,0.25973c-0.75921,0.17981 -1.5384,0.43954 -2.35754,0.81915c-0.79917,0.35963 -1.59834,0.89906 -2.35754,1.59834c-0.75921,0.69927 -1.4385,1.49844 -1.99792,2.43746c-1.41852,-0.59938 -2.95692,-0.89906 -4.63517,-0.89906c-2.81707,0 -5.31447,0.87908 -7.4922,2.61727s-3.53632,3.97586 -4.13569,6.69303c-1.71821,0.39958 -3.21665,1.21873 -4.53528,2.45744c-1.31863,1.23871 -2.21769,2.69719 -2.71717,4.39542l0,0.05994c0.01998,0.03996 0,0.0999 0,0.17981l0.00002,-0.00002zm26.43247,-13.76566c0.61936,-1.09886 1.47846,-1.93798 2.57732,-2.51738c1.09886,-0.5794 2.23767,-0.87908 3.41644,-0.87908c0.27971,0 0.4795,0 0.61936,0.01998c-0.01998,0.17981 -0.03996,0.41956 -0.03996,0.71925c0,1.87804 0.51946,3.69615 1.57836,5.41436c1.03892,1.71821 2.4974,3.01686 4.33549,3.87596c-0.31967,0.75921 -0.81915,1.4385 -1.49844,2.05786c-1.77815,-1.51842 -3.87596,-2.27763 -6.31343,-2.27763l-0.65931,0c-0.51946,-2.51738 -1.85807,-4.65515 -4.01582,-6.41332l-0.00001,0z"/>

  <path id="wind" fill="lightgray" d="m5.98,42.03078c0,0.45952 0.17981,0.85911 0.53944,1.19875c0.33965,0.33965 0.73923,0.49948 1.21873,0.49948l11.46806,0c0.51946,0 0.97898,0.19979 1.37856,0.5794c0.39958,0.3796 0.59938,0.83913 0.59938,1.35859c0,0.53944 -0.19979,0.99896 -0.59938,1.37856s-0.85911,0.5794 -1.37856,0.5794c-0.51946,0 -0.959,-0.19979 -1.35859,-0.59938c-0.35963,-0.31967 -0.75921,-0.4795 -1.21873,-0.4795c-0.4795,0 -0.87908,0.15983 -1.19875,0.4795c-0.31967,0.31967 -0.4795,0.71925 -0.4795,1.19875c0,0.43954 0.15983,0.83913 0.4795,1.19875c1.03892,1.0589 2.31759,1.57836 3.77607,1.57836s2.73715,-0.51946 3.77607,-1.55838c1.03892,-1.03892 1.55838,-2.29761 1.55838,-3.77607c0,-1.47846 -0.51946,-2.73715 -1.55838,-3.77607s-2.29761,-1.57836 -3.77607,-1.57836l-11.46806,0c-0.4795,0 -0.87908,0.17981 -1.23871,0.51946c-0.33965,0.33965 -0.51946,0.73923 -0.51946,1.19875l0,0.00001zm0,-6.03372c0,0.43954 0.17981,0.81915 0.53944,1.15879c0.33965,0.31967 0.75921,0.4795 1.21873,0.4795l21.67743,0c1.47846,0 2.73715,-0.51946 3.77607,-1.55838c1.03892,-1.03892 1.55838,-2.29761 1.55838,-3.75609c0,-1.47846 -0.51946,-2.71717 -1.55838,-3.75609c-1.03892,-1.03892 -2.29761,-1.5384 -3.77607,-1.5384c-1.51842,0 -2.77711,0.49948 -3.77607,1.51842c-0.29969,0.31967 -0.45952,0.71925 -0.45952,1.21873c0,0.49948 0.15983,0.89906 0.45952,1.19875c0.29969,0.29969 0.69927,0.45952 1.17877,0.45952s0.87908,-0.13985 1.23871,-0.45952c0.3796,-0.3796 0.83913,-0.55942 1.35859,-0.55942c0.51946,0 0.959,0.17981 1.33861,0.55942c0.3796,0.3796 0.5794,0.83913 0.5794,1.35859c0,0.51946 -0.19979,0.97898 -0.5794,1.35859c-0.3796,0.3796 -0.83913,0.5794 -1.33861,0.5794l-21.67743,0c-0.4795,0 -0.87908,0.17981 -1.23871,0.51946c-0.33965,0.35963 -0.51946,0.75921 -0.51946,1.21873z"/>

</g>

  <path id="moonfill" stroke-width="0" fill="paleturquoise"  fill-opacity="0.5" d="m41.95669,27.15153zm-4.53863,-9.71987c0.62256,-1.1447 1.50618,-2.02832 2.61072,-2.6308c1.10453,-0.60247 2.2894,-0.90371 3.53451,-0.88363c0.22091,0 0.40165,0.02008 0.50206,0.04016l0,0.62256c0,1.96808 0.52214,3.79558 1.56643,5.52267c1.04429,1.72709 2.5103,3.03245 4.35789,3.91607c-0.38157,0.88363 -0.88363,1.58651 -1.50618,2.14882c-1.76725,-1.58651 -3.93616,-2.36973 -6.52679,-2.36973l-0.64264,0c-0.52214,-2.5103 -1.80742,-4.63904 -3.89599,-6.36613l-0.00001,0.00001z"/>


</svg>


