<svg width="60" height="60" xmlns="http://www.w3.org/2000/svg">

  <defs>
    <filter id="drop_shadow" filterUnits="objectBoundingBox" x="-50%" y="-50%" width="200%" height="200%">
      <feDropShadow dx="0.5" dy="0.5" stdDeviation="2" flood-color="black" flood-opacity="0.8" />
    </filter>
    <filter id="blur_shadow" filterUnits="objectBoundingBox" x="-50%" y="-50%" width="200%" height="200%">
      <feGaussianBlur in="SourceGraphic" stdDeviation="3" />
    </filter>
  </defs>

<circle filter="url(#blur_shadow)" fill-opacity="0.2" r="10" cx="35.099604" cy="25.249752" fill="palegoldenrod"/>
<g stroke="midnightblue" stroke-opacity="0.4" style="filter:url(#drop_shadow);">
   <path filter="url(#blur_shadow)"  d="m4.941199,35.09589c0,1.880107 0.692668,3.512833 2.028543,4.848708s2.993338,2.028543 4.922926,2.028543l22.957138,0c1.904853,0 3.562316,-0.667932 4.922926,-2.028543c1.360611,-1.360611 2.053279,-2.968591 2.053279,-4.848708c0,-1.880107 -0.667932,-3.512833 -2.053279,-4.848708c-1.360611,-1.335864 -2.993338,-2.028543 -4.922926,-2.028543l-3.438626,0c-0.24738,0 -0.37107,-0.12369 -0.37107,-0.37107l-0.173172,-1.212174c-0.24738,-2.325405 -1.23691,-4.27973 -2.943855,-5.813503s-3.735488,-2.300659 -6.060883,-2.300659c-2.325405,0 -4.353938,0.766886 -6.085619,2.325405c-1.731681,1.533773 -2.696475,3.488098 -2.919119,5.788767l-0.173172,1.039013c0,0.24738 -0.12369,0.37107 -0.395816,0.37107l-1.11322,0.173172c-1.781153,0.148426 -3.265453,0.890576 -4.477628,2.201705c-1.137967,1.311129 -1.756417,2.869648 -1.756417,4.675536l-0.00001,-0.00001l0,-0.000001z" fill-opacity="0.2" fill="paleturquoise"/>
  <path fill="linen" stroke-width="2.5" d="m1.58,35.025117c0,1.833221 0.447647,3.559859 1.364257,5.137282c0.895294,1.577423 2.131652,2.856414 3.709075,3.815657c1.556106,0.959243 3.282744,1.47084 5.115965,1.513473c0.234482,0 0.362381,-0.127899 0.362381,-0.362381l0,-2.835097c0,-0.255798 -0.127899,-0.405014 -0.362381,-0.405014c-1.811904,-0.085266 -3.36801,-0.810028 -4.647002,-2.174285s-1.918487,-2.920363 -1.918487,-4.710951c0,-1.747955 0.596863,-3.282744 1.811904,-4.604369c1.215042,-1.300308 2.685882,-2.067703 4.476469,-2.280868l1.129776,-0.127899c0.255798,0 0.383697,-0.127899 0.383697,-0.405014l0.170532,-1.087143c0.234482,-2.323501 1.193725,-4.263304 2.899047,-5.81941c1.705322,-1.556106 3.730391,-2.323501 6.075209,-2.323501c2.323501,0 4.34857,0.767395 6.075209,2.323501c1.747955,1.556106 2.728515,3.474593 2.94168,5.755461l0.149216,1.236358c0,0.234482 0.127899,0.362381 0.362381,0.362381l3.43196,0c1.918487,0 3.559859,0.682129 4.924116,2.046386c1.364257,1.364257 2.046386,2.984313 2.046386,4.881483c0,1.790588 -0.639496,3.346694 -1.918487,4.710951c-1.278991,1.342941 -2.835097,2.067703 -4.625685,2.174285c-0.255798,0 -0.405014,0.127899 -0.405014,0.405014l0,2.835097c0,0.234482 0.127899,0.362381 0.405014,0.362381c2.835097,-0.085266 5.222548,-1.151092 7.204984,-3.197478c1.982436,-2.046386 2.962996,-4.455153 2.962996,-7.268934c0,-1.620056 -0.298431,-3.048263 -0.91661,-4.327254c1.598739,-1.982436 2.4514,-4.327254 2.4514,-6.991819c0,-2.003753 -0.49028,-3.85829 -1.492156,-5.563612c-1.001876,-1.705322 -2.366134,-3.069579 -4.071456,-4.071456s-3.581176,-1.492156 -5.584929,-1.492156c-3.282744,0 -6.032575,1.236358 -8.249494,3.687758c-1.726638,-0.937927 -3.645125,-1.40689 -5.734144,-1.40689c-3.005629,0 -5.648878,0.937927 -7.972379,2.792464s-3.794341,4.241988 -4.455153,7.119718c-2.38745,0.596863 -4.327254,1.833221 -5.840727,3.730391c-1.513473,1.918487 -2.259551,4.092772 -2.259551,6.565489l0.000001,0.000001zm17.884561,-26.112739c0,0.511597 0.170532,0.937927 0.511597,1.257675l1.40689,1.40689c0.341064,0.341064 0.724762,0.532913 1.129776,0.532913c0.447647,0.06395 0.873977,-0.085266 1.300308,-0.468963c0.42633,-0.383697 0.639496,-0.831344 0.639496,-1.342941c0,-0.511597 -0.170532,-0.98056 -0.511597,-1.364257l-1.364257,-1.300308c-0.319748,-0.362381 -0.724762,-0.532913 -1.236358,-0.532913c-0.532913,0 -0.98056,0.170532 -1.342941,0.532913c-0.362381,0.341064 -0.532913,0.767395 -0.532913,1.278991l-0.000001,0zm11.361706,9.336636c1.47084,-1.40689 3.218795,-2.110336 5.265181,-2.110336c2.067703,0 3.836974,0.746078 5.286497,2.216918c1.47084,1.47084 2.195602,3.261428 2.195602,5.307814c0,1.321624 -0.362381,2.643249 -1.087143,3.92224c-2.02507,-2.046386 -4.497786,-3.069579 -7.396833,-3.069579l-0.682129,0c-0.639496,-2.494033 -1.833221,-4.583052 -3.581176,-6.267057l0.000001,0zm3.410643,-11.127224c0,0.49028 0.170532,0.91661 0.532913,1.236358s0.788711,0.49028 1.300308,0.49028s0.91661,-0.170532 1.257675,-0.49028c0.341064,-0.341064 0.49028,-0.746078 0.49028,-1.236358l0,-4.34857c0,-0.511597 -0.170532,-0.937927 -0.511597,-1.300308s-0.724762,-0.532913 -1.215042,-0.532913s-0.91661,0.191849 -1.278991,0.55423c-0.362381,0.362381 -0.55423,0.788711 -0.55423,1.278991l0,4.34857l-0.021317,0l0.000001,0zm11.76672,4.83885c0,0.49028 0.170532,0.91661 0.532913,1.257675c0.319748,0.341064 0.724762,0.511597 1.193725,0.55423s0.91661,-0.149216 1.321624,-0.55423l3.048263,-3.048263c0.383697,-0.383697 0.55423,-0.810028 0.55423,-1.300308c0,-0.511597 -0.191849,-0.937927 -0.55423,-1.300308c-0.362381,-0.362381 -0.788711,-0.532913 -1.278991,-0.532913c-0.468963,0 -0.873977,0.170532 -1.236358,0.532913l-3.048263,3.112212c-0.362381,0.341064 -0.532913,0.767395 -0.532913,1.278991l0,0.000001zm1.705322,25.153495c0,0.532913 0.170532,0.98056 0.511597,1.321624l1.364257,1.342941c0.511597,0.341064 0.98056,0.511597 1.364257,0.511597c0.447647,0 0.831344,-0.191849 1.193725,-0.55423c0.362381,-0.362381 0.532913,-0.810028 0.532913,-1.300308c0,-0.49028 -0.191849,-0.895294 -0.55423,-1.236358l-1.321624,-1.385574c-0.383697,-0.341064 -0.810028,-0.511597 -1.300308,-0.511597s-0.91661,0.170532 -1.257675,0.532913c-0.362381,0.341064 -0.532913,0.767395 -0.532913,1.278991l0.000001,0.000001zm3.090896,-13.450725c0,0.511597 0.191849,0.91661 0.55423,1.257675c0.362381,0.383697 0.810028,0.575546 1.321624,0.575546l4.305937,0c0.49028,0 0.91661,-0.170532 1.278991,-0.532913s0.532913,-0.788711 0.532913,-1.300308c0,-0.511597 -0.170532,-0.937927 -0.532913,-1.278991s-0.788711,-0.532913 -1.278991,-0.532913l-4.305937,0c-0.511597,0 -0.937927,0.170532 -1.321624,0.532913s-0.55423,0.788711 -0.55423,1.278991z"/>
  <path fill="bisque" d="m35.141634,41.421336zm-17.213294,16.319097l0.60968,0l10.811656,-15.953289c0.081291,-0.081291 0.101613,-0.182904 0.040645,-0.284518s-0.142258,-0.142258 -0.284517,-0.142258l-4.43034,0l4.674212,-8.555841c0.142259,-0.284517 0.060968,-0.447098 -0.284517,-0.447098l-5.974863,0c-0.162581,0 -0.30484,0.101613 -0.447098,0.284517l-4.389695,11.624562c-0.040646,0.284518 0.040645,0.426776 0.284517,0.426776l4.410018,0l-5.019698,13.047149z" stroke-width="1"/>
</g>
    <path fill-opacity="0.4" fill="goldenrod" d="m19.741086,9.00811c0,0.514538 0.168277,0.964756 0.504821,1.350654l1.388254,1.372087c0.52585,0.407342 0.967566,0.578847 1.346177,0.535971c0.441716,0 0.820327,-0.192949 1.156871,-0.557414s0.504821,-0.814683 0.504821,-1.329211c0,-0.514538 -0.189305,-0.943313 -0.546888,-1.264902l-1.241015,-1.414974c-0.378611,-0.343022 -0.799299,-0.514538 -1.283082,-0.514538c-0.504821,0 -0.946538,0.171516 -1.30411,0.535971c-0.357583,0.343022 -0.52585,0.771797 -0.52585,1.286335l0,0.000021l0.000001,0zm11.232199,9.497447c1.451349,-1.436407 3.176147,-2.143894 5.153345,-2.143894c2.08237,0 3.849235,0.72892 5.300584,2.208214c1.451349,1.479284 2.187542,3.258713 2.187542,5.381174c0,1.329211 -0.357583,2.658422 -1.072738,3.944767c-2.040304,-2.058142 -4.480257,-3.087207 -7.340887,-3.087207l-0.673088,0c-0.52585,-2.336844 -1.703759,-4.437862 -3.554757,-6.303044l0,-0.00001l-0.000001,0zm3.428557,-11.319753c0,0.557414 0.168277,0.986189 0.483783,1.329211s0.736194,0.493095 1.241015,0.493095c0.546888,0 0.967566,-0.171516 1.30411,-0.493095c0.336544,-0.343022 0.483783,-0.771797 0.483783,-1.329211l0,-4.394985c0,-0.514538 -0.168277,-0.921869 -0.504821,-1.264902s-0.757222,-0.493095 -1.283082,-0.493095c-0.504821,0 -0.904461,0.171516 -1.241015,0.493095s-0.483783,0.750364 -0.483783,1.264902l0,4.394985l0.00001,0zm11.61081,4.909513c0,0.557414 0.147239,0.986189 0.462755,1.329211c0.441716,0.343022 0.883432,0.514538 1.30411,0.514538c0.378611,0 0.799299,-0.171516 1.241015,-0.514538l3.007869,-3.065764c0.336544,-0.385898 0.504821,-0.836116 0.504821,-1.372087c0,-0.514538 -0.168277,-0.943313 -0.504821,-1.286335c-0.336544,-0.343022 -0.757222,-0.514538 -1.241015,-0.514538c-0.504821,0 -0.904461,0.171516 -1.219976,0.514538l-3.092013,3.065764c-0.315516,0.407342 -0.462755,0.836116 -0.462755,1.329211l0.00001,0zm1.661693,25.383691c0,0.514538 0.168277,0.964756 0.52585,1.350654l1.367215,1.350654c0.315516,0.343022 0.715155,0.514538 1.219976,0.514538s0.925499,-0.171516 1.262043,-0.535971c0.336544,-0.364465 0.504821,-0.79324 0.504821,-1.329211c0,-0.471662 0.339865,-0.511994 -0.504821,-1.243458l-1.367215,-1.393531c-0.336544,-0.343022 -0.736194,-0.514538 -1.198938,-0.514538c-0.504821,0 -0.925499,0.171516 -1.262043,0.514538c-0.357583,0.343022 -0.546888,0.771797 -0.546888,1.286335l0,-0.00001zm3.092013,-13.527967c0,0.493095 0.189305,0.900436 0.546888,1.243458c0.336544,0.343022 0.77826,0.514538 1.283082,0.514538l4.290951,0c0.483783,0 0.883432,-0.171516 1.219976,-0.493095s0.483783,-0.750364 0.483783,-1.264902c0,-0.514538 -0.168277,-0.943313 -0.483783,-1.286335s-0.736194,-0.535971 -1.219976,-0.535971l-4.290951,0c-0.504821,0 -0.925499,0.171516 -1.283082,0.535971c-0.378611,0.364465 -0.546888,0.79324 -0.546888,1.286335l0,0.000001z"/>

</svg>




