<svg width="60" height="60" xmlns="http://www.w3.org/2000/svg">

  <defs>
    <filter id="drop_shadow" filterUnits="objectBoundingBox" x="-50%" y="-50%" width="200%" height="200%">
      <feDropShadow dx="0.5" dy="0.5" stdDeviation="2" flood-color="black" flood-opacity="0.8" />
    </filter>
    <filter id="blur_shadow" filterUnits="objectBoundingBox" x="-50%" y="-50%" width="200%" height="200%">
      <feGaussianBlur in="SourceGraphic" stdDeviation="3" />
    </filter>
  </defs>

 <g>
  <g>
   <circle fill="palegoldenrod" cy="26.12471" cx="36.22455" r="10" fill-opacity="0.2" style="filter:url(#blur_shadow);"/>
   <g stroke="midnightblue" stroke-opacity="0.4"  style="filter:url(#drop_shadow);">
    <path stroke-width="2.5" fill="linen" d="m2.18499,38.17417c0,1.86261 0.45531,3.58035 1.36592,5.15323s2.15235,2.81461 3.72522,3.72522c1.57287,0.91061 3.26992,1.36592 5.11183,1.36592l22.41343,0c1.84192,0 3.55966,-0.45531 5.13253,-1.36592c1.57287,-0.91061 2.83531,-2.15235 3.74592,-3.72522c0.91061,-1.57287 1.38661,-3.29061 1.38661,-5.15323c0,-1.36592 -0.28974,-2.75253 -0.86922,-4.13914c1.57287,-1.904 2.35931,-4.20122 2.35931,-6.82958c0,-1.46939 -0.28974,-2.8767 -0.84852,-4.22192c-0.55878,-1.34522 -1.34522,-2.48348 -2.31792,-3.45618c-0.9727,-0.9727 -2.11096,-1.75913 -3.45618,-2.31792c-1.34522,-0.57948 -2.75253,-0.84852 -4.22192,-0.84852c-3.06296,0 -5.7327,1.20035 -8.02993,3.60105c-1.59357,-0.91061 -3.45618,-1.36592 -5.58783,-1.36592c-2.91809,0 -5.48436,0.91061 -7.71949,2.71113c-2.23513,1.80052 -3.68383,4.11844 -4.3047,6.93305c-2.31792,0.53809 -4.20122,1.71774 -5.67062,3.58035s-2.21444,3.97357 -2.21444,6.35357l0,0.00003zm3.53896,0c0,-1.73844 0.57948,-3.22853 1.73844,-4.49096c1.15896,-1.26244 2.60766,-1.98679 4.34609,-2.19374l1.03478,-0.06209c0.24835,0 0.39322,-0.12417 0.39322,-0.37252l0.14487,-1.11757c0.28974,-2.23513 1.26244,-4.11844 2.91809,-5.60853c1.65565,-1.51078 3.60105,-2.25583 5.81549,-2.25583c2.27653,0 4.26331,0.76574 5.93966,2.27653c1.69705,1.51078 2.62835,3.3734 2.83531,5.60853l0.14487,1.20035c0.04139,0.22765 0.18626,0.35183 0.43461,0.35183l3.33201,0c1.82122,0 3.39409,0.66226 4.71862,1.98679c1.32452,1.32452 1.98679,2.8767 1.98679,4.69792c0,1.88331 -0.66226,3.47687 -1.96609,4.8014c-1.30383,1.32452 -2.8974,1.98679 -4.71862,1.98679l-22.43412,0c-1.82122,0 -3.3734,-0.66226 -4.69792,-2.00748c-1.30383,-1.34522 -1.96609,-2.93879 -1.96609,-4.8014l-0.00001,-0.00002zm13.86611,-25.3936c0,0.4967 0.16557,0.93131 0.4967,1.30383l1.36592,1.32452c0.51739,0.39322 0.952,0.55878 1.32452,0.51739c0.43461,0 0.80713,-0.18626 1.13826,-0.53809s0.4967,-0.78644 0.4967,-1.28313c0,-0.4967 -0.18626,-0.91061 -0.53809,-1.22105l-1.22105,-1.36592c-0.37252,-0.33113 -0.78644,-0.4967 -1.26244,-0.4967c-0.4967,0 -0.93131,0.16557 -1.28313,0.51739c-0.35183,0.33113 -0.51739,0.74504 -0.51739,1.24174l0,0.00002zm11.0515,9.16819c1.428,-1.38661 3.12505,-2.06957 5.07044,-2.06957c2.04887,0 3.78731,0.70365 5.21531,2.13166c1.428,1.428 2.15235,3.14574 2.15235,5.19462c0,1.28313 -0.35183,2.56626 -1.05548,3.80801c-2.00748,-1.98679 -4.40818,-2.98018 -7.22279,-2.98018l-0.66226,0c-0.51739,-2.25583 -1.67635,-4.28401 -3.49757,-6.08453l0,-0.00001zm3.3734,-10.92732c0,0.53809 0.16557,0.952 0.476,1.28313s0.72435,0.476 1.22105,0.476c0.53809,0 0.952,-0.16557 1.28313,-0.476c0.33113,-0.33113 0.476,-0.74504 0.476,-1.28313l0,-4.24262c0,-0.4967 -0.16557,-0.88991 -0.4967,-1.22105s-0.74504,-0.476 -1.26244,-0.476c-0.4967,0 -0.88991,0.16557 -1.22105,0.476s-0.476,0.72435 -0.476,1.22105l0,4.24262l0.00001,0zm11.42402,4.73931c0,0.53809 0.14487,0.952 0.45531,1.28313c0.43461,0.33113 0.86922,0.4967 1.28313,0.4967c0.37252,0 0.78644,-0.16557 1.22105,-0.4967l2.95948,-2.95948c0.33113,-0.37252 0.4967,-0.80713 0.4967,-1.32452c0,-0.4967 -0.16557,-0.91061 -0.4967,-1.24174c-0.33113,-0.33113 -0.74504,-0.4967 -1.22105,-0.4967c-0.4967,0 -0.88991,0.16557 -1.20035,0.4967l-3.04227,2.95948c-0.31044,0.39322 -0.45531,0.80713 -0.45531,1.28313l0.00001,0zm1.63496,24.50369c0,0.4967 0.16557,0.93131 0.51739,1.30383l1.34522,1.30383c0.31044,0.33113 0.70365,0.4967 1.20035,0.4967s0.91061,-0.16557 1.24174,-0.51739c0.33113,-0.35183 0.4967,-0.76574 0.4967,-1.28313c0,-0.45531 -0.16557,-0.86922 -0.4967,-1.20035l-1.34522,-1.34522c-0.33113,-0.33113 -0.72435,-0.4967 -1.17965,-0.4967c-0.4967,0 -0.91061,0.16557 -1.24174,0.4967c-0.35183,0.33113 -0.53809,0.74504 -0.53809,1.24174l0,-0.00001zm3.04227,-13.05898c0,0.476 0.18626,0.86922 0.53809,1.20035c0.33113,0.33113 0.76574,0.4967 1.26244,0.4967l4.22192,0c0.476,0 0.86922,-0.16557 1.20035,-0.476s0.476,-0.72435 0.476,-1.22105c0,-0.4967 -0.16557,-0.91061 -0.476,-1.24174s-0.72435,-0.51739 -1.20035,-0.51739l-4.22192,0c-0.4967,0 -0.91061,0.16557 -1.26244,0.51739c-0.37252,0.35183 -0.53809,0.76574 -0.53809,1.24174z"/>
    <path d="m6.19117,37.92178c0,1.80365 0.6645,3.36998 1.94605,4.65153s2.87161,1.94605 4.72273,1.94605l22.02356,0c1.82739,0 3.41745,-0.64077 4.72273,-1.94605c1.30528,-1.30528 1.96978,-2.84787 1.96978,-4.65153c0,-1.80365 -0.64077,-3.36998 -1.96978,-4.65153c-1.30528,-1.28154 -2.87161,-1.94605 -4.72273,-1.94605l-3.29879,0c-0.23732,0 -0.35598,-0.11866 -0.35598,-0.35598l-0.16613,-1.16288c-0.23732,-2.23084 -1.18661,-4.10569 -2.82414,-5.57709s-3.58358,-2.2071 -5.81441,-2.2071c-2.23084,0 -4.17688,0.7357 -5.83814,2.23084c-1.66126,1.4714 -2.58682,3.34625 -2.80041,5.55336l-0.16613,0.99676c0,0.23732 -0.11866,0.35598 -0.37972,0.35598l-1.06795,0.16613c-1.70872,0.14239 -3.13266,0.85436 -4.29554,2.11217c-1.09169,1.25781 -1.68499,2.75295 -1.68499,4.4854l-0.00001,-0.00001z" fill-opacity="0.4" fill="paleturquoise" />
   </g>
  </g>
 </g>
 <g>
  <path fill-opacity="0.4" fill="goldenrod" d="m19.36611,12.48138c0,0.4967 0.16557,0.93131 0.4967,1.30383l1.36592,1.32452c0.51739,0.39322 0.952,0.55878 1.32452,0.51739c0.43461,0 0.80713,-0.18626 1.13826,-0.53809s0.4967,-0.78644 0.4967,-1.28313c0,-0.4967 -0.18626,-0.91061 -0.53809,-1.22105l-1.22105,-1.36592c-0.37252,-0.33113 -0.78644,-0.4967 -1.26244,-0.4967c-0.4967,0 -0.93131,0.16557 -1.28313,0.51739c-0.35183,0.33113 -0.51739,0.74504 -0.51739,1.24174l0,0.00002zm11.0515,9.16819c1.428,-1.38661 3.12505,-2.06957 5.07044,-2.06957c2.04887,0 3.78731,0.70365 5.21531,2.13166c1.428,1.428 2.15235,3.14574 2.15235,5.19462c0,1.28313 -0.35183,2.56626 -1.05548,3.80801c-2.00748,-1.98679 -4.40818,-2.98018 -7.22279,-2.98018l-0.66226,0c-0.51739,-2.25583 -1.67635,-4.28401 -3.49757,-6.08453l0,-0.00001zm3.3734,-10.92732c0,0.53809 0.16557,0.952 0.476,1.28313s0.72435,0.476 1.22105,0.476c0.53809,0 0.952,-0.16557 1.28313,-0.476c0.33113,-0.33113 0.476,-0.74504 0.476,-1.28313l0,-4.24262c0,-0.4967 -0.16557,-0.88991 -0.4967,-1.22105s-0.74504,-0.476 -1.26244,-0.476c-0.4967,0 -0.88991,0.16557 -1.22105,0.476s-0.476,0.72435 -0.476,1.22105l0,4.24262l0.00001,0zm11.42402,4.73931c0,0.53809 0.14487,0.952 0.45531,1.28313c0.43461,0.33113 0.86922,0.4967 1.28313,0.4967c0.37252,0 0.78644,-0.16557 1.22105,-0.4967l2.95948,-2.95948c0.33113,-0.37252 0.4967,-0.80713 0.4967,-1.32452c0,-0.4967 -0.16557,-0.91061 -0.4967,-1.24174c-0.33113,-0.33113 -0.74504,-0.4967 -1.22105,-0.4967c-0.4967,0 -0.88991,0.16557 -1.20035,0.4967l-3.04227,2.95948c-0.31044,0.39322 -0.45531,0.80713 -0.45531,1.28313l0.00001,0zm1.63496,24.50369c0,0.4967 0.16557,0.93131 0.51739,1.30383l1.34522,1.30383c0.31044,0.33113 0.70365,0.4967 1.20035,0.4967s0.91061,-0.16557 1.24174,-0.51739c0.33113,-0.35183 0.4967,-0.76574 0.4967,-1.28313c0,-0.45531 -0.16557,-0.86922 -0.4967,-1.20035l-1.34522,-1.34522c-0.33113,-0.33113 -0.72435,-0.4967 -1.17965,-0.4967c-0.4967,0 -0.91061,0.16557 -1.24174,0.4967c-0.35183,0.33113 -0.53809,0.74504 -0.53809,1.24174l0,-0.00001zm3.04227,-13.05898c0,0.476 0.18626,0.86922 0.53809,1.20035c0.33113,0.33113 0.76574,0.4967 1.26244,0.4967l4.22192,0c0.476,0 0.86922,-0.16557 1.20035,-0.476s0.476,-0.72435 0.476,-1.22105c0,-0.4967 -0.16557,-0.91061 -0.476,-1.24174s-0.72435,-0.51739 -1.20035,-0.51739l-4.22192,0c-0.4967,0 -0.91061,0.16557 -1.26244,0.51739c-0.37252,0.35183 -0.53809,0.76574 -0.53809,1.24174z" />
 </g>
</svg>
