<svg width="60" height="60" xmlns="http://www.w3.org/2000/svg">

  <defs>
    <filter id="drop_shadow" filterUnits="objectBoundingBox" x="-50%" y="-50%" width="200%" height="200%">
      <feDropShadow dx="0.5" dy="0.5" stdDeviation="2" flood-color="black" flood-opacity="0.8" />
    </filter>
    <filter id="blur_shadow" filterUnits="objectBoundingBox" x="-50%" y="-50%" width="200%" height="200%">
      <feGaussianBlur in="SourceGraphic" stdDeviation="3" />
    </filter>
  </defs>

  <path fill="black" filter="url(#blur_shadow)"  d="m1.82997,34.89162c0,1.83827 0.44372,3.54977 1.35229,5.11335c0.88744,1.58472 2.11296,2.85249 3.65541,3.80332c1.54246,0.95083 3.23282,1.45794 5.07109,1.54246c0.25355,0 0.38033,-0.12678 0.38033,-0.3592l0,-2.81023c0,-0.25355 -0.12678,-0.40146 -0.38033,-0.40146c-1.79601,-0.08452 -3.33847,-0.80292 -4.60624,-2.15521s-1.90166,-2.91588 -1.90166,-4.75415c0,-1.73262 0.59163,-3.25395 1.77488,-4.54285s2.66232,-2.02844 4.41608,-2.23973l1.09874,-0.06339c0.25355,0 0.40146,-0.12678 0.40146,-0.38033l0.16904,-1.141c0.23243,-2.28199 1.18326,-4.18365 2.87362,-5.72611c1.69036,-1.54246 3.69767,-2.30312 6.02192,-2.30312c2.26086,0 4.26817,0.76066 6.00079,2.30312c1.73262,1.54246 2.70458,3.44412 2.95814,5.70498l0.14791,1.22551c0,0.23243 0.12678,0.3592 0.3592,0.3592l3.42299,0c1.8594,0 3.48638,0.67615 4.83867,2.02844c1.37342,1.35229 2.04957,2.93701 2.04957,4.77528c0,1.81714 -0.63389,3.40186 -1.90166,4.75415c-1.26777,1.33116 -2.81023,2.04957 -4.60624,2.15521c-0.25355,0 -0.38033,0.12678 -0.38033,0.40146l0,2.81023c0,0.23243 0.12678,0.3592 0.38033,0.3592c1.83827,-0.04226 3.52864,-0.54937 5.07109,-1.52133s2.76797,-2.2186 3.65541,-3.80332s1.33116,-3.29621 1.33116,-5.13448c0,-1.56359 -0.29581,-2.95814 -0.86631,-4.22591c1.64811,-2.00731 2.45103,-4.33156 2.45103,-6.97275c0,-1.98618 -0.48598,-3.84558 -1.47907,-5.53594s-2.32425,-3.04266 -4.01462,-4.01462c-1.69036,-0.99309 -3.52864,-1.47907 -5.51481,-1.47907c-3.27508,0 -6.00079,1.22551 -8.17714,3.65541c-1.73262,-0.9297 -3.63428,-1.39455 -5.68385,-1.39455c-2.97927,0 -5.59933,0.9297 -7.90245,2.76797s-3.76106,4.20478 -4.41608,7.05727c-2.32425,0.54937 -4.24704,1.77488 -5.74724,3.65541c-1.56359,1.92279 -2.30312,4.078 -2.30312,6.48677zm12.46644,1.8594c0,0.80292 0.29581,1.5002 0.88744,2.0707s1.31003,0.84518 2.13409,0.84518c0.84518,0 1.54246,-0.27468 2.11296,-0.84518c0.5705,-0.5705 0.84518,-1.24664 0.84518,-2.0707c0,-0.50711 -0.25355,-1.22551 -0.73953,-2.11296c-0.48598,-0.90857 -0.95083,-1.60585 -1.37342,-2.09183c-0.44372,-0.46485 -0.73953,-0.78179 -0.84518,-0.88744l-0.76066,0.84518c-0.5705,0.61276 -1.09874,1.33116 -1.56359,2.17634s-0.69728,1.54246 -0.69728,2.0707zm5.26126,-27.70085c0,0.54937 0.16904,0.97196 0.50711,1.2889l1.37342,1.39455c0.88744,0.65502 1.73262,0.65502 2.55668,0c0.33807,-0.40146 0.50711,-0.86631 0.50711,-1.35229c0,-0.48598 -0.16904,-0.90857 -0.50711,-1.24664l-1.35229,-1.37342c-0.40146,-0.3592 -0.82405,-0.52824 -1.2889,-0.52824c-0.50711,0 -0.95083,0.16904 -1.2889,0.52824c-0.33807,0.3592 -0.50711,0.78179 -0.50711,1.2889zm1.01422,36.06816c0,1.39455 0.48598,2.55668 1.43681,3.48638s2.11296,1.41568 3.48638,1.41568c1.37342,0 2.53555,-0.48598 3.50751,-1.43681c0.97196,-0.97196 1.43681,-2.11296 1.43681,-3.46525c0,-1.141 -0.5705,-2.51442 -1.71149,-4.16252c-0.97196,-1.2889 -1.88053,-2.32425 -2.70458,-3.1483c-0.16904,-0.12678 -0.3592,-0.27468 -0.54937,-0.48598l-0.48598,0.48598c-0.76066,0.67615 -1.64811,1.73262 -2.68345,3.10605c-1.141,1.60585 -1.73262,3.0004 -1.73262,4.20478zm3.12717,-13.98777c0,0.52824 0.2113,0.99309 0.61276,1.37342c0.40146,0.38033 0.88744,0.5705 1.45794,0.5705c0.54937,0 1.01422,-0.19017 1.39455,-0.5705c0.38033,-0.38033 0.5705,-0.84518 0.5705,-1.37342c0,-0.86631 -0.65502,-2.00731 -1.96505,-3.38073l-0.50711,0.52824c-0.38033,0.42259 -0.73953,0.90857 -1.05648,1.47907c-0.3592,0.5705 -0.50711,1.01422 -0.50711,1.37342zm7.12066,-12.78338c1.39455,-1.39455 3.12717,-2.09183 5.219,-2.09183c2.0707,0 3.80332,0.7184 5.26126,2.17634c1.43681,1.45794 2.17634,3.21169 2.17634,5.28239c0,1.24664 -0.3592,2.53555 -1.09874,3.88784c-2.04957,-2.02844 -4.5006,-3.04266 -7.33196,-3.04266l-0.69728,0c-0.61276,-2.45103 -1.79601,-4.52173 -3.52864,-6.21209zm3.38073,-11.11415c0,0.50711 0.19017,0.9297 0.54937,1.2889c0.3592,0.3592 0.78179,0.52824 1.26777,0.52824s0.90857,-0.16904 1.22551,-0.52824c0.33807,-0.3592 0.48598,-0.78179 0.48598,-1.2889l0,-4.31043c0,-0.50711 -0.16904,-0.90857 -0.48598,-1.24664s-0.7184,-0.48598 -1.20438,-0.48598s-0.9297,0.16904 -1.2889,0.48598s-0.54937,0.73953 -0.54937,1.24664l0,4.31043zm11.66352,4.88093c0,0.50711 0.16904,0.9297 0.52824,1.24664c0.3592,0.33807 0.76066,0.50711 1.18326,0.50711c0.3592,0 0.80292,-0.16904 1.2889,-0.50711l3.02153,-3.02153c0.38033,-0.38033 0.5705,-0.82405 0.5705,-1.31003c0,-0.50711 -0.16904,-0.95083 -0.52824,-1.2889c-0.3592,-0.33807 -0.78179,-0.50711 -1.2889,-0.50711c-0.46485,0 -0.86631,0.16904 -1.22551,0.52824l-3.02153,3.02153c-0.3592,0.3592 -0.52824,0.80292 -0.52824,1.33116zm1.69036,24.89062c0,0.52824 0.16904,0.97196 0.48598,1.35229l1.37342,1.22551c0.29581,0.38033 0.7184,0.5705 1.24664,0.5705c0.50711,0 0.9297,-0.19017 1.22551,-0.5705c0.38033,-0.33807 0.5705,-0.76066 0.5705,-1.22551c0,-0.46485 -0.19017,-0.86631 -0.5705,-1.22551l-1.2889,-1.37342c-0.38033,-0.33807 -0.80292,-0.50711 -1.2889,-0.50711c-0.50711,0 -0.9297,0.16904 -1.26777,0.50711s-0.48598,0.76066 -0.48598,1.24664zm3.06379,-13.29049c0,0.46485 0.16904,0.88744 0.52824,1.22551c0.3592,0.33807 0.80292,0.50711 1.33116,0.50711l4.26817,0c0.50711,0 0.9297,-0.16904 1.26777,-0.50711c0.3592,-0.33807 0.52824,-0.73953 0.52824,-1.24664c0,-0.50711 -0.16904,-0.9297 -0.52824,-1.26777s-0.78179,-0.52824 -1.26777,-0.52824l-4.26817,0c-0.50711,0 -0.9297,0.16904 -1.31003,0.52824s-0.54937,0.80292 -0.54937,1.2889z"/>

<circle filter="url(#blur_shadow)" fill-opacity="0.2" r="10" cx="35.099604" cy="25.249752" fill="palegoldenrod"/>
<g stroke="midnightblue" stroke-opacity="0.4" style="filter:url(#drop_shadow);">
   <path filter="url(#blur_shadow)"  d="m4.941199,35.09589c0,1.880107 0.692668,3.512833 2.028543,4.848708s2.993338,2.028543 4.922926,2.028543l22.957138,0c1.904853,0 3.562316,-0.667932 4.922926,-2.028543c1.360611,-1.360611 2.053279,-2.968591 2.053279,-4.848708c0,-1.880107 -0.667932,-3.512833 -2.053279,-4.848708c-1.360611,-1.335864 -2.993338,-2.028543 -4.922926,-2.028543l-3.438626,0c-0.24738,0 -0.37107,-0.12369 -0.37107,-0.37107l-0.173172,-1.212174c-0.24738,-2.325405 -1.23691,-4.27973 -2.943855,-5.813503s-3.735488,-2.300659 -6.060883,-2.300659c-2.325405,0 -4.353938,0.766886 -6.085619,2.325405c-1.731681,1.533773 -2.696475,3.488098 -2.919119,5.788767l-0.173172,1.039013c0,0.24738 -0.12369,0.37107 -0.395816,0.37107l-1.11322,0.173172c-1.781153,0.148426 -3.265453,0.890576 -4.477628,2.201705c-1.137967,1.311129 -1.756417,2.869648 -1.756417,4.675536l-0.00001,-0.00001l0,-0.000001z" fill-opacity="0.2" fill="paleturquoise"/>
  <path fill="linen" stroke-width="2.5" d="m1.58,35.025117c0,1.833221 0.447647,3.559859 1.364257,5.137282c0.895294,1.577423 2.131652,2.856414 3.709075,3.815657c1.556106,0.959243 3.282744,1.47084 5.115965,1.513473c0.234482,0 0.362381,-0.127899 0.362381,-0.362381l0,-2.835097c0,-0.255798 -0.127899,-0.405014 -0.362381,-0.405014c-1.811904,-0.085266 -3.36801,-0.810028 -4.647002,-2.174285s-1.918487,-2.920363 -1.918487,-4.710951c0,-1.747955 0.596863,-3.282744 1.811904,-4.604369c1.215042,-1.300308 2.685882,-2.067703 4.476469,-2.280868l1.129776,-0.127899c0.255798,0 0.383697,-0.127899 0.383697,-0.405014l0.170532,-1.087143c0.234482,-2.323501 1.193725,-4.263304 2.899047,-5.81941c1.705322,-1.556106 3.730391,-2.323501 6.075209,-2.323501c2.323501,0 4.34857,0.767395 6.075209,2.323501c1.747955,1.556106 2.728515,3.474593 2.94168,5.755461l0.149216,1.236358c0,0.234482 0.127899,0.362381 0.362381,0.362381l3.43196,0c1.918487,0 3.559859,0.682129 4.924116,2.046386c1.364257,1.364257 2.046386,2.984313 2.046386,4.881483c0,1.790588 -0.639496,3.346694 -1.918487,4.710951c-1.278991,1.342941 -2.835097,2.067703 -4.625685,2.174285c-0.255798,0 -0.405014,0.127899 -0.405014,0.405014l0,2.835097c0,0.234482 0.127899,0.362381 0.405014,0.362381c2.835097,-0.085266 5.222548,-1.151092 7.204984,-3.197478c1.982436,-2.046386 2.962996,-4.455153 2.962996,-7.268934c0,-1.620056 -0.298431,-3.048263 -0.91661,-4.327254c1.598739,-1.982436 2.4514,-4.327254 2.4514,-6.991819c0,-2.003753 -0.49028,-3.85829 -1.492156,-5.563612c-1.001876,-1.705322 -2.366134,-3.069579 -4.071456,-4.071456s-3.581176,-1.492156 -5.584929,-1.492156c-3.282744,0 -6.032575,1.236358 -8.249494,3.687758c-1.726638,-0.937927 -3.645125,-1.40689 -5.734144,-1.40689c-3.005629,0 -5.648878,0.937927 -7.972379,2.792464s-3.794341,4.241988 -4.455153,7.119718c-2.38745,0.596863 -4.327254,1.833221 -5.840727,3.730391c-1.513473,1.918487 -2.259551,4.092772 -2.259551,6.565489l0.000001,0.000001zm17.884561,-26.112739c0,0.511597 0.170532,0.937927 0.511597,1.257675l1.40689,1.40689c0.341064,0.341064 0.724762,0.532913 1.129776,0.532913c0.447647,0.06395 0.873977,-0.085266 1.300308,-0.468963c0.42633,-0.383697 0.639496,-0.831344 0.639496,-1.342941c0,-0.511597 -0.170532,-0.98056 -0.511597,-1.364257l-1.364257,-1.300308c-0.319748,-0.362381 -0.724762,-0.532913 -1.236358,-0.532913c-0.532913,0 -0.98056,0.170532 -1.342941,0.532913c-0.362381,0.341064 -0.532913,0.767395 -0.532913,1.278991l-0.000001,0zm11.361706,9.336636c1.47084,-1.40689 3.218795,-2.110336 5.265181,-2.110336c2.067703,0 3.836974,0.746078 5.286497,2.216918c1.47084,1.47084 2.195602,3.261428 2.195602,5.307814c0,1.321624 -0.362381,2.643249 -1.087143,3.92224c-2.02507,-2.046386 -4.497786,-3.069579 -7.396833,-3.069579l-0.682129,0c-0.639496,-2.494033 -1.833221,-4.583052 -3.581176,-6.267057l0.000001,0zm3.410643,-11.127224c0,0.49028 0.170532,0.91661 0.532913,1.236358s0.788711,0.49028 1.300308,0.49028s0.91661,-0.170532 1.257675,-0.49028c0.341064,-0.341064 0.49028,-0.746078 0.49028,-1.236358l0,-4.34857c0,-0.511597 -0.170532,-0.937927 -0.511597,-1.300308s-0.724762,-0.532913 -1.215042,-0.532913s-0.91661,0.191849 -1.278991,0.55423c-0.362381,0.362381 -0.55423,0.788711 -0.55423,1.278991l0,4.34857l-0.021317,0l0.000001,0zm11.76672,4.83885c0,0.49028 0.170532,0.91661 0.532913,1.257675c0.319748,0.341064 0.724762,0.511597 1.193725,0.55423s0.91661,-0.149216 1.321624,-0.55423l3.048263,-3.048263c0.383697,-0.383697 0.55423,-0.810028 0.55423,-1.300308c0,-0.511597 -0.191849,-0.937927 -0.55423,-1.300308c-0.362381,-0.362381 -0.788711,-0.532913 -1.278991,-0.532913c-0.468963,0 -0.873977,0.170532 -1.236358,0.532913l-3.048263,3.112212c-0.362381,0.341064 -0.532913,0.767395 -0.532913,1.278991l0,0.000001zm1.705322,25.153495c0,0.532913 0.170532,0.98056 0.511597,1.321624l1.364257,1.342941c0.511597,0.341064 0.98056,0.511597 1.364257,0.511597c0.447647,0 0.831344,-0.191849 1.193725,-0.55423c0.362381,-0.362381 0.532913,-0.810028 0.532913,-1.300308c0,-0.49028 -0.191849,-0.895294 -0.55423,-1.236358l-1.321624,-1.385574c-0.383697,-0.341064 -0.810028,-0.511597 -1.300308,-0.511597s-0.91661,0.170532 -1.257675,0.532913c-0.362381,0.341064 -0.532913,0.767395 -0.532913,1.278991l0.000001,0.000001zm3.090896,-13.450725c0,0.511597 0.191849,0.91661 0.55423,1.257675c0.362381,0.383697 0.810028,0.575546 1.321624,0.575546l4.305937,0c0.49028,0 0.91661,-0.170532 1.278991,-0.532913s0.532913,-0.788711 0.532913,-1.300308c0,-0.511597 -0.170532,-0.937927 -0.532913,-1.278991s-0.788711,-0.532913 -1.278991,-0.532913l-4.305937,0c-0.511597,0 -0.937927,0.170532 -1.321624,0.532913s-0.55423,0.788711 -0.55423,1.278991z"/>

   <path stroke-opacity="0.4" stroke-width="1" stroke="midnightblue" fill="cornflowerblue" d="m14.47036,36.72913c0,-0.50306 0.25153,-1.19477 0.77555,-2.07512c0.50306,-0.88036 0.98516,-1.57206 1.42534,-2.11704c0.44018,-0.50306 0.71267,-0.79652 0.79652,-0.88036l0.75459,0.83843c0.54498,0.58691 1.04804,1.27861 1.50919,2.13801c0.46114,0.83843 0.69171,1.5511 0.69171,2.09608c0,0.81747 -0.27249,1.50919 -0.83843,2.05417c-0.56594,0.54498 -1.25765,0.81747 -2.09608,0.81747c-0.81747,0 -1.53014,-0.27249 -2.11704,-0.83843c-0.60787,-0.54498 -0.90132,-1.23669 -0.90132,-2.03321l-0.00002,0zm6.24633,8.36338c0,-0.58691 0.16769,-1.23669 0.50306,-2.01224s0.73363,-1.46726 1.23669,-2.13801c0.3773,-0.54498 0.83843,-1.13189 1.40438,-1.76071c0.54498,-0.62882 0.9642,-1.08997 1.25765,-1.36245c0.14672,-0.12576 0.31441,-0.29345 0.50306,-0.4821l0.50306,0.4821c0.79652,0.69171 1.67687,1.71879 2.66203,3.06029c0.50306,0.69171 0.90132,1.42534 1.23669,2.17993s0.4821,1.42534 0.4821,2.03321c0,1.3415 -0.4821,2.49434 -1.42534,3.45854s-2.11704,1.42534 -3.47951,1.42534c-1.3415,0 -2.49434,-0.4821 -3.45854,-1.40438c-0.9642,-0.9642 -1.42534,-2.11704 -1.42534,-3.47951l0.00002,-0.00001zm3.08125,-13.95993c0,-0.88036 0.67075,-1.99128 2.03321,-3.35373l0.50306,0.52402c0.3773,0.44018 0.69171,0.94324 1.00612,1.48822c0.29345,0.54498 0.46114,0.98516 0.46114,1.3415c0,0.54498 -0.18865,1.00612 -0.58691,1.38341c-0.3773,0.3773 -0.83843,0.58691 -1.38341,0.58691c-0.56594,0 -1.04804,-0.18865 -1.4463,-0.58691c-0.39826,-0.3773 -0.58691,-0.83843 -0.58691,-1.38341l0.00001,-0.00001z" id="svg_1"/>
</g>

   <circle cx="18.23691" cy="36.83855" r="1.0814" fill-opacity="0.4" fill="white"/>
   <circle cx="27.19971" cy="45.27898" r="1.94652" fill-opacity="0.3" fill="white"/>
   <circle cx="26.37491" cy="31.28492" r="0.6921" fill-opacity="0.2" fill="white"/>

    <path fill-opacity="0.4" fill="goldenrod" d="m19.741086,9.00811c0,0.514538 0.168277,0.964756 0.504821,1.350654l1.388254,1.372087c0.52585,0.407342 0.967566,0.578847 1.346177,0.535971c0.441716,0 0.820327,-0.192949 1.156871,-0.557414s0.504821,-0.814683 0.504821,-1.329211c0,-0.514538 -0.189305,-0.943313 -0.546888,-1.264902l-1.241015,-1.414974c-0.378611,-0.343022 -0.799299,-0.514538 -1.283082,-0.514538c-0.504821,0 -0.946538,0.171516 -1.30411,0.535971c-0.357583,0.343022 -0.52585,0.771797 -0.52585,1.286335l0,0.000021l0.000001,0zm11.232199,9.497447c1.451349,-1.436407 3.176147,-2.143894 5.153345,-2.143894c2.08237,0 3.849235,0.72892 5.300584,2.208214c1.451349,1.479284 2.187542,3.258713 2.187542,5.381174c0,1.329211 -0.357583,2.658422 -1.072738,3.944767c-2.040304,-2.058142 -4.480257,-3.087207 -7.340887,-3.087207l-0.673088,0c-0.52585,-2.336844 -1.703759,-4.437862 -3.554757,-6.303044l0,-0.00001l-0.000001,0zm3.428557,-11.319753c0,0.557414 0.168277,0.986189 0.483783,1.329211s0.736194,0.493095 1.241015,0.493095c0.546888,0 0.967566,-0.171516 1.30411,-0.493095c0.336544,-0.343022 0.483783,-0.771797 0.483783,-1.329211l0,-4.394985c0,-0.514538 -0.168277,-0.921869 -0.504821,-1.264902s-0.757222,-0.493095 -1.283082,-0.493095c-0.504821,0 -0.904461,0.171516 -1.241015,0.493095s-0.483783,0.750364 -0.483783,1.264902l0,4.394985l0.00001,0zm11.61081,4.909513c0,0.557414 0.147239,0.986189 0.462755,1.329211c0.441716,0.343022 0.883432,0.514538 1.30411,0.514538c0.378611,0 0.799299,-0.171516 1.241015,-0.514538l3.007869,-3.065764c0.336544,-0.385898 0.504821,-0.836116 0.504821,-1.372087c0,-0.514538 -0.168277,-0.943313 -0.504821,-1.286335c-0.336544,-0.343022 -0.757222,-0.514538 -1.241015,-0.514538c-0.504821,0 -0.904461,0.171516 -1.219976,0.514538l-3.092013,3.065764c-0.315516,0.407342 -0.462755,0.836116 -0.462755,1.329211l0.00001,0zm1.661693,25.383691c0,0.514538 0.168277,0.964756 0.52585,1.350654l1.367215,1.350654c0.315516,0.343022 0.715155,0.514538 1.219976,0.514538s0.925499,-0.171516 1.262043,-0.535971c0.336544,-0.364465 0.504821,-0.79324 0.504821,-1.329211c0,-0.471662 0.339865,-0.511994 -0.504821,-1.243458l-1.367215,-1.393531c-0.336544,-0.343022 -0.736194,-0.514538 -1.198938,-0.514538c-0.504821,0 -0.925499,0.171516 -1.262043,0.514538c-0.357583,0.343022 -0.546888,0.771797 -0.546888,1.286335l0,-0.00001zm3.092013,-13.527967c0,0.493095 0.189305,0.900436 0.546888,1.243458c0.336544,0.343022 0.77826,0.514538 1.283082,0.514538l4.290951,0c0.483783,0 0.883432,-0.171516 1.219976,-0.493095s0.483783,-0.750364 0.483783,-1.264902c0,-0.514538 -0.168277,-0.943313 -0.483783,-1.286335s-0.736194,-0.535971 -1.219976,-0.535971l-4.290951,0c-0.504821,0 -0.925499,0.171516 -1.283082,0.535971c-0.378611,0.364465 -0.546888,0.79324 -0.546888,1.286335l0,0.000001z"/>

</svg>
