<svg width="60" height="60" xmlns="http://www.w3.org/2000/svg">
  <defs>
    <filter id="drop_shadow" filterUnits="objectBoundingBox" x="-50%" y="-50%" width="260%" height="260%">
      <feDropShadow dx="0.5" dy="0.5" stdDeviation="2" flood-color="black" flood-opacity="0.8" />
    </filter>
    <filter id="blur_shadow" filterUnits="objectBoundingBox" x="-50%" y="-50%" width="260%" height="260%">
      <feGaussianBlur in="SourceGraphic" stdDeviation="3" />
    </filter>
    <filter id="shadow">
      <feDropShadow dx="0.3" dy="0.6" stdDeviation="0.6" flood-color="black"/>
    </filter>
  </defs>

  <path fill="black" style="filter:url(#blur_shadow)" d="m19.55984,30.42808c0,1.82411 0.45603,3.52925 1.38791,5.09561s2.181,2.8353 3.76718,3.76718c1.58618,0.93188 3.29133,1.40774 5.13526,1.40774c1.84394,0 3.56891,-0.47585 5.17491,-1.40774c1.60601,-0.93188 2.87495,-2.20083 3.80683,-3.76718c0.93188,-1.58618 1.40774,-3.2715 1.40774,-5.09561c0,-1.18964 -0.33706,-2.59737 -1.03102,-4.24303c-0.69395,-1.64566 -1.5267,-3.17236 -2.49823,-4.56027c-0.8724,-1.13015 -1.90342,-2.37927 -3.09305,-3.72752c-1.18964,-1.34825 -3.2715,-3.43012 -3.74735,-3.90597l-2.53789,2.55772c-1.22929,1.18964 -2.41893,2.55772 -3.54908,4.12407c-1.13015,1.56635 -2.12152,3.25167 -2.95426,5.05595c-0.8724,1.80428 -1.26894,3.37063 -1.26894,4.69906l-0.00001,-0.00001z"/>
  <g>
  <path fill="cornflowerblue" style="filter:url(#drop_shadow)" d="m19.55984,30.42808c0,1.82411 0.45603,3.52925 1.38791,5.09561s2.181,2.8353 3.76718,3.76718c1.58618,0.93188 3.29133,1.40774 5.13526,1.40774c1.84394,0 3.56891,-0.47585 5.17491,-1.40774c1.60601,-0.93188 2.87495,-2.20083 3.80683,-3.76718c0.93188,-1.58618 1.40774,-3.2715 1.40774,-5.09561c0,-1.18964 -0.33706,-2.59737 -1.03102,-4.24303c-0.69395,-1.64566 -1.5267,-3.17236 -2.49823,-4.56027c-0.8724,-1.13015 -1.90342,-2.37927 -3.09305,-3.72752c-1.18964,-1.34825 -3.2715,-3.43012 -3.74735,-3.90597l-2.53789,2.55772c-1.22929,1.18964 -2.41893,2.55772 -3.54908,4.12407c-1.13015,1.56635 -2.12152,3.25167 -2.95426,5.05595c-0.8724,1.80428 -1.26894,3.37063 -1.26894,4.69906l-0.00001,-0.00001z"/>
   <circle style="filter:url(#blur_shadow)" fill="#ffffff" fill-opacity="0.45" r="3.65822" cy="31.01319" cx="33.47102"/>
   <circle fill="#ffffff" fill-opacity="0.4" r="3.65822" cy="31.01319" cx="33.47102"/>
   <circle fill="#ffffff" fill-opacity="0.2" r="1.78627" cy="30.2067" cx="32.74691"/>
  </g>


</svg>
