<svg width="60" height="60" xmlns="http://www.w3.org/2000/svg">
  <defs>
    <filter id="drop_shadow" filterUnits="objectBoundingBox" x="-50%" y="-50%" width="200%" height="200%">
      <feDropShadow dx="0.5" dy="0.5" stdDeviation="2" flood-color="black" flood-opacity="0.8" />
    </filter>
    <filter id="blur_shadow" filterUnits="objectBoundingBox" x="-50%" y="-50%" width="200%" height="200%">
      <feGaussianBlur in="SourceGraphic" stdDeviation="3" />
    </filter>
    <filter id="shadow">
      <feDropShadow dx="0.3" dy="0.6" stdDeviation="0.6" flood-color="black"/>
    </filter>
  <linearGradient id="linearGradient3199">
   <stop id="stop3201" offset="0" stop-color="#ffffff"/>
   <stop id="stop3203" offset="1" stop-opacity="0" stop-color="#ffffff"/>
  </linearGradient>
  <linearGradient xlink:href="#linearGradient3199" id="linearGradient3206" x1="0.35792" y1="0.0564" x2="0.4991" y2="0.96319"/>
  </defs>
 <g>
  <circle cx="30" cy="30" r="20.24999" fill-opacity="0.4" fill="blue"/>
  <path style="filter:url(#blur_shadow)" fill="black" d="m4.11518,30.04598c0,-4.68961 1.1724,-9.0344 3.49422,-13.01138s5.47121,-7.12637 9.44819,-9.44819s8.29878,-3.47123 12.9654,-3.47123c3.49422,0 6.85051,0.68965 10.04589,2.04596s5.93098,3.21836 8.2528,5.51719s4.16088,5.05743 5.51719,8.27579s2.04596,6.55166 2.04596,10.09186c0,3.49422 -0.68965,6.85051 -2.04596,10.04589s-3.21836,5.95397 -5.51719,8.2528s-5.05743,4.13789 -8.2528,5.4942s-6.52868,2.04596 -10.04589,2.04596c-3.51721,0 -6.89649,-0.68965 -10.09186,-2.04596s-5.95397,-3.21836 -8.27579,-5.51719s-4.13789,-5.05743 -5.51719,-8.22981s-2.02297,-6.52868 -2.02297,-10.04589zm5.7011,0c0,5.44823 1.97699,10.18382 5.95397,14.20677c3.97698,3.97698 8.71256,5.95397 14.25274,5.95397c3.63215,0 7.01143,-0.89654 10.09186,-2.71262s5.56317,-4.25284 7.37924,-7.35626s2.73561,-6.45971 2.73561,-10.09186s-0.91953,-7.01143 -2.73561,-10.11485s-4.27582,-5.56317 -7.37924,-7.37924s-6.45971,-2.71262 -10.09186,-2.71262s-7.01143,0.89654 -10.09186,2.71262s-5.56317,4.27582 -7.40223,7.37924s-2.71262,6.4827 -2.71262,10.11485zm7.56315,-0.02299c0,-0.52873 0.18391,-0.9885 0.55172,-1.35631s0.82758,-0.55172 1.35631,-0.55172l8.71256,0l0,-13.37919c0,-0.52873 0.18391,-0.9885 0.55172,-1.35631s0.82758,-0.55172 1.35631,-0.55172s0.9885,0.18391 1.35631,0.55172s0.55172,0.82758 0.55172,1.35631l0,15.33319c0,0.52873 -0.18391,0.9885 -0.55172,1.35631s-0.82758,0.55172 -1.35631,0.55172c-0.22988,0 -0.36781,0 -0.43678,-0.02299l-10.2068,0c-0.52873,0 -0.9885,-0.18391 -1.35631,-0.57471c-0.34482,-0.3908 -0.52873,-0.85057 -0.52873,-1.35631z"/>

<g stroke="midnightblue" stroke-opacity="0.4" stroke-width="0.5" style="filter:url(#drop_shadow);">
  <path fill="blue" d="m17.37943,30.02299c0,-0.52873 0.18391,-0.9885 0.55172,-1.35631s0.82758,-0.55172 1.35631,-0.55172l8.71256,0l0,-13.37919c0,-0.52873 0.18391,-0.9885 0.55172,-1.35631s0.82758,-0.55172 1.35631,-0.55172s0.9885,0.18391 1.35631,0.55172s0.55172,0.82758 0.55172,1.35631l0,15.33319c0,0.52873 -0.18391,0.9885 -0.55172,1.35631s-0.82758,0.55172 -1.35631,0.55172c-0.22988,0 -0.36781,0 -0.43678,-0.02299l-10.2068,0c-0.52873,0 -0.9885,-0.18391 -1.35631,-0.57471c-0.34482,-0.3908 -0.52873,-0.85057 -0.52873,-1.35631l0,0.00001z"/>
  <path fill="red" d="m30.02266,55.50972zm-1.97101,-25.46441c0,0.49841 0.18124,0.95152 0.54372,1.33666c0.36248,0.38514 0.81559,0.56638 1.33666,0.56638c0.49841,0 0.95152,-0.18124 1.33666,-0.56638c0.38514,-0.38514 0.56638,-0.81559 0.56638,-1.33666l0,-15.08835c0,-0.52107 -0.18124,-0.97417 -0.56638,-1.33666s-0.81559,-0.54372 -1.33666,-0.54372c-0.52107,0 -0.97417,0.18124 -1.33666,0.54372s-0.54372,0.81559 -0.54372,1.33666l0,15.08835z"/>

</g>
  <path d="m46.31259,25.7251c-1.22051,7.14799 -8.77858,9.72413 -16.42312,10.89422c-7.65822,1.17219 -16.54284,0.20237 -18.26605,-8.02008c-1.71947,-8.20461 7.01441,-18.57121 18.47796,-18.57121c11.46355,0 17.42792,8.57133 16.21121,15.69706l0,0l0,0z" stroke-dashoffset="0" stroke-miterlimit="4" stroke-linejoin="round" stroke-linecap="round" stroke-width="0.2" fill="url(#linearGradient3206)" fill-opacity="0.7"/>
  <path stroke="midnightblue" stroke-opacity="0.4" stroke-width="2.5"  fill="mediumaquamarine" d="m4.49027,30.04531c0,-4.62166 1.15541,-8.90348 3.44359,-12.82283s5.39193,-7.0231 9.31128,-9.31128s8.17852,-3.42093 12.77752,-3.42093c3.44359,0 6.75124,0.67966 9.90031,2.01631s5.84504,3.17172 8.13321,5.43724s4.10059,4.98414 5.43724,8.15586s2.01631,6.45672 2.01631,9.94562c0,3.44359 -0.67966,6.75124 -2.01631,9.90031s-3.17172,5.86769 -5.43724,8.13321s-4.98414,4.07793 -8.13321,5.41459s-6.43407,2.01631 -9.90031,2.01631c-3.46624,0 -6.79655,-0.67966 -9.94562,-2.01631s-5.86769,-3.17172 -8.15586,-5.43724s-4.07793,-4.98414 -5.43724,-8.11055s-1.99366,-6.43407 -1.99366,-9.90031l-0.00001,0zm5.61848,0c0,5.36928 1.94835,10.03624 5.86769,14.0009c3.91935,3.91935 8.58631,5.86769 14.04621,5.86769c3.57952,0 6.90983,-0.88355 9.94562,-2.67331s5.48255,-4.19121 7.27231,-7.24966s2.69597,-6.3661 2.69597,-9.94562s-0.90621,-6.90983 -2.69597,-9.96828s-4.21386,-5.48255 -7.27231,-7.27231s-6.3661,-2.67331 -9.94562,-2.67331s-6.90983,0.88355 -9.94562,2.67331s-5.48255,4.21386 -7.29497,7.27231s-2.67331,6.38876 -2.67331,9.96828z"/>
</g>
</svg>


