<svg width="60" height="60" xmlns="http://www.w3.org/2000/svg">

  <defs>
    <filter id="drop_shadow" filterUnits="objectBoundingBox" x="-50%" y="-50%" width="200%" height="200%">
      <feDropShadow dx="0.5" dy="0.5" stdDeviation="2" flood-color="black" flood-opacity="0.8" />
    </filter>
    <filter id="blur_shadow" filterUnits="objectBoundingBox" x="-50%" y="-50%" width="200%" height="200%">
      <feGaussianBlur in="SourceGraphic" stdDeviation="3" />
    </filter>
  </defs>

<g fill="black" style="filter:url(#blur_shadow)">
  <path d="m11.37504,30.37249c0,-2.51752 0.48809,-4.93228 1.48996,-7.24429c0.97618,-2.31201 2.31201,-4.29006 3.98179,-5.95984c1.66978,-1.66978 3.67352,-3.00561 5.95984,-4.00748s4.72677,-1.48996 7.26998,-1.48996l3.00561,0c0.41102,0.10276 0.61654,0.35965 0.61654,0.71929l0.10276,2.31201c0.10276,3.33957 1.31014,6.19104 3.62214,8.55443s5.13779,3.62214 8.42598,3.75059l2.18356,0.17982c0.41102,0 0.59085,0.20551 0.59085,0.59085l0,2.59459c0.02569,2.64596 -0.48809,5.13779 -1.48996,7.50118l-5.26624,0c1.31014,-1.90098 2.13218,-4.08455 2.49183,-6.49931c-4.29006,-0.89911 -7.75807,-2.74872 -10.35265,-5.54882s-4.08455,-6.08829 -4.49557,-9.83888c-2.49183,0.12844 -4.75246,0.89911 -6.83327,2.31201c-2.05512,1.41289 -3.67352,3.18543 -4.80384,5.34331c-1.13031,2.15787 -1.69547,4.4185 -1.69547,6.7562c0,2.74872 0.71929,5.24055 2.13218,7.50118l-5.39468,0c-1.02756,-2.41476 -1.54134,-4.90659 -1.54134,-7.52687l0,-0.00001z"/>
  <path d="m12.11971,45.68836c0,-0.74498 0.2312,-1.33583 0.71929,-1.74685c0.4624,-0.4624 1.05325,-0.66791 1.77254,-0.66791l6.7562,0l7.98927,-7.52687c0.25689,-0.20551 0.56516,-0.20551 0.89911,0l8.11771,7.50118l7.11584,0c0.6936,0 1.28445,0.2312 1.77254,0.71929c0.48809,0.4624 0.74498,1.05325 0.74498,1.72116c0,0.6936 -0.25689,1.28445 -0.74498,1.77254c-0.48809,0.48809 -1.07894,0.74498 -1.77254,0.74498l-8.68287,0c-0.25689,0 -0.51378,-0.05138 -0.74498,-0.17982l-6.19104,-5.8314l-6.13966,5.8314c-0.20551,0.12844 -0.43671,0.17982 -0.71929,0.17982l-8.40029,0c-0.6936,0 -1.28445,-0.25689 -1.77254,-0.74498s-0.71929,-1.07894 -0.71929,-1.77254z"/>
</g>

<g>
  <path stroke="midnightblue" stroke-opacity="0.4" stroke-width="2.5" style="filter:url(#drop_shadow)" fill="linen" d="m11.37504,30.37249c0,-2.51752 0.48809,-4.93228 1.48996,-7.24429c0.97618,-2.31201 2.31201,-4.29006 3.98179,-5.95984c1.66978,-1.66978 3.67352,-3.00561 5.95984,-4.00748s4.72677,-1.48996 7.26998,-1.48996l3.00561,0c0.41102,0.10276 0.61654,0.35965 0.61654,0.71929l0.10276,2.31201c0.10276,3.33957 1.31014,6.19104 3.62214,8.55443s5.13779,3.62214 8.42598,3.75059l2.18356,0.17982c0.41102,0 0.59085,0.20551 0.59085,0.59085l0,2.59459c0.02569,2.64596 -0.48809,5.13779 -1.48996,7.50118l-5.26624,0c1.31014,-1.90098 2.13218,-4.08455 2.49183,-6.49931c-4.29006,-0.89911 -7.75807,-2.74872 -10.35265,-5.54882s-4.08455,-6.08829 -4.49557,-9.83888c-2.49183,0.12844 -4.75246,0.89911 -6.83327,2.31201c-2.05512,1.41289 -3.67352,3.18543 -4.80384,5.34331c-1.13031,2.15787 -1.69547,4.4185 -1.69547,6.7562c0,2.74872 0.71929,5.24055 2.13218,7.50118l-5.39468,0c-1.02756,-2.41476 -1.54134,-4.90659 -1.54134,-7.52687l0,-0.00001z"/>

  <path style="filter:url(#blur_shadow)" fill-opacity="0.3" d="m41.86785,37.87368c1.31014,-1.90098 2.13218,-4.08455 2.49183,-6.49931c-4.29006,-0.89911 -7.75807,-2.74872 -10.35265,-5.54882s-4.08455,-6.08829 -4.49557,-9.83888c-2.49183,0.12844 -4.75246,0.89911 -6.83327,2.31201c-2.05512,1.41289 -3.67352,3.18543 -4.80384,5.34331c-1.13031,2.15787 -1.69547,4.4185 -1.69547,6.7562c0,2.74872 0.71929,5.24055 2.13218,7.50118l23.55679,-0.02569z" fill="lightcyan"/>

  <path d="m12.11971,45.68836c0,-0.74498 0.2312,-1.33583 0.71929,-1.74685c0.4624,-0.4624 1.05325,-0.66791 1.77254,-0.66791l6.7562,0l7.98927,-7.52687c0.25689,-0.20551 0.56516,-0.20551 0.89911,0l8.11771,7.50118l7.11584,0c0.6936,0 1.28445,0.2312 1.77254,0.71929c0.48809,0.4624 0.74498,1.05325 0.74498,1.72116c0,0.6936 -0.25689,1.28445 -0.74498,1.77254c-0.48809,0.48809 -1.07894,0.74498 -1.77254,0.74498l-8.68287,0c-0.25689,0 -0.51378,-0.05138 -0.74498,-0.17982l-6.19104,-5.8314l-6.13966,5.8314c-0.20551,0.12844 -0.43671,0.17982 -0.71929,0.17982l-8.40029,0c-0.6936,0 -1.28445,-0.25689 -1.77254,-0.74498s-0.71929,-1.07894 -0.71929,-1.77254z" stroke="midnightblue" stroke-opacity="0.4" stroke-width="1"  fill="seagreen"/>

 </g>
</svg>
