<svg width="60" height="60" xmlns="http://www.w3.org/2000/svg">
  <defs>
    <filter id="drop_shadow" filterUnits="objectBoundingBox" x="-50%" y="-50%" width="200%" height="200%">
      <feDropShadow dx="0.5" dy="0.5" stdDeviation="2" flood-color="black" flood-opacity="0.8" />
    </filter>
    <filter id="blur_shadow" filterUnits="objectBoundingBox" x="-50%" y="-50%" width="200%" height="200%">
      <feGaussianBlur in="SourceGraphic" stdDeviation="3" />
    </filter>
    <filter id="shadow">
      <feDropShadow dx="0.3" dy="0.6" stdDeviation="0.6" flood-color="black"/>
    </filter>
  </defs>
 <g>

<g fill="black" style="filter:url(#blur_shadow)">
   <path d="m4.88681,31.56908c0,-2.78632 0.87224,-5.25766 2.61671,-7.43825c1.74448,-2.18059 3.9493,-3.56164 6.61447,-4.19159c0.75109,-3.29512 2.44711,-6.00875 5.08805,-8.11666s5.69378,-3.17398 9.11004,-3.17398c3.34358,0 6.2995,1.04184 8.91621,3.07706c2.59249,2.05945 4.31273,4.70039 5.11228,7.94706l0.75109,0c2.15637,0 4.16736,0.53303 6.00875,1.57487s3.31935,2.49557 4.38542,4.31273c1.06607,1.81716 1.62333,3.82816 1.62333,5.98452c0,3.24666 -1.11453,6.03298 -3.34358,8.35895s-4.96691,3.56164 -8.18935,3.65855c-0.31497,0 -0.48458,-0.14537 -0.48458,-0.41189l0,-3.22243c0,-0.29075 0.1696,-0.43612 0.48458,-0.43612c2.08368,-0.09692 3.82816,-0.9207 5.28189,-2.47134s2.18059,-3.36781 2.18059,-5.47572s-0.77532,-3.92507 -2.37443,-5.47572c-1.57487,-1.55065 -3.44049,-2.32597 -5.59686,-2.32597l-3.87661,0c-0.29075,0 -0.46035,-0.14537 -0.46035,-0.41189l-0.1696,-1.40527c-0.26652,-2.59249 -1.38104,-4.79731 -3.34358,-6.56601c-1.98676,-1.7687 -4.2885,-2.66517 -6.90522,-2.66517c-2.64094,0 -4.96691,0.87224 -6.92945,2.64094c-1.96254,1.7687 -3.07706,3.9493 -3.34358,6.56601l-0.14537,1.30836c0,0.29075 -0.1696,0.43612 -0.48458,0.43612l-1.28413,0.07269c-1.98676,0.09692 -3.65855,0.89647 -5.06383,2.42288s-2.08368,3.31935 -2.08368,5.3788c0,2.10791 0.72686,3.92507 2.18059,5.47572s3.22243,2.37443 5.28189,2.47134c0.26652,0 0.41189,0.14537 0.41189,0.43612l0,3.22243c0,0.26652 -0.14537,0.41189 -0.41189,0.41189c-3.24666,-0.14537 -5.98452,-1.38104 -8.2378,-3.70701s-3.31935,-5.0396 -3.31935,-8.26203l0.00004,0.00001z"/>
  <path d="m18.001865,49.109142c0.219701,0.512636 0.610281,0.903216 1.122918,1.122917c0.488225,0.244113 1.000861,0.268524 1.513498,0.048823c0.537048,-0.219701 0.878805,-0.58587 1.098507,-1.098507c0.244112,-0.537047 0.268523,-1.049684 0.048822,-1.56232c-0.19529,-0.512637 -0.58587,-0.854394 -1.098507,-1.074096c-0.488225,-0.268523 -0.97645,-0.292935 -1.489086,-0.073233c-0.512637,0.219701 -0.878806,0.58587 -1.122918,1.147329c-0.268524,0.414991 -0.268524,0.903216 -0.073234,1.489087zm1.537909,-6.883975c0,0.39058 0.122057,0.756749 0.366169,1.098506c0.244113,0.366169 0.634693,0.610282 1.122918,0.78116c0.463814,0.268524 0.97645,0.292936 1.513498,0.024412c0.537048,-0.244113 0.903217,-0.732338 1.074095,-1.464676l2.197014,-8.251005c0.146467,-0.610282 0.097645,-1.147329 -0.19529,-1.635555c-0.292935,-0.488225 -0.707927,-0.78116 -1.293797,-0.878805c-0.19529,-0.048822 -0.39058,-0.073234 -0.58587,-0.073234c-0.39058,0 -0.781161,0.122057 -1.147329,0.366169c-0.366169,0.244113 -0.634693,0.610282 -0.781161,1.074096l-2.14819,8.275416c-0.097645,0.39058 -0.122057,0.610282 -0.122057,0.683516zm4.540494,13.645893c0,0.292935 0.048823,0.537048 0.146468,0.707927c0.219701,0.537047 0.58587,0.903216 1.098507,1.098506c0.219701,0.122057 0.488225,0.19529 0.805571,0.19529c0.146468,0 0.39058,-0.048822 0.732338,-0.146467c0.537048,-0.19529 0.927628,-0.561459 1.147329,-1.098507c0.244113,-0.537047 0.244113,-1.074095 0,-1.611143c-0.244113,-0.537048 -0.610281,-0.903216 -1.098507,-1.122918c-0.488225,-0.219701 -0.97645,-0.219701 -1.513498,0c-0.463814,0.19529 -0.78116,0.488225 -1.000861,0.878806c-0.219702,0.39058 -0.317347,0.756749 -0.317347,1.098506zm1.782022,-6.371338c0,0.903216 0.512637,1.489086 1.53791,1.782022c0.268523,0.073233 0.463813,0.097645 0.58587,0.097645c0.366169,0 0.683515,-0.073234 0.927628,-0.19529c0.512636,-0.195291 0.854394,-0.659104 1.025272,-1.391442l4.076681,-15.354682c0.146467,-0.58587 0.097645,-1.098507 -0.146468,-1.586732c-0.244112,-0.463814 -0.659104,-0.78116 -1.196152,-0.927628c-0.19529,-0.048822 -0.414991,-0.073233 -0.659104,-0.073233c-0.39058,0 -0.78116,0.122056 -1.17174,0.366169c-0.39058,0.244112 -0.634693,0.610281 -0.732338,1.074095l-4.174325,15.476738c-0.048822,0.341758 -0.073234,0.58587 -0.073234,0.732338zm8.373062,-1.122918c0,0.292935 0.048823,0.561459 0.19529,0.78116c0.19529,0.463814 0.561459,0.829983 1.074095,1.074095c0.268524,0.097645 0.561459,0.170879 0.854394,0.170879c0.146468,0 0.390581,-0.048822 0.732338,-0.146467c0.512637,-0.19529 0.903217,-0.561459 1.122918,-1.074096c0.170879,-0.537047 0.170879,-1.049684 -0.024411,-1.537909c-0.19529,-0.488225 -0.537048,-0.854394 -1.025273,-1.098507c-0.561459,-0.268523 -1.074095,-0.292935 -1.586732,-0.073233c-0.512636,0.219701 -0.878805,0.58587 -1.122918,1.147329c-0.146467,0.244112 -0.219701,0.488225 -0.219701,0.756749zm1.782022,-6.273694c0,0.341758 0.122056,0.707927 0.39058,1.098507c0.268524,0.39058 0.634693,0.659104 1.098507,0.805571c0.39058,0.073234 0.610281,0.122057 0.659104,0.122057c0.219701,0 0.537047,-0.073234 0.903216,-0.244113c0.488225,-0.219701 0.805572,-0.659104 0.976451,-1.269385l2.197013,-8.153361c0.048822,-0.414991 0.073234,-0.634692 0.073234,-0.634692c0,-0.390581 -0.122057,-0.756749 -0.366169,-1.122918c-0.244113,-0.366169 -0.610282,-0.610282 -1.098507,-0.756749c-0.219701,-0.048823 -0.439403,-0.073234 -0.634693,-0.073234c-0.39058,0 -0.78116,0.122056 -1.147329,0.366169s-0.610281,0.610281 -0.756749,1.098506l-2.197013,8.202183l-0.097645,0.561459z"/>
</g>

  <path style="filter:url(#blur_shadow)" d="m10.066166,32.181258c0,2.045769 0.753701,3.82236 2.207284,5.275943s3.25709,2.207284 5.3567,2.207284l24.979961,0c2.072695,0 3.876202,-0.726786 5.3567,-2.207284c1.480498,-1.480498 2.2342,-3.230163 2.2342,-5.275943c0,-2.045769 -0.726786,-3.82236 -2.2342,-5.275943c-1.480498,-1.453572 -3.25709,-2.207284 -5.3567,-2.207284l-3.741613,0c-0.269177,0 -0.403766,-0.134589 -0.403766,-0.403766l-0.188431,-1.318983c-0.269177,-2.530304 -1.345898,-4.65683 -3.203247,-6.325748s-4.064633,-2.503377 -6.594925,-2.503377c-2.530304,0 -4.737577,0.834459 -6.621841,2.530304c-1.884264,1.668918 -2.93407,3.795444 -3.176332,6.298833l-0.188431,1.130563c0,0.269177 -0.134589,0.403766 -0.430693,0.403766l-1.21131,0.188431c-1.938095,0.161504 -3.553182,0.969048 -4.872165,2.395704c-1.238236,1.426656 -1.91118,3.122501 -1.91118,5.087512l-0.000011,-0.000011z" fill-opacity="0.2" fill="paleturquoise"/>
<g  style="filter:url(#drop_shadow)"  stroke="midnightblue" stroke-opacity="0.4">
   <path stroke-width="2.5" stroke="midnightblue" stroke-opacity="0.4" fill="linen" d="m4.88681,31.56908c0,-2.78632 0.87224,-5.25766 2.61671,-7.43825c1.74448,-2.18059 3.9493,-3.56164 6.61447,-4.19159c0.75109,-3.29512 2.44711,-6.00875 5.08805,-8.11666s5.69378,-3.17398 9.11004,-3.17398c3.34358,0 6.2995,1.04184 8.91621,3.07706c2.59249,2.05945 4.31273,4.70039 5.11228,7.94706l0.75109,0c2.15637,0 4.16736,0.53303 6.00875,1.57487s3.31935,2.49557 4.38542,4.31273c1.06607,1.81716 1.62333,3.82816 1.62333,5.98452c0,3.24666 -1.11453,6.03298 -3.34358,8.35895s-4.96691,3.56164 -8.18935,3.65855c-0.31497,0 -0.48458,-0.14537 -0.48458,-0.41189l0,-3.22243c0,-0.29075 0.1696,-0.43612 0.48458,-0.43612c2.08368,-0.09692 3.82816,-0.9207 5.28189,-2.47134s2.18059,-3.36781 2.18059,-5.47572s-0.77532,-3.92507 -2.37443,-5.47572c-1.57487,-1.55065 -3.44049,-2.32597 -5.59686,-2.32597l-3.87661,0c-0.29075,0 -0.46035,-0.14537 -0.46035,-0.41189l-0.1696,-1.40527c-0.26652,-2.59249 -1.38104,-4.79731 -3.34358,-6.56601c-1.98676,-1.7687 -4.2885,-2.66517 -6.90522,-2.66517c-2.64094,0 -4.96691,0.87224 -6.92945,2.64094c-1.96254,1.7687 -3.07706,3.9493 -3.34358,6.56601l-0.14537,1.30836c0,0.29075 -0.1696,0.43612 -0.48458,0.43612l-1.28413,0.07269c-1.98676,0.09692 -3.65855,0.89647 -5.06383,2.42288s-2.08368,3.31935 -2.08368,5.3788c0,2.10791 0.72686,3.92507 2.18059,5.47572s3.22243,2.37443 5.28189,2.47134c0.26652,0 0.41189,0.14537 0.41189,0.43612l0,3.22243c0,0.26652 -0.14537,0.41189 -0.41189,0.41189c-3.24666,-0.14537 -5.98452,-1.38104 -8.2378,-3.70701s-3.31935,-5.0396 -3.31935,-8.26203l0.00004,0.00001z"/>
  <path fill="lightgrey" stroke-width="1" d="m18.001865,49.109142c0.219701,0.512636 0.610281,0.903216 1.122918,1.122917c0.488225,0.244113 1.000861,0.268524 1.513498,0.048823c0.537048,-0.219701 0.878805,-0.58587 1.098507,-1.098507c0.244112,-0.537047 0.268523,-1.049684 0.048822,-1.56232c-0.19529,-0.512637 -0.58587,-0.854394 -1.098507,-1.074096c-0.488225,-0.268523 -0.97645,-0.292935 -1.489086,-0.073233c-0.512637,0.219701 -0.878806,0.58587 -1.122918,1.147329c-0.268524,0.414991 -0.268524,0.903216 -0.073234,1.489087zm1.537909,-6.883975c0,0.39058 0.122057,0.756749 0.366169,1.098506c0.244113,0.366169 0.634693,0.610282 1.122918,0.78116c0.463814,0.268524 0.97645,0.292936 1.513498,0.024412c0.537048,-0.244113 0.903217,-0.732338 1.074095,-1.464676l2.197014,-8.251005c0.146467,-0.610282 0.097645,-1.147329 -0.19529,-1.635555c-0.292935,-0.488225 -0.707927,-0.78116 -1.293797,-0.878805c-0.19529,-0.048822 -0.39058,-0.073234 -0.58587,-0.073234c-0.39058,0 -0.781161,0.122057 -1.147329,0.366169c-0.366169,0.244113 -0.634693,0.610282 -0.781161,1.074096l-2.14819,8.275416c-0.097645,0.39058 -0.122057,0.610282 -0.122057,0.683516zm4.540494,13.645893c0,0.292935 0.048823,0.537048 0.146468,0.707927c0.219701,0.537047 0.58587,0.903216 1.098507,1.098506c0.219701,0.122057 0.488225,0.19529 0.805571,0.19529c0.146468,0 0.39058,-0.048822 0.732338,-0.146467c0.537048,-0.19529 0.927628,-0.561459 1.147329,-1.098507c0.244113,-0.537047 0.244113,-1.074095 0,-1.611143c-0.244113,-0.537048 -0.610281,-0.903216 -1.098507,-1.122918c-0.488225,-0.219701 -0.97645,-0.219701 -1.513498,0c-0.463814,0.19529 -0.78116,0.488225 -1.000861,0.878806c-0.219702,0.39058 -0.317347,0.756749 -0.317347,1.098506zm1.782022,-6.371338c0,0.903216 0.512637,1.489086 1.53791,1.782022c0.268523,0.073233 0.463813,0.097645 0.58587,0.097645c0.366169,0 0.683515,-0.073234 0.927628,-0.19529c0.512636,-0.195291 0.854394,-0.659104 1.025272,-1.391442l4.076681,-15.354682c0.146467,-0.58587 0.097645,-1.098507 -0.146468,-1.586732c-0.244112,-0.463814 -0.659104,-0.78116 -1.196152,-0.927628c-0.19529,-0.048822 -0.414991,-0.073233 -0.659104,-0.073233c-0.39058,0 -0.78116,0.122056 -1.17174,0.366169c-0.39058,0.244112 -0.634693,0.610281 -0.732338,1.074095l-4.174325,15.476738c-0.048822,0.341758 -0.073234,0.58587 -0.073234,0.732338zm8.373062,-1.122918c0,0.292935 0.048823,0.561459 0.19529,0.78116c0.19529,0.463814 0.561459,0.829983 1.074095,1.074095c0.268524,0.097645 0.561459,0.170879 0.854394,0.170879c0.146468,0 0.390581,-0.048822 0.732338,-0.146467c0.512637,-0.19529 0.903217,-0.561459 1.122918,-1.074096c0.170879,-0.537047 0.170879,-1.049684 -0.024411,-1.537909c-0.19529,-0.488225 -0.537048,-0.854394 -1.025273,-1.098507c-0.561459,-0.268523 -1.074095,-0.292935 -1.586732,-0.073233c-0.512636,0.219701 -0.878805,0.58587 -1.122918,1.147329c-0.146467,0.244112 -0.219701,0.488225 -0.219701,0.756749zm1.782022,-6.273694c0,0.341758 0.122056,0.707927 0.39058,1.098507c0.268524,0.39058 0.634693,0.659104 1.098507,0.805571c0.39058,0.073234 0.610281,0.122057 0.659104,0.122057c0.219701,0 0.537047,-0.073234 0.903216,-0.244113c0.488225,-0.219701 0.805572,-0.659104 0.976451,-1.269385l2.197013,-8.153361c0.048822,-0.414991 0.073234,-0.634692 0.073234,-0.634692c0,-0.390581 -0.122057,-0.756749 -0.366169,-1.122918c-0.244113,-0.366169 -0.610282,-0.610282 -1.098507,-0.756749c-0.219701,-0.048823 -0.439403,-0.073234 -0.634693,-0.073234c-0.39058,0 -0.78116,0.122056 -1.147329,0.366169s-0.610281,0.610281 -0.756749,1.098506l-2.197013,8.202183l-0.097645,0.561459z"/>
  </g>
</g>
</svg>

