<svg width="60" height="60" xmlns="http://www.w3.org/2000/svg">
  <path  fill="white" stroke-width="2.5" stroke-opacity="0.4" stroke="midnightblue" d="m7.59,30.044612c0,-0.565083 0.208188,-1.070683 0.594824,-1.48706c0.386636,-0.416377 0.862495,-0.624565 1.427578,-0.624565c0.565083,0 1.070683,0.208188 1.457319,0.624565c0.386636,0.416377 0.594824,0.892236 0.594824,1.48706c0,0.565083 -0.208188,1.040942 -0.594824,1.427578c-0.386636,0.386636 -0.892236,0.594824 -1.427578,0.594824s-1.040942,-0.208188 -1.427578,-0.594824c-0.446118,-0.416377 -0.624565,-0.892236 -0.624565,-1.427578zm5.888759,0c0,-0.565083 0.208188,-1.070683 0.594824,-1.48706c0.386636,-0.416377 0.862495,-0.624565 1.427578,-0.624565l9.60641,0l-6.780995,-6.780995c-0.416377,-0.356894 -0.624565,-0.832754 -0.624565,-1.397837c0,-0.565083 0.208188,-1.040942 0.624565,-1.457319c0.416377,-0.416377 0.892236,-0.624565 1.457319,-0.624565s1.040942,0.208188 1.457319,0.624565l6.751254,6.751254l0,-9.546927c0,-0.565083 0.208188,-1.070683 0.624565,-1.48706s0.892236,-0.624565 1.48706,-0.624565c0.565083,0 1.040942,0.208188 1.427578,0.624565c0.386636,0.416377 0.594824,0.892236 0.594824,1.48706l0,9.60641l6.810736,-6.840477c0.416377,-0.416377 0.892236,-0.624565 1.427578,-0.624565c0.535342,0 1.040942,0.208188 1.457319,0.624565c0.356894,0.416377 0.535342,0.892236 0.535342,1.457319c0,0.565083 -0.178447,1.040942 -0.535342,1.397837l-6.780995,6.780995l9.60641,0c0.535342,0 1.011201,0.208188 1.397837,0.624565c0.386636,0.416377 0.594824,0.892236 0.594824,1.48706c0,0.535342 -0.208188,1.011201 -0.594824,1.397837c-0.386636,0.386636 -0.862495,0.594824 -1.397837,0.594824l-9.60641,0l6.810736,6.810736c0.356894,0.356894 0.535342,0.832754 0.535342,1.397837s-0.178447,1.040942 -0.535342,1.457319c-0.416377,0.416377 -0.921977,0.624565 -1.457319,0.624565c-0.535342,0 -1.040942,-0.208188 -1.427578,-0.624565l-6.810736,-6.840477l0,9.636151c0,0.565083 -0.208188,1.070683 -0.594824,1.457319c-0.386636,0.386636 -0.862495,0.594824 -1.427578,0.594824c-0.565083,0 -1.070683,-0.208188 -1.48706,-0.594824c-0.416377,-0.386636 -0.624565,-0.892236 -0.624565,-1.457319l0,-9.576668l-6.751254,6.751254c-0.416377,0.416377 -0.892236,0.624565 -1.457319,0.624565s-1.040942,-0.208188 -1.457319,-0.624565s-0.624565,-0.892236 -0.624565,-1.457319s0.208188,-1.011201 0.624565,-1.397837l6.840477,-6.810736l-9.636151,0c-0.565083,0 -1.040942,-0.208188 -1.427578,-0.594824c-0.475859,-0.327153 -0.654307,-0.803013 -0.654307,-1.338354l0.000001,-0.000003zm0.029741,14.394744c0,-0.535342 0.208188,-1.040942 0.624565,-1.427578c0.356894,-0.416377 0.832754,-0.624565 1.397837,-0.624565c0.565083,0 1.040942,0.208188 1.457319,0.624565c0.416377,0.416377 0.624565,0.892236 0.624565,1.427578c0,0.535342 -0.208188,1.040942 -0.624565,1.427578c-0.416377,0.416377 -0.892236,0.624565 -1.457319,0.624565c-0.565083,0 -1.040942,-0.208188 -1.397837,-0.624565c-0.416377,-0.386636 -0.624565,-0.862495 -0.624565,-1.427578zm0,-28.878711c0,-0.535342 0.208188,-1.040942 0.624565,-1.427578c0.356894,-0.416377 0.832754,-0.624565 1.397837,-0.624565c0.565083,0 1.040942,0.208188 1.457319,0.624565c0.416377,0.416377 0.624565,0.892236 0.624565,1.427578s-0.208188,1.040942 -0.624565,1.457319c-0.416377,0.416377 -0.892236,0.624565 -1.457319,0.624565c-0.565083,0 -1.040942,-0.208188 -1.397837,-0.624565c-0.416377,-0.416377 -0.624565,-0.921977 -0.624565,-1.457319zm14.424485,34.826952c0,-0.535342 0.208188,-1.011201 0.624565,-1.397837c0.416377,-0.386636 0.892236,-0.594824 1.48706,-0.594824c0.565083,0 1.040942,0.208188 1.427578,0.594824c0.386636,0.386636 0.594824,0.862495 0.594824,1.397837c0,0.565083 -0.208188,1.070683 -0.594824,1.457319c-0.386636,0.386636 -0.862495,0.594824 -1.427578,0.594824c-0.565083,0 -1.070683,-0.208188 -1.48706,-0.594824c-0.416377,-0.386636 -0.624565,-0.862495 -0.624565,-1.457319zm0,-40.775194c0,-0.565083 0.208188,-1.070683 0.624565,-1.457319s0.892236,-0.594824 1.48706,-0.594824c0.565083,0 1.040942,0.208188 1.427578,0.594824c0.386636,0.386636 0.594824,0.892236 0.594824,1.457319c0,0.535342 -0.208188,1.011201 -0.594824,1.397837c-0.386636,0.386636 -0.862495,0.594824 -1.427578,0.594824c-0.565083,0 -1.070683,-0.208188 -1.48706,-0.594824c-0.416377,-0.386636 -0.624565,-0.862495 -0.624565,-1.397837zm14.483967,34.826952c0,-0.535342 0.208188,-1.040942 0.624565,-1.427578c0.356894,-0.416377 0.832754,-0.624565 1.397837,-0.624565c0.565083,0 1.040942,0.208188 1.457319,0.624565c0.416377,0.416377 0.624565,0.892236 0.624565,1.427578c0,0.535342 -0.208188,1.040942 -0.624565,1.427578c-0.416377,0.416377 -0.892236,0.624565 -1.457319,0.624565c-0.565083,0 -1.040942,-0.208188 -1.397837,-0.624565c-0.416377,-0.386636 -0.624565,-0.862495 -0.624565,-1.427578zm0,-28.878711c0,-0.535342 0.208188,-1.040942 0.624565,-1.427578c0.356894,-0.416377 0.832754,-0.624565 1.397837,-0.624565c0.565083,0 1.040942,0.208188 1.457319,0.624565c0.416377,0.416377 0.624565,0.892236 0.624565,1.427578s-0.208188,1.040942 -0.624565,1.457319c-0.416377,0.416377 -0.892236,0.624565 -1.457319,0.624565c-0.565083,0 -1.040942,-0.208188 -1.397837,-0.624565c-0.416377,-0.416377 -0.624565,-0.921977 -0.624565,-1.457319zm5.948241,14.483967c0,-0.565083 0.208188,-1.070683 0.594824,-1.48706c0.386636,-0.416377 0.892236,-0.624565 1.457319,-0.624565c0.535342,0 1.011201,0.208188 1.397837,0.624565c0.386636,0.416377 0.594824,0.892236 0.594824,1.48706c0,0.535342 -0.208188,1.011201 -0.594824,1.397837c-0.386636,0.386636 -0.862495,0.594824 -1.397837,0.594824c-0.565083,0 -1.070683,-0.208188 -1.457319,-0.594824c-0.386636,-0.386636 -0.594824,-0.862495 -0.594824,-1.397837z"/>
  <path fill="lightgrey" stroke-width="1" stroke-opacity="0.4" stroke="midnightblue"  d="m7.59,30.044612c0,-0.565083 0.208188,-1.070683 0.594824,-1.48706c0.386636,-0.416377 0.862495,-0.624565 1.427578,-0.624565c0.565083,0 1.070683,0.208188 1.457319,0.624565c0.386636,0.416377 0.594824,0.892236 0.594824,1.48706c0,0.565083 -0.208188,1.040942 -0.594824,1.427578c-0.386636,0.386636 -0.892236,0.594824 -1.427578,0.594824s-1.040942,-0.208188 -1.427578,-0.594824c-0.446118,-0.416377 -0.624565,-0.892236 -0.624565,-1.427578zm5.9185,14.394744c0,-0.535342 0.208188,-1.040942 0.624565,-1.427578c0.356894,-0.416377 0.832754,-0.624565 1.397837,-0.624565c0.565083,0 1.040942,0.208188 1.457319,0.624565c0.416377,0.416377 0.624565,0.892236 0.624565,1.427578c0,0.535342 -0.208188,1.040942 -0.624565,1.427578c-0.416377,0.416377 -0.892236,0.624565 -1.457319,0.624565c-0.565083,0 -1.040942,-0.208188 -1.397837,-0.624565c-0.416377,-0.386636 -0.624565,-0.862495 -0.624565,-1.427578zm0,-28.878711c0,-0.535342 0.208188,-1.040942 0.624565,-1.427578c0.356894,-0.416377 0.832754,-0.624565 1.397837,-0.624565c0.565083,0 1.040942,0.208188 1.457319,0.624565c0.416377,0.416377 0.624565,0.892236 0.624565,1.427578s-0.208188,1.040942 -0.624565,1.457319c-0.416377,0.416377 -0.892236,0.624565 -1.457319,0.624565c-0.565083,0 -1.040942,-0.208188 -1.397837,-0.624565c-0.416377,-0.416377 -0.624565,-0.921977 -0.624565,-1.457319zm14.424485,34.826952c0,-0.535342 0.208188,-1.011201 0.624565,-1.397837c0.416377,-0.386636 0.892236,-0.594824 1.48706,-0.594824c0.565083,0 1.040942,0.208188 1.427578,0.594824c0.386636,0.386636 0.594824,0.862495 0.594824,1.397837c0,0.565083 -0.208188,1.070683 -0.594824,1.457319c-0.386636,0.386636 -0.862495,0.594824 -1.427578,0.594824c-0.565083,0 -1.070683,-0.208188 -1.48706,-0.594824c-0.416377,-0.386636 -0.624565,-0.862495 -0.624565,-1.457319zm0,-40.775194c0,-0.565083 0.208188,-1.070683 0.624565,-1.457319s0.892236,-0.594824 1.48706,-0.594824c0.565083,0 1.040942,0.208188 1.427578,0.594824c0.386636,0.386636 0.594824,0.892236 0.594824,1.457319c0,0.535342 -0.208188,1.011201 -0.594824,1.397837c-0.386636,0.386636 -0.862495,0.594824 -1.427578,0.594824c-0.565083,0 -1.070683,-0.208188 -1.48706,-0.594824c-0.416377,-0.386636 -0.624565,-0.862495 -0.624565,-1.397837zm14.483967,34.826952c0,-0.535342 0.208188,-1.040942 0.624565,-1.427578c0.356894,-0.416377 0.832754,-0.624565 1.397837,-0.624565c0.565083,0 1.040942,0.208188 1.457319,0.624565c0.416377,0.416377 0.624565,0.892236 0.624565,1.427578c0,0.535342 -0.208188,1.040942 -0.624565,1.427578c-0.416377,0.416377 -0.892236,0.624565 -1.457319,0.624565c-0.565083,0 -1.040942,-0.208188 -1.397837,-0.624565c-0.416377,-0.386636 -0.624565,-0.862495 -0.624565,-1.427578zm0,-28.878711c0,-0.535342 0.208188,-1.040942 0.624565,-1.427578c0.356894,-0.416377 0.832754,-0.624565 1.397837,-0.624565c0.565083,0 1.040942,0.208188 1.457319,0.624565c0.416377,0.416377 0.624565,0.892236 0.624565,1.427578s-0.208188,1.040942 -0.624565,1.457319c-0.416377,0.416377 -0.892236,0.624565 -1.457319,0.624565c-0.565083,0 -1.040942,-0.208188 -1.397837,-0.624565c-0.416377,-0.416377 -0.624565,-0.921977 -0.624565,-1.457319zm5.948241,14.483967c0,-0.565083 0.208188,-1.070683 0.594824,-1.48706c0.386636,-0.416377 0.892236,-0.624565 1.457319,-0.624565c0.535342,0 1.011201,0.208188 1.397837,0.624565c0.386636,0.416377 0.594824,0.892236 0.594824,1.48706c0,0.535342 -0.208188,1.011201 -0.594824,1.397837c-0.386636,0.386636 -0.862495,0.594824 -1.397837,0.594824c-0.565083,0 -1.070683,-0.208188 -1.457319,-0.594824c-0.386636,-0.386636 -0.594824,-0.862495 -0.594824,-1.397837z"/>
</svg>
