<svg width="60" height="60" xmlns="http://www.w3.org/2000/svg">

  <defs>
    <filter id="drop_shadow" filterUnits="objectBoundingBox" x="-50%" y="-50%" width="200%" height="200%">
      <feDropShadow dx="0.5" dy="0.5" stdDeviation="2" flood-color="black" flood-opacity="0.8" />
    </filter>
    <filter id="blur_shadow" filterUnits="objectBoundingBox" x="-50%" y="-50%" width="200%" height="200%">
      <feGaussianBlur in="SourceGraphic" stdDeviation="3" />
    </filter>
    <filter id="shadow">
      <feDropShadow dx="0.3" dy="0.6" stdDeviation="0.6" flood-color="black"/>
    </filter>
  </defs>

<g fill="black" style="filter:url(#blur_shadow)">
<path d="m8.28958,33.77713c0,1.34775 0.24505,2.61382 0.77598,3.83904s1.20481,2.26667 2.08288,3.16517s1.91952,1.61321 3.10391,2.14415s2.47087,0.85766 3.81862,0.91892c0.24505,0 0.36757,-0.12252 0.36757,-0.34715l0,-2.73634c0,-0.22462 -0.12252,-0.34715 -0.36757,-0.34715c-1.77658,-0.12252 -3.26727,-0.83724 -4.47208,-2.10331c-1.20481,-1.26607 -1.81742,-2.7976 -1.81742,-4.53334c0,-1.71532 0.57177,-3.20601 1.73574,-4.45166c1.16397,-1.26607 2.57298,-1.98078 4.28829,-2.12373l1.06186,-0.12252c0.24505,0 0.38799,-0.12252 0.38799,-0.36757l0.16336,-1.06186c0.14294,-1.44985 0.61261,-2.77718 1.40901,-3.96157s1.83784,-2.12373 3.10391,-2.77718s2.63424,-1.0006 4.12493,-1.0006c2.22583,0 4.16577,0.73514 5.81983,2.20541c1.65406,1.47027 2.5934,3.30811 2.83844,5.4931l0.14294,1.18439c0,0.22462 0.12252,0.34715 0.38799,0.34715l3.26727,0c1.83784,0 3.41021,0.65345 4.73754,1.96036c1.30691,1.30691 1.98078,2.85886 1.98078,4.67628c0,1.75616 -0.61261,3.26727 -1.81742,4.53334c-1.20481,1.26607 -2.71592,1.98078 -4.47208,2.10331c-0.26547,0 -0.40841,0.12252 -0.40841,0.34715l0,2.73634c0,0.22462 0.14294,0.34715 0.40841,0.34715c2.73634,-0.12252 5.04385,-1.16397 6.90211,-3.08349c1.797,-1.93994 2.73634,-4.26787 2.73634,-6.98379c0,-1.30691 -0.32673,-2.6955 -0.95976,-4.20661c1.61321,-2.02162 2.43003,-4.24745 2.43003,-6.67748c0,-1.93994 -0.49009,-3.73694 -1.44985,-5.37058c-0.95976,-1.65406 -2.26667,-2.94054 -3.9003,-3.9003s-3.43063,-1.42943 -5.35016,-1.42943c-3.24685,0 -5.88109,1.18439 -7.90271,3.53274c-1.65406,-0.87808 -3.47147,-1.30691 -5.43184,-1.30691c-2.87928,0 -5.43184,0.8985 -7.65767,2.6955s-3.65526,4.08409 -4.28829,6.88169c-2.28709,0.53093 -4.14535,1.6949 -5.5952,3.51232c-1.47027,1.81742 -2.18499,3.9003 -2.18499,6.26908zm15.62164,9.43424c-0.04084,0.28589 0.04084,0.42883 0.28589,0.42883l4.43124,0l-2.6955,8.51532l0.59219,0l8.53574,-11.39461c0.08168,-0.08168 0.1021,-0.18378 0.04084,-0.28589s-0.14294,-0.14294 -0.28589,-0.14294l-4.45166,0l4.6967,-8.65827c0.14294,-0.28589 0.06126,-0.44925 -0.28589,-0.44925l-6.00361,0c-0.16336,0 -0.28589,0.1021 -0.42883,0.28589l-4.43124,11.70091zm12.37479,-25.52555c1.36817,-1.34775 3.04265,-2.02162 5.04385,-2.02162c2.0012,0 3.6961,0.69429 5.10511,2.10331c1.40901,1.38859 2.10331,3.10391 2.10331,5.12553c0,1.20481 -0.34715,2.43003 -1.06186,3.67568c-1.98078,-1.8991 -4.32913,-2.85886 -7.04505,-2.85886l-0.63303,0c-0.57177,-2.43003 -1.75616,-4.43124 -3.51232,-6.02403z"/>
</g>

<circle style="filter:url(#blur_shadow);" fill-opacity="0.2" fill="lightcyan" cy="22.12474" cx="41.62453" r="6.87506"/>
<g stroke-width="2.5" stroke-opacity="0.4" stroke="midnightblue">


  <path id="backmoonfill" stroke-width="0" fill="paleturquoise" filter="url(#blur_shadow)"  fill-opacity="0.3"  d="m25.48778,9.91023zm10.5548,7.86436c1.428,-1.38661 3.12505,-2.06957 5.07044,-2.06957c2.04887,0 3.78731,0.70365 5.21531,2.13166c1.428,1.428 2.15235,3.14574 2.15235,5.19462c0,1.28313 -0.35183,2.56626 -1.05548,3.80801c-2.00748,-1.98679 -4.40818,-2.98018 -7.22279,-2.98018l-0.66226,0c-0.51739,-2.25583 -1.67635,-4.28401 -3.49757,-6.08453l0,-0.00001z"/>

  <path stroke-width="0" filter="url(#blur_shadow)" fill="paleturquoise" fill-opacity="0.3" d="m11.43267,33.85888c0,1.81002 0.66685,3.38188 1.95292,4.66796s2.88175,1.95292 4.73941,1.95292l22.10135,0c1.83385,0 3.42952,-0.64303 4.73941,-1.95292c1.30989,-1.30989 1.97674,-2.85793 1.97674,-4.66796c0,-1.81002 -0.64303,-3.38188 -1.97674,-4.66796c-1.30989,-1.28607 -2.88175,-1.95292 -4.73941,-1.95292l-3.31044,0c-0.23816,0 -0.35724,-0.11908 -0.35724,-0.35724l-0.16671,-1.16699c-0.23816,-2.23872 -1.19081,-4.1202 -2.83411,-5.59679s-3.59624,-2.2149 -5.83495,-2.2149c-2.23872,0 -4.19163,0.7383 -5.85877,2.23872c-1.66713,1.4766 -2.59596,3.35807 -2.8103,5.57298l-0.16671,1.00028c0,0.23816 -0.11908,0.35724 -0.38106,0.35724l-1.07172,0.16671c-1.71476,0.14289 -3.14373,0.85738 -4.31071,2.11963c-1.09554,1.26226 -1.69095,2.76268 -1.69095,4.50125l-0.00001,-0.00001l-0.00001,0z"/>
  <path  fill="linen" d="m8.0375,33.75392c0,2.71091 0.95799,5.05494 2.8536,7.01169s4.21924,2.99628 6.93016,3.11858c0.24459,0 0.36689,-0.1223 0.36689,-0.34651l0,-2.7313c0,-0.22421 -0.1223,-0.3465 -0.36689,-0.3465c-1.75292,-0.10192 -3.24087,-0.79493 -4.46384,-2.09943c-1.22297,-1.3045 -1.83445,-2.83322 -1.83445,-4.60652c0,-1.69178 0.57072,-3.15934 1.73254,-4.42307c1.16182,-1.24336 2.58862,-1.97714 4.2804,-2.18096l1.08029,-0.08153c0.26498,0 0.40765,-0.1223 0.40765,-0.3669l0.14268,-1.10067c0.22421,-2.20135 1.14144,-4.05618 2.79245,-5.54413c1.65101,-1.48794 3.58738,-2.24211 5.80911,-2.24211c2.22173,0 4.1581,0.75416 5.82949,2.24211c1.67139,1.48795 2.60901,3.34278 2.8536,5.54413l0.16306,1.16182c0,0.24459 0.1223,0.38728 0.34651,0.38728l3.30202,0c1.85483,0 3.42431,0.65225 4.7492,1.93636c1.3045,1.28412 1.97714,2.8536 1.97714,4.64729c0,1.75292 -0.61149,3.28164 -1.85484,4.58614c-1.24335,1.30449 -2.7313,2.01789 -4.46384,2.11981c-0.24459,0 -0.38728,0.1223 -0.38728,0.34651l0,2.73129c0,0.22421 0.1223,0.34651 0.38728,0.34651c2.7313,-0.08153 5.03456,-1.12105 6.93016,-3.0778c1.89561,-1.97714 2.83322,-4.32116 2.83322,-7.03208c0,-1.44719 -0.28537,-2.81283 -0.87646,-4.09695c1.61024,-1.95676 2.40517,-4.21925 2.40517,-6.76711c0,-1.93636 -0.48919,-3.73005 -1.44718,-5.38106s-2.26249,-2.95551 -3.91351,-3.9135s-3.42431,-1.4268 -5.3403,-1.4268c-3.15934,0 -5.80911,1.1822 -7.92893,3.52622c-1.651,-0.87646 -3.48546,-1.32488 -5.52375,-1.32488c-2.87398,0 -5.44221,0.89685 -7.66394,2.69054s-3.66892,4.07656 -4.30078,6.84863c-2.26249,0.52995 -4.11733,1.71216 -5.58489,3.54661c-1.48794,1.85484 -2.22173,3.95427 -2.22173,6.2983l0,0zm28.12831,-16.04129c1.38603,-1.38603 3.05743,-2.05867 5.05494,-2.05867c1.99752,0 3.68929,0.7134 5.09571,2.11982s2.09943,3.11857 2.09943,5.13647c0,1.20258 -0.34651,2.44594 -1.03952,3.75044c-1.95676,-1.95675 -4.34155,-2.93513 -7.134,-2.93513l-0.63187,0c-0.57072,-2.38479 -1.73254,-4.38231 -3.44469,-6.01293l0,0z"/>
  <path fill="bisque" stroke-width="1"  d="m45.41393,38.31046zm-21.50271,4.90091c-0.04084,0.28589 0.04084,0.42883 0.28589,0.42883l4.43124,0l-2.6955,8.51532l0.59219,0l8.53574,-11.39461c0.08168,-0.08168 0.1021,-0.18378 0.04084,-0.28589s-0.14294,-0.14294 -0.28589,-0.14294l-4.45166,0l4.6967,-8.65827c0.14294,-0.28589 0.06126,-0.44925 -0.28589,-0.44925l-6.00361,0c-0.16336,0 -0.28589,0.1021 -0.42883,0.28589l-4.43124,11.70091l0.00002,0.00001z"/>
</g>

  <path id="moonfill" stroke-width="0" fill="paleturquoise"  fill-opacity="0.4"  d="m25.48778,9.91023zm10.5548,7.86436c1.428,-1.38661 3.12505,-2.06957 5.07044,-2.06957c2.04887,0 3.78731,0.70365 5.21531,2.13166c1.428,1.428 2.15235,3.14574 2.15235,5.19462c0,1.28313 -0.35183,2.56626 -1.05548,3.80801c-2.00748,-1.98679 -4.40818,-2.98018 -7.22279,-2.98018l-0.66226,0c-0.51739,-2.25583 -1.67635,-4.28401 -3.49757,-6.08453l0,-0.00001z"/>

</svg>
