<svg width="60" height="60" xmlns="http://www.w3.org/2000/svg">
  <defs>
    <filter id="drop_shadow" filterUnits="objectBoundingBox" x="-50%" y="-50%" width="200%" height="200%">
      <feDropShadow dx="0.5" dy="0.5" stdDeviation="2" flood-color="black" flood-opacity="0.8" />
    </filter>
    <filter id="blur_shadow" filterUnits="objectBoundingBox" x="-50%" y="-50%" width="200%" height="200%">
      <feGaussianBlur in="SourceGraphic" stdDeviation="3" />
    </filter>
    <filter id="shadow">
      <feDropShadow dx="0.3" dy="0.6" stdDeviation="0.6" flood-color="black"/>
    </filter>
  </defs>
 <g>
  <path style="filter:url(#blur_shadow)" d="m10.066166,32.181258c0,2.045769 0.753701,3.82236 2.207284,5.275943s3.25709,2.207284 5.3567,2.207284l24.979961,0c2.072695,0 3.876202,-0.726786 5.3567,-2.207284c1.480498,-1.480498 2.2342,-3.230163 2.2342,-5.275943c0,-2.045769 -0.726786,-3.82236 -2.2342,-5.275943c-1.480498,-1.453572 -3.25709,-2.207284 -5.3567,-2.207284l-3.741613,0c-0.269177,0 -0.403766,-0.134589 -0.403766,-0.403766l-0.188431,-1.318983c-0.269177,-2.530304 -1.345898,-4.65683 -3.203247,-6.325748s-4.064633,-2.503377 -6.594925,-2.503377c-2.530304,0 -4.737577,0.834459 -6.621841,2.530304c-1.884264,1.668918 -2.93407,3.795444 -3.176332,6.298833l-0.188431,1.130563c0,0.269177 -0.134589,0.403766 -0.430693,0.403766l-1.21131,0.188431c-1.938095,0.161504 -3.553182,0.969048 -4.872165,2.395704c-1.238236,1.426656 -1.91118,3.122501 -1.91118,5.087512l-0.000011,-0.000011z" fill-opacity="0.2" fill="paleturquoise"/>
<g style="filter:url(#drop_shadow)" stroke="midnightblue" stroke-opacity="0.4">
   <path d="m4.88681,31.56908c0,-2.78632 0.87224,-5.25766 2.61671,-7.43825c1.74448,-2.18059 3.9493,-3.56164 6.61447,-4.19159c0.75109,-3.29512 2.44711,-6.00875 5.08805,-8.11666s5.69378,-3.17398 9.11004,-3.17398c3.34358,0 6.2995,1.04184 8.91621,3.07706c2.59249,2.05945 4.31273,4.70039 5.11228,7.94706l0.75109,0c2.15637,0 4.16736,0.53303 6.00875,1.57487s3.31935,2.49557 4.38542,4.31273c1.06607,1.81716 1.62333,3.82816 1.62333,5.98452c0,3.24666 -1.11453,6.03298 -3.34358,8.35895s-4.96691,3.56164 -8.18935,3.65855c-0.31497,0 -0.48458,-0.14537 -0.48458,-0.41189l0,-3.22243c0,-0.29075 0.1696,-0.43612 0.48458,-0.43612c2.08368,-0.09692 3.82816,-0.9207 5.28189,-2.47134s2.18059,-3.36781 2.18059,-5.47572s-0.77532,-3.92507 -2.37443,-5.47572c-1.57487,-1.55065 -3.44049,-2.32597 -5.59686,-2.32597l-3.87661,0c-0.29075,0 -0.46035,-0.14537 -0.46035,-0.41189l-0.1696,-1.40527c-0.26652,-2.59249 -1.38104,-4.79731 -3.34358,-6.56601c-1.98676,-1.7687 -4.2885,-2.66517 -6.90522,-2.66517c-2.64094,0 -4.96691,0.87224 -6.92945,2.64094c-1.96254,1.7687 -3.07706,3.9493 -3.34358,6.56601l-0.14537,1.30836c0,0.29075 -0.1696,0.43612 -0.48458,0.43612l-1.28413,0.07269c-1.98676,0.09692 -3.65855,0.89647 -5.06383,2.42288s-2.08368,3.31935 -2.08368,5.3788c0,2.10791 0.72686,3.92507 2.18059,5.47572s3.22243,2.37443 5.28189,2.47134c0.26652,0 0.41189,0.14537 0.41189,0.43612l0,3.22243c0,0.26652 -0.14537,0.41189 -0.41189,0.41189c-3.24666,-0.14537 -5.98452,-1.38104 -8.2378,-3.70701s-3.31935,-5.0396 -3.31935,-8.26203l0.00004,0.00001z" fill="linen" stroke-opacity="0.4" stroke="midnightblue" stroke-width="2.5"/>
  <path d="m19.37114,38.66637c0,-0.53603 0.19492,-1.02333 0.58476,-1.41317c0.38984,-0.38984 0.85278,-0.58476 1.43754,-0.58476c0.5604,0 1.0477,0.19492 1.43754,0.58476c0.38984,0.38984 0.58476,0.87714 0.58476,1.41317c0,0.58476 -0.19492,1.07206 -0.58476,1.4619c-0.38984,0.41421 -0.85278,0.60913 -1.43754,0.60913c-0.5604,0 -1.0477,-0.19492 -1.43754,-0.60913c-0.38984,-0.38984 -0.58476,-0.87714 -0.58476,-1.4619zm0,8.84451c0,-0.58476 0.19492,-1.07206 0.58476,-1.4619c0.38984,-0.36548 0.85278,-0.5604 1.41317,-0.5604c0.5604,0 1.0477,0.19492 1.43754,0.5604c0.38984,0.38984 0.58476,0.85278 0.58476,1.43754c0,0.58476 -0.19492,1.0477 -0.58476,1.43754c-0.38984,0.38984 -0.85278,0.5604 -1.43754,0.5604c-0.5604,0 -1.0477,-0.19492 -1.43754,-0.5604c-0.36548,-0.36548 -0.5604,-0.85278 -0.5604,-1.41317l0.00001,-0.00001zm7.77245,-4.14206c0,-0.5604 0.19492,-1.07206 0.60913,-1.51063c0.38984,-0.38984 0.85278,-0.58476 1.38881,-0.58476c0.5604,0 1.0477,0.21929 1.4619,0.63349c0.41421,0.41421 0.63349,0.90151 0.63349,1.4619c0,0.5604 -0.19492,1.0477 -0.60913,1.4619c-0.41421,0.41421 -0.90151,0.60913 -1.48627,0.60913c-0.5604,0 -1.02333,-0.19492 -1.41317,-0.60913s-0.58476,-0.90151 -0.58476,-1.4619zm0,-8.82014c0,-0.5604 0.19492,-1.0477 0.60913,-1.4619c0.43857,-0.38984 0.90151,-0.58476 1.38881,-0.58476c0.58476,0 1.07206,0.19492 1.48627,0.60913c0.41421,0.41421 0.60913,0.87714 0.60913,1.4619c0,0.5604 -0.19492,1.0477 -0.60913,1.43754c-0.41421,0.38984 -0.90151,0.58476 -1.48627,0.58476c-0.5604,0 -1.02333,-0.19492 -1.41317,-0.58476c-0.38984,-0.41421 -0.58476,-0.90151 -0.58476,-1.4619l-0.00001,-0.00001zm0,17.73775c0,-0.5604 0.19492,-1.0477 0.60913,-1.48627c0.38984,-0.38984 0.85278,-0.58476 1.38881,-0.58476c0.58476,0 1.07206,0.19492 1.48627,0.60913c0.41421,0.41421 0.60913,0.90151 0.60913,1.4619s-0.19492,1.0477 -0.60913,1.43754c-0.41421,0.38984 -0.90151,0.58476 -1.48627,0.58476c-0.5604,0 -1.02333,-0.19492 -1.41317,-0.58476c-0.38984,-0.41421 -0.58476,-0.87714 -0.58476,-1.43754l-0.00001,0zm7.84554,-13.62006c0,-0.53603 0.19492,-0.99897 0.60913,-1.41317c0.41421,-0.41421 0.90151,-0.60913 1.4619,-0.60913c0.5604,0 1.0477,0.19492 1.43754,0.58476c0.38984,0.38984 0.58476,0.87714 0.58476,1.41317c0,0.58476 -0.19492,1.07206 -0.58476,1.4619c-0.38984,0.41421 -0.85278,0.60913 -1.43754,0.60913c-0.58476,0 -1.07206,-0.19492 -1.4619,-0.60913c-0.38984,-0.38984 -0.60913,-0.87714 -0.60913,-1.43754l0,0.00001zm0,8.84451c0,-0.53603 0.19492,-1.02333 0.60913,-1.4619c0.38984,-0.36548 0.87714,-0.5604 1.4619,-0.5604c0.58476,0 1.0477,0.19492 1.43754,0.5604s0.5604,0.85278 0.5604,1.43754c0,0.58476 -0.19492,1.0477 -0.5604,1.43754c-0.38984,0.38984 -0.85278,0.5604 -1.43754,0.5604c-0.58476,0 -1.07206,-0.19492 -1.4619,-0.58476c-0.38984,-0.36548 -0.60913,-0.82841 -0.60913,-1.38881l0,-0.00001z" fill="white"/>
 </g>
</g>
</svg>
