<svg width="60" height="60" xmlns="http://www.w3.org/2000/svg">
  <defs>
    <filter id="drop_shadow" filterUnits="objectBoundingBox" x="-50%" y="-50%" width="200%" height="200%">
      <feDropShadow dx="0.5" dy="0.5" stdDeviation="2" flood-color="black" flood-opacity="0.8" />
    </filter>
    <filter id="blur_shadow" filterUnits="objectBoundingBox" x="-50%" y="-50%" width="200%" height="200%">
      <feGaussianBlur in="SourceGraphic" stdDeviation="3" />
    </filter>
    <filter id="shadow">
      <feDropShadow dx="0.3" dy="0.6" stdDeviation="0.6" flood-color="black"/>
    </filter>
  <linearGradient id="linearGradient3199">
   <stop id="stop3201" offset="0" stop-color="#ffffff"/>
   <stop id="stop3203" offset="1" stop-opacity="0" stop-color="#ffffff"/>
  </linearGradient>
  <linearGradient xlink:href="#linearGradient3199" id="linearGradient3206" x1="0.35792" y1="0.0564" x2="0.4991" y2="0.96319"/>
  </defs>
 <g>
  <circle cx="30" cy="30" r="20.24999" fill-opacity="0.4" fill="blue"/>
  <path style="filter:url(#blur_shadow)" fill="black" d="m4.11534,30.04598c0,-4.68958 1.1724,-9.03434 3.4942,-13.01129s5.47118,-7.12633 9.44813,-9.44813s8.29872,-3.47121 12.96532,-3.47121c3.4942,0 6.85047,0.68964 10.04582,2.04595s5.93094,3.21834 8.25275,5.51716s4.16085,5.05739 5.51716,8.27573s2.04595,6.55162 2.04595,10.0918c0,3.4942 -0.68964,6.85047 -2.04595,10.04582s-3.21834,5.95393 -5.51716,8.25275s-5.05739,4.13787 -8.25275,5.49417s-6.52863,2.04595 -10.04582,2.04595c-3.51719,0 -6.89644,-0.68964 -10.0918,-2.04595s-5.95393,-3.21834 -8.27573,-5.51716s-4.13787,-5.05739 -5.51716,-8.22976s-2.02296,-6.52863 -2.02296,-10.04582zm5.70106,0c0,5.44819 1.97698,10.18375 5.95393,14.20668c3.97695,3.97695 8.71251,5.95393 14.25265,5.95393c3.63213,0 7.01139,-0.89654 10.0918,-2.7126s5.56313,-4.25281 7.3792,-7.35621s2.73559,-6.45967 2.73559,-10.0918s-0.91953,-7.01139 -2.73559,-10.11479s-4.2758,-5.56313 -7.3792,-7.3792s-6.45967,-2.7126 -10.0918,-2.7126s-7.01139,0.89654 -10.0918,2.7126s-5.56313,4.2758 -7.40218,7.3792s-2.7126,6.48266 -2.7126,10.11479zm18.20661,0l0,-15.31011c0,-0.52873 0.18391,-0.98849 0.55172,-1.3563s0.82757,-0.55172 1.3563,-0.55172s0.98849,0.18391 1.3563,0.55172s0.55172,0.82757 0.55172,1.3563l0,14.13771l8.25275,4.80452c0.45976,0.27586 0.73562,0.66666 0.87355,1.1724s0.06896,0.98849 -0.20689,1.42527c-0.36781,0.64367 -0.91953,0.9655 -1.65515,0.9655c-0.3908,0 -0.71263,-0.09195 -0.9655,-0.27586l-8.78147,-5.12636c-0.3908,-0.11494 -0.71263,-0.34482 -0.9655,-0.66666s-0.36781,-0.68964 -0.36781,-1.12642z"/>

<g stroke="midnightblue" stroke-opacity="0.4" stroke-width="0.5" style="filter:url(#drop_shadow);">
  <path fill="blue" d="m28.02301,30.04598l0,-15.31011c0,-0.52873 0.18391,-0.98849 0.55172,-1.3563s0.82757,-0.55172 1.3563,-0.55172s0.98849,0.18391 1.3563,0.55172s0.55172,0.82757 0.55172,1.3563l0,14.13771l8.25275,4.80452c0.45976,0.27586 0.73562,0.66666 0.87355,1.1724s0.06896,0.98849 -0.20689,1.42527c-0.36781,0.64367 -0.91953,0.9655 -1.65515,0.9655c-0.3908,0 -0.71263,-0.09195 -0.9655,-0.27586l-8.78147,-5.12636c-0.3908,-0.11494 -0.71263,-0.34482 -0.9655,-0.66666s-0.36781,-0.68964 -0.36781,-1.12642l-0.00002,0.00001z"/>
  <path fill="red" d="m30.02266,55.50972zm-1.97101,-25.46441c0,0.49841 0.18124,0.95152 0.54372,1.33666c0.36248,0.38514 0.81559,0.56638 1.33666,0.56638c0.49841,0 0.95152,-0.18124 1.33666,-0.56638c0.38514,-0.38514 0.56638,-0.81559 0.56638,-1.33666l0,-15.08835c0,-0.52107 -0.18124,-0.97417 -0.56638,-1.33666s-0.81559,-0.54372 -1.33666,-0.54372c-0.52107,0 -0.97417,0.18124 -1.33666,0.54372s-0.54372,0.81559 -0.54372,1.33666l0,15.08835z"/>

</g>
  <path d="m46.31259,25.7251c-1.22051,7.14799 -8.77858,9.72413 -16.42312,10.89422c-7.65822,1.17219 -16.54284,0.20237 -18.26605,-8.02008c-1.71947,-8.20461 7.01441,-18.57121 18.47796,-18.57121c11.46355,0 17.42792,8.57133 16.21121,15.69706l0,0l0,0z" stroke-dashoffset="0" stroke-miterlimit="4" stroke-linejoin="round" stroke-linecap="round" stroke-width="0.2" fill="url(#linearGradient3206)" fill-opacity="0.7"/>
  <path stroke="midnightblue" stroke-opacity="0.4" stroke-width="2.5"  fill="mediumaquamarine" d="m4.49027,30.04531c0,-4.62166 1.15541,-8.90348 3.44359,-12.82283s5.39193,-7.0231 9.31128,-9.31128s8.17852,-3.42093 12.77752,-3.42093c3.44359,0 6.75124,0.67966 9.90031,2.01631s5.84504,3.17172 8.13321,5.43724s4.10059,4.98414 5.43724,8.15586s2.01631,6.45672 2.01631,9.94562c0,3.44359 -0.67966,6.75124 -2.01631,9.90031s-3.17172,5.86769 -5.43724,8.13321s-4.98414,4.07793 -8.13321,5.41459s-6.43407,2.01631 -9.90031,2.01631c-3.46624,0 -6.79655,-0.67966 -9.94562,-2.01631s-5.86769,-3.17172 -8.15586,-5.43724s-4.07793,-4.98414 -5.43724,-8.11055s-1.99366,-6.43407 -1.99366,-9.90031l-0.00001,0zm5.61848,0c0,5.36928 1.94835,10.03624 5.86769,14.0009c3.91935,3.91935 8.58631,5.86769 14.04621,5.86769c3.57952,0 6.90983,-0.88355 9.94562,-2.67331s5.48255,-4.19121 7.27231,-7.24966s2.69597,-6.3661 2.69597,-9.94562s-0.90621,-6.90983 -2.69597,-9.96828s-4.21386,-5.48255 -7.27231,-7.27231s-6.3661,-2.67331 -9.94562,-2.67331s-6.90983,0.88355 -9.94562,2.67331s-5.48255,4.21386 -7.29497,7.27231s-2.67331,6.38876 -2.67331,9.96828z"/>

</g>
</svg>


