<svg width="60" height="60" xmlns="http://www.w3.org/2000/svg">
  <defs>
    <filter id="drop_shadow" filterUnits="objectBoundingBox" x="-50%" y="-50%" width="200%" height="200%">
      <feDropShadow dx="0.5" dy="0.5" stdDeviation="2" flood-color="black" flood-opacity="0.8" />
    </filter>
    <filter id="blur_shadow" filterUnits="objectBoundingBox" x="-50%" y="-50%" width="200%" height="200%">
      <feGaussianBlur in="SourceGraphic" stdDeviation="3" />
    </filter>
    <filter id="shadow">
      <feDropShadow dx="0.3" dy="0.6" stdDeviation="0.6" flood-color="black"/>
    </filter>
  <linearGradient id="linearGradient3199">
   <stop id="stop3201" offset="0" stop-color="#ffffff"/>
   <stop id="stop3203" offset="1" stop-opacity="0" stop-color="#ffffff"/>
  </linearGradient>
  <linearGradient xlink:href="#linearGradient3199" id="linearGradient3206" x1="0.35792" y1="0.0564" x2="0.4991" y2="0.96319"/>
  </defs>
 <g>
  <circle cx="30" cy="30" r="20.24999" fill-opacity="0.4" fill="blue"/>
  <path style="filter:url(#blur_shadow)" fill="black" d="m4.11542,30.04597c0,-4.68957 1.17239,-9.03432 3.49419,-13.01125s5.47116,-7.12631 9.4481,-9.4481s8.2987,-3.4712 12.96528,-3.4712c3.49419,0 6.85045,0.68964 10.04579,2.04594s5.93092,3.21833 8.25272,5.51714s4.16084,5.05738 5.51714,8.27571s2.04594,6.5516 2.04594,10.09177c0,3.49419 -0.68964,6.85045 -2.04594,10.04579s-3.21833,5.95391 -5.51714,8.25272s-5.05738,4.13785 -8.25272,5.49415s-6.52861,2.04594 -10.04579,2.04594c-3.51718,0 -6.89642,-0.68964 -10.09177,-2.04594s-5.95391,-3.21833 -8.27571,-5.51714s-4.13785,-5.05738 -5.51714,-8.22973s-2.02295,-6.52861 -2.02295,-10.04579zm5.70104,0c0,5.44818 1.97697,10.18372 5.95391,14.20663c3.97694,3.97694 8.71248,5.95391 14.25261,5.95391c3.63212,0 7.01136,-0.89654 10.09177,-2.71259s5.56312,-4.25279 7.37917,-7.35619s2.73558,-6.45965 2.73558,-10.09177s-0.91952,-7.01136 -2.73558,-10.11476s-4.27578,-5.56312 -7.37917,-7.37917c-3.10339,-1.81606 -6.45965,-2.71259 -10.09177,-2.71259s-7.01136,0.89654 -10.09177,2.71259c-3.10339,1.81606 -5.56312,4.27578 -7.40216,7.37917s-2.71259,6.48264 -2.71259,10.11476zm12.9193,-9.72396c0.13793,-0.50574 0.43677,-0.89654 0.87355,-1.1494c0.45976,-0.27586 0.94251,-0.34482 1.47124,-0.20689s0.91952,0.43677 1.17239,0.87355l1.79307,2.98845l0,-8.0918c0,-0.52873 0.1839,-0.98849 0.55171,-1.3563s0.82757,-0.55171 1.3563,-0.55171s0.98849,0.1839 1.3563,0.55171s0.55171,0.82757 0.55171,1.3563l0,15.33305c0,0.52873 -0.1839,0.98849 -0.55171,1.3563s-0.82757,0.55171 -1.3563,0.55171c-0.91952,0 -1.51721,-0.41379 -1.81606,-1.21837l-5.19531,-8.98834c-0.27586,-0.45976 -0.34482,-0.94251 -0.20689,-1.44825z"/>

<g stroke="midnightblue" stroke-opacity="0.4" stroke-width="0.5" style="filter:url(#drop_shadow);">
  <path fill="blue" d="m19.93122,53.83864zm2.80454,-33.51663c0.13793,-0.50574 0.43677,-0.89654 0.87355,-1.1494c0.45976,-0.27586 0.94251,-0.34482 1.47124,-0.20689s0.91952,0.43677 1.17239,0.87355l1.79307,2.98845l0,-8.0918c0,-0.52873 0.1839,-0.98849 0.55171,-1.3563s0.82757,-0.55171 1.3563,-0.55171s0.98849,0.1839 1.3563,0.55171s0.55171,0.82757 0.55171,1.3563l0,15.33305c0,0.52873 -0.1839,0.98849 -0.55171,1.3563s-0.82757,0.55171 -1.3563,0.55171c-0.91952,0 -1.51721,-0.41379 -1.81606,-1.21837l-5.19531,-8.98834c-0.27586,-0.45976 -0.34482,-0.94251 -0.20689,-1.44825l0,-0.00001z"/>
  <path fill="red" d="m30.02266,55.50972zm-1.97101,-25.46441c0,0.49841 0.18124,0.95152 0.54372,1.33666c0.36248,0.38514 0.81559,0.56638 1.33666,0.56638c0.49841,0 0.95152,-0.18124 1.33666,-0.56638c0.38514,-0.38514 0.56638,-0.81559 0.56638,-1.33666l0,-15.08835c0,-0.52107 -0.18124,-0.97417 -0.56638,-1.33666s-0.81559,-0.54372 -1.33666,-0.54372c-0.52107,0 -0.97417,0.18124 -1.33666,0.54372s-0.54372,0.81559 -0.54372,1.33666l0,15.08835z"/>
</g>
  <path d="m46.31259,25.7251c-1.22051,7.14799 -8.77858,9.72413 -16.42312,10.89422c-7.65822,1.17219 -16.54284,0.20237 -18.26605,-8.02008c-1.71947,-8.20461 7.01441,-18.57121 18.47796,-18.57121c11.46355,0 17.42792,8.57133 16.21121,15.69706l0,0l0,0z" stroke-dashoffset="0" stroke-miterlimit="4" stroke-linejoin="round" stroke-linecap="round" stroke-width="0.2" fill="url(#linearGradient3206)" fill-opacity="0.7"/>
  <path stroke="midnightblue" stroke-opacity="0.4" stroke-width="2.5"  fill="mediumaquamarine" d="m4.49027,30.04531c0,-4.62166 1.15541,-8.90348 3.44359,-12.82283s5.39193,-7.0231 9.31128,-9.31128s8.17852,-3.42093 12.77752,-3.42093c3.44359,0 6.75124,0.67966 9.90031,2.01631s5.84504,3.17172 8.13321,5.43724s4.10059,4.98414 5.43724,8.15586s2.01631,6.45672 2.01631,9.94562c0,3.44359 -0.67966,6.75124 -2.01631,9.90031s-3.17172,5.86769 -5.43724,8.13321s-4.98414,4.07793 -8.13321,5.41459s-6.43407,2.01631 -9.90031,2.01631c-3.46624,0 -6.79655,-0.67966 -9.94562,-2.01631s-5.86769,-3.17172 -8.15586,-5.43724s-4.07793,-4.98414 -5.43724,-8.11055s-1.99366,-6.43407 -1.99366,-9.90031l-0.00001,0zm5.61848,0c0,5.36928 1.94835,10.03624 5.86769,14.0009c3.91935,3.91935 8.58631,5.86769 14.04621,5.86769c3.57952,0 6.90983,-0.88355 9.94562,-2.67331s5.48255,-4.19121 7.27231,-7.24966s2.69597,-6.3661 2.69597,-9.94562s-0.90621,-6.90983 -2.69597,-9.96828s-4.21386,-5.48255 -7.27231,-7.27231s-6.3661,-2.67331 -9.94562,-2.67331s-6.90983,0.88355 -9.94562,2.67331s-5.48255,4.21386 -7.29497,7.27231s-2.67331,6.38876 -2.67331,9.96828z"/>

</g>
</svg>



