<svg width="60" height="60" xmlns="http://www.w3.org/2000/svg">

  <defs>
    <filter id="drop_shadow" filterUnits="objectBoundingBox" x="-50%" y="-50%" width="200%" height="200%">
      <feDropShadow dx="0.5" dy="0.5" stdDeviation="2" flood-color="black" flood-opacity="0.8" />
    </filter>
    <filter id="blur_shadow" filterUnits="objectBoundingBox" x="-50%" y="-50%" width="200%" height="200%">
      <feGaussianBlur in="SourceGraphic" stdDeviation="3" />
    </filter>
    <filter id="shadow">
      <feDropShadow dx="0.3" dy="0.6" stdDeviation="0.6" flood-color="black"/>
    </filter>
  </defs>

<g fill="black" style="filter:url(#blur_shadow)">
    <path d="m9.38662,33.84781c0,-2.2732 0.71161,-4.28942 2.13482,-6.06843c1.42322,-1.77902 3.222,-2.90573 5.39636,-3.41967c0.61277,-2.6883 1.99645,-4.90219 4.15104,-6.62191s4.64522,-2.58946 7.43235,-2.58946c2.72783,0 5.13939,0.84998 7.27421,2.51039c2.11506,1.68018 3.5185,3.83477 4.17081,6.48354l0.61277,0c1.75926,0 3.39991,0.43487 4.90219,1.28484s2.70806,2.03599 3.57781,3.5185c0.86974,1.48251 1.32438,3.12317 1.32438,4.88242c0,2.64876 -0.90928,4.92196 -2.72783,6.81958s-4.05221,2.90573 -6.68121,2.9848c-0.25697,0 -0.39534,-0.1186 -0.39534,-0.33604l0,-2.62899c0,-0.23721 0.13837,-0.3558 0.39534,-0.3558c1.69995,-0.07907 3.12317,-0.75115 4.30918,-2.01622s1.77902,-2.7476 1.77902,-4.46732s-0.63254,-3.20223 -1.93716,-4.46732c-1.28484,-1.26508 -2.80689,-1.89762 -4.56615,-1.89762l-3.1627,0c-0.23721,0 -0.37557,-0.1186 -0.37557,-0.33604l-0.13837,-1.14648c-0.21744,-2.11506 -1.12671,-3.91384 -2.72783,-5.35682c-1.62088,-1.44298 -3.49874,-2.17436 -5.63356,-2.17436c-2.15459,0 -4.05221,0.71161 -5.65333,2.15459c-1.60112,1.44298 -2.51039,3.222 -2.72783,5.35682l-0.1186,1.06741c0,0.23721 -0.13837,0.3558 -0.39534,0.3558l-1.04765,0.0593c-1.62088,0.07907 -2.9848,0.73138 -4.13128,1.97669s-1.69995,2.70806 -1.69995,4.38825c0,1.71972 0.593,3.20223 1.77902,4.46732s2.62899,1.93716 4.30918,2.01622c0.21744,0 0.33604,0.1186 0.33604,0.3558l0,2.62899c0,0.21744 -0.1186,0.33604 -0.33604,0.33604c-2.64876,-0.1186 -4.88242,-1.12671 -6.72074,-3.02433s-2.70806,-4.11151 -2.70806,-6.74051l0.00003,0.00001z"/>
    <path d="m40.65556,40.58315zm-15.12048,12.78965c0,0.31874 0.09961,0.61757 0.29883,0.91639c0.19922,0.29882 0.51796,0.51796 0.91639,0.63749c0.2789,0.05976 0.43828,0.09961 0.49804,0.09961c0.1793,0 0.41836,-0.05977 0.75702,-0.19921c0.41836,-0.1793 0.69726,-0.53788 0.83671,-1.03592l0.5578,-2.09177c0.11953,-0.43827 0.07969,-0.85663 -0.15937,-1.25506s-0.57772,-0.65741 -1.05584,-0.79686c-0.43828,-0.11953 -0.85663,-0.07968 -1.25507,0.15937c-0.39842,0.23906 -0.67733,0.57772 -0.81678,1.05585l-0.53788,1.99215c-0.01992,0.33866 -0.03985,0.51796 -0.03985,0.51796l0,0zm2.6695,-9.50259c0,0.2789 0.09961,0.57772 0.29882,0.87655c0.19922,0.29882 0.49804,0.51796 0.89647,0.65741c0.43828,0.13945 0.87655,0.11954 1.27498,-0.09961s0.65741,-0.5578 0.79686,-1.03592l0.59764,-2.07184c0.11953,-0.43828 0.05977,-0.85663 -0.15937,-1.25507c-0.23907,-0.39842 -0.59765,-0.67733 -1.05585,-0.81678c-0.4582,-0.11953 -0.87655,-0.07969 -1.2949,0.15937s-0.67734,0.57772 -0.81679,1.03591l-0.47812,2.01209c-0.03984,0.33866 -0.05976,0.51796 -0.05976,0.53788l0,0.00001zm5.61788,3.28706c0,0.33866 0.09961,0.67733 0.31875,1.016c0.21914,0.33866 0.53788,0.5578 0.93632,0.69725c0.03984,0 0.11953,0.01992 0.23906,0.03985c0.09961,0.01992 0.17929,0.03985 0.23906,0.03985c0.25898,0 0.51796,-0.03985 0.75702,-0.15937c0.37851,-0.13945 0.65741,-0.51796 0.81679,-1.13553l0.49804,-2.01208c0.13945,-0.4582 0.09961,-0.89647 -0.11953,-1.31483c-0.21914,-0.41836 -0.55781,-0.69726 -0.99609,-0.8367c-0.49804,-0.11954 -0.95623,-0.05977 -1.35466,0.15937c-0.39843,0.23906 -0.65741,0.59765 -0.7371,1.05585l-0.53788,2.05192c-0.03985,0.11953 -0.05977,0.25898 -0.05977,0.39843zm2.70934,-9.54243c-0.01992,0.31874 0.07968,0.61757 0.29883,0.93631c0.21914,0.31875 0.53788,0.55781 0.97615,0.75702c0.15937,0.07969 0.31875,0.11954 0.51796,0.11954c0.21914,0 0.43828,-0.05977 0.67734,-0.15937c0.41835,-0.19922 0.69725,-0.57773 0.87655,-1.13553l0.57772,-2.05192c0.03985,-0.25898 0.05977,-0.39843 0.05977,-0.43828c0,-0.33866 -0.09961,-0.65741 -0.31875,-0.97615s-0.53788,-0.53788 -0.97615,-0.65741c-0.03985,0 -0.11953,-0.01992 -0.21914,-0.03985c-0.11953,-0.05976 -0.19922,-0.05976 -0.25898,-0.05976c-0.33867,0 -0.65741,0.09961 -0.97616,0.29883c-0.31874,0.19921 -0.53788,0.51796 -0.65741,0.95623l-0.53788,2.01208c-0.01992,0.15937 -0.03985,0.29883 -0.03985,0.43828l0,0z"/>
    <path d="m15.33524,46.9979l4.24329,0l-2.07185,7.53036l0.55781,0l7.90887,-10.39907c0.07968,-0.07968 0.07968,-0.17929 0.03985,-0.2789s-0.13945,-0.13945 -0.2789,-0.13945l-4.3429,0l4.94055,-9.24361c0.11953,-0.2789 0.03985,-0.41835 -0.2789,-0.41835l-5.85694,0c-0.17929,0 -0.33866,0.09961 -0.43827,0.2789l-2.17145,5.71749l-2.25114,6.95263z"/>
   </g>
   <path fill="paleturquoise" fill-opacity="0.2" d="m13.61215,34.34725c0,1.66902 0.6149,3.11844 1.80079,4.30433s2.65727,1.80079 4.37022,1.80079l20.37969,0c1.69099,0 3.16236,-0.59294 4.37022,-1.80079c1.20785,-1.20785 1.82275,-2.6353 1.82275,-4.30433c0,-1.66902 -0.59294,-3.11844 -1.82275,-4.30433c-1.20785,-1.18589 -2.65727,-1.8008 -4.37022,-1.8008l-3.05256,0c-0.21961,0 -0.32941,-0.1098 -0.32941,-0.32941l-0.15373,-1.07608c-0.21961,-2.06432 -1.09804,-3.79924 -2.61334,-5.16081s-3.31609,-2.04235 -5.38041,-2.04235c-2.06432,0 -3.86511,0.68079 -5.40237,2.06432c-1.53727,1.36157 -2.39374,3.09648 -2.59138,5.13885l-0.15373,0.92237c0,0.2196 -0.1098,0.3294 -0.35138,0.3294l-0.98824,0.15373c-1.58117,0.13177 -2.89883,0.79059 -3.97491,1.95452c-1.01021,1.16392 -1.55922,2.54746 -1.55922,4.1506l-0.00001,-0.00001z" filter="url(#blur_shadow)"/>
   <g stroke="midnightblue" filter="url(#drop_shadow)" stroke-opacity="0.4">
    <path d="m9.38662,33.84781c0,-2.2732 0.71161,-4.28942 2.13482,-6.06843c1.42322,-1.77902 3.222,-2.90573 5.39636,-3.41967c0.61277,-2.6883 1.99645,-4.90219 4.15104,-6.62191s4.64522,-2.58946 7.43235,-2.58946c2.72783,0 5.13939,0.84998 7.27421,2.51039c2.11506,1.68018 3.5185,3.83477 4.17081,6.48354l0.61277,0c1.75926,0 3.39991,0.43487 4.90219,1.28484s2.70806,2.03599 3.57781,3.5185c0.86974,1.48251 1.32438,3.12317 1.32438,4.88242c0,2.64876 -0.90928,4.92196 -2.72783,6.81958s-4.05221,2.90573 -6.68121,2.9848c-0.25697,0 -0.39534,-0.1186 -0.39534,-0.33604l0,-2.62899c0,-0.23721 0.13837,-0.3558 0.39534,-0.3558c1.69995,-0.07907 3.12317,-0.75115 4.30918,-2.01622s1.77902,-2.7476 1.77902,-4.46732s-0.63254,-3.20223 -1.93716,-4.46732c-1.28484,-1.26508 -2.80689,-1.89762 -4.56615,-1.89762l-3.1627,0c-0.23721,0 -0.37557,-0.1186 -0.37557,-0.33604l-0.13837,-1.14648c-0.21744,-2.11506 -1.12671,-3.91384 -2.72783,-5.35682c-1.62088,-1.44298 -3.49874,-2.17436 -5.63356,-2.17436c-2.15459,0 -4.05221,0.71161 -5.65333,2.15459c-1.60112,1.44298 -2.51039,3.222 -2.72783,5.35682l-0.1186,1.06741c0,0.23721 -0.13837,0.3558 -0.39534,0.3558l-1.04765,0.0593c-1.62088,0.07907 -2.9848,0.73138 -4.13128,1.97669s-1.69995,2.70806 -1.69995,4.38825c0,1.71972 0.593,3.20223 1.77902,4.46732s2.62899,1.93716 4.30918,2.01622c0.21744,0 0.33604,0.1186 0.33604,0.3558l0,2.62899c0,0.21744 -0.1186,0.33604 -0.33604,0.33604c-2.64876,-0.1186 -4.88242,-1.12671 -6.72074,-3.02433s-2.70806,-4.11151 -2.70806,-6.74051l0.00003,0.00001z" stroke-width="2.5" fill="linen"/>
    <path d="m40.65556,40.58315zm-15.12048,12.78965c0,0.31874 0.09961,0.61757 0.29883,0.91639c0.19922,0.29882 0.51796,0.51796 0.91639,0.63749c0.2789,0.05976 0.43828,0.09961 0.49804,0.09961c0.1793,0 0.41836,-0.05977 0.75702,-0.19921c0.41836,-0.1793 0.69726,-0.53788 0.83671,-1.03592l0.5578,-2.09177c0.11953,-0.43827 0.07969,-0.85663 -0.15937,-1.25506s-0.57772,-0.65741 -1.05584,-0.79686c-0.43828,-0.11953 -0.85663,-0.07968 -1.25507,0.15937c-0.39842,0.23906 -0.67733,0.57772 -0.81678,1.05585l-0.53788,1.99215c-0.01992,0.33866 -0.03985,0.51796 -0.03985,0.51796l0,0zm2.6695,-9.50259c0,0.2789 0.09961,0.57772 0.29882,0.87655c0.19922,0.29882 0.49804,0.51796 0.89647,0.65741c0.43828,0.13945 0.87655,0.11954 1.27498,-0.09961s0.65741,-0.5578 0.79686,-1.03592l0.59764,-2.07184c0.11953,-0.43828 0.05977,-0.85663 -0.15937,-1.25507c-0.23907,-0.39842 -0.59765,-0.67733 -1.05585,-0.81678c-0.4582,-0.11953 -0.87655,-0.07969 -1.2949,0.15937s-0.67734,0.57772 -0.81679,1.03591l-0.47812,2.01209c-0.03984,0.33866 -0.05976,0.51796 -0.05976,0.53788l0,0.00001zm5.61788,3.28706c0,0.33866 0.09961,0.67733 0.31875,1.016c0.21914,0.33866 0.53788,0.5578 0.93632,0.69725c0.03984,0 0.11953,0.01992 0.23906,0.03985c0.09961,0.01992 0.17929,0.03985 0.23906,0.03985c0.25898,0 0.51796,-0.03985 0.75702,-0.15937c0.37851,-0.13945 0.65741,-0.51796 0.81679,-1.13553l0.49804,-2.01208c0.13945,-0.4582 0.09961,-0.89647 -0.11953,-1.31483c-0.21914,-0.41836 -0.55781,-0.69726 -0.99609,-0.8367c-0.49804,-0.11954 -0.95623,-0.05977 -1.35466,0.15937c-0.39843,0.23906 -0.65741,0.59765 -0.7371,1.05585l-0.53788,2.05192c-0.03985,0.11953 -0.05977,0.25898 -0.05977,0.39843zm2.70934,-9.54243c-0.01992,0.31874 0.07968,0.61757 0.29883,0.93631c0.21914,0.31875 0.53788,0.55781 0.97615,0.75702c0.15937,0.07969 0.31875,0.11954 0.51796,0.11954c0.21914,0 0.43828,-0.05977 0.67734,-0.15937c0.41835,-0.19922 0.69725,-0.57773 0.87655,-1.13553l0.57772,-2.05192c0.03985,-0.25898 0.05977,-0.39843 0.05977,-0.43828c0,-0.33866 -0.09961,-0.65741 -0.31875,-0.97615s-0.53788,-0.53788 -0.97615,-0.65741c-0.03985,0 -0.11953,-0.01992 -0.21914,-0.03985c-0.11953,-0.05976 -0.19922,-0.05976 -0.25898,-0.05976c-0.33867,0 -0.65741,0.09961 -0.97616,0.29883c-0.31874,0.19921 -0.53788,0.51796 -0.65741,0.95623l-0.53788,2.01208c-0.01992,0.15937 -0.03985,0.29883 -0.03985,0.43828l0,0z" fill="cornflowerblue"/>
    <path d="m15.33524,46.9979l4.24329,0l-2.07185,7.53036l0.55781,0l7.90887,-10.39907c0.07968,-0.07968 0.07968,-0.17929 0.03985,-0.2789s-0.13945,-0.13945 -0.2789,-0.13945l-4.3429,0l4.94055,-9.24361c0.11953,-0.2789 0.03985,-0.41835 -0.2789,-0.41835l-5.85694,0c-0.17929,0 -0.33866,0.09961 -0.43827,0.2789l-2.17145,5.71749l-2.25114,6.95263z" fill="bisque"/>
</g>
</svg>



