<svg width="60" height="60" xmlns="http://www.w3.org/2000/svg">
<g stroke="midnightblue" stroke-opacity="0.4" stroke-width="2.5">
  <path d="m5.17767,35.40187c0,3.20288 1.1234,5.92772 3.34629,8.22232c2.22289,2.2946 4.94773,3.51361 8.12671,3.65702c0.26292,0 0.40634,-0.14341 0.40634,-0.40634l0,-3.20288c0,-0.28683 -0.14341,-0.43024 -0.40634,-0.43024c-2.05558,-0.09561 -3.80043,-0.90828 -5.23456,-2.43801c-1.43413,-1.52973 -2.15119,-3.32239 -2.15119,-5.40187c0,-1.98387 0.66926,-3.70482 2.03168,-5.18675c1.36242,-1.48193 3.03557,-2.3185 5.01944,-2.55752l1.26681,-0.09561c0.31073,0 0.47804,-0.14341 0.47804,-0.40634l0.19122,-1.31462c0.23902,-2.58143 1.31462,-4.75652 3.25069,-6.47747c1.93607,-1.74485 4.20677,-2.60533 6.836,-2.60533c2.60533,0 4.87603,0.86048 6.836,2.60533c1.95997,1.74485 3.05947,3.89604 3.34629,6.47747l0.16731,1.38632c0,0.26292 0.14341,0.40634 0.40634,0.40634l3.87214,0c2.12729,0 3.96775,0.76487 5.52138,2.3185c1.55364,1.52973 2.34241,3.34629 2.34241,5.44968c0,2.07948 -0.71706,3.87214 -2.17509,5.40187c-1.45803,1.52973 -3.20288,2.34241 -5.23456,2.43801c-0.31073,0 -0.45414,0.14341 -0.45414,0.43024l0,3.20288c0,0.26292 0.14341,0.40634 0.45414,0.40634c2.10338,-0.0478 4.01555,-0.62145 5.76041,-1.72095c1.74485,-1.07559 3.13117,-2.50972 4.13506,-4.30238s1.50583,-3.75263 1.50583,-5.85601c0,-2.15119 -0.52585,-4.13506 -1.60144,-5.92772c-1.05169,-1.81656 -2.50972,-3.22678 -4.32628,-4.27848s-3.80043,-1.55364 -5.95162,-1.55364l-0.78877,0c-0.78877,-3.20288 -2.46192,-5.80821 -5.01944,-7.86379s-5.52138,-3.05947 -8.81987,-3.05947c-3.3702,0 -6.38186,1.05169 -8.98719,3.13117s-4.30238,4.78042 -5.04334,8.05501c-2.62923,0.62145 -4.80432,2.00778 -6.52527,4.15896s-2.58143,4.5892 -2.58143,7.33794l0,0.00002z" fill="linen"/>
  <path fill="green" d="m49.21939,40.49002zm-29.45085,-2.3147c0,1.82221 0.46786,3.5213 1.37897,5.09726s2.16695,2.80719 3.71829,3.7183c1.55134,0.93573 3.25043,1.37897 5.07264,1.37897c2.83181,0 5.24501,-1.00961 7.26421,-3.00419c2.01921,-2.0192 3.02881,-4.40778 3.02881,-7.19034c0,-0.56636 -0.19699,-1.05885 -0.61561,-1.47747c-0.41861,-0.41861 -0.9111,-0.61561 -1.50209,-0.61561c-0.59099,0 -1.08348,0.197 -1.50209,0.61561s-0.64024,0.91111 -0.64024,1.47747c0,1.64984 -0.59099,3.05343 -1.77296,4.26003c-1.18197,1.18198 -2.58557,1.77296 -4.26003,1.77296c-1.62521,0 -3.02881,-0.59098 -4.21078,-1.77296c-1.18198,-1.18197 -1.77296,-2.61019 -1.77296,-4.26003c0,-1.47747 0.44324,-2.78256 1.30509,-3.93991c0.88648,-1.15735 1.94533,-1.79759 3.22581,-1.89609l-1.00961,0.96036c-0.36936,0.36936 -0.56636,0.83723 -0.56636,1.40359c0,0.61561 0.17237,1.15735 0.56636,1.62522c0.34475,0.36936 0.76336,0.56636 1.3051,0.56636c0.54174,0.02462 1.1081,-0.17237 1.72371,-0.56636l4.48165,-4.60478c0.41862,-0.41861 0.61561,-0.88648 0.61561,-1.42822c0,-0.61561 -0.19699,-1.1081 -0.61561,-1.50209l-4.48165,-4.50627c-0.46786,-0.44324 -0.96035,-0.64024 -1.52671,-0.64024c-0.56637,0 -1.05886,0.197 -1.45285,0.61561c-0.39399,0.41862 -0.59098,0.91111 -0.59098,1.50209c0,0.59099 0.17237,1.05886 0.56636,1.42822l0.86185,0.88648c-2.46244,0.41862 -4.50627,1.55134 -6.13149,3.44743c-1.64983,1.87146 -2.46244,4.08766 -2.46244,6.6486z"/>
</g>
</svg>
