<svg width="60" height="60" xmlns="http://www.w3.org/2000/svg">

  <defs>
    <filter id="drop_shadow" filterUnits="objectBoundingBox" x="-50%" y="-50%" width="200%" height="200%">
      <feDropShadow dx="0.5" dy="0.5" stdDeviation="2" flood-color="black" flood-opacity="0.8" />
    </filter>
    <filter id="blur_shadow" filterUnits="objectBoundingBox" x="-50%" y="-50%" width="200%" height="200%">
      <feGaussianBlur in="SourceGraphic" stdDeviation="3" />
    </filter>
  </defs>

<g fill="black" filter="url(#blur_shadow)">
<path d="m15.6671,28.96463c0,-1.92494 0.38098,-3.74963 1.12289,-5.51417s1.76454,-3.2684 3.02778,-4.53164c1.26325,-1.26325 2.78716,-2.28587 4.5517,-3.04783c1.76454,-0.76196 3.60927,-1.14294 5.51417,-1.14294l2.28587,0c0.32082,0.08021 0.46118,0.28072 0.46118,0.56144l0.10026,1.76454c0.08021,2.54654 0.98252,4.7121 2.74705,6.49669c1.76454,1.78458 3.88999,2.74705 6.39643,2.84731l1.64422,0.14036c0.32082,0 0.48124,0.16041 0.48124,0.46118l0,1.96505c0.02005,2.56659 -0.60154,4.95272 -1.86479,7.13834c-1.26325,2.18562 -2.96762,3.91005 -5.15324,5.19334c-2.16556,1.26325 -4.5517,1.9049 -7.11829,1.9049c-1.945,0 -3.80979,-0.38098 -5.57432,-1.12289s-3.2684,-1.76454 -4.53164,-3.02778c-1.26325,-1.26325 -2.26582,-2.78716 -3.00773,-4.53164c-0.7018,-1.76454 -1.08278,-3.60927 -1.08278,-5.55427l0.00001,0zm3.66943,0c0,1.52391 0.30077,2.96762 0.90232,4.33113c0.60154,1.34345 1.40361,2.48639 2.38613,3.40876c0.98252,0.92237 2.10541,1.64422 3.3887,2.16556c1.26325,0.54139 2.56659,0.80206 3.88999,0.80206c1.16299,0 2.34603,-0.22057 3.52906,-0.68175c1.18304,-0.46118 2.28587,-1.10283 3.3085,-1.92494c1.02263,-0.82211 1.88484,-1.86479 2.62675,-3.14809c0.7419,-1.2833 1.20309,-2.66685 1.42366,-4.19077c-3.2684,-0.68175 -5.89514,-2.08536 -7.86019,-4.21081s-3.10798,-4.61185 -3.40876,-7.49926c-1.92494,0.12031 -3.64938,0.7018 -5.23345,1.76454c-1.56402,1.06273 -2.78716,2.40618 -3.64938,4.05041c-0.86222,1.64422 -1.30335,3.3486 -1.30335,5.13319l0.00001,-0.00001z"/>
</g>
<g>
<path stroke="midnightblue" d="m15.6671,28.96463c0,-1.92494 0.38098,-3.74963 1.12289,-5.51417c0.7419,-1.76454 1.76454,-3.2684 3.02778,-4.53164c1.26325,-1.26325 2.78716,-2.28587 4.5517,-3.04783c1.76454,-0.76196 3.60927,-1.14294 5.51417,-1.14294l2.28587,0c0.32082,0.08021 0.46118,0.28072 0.46118,0.56144l0.10026,1.76454c0.08021,2.54654 0.98252,4.7121 2.74705,6.49669c1.76454,1.78458 3.88999,2.74705 6.39643,2.84731l1.64422,0.14036c0.32082,0 0.48124,0.16041 0.48124,0.46118l0,1.96505c0.02005,2.56659 -0.60154,4.95272 -1.86479,7.13834c-1.26325,2.18562 -2.96762,3.91005 -5.15324,5.19334c-2.16556,1.26325 -4.5517,1.9049 -7.11829,1.9049c-1.945,0 -3.80979,-0.38098 -5.57432,-1.12289c-1.76454,-0.7419 -3.2684,-1.76454 -4.53164,-3.02778c-1.26325,-1.26325 -2.26582,-2.78716 -3.00773,-4.53164c-0.7018,-1.76454 -1.08278,-3.60927 -1.08278,-5.55427l0.00001,0z" stroke-opacity="0.2" stroke-width="3" fill="paleturquoise" fill-opacity="0.4"/>
<path stroke="midnightblue" stroke-opacity="0.4" stroke-width="2" d="m15.6671,28.96463c0,-1.92494 0.38098,-3.74963 1.12289,-5.51417s1.76454,-3.2684 3.02778,-4.53164c1.26325,-1.26325 2.78716,-2.28587 4.5517,-3.04783c1.76454,-0.76196 3.60927,-1.14294 5.51417,-1.14294l2.28587,0c0.32082,0.08021 0.46118,0.28072 0.46118,0.56144l0.10026,1.76454c0.08021,2.54654 0.98252,4.7121 2.74705,6.49669c1.76454,1.78458 3.88999,2.74705 6.39643,2.84731l1.64422,0.14036c0.32082,0 0.48124,0.16041 0.48124,0.46118l0,1.96505c0.02005,2.56659 -0.60154,4.95272 -1.86479,7.13834c-1.26325,2.18562 -2.96762,3.91005 -5.15324,5.19334c-2.16556,1.26325 -4.5517,1.9049 -7.11829,1.9049c-1.945,0 -3.80979,-0.38098 -5.57432,-1.12289s-3.2684,-1.76454 -4.53164,-3.02778c-1.26325,-1.26325 -2.26582,-2.78716 -3.00773,-4.53164c-0.7018,-1.76454 -1.08278,-3.60927 -1.08278,-5.55427l0.00001,0zm3.66943,0c0,1.52391 0.30077,2.96762 0.90232,4.33113c0.60154,1.34345 1.40361,2.48639 2.38613,3.40876c0.98252,0.92237 2.10541,1.64422 3.3887,2.16556c1.26325,0.54139 2.56659,0.80206 3.88999,0.80206c1.16299,0 2.34603,-0.22057 3.52906,-0.68175c1.18304,-0.46118 2.28587,-1.10283 3.3085,-1.92494c1.02263,-0.82211 1.88484,-1.86479 2.62675,-3.14809c0.7419,-1.2833 1.20309,-2.66685 1.42366,-4.19077c-3.2684,-0.68175 -5.89514,-2.08536 -7.86019,-4.21081s-3.10798,-4.61185 -3.40876,-7.49926c-1.92494,0.12031 -3.64938,0.7018 -5.23345,1.76454c-1.56402,1.06273 -2.78716,2.40618 -3.64938,4.05041c-0.86222,1.64422 -1.30335,3.3486 -1.30335,5.13319l0.00001,-0.00001z" fill="linen"/>
</g>
</svg>
