<svg width="60" height="60" xmlns="http://www.w3.org/2000/svg">

  <defs>
    <filter id="drop_shadow" filterUnits="objectBoundingBox" x="-50%" y="-50%" width="200%" height="200%">
      <feDropShadow dx="0.5" dy="0.5" stdDeviation="2" flood-color="black" flood-opacity="0.8" />
    </filter>
    <filter id="blur_shadow" filterUnits="objectBoundingBox" x="-50%" y="-50%" width="200%" height="200%">
      <feGaussianBlur in="SourceGraphic" stdDeviation="3" />
    </filter>
  </defs>

<g fill="black" filter="url(#blur_shadow)">
  <path d="m4.2875,31.560237c0,3.204652 1.132471,5.975592 3.373318,8.288724s4.987691,3.541984 8.192343,3.686555c0.289142,0 0.433712,-0.144571 0.433712,-0.409617l0,-3.228747c0,-0.265046 -0.144571,-0.409617 -0.433712,-0.409617c-2.072181,-0.120476 -3.831125,-0.93971 -5.276833,-2.481798c-1.445708,-1.542088 -2.168561,-3.349223 -2.168561,-5.445499c0,-1.999896 0.674664,-3.734745 2.048086,-5.228643c1.373422,-1.469803 3.060081,-2.337227 5.059977,-2.578179l1.277042,-0.096381c0.313237,0 0.481903,-0.144571 0.481903,-0.433712l0.168666,-1.301137c0.265046,-2.602274 1.349327,-4.79493 3.301032,-6.553875c1.951705,-1.758944 4.240742,-2.650464 6.867111,-2.650464c2.626369,0 4.915406,0.89152 6.891206,2.650464c1.9758,1.758944 3.084176,3.951601 3.373318,6.553875l0.192761,1.373422c0,0.289142 0.144571,0.457807 0.409617,0.457807l3.903411,0c2.192657,0 4.047981,0.771044 5.614165,2.289037c1.542088,1.517993 2.337227,3.373318 2.337227,5.493689c0,2.072181 -0.722854,3.879316 -2.192657,5.421404c-1.469803,1.542088 -3.228747,2.385418 -5.276833,2.505893c-0.289142,0 -0.457807,0.144571 -0.457807,0.409617l0,3.228747c0,0.265046 0.144571,0.409617 0.457807,0.409617c3.228747,-0.096381 5.951497,-1.325232 8.192343,-3.638364c2.240847,-2.337227 3.349223,-5.108167 3.349223,-8.312819c0,-1.710754 -0.337332,-3.325128 -1.03609,-4.843121c1.903515,-2.313132 2.843225,-4.987691 2.843225,-7.999582c0,-2.289037 -0.578283,-4.409408 -1.710754,-6.361114s-2.674559,-3.493793 -4.626264,-4.626264s-4.047981,-1.686659 -6.312923,-1.686659c-3.734745,0 -6.867111,1.397517 -9.373005,4.168457c-1.951705,-1.03609 -4.120267,-1.566183 -6.52978,-1.566183c-3.397413,0 -6.433399,1.060186 -9.059768,3.180557s-4.337123,4.819026 -5.084072,8.095963c-2.674559,0.626473 -4.867216,2.023991 -6.602065,4.192552c-1.758944,2.192657 -2.626369,4.674455 -2.626369,7.445394l0,0.000001zm33.251277,-18.962865c1.638469,-1.638469 3.614269,-2.433608 5.975592,-2.433608c2.361323,0 4.361218,0.843329 6.023782,2.505893s2.481798,3.686555 2.481798,6.071972c0,1.421613 -0.409617,2.891415 -1.228852,4.433503c-2.313132,-2.313132 -5.132262,-3.469698 -8.433295,-3.469698l-0.746949,0c-0.674664,-2.81913 -2.048086,-5.180452 -4.072077,-7.108063l0.000001,0.000001z"/>
  <path d="m42.863799,39.463438zm-23.179512,2.023992c0,0.530093 0.192761,0.9879 0.578283,1.373422c0.409617,0.409617 0.867425,0.602378 1.397517,0.602378c0.554188,0 1.03609,-0.192761 1.421613,-0.554188s0.578283,-0.843329 0.578283,-1.421613c0,-0.578283 -0.192761,-1.03609 -0.554188,-1.421613c-0.385522,-0.385522 -0.843329,-0.554188 -1.421613,-0.554188c-0.578283,0 -1.03609,0.192761 -1.421613,0.554188c-0.385522,0.361427 -0.578283,0.843329 -0.578283,1.421613l0.000001,0.000001zm0,8.746531c0,0.578283 0.192761,1.03609 0.578283,1.397517c0.385522,0.385522 0.867425,0.578283 1.397517,0.578283c0.578283,0 1.03609,-0.192761 1.421613,-0.554188c0.385522,-0.385522 0.554188,-0.843329 0.554188,-1.421613c0,-0.578283 -0.192761,-1.060186 -0.578283,-1.445708s-0.843329,-0.602378 -1.421613,-0.602378c-0.554188,0 -1.03609,0.192761 -1.421613,0.602378s-0.530093,0.867425 -0.530093,1.445708l0.000001,0.000001zm7.686346,-4.192552c0,0.554188 0.192761,1.060186 0.602378,1.469803s0.867425,0.650568 1.397517,0.650568c0.554188,0 1.03609,-0.216856 1.445708,-0.626473c0.409617,-0.409617 0.602378,-0.915615 0.602378,-1.493898c0,-0.530093 -0.192761,-0.9879 -0.602378,-1.397517c-0.409617,-0.409617 -0.89152,-0.602378 -1.445708,-0.602378c-0.530093,0 -0.9879,0.192761 -1.397517,0.602378s-0.602378,0.867425 -0.602378,1.397517zm0,-8.650151c0,0.554188 0.192761,1.011995 0.578283,1.397517s0.867425,0.578283 1.421613,0.578283c0.578283,0 1.060186,-0.192761 1.445708,-0.578283s0.602378,-0.843329 0.602378,-1.421613s-0.192761,-1.03609 -0.602378,-1.445708s-0.89152,-0.602378 -1.445708,-0.602378c-0.554188,0 -1.011995,0.192761 -1.421613,0.602378s-0.578283,0.915615 -0.578283,1.469803l0,0.000001zm0,17.517158c0,0.554188 0.192761,1.03609 0.602378,1.445708c0.409617,0.409617 0.867425,0.602378 1.421613,0.602378c0.554188,0 1.03609,-0.192761 1.445708,-0.602378c0.409617,-0.409617 0.602378,-0.89152 0.602378,-1.445708c0,-0.530093 -0.192761,-0.9879 -0.602378,-1.397517c-0.409617,-0.409617 -0.89152,-0.602378 -1.445708,-0.602378c-0.530093,0 -0.9879,0.192761 -1.397517,0.602378c-0.409617,0.409617 -0.626473,0.867425 -0.626473,1.397517l-0.000001,0zm7.806821,-13.420986c0,0.505998 0.192761,0.963805 0.578283,1.373422c0.409617,0.409617 0.89152,0.602378 1.445708,0.602378c0.554188,0 1.03609,-0.192761 1.421613,-0.554188c0.385522,-0.385522 0.578283,-0.843329 0.578283,-1.421613c0,-0.578283 -0.192761,-1.03609 -0.554188,-1.421613c-0.385522,-0.385522 -0.843329,-0.554188 -1.421613,-0.554188c-0.578283,0 -1.060186,0.192761 -1.445708,0.554188c-0.409617,0.361427 -0.602378,0.843329 -0.602378,1.421613l0,0.000001zm0,8.746531c0,0.530093 0.192761,1.011995 0.578283,1.397517s0.867425,0.578283 1.445708,0.578283c0.578283,0 1.03609,-0.192761 1.421613,-0.554188c0.385522,-0.385522 0.554188,-0.843329 0.554188,-1.421613c0,-0.578283 -0.192761,-1.060186 -0.578283,-1.445708c-0.385522,-0.409617 -0.843329,-0.602378 -1.421613,-0.602378c-0.554188,0 -1.03609,0.192761 -1.445708,0.602378s-0.554188,0.867425 -0.554188,1.445708l0,0.000001z"/>
</g>

 <g>
   <circle filter="url(#blur_shadow)" r="10" cx="42.62447" cy="16.12475" fill="lightcyan" fill-opacity="0.2"/>
   <path filter="url(#blur_shadow)" fill="paleturquoise" fill-opacity="0.2" d="m8.18267,31.779858c0,2.14134 0.78891,4.00093 2.3104,5.52242s3.40925,2.3104 5.60695,2.3104l26.14696,0c2.16953,0 4.05729,-0.76074 5.60695,-2.3104c1.54966,-1.54966 2.33858,-3.38107 2.33858,-5.52242c0,-2.14134 -0.76074,-4.00093 -2.33858,-5.52242c-1.54966,-1.52148 -3.40925,-2.3104 -5.60695,-2.3104l-3.91641,0c-0.28175,0 -0.42263,-0.14088 -0.42263,-0.42263l-0.19723,-1.3806c-0.28175,-2.64851 -1.40878,-4.87439 -3.35289,-6.62127s-4.25452,-2.62033 -6.90302,-2.62033c-2.64851,0 -4.9589,0.87344 -6.9312,2.64851c-1.97229,1.74689 -3.07114,3.97276 -3.32472,6.5931l-0.19723,1.18338c0,0.28175 -0.14088,0.42263 -0.45081,0.42263l-1.2679,0.19723c-2.02864,0.16905 -3.71918,1.01432 -5.09978,2.50762c-1.29608,1.49331 -2.00047,3.26838 -2.00047,5.32519l-0.00001,-0.00001l-0.00001,0z"/>
   <g  stroke-width="2.5" stroke-opacity="0.4" stroke="midnightblue">
  <path stroke-width="2.5"  fill="linen" d="m4.2875,31.560237c0,3.204652 1.132471,5.975592 3.373318,8.288724s4.987691,3.541984 8.192343,3.686555c0.289142,0 0.433712,-0.144571 0.433712,-0.409617l0,-3.228747c0,-0.265046 -0.144571,-0.409617 -0.433712,-0.409617c-2.072181,-0.120476 -3.831125,-0.93971 -5.276833,-2.481798c-1.445708,-1.542088 -2.168561,-3.349223 -2.168561,-5.445499c0,-1.999896 0.674664,-3.734745 2.048086,-5.228643c1.373422,-1.469803 3.060081,-2.337227 5.059977,-2.578179l1.277042,-0.096381c0.313237,0 0.481903,-0.144571 0.481903,-0.433712l0.168666,-1.301137c0.265046,-2.602274 1.349327,-4.79493 3.301032,-6.553875c1.951705,-1.758944 4.240742,-2.650464 6.867111,-2.650464c2.626369,0 4.915406,0.89152 6.891206,2.650464c1.9758,1.758944 3.084176,3.951601 3.373318,6.553875l0.192761,1.373422c0,0.289142 0.144571,0.457807 0.409617,0.457807l3.903411,0c2.192657,0 4.047981,0.771044 5.614165,2.289037c1.542088,1.517993 2.337227,3.373318 2.337227,5.493689c0,2.072181 -0.722854,3.879316 -2.192657,5.421404c-1.469803,1.542088 -3.228747,2.385418 -5.276833,2.505893c-0.289142,0 -0.457807,0.144571 -0.457807,0.409617l0,3.228747c0,0.265046 0.144571,0.409617 0.457807,0.409617c3.228747,-0.096381 5.951497,-1.325232 8.192343,-3.638364c2.240847,-2.337227 3.349223,-5.108167 3.349223,-8.312819c0,-1.710754 -0.337332,-3.325128 -1.03609,-4.843121c1.903515,-2.313132 2.843225,-4.987691 2.843225,-7.999582c0,-2.289037 -0.578283,-4.409408 -1.710754,-6.361114s-2.674559,-3.493793 -4.626264,-4.626264s-4.047981,-1.686659 -6.312923,-1.686659c-3.734745,0 -6.867111,1.397517 -9.373005,4.168457c-1.951705,-1.03609 -4.120267,-1.566183 -6.52978,-1.566183c-3.397413,0 -6.433399,1.060186 -9.059768,3.180557s-4.337123,4.819026 -5.084072,8.095963c-2.674559,0.626473 -4.867216,2.023991 -6.602065,4.192552c-1.758944,2.192657 -2.626369,4.674455 -2.626369,7.445394l0,0.000001zm33.251277,-18.962865c1.638469,-1.638469 3.614269,-2.433608 5.975592,-2.433608c2.361323,0 4.361218,0.843329 6.023782,2.505893s2.481798,3.686555 2.481798,6.071972c0,1.421613 -0.409617,2.891415 -1.228852,4.433503c-2.313132,-2.313132 -5.132262,-3.469698 -8.433295,-3.469698l-0.746949,0c-0.674664,-2.81913 -2.048086,-5.180452 -4.072077,-7.108063l0.000001,0.000001z"/>
</g>
  <path stroke-opacity="0.4" stroke="midnightblue" stroke-widthg="1" fill="white" d="m42.863799,39.463438zm-23.179512,2.023992c0,0.530093 0.192761,0.9879 0.578283,1.373422c0.409617,0.409617 0.867425,0.602378 1.397517,0.602378c0.554188,0 1.03609,-0.192761 1.421613,-0.554188s0.578283,-0.843329 0.578283,-1.421613c0,-0.578283 -0.192761,-1.03609 -0.554188,-1.421613c-0.385522,-0.385522 -0.843329,-0.554188 -1.421613,-0.554188c-0.578283,0 -1.03609,0.192761 -1.421613,0.554188c-0.385522,0.361427 -0.578283,0.843329 -0.578283,1.421613l0.000001,0.000001zm0,8.746531c0,0.578283 0.192761,1.03609 0.578283,1.397517c0.385522,0.385522 0.867425,0.578283 1.397517,0.578283c0.578283,0 1.03609,-0.192761 1.421613,-0.554188c0.385522,-0.385522 0.554188,-0.843329 0.554188,-1.421613c0,-0.578283 -0.192761,-1.060186 -0.578283,-1.445708s-0.843329,-0.602378 -1.421613,-0.602378c-0.554188,0 -1.03609,0.192761 -1.421613,0.602378s-0.530093,0.867425 -0.530093,1.445708l0.000001,0.000001zm7.686346,-4.192552c0,0.554188 0.192761,1.060186 0.602378,1.469803s0.867425,0.650568 1.397517,0.650568c0.554188,0 1.03609,-0.216856 1.445708,-0.626473c0.409617,-0.409617 0.602378,-0.915615 0.602378,-1.493898c0,-0.530093 -0.192761,-0.9879 -0.602378,-1.397517c-0.409617,-0.409617 -0.89152,-0.602378 -1.445708,-0.602378c-0.530093,0 -0.9879,0.192761 -1.397517,0.602378s-0.602378,0.867425 -0.602378,1.397517zm0,-8.650151c0,0.554188 0.192761,1.011995 0.578283,1.397517s0.867425,0.578283 1.421613,0.578283c0.578283,0 1.060186,-0.192761 1.445708,-0.578283s0.602378,-0.843329 0.602378,-1.421613s-0.192761,-1.03609 -0.602378,-1.445708s-0.89152,-0.602378 -1.445708,-0.602378c-0.554188,0 -1.011995,0.192761 -1.421613,0.602378s-0.578283,0.915615 -0.578283,1.469803l0,0.000001zm0,17.517158c0,0.554188 0.192761,1.03609 0.602378,1.445708c0.409617,0.409617 0.867425,0.602378 1.421613,0.602378c0.554188,0 1.03609,-0.192761 1.445708,-0.602378c0.409617,-0.409617 0.602378,-0.89152 0.602378,-1.445708c0,-0.530093 -0.192761,-0.9879 -0.602378,-1.397517c-0.409617,-0.409617 -0.89152,-0.602378 -1.445708,-0.602378c-0.530093,0 -0.9879,0.192761 -1.397517,0.602378c-0.409617,0.409617 -0.626473,0.867425 -0.626473,1.397517l-0.000001,0zm7.806821,-13.420986c0,0.505998 0.192761,0.963805 0.578283,1.373422c0.409617,0.409617 0.89152,0.602378 1.445708,0.602378c0.554188,0 1.03609,-0.192761 1.421613,-0.554188c0.385522,-0.385522 0.578283,-0.843329 0.578283,-1.421613c0,-0.578283 -0.192761,-1.03609 -0.554188,-1.421613c-0.385522,-0.385522 -0.843329,-0.554188 -1.421613,-0.554188c-0.578283,0 -1.060186,0.192761 -1.445708,0.554188c-0.409617,0.361427 -0.602378,0.843329 -0.602378,1.421613l0,0.000001zm0,8.746531c0,0.530093 0.192761,1.011995 0.578283,1.397517s0.867425,0.578283 1.445708,0.578283c0.578283,0 1.03609,-0.192761 1.421613,-0.554188c0.385522,-0.385522 0.554188,-0.843329 0.554188,-1.421613c0,-0.578283 -0.192761,-1.060186 -0.578283,-1.445708c-0.385522,-0.409617 -0.843329,-0.602378 -1.421613,-0.602378c-0.554188,0 -1.03609,0.192761 -1.445708,0.602378s-0.554188,0.867425 -0.554188,1.445708l0,0.000001z"/>
</g>
</svg>
