<svg width="60" height="60" xmlns="http://www.w3.org/2000/svg">
  <defs>
    <filter id="drop_shadow" filterUnits="objectBoundingBox" x="-50%" y="-50%" width="200%" height="200%">
      <feDropShadow dx="0.5" dy="0.5" stdDeviation="2" flood-color="black" flood-opacity="0.8" />
    </filter>
    <filter id="blur_shadow" filterUnits="objectBoundingBox" x="-50%" y="-50%" width="200%" height="200%">
      <feGaussianBlur in="SourceGraphic" stdDeviation="3" />
    </filter>
    <filter id="shadow">
      <feDropShadow dx="0.3" dy="0.6" stdDeviation="0.6" flood-color="black"/>
    </filter>
  <linearGradient id="linearGradient3199">
   <stop id="stop3201" offset="0" stop-color="#ffffff"/>
   <stop id="stop3203" offset="1" stop-opacity="0" stop-color="#ffffff"/>
  </linearGradient>
  <linearGradient xlink:href="#linearGradient3199" id="linearGradient3206" x1="0.35792" y1="0.0564" x2="0.4991" y2="0.96319"/>
  </defs>
 <g>
  <circle cx="30" cy="30" r="20.24999" fill-opacity="0.4" fill="blue"/>
  <path style="filter:url(#blur_shadow)" fill="black" d="m4.17751,30.04586c0,-4.67832 1.16958,-9.01264 3.48581,-12.98004s5.45804,-7.10921 9.42544,-9.42544s8.27879,-3.46287 12.93418,-3.46287c3.48581,0 6.83402,0.68799 10.02169,2.04103s5.9167,3.21061 8.23292,5.5039s4.15086,5.04525 5.5039,8.25586s2.04103,6.53589 2.04103,10.06756c0,3.48581 -0.68799,6.83402 -2.04103,10.02169s-3.21061,5.93963 -5.5039,8.23292s-5.04525,4.12793 -8.23292,5.48097s-6.51295,2.04103 -10.02169,2.04103c-3.50874,0 -6.87988,-0.68799 -10.06756,-2.04103s-5.93963,-3.21061 -8.25586,-5.5039s-4.12793,-5.04525 -5.5039,-8.20999s-2.0181,-6.51295 -2.0181,-10.02169zm5.68737,0c0,5.43511 1.97223,10.15929 5.93963,14.17256c3.9674,3.9674 8.69158,5.93963 14.21842,5.93963c3.6234,0 6.99455,-0.89438 10.06756,-2.70609s5.54977,-4.24259 7.36147,-7.33854s2.72902,-6.44416 2.72902,-10.06756s-0.91732,-6.99455 -2.72902,-10.09049s-4.26553,-5.54977 -7.36147,-7.36147s-6.44416,-2.70609 -10.06756,-2.70609s-6.99455,0.89438 -10.06756,2.70609s-5.54977,4.26553 -7.38441,7.36147s-2.70609,6.46709 -2.70609,10.09049zm18.16289,10.54915l0,-25.82249c0,-0.52746 0.18346,-0.98612 0.55039,-1.35304s0.82559,-0.55039 1.35304,-0.55039s0.98612,0.18346 1.35304,0.55039s0.55039,0.82559 0.55039,1.35304l0,25.82249c0,0.52746 -0.18346,0.98612 -0.55039,1.37598s-0.82559,0.57332 -1.35304,0.57332s-0.98612,-0.18346 -1.35304,-0.57332s-0.55039,-0.82559 -0.55039,-1.37598z"/>

<g stroke="midnightblue" stroke-opacity="0.4" stroke-width="0.5" style="filter:url(#drop_shadow);">
  <path fill="blue" d="m30.02294,55.82247zm-1.99517,-15.22746l0,-25.82249c0,-0.52746 0.18346,-0.98612 0.55039,-1.35304s0.82559,-0.55039 1.35304,-0.55039s0.98612,0.18346 1.35304,0.55039s0.55039,0.82559 0.55039,1.35304l0,25.82249c0,0.52746 -0.18346,0.98612 -0.55039,1.37598s-0.82559,0.57332 -1.35304,0.57332s-0.98612,-0.18346 -1.35304,-0.57332s-0.55039,-0.82559 -0.55039,-1.37598z"/>
  <path fill="red" d="m30.02266,55.50972zm-1.97101,-25.46441c0,0.49841 0.18124,0.95152 0.54372,1.33666c0.36248,0.38514 0.81559,0.56638 1.33666,0.56638c0.49841,0 0.95152,-0.18124 1.33666,-0.56638c0.38514,-0.38514 0.56638,-0.81559 0.56638,-1.33666l0,-15.08835c0,-0.52107 -0.18124,-0.97417 -0.56638,-1.33666s-0.81559,-0.54372 -1.33666,-0.54372c-0.52107,0 -0.97417,0.18124 -1.33666,0.54372s-0.54372,0.81559 -0.54372,1.33666l0,15.08835z"/>

</g>
  <path d="m46.31259,25.7251c-1.22051,7.14799 -8.77858,9.72413 -16.42312,10.89422c-7.65822,1.17219 -16.54284,0.20237 -18.26605,-8.02008c-1.71947,-8.20461 7.01441,-18.57121 18.47796,-18.57121c11.46355,0 17.42792,8.57133 16.21121,15.69706l0,0l0,0z" stroke-dashoffset="0" stroke-miterlimit="4" stroke-linejoin="round" stroke-linecap="round" stroke-width="0.2" fill="url(#linearGradient3206)" fill-opacity="0.7"/>
  <path stroke="midnightblue" stroke-opacity="0.4" stroke-width="2.5"  fill="mediumaquamarine" d="m4.49027,30.04531c0,-4.62166 1.15541,-8.90348 3.44359,-12.82283s5.39193,-7.0231 9.31128,-9.31128s8.17852,-3.42093 12.77752,-3.42093c3.44359,0 6.75124,0.67966 9.90031,2.01631s5.84504,3.17172 8.13321,5.43724s4.10059,4.98414 5.43724,8.15586s2.01631,6.45672 2.01631,9.94562c0,3.44359 -0.67966,6.75124 -2.01631,9.90031s-3.17172,5.86769 -5.43724,8.13321s-4.98414,4.07793 -8.13321,5.41459s-6.43407,2.01631 -9.90031,2.01631c-3.46624,0 -6.79655,-0.67966 -9.94562,-2.01631s-5.86769,-3.17172 -8.15586,-5.43724s-4.07793,-4.98414 -5.43724,-8.11055s-1.99366,-6.43407 -1.99366,-9.90031l-0.00001,0zm5.61848,0c0,5.36928 1.94835,10.03624 5.86769,14.0009c3.91935,3.91935 8.58631,5.86769 14.04621,5.86769c3.57952,0 6.90983,-0.88355 9.94562,-2.67331s5.48255,-4.19121 7.27231,-7.24966s2.69597,-6.3661 2.69597,-9.94562s-0.90621,-6.90983 -2.69597,-9.96828s-4.21386,-5.48255 -7.27231,-7.27231s-6.3661,-2.67331 -9.94562,-2.67331s-6.90983,0.88355 -9.94562,2.67331s-5.48255,4.21386 -7.29497,7.27231s-2.67331,6.38876 -2.67331,9.96828z"/>
</g>
</svg>


