<svg width="60" height="60" xmlns="http://www.w3.org/2000/svg">
  <g stroke="midnightblue" stroke-opacity="0.2">
   <path stroke-width="2.5" stroke="midnightblue" stroke-opacity="0.4" fill="linen" d="m4.88681,31.56908c0,-2.78632 0.87224,-5.25766 2.61671,-7.43825c1.74448,-2.18059 3.9493,-3.56164 6.61447,-4.19159c0.75109,-3.29512 2.44711,-6.00875 5.08805,-8.11666s5.69378,-3.17398 9.11004,-3.17398c3.34358,0 6.2995,1.04184 8.91621,3.07706c2.59249,2.05945 4.31273,4.70039 5.11228,7.94706l0.75109,0c2.15637,0 4.16736,0.53303 6.00875,1.57487s3.31935,2.49557 4.38542,4.31273c1.06607,1.81716 1.62333,3.82816 1.62333,5.98452c0,3.24666 -1.11453,6.03298 -3.34358,8.35895s-4.96691,3.56164 -8.18935,3.65855c-0.31497,0 -0.48458,-0.14537 -0.48458,-0.41189l0,-3.22243c0,-0.29075 0.1696,-0.43612 0.48458,-0.43612c2.08368,-0.09692 3.82816,-0.9207 5.28189,-2.47134s2.18059,-3.36781 2.18059,-5.47572s-0.77532,-3.92507 -2.37443,-5.47572c-1.57487,-1.55065 -3.44049,-2.32597 -5.59686,-2.32597l-3.87661,0c-0.29075,0 -0.46035,-0.14537 -0.46035,-0.41189l-0.1696,-1.40527c-0.26652,-2.59249 -1.38104,-4.79731 -3.34358,-6.56601c-1.98676,-1.7687 -4.2885,-2.66517 -6.90522,-2.66517c-2.64094,0 -4.96691,0.87224 -6.92945,2.64094c-1.96254,1.7687 -3.07706,3.9493 -3.34358,6.56601l-0.14537,1.30836c0,0.29075 -0.1696,0.43612 -0.48458,0.43612l-1.28413,0.07269c-1.98676,0.09692 -3.65855,0.89647 -5.06383,2.42288s-2.08368,3.31935 -2.08368,5.3788c0,2.10791 0.72686,3.92507 2.18059,5.47572s3.22243,2.37443 5.28189,2.47134c0.26652,0 0.41189,0.14537 0.41189,0.43612l0,3.22243c0,0.26652 -0.14537,0.41189 -0.41189,0.41189c-3.24666,-0.14537 -5.98452,-1.38104 -8.2378,-3.70701s-3.31935,-5.0396 -3.31935,-8.26203l0.00004,0.00001z"/>
   <path fill="white" d="m18.1916,48.99323c0,-0.56733 0.19733,-1.06066 0.61666,-1.47999c0.39466,-0.37 0.86333,-0.56733 1.40599,-0.56733c0.56733,0 1.06066,0.19733 1.45533,0.56733s0.592,0.86333 0.592,1.45533c0,0.592 -0.19733,1.06066 -0.592,1.45533c-0.39466,0.39466 -0.86333,0.56733 -1.45533,0.56733c-0.56733,0 -1.06066,-0.19733 -1.45533,-0.56733c-0.37,-0.37 -0.56733,-0.86333 -0.56733,-1.43066l0.00001,-0.00001zm2.12132,-8.95396c0,-0.54266 0.19733,-1.03599 0.592,-1.43066c0.39466,-0.39466 0.86333,-0.592 1.45533,-0.592c0.56733,0 1.06066,0.19733 1.45533,0.592c0.39466,0.39466 0.592,0.888 0.592,1.43066c0,0.592 -0.19733,1.08533 -0.592,1.47999c-0.39466,0.41933 -0.86333,0.61666 -1.45533,0.61666c-0.56733,0 -1.06066,-0.19733 -1.45533,-0.61666c-0.39466,-0.39466 -0.592,-0.888 -0.592,-1.47999zm4.68664,13.7886c0,-0.56733 0.19733,-1.06066 0.61666,-1.50466c0.39466,-0.39466 0.86333,-0.592 1.40599,-0.592c0.592,0 1.08533,0.19733 1.50466,0.61666c0.41933,0.41933 0.61666,0.91266 0.61666,1.47999s-0.19733,1.06066 -0.61666,1.45533c-0.41933,0.39466 -0.91266,0.592 -1.50466,0.592c-0.56733,0 -1.03599,-0.19733 -1.43066,-0.592c-0.37,-0.41933 -0.592,-0.888 -0.592,-1.45533l0.00001,0.00001zm2.14599,-9.02796c0,-0.592 0.19733,-1.08533 0.592,-1.52933c0.39466,-0.39466 0.888,-0.592 1.43066,-0.592c0.56733,0 1.06066,0.19733 1.47999,0.61666c0.41933,0.41933 0.61666,0.91266 0.61666,1.50466c0,0.56733 -0.19733,1.06066 -0.61666,1.47999s-0.91266,0.61666 -1.47999,0.61666c-0.56733,0 -1.03599,-0.19733 -1.43066,-0.61666c-0.39466,-0.41933 -0.592,-0.91266 -0.592,-1.47999l0,0.00001zm1.03599,-8.92929c0,-0.56733 0.19733,-1.06066 0.61666,-1.47999c0.444,-0.39466 0.91266,-0.592 1.40599,-0.592c0.592,0 1.08533,0.19733 1.50466,0.61666c0.41933,0.41933 0.61666,0.888 0.61666,1.47999c0,0.56733 -0.19733,1.06066 -0.61666,1.45533c-0.41933,0.39466 -0.91266,0.592 -1.50466,0.592c-0.56733,0 -1.03599,-0.19733 -1.43066,-0.592c-0.39466,-0.41933 -0.592,-0.91266 -0.592,-1.47999l0.00001,0zm5.84597,13.1226c0,-0.56733 0.19733,-1.06066 0.592,-1.47999c0.39466,-0.37 0.888,-0.56733 1.47999,-0.56733c0.592,0 1.06066,0.19733 1.45533,0.56733c0.39466,0.39466 0.56733,0.86333 0.56733,1.45533c0,0.592 -0.19733,1.06066 -0.56733,1.45533c-0.39466,0.39466 -0.86333,0.56733 -1.45533,0.56733c-0.592,0 -1.08533,-0.19733 -1.47999,-0.592c-0.39466,-0.37 -0.592,-0.83866 -0.592,-1.40599l0,-0.00001zm2.09666,-8.95396c0,-0.54266 0.19733,-1.01133 0.61666,-1.43066c0.41933,-0.41933 0.91266,-0.61666 1.47999,-0.61666c0.56733,0 1.06066,0.19733 1.45533,0.592c0.39466,0.39466 0.592,0.888 0.592,1.43066c0,0.592 -0.19733,1.08533 -0.592,1.47999c-0.39466,0.41933 -0.86333,0.61666 -1.45533,0.61666c-0.592,0 -1.08533,-0.19733 -1.47999,-0.61666c-0.39466,-0.39466 -0.61666,-0.888 -0.61666,-1.45533z"/>
  </g>
</svg>
