<svg width="60" height="60" xmlns="http://www.w3.org/2000/svg">
  <defs>
    <filter id="drop_shadow" filterUnits="objectBoundingBox" x="-50%" y="-50%" width="200%" height="200%">
      <feDropShadow dx="0.5" dy="0.5" stdDeviation="2" flood-color="black" flood-opacity="0.8" />
    </filter>
    <filter id="blur_shadow" filterUnits="objectBoundingBox" x="-50%" y="-50%" width="200%" height="200%">
      <feGaussianBlur in="SourceGraphic" stdDeviation="3" />
    </filter>
    <filter id="shadow">
      <feDropShadow dx="0.3" dy="0.6" stdDeviation="0.6" flood-color="black"/>
    </filter>
  </defs>
<g>
  <path filter="url(#blur_shadow)" d="m10.066166,32.181258c0,2.045769 0.753701,3.82236 2.207284,5.275943s3.25709,2.207284 5.3567,2.207284l24.979961,0c2.072695,0 3.876202,-0.726786 5.3567,-2.207284c1.480498,-1.480498 2.2342,-3.230163 2.2342,-5.275943c0,-2.045769 -0.726786,-3.82236 -2.2342,-5.275943c-1.480498,-1.453572 -3.25709,-2.207284 -5.3567,-2.207284l-3.741613,0c-0.269177,0 -0.403766,-0.134589 -0.403766,-0.403766l-0.188431,-1.318983c-0.269177,-2.530304 -1.345898,-4.65683 -3.203247,-6.325748s-4.064633,-2.503377 -6.594925,-2.503377c-2.530304,0 -4.737577,0.834459 -6.621841,2.530304c-1.884264,1.668918 -2.93407,3.795444 -3.176332,6.298833l-0.188431,1.130563c0,0.269177 -0.134589,0.403766 -0.430693,0.403766l-1.21131,0.188431c-1.938095,0.161504 -3.553182,0.969048 -4.872165,2.395704c-1.238236,1.426656 -1.91118,3.122501 -1.91118,5.087512l-0.000011,-0.000011z"  fill-opacity="0.2" fill="paleturquoise"/>
<g stroke="midnightblue" stroke-opacity="0.4" style="filter:url(#drop_shadow);" >
   <path fill="linen" stroke-width="2.5" d="m4.88681,31.56908c0,-2.78632 0.87224,-5.25766 2.61671,-7.43825c1.74448,-2.18059 3.9493,-3.56164 6.61447,-4.19159c0.75109,-3.29512 2.44711,-6.00875 5.08805,-8.11666s5.69378,-3.17398 9.11004,-3.17398c3.34358,0 6.2995,1.04184 8.91621,3.07706c2.59249,2.05945 4.31273,4.70039 5.11228,7.94706l0.75109,0c2.15637,0 4.16736,0.53303 6.00875,1.57487s3.31935,2.49557 4.38542,4.31273c1.06607,1.81716 1.62333,3.82816 1.62333,5.98452c0,3.24666 -1.11453,6.03298 -3.34358,8.35895s-4.96691,3.56164 -8.18935,3.65855c-0.31497,0 -0.48458,-0.14537 -0.48458,-0.41189l0,-3.22243c0,-0.29075 0.1696,-0.43612 0.48458,-0.43612c2.08368,-0.09692 3.82816,-0.9207 5.28189,-2.47134s2.18059,-3.36781 2.18059,-5.47572s-0.77532,-3.92507 -2.37443,-5.47572c-1.57487,-1.55065 -3.44049,-2.32597 -5.59686,-2.32597l-3.87661,0c-0.29075,0 -0.46035,-0.14537 -0.46035,-0.41189l-0.1696,-1.40527c-0.26652,-2.59249 -1.38104,-4.79731 -3.34358,-6.56601c-1.98676,-1.7687 -4.2885,-2.66517 -6.90522,-2.66517c-2.64094,0 -4.96691,0.87224 -6.92945,2.64094c-1.96254,1.7687 -3.07706,3.9493 -3.34358,6.56601l-0.14537,1.30836c0,0.29075 -0.1696,0.43612 -0.48458,0.43612l-1.28413,0.07269c-1.98676,0.09692 -3.65855,0.89647 -5.06383,2.42288s-2.08368,3.31935 -2.08368,5.3788c0,2.10791 0.72686,3.92507 2.18059,5.47572s3.22243,2.37443 5.28189,2.47134c0.26652,0 0.41189,0.14537 0.41189,0.43612l0,3.22243c0,0.26652 -0.14537,0.41189 -0.41189,0.41189c-3.24666,-0.14537 -5.98452,-1.38104 -8.2378,-3.70701s-3.31935,-5.0396 -3.31935,-8.26203l0.00004,0.00001z"/>
  <path stroke-width="1" fill="cornflowerblue"  d="m18.3021,49.26961c0,-0.06773 0.02258,-0.18062 0.04515,-0.2935s0.04515,-0.20319 0.04515,-0.24835l0.60958,-2.32545c0.15804,-0.4967 0.45154,-0.90309 0.90309,-1.15144c0.45154,-0.27093 0.92566,-0.31608 1.44495,-0.15804c0.51927,0.15804 0.90309,0.45154 1.17402,0.90309c0.27093,0.45154 0.31608,0.92566 0.15804,1.44495l-0.54186,2.2803c-0.2935,0.9934 -0.85794,1.4901 -1.71587,1.4901c-0.06773,0 -0.11289,0 -0.20319,0c-0.06773,0 -0.15804,-0.02258 -0.24835,-0.02258c-0.09031,-0.02258 -0.15804,-0.02258 -0.22578,-0.02258c-0.47412,-0.13546 -0.83536,-0.40639 -1.0837,-0.76762s-0.36123,-0.76762 -0.36123,-1.12887l0,-0.00001zm2.9802,-10.88223c0,-0.04515 0,-0.13546 0.02258,-0.24835c0.02258,-0.11289 0.02258,-0.18062 0.02258,-0.20319l0.67731,-2.37061c0.13546,-0.42897 0.38382,-0.76762 0.72247,-1.01598c0.33866,-0.22578 0.6999,-0.33866 1.06113,-0.33866c0.04515,0 0.11289,0 0.18062,0c0.06773,0 0.13546,0.02258 0.20319,0.02258c0.06773,0.02258 0.13546,0.02258 0.18062,0.02258c0.51927,0.15804 0.90309,0.45154 1.15144,0.90309c0.27093,0.45154 0.31608,0.92566 0.15804,1.44495l-0.54186,2.25772c-0.15804,0.63216 -0.45154,1.06113 -0.90309,1.33206s-0.94824,0.27093 -1.46752,0.04515c-0.4967,-0.13546 -0.85794,-0.38382 -1.10628,-0.76762s-0.36123,-0.72247 -0.36123,-1.0837l-0.00001,-0.00002zm2.77699,17.9489c0,-0.06773 0.02258,-0.15804 0.04515,-0.2935s0.04515,-0.20319 0.04515,-0.27093l0.65474,-2.23515c0.13546,-0.54186 0.45154,-0.94824 0.90309,-1.21917c0.45154,-0.27093 0.94824,-0.33866 1.46752,-0.18062c0.51927,0.15804 0.88051,0.45154 1.15144,0.92566s0.2935,0.94824 0.15804,1.46752l-0.56443,2.34804c-0.24835,0.92566 -0.83536,1.37721 -1.80618,1.37721c-0.11289,0 -0.2935,-0.02258 -0.54186,-0.09031c-0.4967,-0.09031 -0.85794,-0.31608 -1.10628,-0.67731c-0.27093,-0.36123 -0.40639,-0.74505 -0.40639,-1.15144zm3.02535,-10.76934c0,-0.13546 0.02258,-0.31608 0.09031,-0.56443l0.60958,-2.32545c0.15804,-0.51927 0.45154,-0.90309 0.92566,-1.15144c0.45154,-0.27093 0.94824,-0.31608 1.46752,-0.15804c0.51927,0.13546 0.88051,0.42897 1.15144,0.88051c0.24835,0.45154 0.2935,0.92566 0.13546,1.46752l-0.54186,2.23515c-0.2935,1.01598 -0.83536,1.53525 -1.62556,1.53525c-0.09031,0 -0.33866,-0.04515 -0.6999,-0.13546c-0.4967,-0.09031 -0.85794,-0.31608 -1.10628,-0.67731c-0.27093,-0.33866 -0.40639,-0.72247 -0.40639,-1.10628l0.00002,-0.00001zm6.36677,3.79297c0,-0.15804 0.02258,-0.33866 0.06773,-0.54186l0.63216,-2.23515c0.15804,-0.54186 0.45154,-0.94824 0.92566,-1.21917s0.92566,-0.33866 1.42236,-0.20319c0.51927,0.15804 0.92566,0.45154 1.19659,0.92566c0.27093,0.45154 0.33866,0.92566 0.20319,1.42236l-0.65474,2.39319c-0.22578,0.92566 -0.81278,1.37721 -1.7836,1.37721c-0.20319,0 -0.40639,-0.02258 -0.58701,-0.06773c-0.45154,-0.09031 -0.7902,-0.31608 -1.03855,-0.67731c-0.22578,-0.40639 -0.36123,-0.7902 -0.38382,-1.17402l0.00001,0.00001zm3.11566,-10.74677c0,-0.06773 0.04515,-0.27093 0.11289,-0.58701l0.67731,-2.32545c0.09031,-0.47412 0.2935,-0.83536 0.65474,-1.06113c0.36123,-0.22578 0.72247,-0.33866 1.10628,-0.31608c0.09031,-0.02258 0.2935,0 0.54186,0.06773c0.4967,0.11289 0.88051,0.40639 1.17402,0.85794c0.27093,0.38382 0.31608,0.85794 0.15804,1.46752l-0.54186,2.32545c-0.2935,0.97083 -0.85794,1.46752 -1.71587,1.46752c-0.13546,0 -0.38382,-0.04515 -0.76762,-0.13546c-0.47412,-0.13546 -0.81278,-0.38382 -1.03855,-0.6999c-0.24835,-0.36123 -0.36123,-0.6999 -0.36123,-1.06113l-0.00001,0z"/>
</g>
</g>
</svg>
