<svg xmlns="http://www.w3.org/2000/svg" viewBox="0 0 60 60" width="60" height="60">
  <defs>
    <filter id="drop_shadow" filterUnits="objectBoundingBox" x="-50%" y="-50%" width="200%" height="200%">
      <feDropShadow dx="0.5" dy="0.5" stdDeviation="2" flood-color="black" flood-opacity="0.8" />
    </filter>
    <filter id="blur_shadow" filterUnits="objectBoundingBox" x="-50%" y="-50%" width="200%" height="200%">
      <feGaussianBlur in="SourceGraphic" stdDeviation="3" />
    </filter>
  </defs>
   <path   d="m3.9251,36.81115c0,2.16885 0.53612,4.19148 1.60836,6.04353s2.51001,3.31419 4.36206,4.38643s3.85031,1.63273 6.04353,1.63273l26.34295,0c2.16885,0 4.19148,-0.53612 6.04353,-1.63273s3.31419,-2.55875 4.38643,-4.38643c1.07224,-1.85205 1.63273,-3.87468 1.63273,-6.04353c0,-1.55962 -0.34117,-3.16798 -1.0235,-4.87381c1.85205,-2.26632 2.7537,-4.94692 2.7537,-8.04179c0,-2.31506 -0.56049,-4.45954 -1.68147,-6.40906c-1.12098,-1.94952 -2.6806,-3.50914 -4.63012,-4.65449c-1.94952,-1.14535 -4.094,-1.70583 -6.40906,-1.70583c-3.63099,0 -6.7746,1.41341 -9.43083,4.24022c-1.85205,-1.04787 -4.04526,-1.58399 -6.55528,-1.58399c-3.43604,0 -6.4578,1.04787 -9.08966,3.16798s-4.31332,4.82507 -5.06876,8.16363c-2.72933,0.60923 -4.94692,1.99826 -6.67712,4.19148c-1.7302,2.19322 -2.60749,4.70323 -2.60749,7.50567l0,-0.00001zm4.16711,0c0,-2.02263 0.68233,-3.7772 2.02263,-5.26372c1.36467,-1.48651 3.0705,-2.33943 5.1175,-2.58312l1.6571,-0.07311l0.17058,-1.75457c0.34117,-2.63186 1.48651,-4.84944 3.43604,-6.60401c1.94952,-1.77894 4.24022,-2.65623 6.84771,-2.65623c2.65623,0 4.99566,0.90166 6.96955,2.6806s3.09487,3.97216 3.36293,6.60401l0.24369,1.82768l4.33769,0c2.14448,0 3.99653,0.77981 5.55615,2.31506s2.33943,3.3873 2.33943,5.50741c0,2.19322 -0.77981,4.06963 -2.31506,5.65362s-3.41167,2.3638 -5.55615,2.3638l-26.34295,0c-2.12011,0 -3.94779,-0.77981 -5.50741,-2.3638c-1.55962,-1.60836 -2.33943,-3.48478 -2.33943,-5.65362zm29.31598,-19.08097c1.68147,-1.60836 3.65536,-2.41254 5.94605,-2.41254c2.41254,0 4.45954,0.82855 6.141,2.51001c1.68147,1.6571 2.53438,3.7041 2.53438,6.11663c0,1.51088 -0.41427,2.99739 -1.26719,4.48391c-2.33943,-2.3638 -5.16624,-3.53351 -8.5048,-3.53351l-0.75544,0c-0.65796,-2.70497 -2.02263,-5.09313 -4.094,-7.1645z" fill="black" style="filter:url(#blur_shadow)"/>

 <g>
  <circle r="10" cx="44.62447" cy="21.49975" fill="lightcyan" fill-opacity="0.2" style="filter:url(#blur_shadow);"/>
  <g stroke-opacity="0.4" stroke="midnightblue">
   <path   d="m3.9251,36.81115c0,2.16885 0.53612,4.19148 1.60836,6.04353s2.51001,3.31419 4.36206,4.38643s3.85031,1.63273 6.04353,1.63273l26.34295,0c2.16885,0 4.19148,-0.53612 6.04353,-1.63273s3.31419,-2.55875 4.38643,-4.38643c1.07224,-1.85205 1.63273,-3.87468 1.63273,-6.04353c0,-1.55962 -0.34117,-3.16798 -1.0235,-4.87381c1.85205,-2.26632 2.7537,-4.94692 2.7537,-8.04179c0,-2.31506 -0.56049,-4.45954 -1.68147,-6.40906c-1.12098,-1.94952 -2.6806,-3.50914 -4.63012,-4.65449c-1.94952,-1.14535 -4.094,-1.70583 -6.40906,-1.70583c-3.63099,0 -6.7746,1.41341 -9.43083,4.24022c-1.85205,-1.04787 -4.04526,-1.58399 -6.55528,-1.58399c-3.43604,0 -6.4578,1.04787 -9.08966,3.16798s-4.31332,4.82507 -5.06876,8.16363c-2.72933,0.60923 -4.94692,1.99826 -6.67712,4.19148c-1.7302,2.19322 -2.60749,4.70323 -2.60749,7.50567l0,-0.00001zm4.16711,0c0,-2.02263 0.68233,-3.7772 2.02263,-5.26372c1.36467,-1.48651 3.0705,-2.33943 5.1175,-2.58312l1.6571,-0.07311l0.17058,-1.75457c0.34117,-2.63186 1.48651,-4.84944 3.43604,-6.60401c1.94952,-1.77894 4.24022,-2.65623 6.84771,-2.65623c2.65623,0 4.99566,0.90166 6.96955,2.6806s3.09487,3.97216 3.36293,6.60401l0.24369,1.82768l4.33769,0c2.14448,0 3.99653,0.77981 5.55615,2.31506s2.33943,3.3873 2.33943,5.50741c0,2.19322 -0.77981,4.06963 -2.31506,5.65362s-3.41167,2.3638 -5.55615,2.3638l-26.34295,0c-2.12011,0 -3.94779,-0.77981 -5.50741,-2.3638c-1.55962,-1.60836 -2.33943,-3.48478 -2.33943,-5.65362zm29.31598,-19.08097c1.68147,-1.60836 3.65536,-2.41254 5.94605,-2.41254c2.41254,0 4.45954,0.82855 6.141,2.51001c1.68147,1.6571 2.53438,3.7041 2.53438,6.11663c0,1.51088 -0.41427,2.99739 -1.26719,4.48391c-2.33943,-2.3638 -5.16624,-3.53351 -8.5048,-3.53351l-0.75544,0c-0.65796,-2.70497 -2.02263,-5.09313 -4.094,-7.1645z" fill="linen" stroke-width="2.5" style="filter:url(#drop_shadow)"/>
   <path id="svg_4" d="m8.18267,36.77974c0,2.14134 0.78891,4.00093 2.3104,5.52242s3.40925,2.3104 5.60695,2.3104l26.14696,0c2.16953,0 4.05729,-0.76074 5.60695,-2.3104c1.54966,-1.54966 2.33858,-3.38107 2.33858,-5.52242c0,-2.14134 -0.76074,-4.00093 -2.33858,-5.52242c-1.54966,-1.52148 -3.40925,-2.3104 -5.60695,-2.3104l-3.91641,0c-0.28175,0 -0.42263,-0.14088 -0.42263,-0.42263l-0.19723,-1.3806c-0.28175,-2.64851 -1.40878,-4.87439 -3.35289,-6.62127s-4.25452,-2.62033 -6.90302,-2.62033c-2.64851,0 -4.9589,0.87344 -6.9312,2.64851c-1.97229,1.74689 -3.07114,3.97276 -3.32472,6.5931l-0.19723,1.18338c0,0.28175 -0.14088,0.42263 -0.45081,0.42263l-1.2679,0.19723c-2.02864,0.16905 -3.71918,1.01432 -5.09978,2.50762c-1.29608,1.49331 -2.00047,3.26838 -2.00047,5.32519l-0.00001,-0.00001l-0.00001,0z" fill-opacity="0.4" fill="paleturquoise"/>
  </g>
 </g>
</svg>
