<svg width="60" height="60" xmlns="http://www.w3.org/2000/svg">

  <defs>
    <filter id="drop_shadow" filterUnits="objectBoundingBox" x="-50%" y="-50%" width="200%" height="200%">
      <feDropShadow dx="0.5" dy="0.5" stdDeviation="2" flood-color="black" flood-opacity="0.8" />
    </filter>
    <filter id="blur_shadow" filterUnits="objectBoundingBox" x="-50%" y="-50%" width="200%" height="200%">
      <feGaussianBlur in="SourceGraphic" stdDeviation="3" />
    </filter>
    <filter id="shadow">
      <feDropShadow dx="0.3" dy="0.6" stdDeviation="0.6" flood-color="black"/>
    </filter>
  </defs>

<g fill="black" style="filter:url(#blur_shadow)">
  <path  d="m6.185,41.83435c0,0.47839 0.1794,0.87706 0.53819,1.19598c0.3588,0.3588 0.75746,0.53819 1.21592,0.53819l11.72065,0c0.51826,0 0.97672,0.1794 1.37538,0.55813c0.39866,0.37873 0.59799,0.83719 0.59799,1.35545c0,0.51826 -0.19933,0.95679 -0.59799,1.35545s-0.85712,0.59799 -1.35545,0.59799c-0.49833,0 -0.95679,-0.19933 -1.35545,-0.59799c-0.37873,-0.33886 -0.77739,-0.51826 -1.23585,-0.51826c-0.45846,0 -0.85712,0.15946 -1.17605,0.49833c-0.31893,0.33886 -0.47839,0.73752 -0.47839,1.21592s0.15946,0.87706 0.47839,1.19598c1.03652,1.03652 2.2923,1.55478 3.74742,1.55478c1.47505,0 2.75077,-0.51826 3.76735,-1.53485c1.03652,-1.03652 1.55478,-2.27237 1.55478,-3.74742c0,-1.47505 -0.51826,-2.75077 -1.55478,-3.78729c-1.03652,-1.03652 -2.2923,-1.57471 -3.76735,-1.57471l-11.72065,0c-0.47839,0 -0.87706,0.15946 -1.23585,0.49833c-0.3588,0.33886 -0.51826,0.73752 -0.51826,1.19598zm0,-5.99986c0,0.45846 0.1794,0.83719 0.53819,1.15612c0.299,0.31893 0.69766,0.47839 1.21592,0.47839l21.90646,0c1.47505,0 2.73083,-0.51826 3.76735,-1.55478c1.03652,-1.03652 1.55478,-2.2923 1.55478,-3.74742s-0.51826,-2.7109 -1.55478,-3.74742c-1.03652,-1.03652 -2.2923,-1.53485 -3.76735,-1.53485c-1.51491,0 -2.7707,0.49833 -3.76735,1.49498c-0.299,0.33886 -0.45846,0.75746 -0.45846,1.25578c0,0.47839 0.15946,0.85712 0.45846,1.17605s0.69766,0.45846 1.19598,0.45846c0.49833,0 0.89699,-0.13953 1.21592,-0.45846c0.37873,-0.37873 0.83719,-0.55813 1.35545,-0.55813c0.51826,0 0.95679,0.1794 1.35545,0.55813c0.37873,0.37873 0.57806,0.83719 0.57806,1.35545s-0.19933,0.99665 -0.57806,1.37538c-0.37873,0.37873 -0.83719,0.57806 -1.35545,0.57806l-21.90646,0c-0.47839,0 -0.87706,0.15946 -1.23585,0.49833c-0.3588,0.3588 -0.51826,0.75746 -0.51826,1.21592zm5.28227,-4.66434c0,0.15946 0.1196,0.2392 0.33886,0.2392l2.85043,0c0.15946,0 0.299,-0.09967 0.43853,-0.27906c0.45846,-1.07639 1.13619,-1.97338 2.09297,-2.69097c0.93685,-0.71759 1.99331,-1.11625 3.16936,-1.19598l1.03652,-0.13953c0.2392,0 0.37873,-0.1196 0.37873,-0.37873l0.13953,-0.99665c0.21926,-2.15277 1.13619,-3.96668 2.75077,-5.40187c1.61458,-1.45511 3.52816,-2.17271 5.70086,-2.17271s4.06635,0.71759 5.68093,2.15277c1.61458,1.43518 2.5315,3.24909 2.7707,5.4218l0.13953,1.13619c0,0.2392 0.1196,0.3588 0.3588,0.3588l3.24909,0c1.79398,0 3.32882,0.63786 4.60454,1.89364c1.27572,1.25578 1.91358,2.7707 1.91358,4.54474c0,1.77404 -0.63786,3.30889 -1.91358,4.56468c-1.27572,1.25578 -2.81056,1.89364 -4.60454,1.89364l-13.77376,0c-0.21926,0 -0.33886,0.1196 -0.33886,0.3588l0,2.73083c0,0.2392 0.1196,0.3588 0.33886,0.3588l13.77376,0c1.77404,0 3.42849,-0.43853 4.9434,-1.33552c1.51491,-0.87706 2.7109,-2.09297 3.58795,-3.60789c0.87706,-1.51491 1.31558,-3.16936 1.31558,-4.96334c0,-1.47505 -0.27906,-2.8305 -0.83719,-4.02648c1.51491,-1.99331 2.27237,-4.20588 2.27237,-6.63772c0,-1.41525 -0.27906,-2.7707 -0.83719,-4.06635s-1.29565,-2.39197 -2.23251,-3.32882c-0.93685,-0.93685 -2.05311,-1.67438 -3.32882,-2.21257s-2.67103,-0.81726 -4.08628,-0.81726c-3.06969,0 -5.661,1.15612 -7.73404,3.44842c-1.55478,-0.81726 -3.32882,-1.21592 -5.28227,-1.21592c-2.81056,0 -5.3022,0.87706 -7.47491,2.61123s-3.52816,3.96668 -4.12615,6.67758c-1.69431,0.39866 -3.18929,1.21592 -4.50488,2.45177s-2.21257,2.69097 -2.73083,4.34541l0,0.07973c-0.01993,0.09967 -0.03987,0.1794 -0.03987,0.19933zm26.96946,-13.21563c1.43518,-1.35545 3.06969,-2.03317 4.9434,-2.03317c1.95344,0 3.60789,0.69766 5.0032,2.09297s2.09297,3.04976 2.09297,4.98327c0,1.21592 -0.33886,2.43184 -1.01659,3.68762c-1.91358,-1.91358 -4.20588,-2.85043 -6.91678,-2.85043l-0.65779,0c-0.47839,-2.13284 -1.61458,-4.10621 -3.44842,-5.88026z"/>
</g>

<g stroke-width="2.5" stroke-opacity="0.4" stroke="midnightblue">

  <path id="moonfillback" stroke-width="0.1" fill="paleturquoise"  fill-opacity="0.2" style="filter:url(#blur_shadow)"  d="m27.73777,9.91023zm10.5548,7.86436c1.428,-1.38661 3.12505,-2.06957 5.07044,-2.06957c2.04887,0 3.78731,0.70365 5.21531,2.13166c1.428,1.428 2.15235,3.14574 2.15235,5.19462c0,1.28313 -0.35183,2.56626 -1.05548,3.80801c-2.00748,-1.98679 -4.40818,-2.98018 -7.22279,-2.98018l-0.66226,0c-0.51739,-2.25583 -1.67635,-4.28401 -3.49757,-6.08453l0,-0.00001z"/>

  <path id="cloudfillback" stroke-width="0" filter="url(#blur_shadow)" fill="paleturquoise" fill-opacity="0.3" d="m14.30764,33.60041c0,1.77816 0.65511,3.32236 1.91855,4.5858s2.83103,1.91855 4.65599,1.91855l21.71235,0c1.80157,0 3.36916,-0.63171 4.65599,-1.91855c1.28683,-1.28683 1.94195,-2.80763 1.94195,-4.5858c0,-1.77816 -0.63171,-3.32236 -1.94195,-4.5858c-1.28683,-1.26343 -2.83103,-1.91855 -4.65599,-1.91855l-3.25217,0c-0.23397,0 -0.35095,-0.11698 -0.35095,-0.35095l-0.16378,-1.14645c-0.23397,-2.19932 -1.16985,-4.04768 -2.78423,-5.49828s-3.53294,-2.17592 -5.73225,-2.17592c-2.19932,0 -4.11785,0.72531 -5.75565,2.19932c-1.63779,1.45061 -2.55027,3.29897 -2.76084,5.47489l-0.16378,0.98267c0,0.23397 -0.11698,0.35095 -0.37435,0.35095l-1.05286,0.16378c-1.68458,0.14038 -3.0884,0.84229 -4.23484,2.08232c-1.07626,1.24004 -1.66119,2.71405 -1.66119,4.42202l-0.00001,-0.00001l-0.00001,0l0.00001,0l0.00001,0.00001z"/>

  <path id="cloudmoon" fill="linen" d="m6.72319,43.03033zm4.74408,-11.86018c0,0.15946 0.1196,0.2392 0.33886,0.2392l2.85043,0c0.15946,0 0.299,-0.09967 0.43853,-0.27906c0.45846,-1.07639 1.13619,-1.97338 2.09297,-2.69097c0.93685,-0.71759 1.99331,-1.11625 3.16936,-1.19598l1.03652,-0.13953c0.2392,0 0.37873,-0.1196 0.37873,-0.37873l0.13953,-0.99665c0.21926,-2.15277 1.13619,-3.96668 2.75077,-5.40187c1.61458,-1.45511 3.52816,-2.17271 5.70086,-2.17271s4.06635,0.71759 5.68093,2.15277c1.61458,1.43518 2.5315,3.24909 2.7707,5.4218l0.13953,1.13619c0,0.2392 0.1196,0.3588 0.3588,0.3588l3.24909,0c1.79398,0 3.32882,0.63786 4.60454,1.89364c1.27572,1.25578 1.91358,2.7707 1.91358,4.54474c0,1.77404 -0.63786,3.30889 -1.91358,4.56468c-1.27572,1.25578 -2.81056,1.89364 -4.60454,1.89364l-13.77376,0c-0.21926,0 -0.33886,0.1196 -0.33886,0.3588l0,2.73083c0,0.2392 0.1196,0.3588 0.33886,0.3588l13.77376,0c1.77404,0 3.42849,-0.43853 4.9434,-1.33552c1.51491,-0.87706 2.7109,-2.09297 3.58795,-3.60789c0.87706,-1.51491 1.31558,-3.16936 1.31558,-4.96334c0,-1.47505 -0.27906,-2.8305 -0.83719,-4.02648c1.51491,-1.99331 2.27237,-4.20588 2.27237,-6.63772c0,-1.41525 -0.27906,-2.7707 -0.83719,-4.06635s-1.29565,-2.39197 -2.23251,-3.32882c-0.93685,-0.93685 -2.05311,-1.67438 -3.32882,-2.21257s-2.67103,-0.81726 -4.08628,-0.81726c-3.06969,0 -5.661,1.15612 -7.73404,3.44842c-1.55478,-0.81726 -3.32882,-1.21592 -5.28227,-1.21592c-2.81056,0 -5.3022,0.87706 -7.47491,2.61123s-3.52816,3.96668 -4.12615,6.67758c-1.69431,0.39866 -3.18929,1.21592 -4.50488,2.45177s-2.21257,2.69097 -2.73083,4.34541l0,0.07973c-0.01993,0.09967 -0.03987,0.1794 -0.03987,0.19933l0.00003,0.00001zm26.96946,-13.21563c1.43518,-1.35545 3.06969,-2.03317 4.9434,-2.03317c1.95344,0 3.60789,0.69766 5.0032,2.09297s2.09297,3.04976 2.09297,4.98327c0,1.21592 -0.33886,2.43184 -1.01659,3.68762c-1.91358,-1.91358 -4.20588,-2.85043 -6.91678,-2.85043l-0.65779,0c-0.47839,-2.13284 -1.61458,-4.10621 -3.44842,-5.88026l0.00001,0z"/>

  <path fill="gray" id="wind" stroke-width="1" d="m6.185,41.83435c0,0.47839 0.1794,0.87706 0.53819,1.19598c0.3588,0.3588 0.75746,0.53819 1.21592,0.53819l11.72065,0c0.51826,0 0.97672,0.1794 1.37538,0.55813c0.39866,0.37873 0.59799,0.83719 0.59799,1.35545c0,0.51826 -0.19933,0.95679 -0.59799,1.35545s-0.85712,0.59799 -1.35545,0.59799c-0.49833,0 -0.95679,-0.19933 -1.35545,-0.59799c-0.37873,-0.33886 -0.77739,-0.51826 -1.23585,-0.51826c-0.45846,0 -0.85712,0.15946 -1.17605,0.49833c-0.31893,0.33886 -0.47839,0.73752 -0.47839,1.21592s0.15946,0.87706 0.47839,1.19598c1.03652,1.03652 2.2923,1.55478 3.74742,1.55478c1.47505,0 2.75077,-0.51826 3.76735,-1.53485c1.03652,-1.03652 1.55478,-2.27237 1.55478,-3.74742c0,-1.47505 -0.51826,-2.75077 -1.55478,-3.78729c-1.03652,-1.03652 -2.2923,-1.57471 -3.76735,-1.57471l-11.72065,0c-0.47839,0 -0.87706,0.15946 -1.23585,0.49833c-0.3588,0.33886 -0.51826,0.73752 -0.51826,1.19598l0,0.00001zm0,-5.99986c0,0.45846 0.1794,0.83719 0.53819,1.15612c0.299,0.31893 0.69766,0.47839 1.21592,0.47839l21.90646,0c1.47505,0 2.73083,-0.51826 3.76735,-1.55478c1.03652,-1.03652 1.55478,-2.2923 1.55478,-3.74742s-0.51826,-2.7109 -1.55478,-3.74742c-1.03652,-1.03652 -2.2923,-1.53485 -3.76735,-1.53485c-1.51491,0 -2.7707,0.49833 -3.76735,1.49498c-0.299,0.33886 -0.45846,0.75746 -0.45846,1.25578c0,0.47839 0.15946,0.85712 0.45846,1.17605s0.69766,0.45846 1.19598,0.45846c0.49833,0 0.89699,-0.13953 1.21592,-0.45846c0.37873,-0.37873 0.83719,-0.55813 1.35545,-0.55813c0.51826,0 0.95679,0.1794 1.35545,0.55813c0.37873,0.37873 0.57806,0.83719 0.57806,1.35545s-0.19933,0.99665 -0.57806,1.37538c-0.37873,0.37873 -0.83719,0.57806 -1.35545,0.57806l-21.90646,0c-0.47839,0 -0.87706,0.15946 -1.23585,0.49833c-0.3588,0.3588 -0.51826,0.75746 -0.51826,1.21592l0,0.00001z"/>


</g>

  <path id="moonfill" stroke-width="0" fill="paleturquoise"  fill-opacity="0.4"  d="m27.73777,9.91023zm10.5548,7.86436c1.428,-1.38661 3.12505,-2.06957 5.07044,-2.06957c2.04887,0 3.78731,0.70365 5.21531,2.13166c1.428,1.428 2.15235,3.14574 2.15235,5.19462c0,1.28313 -0.35183,2.56626 -1.05548,3.80801c-2.00748,-1.98679 -4.40818,-2.98018 -7.22279,-2.98018l-0.66226,0c-0.51739,-2.25583 -1.67635,-4.28401 -3.49757,-6.08453l0,-0.00001z"/>


</svg>



