<svg width="60" height="60" xmlns="http://www.w3.org/2000/svg">

  <defs>
    <filter id="drop_shadow" filterUnits="objectBoundingBox" x="-50%" y="-50%" width="200%" height="200%">
      <feDropShadow dx="0.5" dy="0.5" stdDeviation="2" flood-color="black" flood-opacity="0.8" />
    </filter>
    <filter id="blur_shadow" filterUnits="objectBoundingBox" x="-50%" y="-50%" width="200%" height="200%">
      <feGaussianBlur in="SourceGraphic" stdDeviation="3" />
    </filter>
    <filter id="shadow">
      <feDropShadow dx="0.3" dy="0.6" stdDeviation="0.6" flood-color="black"/>
    </filter>
  </defs>

<g fill="black" style="filter:url(#blur_shadow)">
  <path d="m8.35999,33.82938c0,2.6435 0.91429,4.92924 2.76276,6.81745c1.84846,1.90809 4.09445,2.92177 6.75782,3.0609c0.23851,0 0.35777,-0.11926 0.35777,-0.35777l0,-2.6435c0,-0.23851 -0.11926,-0.35777 -0.35777,-0.35777c-1.70933,-0.0795 -3.1404,-0.75529 -4.33296,-2.02735c-1.19256,-1.27206 -1.78884,-2.76276 -1.78884,-4.49197c0,-1.6497 0.55653,-3.08077 1.66958,-4.31308c1.11305,-1.21243 2.50437,-1.92797 4.17395,-2.12673l1.03355,-0.0795c0.25839,0 0.39752,-0.11926 0.39752,-0.35777l0.13913,-1.0733c0.21864,-2.1466 1.11305,-3.95531 2.72301,-5.38638c1.60995,-1.45094 3.49817,-2.16648 5.66465,-2.16648c2.16648,0 4.05469,0.73541 5.68452,2.18635c1.62983,1.45094 2.54412,3.23978 2.78263,5.38638l0.13913,1.13293c0,0.23851 0.11926,0.37764 0.35777,0.37764l3.2199,0c1.76896,0 3.27953,0.63603 4.57147,1.90809s1.92797,2.78263 1.92797,4.51184c0,1.72921 -0.59628,3.2199 -1.78884,4.49197c-1.19256,1.27206 -2.6435,1.94784 -4.33296,2.02735c-0.23851,0 -0.37764,0.11926 -0.37764,0.35777l0,2.6435c0,0.23851 0.11926,0.35777 0.37764,0.35777c1.74908,-0.05963 3.33916,-0.53665 4.7901,-1.43107s2.60375,-2.08698 3.43854,-3.57767s1.25219,-3.12052 1.25219,-4.84973c0,-1.72921 -0.45715,-3.33916 -1.35156,-4.86961c1.55032,-1.47082 2.564,-3.18015 3.0609,-5.128l0.27826,-1.45094c0.01988,-0.01988 0.03975,-0.05963 0.03975,-0.13913c0,-0.13913 -0.09938,-0.25839 -0.31802,-0.31802l-1.13293,-0.33789c-1.13293,-0.31802 -2.10685,-0.87454 -2.90189,-1.62983c-0.81491,-0.75529 -1.39132,-1.5702 -1.72921,-2.40499c-0.33789,-0.85467 -0.51677,-1.68946 -0.51677,-2.54412c0,-0.5764 0.0795,-1.13293 0.21864,-1.68946l0.25839,-1.21243c0.03975,-0.19876 -0.03975,-0.35777 -0.25839,-0.45715l-1.59008,-0.47702c-0.89442,-0.19876 -1.72921,-0.29814 -2.52425,-0.29814c-0.71553,0 -1.45094,0.0795 -2.22611,0.25839c-0.75529,0.17888 -1.55032,0.43727 -2.36524,0.79504s-1.60995,0.87454 -2.38511,1.5702s-1.43107,1.47082 -1.9876,2.38511c-1.60995,-0.61615 -3.16028,-0.91429 -4.6311,-0.91429c-2.80251,0 -5.30688,0.87454 -7.47336,2.62363s-3.57767,3.97519 -4.19383,6.67832c-2.20623,0.51677 -4.01494,1.66958 -5.42614,3.45842c-1.37144,1.74908 -2.08698,3.79631 -2.08698,6.08204zm11.80632,1.74908c0,0.75529 0.27826,1.41119 0.83479,1.94784c0.55653,0.53665 1.23231,0.79504 2.02735,0.79504c0.79504,0 1.45094,-0.25839 1.9876,-0.79504c0.53665,-0.53665 0.79504,-1.17268 0.79504,-1.94784c0,-0.51677 -0.23851,-1.19256 -0.69566,-2.02735c-0.45715,-0.83479 -0.89442,-1.4907 -1.29194,-1.94784c-0.21864,-0.23851 -0.47702,-0.51677 -0.81491,-0.85467l-0.69566,0.81491c-0.53665,0.5764 -1.03355,1.27206 -1.4907,2.0671s-0.65591,1.43107 -0.65591,1.94784zm5.94291,7.93051c0,1.31181 0.45715,2.40499 1.35156,3.29941c0.91429,0.89442 2.00747,1.33169 3.27953,1.33169c1.31181,0 2.40499,-0.45715 3.29941,-1.35156c0.89442,-0.91429 1.35156,-2.00747 1.35156,-3.27953c0,-1.09318 -0.53665,-2.42487 -1.59008,-3.97519c-0.87454,-1.15281 -1.72921,-2.1466 -2.54412,-2.96152c-0.15901,-0.11926 -0.33789,-0.25839 -0.51677,-0.45715l-0.45715,0.45715c-0.77516,0.71553 -1.62983,1.70933 -2.54412,2.94164c-0.47702,0.65591 -0.85467,1.35156 -1.17268,2.0671c-0.31802,0.73541 -0.45715,1.37144 -0.45715,1.92797zm2.92177,-13.25726c0,0.51677 0.19876,0.93417 0.5764,1.31181s0.83479,0.53665 1.39132,0.53665c0.51677,0 0.93417,-0.17888 1.31181,-0.53665c0.35777,-0.35777 0.53665,-0.79504 0.53665,-1.31181c0,-0.85467 -0.61615,-1.92797 -1.84846,-3.2199l-0.4969,0.53665c-0.35777,0.39752 -0.69566,0.85467 -0.9938,1.39132c-0.33789,0.53665 -0.47702,0.97392 -0.47702,1.29194zm6.06217,-12.5616c0.69566,-1.13293 1.59008,-1.9876 2.66338,-2.564c1.0733,-0.5764 2.22611,-0.87454 3.41866,-0.87454c0.23851,0 0.4174,0.01988 0.53665,0.03975l0,0.59628c0,1.90809 0.51677,3.7168 1.5702,5.44601s2.48449,3.02115 4.33296,3.91556c-0.31802,0.75529 -0.81491,1.43107 -1.4907,2.04722c-1.84846,-1.51057 -3.95531,-2.26586 -6.38018,-2.26586l-0.65591,0c-0.59628,-2.60375 -1.92797,-4.7106 -3.99507,-6.34043z"/>
</g>

<g stroke-width="2.5" stroke-opacity="0.4" stroke="midnightblue">

  <path id="moonfillback" stroke-width="0.1" fill="paleturquoise"  fill-opacity="0.2" style="filter:url(#blur_shadow)" d="m39.9567,27.27653zm-4.53863,-9.71987c0.62256,-1.1447 1.50618,-2.02832 2.61072,-2.6308c1.10453,-0.60247 2.2894,-0.90371 3.53451,-0.88363c0.22091,0 0.40165,0.02008 0.50206,0.04016l0,0.62256c0,1.96808 0.52214,3.79558 1.56643,5.52267c1.04429,1.72709 2.5103,3.03245 4.35789,3.91607c-0.38157,0.88363 -0.88363,1.58651 -1.50618,2.14882c-1.76725,-1.58651 -3.93616,-2.36973 -6.52679,-2.36973l-0.64264,0c-0.52214,-2.5103 -1.80742,-4.63904 -3.89599,-6.36613l-0.00001,0.00001z"/>

  <path stroke-width="0" filter="url(#blur_shadow)" fill="paleturquoise" fill-opacity="0.3" d="m11.43267,33.85888c0,1.81002 0.66685,3.38188 1.95292,4.66796s2.88175,1.95292 4.73941,1.95292l22.10135,0c1.83385,0 3.42952,-0.64303 4.73941,-1.95292c1.30989,-1.30989 1.97674,-2.85793 1.97674,-4.66796c0,-1.81002 -0.64303,-3.38188 -1.97674,-4.66796c-1.30989,-1.28607 -2.88175,-1.95292 -4.73941,-1.95292l-3.31044,0c-0.23816,0 -0.35724,-0.11908 -0.35724,-0.35724l-0.16671,-1.16699c-0.23816,-2.23872 -1.19081,-4.1202 -2.83411,-5.59679s-3.59624,-2.2149 -5.83495,-2.2149c-2.23872,0 -4.19163,0.7383 -5.85877,2.23872c-1.66713,1.4766 -2.59596,3.35807 -2.8103,5.57298l-0.16671,1.00028c0,0.23816 -0.11908,0.35724 -0.38106,0.35724l-1.07172,0.16671c-1.71476,0.14289 -3.14373,0.85738 -4.31071,2.11963c-1.09554,1.26226 -1.69095,2.76268 -1.69095,4.50125l-0.00001,-0.00001l-0.00001,0z"/>
  <path id="cloudmoon" fill="linen" d="m8.26664,33.78325c0,2.67096 0.92379,4.98044 2.79146,6.88827s4.13698,2.95212 6.82802,3.07261c0.24099,0 0.36148,-0.12049 0.36148,-0.3414l0,-2.69105c0,-0.22091 -0.12049,-0.3414 -0.36148,-0.3414c-1.72709,-0.08033 -3.17302,-0.76313 -4.37797,-2.04841s-1.80742,-2.79146 -1.80742,-4.53863c0,-1.66684 0.56231,-3.11278 1.68692,-4.35789c1.12462,-1.22503 2.53039,-1.948 4.21731,-2.14882l1.06437,-0.06025c0.26107,0 0.40165,-0.12049 0.40165,-0.36148l0.14058,-1.08445c0.22091,-2.1689 1.12462,-3.9964 2.75129,-5.46242c1.62668,-1.46602 3.53451,-2.20907 5.72349,-2.20907c2.1689,0 4.07673,0.74305 5.72349,2.20907c1.64676,1.46602 2.57055,3.29352 2.81154,5.46242l0.16066,1.16478c0,0.22091 0.12049,0.3414 0.3414,0.3414l3.23327,0c1.78734,0 3.33368,0.64264 4.63904,1.92791c1.30536,1.28528 1.96808,2.81154 1.96808,4.55871c0,1.74717 -0.60247,3.25335 -1.80742,4.53863c-1.20495,1.28528 -2.67096,1.96808 -4.37797,2.04841c-0.26107,0 -0.40165,0.12049 -0.40165,0.3414l0,2.69105c0,0.22091 0.14058,0.3414 0.40165,0.3414c2.67096,-0.08033 4.94028,-1.10453 6.78786,-3.03245c1.86767,-1.92791 2.79146,-4.23739 2.79146,-6.92844c0,-1.72709 -0.44181,-3.33368 -1.30536,-4.83986c1.58651,-1.4861 2.61072,-3.25335 3.11278,-5.2616l0.26107,-1.3656c0.04016,-0.02008 0.06025,-0.06025 0.06025,-0.14058c0,-0.14058 -0.10041,-0.26107 -0.32132,-0.32132l-1.12462,-0.3414c-1.1447,-0.3414 -2.10865,-0.90371 -2.93203,-1.70701c-0.8033,-0.8033 -1.38569,-1.62668 -1.72709,-2.5103c-0.3414,-0.86354 -0.50206,-1.74717 -0.50206,-2.65088c-0.02008,-0.48198 0.04016,-1.0242 0.16066,-1.58651l0.28115,-1.16478c0.06025,-0.18074 -0.04016,-0.32132 -0.28115,-0.44181l-1.60659,-0.50206c-0.84346,-0.24099 -1.72709,-0.38157 -2.6308,-0.38157c-0.70288,0 -1.42585,0.08033 -2.1689,0.26107s-1.52626,0.44181 -2.34964,0.8033c-0.82338,0.36148 -1.60659,0.90371 -2.38981,1.60659c-0.76313,0.70288 -1.44593,1.50618 -2.00824,2.45006c-1.50618,-0.64264 -3.09269,-0.98404 -4.75953,-0.98404c-2.83162,0 -5.36201,0.88363 -7.55099,2.6308s-3.59475,3.9964 -4.21731,6.7477c-2.22915,0.52214 -4.05665,1.66684 -5.50258,3.47426s-2.18898,3.93616 -2.18898,6.24563l-0.00002,0.00001zm27.15143,-16.22659c0.62256,-1.1447 1.50618,-2.02832 2.61072,-2.6308c1.10453,-0.60247 2.2894,-0.90371 3.53451,-0.88363c0.22091,0 0.40165,0.02008 0.50206,0.04016l0,0.62256c0,1.96808 0.52214,3.79558 1.56643,5.52267c1.04429,1.72709 2.5103,3.03245 4.35789,3.91607c-0.38157,0.88363 -0.88363,1.58651 -1.50618,2.14882c-1.76725,-1.58651 -3.93616,-2.36973 -6.52679,-2.36973l-0.64264,0c-0.52214,-2.5103 -1.80742,-4.63904 -3.89599,-6.36613l-0.00001,0.00001z"/>

<g stroke-width="1" >

<path fill="cornflowerblue" d="m11.12275,40.64683zm9.04356,-5.06837c0,0.75529 0.27826,1.41119 0.83479,1.94784c0.55653,0.53665 1.23231,0.79504 2.02735,0.79504c0.79504,0 1.45094,-0.25839 1.9876,-0.79504c0.53665,-0.53665 0.79504,-1.17268 0.79504,-1.94784c0,-0.51677 -0.23851,-1.19256 -0.69566,-2.02735c-0.45715,-0.83479 -0.89442,-1.4907 -1.29194,-1.94784c-0.21864,-0.23851 -0.47702,-0.51677 -0.81491,-0.85467l-0.69566,0.81491c-0.53665,0.5764 -1.03355,1.27206 -1.4907,2.0671s-0.65591,1.43107 -0.65591,1.94784l0,0.00001zm5.94291,7.93051c0,1.31181 0.45715,2.40499 1.35156,3.29941c0.91429,0.89442 2.00747,1.33169 3.27953,1.33169c1.31181,0 2.40499,-0.45715 3.29941,-1.35156c0.89442,-0.91429 1.35156,-2.00747 1.35156,-3.27953c0,-1.09318 -0.53665,-2.42487 -1.59008,-3.97519c-0.87454,-1.15281 -1.72921,-2.1466 -2.54412,-2.96152c-0.15901,-0.11926 -0.33789,-0.25839 -0.51677,-0.45715l-0.45715,0.45715c-0.77516,0.71553 -1.62983,1.70933 -2.54412,2.94164c-0.47702,0.65591 -0.85467,1.35156 -1.17268,2.0671c-0.31802,0.73541 -0.45715,1.37144 -0.45715,1.92797l0.00001,-0.00001zm2.92177,-13.25726c0,0.51677 0.19876,0.93417 0.5764,1.31181s0.83479,0.53665 1.39132,0.53665c0.51677,0 0.93417,-0.17888 1.31181,-0.53665c0.35777,-0.35777 0.53665,-0.79504 0.53665,-1.31181c0,-0.85467 -0.61615,-1.92797 -1.84846,-3.2199l-0.4969,0.53665c-0.35777,0.39752 -0.69566,0.85467 -0.9938,1.39132c-0.33789,0.53665 -0.47702,0.97392 -0.47702,1.29194l0,-0.00001z"/>

</g>
</g>

<g fill="white" >
   <circle fill-opacity="0.4" r="1.0814" cy="35.58855" cx="23.48689"/>
   <circle fill-opacity="0.3" r="1.94652" cy="44.02898" cx="32.44969"/>
   <circle fill-opacity="0.2" r="0.6921" cy="30.03492" cx="31.62489"/>
</g>

  <path id="moonfill" stroke-width="0" fill="paleturquoise"  fill-opacity="0.5" d="m39.9567,27.27653zm-4.53863,-9.71987c0.62256,-1.1447 1.50618,-2.02832 2.61072,-2.6308c1.10453,-0.60247 2.2894,-0.90371 3.53451,-0.88363c0.22091,0 0.40165,0.02008 0.50206,0.04016l0,0.62256c0,1.96808 0.52214,3.79558 1.56643,5.52267c1.04429,1.72709 2.5103,3.03245 4.35789,3.91607c-0.38157,0.88363 -0.88363,1.58651 -1.50618,2.14882c-1.76725,-1.58651 -3.93616,-2.36973 -6.52679,-2.36973l-0.64264,0c-0.52214,-2.5103 -1.80742,-4.63904 -3.89599,-6.36613l-0.00001,0.00001z"/>


</svg>




