<svg width="60" height="60" xmlns="http://www.w3.org/2000/svg">

  <defs>
    <filter id="drop_shadow" filterUnits="objectBoundingBox" x="-50%" y="-50%" width="200%" height="200%">
      <feDropShadow dx="0.5" dy="0.5" stdDeviation="2" flood-color="black" flood-opacity="0.8" />
    </filter>
    <filter id="blur_shadow" filterUnits="objectBoundingBox" x="-50%" y="-50%" width="200%" height="200%">
      <feGaussianBlur in="SourceGraphic" stdDeviation="3" />
    </filter>
  </defs>

  <path fill="black" filter="url(#blur_shadow)"  d="m1.48,34.82699c0,2.3695 0.69816,4.50629 2.11563,6.36804c1.41747,1.86175 3.23691,3.10997 5.45832,3.74466c0.19041,0.02116 0.35966,-0.02116 0.50775,-0.16925l2.47529,-2.98304c-1.88291,0 -3.51194,-0.677 -4.86595,-2.05216s-2.031,-3.00419 -2.031,-4.92941c0,-1.75597 0.59238,-3.27922 1.79828,-4.59091c1.20591,-1.29053 2.68685,-2.05216 4.46398,-2.26372l1.03666,-0.06347c0.27503,0 0.42313,-0.12694 0.42313,-0.40197l0.14809,-1.14244c0.23272,-2.28488 1.20591,-4.2101 2.91957,-5.75451s3.74466,-2.32719 6.0507,-2.32719c2.32719,0 4.35819,0.78278 6.09301,2.32719s2.708,3.46963 2.94072,5.75451l0.14809,1.24822c0.08463,0.23272 0.25388,0.35966 0.46544,0.35966l3.46963,0c1.86175,0 3.46963,0.677 4.82363,2.00985c1.354,1.33285 2.031,2.96188 2.031,4.82363c0,1.77713 -0.59238,3.34269 -1.79828,4.67554c-1.20591,1.33285 -2.64454,2.07332 -4.37935,2.22141c-1.03666,0.12694 -1.67135,0.31734 -1.90407,0.59238l-4.63323,5.96607c-0.29619,0.40197 -0.40197,0.84625 -0.3385,1.33285c0.06347,0.48659 0.27503,0.88856 0.65584,1.18475c0.31734,0.35966 0.74047,0.50775 1.26938,0.44428c0.52891,-0.06347 0.95203,-0.31734 1.26938,-0.76163l4.06201,-5.20445c1.73482,-0.16925 3.32154,-0.74047 4.76016,-1.73482c1.43863,-0.97319 2.55991,-2.24257 3.40616,-3.78697c0.8251,-1.54441 1.24822,-3.1946 1.24822,-4.95057c0,-1.52325 -0.29619,-2.94072 -0.88856,-4.25241c1.67135,-2.031 2.49644,-4.37935 2.49644,-7.04504c0,-1.5021 -0.29619,-2.91957 -0.88856,-4.29473c-0.59238,-1.37516 -1.39631,-2.55991 -2.39066,-3.55426c-0.99435,-0.99435 -2.1791,-1.77713 -3.55426,-2.3695c-1.37516,-0.59238 -2.81379,-0.88856 -4.31588,-0.88856c-3.17344,0 -5.9026,1.22706 -8.20864,3.68119c-1.67135,-0.93088 -3.59657,-1.39631 -5.75451,-1.39631c-2.98304,0 -5.62757,0.93088 -7.93361,2.79263s-3.76582,4.23126 -4.37935,7.12967c-2.39066,0.55006 -4.35819,1.75597 -5.9026,3.66004s-2.3695,4.16779 -2.3695,6.60076zm8.25095,17.43278c0.14809,0.46544 0.48659,0.80394 0.97319,1.0155c0.46544,0.21156 0.93088,0.21156 1.41747,0.02116s0.80394,-0.52891 0.97319,-0.99435c0.19041,-0.44428 0.21156,-0.86741 0,-1.31169c-0.19041,-0.44428 -0.50775,-0.76163 -0.95203,-0.97319c-0.46544,-0.21156 -0.93088,-0.23272 -1.39631,-0.04231c-0.46544,0.19041 -0.78278,0.50775 -0.95203,0.97319c-0.19041,0.52891 -0.21156,0.97319 -0.06347,1.31169zm3.82929,-5.79682l0,0.23272c0.04231,0.46544 0.25388,0.84625 0.63469,1.1636c0.38081,0.31734 0.80394,0.46544 1.33285,0.42313c0.50775,-0.04231 0.90972,-0.25388 1.20591,-0.61353l4.61207,-5.96607c0.29619,-0.38081 0.44428,-0.8251 0.40197,-1.33285s-0.25388,-0.90972 -0.61353,-1.20591c-0.38081,-0.31734 -0.8251,-0.44428 -1.33285,-0.40197c-0.50775,0.04231 -0.93088,0.27503 -1.26938,0.65584l-4.5486,5.92376c-0.29619,0.3385 -0.42313,0.71931 -0.42313,1.12128zm1.07897,10.28195c0,0.12694 0.04231,0.3385 0.12694,0.63469c0.19041,0.46544 0.50775,0.78278 0.97319,0.97319c0.23272,0.08463 0.48659,0.14809 0.76163,0.14809c0.19041,0 0.42313,-0.04231 0.65584,-0.10578c0.44428,-0.16925 0.76163,-0.48659 0.93088,-0.93088c0.21156,-0.46544 0.23272,-0.93088 0.04231,-1.41747c-0.16925,-0.48659 -0.48659,-0.80394 -0.95203,-0.97319c-0.46544,-0.21156 -0.93088,-0.21156 -1.41747,-0.02116s-0.80394,0.50775 -0.95203,0.95203c-0.10578,0.23272 -0.16925,0.48659 -0.16925,0.74047zm3.5331,-5.01404l0,0.21156c0.04231,0.48659 0.27503,0.88856 0.69816,1.22706c0.31734,0.3385 0.74047,0.48659 1.26938,0.42313c0.52891,-0.06347 0.95203,-0.29619 1.26938,-0.71931l8.7587,-11.06474c0.29619,-0.42313 0.40197,-0.86741 0.35966,-1.354s-0.27503,-0.88856 -0.65584,-1.24822c-0.38081,-0.29619 -0.8251,-0.42313 -1.31169,-0.35966c-0.48659,0.06347 -0.88856,0.27503 -1.18475,0.65584l-8.80101,11.12821c-0.27503,0.31734 -0.40197,0.69816 -0.40197,1.10013zm1.22706,-42.9261c0,0.50775 0.19041,0.93088 0.57122,1.24822l1.29053,1.39631c0.3385,0.3385 0.71931,0.50775 1.14244,0.55006c0.44428,0.06347 0.86741,-0.08463 1.29053,-0.46544c0.42313,-0.38081 0.63469,-0.8251 0.63469,-1.354c0,-0.46544 -0.16925,-0.90972 -0.50775,-1.26938l-1.354,-1.37516c-0.31734,-0.3385 -0.71931,-0.50775 -1.22706,-0.50775c-0.50775,0 -0.95203,0.16925 -1.31169,0.50775c-0.3385,0.35966 -0.52891,0.78278 -0.52891,1.26938zm6.2411,45.33792c0,0.25388 0.04231,0.46544 0.14809,0.65584c0.19041,0.46544 0.50775,0.78278 0.95203,0.97319c0.23272,0.10578 0.46544,0.16925 0.74047,0.16925c0.12694,0 0.3385,-0.04231 0.63469,-0.12694c0.46544,-0.19041 0.80394,-0.50775 0.97319,-0.97319c0.21156,-0.46544 0.23272,-0.93088 0.04231,-1.39631c-0.16925,-0.46544 -0.48659,-0.78278 -0.95203,-0.95203c-0.46544,-0.21156 -0.93088,-0.23272 -1.41747,-0.04231c-0.48659,0.19041 -0.80394,0.50775 -0.97319,0.95203c-0.10578,0.23272 -0.14809,0.48659 -0.14809,0.74047zm5.07751,-35.98684c1.5021,-1.354 3.23691,-2.05216 5.24676,-2.05216c2.09447,0 3.8716,0.71931 5.35254,2.1791s2.22141,3.1946 2.22141,5.26791c0,1.39631 -0.35966,2.708 -1.10013,3.93507c-2.05216,-2.05216 -4.50629,-3.06766 -7.36239,-3.06766l-0.71931,0c-0.57122,-2.45413 -1.77713,-4.52744 -3.63888,-6.26226zm3.44847,-11.12821c0,0.48659 0.16925,0.90972 0.52891,1.24822c0.35966,0.3385 0.78278,0.50775 1.26938,0.50775c0.50775,0 0.95203,-0.16925 1.31169,-0.50775c0.35966,-0.3385 0.52891,-0.76163 0.52891,-1.24822l0,-4.37935c0,-0.48659 -0.19041,-0.90972 -0.55006,-1.26938c-0.35966,-0.35966 -0.80394,-0.52891 -1.29053,-0.52891c-0.48659,0 -0.90972,0.16925 -1.26938,0.52891s-0.52891,0.78278 -0.52891,1.26938l0,4.37935zm11.78405,4.82363c0,0.50775 0.14809,0.93088 0.46544,1.26938c0.38081,0.35966 0.80394,0.52891 1.29053,0.55006c0.48659,0 0.88856,-0.16925 1.20591,-0.55006l3.17344,-3.06766c0.3385,-0.3385 0.50775,-0.78278 0.50775,-1.29053c0,-0.50775 -0.19041,-0.93088 -0.55006,-1.29053c-0.35966,-0.35966 -0.78278,-0.55006 -1.26938,-0.55006c-0.46544,0 -0.88856,0.16925 -1.26938,0.52891l-3.06766,3.10997c-0.31734,0.35966 -0.48659,0.78278 -0.48659,1.29053zm1.65019,25.17598c0,0.50775 0.16925,0.93088 0.50775,1.26938l1.39631,1.33285c0.3385,0.3385 0.71931,0.52891 1.14244,0.57122l0.12694,0c0.38081,0 0.80394,-0.19041 1.31169,-0.57122c0.3385,-0.3385 0.50775,-0.76163 0.50775,-1.22706c0,-0.50775 -0.16925,-0.95203 -0.50775,-1.33285l-1.39631,-1.31169c-0.3385,-0.35966 -0.76163,-0.52891 -1.24822,-0.52891c-0.50775,0 -0.95203,0.16925 -1.31169,0.52891c-0.3385,0.3385 -0.52891,0.78278 -0.52891,1.26938zm3.17344,-13.47655c0,0.50775 0.16925,0.93088 0.50775,1.26938c0.3385,0.38081 0.76163,0.57122 1.26938,0.57122l4.31588,0c0.50775,0 0.93088,-0.19041 1.29053,-0.55006c0.35966,-0.35966 0.52891,-0.80394 0.52891,-1.29053c0,-0.48659 -0.16925,-0.90972 -0.52891,-1.24822c-0.35966,-0.3385 -0.78278,-0.50775 -1.29053,-0.50775l-4.31588,0c-0.50775,0 -0.93088,0.16925 -1.26938,0.50775c-0.3385,0.3385 -0.50775,0.76163 -0.50775,1.24822z"/>

<circle filter="url(#blur_shadow)" fill-opacity="0.2" r="10" cx="35.099604" cy="25.249752" fill="palegoldenrod"/>
<g stroke="midnightblue" stroke-opacity="0.4" style="filter:url(#drop_shadow);">
   <path filter="url(#blur_shadow)"  d="m4.941199,35.09589c0,1.880107 0.692668,3.512833 2.028543,4.848708s2.993338,2.028543 4.922926,2.028543l22.957138,0c1.904853,0 3.562316,-0.667932 4.922926,-2.028543c1.360611,-1.360611 2.053279,-2.968591 2.053279,-4.848708c0,-1.880107 -0.667932,-3.512833 -2.053279,-4.848708c-1.360611,-1.335864 -2.993338,-2.028543 -4.922926,-2.028543l-3.438626,0c-0.24738,0 -0.37107,-0.12369 -0.37107,-0.37107l-0.173172,-1.212174c-0.24738,-2.325405 -1.23691,-4.27973 -2.943855,-5.813503s-3.735488,-2.300659 -6.060883,-2.300659c-2.325405,0 -4.353938,0.766886 -6.085619,2.325405c-1.731681,1.533773 -2.696475,3.488098 -2.919119,5.788767l-0.173172,1.039013c0,0.24738 -0.12369,0.37107 -0.395816,0.37107l-1.11322,0.173172c-1.781153,0.148426 -3.265453,0.890576 -4.477628,2.201705c-1.137967,1.311129 -1.756417,2.869648 -1.756417,4.675536l-0.00001,-0.00001l0,-0.000001z" fill-opacity="0.2" fill="paleturquoise"/>
  <path fill="linen" stroke-width="2.5" d="m1.58,35.025117c0,1.833221 0.447647,3.559859 1.364257,5.137282c0.895294,1.577423 2.131652,2.856414 3.709075,3.815657c1.556106,0.959243 3.282744,1.47084 5.115965,1.513473c0.234482,0 0.362381,-0.127899 0.362381,-0.362381l0,-2.835097c0,-0.255798 -0.127899,-0.405014 -0.362381,-0.405014c-1.811904,-0.085266 -3.36801,-0.810028 -4.647002,-2.174285s-1.918487,-2.920363 -1.918487,-4.710951c0,-1.747955 0.596863,-3.282744 1.811904,-4.604369c1.215042,-1.300308 2.685882,-2.067703 4.476469,-2.280868l1.129776,-0.127899c0.255798,0 0.383697,-0.127899 0.383697,-0.405014l0.170532,-1.087143c0.234482,-2.323501 1.193725,-4.263304 2.899047,-5.81941c1.705322,-1.556106 3.730391,-2.323501 6.075209,-2.323501c2.323501,0 4.34857,0.767395 6.075209,2.323501c1.747955,1.556106 2.728515,3.474593 2.94168,5.755461l0.149216,1.236358c0,0.234482 0.127899,0.362381 0.362381,0.362381l3.43196,0c1.918487,0 3.559859,0.682129 4.924116,2.046386c1.364257,1.364257 2.046386,2.984313 2.046386,4.881483c0,1.790588 -0.639496,3.346694 -1.918487,4.710951c-1.278991,1.342941 -2.835097,2.067703 -4.625685,2.174285c-0.255798,0 -0.405014,0.127899 -0.405014,0.405014l0,2.835097c0,0.234482 0.127899,0.362381 0.405014,0.362381c2.835097,-0.085266 5.222548,-1.151092 7.204984,-3.197478c1.982436,-2.046386 2.962996,-4.455153 2.962996,-7.268934c0,-1.620056 -0.298431,-3.048263 -0.91661,-4.327254c1.598739,-1.982436 2.4514,-4.327254 2.4514,-6.991819c0,-2.003753 -0.49028,-3.85829 -1.492156,-5.563612c-1.001876,-1.705322 -2.366134,-3.069579 -4.071456,-4.071456s-3.581176,-1.492156 -5.584929,-1.492156c-3.282744,0 -6.032575,1.236358 -8.249494,3.687758c-1.726638,-0.937927 -3.645125,-1.40689 -5.734144,-1.40689c-3.005629,0 -5.648878,0.937927 -7.972379,2.792464s-3.794341,4.241988 -4.455153,7.119718c-2.38745,0.596863 -4.327254,1.833221 -5.840727,3.730391c-1.513473,1.918487 -2.259551,4.092772 -2.259551,6.565489l0.000001,0.000001zm17.884561,-26.112739c0,0.511597 0.170532,0.937927 0.511597,1.257675l1.40689,1.40689c0.341064,0.341064 0.724762,0.532913 1.129776,0.532913c0.447647,0.06395 0.873977,-0.085266 1.300308,-0.468963c0.42633,-0.383697 0.639496,-0.831344 0.639496,-1.342941c0,-0.511597 -0.170532,-0.98056 -0.511597,-1.364257l-1.364257,-1.300308c-0.319748,-0.362381 -0.724762,-0.532913 -1.236358,-0.532913c-0.532913,0 -0.98056,0.170532 -1.342941,0.532913c-0.362381,0.341064 -0.532913,0.767395 -0.532913,1.278991l-0.000001,0zm11.361706,9.336636c1.47084,-1.40689 3.218795,-2.110336 5.265181,-2.110336c2.067703,0 3.836974,0.746078 5.286497,2.216918c1.47084,1.47084 2.195602,3.261428 2.195602,5.307814c0,1.321624 -0.362381,2.643249 -1.087143,3.92224c-2.02507,-2.046386 -4.497786,-3.069579 -7.396833,-3.069579l-0.682129,0c-0.639496,-2.494033 -1.833221,-4.583052 -3.581176,-6.267057l0.000001,0zm3.410643,-11.127224c0,0.49028 0.170532,0.91661 0.532913,1.236358s0.788711,0.49028 1.300308,0.49028s0.91661,-0.170532 1.257675,-0.49028c0.341064,-0.341064 0.49028,-0.746078 0.49028,-1.236358l0,-4.34857c0,-0.511597 -0.170532,-0.937927 -0.511597,-1.300308s-0.724762,-0.532913 -1.215042,-0.532913s-0.91661,0.191849 -1.278991,0.55423c-0.362381,0.362381 -0.55423,0.788711 -0.55423,1.278991l0,4.34857l-0.021317,0l0.000001,0zm11.76672,4.83885c0,0.49028 0.170532,0.91661 0.532913,1.257675c0.319748,0.341064 0.724762,0.511597 1.193725,0.55423s0.91661,-0.149216 1.321624,-0.55423l3.048263,-3.048263c0.383697,-0.383697 0.55423,-0.810028 0.55423,-1.300308c0,-0.511597 -0.191849,-0.937927 -0.55423,-1.300308c-0.362381,-0.362381 -0.788711,-0.532913 -1.278991,-0.532913c-0.468963,0 -0.873977,0.170532 -1.236358,0.532913l-3.048263,3.112212c-0.362381,0.341064 -0.532913,0.767395 -0.532913,1.278991l0,0.000001zm1.705322,25.153495c0,0.532913 0.170532,0.98056 0.511597,1.321624l1.364257,1.342941c0.511597,0.341064 0.98056,0.511597 1.364257,0.511597c0.447647,0 0.831344,-0.191849 1.193725,-0.55423c0.362381,-0.362381 0.532913,-0.810028 0.532913,-1.300308c0,-0.49028 -0.191849,-0.895294 -0.55423,-1.236358l-1.321624,-1.385574c-0.383697,-0.341064 -0.810028,-0.511597 -1.300308,-0.511597s-0.91661,0.170532 -1.257675,0.532913c-0.362381,0.341064 -0.532913,0.767395 -0.532913,1.278991l0.000001,0.000001zm3.090896,-13.450725c0,0.511597 0.191849,0.91661 0.55423,1.257675c0.362381,0.383697 0.810028,0.575546 1.321624,0.575546l4.305937,0c0.49028,0 0.91661,-0.170532 1.278991,-0.532913s0.532913,-0.788711 0.532913,-1.300308c0,-0.511597 -0.170532,-0.937927 -0.532913,-1.278991s-0.788711,-0.532913 -1.278991,-0.532913l-4.305937,0c-0.511597,0 -0.937927,0.170532 -1.321624,0.532913s-0.55423,0.788711 -0.55423,1.278991z"/>
  <path stroke-width="1" fill="cornflowerblue" d="m44.700292,35.300587zm-31.036197,13.832007c0,0.343277 0.100963,0.66636 0.323083,0.989443c0.22212,0.323084 0.545203,0.545203 0.989443,0.66636c0.22212,0.040385 0.403854,0.080771 0.545203,0.080771c0.787516,0 1.312527,-0.424047 1.554839,-1.292334l3.190449,-11.873314c0.141348,-0.484625 0.08077,-0.928865 -0.161542,-1.352912c-0.242313,-0.424047 -0.605782,-0.666359 -1.070214,-0.767323c-0.44424,-0.141349 -0.868286,-0.100963 -1.272141,0.141349c-0.403854,0.22212 -0.686552,0.565396 -0.827901,1.029828l-3.190448,11.933893c-0.040386,0.262505 -0.080771,0.403854 -0.080771,0.444239zm5.270298,6.219356c0,0.383661 0.100963,0.726937 0.30289,1.050021c0.201927,0.323083 0.545203,0.52501 1.050021,0.605781c0.22212,0.040385 0.403854,0.080771 0.525011,0.080771c0.323083,0 0.625974,-0.121157 0.908672,-0.343276c0.282698,-0.242313 0.464432,-0.565396 0.545203,-0.969251l4.846251,-18.032091c0.121156,-0.464432 0.080771,-0.908672 -0.141349,-1.292333s-0.565396,-0.66636 -1.009636,-0.807709c-0.464432,-0.141349 -0.908672,-0.100963 -1.312526,0.141349c-0.403854,0.22212 -0.686552,0.565396 -0.807709,1.029828l-4.84625,18.032092c-0.040386,0.30289 -0.060578,0.484625 -0.060578,0.504818zm8.379975,-6.17897c0,0.323083 0.100963,0.646167 0.30289,0.949057s0.525011,0.525011 0.928865,0.646167c0.22212,0.040385 0.403854,0.080771 0.504818,0.080771c0.343276,0 0.686552,-0.100964 0.989443,-0.302891c0.30289,-0.201927 0.504818,-0.52501 0.605781,-0.989443l3.190449,-11.873314c0.121156,-0.464432 0.08077,-0.908672 -0.141349,-1.292333c-0.22212,-0.403855 -0.565396,-0.66636 -1.009636,-0.807709c-0.484625,-0.141349 -0.908672,-0.100963 -1.312526,0.141349c-0.403854,0.22212 -0.66636,0.565396 -0.787516,1.029828l-3.190448,11.933893c-0.040386,0.30289 -0.080771,0.464432 -0.080771,0.484625z"/>
</g>
    <path fill-opacity="0.4" fill="goldenrod" d="m19.741086,9.00811c0,0.514538 0.168277,0.964756 0.504821,1.350654l1.388254,1.372087c0.52585,0.407342 0.967566,0.578847 1.346177,0.535971c0.441716,0 0.820327,-0.192949 1.156871,-0.557414s0.504821,-0.814683 0.504821,-1.329211c0,-0.514538 -0.189305,-0.943313 -0.546888,-1.264902l-1.241015,-1.414974c-0.378611,-0.343022 -0.799299,-0.514538 -1.283082,-0.514538c-0.504821,0 -0.946538,0.171516 -1.30411,0.535971c-0.357583,0.343022 -0.52585,0.771797 -0.52585,1.286335l0,0.000021l0.000001,0zm11.232199,9.497447c1.451349,-1.436407 3.176147,-2.143894 5.153345,-2.143894c2.08237,0 3.849235,0.72892 5.300584,2.208214c1.451349,1.479284 2.187542,3.258713 2.187542,5.381174c0,1.329211 -0.357583,2.658422 -1.072738,3.944767c-2.040304,-2.058142 -4.480257,-3.087207 -7.340887,-3.087207l-0.673088,0c-0.52585,-2.336844 -1.703759,-4.437862 -3.554757,-6.303044l0,-0.00001l-0.000001,0zm3.428557,-11.319753c0,0.557414 0.168277,0.986189 0.483783,1.329211s0.736194,0.493095 1.241015,0.493095c0.546888,0 0.967566,-0.171516 1.30411,-0.493095c0.336544,-0.343022 0.483783,-0.771797 0.483783,-1.329211l0,-4.394985c0,-0.514538 -0.168277,-0.921869 -0.504821,-1.264902s-0.757222,-0.493095 -1.283082,-0.493095c-0.504821,0 -0.904461,0.171516 -1.241015,0.493095s-0.483783,0.750364 -0.483783,1.264902l0,4.394985l0.00001,0zm11.61081,4.909513c0,0.557414 0.147239,0.986189 0.462755,1.329211c0.441716,0.343022 0.883432,0.514538 1.30411,0.514538c0.378611,0 0.799299,-0.171516 1.241015,-0.514538l3.007869,-3.065764c0.336544,-0.385898 0.504821,-0.836116 0.504821,-1.372087c0,-0.514538 -0.168277,-0.943313 -0.504821,-1.286335c-0.336544,-0.343022 -0.757222,-0.514538 -1.241015,-0.514538c-0.504821,0 -0.904461,0.171516 -1.219976,0.514538l-3.092013,3.065764c-0.315516,0.407342 -0.462755,0.836116 -0.462755,1.329211l0.00001,0zm1.661693,25.383691c0,0.514538 0.168277,0.964756 0.52585,1.350654l1.367215,1.350654c0.315516,0.343022 0.715155,0.514538 1.219976,0.514538s0.925499,-0.171516 1.262043,-0.535971c0.336544,-0.364465 0.504821,-0.79324 0.504821,-1.329211c0,-0.471662 0.339865,-0.511994 -0.504821,-1.243458l-1.367215,-1.393531c-0.336544,-0.343022 -0.736194,-0.514538 -1.198938,-0.514538c-0.504821,0 -0.925499,0.171516 -1.262043,0.514538c-0.357583,0.343022 -0.546888,0.771797 -0.546888,1.286335l0,-0.00001zm3.092013,-13.527967c0,0.493095 0.189305,0.900436 0.546888,1.243458c0.336544,0.343022 0.77826,0.514538 1.283082,0.514538l4.290951,0c0.483783,0 0.883432,-0.171516 1.219976,-0.493095s0.483783,-0.750364 0.483783,-1.264902c0,-0.514538 -0.168277,-0.943313 -0.483783,-1.286335s-0.736194,-0.535971 -1.219976,-0.535971l-4.290951,0c-0.504821,0 -0.925499,0.171516 -1.283082,0.535971c-0.378611,0.364465 -0.546888,0.79324 -0.546888,1.286335l0,0.000001z"/>

</svg>


