<svg width="60" height="60" xmlns="http://www.w3.org/2000/svg">
  <defs>
    <filter id="drop_shadow" filterUnits="objectBoundingBox" x="-50%" y="-50%" width="200%" height="200%">
      <feDropShadow dx="0.5" dy="0.5" stdDeviation="2" flood-color="black" flood-opacity="0.8" />
    </filter>
    <filter id="blur_shadow" filterUnits="objectBoundingBox" x="-50%" y="-50%" width="200%" height="200%">
      <feGaussianBlur in="SourceGraphic" stdDeviation="3" />
    </filter>
    <filter id="shadow">
      <feDropShadow dx="0.3" dy="0.6" stdDeviation="0.6" flood-color="black"/>
    </filter>
  <linearGradient id="linearGradient3199">
   <stop id="stop3201" offset="0" stop-color="#ffffff"/>
   <stop id="stop3203" offset="1" stop-opacity="0" stop-color="#ffffff"/>
  </linearGradient>
  <linearGradient xlink:href="#linearGradient3199" id="linearGradient3206" x1="0.35792" y1="0.0564" x2="0.4991" y2="0.96319"/>
  </defs>
 <g>
  <circle cx="30" cy="30" r="20.24999" fill-opacity="0.4" fill="blue"/>
  <path style="filter:url(#blur_shadow)" fill="black" d="m4.05264,30.04609c0,-4.70094 1.17524,-9.05623 3.50266,-13.04281s5.48443,-7.14359 9.47102,-9.47102s8.31883,-3.47962 12.99673,-3.47962c3.50266,0 6.86706,0.69132 10.07016,2.0509s5.94531,3.22614 8.27274,5.53052s4.17094,5.06964 5.53052,8.29578s2.0509,6.56749 2.0509,10.11625c0,3.50266 -0.69132,6.86706 -2.0509,10.07016s-3.22614,5.96835 -5.53052,8.27274s-5.06964,4.14789 -8.27274,5.50748s-6.54445,2.0509 -10.07016,2.0509c-3.52571,0 -6.91315,-0.69132 -10.11625,-2.0509s-5.96835,-3.22614 -8.29578,-5.53052s-4.14789,-5.06964 -5.53052,-8.24969s-2.02786,-6.54445 -2.02786,-10.07016zm5.71487,0c0,5.46139 1.98177,10.20842 5.96835,14.24109c3.98658,3.98658 8.73362,5.96835 14.28718,5.96835c3.64093,0 7.02837,-0.89871 10.11625,-2.71917s5.57661,-4.26311 7.39707,-7.37403s2.74222,-6.47532 2.74222,-10.11625s-0.92175,-7.02837 -2.74222,-10.13929s-4.28615,-5.57661 -7.39707,-7.39707s-6.47532,-2.71917 -10.11625,-2.71917s-7.02837,0.89871 -10.11625,2.71917s-5.57661,4.28615 -7.42012,7.39707s-2.71917,6.49836 -2.71917,10.13929zm9.03319,-4.74703c-0.16131,-0.50696 -0.09218,-0.99089 0.16131,-1.45176c0.25348,-0.46088 0.64523,-0.76045 1.17524,-0.92175s1.01393,-0.09218 1.47481,0.16131l6.40619,3.61788l0,-12.00584c0,-0.53001 0.18435,-0.99089 0.55305,-1.35959s0.82958,-0.55305 1.35959,-0.55305s0.99089,0.18435 1.35959,0.55305s0.55305,0.82958 0.55305,1.35959l0,15.37024c0,0.53001 -0.18435,0.99089 -0.55305,1.35959s-0.82958,0.55305 -1.35959,0.55305c-0.48392,0 -0.89871,-0.16131 -1.29046,-0.50696l-8.94101,-5.00051c-0.43783,-0.27653 -0.7374,-0.66827 -0.89871,-1.17524z"/>

<g stroke="midnightblue" stroke-opacity="0.4" stroke-width="0.5" style="filter:url(#drop_shadow);">
  <path fill="blue" d="m19.9068,53.89647zm-1.1061,-28.59741c-0.16131,-0.50696 -0.09218,-0.99089 0.16131,-1.45176c0.25348,-0.46088 0.64523,-0.76045 1.17524,-0.92175s1.01393,-0.09218 1.47481,0.16131l6.40619,3.61788l0,-12.00584c0,-0.53001 0.18435,-0.99089 0.55305,-1.35959s0.82958,-0.55305 1.35959,-0.55305s0.99089,0.18435 1.35959,0.55305s0.55305,0.82958 0.55305,1.35959l0,15.37024c0,0.53001 -0.18435,0.99089 -0.55305,1.35959s-0.82958,0.55305 -1.35959,0.55305c-0.48392,0 -0.89871,-0.16131 -1.29046,-0.50696l-8.94101,-5.00051c-0.43783,-0.27653 -0.7374,-0.66827 -0.89871,-1.17524l-0.00001,-0.00001z"/>
  <path fill="red" d="m30.02266,55.50972zm-1.97101,-25.46441c0,0.49841 0.18124,0.95152 0.54372,1.33666c0.36248,0.38514 0.81559,0.56638 1.33666,0.56638c0.49841,0 0.95152,-0.18124 1.33666,-0.56638c0.38514,-0.38514 0.56638,-0.81559 0.56638,-1.33666l0,-15.08835c0,-0.52107 -0.18124,-0.97417 -0.56638,-1.33666s-0.81559,-0.54372 -1.33666,-0.54372c-0.52107,0 -0.97417,0.18124 -1.33666,0.54372s-0.54372,0.81559 -0.54372,1.33666l0,15.08835z"/>

</g>
  <path d="m46.31259,25.7251c-1.22051,7.14799 -8.77858,9.72413 -16.42312,10.89422c-7.65822,1.17219 -16.54284,0.20237 -18.26605,-8.02008c-1.71947,-8.20461 7.01441,-18.57121 18.47796,-18.57121c11.46355,0 17.42792,8.57133 16.21121,15.69706l0,0l0,0z" stroke-dashoffset="0" stroke-miterlimit="4" stroke-linejoin="round" stroke-linecap="round" stroke-width="0.2" fill="url(#linearGradient3206)" fill-opacity="0.7"/>
  <path stroke="midnightblue" stroke-opacity="0.4" stroke-width="2.5"  fill="mediumaquamarine" d="m4.49027,30.04531c0,-4.62166 1.15541,-8.90348 3.44359,-12.82283s5.39193,-7.0231 9.31128,-9.31128s8.17852,-3.42093 12.77752,-3.42093c3.44359,0 6.75124,0.67966 9.90031,2.01631s5.84504,3.17172 8.13321,5.43724s4.10059,4.98414 5.43724,8.15586s2.01631,6.45672 2.01631,9.94562c0,3.44359 -0.67966,6.75124 -2.01631,9.90031s-3.17172,5.86769 -5.43724,8.13321s-4.98414,4.07793 -8.13321,5.41459s-6.43407,2.01631 -9.90031,2.01631c-3.46624,0 -6.79655,-0.67966 -9.94562,-2.01631s-5.86769,-3.17172 -8.15586,-5.43724s-4.07793,-4.98414 -5.43724,-8.11055s-1.99366,-6.43407 -1.99366,-9.90031l-0.00001,0zm5.61848,0c0,5.36928 1.94835,10.03624 5.86769,14.0009c3.91935,3.91935 8.58631,5.86769 14.04621,5.86769c3.57952,0 6.90983,-0.88355 9.94562,-2.67331s5.48255,-4.19121 7.27231,-7.24966s2.69597,-6.3661 2.69597,-9.94562s-0.90621,-6.90983 -2.69597,-9.96828s-4.21386,-5.48255 -7.27231,-7.27231s-6.3661,-2.67331 -9.94562,-2.67331s-6.90983,0.88355 -9.94562,2.67331s-5.48255,4.21386 -7.29497,7.27231s-2.67331,6.38876 -2.67331,9.96828z"/>

</g>
</svg>


