<svg width="60" height="60" xmlns="http://www.w3.org/2000/svg">

  <defs>
    <filter id="drop_shadow" filterUnits="objectBoundingBox" x="-50%" y="-50%" width="200%" height="200%">
      <feDropShadow dx="0.5" dy="0.5" stdDeviation="2" flood-color="black" flood-opacity="0.8" />
    </filter>
    <filter id="blur_shadow" filterUnits="objectBoundingBox" x="-50%" y="-50%" width="200%" height="200%">
      <feGaussianBlur in="SourceGraphic" stdDeviation="3" />
    </filter>
    <filter id="shadow">
      <feDropShadow dx="0.3" dy="0.6" stdDeviation="0.6" flood-color="black"/>
    </filter>
  </defs>

<g fill="black" style="filter:url(#blur_shadow)">
  <path d="m4.453205,31.540805c0,-0.56457 0.211714,-1.035045 0.635141,-1.434949c0.399904,-0.399904 0.893903,-0.588094 1.458473,-0.588094l4.845893,0c0.56457,0 1.035045,0.18819 1.411425,0.588094c0.399904,0.399904 0.588094,0.870379 0.588094,1.434949c0,0.588094 -0.18819,1.082093 -0.588094,1.481996c-0.399904,0.399904 -0.870379,0.588094 -1.411425,0.588094l-4.845893,0c-0.588094,0 -1.082093,-0.18819 -1.481996,-0.588094c-0.423428,-0.399904 -0.611618,-0.893903 -0.611618,-1.481996zm6.868936,-16.513674c0,-0.541046 0.18819,-1.035045 0.56457,-1.458473c0.470475,-0.37638 0.964474,-0.588094 1.552568,-0.588094c0.493999,0 0.964474,0.18819 1.387901,0.588094l3.410944,3.481515c0.399904,0.37638 0.588094,0.846855 0.588094,1.411425c0,0.56457 -0.18819,1.035045 -0.588094,1.411425c-0.399904,0.399904 -0.846855,0.588094 -1.411425,0.588094c-0.611618,0 -1.082093,-0.18819 -1.434949,-0.588094l-3.528563,-3.38742c-0.329333,-0.399904 -0.541046,-0.893903 -0.541046,-1.458473l0,0.000001zm6.139699,16.513674c0,-1.670186 0.329333,-3.269802 1.011521,-4.798846c0.658665,-1.529044 1.576091,-2.869898 2.681708,-3.975514c1.12914,-1.105616 2.469994,-1.999519 3.999038,-2.658184s3.152183,-1.011521 4.845893,-1.011521c2.25828,0 4.32837,0.56457 6.257318,1.69371c1.928948,1.12914 3.457992,2.63466 4.563608,4.563608c1.105616,1.905424 1.670186,3.975514 1.670186,6.186747c0,0.352856 -0.023524,0.682189 -0.070571,0.987998c-0.658665,-0.399904 -1.411425,-0.588094 -2.281804,-0.588094c-0.56457,0 -1.12914,0.117619 -1.69371,0.352856c0.023524,-0.164666 0.023524,-0.423428 0.023524,-0.75276c0,-2.305328 -0.823331,-4.257799 -2.493518,-5.880938c-1.670186,-1.623139 -3.669705,-2.44647 -5.998557,-2.44647c-2.328852,0 -4.304847,0.823331 -5.975033,2.44647s-2.469994,3.57561 -2.469994,5.880938l0,0.423428c-0.682189,0.047048 -1.340854,0.235238 -1.975995,0.588094c-0.023524,0.023524 -0.094095,0.070571 -0.235238,0.164666s-0.282285,0.211714 -0.446951,0.329333s-0.329333,0.258761 -0.541046,0.446951s-0.423428,0.37638 -0.611618,0.56457c-0.18819,-0.75276 -0.258761,-1.599615 -0.258761,-2.517042zm10.46807,-18.442622l0,-4.869417c0,-0.56457 0.211714,-1.058569 0.611618,-1.458473c0.399904,-0.399904 0.893903,-0.588094 1.434949,-0.588094c0.56457,0 1.058569,0.18819 1.458473,0.588094c0.399904,0.399904 0.588094,0.893903 0.588094,1.458473l0,4.869417c0,0.56457 -0.18819,1.011521 -0.588094,1.387901s-0.870379,0.541046 -1.434949,0.541046c-0.56457,0 -1.035045,-0.18819 -1.434949,-0.541046c-0.423428,-0.37638 -0.635141,-0.823331 -0.635141,-1.387901l-0.000001,0zm13.29092,5.38694c0,-0.588094 0.18819,-1.058569 0.541046,-1.411425l3.434468,-3.481515c0.423428,-0.399904 0.893903,-0.588094 1.434949,-0.588094c0.56457,0 1.035045,0.211714 1.434949,0.611618s0.611618,0.893903 0.611618,1.434949c0,0.588094 -0.211714,1.082093 -0.611618,1.458473l-3.481515,3.38742c-0.423428,0.399904 -0.893903,0.588094 -1.434949,0.588094c-0.541046,0 -1.011521,-0.18819 -1.364378,-0.588094c-0.37638,-0.37638 -0.56457,-0.870379 -0.56457,-1.411425l0,-0.000001zm5.410463,13.055683c0,-0.517523 0.211714,-0.987998 0.611618,-1.434949c0.37638,-0.399904 0.823331,-0.588094 1.364378,-0.588094l4.845893,0c0.56457,0 1.058569,0.211714 1.458473,0.611618s0.635141,0.870379 0.635141,1.411425c0,0.56457 -0.211714,1.058569 -0.611618,1.458473c-0.423428,0.399904 -0.893903,0.611618 -1.481996,0.611618l-4.845893,0c-0.56457,0 -1.058569,-0.18819 
-1.411425,-0.588094c-0.37638,-0.399904 -0.56457,-0.893903 -0.56457,-1.481996l-0.000001,-0.000001z"/>
</g>

<g stroke-opacity="0.4" stroke="midnightblue" stroke-width="2.5" style="filter:url(#drop_shadow);">
  <path d="m4.453205,31.540805c0,-0.56457 0.211714,-1.035045 0.635141,-1.434949c0.399904,-0.399904 0.893903,-0.588094 1.458473,-0.588094l4.845893,0c0.56457,0 1.035045,0.18819 1.411425,0.588094c0.399904,0.399904 0.588094,0.870379 0.588094,1.434949c0,0.588094 -0.18819,1.082093 -0.588094,1.481996c-0.399904,0.399904 -0.870379,0.588094 -1.411425,0.588094l-4.845893,0c-0.588094,0 -1.082093,-0.18819 -1.481996,-0.588094c-0.423428,-0.399904 -0.611618,-0.893903 -0.611618,-1.481996zm6.868936,-16.513674c0,-0.541046 0.18819,-1.035045 0.56457,-1.458473c0.470475,-0.37638 0.964474,-0.588094 1.552568,-0.588094c0.493999,0 0.964474,0.18819 1.387901,0.588094l3.410944,3.481515c0.399904,0.37638 0.588094,0.846855 0.588094,1.411425c0,0.56457 -0.18819,1.035045 -0.588094,1.411425c-0.399904,0.399904 -0.846855,0.588094 -1.411425,0.588094c-0.611618,0 -1.082093,-0.18819 -1.434949,-0.588094l-3.528563,-3.38742c-0.329333,-0.399904 -0.541046,-0.893903 -0.541046,-1.458473l0,0.000001zm6.139699,16.513674c0,-1.670186 0.329333,-3.269802 1.011521,-4.798846c0.658665,-1.529044 1.576091,-2.869898 2.681708,-3.975514c1.12914,-1.105616 2.469994,-1.999519 3.999038,-2.658184s3.152183,-1.011521 4.845893,-1.011521c2.25828,0 4.32837,0.56457 6.257318,1.69371c1.928948,1.12914 3.457992,2.63466 4.563608,4.563608c1.105616,1.905424 1.670186,3.975514 1.670186,6.186747c0,0.352856 -0.023524,0.682189 -0.070571,0.987998c-0.658665,-0.399904 -1.411425,-0.588094 -2.281804,-0.588094c-0.56457,0 -1.12914,0.117619 -1.69371,0.352856c0.023524,-0.164666 0.023524,-0.423428 0.023524,-0.75276c0,-2.305328 -0.823331,-4.257799 -2.493518,-5.880938c-1.670186,-1.623139 -3.669705,-2.44647 -5.998557,-2.44647c-2.328852,0 -4.304847,0.823331 -5.975033,2.44647s-2.469994,3.57561 -2.469994,5.880938l0,0.423428c-0.682189,0.047048 -1.340854,0.235238 -1.975995,0.588094c-0.023524,0.023524 -0.094095,0.070571 -0.235238,0.164666s-0.282285,0.211714 -0.446951,0.329333s-0.329333,0.258761 -0.541046,0.446951s-0.423428,0.37638 -0.611618,0.56457c-0.18819,-0.75276 -0.258761,-1.599615 -0.258761,-2.517042zm10.46807,-18.442622l0,-4.869417c0,-0.56457 0.211714,-1.058569 0.611618,-1.458473c0.399904,-0.399904 0.893903,-0.588094 1.434949,-0.588094c0.56457,0 1.058569,0.18819 1.458473,0.588094c0.399904,0.399904 0.588094,0.893903 0.588094,1.458473l0,4.869417c0,0.56457 -0.18819,1.011521 -0.588094,1.387901s-0.870379,0.541046 -1.434949,0.541046c-0.56457,0 -1.035045,-0.18819 -1.434949,-0.541046c-0.423428,-0.37638 -0.635141,-0.823331 -0.635141,-1.387901l-0.000001,0zm13.29092,5.38694c0,-0.588094 0.18819,-1.058569 0.541046,-1.411425l3.434468,-3.481515c0.423428,-0.399904 0.893903,-0.588094 1.434949,-0.588094c0.56457,0 1.035045,0.211714 1.434949,0.611618s0.611618,0.893903 0.611618,1.434949c0,0.588094 -0.211714,1.082093 -0.611618,1.458473l-3.481515,3.38742c-0.423428,0.399904 -0.893903,0.588094 -1.434949,0.588094c-0.541046,0 -1.011521,-0.18819 -1.364378,-0.588094c-0.37638,-0.37638 -0.56457,-0.870379 -0.56457,-1.411425l0,-0.000001zm5.410463,13.055683c0,-0.517523 0.211714,-0.987998 0.611618,-1.434949c0.37638,-0.399904 0.823331,-0.588094 1.364378,-0.588094l4.845893,0c0.56457,0 1.058569,0.211714 1.458473,0.611618s0.635141,0.870379 0.635141,1.411425c0,0.56457 -0.211714,1.058569 -0.611618,1.458473c-0.423428,0.399904 -0.893903,0.611618 -1.481996,0.611618l-4.845893,0c-0.56457,0 -1.058569,-0.18819 
-1.411425,-0.588094c-0.37638,-0.399904 -0.56457,-0.893903 -0.56457,-1.481996l-0.000001,-0.000001z" fill="yellow"/>

  <path style="filter:url(#blur_shadow);"  d="m5.088346,30.105856zm12.444065,10.021119l0,-0.352856c-0.023524,-0.211714 0,-0.470475 0.047048,-0.776284c0.117619,-0.846855 0.446951,-1.646663 0.987998,-2.399423c0.305809,-0.37638 0.517523,-0.635141 0.635141,-0.729236c0.023524,-0.047048 0.047048,-0.094095 0.094095,-0.141143l0.094095,-0.094095c0.070571,-0.023524 0.164666,-0.117619 0.282285,-0.235238c0.047048,-0.047048 0.117619,-0.117619 0.18819,-0.18819s0.141143,-0.094095 0.164666,-0.141143c0.117619,-0.117619 0.235238,-0.18819 0.329333,-0.235238l0.399904,-0.258761c0.329333,-0.211714 0.729236,-0.329333 1.176188,-0.329333l0.070571,0c0.235238,0 0.446951,0.023524 0.611618,0.070571c0.070571,0.023524 0.164666,0.070571 0.305809,0.164666l0,0.023524c0.329333,0.141143 0.611618,0.37638 0.799808,0.682189c0.18819,0.305809 0.305809,0.635141 0.305809,0.987998c0,0.399904 -0.117619,0.729236 -0.329333,0.987998c-0.141143,0.211714 -0.329333,0.399904 -0.517523,0.541046c-0.047048,0.023524 -0.094095,0.047048 -0.141143,0.070571c-0.047048,0.023524 -0.094095,0.047048 -0.094095,0.047048l-0.141143,0.094095c-0.094095,0.070571 -0.164666,0.141143 -0.235238,0.18819s-0.141143,0.141143 -0.258761,0.258761c-0.094095,0.117619 -0.18819,0.211714 -0.258761,0.329333c-0.070571,0.094095 -0.141143,0.235238 -0.211714,0.352856c-0.070571,0.141143 -0.117619,0.282285 -0.117619,0.399904l0,0.352856c0.094095,0.352856 0.18819,0.635141 0.258761,0.846855c0.164666,0.329333 0.423428,0.658665 0.799808,1.035045c0.023524,0.047048 0.211714,0.235238 0.56457,0.588094c2.023043,1.834853 2.987517,3.810848 2.846374,5.880938c-0.047048,0.705713 -0.211714,1.387901 -0.493999,2.046566c-0.282285,0.658665 -0.611618,1.199711 -1.011521,1.646663c-0.37638,0.446951 -0.682189,0.776284 -0.917426,1.011521c-0.235238,0.211714 -0.423428,0.37638 -0.588094,0.493999c-0.023524,0.023524 -0.070571,0.047048 -0.141143,0.094095c-0.070571,0.047048 -0.141143,0.094095 -0.164666,0.094095c-0.18819,0.094095 -0.352856,0.141143 -0.517523,0.164666c-0.211714,0.023524 -0.352856,0.047048 -0.470475,0.047048c-0.705713,0 -1.270283,-0.235238 -1.670186,-0.705713c-0.329333,-0.399904 -0.470475,-0.870379 -0.423428,-1.387901l0.799808,-1.31733c0.023524,-0.023524 0.070571,-0.070571 0.117619,-0.094095c0.047048,-0.047048 0.094095,-0.094095 0.164666,-0.141143c0.070571,-0.047048 0.141143,-0.117619 0.18819,-0.18819c0.070571,-0.070571 0.141143,-0.164666 0.18819,-0.235238c0.070571,-0.094095 0.141143,-0.18819 0.18819,-0.282285c0.070571,-0.094095 0.141143,-0.211714 0.18819,-0.329333c0.070571,-0.117619 0.117619,-0.235238 0.164666,-0.352856c0.047048,-0.117619 0.070571,-0.235238 0.117619,-0.37638c0.023524,-0.141143 0.047048,-0.282285 0.047048,-0.399904c0.047048,-0.470475 -0.070571,-0.94095 -0.352856,-1.411425c-0.117619,-0.258761 -0.282285,-0.517523 -0.517523,-0.776284c-0.164666,-0.18819 -0.282285,-0.305809 -0.352856,-0.37638c-0.211714,-0.258761 -0.329333,-0.399904 -0.352856,-0.423428c-0.047048,-0.023524 -0.094095,-0.070571 -0.164666,-0.141143s-0.117619,-0.094095 -0.141143,-0.117619c-0.352856,-0.329333 -0.611618,-0.611618 -0.799808,-0.846855c-0.282285,-0.37638 -0.493999,-0.611618 -0.56457,-0.75276c-0.446951,-0.611618 -0.75276,-1.223235 -0.917426,-1.834853c-0.094095,-0.329333 -0.164666,-0.588094 -0.18819,-0.75276c0,-0.047048 -0.023524,-0.117619 -0.047048,-0.18819s-0.023524,-0.117619 -0.023524,-0.18819l0,0.000004zm9.127216,-0.776284c0,-0.141143 0,-0.235238 0.023524,-0.329333c0.047048,-0.517523 0.211714,-1.011521 0.470475,-1.50552c0.258761,-0.493999 0.517523,-0.917426 0.823331,-1.246759c0.305809,-0.329333 0.588094,-0.635141 0.893903,-0.893903s0.541046,-0.446951 0.729236,-0.588094l0.282285,-0.164666c0.352856,-0.211714 0.75276,-0.329333 1.176188,-0.329333c0.258761,0 0.493999,0.023524 0.705713,0.070571c0.023524,0 0.047048,0.023524 0.117619,0.047048c0.070571,0.047048 0.117619,0.070571 0.141143,0.094095c0.023524,0 0.047048,0 0.070571,0.023524c0.023524,0 0.070571,0.047048 0.164666,0.117619c0.470475,0.282285 0.75276,0.705713 0.893903,1.270283c0,0.047048 0,0.094095 0,0.164666c0,0.047048 0,0.094095 0,0.117619c0,0.070571 -0.023524,0.164666 -0.047048,0.282285s-0.047048,0.18819 -0.047048,0.211714c-0.164666,0.541046 -0.493999,0.917426 -0.987998,1.176188c-0.776284,0.517523 -1.199711,1.058569 -1.246759,1.623139c-0.023524,0.18819 -0.023524,0.352856 0,0.517523c0.047048,0.282285 0.18819,0.588094 0.399904,0.917426c0.258761,0.37638 0.446951,0.635141 0.56457,0.75276c0.37638,0.37638 0.588094,0.588094 0.658665,0.635141c0.282285,0.258761 0.658665,0.658665 1.105616,1.199711c1.270283,1.529044 1.858376,3.105135 1.740758,4.704751c-0.047048,0.705713 -0.211714,1.387901 -0.493999,2.046566c-0.282285,0.658665 -0.611618,1.199711 -1.011521,1.646663c-0.37638,0.423428 -0.705713,0.776284 -0.94095,1.011521c-0.258761,0.235238 -0.446951,0.399904 -0.588094,0.493999l-0.282285,0.18819c-0.258761,0.094095 -0.399904,0.141143 -0.493999,0.164666c-0.258761,0.023524 -0.423428,0.047048 -0.470475,0.047048l-0.070571,0c-0.18819,0 -0.329333,-0.023524 -0.446951,-0.047048c-0.047048,0 -0.117619,0 -0.18819,-0.023524c-0.070571,-0.023524 -0.141143,-0.023524 -0.164666,-0.023524c-0.023524,0 -0.047048,0 -0.070571,-0.023524c-0.023524,-0.023524 -0.047048,-0.023524 -0.094095,-0.047048c-0.023524,-0.023524 -0.047048,-0.023524 -0.070571,-0.023524c-0.352856,-0.258761 -0.56457,-0.399904 -0.611618,-0.493999c-0.37638,-0.423428 -0.517523,-0.893903 -0.446951,-1.411425c0.070571,-0.517523 0.329333,-0.917426 0.799808,-1.246759l0.070571,-0.094095c0.047048,-0.047048 0.117619,-0.117619 0.211714,-0.18819l0.282285,-0.282285l0.305809,-0.37638l0.282285,-0.446951l0.211714,-0.517523l0.094095,-0.56457c0.023524,-0.94095 -0.517523,-1.928948 -1.623139,-2.987517c-0.446951,-0.399904 -0.776284,-0.729236 -1.035045,-1.011521c-1.293806,-1.623139 -1.8819,-3.152183 -1.787805,-4.657703l-0.000002,0.000002zm9.174264,-0.352856c0.047048,-0.517523 0.211714,-1.011521 0.470475,-1.50552c0.258761,-0.493999 0.517523,-0.917426 0.823331,-1.246759c0.305809,-0.329333 0.588094,-0.635141 0.893903,-0.893903c0.282285,-0.258761 0.517523,-0.446951 0.705713,-0.588094l0.305809,-0.164666c0.047048,-0.047048 0.141143,-0.094095 0.235238,-0.18819c0.258761,-0.094095 0.56457,-0.164666 0.893903,-0.164666c0.799808,0 1.387901,0.305809 1.811329,0.893903c0.117619,0.164666 0.18819,0.329333 0.235238,0.541046c0.023524,0.047048 0.047048,0.117619 0.047048,0.18819l0,0.258761c0,0.729236 -0.352856,1.293806 -1.058569,1.646663c-0.75276,0.493999 -1.152664,1.035045 -1.223235,1.623139c-0.094095,0.799808 0.446951,1.740758 1.599615,2.82285c2.07009,1.811329 3.01104,3.787324 2.893422,5.880938c-0.047048,0.705713 -0.211714,1.387901 -0.493999,2.046566c-0.282285,0.658665 -0.635141,1.199711 -1.011521,1.646663c-0.399904,0.446951 -0.705713,0.776284 -0.917426,1.011521s-0.423428,0.37638 -0.588094,0.493999c-0.37638,0.235238 -0.705713,0.352856 -0.964474,0.37638c-0.070571,0.023524 -0.18819,0.023524 -0.352856,0.023524c-0.705713,0 -1.246759,-0.235238 -1.623139,-0.705713c-0.352856,-0.399904 -0.493999,-0.870379 -0.446951,-1.387901s0.305809,-0.94095 0.75276,-1.246759c0.070571,-0.023524 0.211714,-0.141143 0.423428,-0.329333s0.423428,-0.493999 0.682189,-0.893903c0.235238,-0.423428 0.37638,-0.823331 0.399904,-1.246759c0.047048,-0.94095 -0.517523,-1.928948 -1.646663,-2.987517c-0.964474,-0.846855 -1.717234,-1.764281 -2.211233,-2.728755c-0.56457,-0.987998 -0.776284,-2.07009 -0.635141,-3.175707l-0.000004,0.000002z" fill="orange"/>

  <path stroke-width="1" fill-opacity="0.7" d="m5.088346,30.105856zm12.444065,10.021119l0,-0.352856c-0.023524,-0.211714 0,-0.470475 0.047048,-0.776284c0.117619,-0.846855 0.446951,-1.646663 0.987998,-2.399423c0.305809,-0.37638 0.517523,-0.635141 0.635141,-0.729236c0.023524,-0.047048 0.047048,-0.094095 0.094095,-0.141143l0.094095,-0.094095c0.070571,-0.023524 0.164666,-0.117619 0.282285,-0.235238c0.047048,-0.047048 0.117619,-0.117619 0.18819,-0.18819s0.141143,-0.094095 0.164666,-0.141143c0.117619,-0.117619 0.235238,-0.18819 0.329333,-0.235238l0.399904,-0.258761c0.329333,-0.211714 0.729236,-0.329333 1.176188,-0.329333l0.070571,0c0.235238,0 0.446951,0.023524 0.611618,0.070571c0.070571,0.023524 0.164666,0.070571 0.305809,0.164666l0,0.023524c0.329333,0.141143 0.611618,0.37638 0.799808,0.682189c0.18819,0.305809 0.305809,0.635141 0.305809,0.987998c0,0.399904 -0.117619,0.729236 -0.329333,0.987998c-0.141143,0.211714 -0.329333,0.399904 -0.517523,0.541046c-0.047048,0.023524 -0.094095,0.047048 -0.141143,0.070571c-0.047048,0.023524 -0.094095,0.047048 -0.094095,0.047048l-0.141143,0.094095c-0.094095,0.070571 -0.164666,0.141143 -0.235238,0.18819s-0.141143,0.141143 -0.258761,0.258761c-0.094095,0.117619 -0.18819,0.211714 -0.258761,0.329333c-0.070571,0.094095 -0.141143,0.235238 -0.211714,0.352856c-0.070571,0.141143 -0.117619,0.282285 -0.117619,0.399904l0,0.352856c0.094095,0.352856 0.18819,0.635141 0.258761,0.846855c0.164666,0.329333 0.423428,0.658665 0.799808,1.035045c0.023524,0.047048 0.211714,0.235238 0.56457,0.588094c2.023043,1.834853 2.987517,3.810848 2.846374,5.880938c-0.047048,0.705713 -0.211714,1.387901 -0.493999,2.046566c-0.282285,0.658665 -0.611618,1.199711 -1.011521,1.646663c-0.37638,0.446951 -0.682189,0.776284 -0.917426,1.011521c-0.235238,0.211714 -0.423428,0.37638 -0.588094,0.493999c-0.023524,0.023524 -0.070571,0.047048 -0.141143,0.094095c-0.070571,0.047048 -0.141143,0.094095 -0.164666,0.094095c-0.18819,0.094095 -0.352856,0.141143 -0.517523,0.164666c-0.211714,0.023524 -0.352856,0.047048 -0.470475,0.047048c-0.705713,0 -1.270283,-0.235238 -1.670186,-0.705713c-0.329333,-0.399904 -0.470475,-0.870379 -0.423428,-1.387901l0.799808,-1.31733c0.023524,-0.023524 0.070571,-0.070571 0.117619,-0.094095c0.047048,-0.047048 0.094095,-0.094095 0.164666,-0.141143c0.070571,-0.047048 0.141143,-0.117619 0.18819,-0.18819c0.070571,-0.070571 0.141143,-0.164666 0.18819,-0.235238c0.070571,-0.094095 0.141143,-0.18819 0.18819,-0.282285c0.070571,-0.094095 0.141143,-0.211714 0.18819,-0.329333c0.070571,-0.117619 0.117619,-0.235238 0.164666,-0.352856c0.047048,-0.117619 0.070571,-0.235238 0.117619,-0.37638c0.023524,-0.141143 0.047048,-0.282285 0.047048,-0.399904c0.047048,-0.470475 -0.070571,-0.94095 -0.352856,-1.411425c-0.117619,-0.258761 -0.282285,-0.517523 -0.517523,-0.776284c-0.164666,-0.18819 -0.282285,-0.305809 -0.352856,-0.37638c-0.211714,-0.258761 -0.329333,-0.399904 -0.352856,-0.423428c-0.047048,-0.023524 -0.094095,-0.070571 -0.164666,-0.141143s-0.117619,-0.094095 -0.141143,-0.117619c-0.352856,-0.329333 -0.611618,-0.611618 -0.799808,-0.846855c-0.282285,-0.37638 -0.493999,-0.611618 -0.56457,-0.75276c-0.446951,-0.611618 -0.75276,-1.223235 -0.917426,-1.834853c-0.094095,-0.329333 -0.164666,-0.588094 -0.18819,-0.75276c0,-0.047048 -0.023524,-0.117619 -0.047048,-0.18819s-0.023524,-0.117619 -0.023524,-0.18819l0,0.000004zm9.127216,-0.776284c0,-0.141143 0,-0.235238 0.023524,-0.329333c0.047048,-0.517523 0.211714,-1.011521 0.470475,-1.50552c0.258761,-0.493999 0.517523,-0.917426 0.823331,-1.246759c0.305809,-0.329333 0.588094,-0.635141 0.893903,-0.893903s0.541046,-0.446951 0.729236,-0.588094l0.282285,-0.164666c0.352856,-0.211714 0.75276,-0.329333 1.176188,-0.329333c0.258761,0 0.493999,0.023524 0.705713,0.070571c0.023524,0 0.047048,0.023524 0.117619,0.047048c0.070571,0.047048 0.117619,0.070571 0.141143,0.094095c0.023524,0 0.047048,0 0.070571,0.023524c0.023524,0 0.070571,0.047048 0.164666,0.117619c0.470475,0.282285 0.75276,0.705713 0.893903,1.270283c0,0.047048 0,0.094095 0,0.164666c0,0.047048 0,0.094095 0,0.117619c0,0.070571 -0.023524,0.164666 -0.047048,0.282285s-0.047048,0.18819 -0.047048,0.211714c-0.164666,0.541046 -0.493999,0.917426 -0.987998,1.176188c-0.776284,0.517523 -1.199711,1.058569 -1.246759,1.623139c-0.023524,0.18819 -0.023524,0.352856 0,0.517523c0.047048,0.282285 0.18819,0.588094 0.399904,0.917426c0.258761,0.37638 0.446951,0.635141 0.56457,0.75276c0.37638,0.37638 0.588094,0.588094 0.658665,0.635141c0.282285,0.258761 0.658665,0.658665 1.105616,1.199711c1.270283,1.529044 1.858376,3.105135 1.740758,4.704751c-0.047048,0.705713 -0.211714,1.387901 -0.493999,2.046566c-0.282285,0.658665 -0.611618,1.199711 -1.011521,1.646663c-0.37638,0.423428 -0.705713,0.776284 -0.94095,1.011521c-0.258761,0.235238 -0.446951,0.399904 -0.588094,0.493999l-0.282285,0.18819c-0.258761,0.094095 -0.399904,0.141143 -0.493999,0.164666c-0.258761,0.023524 -0.423428,0.047048 -0.470475,0.047048l-0.070571,0c-0.18819,0 -0.329333,-0.023524 -0.446951,-0.047048c-0.047048,0 -0.117619,0 -0.18819,-0.023524c-0.070571,-0.023524 -0.141143,-0.023524 -0.164666,-0.023524c-0.023524,0 -0.047048,0 -0.070571,-0.023524c-0.023524,-0.023524 -0.047048,-0.023524 -0.094095,-0.047048c-0.023524,-0.023524 -0.047048,-0.023524 -0.070571,-0.023524c-0.352856,-0.258761 -0.56457,-0.399904 -0.611618,-0.493999c-0.37638,-0.423428 -0.517523,-0.893903 -0.446951,-1.411425c0.070571,-0.517523 0.329333,-0.917426 0.799808,-1.246759l0.070571,-0.094095c0.047048,-0.047048 0.117619,-0.117619 0.211714,-0.18819l0.282285,-0.282285l0.305809,-0.37638l0.282285,-0.446951l0.211714,-0.517523l0.094095,-0.56457c0.023524,-0.94095 -0.517523,-1.928948 -1.623139,-2.987517c-0.446951,-0.399904 -0.776284,-0.729236 -1.035045,-1.011521c-1.293806,-1.623139 -1.8819,-3.152183 -1.787805,-4.657703l-0.000002,0.000002zm9.174264,-0.352856c0.047048,-0.517523 0.211714,-1.011521 0.470475,-1.50552c0.258761,-0.493999 0.517523,-0.917426 0.823331,-1.246759c0.305809,-0.329333 0.588094,-0.635141 0.893903,-0.893903c0.282285,-0.258761 0.517523,-0.446951 0.705713,-0.588094l0.305809,-0.164666c0.047048,-0.047048 0.141143,-0.094095 0.235238,-0.18819c0.258761,-0.094095 0.56457,-0.164666 0.893903,-0.164666c0.799808,0 1.387901,0.305809 1.811329,0.893903c0.117619,0.164666 0.18819,0.329333 0.235238,0.541046c0.023524,0.047048 0.047048,0.117619 0.047048,0.18819l0,0.258761c0,0.729236 -0.352856,1.293806 -1.058569,1.646663c-0.75276,0.493999 -1.152664,1.035045 -1.223235,1.623139c-0.094095,0.799808 0.446951,1.740758 1.599615,2.82285c2.07009,1.811329 3.01104,3.787324 2.893422,5.880938c-0.047048,0.705713 -0.211714,1.387901 -0.493999,2.046566c-0.282285,0.658665 -0.635141,1.199711 -1.011521,1.646663c-0.399904,0.446951 -0.705713,0.776284 -0.917426,1.011521s-0.423428,0.37638 -0.588094,0.493999c-0.37638,0.235238 -0.705713,0.352856 -0.964474,0.37638c-0.070571,0.023524 -0.18819,0.023524 -0.352856,0.023524c-0.705713,0 -1.246759,-0.235238 -1.623139,-0.705713c-0.352856,-0.399904 -0.493999,-0.870379 -0.446951,-1.387901s0.305809,-0.94095 0.75276,-1.246759c0.070571,-0.023524 0.211714,-0.141143 0.423428,-0.329333s0.423428,-0.493999 0.682189,-0.893903c0.235238,-0.423428 0.37638,-0.823331 0.399904,-1.246759c0.047048,-0.94095 -0.517523,-1.928948 -1.646663,-2.987517c-0.964474,-0.846855 -1.717234,-1.764281 -2.211233,-2.728755c-0.56457,-0.987998 -0.776284,-2.07009 -0.635141,-3.175707l-0.000004,0.000002z" fill="orangered"/>
</g>
</svg>
