<svg width="60" height="60" xmlns="http://www.w3.org/2000/svg">
  <defs>
    <filter id="drop_shadow" filterUnits="objectBoundingBox" x="-50%" y="-50%" width="200%" height="200%">
      <feDropShadow dx="0.5" dy="0.5" stdDeviation="2" flood-color="black" flood-opacity="0.8" />
    </filter>
    <filter id="blur_shadow" filterUnits="objectBoundingBox" x="-50%" y="-50%" width="200%" height="200%">
      <feGaussianBlur in="SourceGraphic" stdDeviation="3" />
    </filter>
  </defs>
<path  filter="url(#blur_shadow)" fill="paleturquoise" fill-opacity="0.2" d="m9.05767,31.279858c0,2.14134 0.78891,4.00093 2.3104,5.52242s3.40925,2.3104 5.60695,2.3104l26.14696,0c2.16953,0 4.05729,-0.76074 5.60695,-2.3104c1.54966,-1.54966 2.33858,-3.38107 2.33858,-5.52242c0,-2.14134 -0.76074,-4.00093 -2.33858,-5.52242c-1.54966,-1.52148 -3.40925,-2.3104 -5.60695,-2.3104l-3.91641,0c-0.28175,0 -0.42263,-0.14088 -0.42263,-0.42263l-0.19723,-1.3806c-0.28175,-2.64851 -1.40878,-4.87439 -3.35289,-6.62127s-4.25452,-2.62033 -6.90302,-2.62033c-2.64851,0 -4.9589,0.87344 -6.9312,2.64851c-1.97229,1.74689 -3.07114,3.97276 -3.32472,6.5931l-0.19723,1.18338c0,0.28175 -0.14088,0.42263 -0.45081,0.42263l-1.2679,0.19723c-2.02864,0.16905 -3.71918,1.01432 -5.09978,2.50762c-1.29608,1.49331 -2.00047,3.26838 -2.00047,5.32519l-0.00001,-0.00001l-0.00001,0z"/>
  <g  filter="url(#drop_shadow)" stroke-opacity="0.4" stroke="midnightblue" stroke-width="2.5">
  <path  d="m5.870606,29.786782c0,2.580312 0.76712,4.881669 2.301359,6.904075s3.533399,3.417169 5.997479,4.161042l1.418008,-3.719367c-1.650469,-0.418429 -3.021986,-1.325024 -4.11455,-2.696542c-1.092564,-1.371517 -1.627223,-2.929002 -1.627223,-4.672455c0,-1.929422 0.650889,-3.603137 1.975914,-5.044392c1.325024,-1.418009 2.952248,-2.254866 4.881669,-2.487327l1.23204,-0.162723c0.302199,0 0.464921,-0.139476 0.464921,-0.418429l0.162723,-1.185549c0.255707,-2.510573 1.301779,-4.625963 3.184709,-6.322925c1.88293,-1.696962 4.091303,-2.557065 6.625123,-2.557065c2.533819,0 4.742193,0.860104 6.625123,2.557065c1.906176,1.696962 2.975493,3.812352 3.254446,6.322925l0.162723,1.34827c0,0.255707 0.139476,0.395183 0.418429,0.395183l3.719367,0c2.11539,0 3.905336,0.743873 5.393082,2.208374c1.487747,1.4645 2.254866,3.254446 2.254866,5.300098c0,1.975914 -0.697381,3.696122 -2.068898,5.137376c-1.371517,1.441255 -3.091724,2.254866 -5.11413,2.417589c-0.302199,0 -0.464921,0.139476 -0.464921,0.418429l0,3.184709c0,0.255707 0.162723,0.395183 0.464921,0.395183c3.091724,-0.092984 5.718528,-1.278533 7.880409,-3.510153s3.2312,-4.904916 3.2312,-8.019885c0,-2.092144 -0.511413,-4.021566 -1.557485,-5.788265c-1.022826,-1.766699 -2.440835,-3.161462 -4.207535,-4.184288c-1.789946,-1.022826 -3.719367,-1.534239 -5.811512,-1.534239l-0.720627,0c-0.76712,-3.091724 -2.417589,-5.625543 -4.904916,-7.578211s-5.34659,-2.952248 -8.554545,-2.952248c-3.277692,0 -6.206694,1.022826 -8.740512,3.045232s-4.161042,4.625963 -4.881669,7.810671c-2.580312,0.604397 -4.695701,1.929422 -6.369416,4.021566s-2.510573,4.532979 -2.510573,7.206274l0,0.000001l0.000001,0.000001z" fill="linen"/>
   <path fill="cornflowerblue" d="m26.390388,54.105558c0.139476,0.023246 0.255707,0.023246 0.325444,0.023246c0.395183,0 0.76712,-0.11623 1.139056,-0.34869c0.371937,-0.23246 0.627643,-0.604397 0.743873,-1.11581l5.23036,-20.200813c0.139476,-0.557906 0.092984,-1.046072 -0.162723,-1.510993c-0.255707,-0.441674 -0.627643,-0.743873 -1.162303,-0.906596c-0.395183,-0.046492 -0.604397,-0.069738 -0.604397,-0.069738c-0.371937,0 -0.743873,0.11623 -1.092564,0.34869c-0.34869,0.23246 -0.604397,0.581151 -0.720627,1.046072l-5.253606,20.270552c-0.023246,0.23246 -0.046492,0.441674 -0.046492,0.650889l0.000001,0.000001l0.000001,-0.000002c0.097162,1.416891 0.694321,1.583792 1.603977,1.813192z"/>
   <path fill="cornflowerblue" d="m26.097308,64.945973zm8.368576,-19.73589c0,0.302199 0.069738,0.604397 0.23246,0.88335c0.325444,0.511413 0.720627,0.860104 1.185549,1.022826c0.255707,0.069738 0.488167,0.11623 0.697381,0.11623s0.464921,-0.046492 0.743873,-0.185969c0.488167,-0.209214 0.813612,-0.650889 0.976334,-1.325024l3.34743,-13.180507c0.069738,-0.325444 0.11623,-0.534659 0.11623,-0.627643c0,-0.34869 -0.11623,-0.697381 -0.371937,-1.046072s-0.604397,-0.604397 -1.069319,-0.743873c-0.395183,-0.046492 -0.604397,-0.069738 -0.604397,-0.069738c-0.395183,0 -0.76712,0.11623 -1.092564,0.34869c-0.325444,0.23246 -0.557906,0.581151 -0.697381,1.046072l-3.393923,13.250246c0,0.046492 0,0.11623 -0.023246,0.255707c-0.046492,0.11623 -0.046492,0.185969 -0.046492,0.255707l0.000001,-0.000001l0.000001,-0.000001z"/>
   <path fill="bisque" d="m14.177886,40.840813l-1.495228,3.930475c-0.092014,0.323686 0,0.485529 0.322049,0.485529l4.876743,0l-2.779969,9.851791l0.644098,0l9.542998,-13.181133c0.092014,-0.092481 0.092014,-0.208083 0.046007,-0.323686c-0.069011,-0.115601 -0.161025,-0.161843 -0.322049,-0.161843l-5.014763,0l5.681865,-10.727882c0.161025,-0.323686 0.069011,-0.508649 -0.299045,-0.508649l-6.809037,0c-0.207031,0 -0.368056,0.115602 -0.506077,0.346807l-2.461375,6.658685l-1.426217,3.629906z"/>
 </g>
</svg>
