<svg width="60" height="60" xmlns="http://www.w3.org/2000/svg">

  <defs>
    <filter id="drop_shadow" filterUnits="objectBoundingBox" x="-50%" y="-50%" width="200%" height="200%">
      <feDropShadow dx="0.5" dy="0.5" stdDeviation="2" flood-color="black" flood-opacity="0.8" />
    </filter>
    <filter id="blur_shadow" filterUnits="objectBoundingBox" x="-50%" y="-50%" width="200%" height="200%">
      <feGaussianBlur in="SourceGraphic" stdDeviation="3" />
    </filter>
    <filter id="shadow">
      <feDropShadow dx="0.3" dy="0.6" stdDeviation="0.6" flood-color="black"/>
    </filter>
  </defs>

<g fill="black" style="filter:url(#blur_shadow)">
  <path d="m8.13998,33.77744c0,-2.33441 0.70435,-4.38708 2.13317,-6.19825s3.26012,-2.95826 5.51403,-3.46136c0.46286,-2.07279 1.40869,-3.88397 2.81739,-5.43353c1.40869,-1.54956 3.11925,-2.65639 5.09142,-3.32049c1.2477,-0.42261 2.53565,-0.64397 3.88397,-0.64397c1.63006,0 3.21987,0.32199 4.72919,0.96596c0.56348,-0.94584 1.22758,-1.77093 1.9923,-2.45515c0.76472,-0.68422 1.54956,-1.22758 2.35453,-1.58981c0.80497,-0.36224 1.60994,-0.64397 2.37466,-0.82509s1.52944,-0.26161 2.25391,-0.26161c0.76472,0 1.58981,0.10062 2.47528,0.32199l1.65018,0.5031c0.28174,0.12075 0.36224,0.26161 0.28174,0.44273l-0.28174,1.20745c-0.14087,0.62385 -0.20124,1.20745 -0.20124,1.73068c0,0.62385 0.10062,1.26782 0.30186,1.9118c0.20124,0.64397 0.48298,1.26782 0.88546,1.89167c0.38236,0.62385 0.92571,1.1672 1.60994,1.67031c0.68422,0.5031 1.44894,0.88546 2.31428,1.14708l1.2477,0.44273c0.20124,0.06037 0.30186,0.16099 0.30186,0.32199c0,0.04025 -0.02012,0.0805 -0.04025,0.14087l-0.36224,1.34832c-0.54335,2.17341 -1.56969,3.88397 -3.01863,5.17192c0.80497,1.40869 1.2477,2.91801 1.30807,4.50782c0.02012,0.10062 0.02012,0.24149 0.02012,0.46286c0,1.79105 -0.44273,3.46136 -1.34832,4.9908c-0.88546,1.52944 -2.11304,2.73689 -3.62236,3.62236c-1.52944,0.88546 -3.19975,1.34832 -4.9908,1.34832l-21.75426,0c-1.79105,0 -3.46136,-0.44273 -4.9908,-1.34832s-2.71677,-2.11304 -3.60223,-3.62236s-1.3282,-3.17962 -1.3282,-4.9908zm3.44124,0c0,1.79105 0.64397,3.34062 1.93192,4.64869c1.28795,1.30807 2.79726,1.97217 4.54807,1.97217l21.75426,0c1.79105,0 3.32049,-0.64397 4.58832,-1.95205s1.9118,-2.85764 1.9118,-4.66881c0,-1.77093 -0.64397,-3.28024 -1.93192,-4.54807c-1.28795,-1.26782 -2.81739,-1.9118 -4.58832,-1.9118l-3.58211,0l-0.20124,-1.50931c-0.20124,-2.03254 -1.04646,-3.78335 -2.53565,-5.21217s-3.26012,-2.23379 -5.29266,-2.4149c-0.06037,0 -0.16099,0 -0.30186,-0.02012c-0.14087,-0.02012 -0.22137,-0.02012 -0.30186,-0.02012c-1.02633,0 -2.05267,0.20124 -3.09913,0.5836l0,-0.04025c-1.46907,0.56348 -2.71677,1.48919 -3.70285,2.75702c-1.00621,1.26782 -1.60994,2.71677 -1.81118,4.36695l-0.14087,1.44894l-1.36845,0.06037c-1.69043,0.20124 -3.09913,0.90559 -4.22608,2.13317s-1.65018,2.65639 -1.65018,4.3267zm23.64593,-16.32073c2.13317,1.8313 3.46136,3.96447 3.96447,6.3995l0.64397,0c2.4954,0 4.62857,0.78484 6.37937,2.37466c0.6641,-0.62385 1.1672,-1.34832 1.52944,-2.15329c-1.8313,-0.86534 -3.28024,-2.19354 -4.34683,-3.96447c-1.04646,-1.77093 -1.58981,-3.64248 -1.58981,-5.59453l0,-0.48298c-0.10062,-0.02012 -0.26161,-0.02012 -0.48298,-0.02012c-1.1672,-0.02012 -2.31428,0.26161 -3.42111,0.88546c-1.10683,0.60373 -2.01242,1.44894 -2.67652,2.55577z"/>
</g>

<g stroke-width="2.5" stroke-opacity="0.4" stroke="midnightblue">

  <path id="moonfillback" stroke-width="0.1" fill="paleturquoise"  fill-opacity="0.2" style="filter:url(#blur_shadow)" d="m39.9567,27.27653zm-4.53863,-9.71987c0.62256,-1.1447 1.50618,-2.02832 2.61072,-2.6308c1.10453,-0.60247 2.2894,-0.90371 3.53451,-0.88363c0.22091,0 0.40165,0.02008 0.50206,0.04016l0,0.62256c0,1.96808 0.52214,3.79558 1.56643,5.52267c1.04429,1.72709 2.5103,3.03245 4.35789,3.91607c-0.38157,0.88363 -0.88363,1.58651 -1.50618,2.14882c-1.76725,-1.58651 -3.93616,-2.36973 -6.52679,-2.36973l-0.64264,0c-0.52214,-2.5103 -1.80742,-4.63904 -3.89599,-6.36613l-0.00001,0.00001z"/>

  <path id="cloudfillback" stroke-width="0" filter="url(#blur_shadow)" fill="paleturquoise" fill-opacity="0.3" d="m11.18267,33.85888c0,1.81002 0.66685,3.38188 1.95292,4.66796s2.88175,1.95292 4.73941,1.95292l22.10135,0c1.83385,0 3.42952,-0.64303 4.73941,-1.95292c1.30989,-1.30989 1.97674,-2.85793 1.97674,-4.66796c0,-1.81002 -0.64303,-3.38188 -1.97674,-4.66796c-1.30989,-1.28607 -2.88175,-1.95292 -4.73941,-1.95292l-3.31044,0c-0.23816,0 -0.35724,-0.11908 -0.35724,-0.35724l-0.16671,-1.16699c-0.23816,-2.23872 -1.19081,-4.1202 -2.83411,-5.59679s-3.59624,-2.2149 -5.83495,-2.2149c-2.23872,0 -4.19163,0.7383 -5.85877,2.23872c-1.66713,1.4766 -2.59596,3.35807 -2.8103,5.57298l-0.16671,1.00028c0,0.23816 -0.11908,0.35724 -0.38106,0.35724l-1.07172,0.16671c-1.71476,0.14289 -3.14373,0.85738 -4.31071,2.11963c-1.09554,1.26226 -1.69095,2.76268 -1.69095,4.50125l-0.00001,-0.00001l-0.00001,0l0.00001,0z"/>
  <path id="cloudmoon" fill="linen" d="m8.13998,33.77744c0,-2.33441 0.70435,-4.38708 2.13317,-6.19825s3.26012,-2.95826 5.51403,-3.46136c0.46286,-2.07279 1.40869,-3.88397 2.81739,-5.43353c1.40869,-1.54956 3.11925,-2.65639 5.09142,-3.32049c1.2477,-0.42261 2.53565,-0.64397 3.88397,-0.64397c1.63006,0 3.21987,0.32199 4.72919,0.96596c0.56348,-0.94584 1.22758,-1.77093 1.9923,-2.45515c0.76472,-0.68422 1.54956,-1.22758 2.35453,-1.58981c0.80497,-0.36224 1.60994,-0.64397 2.37466,-0.82509s1.52944,-0.26161 2.25391,-0.26161c0.76472,0 1.58981,0.10062 2.47528,0.32199l1.65018,0.5031c0.28174,0.12075 0.36224,0.26161 0.28174,0.44273l-0.28174,1.20745c-0.14087,0.62385 -0.20124,1.20745 -0.20124,1.73068c0,0.62385 0.10062,1.26782 0.30186,1.9118c0.20124,0.64397 0.48298,1.26782 0.88546,1.89167c0.38236,0.62385 0.92571,1.1672 1.60994,1.67031c0.68422,0.5031 1.44894,0.88546 2.31428,1.14708l1.2477,0.44273c0.20124,0.06037 0.30186,0.16099 0.30186,0.32199c0,0.04025 -0.02012,0.0805 -0.04025,0.14087l-0.36224,1.34832c-0.54335,2.17341 -1.56969,3.88397 -3.01863,5.17192c0.80497,1.40869 1.2477,2.91801 1.30807,4.50782c0.02012,0.10062 0.02012,0.24149 0.02012,0.46286c0,1.79105 -0.44273,3.46136 -1.34832,4.9908c-0.88546,1.52944 -2.11304,2.73689 -3.62236,3.62236c-1.52944,0.88546 -3.19975,1.34832 -4.9908,1.34832l-21.75426,0c-1.79105,0 -3.46136,-0.44273 -4.9908,-1.34832s-2.71677,-2.11304 -3.60223,-3.62236s-1.3282,-3.17962 -1.3282,-4.9908zm3.44124,0c0,1.79105 0.64397,3.34062 1.93192,4.64869c1.28795,1.30807 2.79726,1.97217 4.54807,1.97217l21.75426,0c1.79105,0 3.32049,-0.64397 4.58832,-1.95205s1.9118,-2.85764 1.9118,-4.66881c0,-1.77093 -0.64397,-3.28024 -1.93192,-4.54807c-1.28795,-1.26782 -2.81739,-1.9118 -4.58832,-1.9118l-3.58211,0l-0.20124,-1.50931c-0.20124,-2.03254 -1.04646,-3.78335 -2.53565,-5.21217s-3.26012,-2.23379 -5.29266,-2.4149c-0.06037,0 -0.16099,0 -0.30186,-0.02012c-0.14087,-0.02012 -0.22137,-0.02012 -0.30186,-0.02012c-1.02633,0 -2.05267,0.20124 -3.09913,0.5836l0,-0.04025c-1.46907,0.56348 -2.71677,1.48919 -3.70285,2.75702c-1.00621,1.26782 -1.60994,2.71677 -1.81118,4.36695l-0.14087,1.44894l-1.36845,0.06037c-1.69043,0.20124 -3.09913,0.90559 -4.22608,2.13317s-1.65018,2.65639 -1.65018,4.3267zm23.64593,-16.32073c2.13317,1.8313 3.46136,3.96447 3.96447,6.3995l0.64397,0c2.4954,0 4.62857,0.78484 6.37937,2.37466c0.6641,-0.62385 1.1672,-1.34832 1.52944,-2.15329c-1.8313,-0.86534 -3.28024,-2.19354 -4.34683,-3.96447c-1.04646,-1.77093 -1.58981,-3.64248 -1.58981,-5.59453l0,-0.48298c-0.10062,-0.02012 -0.26161,-0.02012 -0.48298,-0.02012c-1.1672,-0.02012 -2.31428,0.26161 -3.42111,0.88546c-1.10683,0.60373 -2.01242,1.44894 -2.67652,2.55577z"/>

</g>

  <path id="moonfill" stroke-width="0" fill="paleturquoise"  fill-opacity="0.5" d="m39.9567,27.27653zm-4.53863,-9.71987c0.62256,-1.1447 1.50618,-2.02832 2.61072,-2.6308c1.10453,-0.60247 2.2894,-0.90371 3.53451,-0.88363c0.22091,0 0.40165,0.02008 0.50206,0.04016l0,0.62256c0,1.96808 0.52214,3.79558 1.56643,5.52267c1.04429,1.72709 2.5103,3.03245 4.35789,3.91607c-0.38157,0.88363 -0.88363,1.58651 -1.50618,2.14882c-1.76725,-1.58651 -3.93616,-2.36973 -6.52679,-2.36973l-0.64264,0c-0.52214,-2.5103 -1.80742,-4.63904 -3.89599,-6.36613l-0.00001,0.00001z"/>


</svg>

