<svg width="60" height="60" xmlns="http://www.w3.org/2000/svg">
<g stroke-opacity="0.4" stroke="midnightblue">
<path stroke-width="2.5" fill="linen" d="m3.64529,33.92924c0,-2.3495 0.7357,-4.46167 2.2071,-6.28906s3.34625,-3.014 5.64828,-3.53611c0.61704,-2.77668 2.01724,-5.07871 4.22435,-6.8349c2.2071,-1.77992 4.74646,-2.65802 7.6418,-2.65802c2.80041,0 5.31603,0.85436 7.4994,2.58682c2.2071,1.73246 3.63104,3.93956 4.27181,6.64504l0.64077,0c2.80041,0 5.17364,0.97302 7.14342,2.9428s2.96654,4.34301 2.96654,7.11969c0,2.80041 -0.99676,5.17364 -2.96654,7.14342s-4.34301,2.96654 -7.14342,2.96654l-21.99983,0c-1.37647,0 -2.68175,-0.26106 -3.91583,-0.8069s-2.3495,-1.21035 -3.25132,-2.11217c-0.90183,-0.90183 -1.6138,-1.99351 -2.15964,-3.22759s-0.8069,-2.58682 -0.8069,-3.93956l0.00001,0zm3.44118,0c0,1.80365 0.6645,3.36998 1.94605,4.65153s2.87161,1.94605 4.72273,1.94605l22.02356,0c1.82739,0 3.41745,-0.64077 4.72273,-1.94605c1.30528,-1.30528 1.96978,-2.84787 1.96978,-4.65153c0,-1.80365 -0.64077,-3.36998 -1.96978,-4.65153c-1.30528,-1.28154 -2.87161,-1.94605 -4.72273,-1.94605l-3.29879,0c-0.23732,0 -0.35598,-0.11866 -0.35598,-0.35598l-0.16613,-1.16288c-0.23732,-2.23084 -1.18661,-4.10569 -2.82414,-5.57709s-3.58358,-2.2071 -5.81441,-2.2071c-2.23084,0 -4.17688,0.7357 -5.83814,2.23084c-1.66126,1.4714 -2.58682,3.34625 -2.80041,5.55336l-0.16613,0.99676c0,0.23732 -0.11866,0.35598 -0.37972,0.35598l-1.06795,0.16613c-1.70872,0.14239 -3.13266,0.85436 -4.29554,2.11217c-1.09169,1.25781 -1.68499,2.75295 -1.68499,4.4854l-0.00001,-0.00001zm21.00307,-20.69456c-0.23732,0.21359 -0.18986,0.37972 0.16613,0.49838c1.02049,0.45091 1.87485,0.87809 2.56309,1.30528c0.26106,0.0712 0.45091,0.04746 0.52211,-0.0712c1.44767,-1.35274 3.10893,-2.04098 5.03125,-2.04098c1.92232,0 3.55984,0.64077 4.98378,1.92232c1.4002,1.28154 2.18337,2.87161 2.3495,4.74646l0.21359,1.51887l3.36998,0c1.5426,0 2.87161,0.54584 3.98702,1.66126c1.11542,1.11542 1.66126,2.42069 1.66126,3.93956c0,1.42394 -0.49838,2.65802 -1.4714,3.72597s-2.18337,1.66126 -3.63104,1.82739c-0.23732,0 -0.35598,0.11866 -0.35598,0.37972l0,2.68175c0,0.26106 0.11866,0.37972 0.35598,0.37972c2.39696,-0.14239 4.41421,-1.09169 6.05173,-2.82414s2.46816,-3.79717 2.46816,-6.17039c0,-2.51562 -0.87809,-4.65153 -2.65802,-6.40772c-1.77992,-1.77992 -3.91583,-2.65802 -6.40772,-2.65802l-0.35598,0c-0.61704,-2.37323 -1.92232,-4.31928 -3.91583,-5.86188c-1.96978,-1.5426 -4.20061,-2.30203 -6.64504,-2.30203c-3.32252,-0.02373 -6.0992,1.23408 -8.28257,3.7497l0,-0.00002z"/>
<path fill="paleturquoise" fill-opacity="0.4" d="m7.44118,33.75001c0,1.80365 0.6645,3.36998 1.94605,4.65153s2.87161,1.94605 4.72273,1.94605l22.02356,0c1.82739,0 3.41745,-0.64077 4.72273,-1.94605c1.30528,-1.30528 1.96978,-2.84787 1.96978,-4.65153c0,-1.80365 -0.64077,-3.36998 -1.96978,-4.65153c-1.30528,-1.28154 -2.87161,-1.94605 -4.72273,-1.94605l-3.29879,0c-0.23732,0 -0.35598,-0.11866 -0.35598,-0.35598l-0.16613,-1.16288c-0.23732,-2.23084 -1.18661,-4.10569 -2.82414,-5.57709s-3.58358,-2.2071 -5.81441,-2.2071c-2.23084,0 -4.17688,0.7357 -5.83814,2.23084c-1.66126,1.4714 -2.58682,3.34625 -2.80041,5.55336l-0.16613,0.99676c0,0.23732 -0.11866,0.35598 -0.37972,0.35598l-1.06795,0.16613c-1.70872,0.14239 -3.13266,0.85436 -4.29554,2.11217c-1.09169,1.25781 -1.68499,2.75295 -1.68499,4.4854l-0.00001,-0.00001z"/>
  </g>
</svg>
