<svg width="60" height="60" xmlns="http://www.w3.org/2000/svg">

  <defs>
    <filter id="drop_shadow" filterUnits="objectBoundingBox" x="-50%" y="-50%" width="200%" height="200%">
      <feDropShadow dx="0.5" dy="0.5" stdDeviation="2" flood-color="black" flood-opacity="0.8" />
    </filter>
    <filter id="blur_shadow" filterUnits="objectBoundingBox" x="-50%" y="-50%" width="200%" height="200%">
      <feGaussianBlur in="SourceGraphic" stdDeviation="3" />
    </filter>
    <filter id="shadow">
      <feDropShadow dx="0.3" dy="0.6" stdDeviation="0.6" flood-color="black"/>
    </filter>
  </defs>

<g fill="black" style="filter:url(#blur_shadow)">
  <path d="m7.32954,26.84594c0,-2.28225 0.71444,-4.32634 2.14333,-6.0926c1.42888,-1.78611 3.23484,-2.93715 5.4377,-3.45314c0.61521,-2.71885 2.02425,-4.94156 4.18743,-6.68797s4.66372,-2.61962 7.46195,-2.61962c2.7387,0 5.17971,0.85336 7.32303,2.54024s3.53252,3.8699 4.16758,6.52921l0.65491,0c1.78611,0 3.43329,0.4366 4.94156,1.28997s2.71885,2.0441 3.59206,3.55237c0.87321,1.50827 1.32966,3.13561 1.32966,4.92171c0,0.39691 -0.01985,0.79382 -0.05954,1.21058c1.28997,1.01213 2.30209,2.28225 3.05622,3.79051s1.11135,3.11576 1.11135,4.82248c0,1.52811 -0.29768,2.97684 -0.89305,4.34619c-0.59537,1.36935 -1.38919,2.54024 -2.38147,3.53252c-0.99228,0.97244 -2.18302,1.76626 -3.55237,2.34178c-1.36935,0.57552 -2.79823,0.87321 -4.3065,0.87321c-1.48842,0 -2.91731,-0.29768 -4.28665,-0.87321c-1.36935,-0.57552 -2.54024,-1.36935 -3.53252,-2.36163c-0.99228,-0.99228 -1.76626,-2.16317 -2.36163,-3.53252s-0.89305,-2.79823 -0.89305,-4.28665l-13.61409,0c-2.65931,-0.11907 -4.90187,-1.1312 -6.74751,-3.03638c-1.84564,-1.86549 -2.77839,-4.14773 -2.77839,-6.80705zm3.3936,0c0,1.72657 0.59537,3.21499 1.78611,4.48511c1.19074,1.27012 2.63947,1.94487 4.34619,2.0441l22.20724,0c1.70672,-0.07938 3.15545,-0.77398 4.34619,-2.0441c1.21058,-1.27012 1.80595,-2.77839 1.80595,-4.48511c0,-1.74641 -0.65491,-3.23484 -1.94487,-4.50495s-2.81808,-1.90518 -4.60418,-1.90518l-3.21499,0c-0.2183,0 -0.33738,-0.11907 -0.33738,-0.33738l-0.13892,-1.15105c-0.2183,-2.14333 -1.15105,-3.94928 -2.77839,-5.39801s-3.51267,-2.18302 -5.67585,-2.18302c-2.16317,0 -4.06835,0.73429 -5.656,2.18302s-2.50055,3.25468 -2.699,5.39801l-0.15876,1.15105c0,0.2183 -0.13892,0.33738 -0.39691,0.33738l-1.03197,0c-1.66703,0.19846 -3.05622,0.9129 -4.16758,2.12348c-1.1312,1.21058 -1.68688,2.63947 -1.68688,4.28665zm22.34616,10.14111c0.11907,2.22271 1.03197,4.10804 2.71885,5.61631c1.68688,1.50827 3.6119,2.2624 5.77507,2.2624c1.19074,0 2.32194,-0.23815 3.37375,-0.6946s1.94487,-1.09151 2.65931,-1.84564c0.71444,-0.77398 1.28997,-1.64719 1.68688,-2.63947c0.41676,-0.99228 0.61521,-1.98456 0.61521,-3.01653c0,-0.97244 -0.19846,-1.94487 -0.59537,-2.91731s-0.95259,-1.86549 -1.68688,-2.67916c-0.77398,1.62734 -1.92502,2.97684 -3.45314,4.00881c-1.52811,1.03197 -3.23484,1.5678 -5.10032,1.64719l-6.01322,0c0,0.01985 0,0.07938 0.01985,0.25799z"/>
</g>

<g stroke-width="2.5" stroke-opacity="0.4" stroke="midnightblue">

  <path id="moonfillback" stroke-width="0.1" fill="paleturquoise"  fill-opacity="0.2" style="filter:url(#blur_shadow)" d="m33.1943,37.11205c0.11907,2.22271 1.03197,4.10804 2.71885,5.61631c1.68688,1.50827 3.6119,2.2624 5.77507,2.2624c1.19074,0 2.32194,-0.23815 3.37375,-0.6946s1.94487,-1.09151 2.65931,-1.84564c0.71444,-0.77398 1.28997,-1.64719 1.68688,-2.63947c0.41676,-0.99228 0.61521,-1.98456 0.61521,-3.01653c0,-0.97244 -0.19846,-1.94487 -0.59537,-2.91731s-0.95259,-1.86549 -1.68688,-2.67916c-0.77398,1.62734 -1.92502,2.97684 -3.45314,4.00881c-1.52811,1.03197 -3.23484,1.5678 -5.10032,1.64719l-6.01322,0c0,0.01985 0,0.07938 0.01985,0.25799l0.00001,0.00001z"/>

  <path id="cloudfillback" stroke-width="0" filter="url(#blur_shadow)" fill="paleturquoise" fill-opacity="0.3" d="m10.68264,26.85041c0,1.77816 0.65511,3.32236 1.91855,4.5858s2.83103,1.91855 4.65599,1.91855l21.71235,0c1.80157,0 3.36916,-0.63171 4.65599,-1.91855c1.28683,-1.28683 1.94195,-2.80763 1.94195,-4.5858c0,-1.77816 -0.63171,-3.32236 -1.94195,-4.5858c-1.28683,-1.26343 -2.83103,-1.91855 -4.65599,-1.91855l-3.25217,0c-0.23397,0 -0.35095,-0.11698 -0.35095,-0.35095l-0.16378,-1.14645c-0.23397,-2.19932 -1.16985,-4.04768 -2.78423,-5.49828s-3.53294,-2.17592 -5.73225,-2.17592c-2.19932,0 -4.11785,0.72531 -5.75565,2.19932c-1.63779,1.45061 -2.55027,3.29897 -2.76084,5.47489l-0.16378,0.98267c0,0.23397 -0.11698,0.35095 -0.37435,0.35095l-1.05286,0.16378c-1.68458,0.14038 -3.0884,0.84229 -4.23484,2.08232c-1.07626,1.24004 -1.66119,2.71405 -1.66119,4.42202l-0.00001,-0.00001l-0.00001,0l0.00001,0z"/>

  <path id="cloudmoon" fill="linen" d="m7.32954,26.84594c0,-2.28225 0.71444,-4.32634 2.14333,-6.0926c1.42888,-1.78611 3.23484,-2.93715 5.4377,-3.45314c0.61521,-2.71885 2.02425,-4.94156 4.18743,-6.68797s4.66372,-2.61962 7.46195,-2.61962c2.7387,0 5.17971,0.85336 7.32303,2.54024s3.53252,3.8699 4.16758,6.52921l0.65491,0c1.78611,0 3.43329,0.4366 4.94156,1.28997s2.71885,2.0441 3.59206,3.55237c0.87321,1.50827 1.32966,3.13561 1.32966,4.92171c0,0.39691 -0.01985,0.79382 -0.05954,1.21058c1.28997,1.01213 2.30209,2.28225 3.05622,3.79051s1.11135,3.11576 1.11135,4.82248c0,1.52811 -0.29768,2.97684 -0.89305,4.34619c-0.59537,1.36935 -1.38919,2.54024 -2.38147,3.53252c-0.99228,0.97244 -2.18302,1.76626 -3.55237,2.34178c-1.36935,0.57552 -2.79823,0.87321 -4.3065,0.87321c-1.48842,0 -2.91731,-0.29768 -4.28665,-0.87321c-1.36935,-0.57552 -2.54024,-1.36935 -3.53252,-2.36163c-0.99228,-0.99228 -1.76626,-2.16317 -2.36163,-3.53252s-0.89305,-2.79823 -0.89305,-4.28665l-13.61409,0c-2.65931,-0.11907 -4.90187,-1.1312 -6.74751,-3.03638c-1.84564,-1.86549 -2.77839,-4.14773 -2.77839,-6.80705zm3.3936,0c0,1.72657 0.59537,3.21499 1.78611,4.48511c1.19074,1.27012 2.63947,1.94487 4.34619,2.0441l22.20724,0c1.70672,-0.07938 3.15545,-0.77398 4.34619,-2.0441c1.21058,-1.27012 1.80595,-2.77839 1.80595,-4.48511c0,-1.74641 -0.65491,-3.23484 -1.94487,-4.50495s-2.81808,-1.90518 -4.60418,-1.90518l-3.21499,0c-0.2183,0 -0.33738,-0.11907 -0.33738,-0.33738l-0.13892,-1.15105c-0.2183,-2.14333 -1.15105,-3.94928 -2.77839,-5.39801s-3.51267,-2.18302 -5.67585,-2.18302c-2.16317,0 -4.06835,0.73429 -5.656,2.18302s-2.50055,3.25468 -2.699,5.39801l-0.15876,1.15105c0,0.2183 -0.13892,0.33738 -0.39691,0.33738l-1.03197,0c-1.66703,0.19846 -3.05622,0.9129 -4.16758,2.12348c-1.1312,1.21058 -1.68688,2.63947 -1.68688,4.28665zm22.34616,10.14111c0.11907,2.22271 1.03197,4.10804 2.71885,5.61631c1.68688,1.50827 3.6119,2.2624 5.77507,2.2624c1.19074,0 2.32194,-0.23815 3.37375,-0.6946s1.94487,-1.09151 2.65931,-1.84564c0.71444,-0.77398 1.28997,-1.64719 1.68688,-2.63947c0.41676,-0.99228 0.61521,-1.98456 0.61521,-3.01653c0,-0.97244 -0.19846,-1.94487 -0.59537,-2.91731s-0.95259,-1.86549 -1.68688,-2.67916c-0.77398,1.62734 -1.92502,2.97684 -3.45314,4.00881c-1.52811,1.03197 -3.23484,1.5678 -5.10032,1.64719l-6.01322,0c0,0.01985 0,0.07938 0.01985,0.25799z"/>

</g>

  <path id="moonfill" stroke-width="0" fill="paleturquoise"  fill-opacity="0.5" d="m33.1943,37.11205c0.11907,2.22271 1.03197,4.10804 2.71885,5.61631c1.68688,1.50827 3.6119,2.2624 5.77507,2.2624c1.19074,0 2.32194,-0.23815 3.37375,-0.6946s1.94487,-1.09151 2.65931,-1.84564c0.71444,-0.77398 1.28997,-1.64719 1.68688,-2.63947c0.41676,-0.99228 0.61521,-1.98456 0.61521,-3.01653c0,-0.97244 -0.19846,-1.94487 -0.59537,-2.91731s-0.95259,-1.86549 -1.68688,-2.67916c-0.77398,1.62734 -1.92502,2.97684 -3.45314,4.00881c-1.52811,1.03197 -3.23484,1.5678 -5.10032,1.64719l-6.01322,0c0,0.01985 0,0.07938 0.01985,0.25799l0.00001,0.00001z"/>


</svg>



