<svg width="60" height="60" xmlns="http://www.w3.org/2000/svg">

  <defs>
    <filter id="drop_shadow" filterUnits="objectBoundingBox" x="-50%" y="-50%" width="200%" height="200%">
      <feDropShadow dx="0.5" dy="0.5" stdDeviation="2" flood-color="black" flood-opacity="0.8" />
    </filter>
    <filter id="blur_shadow" filterUnits="objectBoundingBox" x="-50%" y="-50%" width="200%" height="200%">
      <feGaussianBlur in="SourceGraphic" stdDeviation="3" />
    </filter>
    <filter id="shadow">
      <feDropShadow dx="0.3" dy="0.6" stdDeviation="0.6" flood-color="black"/>
    </filter>
  </defs>

<g fill="black" style="filter:url(#blur_shadow)">
<path d="m4.88681,31.56908c0,-2.78632 0.87224,-5.25766 2.61671,-7.43825c1.74448,-2.18059 3.9493,-3.56164 6.61447,-4.19159c0.75109,-3.29512 2.44711,-6.00875 5.08805,-8.11666s5.69378,-3.17398 9.11004,-3.17398c3.34358,0 6.2995,1.04184 8.91621,3.07706c2.59249,2.05945 4.31273,4.70039 5.11228,7.94706l0.75109,0c2.15637,0 4.16736,0.53303 6.00875,1.57487s3.31935,2.49557 4.38542,4.31273c1.06607,1.81716 1.62333,3.82816 1.62333,5.98452c0,3.24666 -1.11453,6.03298 -3.34358,8.35895s-4.96691,3.56164 -8.18935,3.65855c-0.31497,0 -0.48458,-0.14537 -0.48458,-0.41189l0,-3.22243c0,-0.29075 0.1696,-0.43612 0.48458,-0.43612c2.08368,-0.09692 3.82816,-0.9207 5.28189,-2.47134s2.18059,-3.36781 2.18059,-5.47572s-0.77532,-3.92507 -2.37443,-5.47572c-1.57487,-1.55065 -3.44049,-2.32597 -5.59686,-2.32597l-3.87661,0c-0.29075,0 -0.46035,-0.14537 -0.46035,-0.41189l-0.1696,-1.40527c-0.26652,-2.59249 -1.38104,-4.79731 -3.34358,-6.56601c-1.98676,-1.7687 -4.2885,-2.66517 -6.90522,-2.66517c-2.64094,0 -4.96691,0.87224 -6.92945,2.64094c-1.96254,1.7687 -3.07706,3.9493 -3.34358,6.56601l-0.14537,1.30836c0,0.29075 -0.1696,0.43612 -0.48458,0.43612l-1.28413,0.07269c-1.98676,0.09692 -3.65855,0.89647 -5.06383,2.42288s-2.08368,3.31935 -2.08368,5.3788c0,2.10791 0.72686,3.92507 2.18059,5.47572s3.22243,2.37443 5.28189,2.47134c0.26652,0 0.41189,0.14537 0.41189,0.43612l0,3.22243c0,0.26652 -0.14537,0.41189 -0.41189,0.41189c-3.24666,-0.14537 -5.98452,-1.38104 -8.2378,-3.70701s-3.31935,-5.0396 -3.31935,-8.26203l0.00004,0.00001z"/>
<path d="m43.214036,39.824782zm-18.533592,15.676638c0,0.390695 0.122092,0.756972 0.366277,1.123248c0.244184,0.366277 0.634879,0.634879 1.123248,0.78139c0.341858,0.073255 0.537206,0.122092 0.610461,0.122092c0.219766,0 0.512787,-0.073255 0.927901,-0.244184c0.512787,-0.219766 0.854645,-0.659298 1.025574,-1.269759l0.683716,-2.563936c0.146511,-0.537206 0.097674,-1.049993 -0.195347,-1.538362s-0.708135,-0.805808 -1.294177,-0.976737c-0.537206,-0.146511 -1.049993,-0.097674 -1.538362,0.195347c-0.488369,0.293021 -0.830227,0.708135 -1.001156,1.294177l-0.659298,2.441844c-0.024418,0.415113 -0.048837,0.634879 -0.048837,0.634879l0,0.000001zm3.272071,-11.647594c0,0.341858 0.122092,0.708135 0.366277,1.074411c0.244184,0.366277 0.610461,0.634879 1.09883,0.805808c0.537206,0.170929 1.074411,0.146511 1.56278,-0.122092s0.805808,-0.683716 0.976737,-1.269759l0.732553,-2.539517c0.146511,-0.537206 0.073255,-1.049993 -0.195347,-1.538362c-0.293021,-0.488369 -0.732553,-0.830227 -1.294177,-1.001156c-0.561624,-0.146511 -1.074411,-0.097674 -1.587198,0.195347s-0.830227,0.708135 -1.001156,1.269759l-0.586042,2.466262c-0.048837,0.415113 -0.073255,0.634879 -0.073255,0.659298l-0.000002,0.000001zm6.885999,4.029042c0,0.415113 0.122092,0.830227 0.390695,1.24534c0.268603,0.415113 0.659298,0.683716 1.147667,0.854645c0.048837,0 0.146511,0.024418 0.293021,0.048837c0.122092,0.024418 0.219766,0.048837 0.293021,0.048837c0.31744,0 0.634879,-0.048837 0.927901,-0.195347c0.46395,-0.170929 0.805808,-0.634879 1.001156,-1.391851l0.610461,-2.466262c0.170929,-0.561624 0.122092,-1.09883 -0.146511,-1.611617c-0.268603,-0.512787 -0.683716,-0.854645 -1.220922,-1.025574c-0.610461,-0.146511 -1.172085,-0.073255 -1.660454,0.195347c-0.488369,0.293021 -0.805808,0.732553 -0.903482,1.294177l-0.659298,2.515099c-0.048837,0.146511 -0.073255,0.31744 -0.073255,0.488369zm3.320907,-11.696431c-0.024418,0.390695 0.097674,0.756972 0.366277,1.147667c0.268603,0.390695 0.659298,0.683716 1.196503,0.927901c0.195347,0.097674 0.390695,0.146511 0.634879,0.146511c0.268603,0 0.537206,-0.073255 0.830227,-0.195347c0.512787,-0.244184 0.854645,-0.708135 1.074411,-1.391851l0.708135,-2.515099c0.048837,-0.31744 0.073255,-0.488369 0.073255,-0.537206c0,-0.415113 -0.122092,-0.805808 -0.390695,-1.196503s-0.659298,-0.659298 -1.196503,-0.805808c-0.048837,0 -0.146511,-0.024418 -0.268603,-0.048837c-0.146511,-0.073255 -0.244184,-0.073255 -0.31744,-0.073255c-0.415113,0 -0.805808,0.122092 -1.196503,0.366277c-0.390695,0.244184 -0.659298,0.634879 -0.805808,1.172085l-0.659298,2.466262c-0.024418,0.195347 -0.048837,0.366277 -0.048837,0.537206l0,-0.000003z"/>
<path d="m12.178205,47.68752l5.201127,0l-2.539517,9.230169l0.683716,0l9.694119,-12.746424c0.097674,-0.097674 0.097674,-0.219766 0.048837,-0.341858s-0.170929,-0.170929 -0.341858,-0.170929l-5.323219,0l6.055772,-11.330155c0.146511,-0.341858 0.048837,-0.512787 -0.341858,-0.512787l-7.17902,0c-0.219766,0 -0.415113,0.122092 -0.537206,0.341858l-2.66161,7.008091l-2.759283,8.522035z"/>
</g>

  <path filter="url(#blur_shadow)" d="m10.066166,32.181258c0,2.045769 0.753701,3.82236 2.207284,5.275943s3.25709,2.207284 5.3567,2.207284l24.979961,0c2.072695,0 3.876202,-0.726786 5.3567,-2.207284c1.480498,-1.480498 2.2342,-3.230163 2.2342,-5.275943c0,-2.045769 -0.726786,-3.82236 -2.2342,-5.275943c-1.480498,-1.453572 -3.25709,-2.207284 -5.3567,-2.207284l-3.741613,0c-0.269177,0 -0.403766,-0.134589 -0.403766,-0.403766l-0.188431,-1.318983c-0.269177,-2.530304 -1.345898,-4.65683 -3.203247,-6.325748s-4.064633,-2.503377 -6.594925,-2.503377c-2.530304,0 -4.737577,0.834459 -6.621841,2.530304c-1.884264,1.668918 -2.93407,3.795444 -3.176332,6.298833l-0.188431,1.130563c0,0.269177 -0.134589,0.403766 -0.430693,0.403766l-1.21131,0.188431c-1.938095,0.161504 -3.553182,0.969048 -4.872165,2.395704c-1.238236,1.426656 -1.91118,3.122501 -1.91118,5.087512l-0.000011,-0.000011z"  fill-opacity="0.2" fill="paleturquoise"/>
<g stroke="midnightblue" stroke-opacity="0.4" style="filter:url(#drop_shadow);" >
   <path fill="linen" stroke-width="2.5"  d="m4.88681,31.56908c0,-2.78632 0.87224,-5.25766 2.61671,-7.43825c1.74448,-2.18059 3.9493,-3.56164 6.61447,-4.19159c0.75109,-3.29512 2.44711,-6.00875 5.08805,-8.11666s5.69378,-3.17398 9.11004,-3.17398c3.34358,0 6.2995,1.04184 8.91621,3.07706c2.59249,2.05945 4.31273,4.70039 5.11228,7.94706l0.75109,0c2.15637,0 4.16736,0.53303 6.00875,1.57487s3.31935,2.49557 4.38542,4.31273c1.06607,1.81716 1.62333,3.82816 1.62333,5.98452c0,3.24666 -1.11453,6.03298 -3.34358,8.35895s-4.96691,3.56164 -8.18935,3.65855c-0.31497,0 -0.48458,-0.14537 -0.48458,-0.41189l0,-3.22243c0,-0.29075 0.1696,-0.43612 0.48458,-0.43612c2.08368,-0.09692 3.82816,-0.9207 5.28189,-2.47134s2.18059,-3.36781 2.18059,-5.47572s-0.77532,-3.92507 -2.37443,-5.47572c-1.57487,-1.55065 -3.44049,-2.32597 -5.59686,-2.32597l-3.87661,0c-0.29075,0 -0.46035,-0.14537 -0.46035,-0.41189l-0.1696,-1.40527c-0.26652,-2.59249 -1.38104,-4.79731 -3.34358,-6.56601c-1.98676,-1.7687 -4.2885,-2.66517 -6.90522,-2.66517c-2.64094,0 -4.96691,0.87224 -6.92945,2.64094c-1.96254,1.7687 -3.07706,3.9493 -3.34358,6.56601l-0.14537,1.30836c0,0.29075 -0.1696,0.43612 -0.48458,0.43612l-1.28413,0.07269c-1.98676,0.09692 -3.65855,0.89647 -5.06383,2.42288s-2.08368,3.31935 -2.08368,5.3788c0,2.10791 0.72686,3.92507 2.18059,5.47572s3.22243,2.37443 5.28189,2.47134c0.26652,0 0.41189,0.14537 0.41189,0.43612l0,3.22243c0,0.26652 -0.14537,0.41189 -0.41189,0.41189c-3.24666,-0.14537 -5.98452,-1.38104 -8.2378,-3.70701s-3.31935,-5.0396 -3.31935,-8.26203l0.00004,0.00001z"/>
  <path fill="cornflowerblue"  stroke-width="1" d="m43.214036,39.824782zm-18.533592,15.676638c0,0.390695 0.122092,0.756972 0.366277,1.123248c0.244184,0.366277 0.634879,0.634879 1.123248,0.78139c0.341858,0.073255 0.537206,0.122092 0.610461,0.122092c0.219766,0 0.512787,-0.073255 0.927901,-0.244184c0.512787,-0.219766 0.854645,-0.659298 1.025574,-1.269759l0.683716,-2.563936c0.146511,-0.537206 0.097674,-1.049993 -0.195347,-1.538362s-0.708135,-0.805808 -1.294177,-0.976737c-0.537206,-0.146511 -1.049993,-0.097674 -1.538362,0.195347c-0.488369,0.293021 -0.830227,0.708135 -1.001156,1.294177l-0.659298,2.441844c-0.024418,0.415113 -0.048837,0.634879 -0.048837,0.634879l0,0.000001zm3.272071,-11.647594c0,0.341858 0.122092,0.708135 0.366277,1.074411c0.244184,0.366277 0.610461,0.634879 1.09883,0.805808c0.537206,0.170929 1.074411,0.146511 1.56278,-0.122092s0.805808,-0.683716 0.976737,-1.269759l0.732553,-2.539517c0.146511,-0.537206 0.073255,-1.049993 -0.195347,-1.538362c-0.293021,-0.488369 -0.732553,-0.830227 -1.294177,-1.001156c-0.561624,-0.146511 -1.074411,-0.097674 -1.587198,0.195347s-0.830227,0.708135 -1.001156,1.269759l-0.586042,2.466262c-0.048837,0.415113 -0.073255,0.634879 -0.073255,0.659298l-0.000002,0.000001zm6.885999,4.029042c0,0.415113 0.122092,0.830227 0.390695,1.24534c0.268603,0.415113 0.659298,0.683716 1.147667,0.854645c0.048837,0 0.146511,0.024418 0.293021,0.048837c0.122092,0.024418 0.219766,0.048837 0.293021,0.048837c0.31744,0 0.634879,-0.048837 0.927901,-0.195347c0.46395,-0.170929 0.805808,-0.634879 1.001156,-1.391851l0.610461,-2.466262c0.170929,-0.561624 0.122092,-1.09883 -0.146511,-1.611617c-0.268603,-0.512787 -0.683716,-0.854645 -1.220922,-1.025574c-0.610461,-0.146511 -1.172085,-0.073255 -1.660454,0.195347c-0.488369,0.293021 -0.805808,0.732553 -0.903482,1.294177l-0.659298,2.515099c-0.048837,0.146511 -0.073255,0.31744 -0.073255,0.488369zm3.320907,-11.696431c-0.024418,0.390695 0.097674,0.756972 0.366277,1.147667c0.268603,0.390695 0.659298,0.683716 1.196503,0.927901c0.195347,0.097674 0.390695,0.146511 0.634879,0.146511c0.268603,0 0.537206,-0.073255 0.830227,-0.195347c0.512787,-0.244184 0.854645,-0.708135 1.074411,-1.391851l0.708135,-2.515099c0.048837,-0.31744 0.073255,-0.488369 0.073255,-0.537206c0,-0.415113 -0.122092,-0.805808 -0.390695,-1.196503s-0.659298,-0.659298 -1.196503,-0.805808c-0.048837,0 -0.146511,-0.024418 -0.268603,-0.048837c-0.146511,-0.073255 -0.244184,-0.073255 -0.31744,-0.073255c-0.415113,0 -0.805808,0.122092 -1.196503,0.366277c-0.390695,0.244184 -0.659298,0.634879 -0.805808,1.172085l-0.659298,2.466262c-0.024418,0.195347 -0.048837,0.366277 -0.048837,0.537206l0,-0.000003z"/>
  <path fill="bisque" stroke-width="1" d="m12.178205,47.68752l5.201127,0l-2.539517,9.230169l0.683716,0l9.694119,-12.746424c0.097674,-0.097674 0.097674,-0.219766 0.048837,-0.341858s-0.170929,-0.170929 -0.341858,-0.170929l-5.323219,0l6.055772,-11.330155c0.146511,-0.341858 0.048837,-0.512787 -0.341858,-0.512787l-7.17902,0c-0.219766,0 -0.415113,0.122092 -0.537206,0.341858l-2.66161,7.008091l-2.759283,8.522035z"/>
</g>
</svg>



