<svg width="60" height="60" xmlns="http://www.w3.org/2000/svg">

  <defs>
    <filter id="drop_shadow" filterUnits="objectBoundingBox" x="-50%" y="-50%" width="200%" height="200%">
      <feDropShadow dx="0.5" dy="0.5" stdDeviation="2" flood-color="black" flood-opacity="0.8" />
    </filter>
    <filter id="blur_shadow" filterUnits="objectBoundingBox" x="-50%" y="-50%" width="200%" height="200%">
      <feGaussianBlur in="SourceGraphic" stdDeviation="3" />
    </filter>
    <filter id="shadow">
      <feDropShadow dx="0.3" dy="0.6" stdDeviation="0.6" flood-color="black"/>
    </filter>
  </defs>

<g fill="black" style="filter:url(#blur_shadow)">
   <path d="m8.0375,33.75392c0,2.71091 0.95799,5.05494 2.8536,7.01169s4.21924,2.99628 6.93016,3.11858c0.24459,0 0.36689,-0.1223 0.36689,-0.34651l0,-2.7313c0,-0.22421 -0.1223,-0.3465 -0.36689,-0.3465c-1.75292,-0.10192 -3.24087,-0.79493 -4.46384,-2.09943c-1.22297,-1.3045 -1.83445,-2.83322 -1.83445,-4.60652c0,-1.69178 0.57072,-3.15934 1.73254,-4.42307c1.16182,-1.24336 2.58862,-1.97714 4.2804,-2.18096l1.08029,-0.08153c0.26498,0 0.40765,-0.1223 0.40765,-0.3669l0.14268,-1.10067c0.22421,-2.20135 1.14144,-4.05618 2.79245,-5.54413c1.65101,-1.48794 3.58738,-2.24211 5.80911,-2.24211c2.22173,0 4.1581,0.75416 5.82949,2.24211c1.67139,1.48795 2.60901,3.34278 2.8536,5.54413l0.16306,1.16182c0,0.24459 0.1223,0.38728 0.34651,0.38728l3.30202,0c1.85483,0 3.42431,0.65225 4.7492,1.93636c1.3045,1.28412 1.97714,2.8536 1.97714,4.64729c0,1.75292 -0.61149,3.28164 -1.85484,4.58614c-1.24335,1.30449 -2.7313,2.01789 -4.46384,2.11981c-0.24459,0 -0.38728,0.1223 -0.38728,0.34651l0,2.73129c0,0.22421 0.1223,0.34651 0.38728,0.34651c2.7313,-0.08153 5.03456,-1.12105 6.93016,-3.0778c1.89561,-1.97714 2.83322,-4.32116 2.83322,-7.03208c0,-1.44719 -0.28537,-2.81283 -0.87646,-4.09695c1.61024,-1.95676 2.40517,-4.21925 2.40517,-6.76711c0,-1.93636 -0.48919,-3.73005 -1.44718,-5.38106s-2.26249,-2.95551 -3.91351,-3.9135s-3.42431,-1.4268 -5.3403,-1.4268c-3.15934,0 -5.80911,1.1822 -7.92893,3.52622c-1.651,-0.87646 -3.48546,-1.32488 -5.52375,-1.32488c-2.87398,0 -5.44221,0.89685 -7.66394,2.69054s-3.66892,4.07656 -4.30078,6.84863c-2.26249,0.52995 -4.11733,1.71216 -5.58489,3.54661c-1.48794,1.85484 -2.22173,3.95427 -2.22173,6.2983l0,0zm28.12831,-16.04129c1.38603,-1.38603 3.05743,-2.05867 5.05494,-2.05867c1.99752,0 3.68929,0.7134 5.09571,2.11982s2.09943,3.11857 2.09943,5.13647c0,1.20258 -0.34651,2.44594 -1.03952,3.75044c-1.95676,-1.95675 -4.34155,-2.93513 -7.134,-2.93513l-0.63187,0c-0.57072,-2.38479 -1.73254,-4.38231 -3.44469,-6.01293l0,0z"/>
<path d="m14.84092,45.73982c-0.10386,0.29079 0,0.45696 0.29079,0.45696l4.40343,0l-2.16017,8.70301l0.58159,0l8.24604,-11.67324c0.08308,-0.08309 0.08308,-0.18694 0.02077,-0.2908c-0.06232,-0.10385 -0.16617,-0.14539 -0.31157,-0.14539l-4.50729,0l5.13042,-9.57538c0.14539,-0.29079 0.04154,-0.45696 -0.2908,-0.45696l-6.10664,0c-0.18694,0 -0.33233,0.10385 -0.47773,0.29079l-2.22249,5.96124l-2.59636,6.72977z"/>
<path d="m41.44843,42.41647zm-16.18053,10.53085c0,0.33233 0.10386,0.66467 0.31156,0.95546s0.51927,0.51927 0.93469,0.6439l0.51927,0.06231c0.87238,0 1.41242,-0.41541 1.66167,-1.24625l5.04733,-18.46533c0.12462,-0.47773 0.08308,-0.93469 -0.14539,-1.32933c-0.22848,-0.41542 -0.56082,-0.68544 -1.01778,-0.83083c-0.47773,-0.1454 -0.93469,-0.10386 -1.35011,0.12462c-0.41541,0.22848 -0.70621,0.58158 -0.83083,1.03855l-5.08887,18.48609c-0.02077,0.35311 -0.04154,0.54004 -0.04154,0.56082l0,0zm8.59915,-6.29358c0,0.83083 0.43619,1.39165 1.2878,1.66167c0.3531,0.04154 0.54004,0.06231 0.54004,0.06231c0.22848,0 0.47774,-0.04154 0.72698,-0.16617c0.41542,-0.18693 0.70621,-0.56081 0.87238,-1.1424l3.40642,-12.15097c0.12463,-0.47773 0.08309,-0.93469 -0.16617,-1.32933c-0.22847,-0.41542 -0.58158,-0.68544 -1.05932,-0.83084c-0.47773,-0.14539 -0.93469,-0.10385 -1.35011,0.12463c-0.41541,0.22847 -0.68544,0.58158 -0.81006,1.03855l-3.36488,12.23405c-0.04154,0.2908 -0.08309,0.45697 -0.08309,0.49851l0,0z"/>
</g>

<circle style="filter:url(#blur_shadow);" fill-opacity="0.2" fill="lightcyan" cy="22.12474" cx="41.62453" r="6.87506"/>
<g stroke-width="2.5" stroke-opacity="0.4" stroke="midnightblue">
  <path stroke-width="0" filter="url(#blur_shadow)" fill="paleturquoise" fill-opacity="0.3" d="m11.43267,33.85888c0,1.81002 0.66685,3.38188 1.95292,4.66796s2.88175,1.95292 4.73941,1.95292l22.10135,0c1.83385,0 3.42952,-0.64303 4.73941,-1.95292c1.30989,-1.30989 1.97674,-2.85793 1.97674,-4.66796c0,-1.81002 -0.64303,-3.38188 -1.97674,-4.66796c-1.30989,-1.28607 -2.88175,-1.95292 -4.73941,-1.95292l-3.31044,0c-0.23816,0 -0.35724,-0.11908 -0.35724,-0.35724l-0.16671,-1.16699c-0.23816,-2.23872 -1.19081,-4.1202 -2.83411,-5.59679s-3.59624,-2.2149 -5.83495,-2.2149c-2.23872,0 -4.19163,0.7383 -5.85877,2.23872c-1.66713,1.4766 -2.59596,3.35807 -2.8103,5.57298l-0.16671,1.00028c0,0.23816 -0.11908,0.35724 -0.38106,0.35724l-1.07172,0.16671c-1.71476,0.14289 -3.14373,0.85738 -4.31071,2.11963c-1.09554,1.26226 -1.69095,2.76268 -1.69095,4.50125l-0.00001,-0.00001l-0.00001,0z"/>
  <path  fill="linen" d="m8.0375,33.75392c0,2.71091 0.95799,5.05494 2.8536,7.01169s4.21924,2.99628 6.93016,3.11858c0.24459,0 0.36689,-0.1223 0.36689,-0.34651l0,-2.7313c0,-0.22421 -0.1223,-0.3465 -0.36689,-0.3465c-1.75292,-0.10192 -3.24087,-0.79493 -4.46384,-2.09943c-1.22297,-1.3045 -1.83445,-2.83322 -1.83445,-4.60652c0,-1.69178 0.57072,-3.15934 1.73254,-4.42307c1.16182,-1.24336 2.58862,-1.97714 4.2804,-2.18096l1.08029,-0.08153c0.26498,0 0.40765,-0.1223 0.40765,-0.3669l0.14268,-1.10067c0.22421,-2.20135 1.14144,-4.05618 2.79245,-5.54413c1.65101,-1.48794 3.58738,-2.24211 5.80911,-2.24211c2.22173,0 4.1581,0.75416 5.82949,2.24211c1.67139,1.48795 2.60901,3.34278 2.8536,5.54413l0.16306,1.16182c0,0.24459 0.1223,0.38728 0.34651,0.38728l3.30202,0c1.85483,0 3.42431,0.65225 4.7492,1.93636c1.3045,1.28412 1.97714,2.8536 1.97714,4.64729c0,1.75292 -0.61149,3.28164 -1.85484,4.58614c-1.24335,1.30449 -2.7313,2.01789 -4.46384,2.11981c-0.24459,0 -0.38728,0.1223 -0.38728,0.34651l0,2.73129c0,0.22421 0.1223,0.34651 0.38728,0.34651c2.7313,-0.08153 5.03456,-1.12105 6.93016,-3.0778c1.89561,-1.97714 2.83322,-4.32116 2.83322,-7.03208c0,-1.44719 -0.28537,-2.81283 -0.87646,-4.09695c1.61024,-1.95676 2.40517,-4.21925 2.40517,-6.76711c0,-1.93636 -0.48919,-3.73005 -1.44718,-5.38106s-2.26249,-2.95551 -3.91351,-3.9135s-3.42431,-1.4268 -5.3403,-1.4268c-3.15934,0 -5.80911,1.1822 -7.92893,3.52622c-1.651,-0.87646 -3.48546,-1.32488 -5.52375,-1.32488c-2.87398,0 -5.44221,0.89685 -7.66394,2.69054s-3.66892,4.07656 -4.30078,6.84863c-2.26249,0.52995 -4.11733,1.71216 -5.58489,3.54661c-1.48794,1.85484 -2.22173,3.95427 -2.22173,6.2983l0,0zm28.12831,-16.04129c1.38603,-1.38603 3.05743,-2.05867 5.05494,-2.05867c1.99752,0 3.68929,0.7134 5.09571,2.11982s2.09943,3.11857 2.09943,5.13647c0,1.20258 -0.34651,2.44594 -1.03952,3.75044c-1.95676,-1.95675 -4.34155,-2.93513 -7.134,-2.93513l-0.63187,0c-0.57072,-2.38479 -1.73254,-4.38231 -3.44469,-6.01293l0,0z"/>
  <path stroke-width="1" fill="beige" d="m14.84092,45.73982c-0.10386,0.29079 0,0.45696 0.29079,0.45696l4.40343,0l-2.16017,8.70301l0.58159,0l8.24604,-11.67324c0.08308,-0.08309 0.08308,-0.18694 0.02077,-0.2908c-0.06232,-0.10385 -0.16617,-0.14539 -0.31157,-0.14539l-4.50729,0l5.13042,-9.57538c0.14539,-0.29079 0.04154,-0.45696 -0.2908,-0.45696l-6.10664,0c-0.18694,0 -0.33233,0.10385 -0.47773,0.29079l-2.22249,5.96124l-2.59636,6.72977z"/>
   <path stroke-width="1" fill="cornflowerblue" d="m41.44843,42.41647zm-16.18053,10.53085c0,0.33233 0.10386,0.66467 0.31156,0.95546s0.51927,0.51927 0.93469,0.6439l0.51927,0.06231c0.87238,0 1.41242,-0.41541 1.66167,-1.24625l5.04733,-18.46533c0.12462,-0.47773 0.08308,-0.93469 -0.14539,-1.32933c-0.22848,-0.41542 -0.56082,-0.68544 -1.01778,-0.83083c-0.47773,-0.1454 -0.93469,-0.10386 -1.35011,0.12462c-0.41541,0.22848 -0.70621,0.58158 -0.83083,1.03855l-5.08887,18.48609c-0.02077,0.35311 -0.04154,0.54004 -0.04154,0.56082l0,0zm8.59915,-6.29358c0,0.83083 0.43619,1.39165 1.2878,1.66167c0.3531,0.04154 0.54004,0.06231 0.54004,0.06231c0.22848,0 0.47774,-0.04154 0.72698,-0.16617c0.41542,-0.18693 0.70621,-0.56081 0.87238,-1.1424l3.40642,-12.15097c0.12463,-0.47773 0.08309,-0.93469 -0.16617,-1.32933c-0.22847,-0.41542 -0.58158,-0.68544 -1.05932,-0.83084c-0.47773,-0.14539 -0.93469,-0.10385 -1.35011,0.12463c-0.41541,0.22847 -0.68544,0.58158 -0.81006,1.03855l-3.36488,12.23405c-0.04154,0.2908 -0.08309,0.45697 -0.08309,0.49851l0,0z"/>
</g>

</svg>
