<svg width="60" height="60" xmlns="http://www.w3.org/2000/svg">
  <defs>
    <filter id="drop_shadow" filterUnits="objectBoundingBox" x="-50%" y="-50%" width="200%" height="200%">
      <feDropShadow dx="0.5" dy="0.5" stdDeviation="2" flood-color="black" flood-opacity="0.8" />
    </filter>
    <filter id="blur_shadow" filterUnits="objectBoundingBox" x="-50%" y="-50%" width="200%" height="200%">
      <feGaussianBlur in="SourceGraphic" stdDeviation="3" />
    </filter>
    <filter id="shadow">
      <feDropShadow dx="0.3" dy="0.6" stdDeviation="0.6" flood-color="black"/>
    </filter>
  <linearGradient id="linearGradient3199">
   <stop id="stop3201" offset="0" stop-color="#ffffff"/>
   <stop id="stop3203" offset="1" stop-opacity="0" stop-color="#ffffff"/>
  </linearGradient>
  <linearGradient xlink:href="#linearGradient3199" id="linearGradient3206" x1="0.35792" y1="0.0564" x2="0.4991" y2="0.96319"/>
  </defs>
 <g>
  <circle cx="30" cy="30" r="20.24999" fill-opacity="0.4" fill="blue"/>
  <path style="filter:url(#blur_shadow)" fill="black" d="m4.30254,30.04564c0,-4.65567 1.16392,-8.96901 3.46893,-12.9172s5.43161,-7.07479 9.3798,-9.3798s8.23871,-3.44611 12.87155,-3.44611c3.46893,0 6.80093,0.68466 9.97317,2.03115s5.88805,3.19507 8.19306,5.47726s4.13076,5.02082 5.47726,8.21589s2.03115,6.50424 2.03115,10.01882c0,3.46893 -0.68466,6.80093 -2.03115,9.97317s-3.19507,5.91087 -5.47726,8.19306s-5.02082,4.10794 -8.19306,5.45444s-6.48142,2.03115 -9.97317,2.03115c-3.49175,0 -6.84657,-0.68466 -10.01882,-2.03115s-5.91087,-3.19507 -8.21589,-5.47726s-4.10794,-5.02082 -5.47726,-8.17024s-2.00833,-6.48142 -2.00833,-9.97317zm5.65983,0c0,5.40879 1.96268,10.1101 5.91087,14.10394c3.94819,3.94819 8.6495,5.91087 14.14958,5.91087c3.60586,0 6.96068,-0.89005 10.01882,-2.69298s5.5229,-4.22205 7.32583,-7.30301s2.71581,-6.41296 2.71581,-10.01882s-0.91288,-6.96068 -2.71581,-10.04164s-4.24487,-5.5229 -7.32583,-7.32583s-6.41296,-2.69298 -10.01882,-2.69298s-6.96068,0.89005 -10.01882,2.69298s-5.5229,4.24487 -7.34865,7.32583s-2.69298,6.43578 -2.69298,10.04164zm18.07495,0l0,-15.19939c0,-0.5249 0.18258,-0.98134 0.54773,-1.34649s0.82159,-0.54773 1.34649,-0.54773s0.98134,0.18258 1.34649,0.54773s0.54773,0.82159 0.54773,1.34649l0,11.89021l6.34449,-3.58304c0.45644,-0.27386 0.9357,-0.34233 1.43778,-0.2054s0.89005,0.45644 1.1411,0.9357c0.27386,0.45644 0.31951,0.9357 0.18258,1.43778s-0.43362,0.91288 -0.89005,1.16392l-8.8549,4.95235c-0.38797,0.34233 -0.79877,0.50208 -1.27803,0.50208c-0.5249,0 -0.98134,-0.18258 -1.34649,-0.54773s-0.5249,-0.79877 -0.5249,-1.34649z"/>

<g stroke="midnightblue" stroke-opacity="0.4" stroke-width="0.5" style="filter:url(#drop_shadow);">
  <path fill="blue" d="m28.03732,30.04564l0,-15.19939c0,-0.5249 0.18258,-0.98134 0.54773,-1.34649s0.82159,-0.54773 1.34649,-0.54773s0.98134,0.18258 1.34649,0.54773s0.54773,0.82159 0.54773,1.34649l0,11.89021l6.34449,-3.58304c0.45644,-0.27386 0.9357,-0.34233 1.43778,-0.2054s0.89005,0.45644 1.1411,0.9357c0.27386,0.45644 0.31951,0.9357 0.18258,1.43778s-0.43362,0.91288 -0.89005,1.16392l-8.8549,4.95235c-0.38797,0.34233 -0.79877,0.50208 -1.27803,0.50208c-0.5249,0 -0.98134,-0.18258 -1.34649,-0.54773s-0.5249,-0.79877 -0.5249,-1.34649l-0.00002,0.00001z"/>
  <path fill="red" d="m30.02266,55.50972zm-1.97101,-25.46441c0,0.49841 0.18124,0.95152 0.54372,1.33666c0.36248,0.38514 0.81559,0.56638 1.33666,0.56638c0.49841,0 0.95152,-0.18124 1.33666,-0.56638c0.38514,-0.38514 0.56638,-0.81559 0.56638,-1.33666l0,-15.08835c0,-0.52107 -0.18124,-0.97417 -0.56638,-1.33666s-0.81559,-0.54372 -1.33666,-0.54372c-0.52107,0 -0.97417,0.18124 -1.33666,0.54372s-0.54372,0.81559 -0.54372,1.33666l0,15.08835z"/>

</g>
  <path d="m46.31259,25.7251c-1.22051,7.14799 -8.77858,9.72413 -16.42312,10.89422c-7.65822,1.17219 -16.54284,0.20237 -18.26605,-8.02008c-1.71947,-8.20461 7.01441,-18.57121 18.47796,-18.57121c11.46355,0 17.42792,8.57133 16.21121,15.69706l0,0l0,0z" stroke-dashoffset="0" stroke-miterlimit="4" stroke-linejoin="round" stroke-linecap="round" stroke-width="0.2" fill="url(#linearGradient3206)" fill-opacity="0.7"/>
  <path stroke="midnightblue" stroke-opacity="0.4" stroke-width="2.5"  fill="mediumaquamarine" d="m4.49027,30.04531c0,-4.62166 1.15541,-8.90348 3.44359,-12.82283s5.39193,-7.0231 9.31128,-9.31128s8.17852,-3.42093 12.77752,-3.42093c3.44359,0 6.75124,0.67966 9.90031,2.01631s5.84504,3.17172 8.13321,5.43724s4.10059,4.98414 5.43724,8.15586s2.01631,6.45672 2.01631,9.94562c0,3.44359 -0.67966,6.75124 -2.01631,9.90031s-3.17172,5.86769 -5.43724,8.13321s-4.98414,4.07793 -8.13321,5.41459s-6.43407,2.01631 -9.90031,2.01631c-3.46624,0 -6.79655,-0.67966 -9.94562,-2.01631s-5.86769,-3.17172 -8.15586,-5.43724s-4.07793,-4.98414 -5.43724,-8.11055s-1.99366,-6.43407 -1.99366,-9.90031l-0.00001,0zm5.61848,0c0,5.36928 1.94835,10.03624 5.86769,14.0009c3.91935,3.91935 8.58631,5.86769 14.04621,5.86769c3.57952,0 6.90983,-0.88355 9.94562,-2.67331s5.48255,-4.19121 7.27231,-7.24966s2.69597,-6.3661 2.69597,-9.94562s-0.90621,-6.90983 -2.69597,-9.96828s-4.21386,-5.48255 -7.27231,-7.27231s-6.3661,-2.67331 -9.94562,-2.67331s-6.90983,0.88355 -9.94562,2.67331s-5.48255,4.21386 -7.29497,7.27231s-2.67331,6.38876 -2.67331,9.96828z"/>
</g>
</svg>


