<svg width="60" height="60" xmlns="http://www.w3.org/2000/svg">


  <defs>
    <filter id="drop_shadow" filterUnits="objectBoundingBox" x="-50%" y="-50%" width="200%" height="200%">
      <feDropShadow dx="0.5" dy="0.5" stdDeviation="2" flood-color="black" flood-opacity="0.8" />
    </filter>
    <filter id="blur_shadow" filterUnits="objectBoundingBox" x="-50%" y="-50%" width="200%" height="200%">
      <feGaussianBlur in="SourceGraphic" stdDeviation="3" />
    </filter>
  </defs>
<g filter="url(#blur_shadow)" >
  <path fill="yellow" d="m39.688218,37.819263zm-32.27948,2.143217c0,0.52487 0.174957,0.940391 0.52487,1.268435c0.349913,0.349913 0.787304,0.52487 1.268435,0.52487c0.52487,0 0.98413,-0.174957 1.355913,-0.503s0.546739,-0.765435 0.546739,-1.290304c0,-0.503 -0.196826,-0.940391 -0.568609,-1.312174c-0.371783,-0.371783 -0.831044,-0.546739 -1.334044,-0.546739c-0.48113,0 -0.918522,0.174957 -1.268435,0.546739c-0.349913,0.371783 -0.52487,0.809174 -0.52487,1.312174l0.000001,-0.000001zm2.077609,-21.716479c0,0.52487 0.174957,0.940391 0.52487,1.268435c0.349913,0.349913 0.787304,0.52487 1.268435,0.52487c0.52487,0 0.98413,-0.174957 1.334044,-0.503c0.371783,-0.349913 0.546739,-0.765435 0.546739,-1.290304c0,-0.503 -0.174957,-0.940391 -0.546739,-1.312174c-0.349913,-0.349913 -0.809174,-0.546739 -1.312174,-0.546739c-0.48113,0 -0.918522,0.174957 -1.268435,0.546739c-0.371783,0.371783 -0.546739,0.809174 -0.546739,1.312174l-0.000001,-0.000001zm6.626479,-5.05187c0,0.52487 0.174957,0.940391 0.52487,1.268435c0.349913,0.371783 0.787304,0.546739 1.268435,0.546739c0.52487,0 0.98413,-0.174957 1.355913,-0.503c0.371783,-0.349913 0.546739,-0.765435 0.546739,-1.290304c0,-0.503 -0.196826,-0.940391 -0.568609,-1.312174c-0.349913,-0.371783 -0.809174,-0.546739 -1.334044,-0.546739c-0.48113,0 -0.918522,0.174957 -1.268435,0.546739c-0.349913,0.349913 -0.52487,0.787304 -0.52487,1.290304l0.000001,0zm0.196826,25.368697c0,0.503 0.174957,0.940391 0.546739,1.268435c0.349913,0.349913 0.765435,0.52487 1.246565,0.52487c0.52487,0 0.98413,-0.174957 1.355913,-0.503c0.371783,-0.349913 0.546739,-0.765435 0.546739,-1.290304c0,-0.503 -0.196826,-0.940391 -0.568609,-1.312174c-0.371783,-0.371783 -0.831044,-0.546739 -1.334044,-0.546739c-0.48113,0 -0.918522,0.174957 -1.268435,0.546739c-0.349913,0.371783 -0.52487,0.809174 -0.52487,1.312174l0.000002,-0.000001zm9.141479,-21.497784c0,0.52487 0.174957,0.940391 0.52487,1.268435c0.349913,0.349913 0.787304,0.52487 1.268435,0.52487c0.52487,0 0.98413,-0.174957 1.355913,-0.503s0.546739,-0.765435 0.546739,-1.290304c0,-0.503 -0.196826,-0.940391 -0.568609,-1.312174c-0.371783,-0.371783 -0.831044,-0.546739 -1.334044,-0.546739c-0.503,0 -0.918522,0.174957 -1.268435,0.546739c-0.349913,0.371783 -0.52487,0.809174 -0.52487,1.312174l0.000001,-0.000001zm0.699826,24.034654c0,0.503 0.174957,0.918522 0.546739,1.268435c0.349913,0.349913 0.765435,0.52487 1.246565,0.52487c0.52487,0 0.98413,-0.174957 1.355913,-0.503c0.371783,-0.349913 0.546739,-0.765435 0.546739,-1.290304c0,-0.503 -0.196826,-0.940391 -0.568609,-1.312174c-0.371783,-0.371783 -0.831044,-0.546739 -1.334044,-0.546739c-0.48113,0 -0.918522,0.174957 -1.268435,0.546739s-0.52487,0.809174 -0.52487,1.312174l0.000002,-0.000001zm9.797566,-24.384567c0,0.503 0.174957,0.918522 0.52487,1.246565c0.371783,0.371783 0.787304,0.546739 1.268435,0.546739c0.52487,0 0.98413,-0.174957 1.355913,-0.503c0.371783,-0.349913 0.546739,-0.765435 0.546739,-1.290304c0,-0.503 -0.196826,-0.940391 -0.568609,-1.312174c-0.371783,-0.371783 -0.831044,-0.546739 -1.334044,-0.546739c-0.48113,0 -0.896652,0.174957 -1.268435,0.546739c-0.328043,0.371783 -0.52487,0.809174 -0.52487,1.312174l0.000001,0zm11.131609,15.439914c0,0.52487 0.174957,0.940391 0.52487,1.268435c0.349913,0.349913 0.787304,0.52487 1.268435,0.52487c0.52487,0 0.98413,-0.174957 1.334044,-0.503c0.371783,-0.349913 0.546739,-0.765435 0.546739,-1.290304c0,-0.503 -0.174957,-0.940391 -0.546739,-1.312174c-0.371783,-0.371783 -0.809174,-0.546739 -1.334044,-0.546739c-0.503,0 -0.918522,0.174957 -1.268435,0.546739c-0.328043,0.371783 -0.52487,0.809174 -0.52487,1.312174l0,-0.000001z"/>
  <path fill="khaki" d="m3.975216,32.001958c0,0.52487 0.196826,0.98413 0.612348,1.355913c0.349913,0.415522 0.809174,0.612348 1.377783,0.612348l32.126393,0c0.634217,0 1.159087,0.218696 1.596478,0.656087c0.437391,0.437391 0.656087,0.98413 0.656087,1.618348c0,0.634217 -0.218696,1.159087 -0.656087,1.574609c-0.437391,0.415522 -0.962261,0.634217 -1.618348,0.634217c-0.634217,0 -1.180957,-0.218696 -1.596478,-0.634217c-0.349913,-0.393652 -0.787304,-0.568609 -1.312174,-0.568609c-0.546739,0 -1.006,0.196826 -1.399652,0.568609s-0.590478,0.831044 -0.590478,1.334044c0,0.546739 0.196826,1.006 0.612348,1.377783c1.224696,1.202826 2.668087,1.815174 4.286435,1.815174c1.705826,0 3.171087,-0.590478 4.395783,-1.771435c1.224696,-1.180957 1.815174,-2.602478 1.815174,-4.308305s-0.612348,-3.149218 -1.837044,-4.373913c-1.224696,-1.224696 -2.689957,-1.837044 -4.373913,-1.837044l-32.104524,0c-0.546739,0 -1.006,0.196826 -1.399652,0.568609c-0.393652,0.371783 -0.590478,0.831044 -0.590478,1.377783l-0.000001,-0.000001zm0,-7.173218c0,0.503 0.196826,0.940391 0.612348,1.334044c0.371783,0.393652 0.831044,0.568609 1.377783,0.568609l43.826611,0c1.705826,0 3.171087,-0.590478 4.395783,-1.793304c1.224696,-1.180957 1.837044,-2.624348 1.837044,-4.308305c0,-1.683957 -0.612348,-3.149218 -1.837044,-4.352044s-2.689957,-1.815174 -4.395783,-1.815174c-1.683957,0 -3.105478,0.590478 -4.264565,1.749565c-0.393652,0.349913 -0.590478,0.831044 -0.590478,1.465261c0,0.568609 0.196826,1.02787 0.568609,1.377783c0.371783,0.349913 0.831044,0.52487 1.377783,0.52487c0.52487,0 0.98413,-0.174957 1.377783,-0.52487c0.415522,-0.459261 0.918522,-0.677957 1.53087,-0.677957c0.634217,0 1.159087,0.218696 1.596478,0.656087c0.437391,0.437391 0.656087,0.962261 0.656087,1.596478c0,0.634217 -0.218696,1.159087 -0.656087,1.574609c-0.437391,0.415522 -0.962261,0.634217 -1.596478,0.634217l-43.826611,0c-0.546739,0 -1.006,0.196826 -1.399652,0.568609c-0.393652,0.415522 -0.590478,0.874783 -0.590478,1.421522l-0.000003,0z"/>
</g>
<g stroke-opacity="0.4" stroke="midnightblue" stroke-width="2.5">
  <path  stroke-width="1" fill="goldenrod" d="m39.688218,37.819263zm-32.27948,2.143217c0,0.52487 0.174957,0.940391 0.52487,1.268435c0.349913,0.349913 0.787304,0.52487 1.268435,0.52487c0.52487,0 0.98413,-0.174957 1.355913,-0.503s0.546739,-0.765435 0.546739,-1.290304c0,-0.503 -0.196826,-0.940391 -0.568609,-1.312174c-0.371783,-0.371783 -0.831044,-0.546739 -1.334044,-0.546739c-0.48113,0 -0.918522,0.174957 -1.268435,0.546739c-0.349913,0.371783 -0.52487,0.809174 -0.52487,1.312174l0.000001,-0.000001zm2.077609,-21.716479c0,0.52487 0.174957,0.940391 0.52487,1.268435c0.349913,0.349913 0.787304,0.52487 1.268435,0.52487c0.52487,0 0.98413,-0.174957 1.334044,-0.503c0.371783,-0.349913 0.546739,-0.765435 0.546739,-1.290304c0,-0.503 -0.174957,-0.940391 -0.546739,-1.312174c-0.349913,-0.349913 -0.809174,-0.546739 -1.312174,-0.546739c-0.48113,0 -0.918522,0.174957 -1.268435,0.546739c-0.371783,0.371783 -0.546739,0.809174 -0.546739,1.312174l-0.000001,-0.000001zm6.626479,-5.05187c0,0.52487 0.174957,0.940391 0.52487,1.268435c0.349913,0.371783 0.787304,0.546739 1.268435,0.546739c0.52487,0 0.98413,-0.174957 1.355913,-0.503c0.371783,-0.349913 0.546739,-0.765435 0.546739,-1.290304c0,-0.503 -0.196826,-0.940391 -0.568609,-1.312174c-0.349913,-0.371783 -0.809174,-0.546739 -1.334044,-0.546739c-0.48113,0 -0.918522,0.174957 -1.268435,0.546739c-0.349913,0.349913 -0.52487,0.787304 -0.52487,1.290304l0.000001,0zm0.196826,25.368697c0,0.503 0.174957,0.940391 0.546739,1.268435c0.349913,0.349913 0.765435,0.52487 1.246565,0.52487c0.52487,0 0.98413,-0.174957 1.355913,-0.503c0.371783,-0.349913 0.546739,-0.765435 0.546739,-1.290304c0,-0.503 -0.196826,-0.940391 -0.568609,-1.312174c-0.371783,-0.371783 -0.831044,-0.546739 -1.334044,-0.546739c-0.48113,0 -0.918522,0.174957 -1.268435,0.546739c-0.349913,0.371783 -0.52487,0.809174 -0.52487,1.312174l0.000002,-0.000001zm9.141479,-21.497784c0,0.52487 0.174957,0.940391 0.52487,1.268435c0.349913,0.349913 0.787304,0.52487 1.268435,0.52487c0.52487,0 0.98413,-0.174957 1.355913,-0.503s0.546739,-0.765435 0.546739,-1.290304c0,-0.503 -0.196826,-0.940391 -0.568609,-1.312174c-0.371783,-0.371783 -0.831044,-0.546739 -1.334044,-0.546739c-0.503,0 -0.918522,0.174957 -1.268435,0.546739c-0.349913,0.371783 -0.52487,0.809174 -0.52487,1.312174l0.000001,-0.000001zm0.699826,24.034654c0,0.503 0.174957,0.918522 0.546739,1.268435c0.349913,0.349913 0.765435,0.52487 1.246565,0.52487c0.52487,0 0.98413,-0.174957 1.355913,-0.503c0.371783,-0.349913 0.546739,-0.765435 0.546739,-1.290304c0,-0.503 -0.196826,-0.940391 -0.568609,-1.312174c-0.371783,-0.371783 -0.831044,-0.546739 -1.334044,-0.546739c-0.48113,0 -0.918522,0.174957 -1.268435,0.546739s-0.52487,0.809174 -0.52487,1.312174l0.000002,-0.000001zm9.797566,-24.384567c0,0.503 0.174957,0.918522 0.52487,1.246565c0.371783,0.371783 0.787304,0.546739 1.268435,0.546739c0.52487,0 0.98413,-0.174957 1.355913,-0.503c0.371783,-0.349913 0.546739,-0.765435 0.546739,-1.290304c0,-0.503 -0.196826,-0.940391 -0.568609,-1.312174c-0.371783,-0.371783 -0.831044,-0.546739 -1.334044,-0.546739c-0.48113,0 -0.896652,0.174957 -1.268435,0.546739c-0.328043,0.371783 -0.52487,0.809174 -0.52487,1.312174l0.000001,0zm11.131609,15.439914c0,0.52487 0.174957,0.940391 0.52487,1.268435c0.349913,0.349913 0.787304,0.52487 1.268435,0.52487c0.52487,0 0.98413,-0.174957 1.334044,-0.503c0.371783,-0.349913 0.546739,-0.765435 0.546739,-1.290304c0,-0.503 -0.174957,-0.940391 -0.546739,-1.312174c-0.371783,-0.371783 -0.809174,-0.546739 -1.334044,-0.546739c-0.503,0 -0.918522,0.174957 -1.268435,0.546739c-0.328043,0.371783 -0.52487,0.809174 -0.52487,1.312174l0,-0.000001z"/>
  <path fill="khaki" d="m3.975216,32.001958c0,0.52487 0.196826,0.98413 0.612348,1.355913c0.349913,0.415522 0.809174,0.612348 1.377783,0.612348l32.126393,0c0.634217,0 1.159087,0.218696 1.596478,0.656087c0.437391,0.437391 0.656087,0.98413 0.656087,1.618348c0,0.634217 -0.218696,1.159087 -0.656087,1.574609c-0.437391,0.415522 -0.962261,0.634217 -1.618348,0.634217c-0.634217,0 -1.180957,-0.218696 -1.596478,-0.634217c-0.349913,-0.393652 -0.787304,-0.568609 -1.312174,-0.568609c-0.546739,0 -1.006,0.196826 -1.399652,0.568609s-0.590478,0.831044 -0.590478,1.334044c0,0.546739 0.196826,1.006 0.612348,1.377783c1.224696,1.202826 2.668087,1.815174 4.286435,1.815174c1.705826,0 3.171087,-0.590478 4.395783,-1.771435c1.224696,-1.180957 1.815174,-2.602478 1.815174,-4.308305s-0.612348,-3.149218 -1.837044,-4.373913c-1.224696,-1.224696 -2.689957,-1.837044 -4.373913,-1.837044l-32.104524,0c-0.546739,0 -1.006,0.196826 -1.399652,0.568609c-0.393652,0.371783 -0.590478,0.831044 -0.590478,1.377783l-0.000001,-0.000001zm0,-7.173218c0,0.503 0.196826,0.940391 0.612348,1.334044c0.371783,0.393652 0.831044,0.568609 1.377783,0.568609l43.826611,0c1.705826,0 3.171087,-0.590478 4.395783,-1.793304c1.224696,-1.180957 1.837044,-2.624348 1.837044,-4.308305c0,-1.683957 -0.612348,-3.149218 -1.837044,-4.352044s-2.689957,-1.815174 -4.395783,-1.815174c-1.683957,0 -3.105478,0.590478 -4.264565,1.749565c-0.393652,0.349913 -0.590478,0.831044 -0.590478,1.465261c0,0.568609 0.196826,1.02787 0.568609,1.377783c0.371783,0.349913 0.831044,0.52487 1.377783,0.52487c0.52487,0 0.98413,-0.174957 1.377783,-0.52487c0.415522,-0.459261 0.918522,-0.677957 1.53087,-0.677957c0.634217,0 1.159087,0.218696 1.596478,0.656087c0.437391,0.437391 0.656087,0.962261 0.656087,1.596478c0,0.634217 -0.218696,1.159087 -0.656087,1.574609c-0.437391,0.415522 -0.962261,0.634217 -1.596478,0.634217l-43.826611,0c-0.546739,0 -1.006,0.196826 -1.399652,0.568609c-0.393652,0.415522 -0.590478,0.874783 -0.590478,1.421522l-0.000003,0z"/>
</g>
</svg>
